<svg xmlns="http://www.w3.org/2000/svg" viewBox="0 0 544 308"><title>error-page-not-found</title><line x1="116.38" y1="144.47" x2="217.06" y2="144.47" style="fill:none;stroke:#7fb5ef;stroke-miterlimit:10"/><line x1="374.74" y1="130.18" x2="479.83" y2="130.18" style="fill:none;stroke:#7fb5ef;stroke-miterlimit:10"/><line x1="303.82" y1="136.05" x2="325.75" y2="136.05" style="fill:none;stroke:#7fb5ef;stroke-miterlimit:10"/><text transform="translate(43.41 142.11)" style="font-size:27.144001007080078px;fill:none;stroke:#7fb5ef;stroke-miterlimit:10;font-family:SourceSansPro-ExtraLight, Source Sans Pro;font-weight:200">404</text><text transform="translate(278.99 53.12)" style="font-size:22.968000411987305px;fill:none;stroke:#7fb5ef;stroke-miterlimit:10;font-family:SourceSansPro-ExtraLight, Source Sans Pro;font-weight:200">404</text><path d="M162.47,84.37v4.74a3,3,0,0,1-2.95,3h0a3,3,0,0,1-2.94-3V84.37A7.18,7.18,0,0,0,152.33,91a7.2,7.2,0,0,0,14.39-.11A7.18,7.18,0,0,0,162.47,84.37Z" style="fill:none;stroke:#7fb5ef;stroke-miterlimit:10"/><path d="M159.23,98.12a7,7,0,0,1-2.58-.61v31.13a2.87,2.87,0,0,0,2.87,2.87h0a2.87,2.87,0,0,0,2.88-2.87V97.52A7.15,7.15,0,0,1,159.23,98.12Z" style="fill:none;stroke:#7fb5ef;stroke-miterlimit:10"/><path d="M213.21,118.48H194.67a2.86,2.86,0,0,0-2.87,2.87h0a2.86,2.86,0,0,0,2.87,2.87h18.54Z" style="fill:none;stroke:#7fb5ef;stroke-miterlimit:10"/><line x1="213.21" y1="121.35" x2="230.88" y2="121.35" style="fill:none;stroke:#7fb5ef;stroke-miterlimit:10"/><polygon points="230.88 123.1 230.88 119.61 238.92 120.17 238.92 122.53 230.88 123.1" style="fill:none;stroke:#7fb5ef;stroke-miterlimit:10"/><path d="M266.42,99l.07,24.23a6,6,0,0,0,1.76,4.24l.16.16a2.7,2.7,0,0,0,3.83,0h0a2.7,2.7,0,0,1,3.83,0h0a2.7,2.7,0,0,0,3.83,0h0a2.72,2.72,0,0,1,3.84,0h0a2.7,2.7,0,0,0,3.83,0h0a2.72,2.72,0,0,1,3.83,0h0a2.7,2.7,0,0,0,3.83,0h0a6,6,0,0,0,1.76-4.25V98.94a15.29,15.29,0,0,0-15.28-15.29h0A15.29,15.29,0,0,0,266.42,99Z" style="fill:none;stroke:#7fb5ef;stroke-miterlimit:10"/><line x1="277.59" y1="102.38" x2="273.35" y2="98.13" style="fill:none;stroke:#7fb5ef;stroke-miterlimit:10"/><line x1="273.35" y1="102.38" x2="277.59" y2="98.13" style="fill:none;stroke:#7fb5ef;stroke-miterlimit:10"/><line x1="290.12" y1="102.38" x2="285.88" y2="98.13" style="fill:none;stroke:#7fb5ef;stroke-miterlimit:10"/><line x1="285.88" y1="102.38" x2="290.12" y2="98.13" style="fill:none;stroke:#7fb5ef;stroke-miterlimit:10"/><line x1="356.68" y1="86.22" x2="350.19" y2="79.74" style="fill:none;stroke:#7fb5ef;stroke-miterlimit:10"/><line x1="350.19" y1="86.22" x2="356.68" y2="79.74" style="fill:none;stroke:#7fb5ef;stroke-miterlimit:10"/><line x1="375.82" y1="86.22" x2="369.34" y2="79.74" style="fill:none;stroke:#7fb5ef;stroke-miterlimit:10"/><line x1="369.34" y1="86.22" x2="375.82" y2="79.74" style="fill:none;stroke:#7fb5ef;stroke-miterlimit:10"/><rect x="334.71" y="68.25" width="56.6" height="41.61" style="fill:none;stroke:#7fb5ef;stroke-miterlimit:10"/><rect x="338.32" y="72.14" width="49.36" height="33.83" style="fill:none;stroke:#7fb5ef;stroke-miterlimit:10"/><rect x="354.82" y="109.87" width="16.36" height="8.16" style="fill:none;stroke:#7fb5ef;stroke-miterlimit:10"/><path d="M353.36,118h19.28a3.69,3.69,0,0,1,3.69,3.69v.16a0,0,0,0,1,0,0H349.67a0,0,0,0,1,0,0v-.16A3.69,3.69,0,0,1,353.36,118Z" style="fill:none;stroke:#7fb5ef;stroke-miterlimit:10"/><line x1="356.68" y1="92.33" x2="375.82" y2="92.33" style="fill:none;stroke:#7fb5ef;stroke-miterlimit:10"/><path d="M372.58,92.33h-6.33v6.14a3.17,3.17,0,0,0,3.16,3.17h0a3.17,3.17,0,0,0,3.17-3.17Z" style="fill:none;stroke:#7fb5ef;stroke-miterlimit:10"/><path d="M490.68,116.73H425.41a5.35,5.35,0,0,1-5.35-5.35h0a5.36,5.36,0,0,1,5.35-5.35h65.27a5.35,5.35,0,0,1,5.35,5.35h0A5.34,5.34,0,0,1,490.68,116.73Z" style="fill:none;stroke:#7fb5ef;stroke-miterlimit:10"/><circle cx="458.05" cy="111.38" r="3" style="fill:none;stroke:#7fb5ef;stroke-miterlimit:10"/><circle cx="470.57" cy="111.38" r="3" style="fill:none;stroke:#7fb5ef;stroke-miterlimit:10"/><circle cx="483.1" cy="111.38" r="3" style="fill:none;stroke:#7fb5ef;stroke-miterlimit:10"/><circle cx="445.52" cy="111.38" r="3" style="fill:none;stroke:#7fb5ef;stroke-miterlimit:10"/><circle cx="432.99" cy="111.38" r="3" style="fill:none;stroke:#7fb5ef;stroke-miterlimit:10"/><polygon points="482.53 106.03 433.56 106.03 430.43 88.19 485.67 88.19 482.53 106.03" style="fill:none;stroke:#7fb5ef;stroke-miterlimit:10"/><line x1="431.49" y1="94.24" x2="461.83" y2="94.24" style="fill:none;stroke:#7fb5ef;stroke-miterlimit:10"/><line x1="471.4" y1="94.24" x2="478.02" y2="94.24" style="fill:none;stroke:#7fb5ef;stroke-miterlimit:10"/><line x1="444" y1="100.2" x2="473.58" y2="100.2" style="fill:none;stroke:#7fb5ef;stroke-miterlimit:10"/><polygon points="454.13 80.02 432.35 80.02 434.44 70.1 454.13 70.1 454.13 80.02" style="fill:none;stroke:#7fb5ef;stroke-miterlimit:10"/><line x1="442.52" y1="70.1" x2="436.73" y2="76.89" style="fill:none;stroke:#7fb5ef;stroke-miterlimit:10"/><line x1="443.24" y1="75.06" x2="438.78" y2="80.02" style="fill:none;stroke:#7fb5ef;stroke-miterlimit:10"/><polygon points="461.83 77.54 461.83 65.58 430.08 65.58 424.86 88.19 490.54 88.19 488.08 77.54 461.83 77.54" style="fill:none;stroke:#7fb5ef;stroke-miterlimit:10"/><rect x="468.97" y="59.83" width="4.61" height="17.7" style="fill:none;stroke:#7fb5ef;stroke-miterlimit:10"/><line x1="478.02" y1="65.58" x2="478.02" y2="77.54" style="fill:none;stroke:#7fb5ef;stroke-miterlimit:10"/><rect x="412.03" y="60.85" width="8.93" height="8.93" style="fill:none;stroke:#7fb5ef;stroke-linejoin:bevel"/><rect x="404.54" y="53.36" width="7.66" height="7.66" style="fill:none;stroke:#7fb5ef;stroke-linejoin:bevel"/><rect x="397.96" y="46.77" width="6.63" height="6.63" style="fill:none;stroke:#7fb5ef;stroke-linejoin:bevel"/><rect x="392.34" y="41.15" width="5.64" height="5.64" style="fill:none;stroke:#7fb5ef;stroke-linejoin:bevel"/><rect x="387.53" y="36.35" width="4.91" height="4.91" style="fill:none;stroke:#7fb5ef;stroke-linejoin:bevel"/><rect x="383.49" y="32.31" width="4.14" height="4.14" style="fill:none;stroke:#7fb5ef;stroke-linejoin:bevel"/><polygon points="429.51 68.04 385 29.87 381.06 33.82 425.46 85.6 429.51 68.04" style="fill:none;stroke:#7fb5ef;stroke-miterlimit:10"/><polygon points="429.08 69.93 421.11 69.93 421.11 79.89 426.78 79.89 429.08 69.93" style="fill:none;stroke:#7fb5ef;stroke-linejoin:bevel"/><line x1="381.06" y1="33.82" x2="381.06" y2="45.91" style="fill:none;stroke:#7fb5ef;stroke-linejoin:bevel"/><path d="M382.84,47.69a1.78,1.78,0,1,1-1.78-1.78A1.78,1.78,0,0,1,382.84,47.69Z" style="fill:none;stroke:#7fb5ef;stroke-linejoin:bevel"/><path d="M378,55.71a3,3,0,1,0,3.05-3V49" style="fill:none;stroke:#7fb5ef;stroke-linejoin:bevel"/><circle cx="101.14" cy="106.21" r="6.79" style="fill:none;stroke:#7fb5ef;stroke-miterlimit:10"/><path d="M82.58,67.72l-1.66,1.66L93.65,82.11h0a5.18,5.18,0,0,0-.92-8.06Z" style="fill:none;stroke:#7fb5ef;stroke-miterlimit:10"/><path d="M62.63,87.67,64.29,86,77,98.75h0A5.18,5.18,0,0,1,69,97.82Z" style="fill:none;stroke:#7fb5ef;stroke-miterlimit:10"/><path d="M71.39,78.91l2.46-2.46,11,7.72a4.1,4.1,0,0,1,.54,6.25h0a4.1,4.1,0,0,1-6.25-.54Z" style="fill:none;stroke:#7fb5ef;stroke-miterlimit:10"/><path d="M107.37,120l7.1-.43.43-7.1a19.05,19.05,0,0,0-5.55-14.63L90,78.42l-5.5,5.5.35.25a4.1,4.1,0,1,1-5.71,5.71l-.24-.35L73.35,95l19.39,19.39A19.07,19.07,0,0,0,107.37,120Z" style="fill:none;stroke:#7fb5ef;stroke-miterlimit:10"/><line x1="62.25" y1="56.23" x2="64.28" y2="58.26" style="fill:none;stroke:#7fb5ef;stroke-miterlimit:10"/><line x1="68.71" y1="62.69" x2="74.8" y2="68.78" style="fill:none;stroke:#7fb5ef;stroke-miterlimit:10"/><line x1="43.91" y1="48.73" x2="66.33" y2="71.15" style="fill:none;stroke:#7fb5ef;stroke-miterlimit:10"/><line x1="39.3" y1="54.45" x2="42.25" y2="57.4" style="fill:none;stroke:#7fb5ef;stroke-miterlimit:10"/><line x1="46.49" y1="61.65" x2="54.43" y2="69.59" style="fill:none;stroke:#7fb5ef;stroke-miterlimit:10"/><path d="M235.42,60.85H183.59a4.73,4.73,0,0,1-4.73-4.73h0a4.73,4.73,0,0,1,4.73-4.73h51.83a4.73,4.73,0,0,1,4.73,4.73h0A4.73,4.73,0,0,1,235.42,60.85Z" style="fill:none;stroke:#7fb5ef;stroke-miterlimit:10"/><path d="M228.16,51.43v0a18.66,18.66,0,1,0-37.31,0v0Z" style="fill:none;stroke:#7fb5ef;stroke-miterlimit:10"/><circle cx="209.5" cy="56.12" r="3" style="fill:none;stroke:#7fb5ef;stroke-miterlimit:10"/><circle cx="198.02" cy="56.12" r="3" style="fill:none;stroke:#7fb5ef;stroke-miterlimit:10"/><circle cx="186.54" cy="56.12" r="3" style="fill:none;stroke:#7fb5ef;stroke-miterlimit:10"/><circle cx="232.47" cy="56.12" r="3" style="fill:none;stroke:#7fb5ef;stroke-miterlimit:10"/><circle cx="220.99" cy="56.12" r="3" style="fill:none;stroke:#7fb5ef;stroke-miterlimit:10"/><polyline points="193.84 99.42 198.02 60.85 220.99 60.85 226.21 99.42" style="fill:none;stroke:#7fb5ef;stroke-miterlimit:10"/><line x1="203.88" y1="69.93" x2="202.5" y2="106.03" style="fill:none;stroke:#7fb5ef;stroke-miterlimit:10"/><line x1="213.21" y1="78.42" x2="214.32" y2="95.07" style="fill:none;stroke:#7fb5ef;stroke-miterlimit:10"/><path d="M325.75,67.72,317,58.5a18.9,18.9,0,0,0,5-12.59c0-11.92-12-21.58-26.72-21.58S268.53,34,268.53,45.91s12,21.58,26.72,21.58a31.44,31.44,0,0,0,14.07-3.23Z" style="fill:none;stroke:#7fb5ef;stroke-miterlimit:10"/><path d="M176,32.5H152.08a12.86,12.86,0,0,0-12.86-12.86,12.72,12.72,0,0,0-5.31,1.16,17.49,17.49,0,0,0-32.77,8.5c0,.57,0,1.13.08,1.68a10.74,10.74,0,0,0-4.79,14.71H64.28" style="fill:none;stroke:#7fb5ef;stroke-miterlimit:10"/><circle cx="138.45" cy="46.79" r="13.63" transform="translate(7.46 111.6) rotate(-45)" style="fill:none;stroke:#7fb5ef;stroke-miterlimit:10"/><line x1="140.98" y1="48.73" x2="167.53" y2="48.73" style="fill:none;stroke:#7fb5ef;stroke-miterlimit:10"/><line x1="120.13" y1="61.65" x2="91.91" y2="61.65" style="fill:none;stroke:#7fb5ef;stroke-miterlimit:10"/><line x1="352.16" y1="35.73" x2="346.54" y2="35.73" style="fill:none;stroke:#7fb5ef;stroke-miterlimit:10"/><line x1="349.35" y1="38.54" x2="349.35" y2="32.92" style="fill:none;stroke:#7fb5ef;stroke-miterlimit:10"/><line x1="360.17" y1="49.66" x2="356.2" y2="45.69" style="fill:none;stroke:#7fb5ef;stroke-miterlimit:10"/><line x1="356.2" y1="49.66" x2="360.17" y2="45.69" style="fill:none;stroke:#7fb5ef;stroke-miterlimit:10"/><path d="M329.09,27.4a1.24,1.24,0,1,1,1.24-1.24A1.24,1.24,0,0,1,329.09,27.4Z" style="fill:none;stroke:#7fb5ef;stroke-miterlimit:10"/><circle cx="342.12" cy="41.88" r="1.71" style="fill:none;stroke:#7fb5ef;stroke-miterlimit:10"/><line x1="139.24" y1="87.5" x2="133.63" y2="87.5" style="fill:none;stroke:#7fb5ef;stroke-miterlimit:10"/><line x1="136.43" y1="90.31" x2="136.43" y2="84.69" style="fill:none;stroke:#7fb5ef;stroke-miterlimit:10"/><line x1="147.25" y1="101.43" x2="143.28" y2="97.46" style="fill:none;stroke:#7fb5ef;stroke-miterlimit:10"/><line x1="143.28" y1="101.43" x2="147.25" y2="97.46" style="fill:none;stroke:#7fb5ef;stroke-miterlimit:10"/><circle cx="116.17" cy="77.93" r="1.24" style="fill:none;stroke:#7fb5ef;stroke-miterlimit:10"/><circle cx="129.2" cy="93.65" r="1.71" style="fill:none;stroke:#7fb5ef;stroke-miterlimit:10"/><line x1="246.55" y1="23.36" x2="246.55" y2="28.97" style="fill:none;stroke:#7fb5ef;stroke-miterlimit:10"/><line x1="249.35" y1="26.16" x2="243.74" y2="26.16" style="fill:none;stroke:#7fb5ef;stroke-miterlimit:10"/><line x1="271.64" y1="15.34" x2="267.67" y2="19.31" style="fill:none;stroke:#7fb5ef;stroke-miterlimit:10"/><line x1="271.64" y1="19.31" x2="267.67" y2="15.34" style="fill:none;stroke:#7fb5ef;stroke-miterlimit:10"/><circle cx="241.39" cy="35.11" r="1.24" style="fill:none;stroke:#7fb5ef;stroke-miterlimit:10"/><circle cx="256.13" cy="46.02" r="1.71" style="fill:none;stroke:#7fb5ef;stroke-miterlimit:10"/><rect x="32.35" y="279.02" width="485.86" height="5.45" rx="2.39" style="fill:#73a9ea"/><path d="M59.82,221.08c0-37.72,21.51-58.87,53.23-58.87s53.23,21.32,53.23,58.87c0,37.71-21.5,59.92-53.23,59.92S59.82,258.79,59.82,221.08Zm75.44,0c0-20.8-8.46-32.79-22.21-32.79s-22.21,12-22.21,32.79,8.46,33.84,22.21,33.84S135.26,241.87,135.26,221.08Z" style="fill:#7fb5ef"/><path d="M181.79,221.08c0-37.72,21.5-58.87,53.22-58.87s53.23,21.32,53.23,58.87c0,37.71-21.5,59.92-53.23,59.92S181.79,258.79,181.79,221.08Zm75.43,0c0-20.8-8.46-32.79-22.21-32.79s-22.2,12-22.2,32.79,8.46,33.84,22.2,33.84S257.22,241.87,257.22,221.08Z" style="fill:#7fb5ef"/><path d="M308.69,164.32h41.94c25,0,46.53,9.17,46.53,38.07,0,28-21.85,40.19-45.82,40.19H339v36.31H308.69Zm41.24,54.29c12,0,17.62-6,17.62-16.22s-6.69-14.1-18.33-14.1H339v30.32Z" style="fill:#7fb5ef"/><path d="M407,264.61l17.28-20.8c8.1,6.52,18.33,11.11,26.79,11.11,9.16,0,13-3,13-8.11,0-5.47-5.82-7.23-15.51-11.11l-14.28-6c-12.34-4.93-23.09-15.33-23.09-31.9,0-19.56,17.63-35.6,42.66-35.6A55.08,55.08,0,0,1,492,177.54l-15.16,19c-7.76-5.47-14.45-8.29-22.91-8.29-7.41,0-12,2.65-12,7.76,0,5.46,6.52,7.4,16.92,11.45L472.77,213c14.28,5.64,22.39,15.51,22.39,31.37,0,19.39-16.22,36.66-44.77,36.66C435.94,281,419.37,275.71,407,264.61Z" style="fill:#7fb5ef"/><path d="M191.75,291.64c0,1.47-8.88,2.66-19.83,2.66s-19.84-1.19-19.84-2.66S161,289,171.92,289,191.75,290.16,191.75,291.64Z" style="fill:#7fb5ef"/><path d="M172.4,199.64a6.72,6.72,0,1,1-6.71-6.71A6.72,6.72,0,0,1,172.4,199.64Z" style="fill:#c8462d"/><path d="M182.68,198.53a6.72,6.72,0,1,1-6.71-6.72A6.7,6.7,0,0,1,182.68,198.53Z" style="fill:#c8462d"/><circle cx="169.25" cy="192.06" r="5.49" style="fill:#c8462d"/><path d="M181.7,260.3c-.48,3.44-4.93,30.27-6,29.85-1-.37-1.72-27.43-1.24-30.87s2.5-6,4.52-5.73S182.19,256.85,181.7,260.3Z" style="fill:#fa968c"/><path d="M182.94,235.35c0,5.56.13,24.89-3.88,24.89s-10.67-23.36-10.67-28.92,6.16-14.1,10.18-14.1S182.94,229.79,182.94,235.35Z" style="fill:#fa968c"/><path d="M174.88,284a27.78,27.78,0,0,1-.61,5c-.5,1.76-.12,2.51,1.7,2.63s6.41.81,6.95.28-1.6-1.38-3.08-2a5.14,5.14,0,0,1-2.72-4.52Z" style="fill:#fa968c"/><path d="M183.3,201.13c1.29,3.23,5.16,12.28,3.28,13s-8.82-7.08-10.11-10.31-.81-6.46,1.08-7.21S182,197.9,183.3,201.13Z" style="fill:#fab9af"/><path d="M183.59,207.35l-2.17-4.91.17-2a3.59,3.59,0,0,0-3.57-4H165.34a2.81,2.81,0,0,0-2.66,3.72l6,17.51,1.87,6,8.52,1.36,1.39-13.52h.13A3.18,3.18,0,0,0,183.59,207.35Z" style="fill:#fa968c"/><path d="M183.59,207.35l-2.17-4.91.17-2a3.59,3.59,0,0,0-3.57-4H176a3.2,3.2,0,0,1-3.2,3.73h-.06a3.19,3.19,0,0,1-3.2-3.73h-4.16a2.81,2.81,0,0,0-2.66,3.72l6,17.51,1.87,6,8.52,1.36,1.39-13.52h.13A3.18,3.18,0,0,0,183.59,207.35Z" style="fill:#fff"/><path d="M172.76,260.09c-.48,3.45-4.93,30.27-6,29.85-1-.37-1.73-27.42-1.24-30.87s2.5-6,4.51-5.72S173.24,256.65,172.76,260.09Z" style="fill:#fab9af"/><path d="M174,235.14c0,5.56.14,24.9-3.88,24.9s-10.66-23.37-10.66-28.93S165.61,217,169.62,217,174,229.58,174,235.14Z" style="fill:#fab9af"/><path d="M181.52,256.53c1.49-5.89,1.42-17.15,1.42-21.18,0-5.56.26-14.83-3.07-18.13-1.77,0-8.76-.2-10.25-.2-4,0-10.17,8.53-10.17,14.09,0,4.08,3.57,17.71,7.06,24.71C166,256.73,181.76,257.43,181.52,256.53Z" style="fill:#373c41"/><path d="M165.94,283.77a37.69,37.69,0,0,1-.61,6.17c-.5,1.77-4.31,7.42-2.14,7.42a66.5,66.5,0,0,0,5.69-5.28c1.26-1.68-.91-3.27-.71-6.93Z" style="fill:#fab9af"/><path d="M179.84,289.87l-.27-.16a4.34,4.34,0,0,1-2.17.56,4.1,4.1,0,0,1-3.13-1.3c-.5,1.77-.12,2.51,1.7,2.63s6.41.81,6.95.28S181.32,290.5,179.84,289.87Z" style="fill:#aa321e"/><path d="M168.43,287.76a5.09,5.09,0,0,1-.26,1.09,4.13,4.13,0,0,1-4.17,3.93c-1.1,2.17-2.23,4.58-.81,4.58a66.5,66.5,0,0,0,5.69-5.28C169.79,290.86,168.91,289.69,168.43,287.76Z" style="fill:#aa321e"/><path d="M167.27,203.69c-.76,3.39-4.47,13-6.46,12.57s-1.48-10.79-.72-14.18,3-5.78,5-5.34S168,200.3,167.27,203.69Z" style="fill:#fa968c"/><path d="M179.22,180.13a2.93,2.93,0,0,0-2.55.56,5.82,5.82,0,0,1-3.67,1.42h-.71a2.69,2.69,0,0,0-2.45,1.57l-1.49,3.24h9.3v-1.15a2.9,2.9,0,0,0,3.69-3.5A2.9,2.9,0,0,0,179.22,180.13Z" style="fill:#c8462d"/><polygon points="175.11 197.55 169.46 196.95 172.4 191.17 175.11 191.72 175.11 197.55" style="fill:#fa968c"/><circle cx="178.38" cy="186" r="2.93" style="fill:#c8462d"/><path d="M179.79,190.32a2.93,2.93,0,1,1-2.93-2.93A2.93,2.93,0,0,1,179.79,190.32Z" style="fill:#c8462d"/><path d="M178.55,186.41c0,4.82-4,5.91-6.73,5.91s-2.51-4-2.51-6.07,2.17-3.18,4.87-3.18S178.55,184.33,178.55,186.41Z" style="fill:#c8462d"/><path d="M178.4,187.92c0,2.86-.94,7.43-3.12,7.43s-4.52-3.27-4.52-6.13,1.27-4.52,3.44-4.52S178.4,185.06,178.4,187.92Z" style="fill:#fab9af"/><path d="M170.84,188.09h5.5a4.64,4.64,0,0,0,2-.7c0-2-1-3.07-4.18-2.69A3.53,3.53,0,0,0,170.84,188.09Z" style="fill:#ff9669"/><path d="M172.62,183.57h6.47a0,0,0,0,1,0,0v1.36a2.63,2.63,0,0,1-2.63,2.63H170a0,0,0,0,1,0,0v-1.38A2.61,2.61,0,0,1,172.62,183.57Z" style="fill:#c8462d"/><path d="M171.82,189.72h0v-3.15h1.37v1.77A1.37,1.37,0,0,1,171.82,189.72Z" style="fill:#c8462d"/><path d="M172.34,189.11c0,.94-.29,1.71-1.07,1.71s-1.09-1.09-1.09-2,.32-1.39,1.09-1.39S172.34,188.16,172.34,189.11Z" style="fill:#fab9af"/><path d="M186.76,209.32c1.73-1.48,13.07-10.22,13.89-9.27s-9.2,11.24-10.92,12.72-3.79,1.91-4.6,1S185,210.8,186.76,209.32Z" style="fill:#fa968c"/><path d="M201.84,199.84s-2.21-.09-2.46.57-.3,1.16.65,1.56a7.46,7.46,0,0,0,3.37.39,5.64,5.64,0,0,0,2.45-1.17c.35-.7-1.28-.3-2.08-.15s-1.72.24-1.68-.17,1.59-.58,1.78-1S201.84,199.84,201.84,199.84Z" style="fill:#fa968c"/><path d="M149.26,197.77s1.9,1.13,1.75,1.82-.38,1.14-1.4.95a7.46,7.46,0,0,1-3-1.51,5.66,5.66,0,0,1-1.42-2.31c.09-.77,1.24.44,1.83,1s1.31,1.14,1.5.78-1-1.35-.93-1.83S149.26,197.77,149.26,197.77Z" style="fill:#fab9af"/><path d="M157.27,213.85c-1.23-1.91-8.39-14.31-7.34-15s9.91,10.61,11.15,12.51,1.39,4,.34,4.69S158.51,215.75,157.27,213.85Z" style="fill:#fab9af"/><circle cx="384.28" cy="151.13" r="5.75" style="fill:#ffa50a"/><path d="M375.41,165.1c-1-2.56.83-8.14.83-8.14l-4.32-6.65a2.67,2.67,0,0,1,.28-2.88l.26-.34a5.72,5.72,0,0,0,1.34-3.84,2.92,2.92,0,0,1,4.11-2.85,2.94,2.94,0,0,1,1.11,4.49,3.07,3.07,0,0,1-.63.57l.9.72-4,5.12a5.46,5.46,0,0,1,8.26,5.63,6.71,6.71,0,1,1-5.76,11.8A7.81,7.81,0,0,1,375.41,165.1Z" style="fill:#fac855"/><path d="M392.58,142.91a131.72,131.72,0,0,1-13.95,1.56,6,6,0,0,0,.45-2.21,121,121,0,0,1,12.63-3.84c2.25-.43,4.26.22,4.5,1.46S394.82,142.47,392.58,142.91Z" style="fill:#39ae96"/><path d="M386.94,153.71c1.05-3.06,6.88-15.4,8.67-14.79s-1.15,13.94-2.19,17-3.35,5.05-5.13,4.44S385.9,156.77,386.94,153.71Z" style="fill:#39ae96"/><path d="M404.05,166.37c2.4-3.21,10.67-14.46,13.9-12S417.41,173,414,177.48c-4.59,6.1-11.06,4.42-14.29,2S401.64,169.59,404.05,166.37Z" style="fill:#fab9af"/><path d="M377.19,159.43l11.36-5.79c1.91-1,5.29,2.63,5.29,2.63l4.67,4.55a3.2,3.2,0,0,1-.78,5.15l-.11.06,4.93,12.74-8.25,2.68-4.42-4.52-13.37-13A2.83,2.83,0,0,1,377.19,159.43Z" style="fill:#55c7a6"/><path d="M383.21,160.41c3.05,1.71,15,10.33,14,12.11s-14.61-4-17.66-5.66-4.71-4.54-3.71-6.32S380.16,158.7,383.21,160.41Z" style="fill:#39ae96"/><path d="M425.1,162.35c3.5-.11,28.89-1.95,28.57-.58-.25,1.07-3.77,1.2-6.3,2-6.78,2.31-19.48,5.84-22,5.93-3.5.11-6.39-1.45-6.45-3.49S421.61,162.47,425.1,162.35Z" style="fill:#fa968c"/><path d="M395.55,167.91c1.12-2,8.82-14.16,9.92-13.54s-4.82,13.78-5.94,15.78-2.91,3.11-4,2.49S394.43,169.91,395.55,167.91Z" style="fill:#fab9af"/><path d="M395.55,167.91c.74-1.31,4.35-7.06,7-10.64a9.62,9.62,0,0,0,2.47,2.29,75.89,75.89,0,0,1-5.52,10.59c-1.11,2-2.91,3.11-4,2.49S394.43,169.91,395.55,167.91Z" style="fill:#39ae96"/><path d="M404.55,170.88c4-2.43,18-11,20.07-7.54s-9.74,18.4-15.44,21.82c-7.67,4.61-13.41.86-15.5-2.6S400.52,173.31,404.55,170.88Z" style="fill:#fa968c"/><path d="M411.52,157.4a84.37,84.37,0,0,0-7.47,9,36.43,36.43,0,0,0-4.76,8c-3.61,2.67-7,6-5.61,8.21,2.09,3.46,7.83,7.21,15.5,2.6,3.52-2.11,9.35-8.6,12.83-14.08A22.81,22.81,0,0,1,411.52,157.4Z" style="fill:#0073aa"/><path d="M421.61,157c1.88,2.61,16.09,23.41,15.07,23.89S417.92,164,416,161.38s-2.17-5.7-.63-6.9S419.73,154.42,421.61,157Z" style="fill:#fab9af"/><path d="M433.53,175.34a32.34,32.34,0,0,0,4.2,3.81c1.43.87,7.54,2.2,6,3.64a59.37,59.37,0,0,1-7.19.16c-1.91-.31-1.37-2.83-3.75-5.19Z" style="fill:#fab9af"/><path d="M440.69,180.32c2,.72,4,1.58,3.07,2.47a59.37,59.37,0,0,1-7.19.16c-1.26-.2-1.46-1.38-2.13-2.84A5.36,5.36,0,0,0,440.69,180.32Z" style="fill:#c8462d"/><path d="M448.42,161.34a33.14,33.14,0,0,0,5.35-1.89c1.45-.84,5.53-5.58,6.07-3.57a60,60,0,0,1-3.28,6.41c-1.18,1.52-3.14-.15-6.35.82Z" style="fill:#fa968c"/><path d="M456.21,157.4c1.59-1.41,3.29-2.77,3.63-1.52a60,60,0,0,1-3.28,6.41c-.78,1-1.91.61-3.51.52A5.39,5.39,0,0,0,456.21,157.4Z" style="fill:#c8462d"/><rect x="407.81" y="146.39" width="0.41" height="1.37" rx="0.09" transform="translate(836.98 211.08) rotate(168.66)" style="fill:#c8e6eb"/><path d="M405.52,155.27a.44.44,0,0,1-.7-.27l-1.27-6.93a.43.43,0,0,1,.16-.42L407,145a.45.45,0,0,1,.71.26l1.38,6.88a.44.44,0,0,1-.16.43Z" style="fill:#c8e6eb"/><path d="M404.26,148a.43.43,0,0,1,.16-.42l3-2.39a.19.19,0,0,1,.18,0,.19.19,0,0,1,.12.14h0l1.38,6.88a.44.44,0,0,1-.16.43l-3.25,2.56a.42.42,0,0,1-.14-.24Z" style="fill:#fff"/><path d="M404.19,152.82a2.35,2.35,0,0,1-.33,1.66c-.36.57-.71,1.3-.52,1.73.36.77.74,1.22,1.87.75a9.06,9.06,0,0,0,3.13-2.54,13,13,0,0,0,1.65-3.73c-.31-.88-1.93,1.52-2.46,2.32s-1.51,1.84-1.82,1.47-.58-3.06-1.16-3S404.07,152.19,404.19,152.82Z" style="fill:#fab9af"/><path d="M405.87,149c.12.55.52.92.89.84s.58-.6.45-1.15-.52-.92-.89-.83S405.74,148.44,405.87,149Z" style="fill:#c8e6eb"/><path d="M385.43,155.23s3.3,2.78,2.74,3.8c-.72,1.31-5.94-.33-5.94-.33l-2.37-6,2.21-1.66Z" style="fill:#fa968c"/><path d="M380.83,142.73a2.93,2.93,0,1,1-4.11.5A2.95,2.95,0,0,1,380.83,142.73Z" style="fill:#fac855"/><path d="M379.44,145.16c3.8,3,2.17,6.81.5,8.94s-4.69-.5-6.32-1.78-1.16-3.67.51-5.79S377.81,143.87,379.44,145.16Z" style="fill:#fac855"/><path d="M380.55,146.2c2.25,1.77,5.25,5.33,3.91,7s-5.36,1.54-7.61-.23-2.78-3.78-1.43-5.49S378.3,144.43,380.55,146.2Z" style="fill:#fab9af"/><path d="M376,152.26l3.4-4.33a4.65,4.65,0,0,0,.7-2c-1.61-1.27-3-1.11-4.69,1.62A3.52,3.52,0,0,0,376,152.26Z" style="fill:#ff9669"/><path d="M374.39,145.78h6.47a0,0,0,0,1,0,0v1.36a2.63,2.63,0,0,1-2.63,2.63h-6.45a0,0,0,0,1,0,0V148.4A2.61,2.61,0,0,1,374.39,145.78Z" transform="translate(27.7 352.52) rotate(-51.87)" style="fill:#fac855"/><path d="M377.89,152.49h0l-2.48-1.94.85-1.09,1.4,1.1A1.37,1.37,0,0,1,377.89,152.49Z" style="fill:#fac855"/><path d="M377.74,151.7c.74.59,1.16,1.3.69,1.9s-1.54.19-2.29-.4-.89-1.11-.41-1.72S377,151.12,377.74,151.7Z" style="fill:#fab9af"/><path d="M383,161.36a7.36,7.36,0,1,1-7.36-7.36A7.36,7.36,0,0,1,383,161.36Z" style="fill:#fac855"/><path d="M375.59,154.1a3.6,3.6,0,1,1-3.6-3.6A3.6,3.6,0,0,1,375.59,154.1Z" style="fill:#fac855"/><path d="M264.83,189.66c2.75-1,16.26-6.56,15.71-8.07s-14.94,1.61-17.7,2.61-4.54,3-4,4.54S262.07,190.66,264.83,189.66Z" style="fill:#fab9af"/><path d="M280.78,194.76c-3.52-1.94-20.67-8.73-21.95-6.41s13.8,12.87,17.32,14.81,7.41,1.64,8.69-.68S284.3,196.7,280.78,194.76Z" style="fill:#fab9af"/><path d="M268.87,198.29a84.72,84.72,0,0,0,7.28,4.87c3.52,1.94,7.41,1.64,8.69-.68s-.54-5.78-4.06-7.72a79.62,79.62,0,0,0-8.43-3.6C269.12,193.39,268.87,198.29,268.87,198.29Z" style="fill:#51946f"/><ellipse cx="289.35" cy="297.13" rx="19.87" ry="1.35" style="fill:#73a9ea"/><path d="M279.11,263.8c.45,3.21,4.58,28.14,5.61,27.74s1.61-25.48,1.16-28.68-2.33-5.59-4.2-5.32S278.66,260.6,279.11,263.8Z" style="fill:#fab9af"/><path d="M279.79,236.92c-.64,4.62-2,30.81,1.23,31.26s10.3-28.42,10.93-33-1.48-8.73-4.74-9.18S280.43,232.29,279.79,236.92Z" style="fill:#695a6e"/><path d="M285.41,286.44l0,6.07,1.05,3.45a.37.37,0,0,1-.35.48h-2.41v-.77l-1.17.77s-6.22.34-6.43,0c-.8-1.29,2.82-1.79,5.47-2.82s.82-11.08.82-11.08Z" style="fill:#fab9af"/><path d="M292.5,263.8c.44,3.2,4.58,28.13,5.61,27.74s1.6-25.48,1.15-28.69-2.32-5.58-4.19-5.32S292.05,260.6,292.5,263.8Z" style="fill:#fab9af"/><path d="M282.7,288.21h3.05c.43-7.79.42-23.25.13-25.35-.45-3.2-2.33-5.59-4.2-5.32s-3,3.06-2.57,6.26C279.4,265.86,281.17,280.69,282.7,288.21Z" style="fill:#695a6e"/><path d="M290,234.08c-.11,4.67,1.49,34.27,4.77,34.34s7-26,7.11-30.65-2.47-11.93-5.75-12S290.07,229.42,290,234.08Z" style="fill:#695a6e"/><path d="M298.79,286.43l0,6.08,1.06,3.45a.38.38,0,0,1-.36.48h-2.4v-.77l-1.17.77s-6.22.34-6.44,0c-.8-1.3,2.82-1.8,5.47-2.82s.82-11.08.82-11.08Z" style="fill:#fab9af"/><path d="M285.53,293a5.62,5.62,0,0,1-2.92.75,6.54,6.54,0,0,1-1.11-.1c-2.64,1-6.22,1.51-5.42,2.8.21.34,6.43,0,6.43,0l1.17-.77v.77h2.41a.37.37,0,0,0,.35-.48Z" style="fill:#415050"/><path d="M298.8,292.59a5.53,5.53,0,0,1-3.4,1.06l-.49,0c-2.64,1-6.24,1.52-5.45,2.81.22.34,6.44,0,6.44,0l1.17-.77v.77h2.4a.38.38,0,0,0,.36-.48Z" style="fill:#415050"/><path d="M297.19,195.59l-17.37-1.23a5.09,5.09,0,0,0-5.3,6.33l7.5,29.72a7.81,7.81,0,0,0,7.8,5.89h0a7.81,7.81,0,0,0,7.51-6.74l4-28.9A4.48,4.48,0,0,0,297.19,195.59Z" style="fill:#fa968c"/><path d="M297.19,195.59l-5.32-.38a3.57,3.57,0,0,1-3.25,4.48c-3,.19-4.32-2.73-3.63-5l-5.17-.36a5.09,5.09,0,0,0-5.3,6.33l7.5,29.72a7.81,7.81,0,0,0,7.8,5.89c3.81-.11,10.29-1.49,10.81-5.27l.67-30.37A4.48,4.48,0,0,0,297.19,195.59Z" style="fill:#51946f"/><path d="M280.56,185.08a8.55,8.55,0,0,0,10.3,6.78c3.45-.75,2-6.89,1.43-9.54s-3.65-3.45-7.09-2.7S280,182.43,280.56,185.08Z" style="fill:#69280f"/><polygon points="285.74 195.21 291.87 195.21 291.13 184.29 287.42 187.38 285.74 195.21" style="fill:#fa968c"/><path d="M301.62,209.39c5.13,5.39,11.54,7.63,12.85,6.39s-1.84-7.17-6.68-12.49c-5-5.51-9.91-8.93-11.88-7.06S296.5,204,301.62,209.39Z" style="fill:#fab9af"/><path d="M307.79,203.29c-5-5.51-9.91-8.93-11.88-7.06s.34,7.16,4.95,12.32C300.86,208.55,306.89,206.24,307.79,203.29Z" style="fill:#51946f"/><path d="M304.76,214.74c-2.89.76-15.76,5.1-15.33,6.74s14.13-.49,17-1.4c5.24-1.67,8.76-3.73,8.33-5.37S307.66,214,304.76,214.74Z" style="fill:#fab9af"/><path d="M281.87,188.63c1,4.43,2.29,6.42,4.57,5.93,2.77-.6,5.61-4.41,4.82-8.06s-2.86-5.41-5.64-4.81S281.08,185,281.87,188.63Z" style="fill:#fab9af"/><path d="M290.85,185.09l-7,1.53a3.62,3.62,0,0,1-2.12-.19,5,5,0,0,1,3.91-4.74C288,181.18,289.88,182.41,290.85,185.09Z" style="fill:#ff9669"/><path d="M279.49,180.29h8.42a3.43,3.43,0,0,1,3.43,3.43v1.78a0,0,0,0,1,0,0h-8.44a3.41,3.41,0,0,1-3.41-3.41v-1.8A0,0,0,0,1,279.49,180.29Z" transform="translate(603.14 301.09) rotate(167.75)" style="fill:#69280f"/><path d="M290.05,187.44h0l-.87-4-1.75.38.49,2.26A1.79,1.79,0,0,0,290.05,187.44Z" style="fill:#69280f"/><path d="M289.21,186.8c.27,1.21.86,2.11,1.84,1.89s1.26-2,1-3.22-1-1.36-1.95-1.15S289,185.59,289.21,186.8Z" style="fill:#fab9af"/><path d="M287.36,221.93h-9a1.19,1.19,0,0,1-1.18-1.05l-1.47-12.56a1.18,1.18,0,0,1,1.17-1.33h9a1.19,1.19,0,0,1,1.18,1l1.47,12.57A1.18,1.18,0,0,1,287.36,221.93Z" style="fill:#a5c8cd"/><path d="M286.84,222.43h-9a1.19,1.19,0,0,1-1.18-1.05l-1.48-12.57a1.19,1.19,0,0,1,1.18-1.33h9a1.19,1.19,0,0,1,1.17,1.05L288,221.1A1.19,1.19,0,0,1,286.84,222.43Z" style="fill:#c8e6eb"/><path d="M289.42,218.13s2.2,1.82,1.87,2.67-.71,1.37-2,.93a9.68,9.68,0,0,1-3.56-2.54,7.39,7.39,0,0,1-1.34-3.24c.28-1,1.5.82,2.13,1.65s1.44,1.72,1.75,1.3-1-1.93-.81-2.53S289.42,218.13,289.42,218.13Z" style="fill:#fab9af"/><path d="M296.06,288.21h3c.43-7.79.5-23.25.2-25.36-.44-3.2-2.32-5.58-4.19-5.32s-3,3.07-2.57,6.27C292.78,265.86,294.53,280.69,296.06,288.21Z" style="fill:#695a6e"/></svg>