<svg xmlns="http://www.w3.org/2000/svg" xmlns:xlink="http://www.w3.org/1999/xlink" viewBox="0 0 544 362"><defs><clipPath id="a"><path d="M246.65,185.41c-.91,2.79-.91,3.28-.91,2.79l0-79.7c0-.49,0-.41,0-58.12H425l0,135Z" style="fill:none"/></clipPath></defs><title>interactive-classes</title><rect y="-16.1" width="544" height="394.2" style="fill:#f7f7f7"/><g style="opacity:0.8"><g style="opacity:0.5"><path d="M276.2,120.29a100.7,100.7,0,0,1-45.92-19.46C210,85.53,167.56,59.48,127.07,72.45,71.23,90.35,71,142.12,85.53,170.24s117.69,110.48,251.41,97.38c119.67-11.73,143-145.95,79.16-170.24C360.75,76.32,341.87,130,276.2,120.29Z" style="fill:#ccd3e6"/></g><g style="opacity:0.5"><ellipse cx="448.47" cy="100.43" rx="5.19" ry="5.58" style="fill:#ccd3e6"/></g><path d="M109.71,63.64a3.37,3.37,0,0,1,3.76,2.11c1,2.59-1.54,5.49-4.91,4.19h0C105.65,67.79,106.91,64.15,109.71,63.64Z" style="fill:#ccd3e6"/><circle cx="434.3" cy="50.51" r="6.76" transform="matrix(0.16, -0.99, 0.99, 0.16, 314.67, 471.05)" style="fill:#ccd3e6"/><g style="opacity:0.8"><path d="M130.2,58.31a6.83,6.83,0,1,1-8.42-4.73A6.83,6.83,0,0,1,130.2,58.31Z" style="fill:#ccd3e6"/></g><path d="M400.35,261.73a3.37,3.37,0,0,1,4.09,1.37c1.42,2.37-.5,5.69-4.05,5h0C397.13,266.56,397.7,262.76,400.35,261.73Z" style="fill:#ccd3e6"/><path d="M419.49,252.68a6.83,6.83,0,1,1-9.15-3.08A6.82,6.82,0,0,1,419.49,252.68Z" style="fill:#ccd3e6"/><circle cx="421.57" cy="40.17" r="4.16" style="fill:#ccd3e6"/></g><g style="opacity:0.8"><path d="M436.8,115.49c0-37.14-30.93-77.85-69.43-80.31l-2.05-.11C310.14,32.5,305.94,99.81,256,107.4S168,76.67,108.21,101.67C54.55,124.12,40,250.3,197.67,255.36,323.8,259.41,436.82,226.32,436.8,115.49Z" style="fill:#ccd3e6"/></g><ellipse cx="337.89" cy="294.1" rx="121.65" ry="6.28" style="fill:#ccd3e6"/><path d="M420.29,276.53H403.43v17.54h19.72V279.39A2.86,2.86,0,0,0,420.29,276.53Z" style="fill:#ccd3e6"/><rect x="313.25" y="238.97" width="58.52" height="37.57" style="fill:#ccd3e6"/><path d="M271,276.53H400.59a15.92,15.92,0,0,1,15.92,15.92v1.61a0,0,0,0,1,0,0H255.08a0,0,0,0,1,0,0v-1.61A15.92,15.92,0,0,1,271,276.53Z" style="fill:#fff"/><rect x="306.08" y="238.97" width="58.52" height="37.57" style="fill:#fff"/><polygon points="306.08 250.5 364.6 245.82 364.61 238.97 306.16 238.97 306.08 250.5" style="fill:#ccd3e6"/><rect x="202.97" y="76.02" width="265.49" height="162.96" rx="7.82" style="fill:#ccd3e6"/><path d="M468.46,83.83V220.26H444.29V76h16.35A7.82,7.82,0,0,1,468.46,83.83Z" style="fill:#575759"/><path d="M458.52,83.83V231.16A7.82,7.82,0,0,1,450.7,239H210.78a7.82,7.82,0,0,1-7.81-7.82V83.83A7.81,7.81,0,0,1,210.78,76H451.05l.25,0h0l.18,0,.3,0,.2,0,.09,0,.19,0A7.83,7.83,0,0,1,458.52,83.83Z" style="fill:#fff"/><path d="M452.27,76.17l-.19,0-.09,0-.2,0-.3,0-.18,0h0l-.25,0H210.78A7.81,7.81,0,0,0,203,83.83V220.26H458.52V83.83A7.83,7.83,0,0,0,452.27,76.17Zm-3.89,130.46a2.13,2.13,0,0,1-2.13,2.13h-231a2.13,2.13,0,0,1-2.13-2.13V88.28a2.13,2.13,0,0,1,2.13-2.13h231a2.13,2.13,0,0,1,2.13,2.13Z" style="fill:#363638"/><rect x="213.1" y="86.15" width="235.28" height="122.61" rx="2.13" style="fill:#ccd3e6"/><path d="M448.38,88.28V99.45H213.1V88.28a2.13,2.13,0,0,1,2.13-2.13h231A2.13,2.13,0,0,1,448.38,88.28Z" style="fill:#fff"/><path d="M430.16,92.62a1.81,1.81,0,1,1-1.81-1.81A1.81,1.81,0,0,1,430.16,92.62Z" style="fill:#fd615b"/><circle cx="434.21" cy="92.62" r="1.81" style="fill:#0592f5"/><rect x="233.65" y="90.71" width="187.17" height="3.82" rx="1.69" style="fill:#cedcec"/><path d="M221.6,92.62v1.77a.32.32,0,0,1-.49.28l-1.53-.88-1.53-.89a.32.32,0,0,1,0-.56l1.53-.88,1.53-.89a.33.33,0,0,1,.49.28Z"/><path d="M224.29,92.62v1.77a.32.32,0,0,0,.49.28l1.53-.88,1.53-.89a.32.32,0,0,0,0-.56l-1.53-.88-1.53-.89a.33.33,0,0,0-.49.28Z"/><rect x="437.77" y="92.05" width="4.34" height="1.02" rx="0.45" transform="translate(63.41 338.19) rotate(-45)" style="fill:#363638"/><rect x="439.43" y="90.39" width="1.02" height="4.34" rx="0.45" transform="translate(63.41 338.19) rotate(-45)" style="fill:#363638"/><rect x="239.7" y="102.14" width="181.46" height="101.86" rx="4.45" style="fill:#fff"/><path d="M292.22,154.26H252.43a1.11,1.11,0,0,1-1.1-1.11h0a1.1,1.1,0,0,1,1.1-1.1h39.79a1.1,1.1,0,0,1,1.1,1.1h0A1.11,1.11,0,0,1,292.22,154.26Z" style="fill:#ccd3e6"/><path d="M292.22,144.91H252.43a1.11,1.11,0,0,1-1.1-1.11h0a1.1,1.1,0,0,1,1.1-1.1h39.79a1.1,1.1,0,0,1,1.1,1.1h0A1.11,1.11,0,0,1,292.22,144.91Z" style="fill:#ccd3e6"/><path d="M292.22,163.61H252.43a1.1,1.1,0,0,1-1.1-1.11h0a1.1,1.1,0,0,1,1.1-1.1h39.79a1.1,1.1,0,0,1,1.1,1.1h0A1.1,1.1,0,0,1,292.22,163.61Z" style="fill:#ccd3e6"/><path d="M414.46,154.26H374.68a1.11,1.11,0,0,1-1.11-1.11h0a1.11,1.11,0,0,1,1.11-1.1h39.78a1.11,1.11,0,0,1,1.11,1.1h0A1.11,1.11,0,0,1,414.46,154.26Z" style="fill:#ccd3e6"/><path d="M414.46,144.91H374.68a1.11,1.11,0,0,1-1.11-1.11h0a1.11,1.11,0,0,1,1.11-1.1h39.78a1.11,1.11,0,0,1,1.11,1.1h0A1.11,1.11,0,0,1,414.46,144.91Z" style="fill:#ccd3e6"/><path d="M414.46,163.61H374.68a1.11,1.11,0,0,1-1.11-1.11h0a1.11,1.11,0,0,1,1.11-1.1h39.78a1.11,1.11,0,0,1,1.11,1.1h0A1.11,1.11,0,0,1,414.46,163.61Z" style="fill:#ccd3e6"/><path d="M239.7,188.18H421.16v14.88a1,1,0,0,1-1,.94H240.64a.94.94,0,0,1-.94-.94Z" style="fill:#363638"/><path d="M403.33,194V192.7H405v-1.19h-2.27a.6.6,0,0,0-.6.6V194Z" style="fill:#fff"/><path d="M403.33,196.43h-1.19v2a.6.6,0,0,0,.6.6H405v-1.2h-1.68Z" style="fill:#fff"/><path d="M408.5,194h1.2v-1.93a.6.6,0,0,0-.6-.6h-2.19v1.19h1.59Z" style="fill:#fff"/><path d="M408.5,196.43v1.44h-1.59v1.2h2.19a.6.6,0,0,0,.6-.6v-2Z" style="fill:#fff"/><polygon points="250.27 195.55 250.27 191.78 253.53 193.66 256.8 195.55 253.53 197.43 250.27 199.31 250.27 195.55" style="fill:#fff"/><rect x="266.92" y="192.16" width="2.02" height="6.86" rx="0.84" style="fill:#fff"/><rect x="271.15" y="192.16" width="2.02" height="6.86" rx="0.84" style="fill:#fff"/><rect x="239.7" y="185.21" width="181.46" height="2.97" style="fill:#ccd3e6"/><rect x="239.7" y="185.21" width="93.11" height="2.97" style="fill:#fd615b"/><path d="M392.14,173.63h2.05v4.49h2.74v1.59h-4.79Z" style="fill:#363638"/><path d="M397.49,173.63h2.05v6.08h-2.05Z" style="fill:#363638"/><path d="M407,173.63l-2.56,6.08h-2l-2.56-6.08h2.2l1.45,3.55,1.48-3.55Z" style="fill:#363638"/><path d="M412.26,178.16v1.55h-5.05v-6.08h4.94v1.55h-2.92v.71h2.56v1.47h-2.56v.8Z" style="fill:#363638"/><path d="M388.77,176.62a2.5,2.5,0,1,1-2.5-2.5A2.5,2.5,0,0,1,388.77,176.62Z" style="fill:#fd615b"/><path d="M261.86,178.31c0,1.39-1.31,2.28-3.2,2.28s-3.2-.89-3.2-2.28a1.87,1.87,0,0,1,1-1.64,1.74,1.74,0,0,1-.7-1.41c0-1.29,1.21-2.13,2.94-2.13s2.95.84,2.95,2.13a1.75,1.75,0,0,1-.71,1.41A1.85,1.85,0,0,1,261.86,178.31Zm-2.41-.08a.72.72,0,0,0-.79-.74.74.74,0,1,0,0,1.48A.72.72,0,0,0,259.45,178.23Zm-1.36-2.86a.57.57,0,1,0,.57-.62A.56.56,0,0,0,258.09,175.37Z" style="fill:#363638"/><path d="M262.31,176.86c0-2.36,1.34-3.73,3.23-3.73s3.23,1.37,3.23,3.73-1.34,3.73-3.23,3.73S262.31,179.23,262.31,176.86Zm4.05,0c0-1.37-.35-1.8-.82-1.8s-.82.43-.82,1.8.35,1.81.82,1.81S266.36,178.24,266.36,176.86Z" style="fill:#363638"/><path d="M251.28,174.86a2.2,2.2,0,1,1-2.19-2.19A2.19,2.19,0,0,1,251.28,174.86Z" style="fill:#fd615b"/><path d="M253.19,180.41H245a4.24,4.24,0,0,1,4-2.61h.13A4.26,4.26,0,0,1,253.19,180.41Z" style="fill:#fd615b"/><g style="clip-path:url(#a)"><path d="M274.28,125.35s-1.09,6.69-6,7.89c-4,1-7.73-2.86-9-4.36-.3-.36-.47-.59-.47-.59a6.7,6.7,0,0,1-.74,0c-1,0-2.88-.22-3.61-1.5-1-1.81,2.72-3.06,2.72-3.06s-1.92-1.71-1.44-3,3.05-1.48,3.05-1.48-2.77-1.8-1.84-3.37c1.39-2.36,4.26.24,4.49.38-.18-.21-3.78-3.93-1.81-4.59,1.72-.59,4.54,1.34,6.4,3.26l.46.47.3-.21c.93-.62,3.78-2.28,5.59-.77C274.53,116.31,274.28,125.35,274.28,125.35Z" style="fill:#ff9b79"/><path d="M269.14,129.46a.42.42,0,0,1-.39,0,.38.38,0,0,1-.1-.54,3.57,3.57,0,0,0,.59-2.93c-.65-2.51-4-4.24-4-4.26a.39.39,0,0,1,.35-.69c.15.07,3.7,1.91,4.44,4.75a4.28,4.28,0,0,1-.71,3.56A.4.4,0,0,1,269.14,129.46Z" style="fill:#f56c63"/><path d="M265.72,119.81a1.2,1.2,0,0,1-.55,1.07,1.46,1.46,0,0,1-.25.13,2.75,2.75,0,0,1-.71.16,2.28,2.28,0,0,1,.5.41,1.27,1.27,0,0,1,.3.45,1,1,0,0,1-.17,1c-.63.83-2.07,1.17-3.25,1.31a4.23,4.23,0,0,1,1.82,1.85,1.27,1.27,0,0,1-.15,1.2,2.43,2.43,0,0,1-.85.62,12.76,12.76,0,0,1-3.17.88,7.11,7.11,0,0,1-.48-.59,6.7,6.7,0,0,1-.74,0,.4.4,0,0,1,.2-.08c1.45-.17,3.93-.67,4.41-1.32a.43.43,0,0,0,0-.46,4.68,4.68,0,0,0-2.89-2,.39.39,0,0,1-.29-.43.38.38,0,0,1,.39-.34c1,0,3.63-.15,4.34-1.09.1-.14.07-.21.06-.25a1.35,1.35,0,0,0-.6-.54,9.32,9.32,0,0,0-2.31-.87.37.37,0,0,1-.2-.12.37.37,0,0,1-.09-.35.39.39,0,0,1,.47-.29c.14,0,.42.1.76.21a8.43,8.43,0,0,0,1.77.06,1.34,1.34,0,0,0,.66-.18.44.44,0,0,0,.2-.41,2.55,2.55,0,0,0-.42-1.19.39.39,0,0,1,0-.44h0a.38.38,0,0,1,.63,0A3.26,3.26,0,0,1,265.72,119.81Z" style="fill:#f56c63"/><path d="M262.86,112.49a11.08,11.08,0,0,1,1.83,1.35c.55.53.9.8,1.29,1.15,0,0,0,0,0,0L258.46,83.1a.39.39,0,0,0-.76.15l5.16,29.24Z" style="fill:#363638"/><path d="M269.39,130.2c-2.61,1.68-3.34.44-3.34.44l-1.32-7.49a.69.69,0,0,0,.11-.13,1,1,0,0,0,.17-1,1.27,1.27,0,0,0-.3-.45,1.93,1.93,0,0,0-.3-.27l0-.17a2.67,2.67,0,0,0,.54-.13,1.46,1.46,0,0,0,.25-.13,1.15,1.15,0,0,0,.48-.63,2,2,0,0,0,1.17.52,1.61,1.61,0,0,0,.38,0Z" style="fill:#363638"/><path d="M271.65,118.51a12.92,12.92,0,0,1-2.56,1.72,4.38,4.38,0,0,1-2.27.54,2,2,0,0,1-1.41-.8c-1.24-1.66-.18-3.84.57-5l.46.47.3-.21c-.64,1-1.71,2.91-.7,4.26a1.14,1.14,0,0,0,.87.48c1.37.15,3.52-1.44,4.23-2.07a.38.38,0,0,1,.55,0A.39.39,0,0,1,271.65,118.51Z" style="fill:#f56c63"/><path d="M311.89,110.77h0v0l0,.09-.05.23-.1.51c0,.17-.07.35-.12.53a5.23,5.23,0,0,1-.12.54c-.16.73-.35,1.47-.54,2.21-.41,1.48-.84,3-1.34,4.44s-1,2.92-1.62,4.34c-.3.71-.6,1.42-.92,2.11s-.65,1.39-1,2.08c-.69,1.37-1.4,2.71-2.18,4-.18.33-.39.65-.58,1s-.39.64-.6,1c-.42.62-.82,1.26-1.26,1.86-.85,1.23-1.78,2.38-2.71,3.52s-1.94,2.21-3,3.23c-.26.26-.51.52-.78.77l-.81.73-.4.37-.1.09.05-.05.07,0a2.32,2.32,0,0,1,.3-.22,4.5,4.5,0,0,1,1.46-.67l.34-.09.18,0,.14,0a1.46,1.46,0,0,1,.29,0h.42l.15,0h.1l0,0h0c.12,0-.11,0-.45-.15a10.49,10.49,0,0,1-1.3-.68c-.5-.3-1.05-.65-1.6-1.05-1.11-.79-2.28-1.73-3.45-2.73s-2.35-2.09-3.52-3.21-2.34-2.28-3.49-3.47-2.31-2.39-3.44-3.62c-.57-.61-1.14-1.22-1.7-1.84l-1.63-1.79L264,134.19l.42.63.4.59.8,1.16c.53.76,1.08,1.51,1.63,2.26,1.1,1.49,2.24,3,3.42,4.42s2.4,2.88,3.68,4.3c.64.71,1.29,1.41,2,2.11s1.37,1.39,2.08,2.08a60.89,60.89,0,0,0,4.64,4c.86.66,1.76,1.32,2.75,2a26.9,26.9,0,0,0,3.32,1.87,20.3,20.3,0,0,0,4.54,1.56l.34.06a2.38,2.38,0,0,0,.37.06l.75.11c.26,0,.55.05.82.06l.41,0h.43c.3,0,.6,0,.89,0l.95-.09.47-.07.5-.09c.33-.07.65-.14,1-.24a13.58,13.58,0,0,0,3.84-1.79c.28-.2.56-.4.83-.61l.2-.17.18-.14.14-.13.58-.52,1.16-1,1.11-1.08c1.49-1.42,2.86-3,4.2-4.52s2.55-3.2,3.69-4.88,2.21-3.41,3.2-5.16l.73-1.32c.24-.45.45-.9.68-1.34s.46-.9.66-1.35l.64-1.36a73.71,73.71,0,0,0,4-11.2c.5-1.92,1-3.84,1.31-5.8.17-1,.34-2,.47-3l.09-.76c0-.26.06-.51.09-.78s.05-.53.08-.8l.07-1Z" style="fill:#ffb028"/><path d="M272.28,132.26a1.08,1.08,0,1,0,1-1.17A1.07,1.07,0,0,0,272.28,132.26Z" style="fill:#dc7f21"/><path d="M294.9,151a.48.48,0,0,0,.45-.35,34.73,34.73,0,0,0,.75-8.06.45.45,0,0,0-.47-.45.48.48,0,0,0-.46.48,33.6,33.6,0,0,1-.73,7.8.48.48,0,0,0,.34.57Z" style="fill:#dc7f21"/><path d="M297.87,147.59a.41.41,0,0,0,.21-.05.46.46,0,0,0,.21-.62,39.19,39.19,0,0,0-2.28-4,.46.46,0,0,0-.65-.07.45.45,0,0,0-.08.65,37.12,37.12,0,0,1,2.17,3.87A.47.47,0,0,0,297.87,147.59Z" style="fill:#dc7f21"/><path d="M268.93,141.29a.45.45,0,0,0,.34-.14c3.89-4,12.67-10.35,12.76-10.42a.46.46,0,0,0,.11-.64.47.47,0,0,0-.65-.11c-.09.06-8.94,6.45-12.89,10.52a.47.47,0,0,0,0,.66A.45.45,0,0,0,268.93,141.29Z" style="fill:#dc7f21"/><path d="M272.69,137.86a.43.43,0,0,0,.3-.11.46.46,0,0,0,.06-.65l-4.7-5.64a.47.47,0,0,0-.65-.06.46.46,0,0,0-.06.66l4.7,5.63A.43.43,0,0,0,272.69,137.86Z" style="fill:#dc7f21"/><path d="M323.38,247.54l6.29-37.16.52-3-18.13-6.4-1-.36-4.32-1.53s-.35,1.59-.88,4.33c-.07.33-.13.67-.2,1-1.7,8.79-4.89,26.91-5.76,43.13Z" style="fill:#363638"/><path d="M320.16,247.54c2.73-14.81,6.23-36.47,6.43-37.74a.49.49,0,1,0-1-.15c-.05.31-3.69,22.79-6.47,37.89Z" style="fill:#575759"/><path d="M360.06,187.19s1.36,12.94-1.58,20.15-41.07,3.5-50.79-3c-4-2.66,4.51-27.21,4.51-27.21Z" style="fill:#363638"/><path d="M305.63,204.42a11.84,11.84,0,0,0,1.68-.44,11.15,11.15,0,0,0,2.51-1.21,12.87,12.87,0,0,0,2.24-1.83c4.2-4.24,5.44-10.65,5.5-11a.49.49,0,1,0-1-.18c0,.08-1.31,6.74-5.57,10.78a12.36,12.36,0,0,1-1.74,1.37,11,11,0,0,1-2.4,1.14,9.73,9.73,0,0,1-1.06.28C305.76,203.71,305.7,204.05,305.63,204.42Z" style="fill:#575759"/><path d="M329.15,208a.48.48,0,0,0,.46.49h0a.49.49,0,0,0,.51-.45c.08-1.77.19-3.58.3-5.39l.06-.95c.39-5.92.88-11.73,1.25-15.83,0-.33.05-.65.08-1,.08-.9.16-1.7.22-2.37l-1-.16c-.06.67-.14,1.48-.22,2.39,0,.31-.05.63-.09,1-.36,4.07-.85,9.82-1.23,15.7,0,.33,0,.65-.07,1C329.35,204.32,329.24,206.2,329.15,208Z" style="fill:#575759"/><path d="M327.75,201.79a13,13,0,0,0,1.71.66c.31.09.64.17,1,.24a7.4,7.4,0,0,0,.93.12,3.4,3.4,0,0,0,1.64-.26,2,2,0,0,0,1.11-1.49c.36-1.83,1.11-9.36,1.61-14.69q0-.5.09-1c.08-.85.15-1.63.21-2.29-.32,0-.65-.07-1-.12-.06.67-.13,1.45-.22,2.31q0,.47-.09,1c-.5,5.32-1.24,12.84-1.59,14.61a1.06,1.06,0,0,1-.59.83,3.5,3.5,0,0,1-2.07,0q-.5-.12-1-.27a11.2,11.2,0,0,1-1.34-.52.5.5,0,0,0-.66.21A.46.46,0,0,0,327.75,201.79Z" style="fill:#575759"/><path d="M355.32,247.54c1.51-13.79,3.25-32.25,4.24-42.94,0-.34.06-.66.09-1l.7-7.69c-2.34-1-6.58-.31-11.1,1l-1,.29a134.11,134.11,0,0,0-16.52,6.46v43.89Z" style="fill:#363638"/><path d="M353,247.54c1.3-15.33,2.84-37.49,2.86-37.78a.49.49,0,1,0-1-.07c0,.29-1.57,22.53-2.88,37.85Z" style="fill:#575759"/><path d="M345.57,190a25.49,25.49,0,0,0,2.7,7.21,15.89,15.89,0,0,0,5,5.58,11.54,11.54,0,0,0,6.25,1.83c0-.34.06-.66.09-1a10.57,10.57,0,0,1-5.81-1.67,14.71,14.71,0,0,1-4.59-5,25.38,25.38,0,0,1-2.72-7.1.49.49,0,0,0-1,.18Z" style="fill:#575759"/><path d="M306.36,186.37c10.55,9.85,35.51,15.09,54.74,5.72,2.11-5.76,4.43-26.34,5.06-32.5.12-1.22.22-2.45.3-3.67a160.08,160.08,0,0,0,0-18.07l-.05-1c-.25-5.12-.63-10.43-1-16.06-.7-11.15-4.42-18-10.89-19a26.1,26.1,0,0,1-7.14-2.15l-.61-.3a19.9,19.9,0,0,1-3.27-2H329.12a10.91,10.91,0,0,1-4.49,3.75l-.56.26C319,103.48,313,103,311.75,109.21c-.77,3.88,2.19,11.85,1.88,28q0,1.77-.12,3.69c-.06,1.19-.13,2.43-.23,3.7s-.19,2.42-.32,3.68c-.11,1.1-.23,2.23-.37,3.39s-.31,2.41-.49,3.66C311.14,162.07,308.57,177.73,306.36,186.37Z" style="fill:#ffb028"/><path d="M355.78,189.74l-.11,0a.42.42,0,0,1-.3-.53c8-29.37,6.39-59.22,6.37-59.52a.44.44,0,0,1,.87,0c0,.3,1.64,30.3-6.41,59.8A.44.44,0,0,1,355.78,189.74Z" style="fill:#dc7f21"/><path d="M312.32,151.59a.45.45,0,0,0,.46-.41c1-8.49,1-25.39,1-25.56a.47.47,0,0,0-.93,0c0,.17,0,17-1,25.46a.46.46,0,0,0,.41.51Z" style="fill:#dc7f21"/><path d="M332.08,183.58a1.09,1.09,0,1,0,1-1.17A1.09,1.09,0,0,0,332.08,183.58Z" style="fill:#dc7f21"/><path d="M331.9,188.84a1.09,1.09,0,1,0,2.17-.18,1.09,1.09,0,0,0-2.17.18Z" style="fill:#dc7f21"/><path d="M319.21,131c-2.83-3.29-1.77-10.61-1.72-10.92a.45.45,0,0,1,.45-.39h9.61a.47.47,0,0,1,.46.39c0,.31,1.11,7.63-1.72,10.92a4.76,4.76,0,0,1-7.08,0Zm-.86-10.38c-.17,1.54-.64,7.21,1.56,9.78a3.84,3.84,0,0,0,5.67,0c2.21-2.56,1.74-8.24,1.56-9.78Z" style="fill:#dc7f21"/><path d="M344.85,61.7c-2.69-1.74-11.15-2.61-11.15-2.61s-1.4-3.66-3-4.71c-3.56-2.37-4,2.44-4,2.44s-3.49-4.88-6.62-3.48.87,5.92.87,5.92-4.71-.87-4.19,3.14,5.06,5.75,5.06,5.75a8.74,8.74,0,0,0-.7,5.92c.7,3.66,2.27,3.84,2.27,3.84l19.51,1.74s4,0,5.05-5.05-2.44-7.15-2.44-7.15S347.81,63.62,344.85,61.7Z" style="fill:#363638"/><path d="M328.91,94.81v3.66a10.49,10.49,0,0,0,1.29.91c6.37,3.82,13.24-.91,13.24-.91V85.76l-12.8,8Z" style="fill:#ff9b79"/><path d="M328.91,94.7v3.77a10.49,10.49,0,0,0,1.29.91c5.42-2.14,9.37-7.83,9.37-7.83l-8.93,2.18Z" style="fill:#363638"/><path d="M343.4,94.75a7.23,7.23,0,0,1,5.46,5.62c-4.17,4.36-7.86,8.15-13.83,9.26v-8.77A15.44,15.44,0,0,0,343.4,94.75Z" style="fill:#ffb028"/><path d="M328.77,96s-3.82.82-5.31,5.71c3.86,4.69,5.92,6.46,11.57,7.9v-8.77S331.88,100.8,328.77,96Z" style="fill:#ffb028"/><polygon points="326.62 164.18 329.1 170.17 329.1 170.17 330.21 172.86 333.36 180.46 334.88 177.52 335.41 176.48 336.63 174.13 337.17 173.09 338.39 170.74 338.93 169.7 340.15 167.35 340.15 167.34 340.69 166.31 341.83 164.09 341.81 163.85 341.63 162.1 341.22 158.12 341.04 156.37 340.64 152.39 340.46 150.63 340.06 146.66 339.88 144.9 339.47 140.92 339.29 139.17 338.89 135.19 338.71 133.43 338.3 129.46 338.13 127.7 337.72 123.72 337.54 121.97 337.14 117.99 336.96 116.23 336.54 112.12 333.5 112 333.41 112.69 333.23 114.08 332.81 117.24 332.63 118.63 332.21 121.78 332.03 123.18 331.61 126.33 331.43 127.73 331.01 130.88 330.83 132.28 330.41 135.43 330.23 136.83 329.81 139.98 329.63 141.37 329.21 144.53 329.02 145.93 328.61 149.08 328.43 150.47 328.01 153.63 327.82 155.02 327.41 158.18 327.22 159.57 326.81 162.73 326.62 164.12 326.62 164.18" style="fill:#363638"/><polygon points="333.23 114.08 337.14 117.99 336.96 116.23 333.41 112.69 333.23 114.08" style="fill:#575759"/><polygon points="332.63 118.63 337.72 123.72 337.54 121.97 332.81 117.24 332.63 118.63" style="fill:#575759"/><polygon points="332.03 123.18 338.3 129.46 338.13 127.7 332.21 121.78 332.03 123.18" style="fill:#575759"/><polygon points="331.43 127.73 338.89 135.19 338.71 133.43 331.61 126.33 331.43 127.73" style="fill:#575759"/><polygon points="330.83 132.28 339.47 140.92 339.29 139.17 331.01 130.88 330.83 132.28" style="fill:#575759"/><polygon points="330.23 136.83 340.06 146.66 339.88 144.9 330.41 135.43 330.23 136.83" style="fill:#575759"/><polygon points="329.63 141.37 340.64 152.39 340.46 150.63 329.81 139.98 329.63 141.37" style="fill:#575759"/><polygon points="329.02 145.93 341.22 158.12 341.04 156.37 329.21 144.53 329.02 145.93" style="fill:#575759"/><polygon points="328.43 150.47 341.81 163.85 341.63 162.1 328.61 149.08 328.43 150.47" style="fill:#575759"/><polygon points="327.82 155.02 340.15 167.34 340.69 166.31 328.01 153.63 327.82 155.02" style="fill:#575759"/><polygon points="327.22 159.57 338.39 170.74 338.93 169.7 327.41 158.18 327.22 159.57" style="fill:#575759"/><polygon points="326.62 164.12 336.63 174.13 337.17 173.09 326.81 162.73 326.62 164.12" style="fill:#575759"/><polygon points="329.1 170.17 330.21 172.86 334.88 177.52 335.41 176.48 329.1 170.17" style="fill:#575759"/><polygon points="336.54 112.12 335.03 114.37 333.5 112 333.24 114.03 335 115.83 336.7 113.69 336.54 112.12" style="fill:#575759"/><polygon points="339.08 108.34 335.03 114.37 331.14 108.34 335.03 103.31 339.08 108.34" style="fill:#363638"/><path d="M341.44,112.47a.53.53,0,0,0,.29-.1c4-3.2,7.43-11.48,7.57-11.83a.46.46,0,0,0-.25-.6.46.46,0,0,0-.61.25c0,.08-3.25,7.87-6.92,11.14L335.41,103a.45.45,0,0,0-.38-.19.44.44,0,0,0-.37.19l-5.7,8.09c-.87-1.57-3.15-5.74-5.07-9.61a.47.47,0,0,0-.84.42c2.43,4.88,5.43,10.24,5.46,10.29a.47.47,0,0,0,.38.24.48.48,0,0,0,.41-.2l5.75-8.16,6,8.17a.46.46,0,0,0,.32.18Z" style="fill:#dc7f21"/><path d="M335,103.78a.47.47,0,0,0,.46-.47v-2.07a.47.47,0,1,0-.93,0v2.07A.47.47,0,0,0,335,103.78Z" style="fill:#dc7f21"/><path d="M324.32,78.56s-2.08-2.46-3.25,0S320.79,86,324,85.18Z" style="fill:#f56c63"/><path d="M322.1,87.19s0,7.58,7.88,7.56,13.17-6.17,13.45-6.45h0l.08-1.59.45-8.27.24-4.42s1-8-6.56-9.41c-5.53-1.06-10.71-.14-13.33,2.74l-.24.29a6.81,6.81,0,0,0-1.49,3.7l-.24,7.94-.06,1.94Z" style="fill:#ff9b79"/><path d="M331.16,73.58s3.3,2.46,5.27.89-2.62-3.28-4.12-3.15S330.17,73,331.16,73.58Z" style="fill:#363638"/><path d="M327.56,73.58s-3.31,2.46-5.28.89,2.62-3.28,4.13-3.15S328.54,73,327.56,73.58Z" style="fill:#363638"/><path d="M330.16,88.18a3.33,3.33,0,0,0,2.26-.73.35.35,0,0,0,0-.49.36.36,0,0,0-.49,0,2.39,2.39,0,0,1-2.42.38.35.35,0,0,0-.28.64A2.87,2.87,0,0,0,330.16,88.18Z" style="fill:#f56c63"/><path d="M333.58,82.77a36.21,36.21,0,0,1-7.24.75s.9,3.58,4.48,2.67A3.58,3.58,0,0,0,333.58,82.77Z" style="fill:#fff"/><path d="M324.08,67.63c1.24-.44,2.13,0,4.06.81,2.78,1.23,5.9.12,8.65-1.28s4.41.55,3.47,1.83-.84,2.33.2,4-2,2.39-.3,3.68a1.7,1.7,0,0,1,.37,2.1,1.13,1.13,0,0,0,1.28,1.5h0c.89-.22,2.16-1.81,2.16-1.81l.24-4.42s1-8-6.56-9.41c-5.53-1.06-10.71-.14-13.33,2.74Z" style="fill:#363638"/><path d="M332.63,80.24c0,.56,1.14,1,2.54,1s2.54-.44,2.54-1-1.14-1-2.54-1S332.63,79.69,332.63,80.24Z" style="fill:#f56c63"/><path d="M322.29,81.21a5.93,5.93,0,0,0,.61,0c1.4,0,2.54-.44,2.54-1s-1.14-1-2.54-1a5,5,0,0,0-.55,0Z" style="fill:#f56c63"/><path d="M331.53,77.21c0,.76.35,1.37.77,1.37s.77-.61.77-1.37-.35-1.37-.77-1.37S331.53,76.45,331.53,77.21Z" style="fill:#363638"/><path d="M323.92,77.21c0,.76.34,1.37.76,1.37s.77-.61.77-1.37-.34-1.37-.77-1.37S323.92,76.45,323.92,77.21Z" style="fill:#363638"/><path d="M341,85.22c0,.08,1,2.4,2.47,3.08h0l.08-1.59A5.53,5.53,0,0,1,341,85.22Z" style="fill:#363638"/><path d="M342.35,80s3-4.07,5.25-.87c1.83,2.63-1.63,9.5-5.25,7.15Z" style="fill:#ff9b79"/><path d="M342.76,85a.31.31,0,0,0,.31-.28,5.23,5.23,0,0,1,3-4.2.31.31,0,1,0-.23-.57,5.79,5.79,0,0,0-3.42,4.71.31.31,0,0,0,.28.34Z" style="fill:#363638"/><path d="M345.67,83.12a.32.32,0,0,0,.24-.11.31.31,0,0,0,0-.44,3,3,0,0,0-2.18-.75.31.31,0,0,0-.22.38.31.31,0,0,0,.38.23c.53-.14,1.36.4,1.63.62A.26.26,0,0,0,345.67,83.12Z" style="fill:#363638"/><path d="M329.07,81a.31.31,0,0,0,0-.62,2.14,2.14,0,0,1-1.86-.87c1.24-2.56,2.48-5.15,2.49-5.17a.31.31,0,1,0-.56-.27l-2.56,5.32a.29.29,0,0,0,0,.27A2.68,2.68,0,0,0,329.07,81Z" style="fill:#363638"/><path d="M404.5,109.12s4.2,4.24,8.35,2.59c3.34-1.34,4.08-6,4.25-7.73,0-.42,0-.66,0-.66a5.8,5.8,0,0,0,.54-.36c.74-.54,1.95-1.64,1.82-2.92-.19-1.83-3.51-.81-3.51-.81s.51-2.21-.47-2.86-2.95.5-2.95.5,1.07-2.71-.39-3.36c-2.21-1-2.94,2.34-3,2.56,0-.24,1.07-10.44-.68-9.91-1.53.45-2.94,9-3.29,11.29-.06.37-.09.58-.09.58h-.33c-1,0-3.87.28-4.4,2.3C399.72,102.77,404.5,109.12,404.5,109.12Z" style="fill:#ff9b79"/><path d="M413.09,101.92a3.66,3.66,0,0,0-.36,2.26,1.09,1.09,0,0,0,.72.78,2.15,2.15,0,0,0,.92,0,11.63,11.63,0,0,0,2.73-1c0-.42,0-.66,0-.66a5.8,5.8,0,0,0,.54-.36.28.28,0,0,0-.18,0c-1.13.62-3.17,1.52-3.85,1.3a.4.4,0,0,1-.26-.31,4.11,4.11,0,0,1,1-2.93.35.35,0,0,0-.47-.51c-.68.51-2.67,1.75-3.66,1.43-.15,0-.17-.11-.17-.15a1.18,1.18,0,0,1,.14-.69,8.78,8.78,0,0,1,1.22-1.8.29.29,0,0,0,.08-.19.32.32,0,0,0-.11-.3.35.35,0,0,0-.49,0,9.29,9.29,0,0,0-1.24,1.79,3,3,0,0,0-.29.86,1.28,1.28,0,0,0,0,.48.9.9,0,0,0,.63.62A4.36,4.36,0,0,0,413.09,101.92Z" style="fill:#f56c63"/><path d="M407.83,99a.34.34,0,0,1,.24.3,2.18,2.18,0,0,0,.31,1.06.36.36,0,0,0,.35.2,1.34,1.34,0,0,0,.57-.2,10.77,10.77,0,0,0,1.84-1.53.52.52,0,0,1-.08.19,8,8,0,0,0-1.22,1.8l-.21.13a2.84,2.84,0,0,1-.62.26,1.18,1.18,0,0,1-.25,0,1.06,1.06,0,0,1-.94-.48,2.84,2.84,0,0,1-.43-1.42.33.33,0,0,1,.43-.35Z" style="fill:#f56c63"/><path d="M402.9,102.88a11.32,11.32,0,0,0,2.72-.08,3.86,3.86,0,0,0,1.9-.76,1.76,1.76,0,0,0,.61-1.3c0-1.82-1.83-2.84-2.95-3.29-.06.37-.09.58-.09.58h-.33c.94.35,2.71,1.21,2.68,2.69a1,1,0,0,1-.38.79c-.91.81-3.26.76-4.09.67a.35.35,0,0,0-.07.69Z" style="fill:#f56c63"/><path d="M410.29,109.45a.34.34,0,0,0,.26-.22.33.33,0,0,0-.2-.44,3.13,3.13,0,0,1-1.92-1.8c-.81-2.13.71-5.08.72-5.11a.33.33,0,0,0-.14-.46.35.35,0,0,0-.47.14c-.07.13-1.67,3.26-.75,5.67a3.73,3.73,0,0,0,2.32,2.2A.37.37,0,0,0,410.29,109.45Z" style="fill:#f56c63"/><path d="M359.21,104.18l7.17,6.23,3.45,3.19c1.16,1.06,2.3,2.11,3.46,3.15s2.3,2.07,3.46,3.08,2.3,2,3.45,3,2.27,1.88,3.34,2.67c.53.39,1,.75,1.46,1l.27.18.12.07,0,0,.09.09c0,.05,0,.09.08.13s.15.06.35,0a5.33,5.33,0,0,0,2-.78,17.58,17.58,0,0,0,2.76-2.06,38.15,38.15,0,0,0,2.83-2.85,69.1,69.1,0,0,0,5.35-6.89c1.71-2.46,2.91-4.35,4.45-7a11.52,11.52,0,0,0,10.46,4,93.56,93.56,0,0,1-4.05,9.33,71.85,71.85,0,0,1-5.32,9,47.09,47.09,0,0,1-3.45,4.4,32.63,32.63,0,0,1-4.5,4.19,22.46,22.46,0,0,1-2.93,1.91,19.4,19.4,0,0,1-3.63,1.51,16.53,16.53,0,0,1-4.39.69,15.81,15.81,0,0,1-4.64-.59,17.57,17.57,0,0,1-2.15-.76l-.5-.23-.42-.2-.39-.2-.38-.2c-1-.53-1.8-1-2.6-1.54-1.58-1-3-2-4.39-3s-2.71-2-4-3.06-2.6-2.06-3.87-3.11-2.52-2.1-3.76-3.17-2.47-2.14-3.69-3.21-2.43-2.18-3.63-3.28l-1.79-1.66-.89-.85-.9-.86Z" style="fill:#ffb028"/><path d="M366.05,133.61a.43.43,0,0,1-.24-.08c-4.74-3.32-13.16-10.3-13.25-10.37a.43.43,0,0,1,.55-.67c.09.07,8.48,7,13.19,10.33a.43.43,0,0,1,.11.6A.45.45,0,0,1,366.05,133.61Z" style="fill:#dc7f21"/><path d="M356.26,126.05h-.07l-3.33-.49a.43.43,0,1,1,.12-.85l3.34.48a.44.44,0,0,1,.36.49A.42.42,0,0,1,356.26,126.05Z" style="fill:#dc7f21"/><path d="M411.48,116.86a.42.42,0,0,0,.22-.48.44.44,0,0,0-.52-.34c-6.29,1.37-9.42-4.62-9.45-4.68a.44.44,0,0,0-.59-.2h0a.43.43,0,0,0-.19.59c0,.06,3.47,6.66,10.42,5.14Z" style="fill:#dc7f21"/><path d="M408.24,117a.5.5,0,0,0,.21-.22l2.07-4.83a.45.45,0,0,0-.82-.35l-2.06,4.83a.43.43,0,0,0,.23.58A.4.4,0,0,0,408.24,117Z" style="fill:#dc7f21"/><path d="M404.54,112.34a.76.76,0,0,0,1,.32.76.76,0,1,0-.7-1.35A.76.76,0,0,0,404.54,112.34Z" style="fill:#dc7f21"/><path d="M384.6,132.4a.41.41,0,0,0,.23-.31,18.85,18.85,0,0,1,1.29-4.39.44.44,0,0,0-.2-.59.43.43,0,0,0-.59.19,19.61,19.61,0,0,0-1.37,4.64.44.44,0,0,0,.64.46Z" style="fill:#dc7f21"/><path d="M387.46,131.41l.08,0a.44.44,0,0,0,.06-.62,8.07,8.07,0,0,1-1.54-2.93.44.44,0,0,0-.52-.35.44.44,0,0,0-.34.52,8.92,8.92,0,0,0,1.72,3.33A.43.43,0,0,0,387.46,131.41Z" style="fill:#dc7f21"/></g><ellipse cx="138.96" cy="320.9" rx="100.28" ry="6.1" style="fill:#ccd3e6"/><path d="M132.7,151l10.13,37-3.61-4.16a18.58,18.58,0,0,0,4.6,1.64,34.76,34.76,0,0,0,5.53.71c2,.1,4,.08,6.07,0s4.21-.24,6.37-.42h0a5.79,5.79,0,0,1,1.41,11.48c-2.23.36-4.5.69-6.82,1s-4.71.47-7.17.53a45.89,45.89,0,0,1-7.67-.43,31.82,31.82,0,0,1-8-2.22,6.29,6.29,0,0,1-3.48-3.78l-.13-.38-12.15-36.43a7.82,7.82,0,0,1,14.83-4.94Z" style="fill:#ff9b79"/><path d="M136.6,285.31a1.19,1.19,0,0,1-.45-.08L83.08,266.1a1.34,1.34,0,0,1,.91-2.52l53.06,19.13a1.34,1.34,0,0,1-.45,2.6Z" style="fill:#dc7f21"/><path d="M81.33,285.31a1.34,1.34,0,0,1-.45-2.6l53.69-19.44a1.34,1.34,0,0,1,1.71.8,1.32,1.32,0,0,1-.8,1.71L81.79,285.23A1.24,1.24,0,0,1,81.33,285.31Z" style="fill:#dc7f21"/><path d="M141.32,319.5a2.29,2.29,0,0,1-2.27-2L129.47,246H89.36l-9.44,71.56a2.29,2.29,0,0,1-4.54-.6l9.7-73.55a2.29,2.29,0,0,1,2.27-2h44.12a2.29,2.29,0,0,1,2.27,2l9.85,73.55a2.29,2.29,0,0,1-2,2.57A1.67,1.67,0,0,1,141.32,319.5Z" style="fill:#ffb028"/><path d="M118.69,243.66H90c-9.08,0-18.8-5-20.2-13.94A170.42,170.42,0,0,1,68,195.45,41.77,41.77,0,0,1,83.86,164.7h0s5.73,25-1.47,59.37C85.14,237.16,118.69,243.66,118.69,243.66Z" style="fill:#ffb028"/><path d="M112.72,97.36s-3.41-8.21-12.42-6.67c-6.31,1.09-9,8.94-8.62,21.06C92.22,129.4,86.25,140,86.25,140l7.92,1.8S114.34,111.58,112.72,97.36Z" style="fill:#363638"/><path d="M185,288.84h-12.8s-3-14.21-4-22.18-1.51-26.85-1.51-26.85-10.2,3.32-31.55,2.07c-47.31-2.77-29.37-37.52-29.37-37.52,1.6,2.2,11.39.67,18.08,1.73,20.54,2,38.36,10,49.05,14.64a54,54,0,0,1,6.86,3.52c2.58,1.59,4.19,6.41,5.16,12.75C187.88,256.06,185,288.84,185,288.84Z" style="fill:#363638"/><path d="M173.78,282a.45.45,0,0,1-.45-.37c-1.85-9.13-2.47-20.51-3-29.65-.41-7.58-.8-14.74-1.77-15.6-.79-.69-4.07-.15-8.21.54-8.25,1.37-20.71,3.44-34.45.24-7.48-1.74-13-5.38-16.35-10.81-5.81-9.36-3.16-21-3.13-21.08a.45.45,0,0,1,.55-.34.45.45,0,0,1,.34.55c0,.11-2.59,11.36,3,20.4,3.24,5.21,8.54,8.7,15.78,10.39,13.56,3.15,25.92,1.1,34.09-.26,4.89-.81,7.85-1.3,9-.31s1.55,6.3,2.09,16.23c.5,9.11,1.11,20.45,2.95,29.52a.46.46,0,0,1-.36.54Z" style="fill:#575759"/><path d="M185.23,282.23h0l-14.23-.3a.47.47,0,0,1-.45-.47A.46.46,0,0,1,171,281l14.23.31a.45.45,0,0,1,.45.46A.46.46,0,0,1,185.23,282.23Z" style="fill:#575759"/><polygon points="184.63 305.24 175.6 305.24 173.86 294.64 172.91 288.84 184.13 288.84 184.31 294.64 184.63 305.24" style="fill:#ff9b79"/><polygon points="184.63 305.24 175.6 305.24 174.31 297.35 173.86 294.64 184.31 294.64 184.4 297.44 184.63 305.24" style="fill:#ffb028"/><polygon points="184.4 297.44 174.31 297.35 173.86 294.64 184.31 294.64 184.4 297.44" style="fill:#dc7f21"/><path d="M206.93,319.5H172.76a4.86,4.86,0,0,1-.45-1.89c-.21-2.9.71-7.51,1.16-10.42.05-.34.1-.65.14-.94a10.68,10.68,0,0,0,.1-1.19,1.74,1.74,0,0,1,2.1-2c3.46,3.39,7.37-1.7,9.66,0l.3.23.89.73c.58.48,1.4,1.19,2.51,2.19,2.71,2.44,7.32,4,11.25,5.69.5.21,1,.42,1.4.63s.63.31.92.47c3.22,1.73,4.24,3.39,4.47,4.6A2.66,2.66,0,0,1,206.93,319.5Z" style="fill:#0076fa"/><path d="M202.74,313c-.88.7-2.83,2.1-4.4,2.1h-.21c-1.11-.1-5.18-2.1-8.49-3.92-1.9-1-3.64-2.07-4.88-2.89-2-1.35-2.4-1.87-2.48-2.22-.3-1.35,1.93-2.29,3.49-2.78l.89.73c-1.94.53-3.54,1.36-3.46,1.83s2.21,1.94,7.05,4.59c3.68,2,7.18,3.65,8,3.71,1,.09,2.6-.87,3.61-1.62C202.14,312.69,202.45,312.85,202.74,313Z" style="fill:#004ecb"/><path d="M206.93,319.5H172.76a4.86,4.86,0,0,1-.45-1.89h34.9A2.66,2.66,0,0,1,206.93,319.5Z" style="fill:#004ecb"/><path d="M176.25,319.5h-1a7.51,7.51,0,0,0,1.84-5.47,9.67,9.67,0,0,0-3.6-6.84c.05-.34.1-.65.14-.94a10.5,10.5,0,0,1,4.27,7.74A8.31,8.31,0,0,1,176.25,319.5Z" style="fill:#004ecb"/><path d="M188.59,308.23a.56.56,0,0,1-.55-.43.57.57,0,0,1,.41-.68l2.14-.53a.57.57,0,0,1,.68.41.58.58,0,0,1-.41.69l-2.14.52A.3.3,0,0,1,188.59,308.23Z" style="fill:#fff"/><path d="M186.47,306.45a.56.56,0,0,1-.14-1.1l2.14-.53a.55.55,0,0,1,.68.41.57.57,0,0,1-.41.68l-2.14.53Z" style="fill:#fff"/><path d="M190.72,309.47a.56.56,0,0,1-.13-1.11l2.13-.53a.57.57,0,0,1,.27,1.1l-2.13.53Z" style="fill:#fff"/><path d="M192.86,310.67a.57.57,0,0,1-.55-.43.56.56,0,0,1,.41-.68l2.14-.53a.55.55,0,0,1,.68.41.57.57,0,0,1-.41.68l-2.14.53Z" style="fill:#fff"/><path d="M195.18,311.77a.56.56,0,0,1-.13-1.11l2.13-.53a.56.56,0,0,1,.68.41.55.55,0,0,1-.41.68l-2.13.53Z" style="fill:#fff"/><path d="M197.71,312.71a.56.56,0,0,1-.55-.43.56.56,0,0,1,.41-.68l2.14-.53a.56.56,0,0,1,.27,1.09l-2.14.53Z" style="fill:#fff"/><path d="M82.11,193.34s-.4,2.76,3.29,3.53L124,198.16a4.35,4.35,0,0,0,2.14-4.54S109.81,184.48,82.11,193.34Z" style="fill:#004ecb"/><path d="M124.48,206.09c-20,11-41.86,2.14-41.86,2.14A61.08,61.08,0,0,0,85.06,199c.66-3.48,1-6.56,1.21-8.17,8.51-.47,29.37-1.36,37.55.58l.06,3.28Z" style="fill:#ff9b79"/><path d="M109.7,200.81c-.15,1-.61,1.82-1,1.76s-.65-.95-.51-2,.62-1.82,1-1.76S109.85,199.78,109.7,200.81Z" style="fill:#f56c63"/><path d="M123.88,194.73c-8.52-.52-25.28-.7-38.82,4.31.66-3.48,1-6.56,1.21-8.17,8.51-.47,29.37-1.36,37.55.58Z" style="fill:#f56c63"/><path d="M133.39,178.89a4.89,4.89,0,0,1-.29.7c0,.08-.08.16-.13.24a19.1,19.1,0,0,1-4.11,4.94c-.29.25-.57.49-.83.69-.51.42-1,.74-1.25,1s-.43.3-.43.3v.06c0,.15,0,.3,0,.47,0,.63-.09,1.38-.12,2.23,0,.69-.05,1.45-.06,2.26,0,.6,0,1.23,0,1.88-11.31-5.05-34.6-1.86-44-.28.17-.81.33-1.61.47-2.38a73.45,73.45,0,0,0,1.19-9.68,102.39,102.39,0,0,0-1.07-17.42c0-.43-.12-.86-.18-1.3,0-.28-.08-.56-.13-.84-.32-2.09-.69-4.19-1.12-6.22-1.85-8.88-.55-18.19,8.45-19.29.65-.08,1.3-.16,1.92-.22,4.24-.45,7.73-.61,8.7-.65h.27L118,140.39l1.65.47c.95.31,1.83.61,2.65.9l1,.36c.85.32,1.61.63,2.3.94a18.63,18.63,0,0,1,3.37,1.83c3.82,2.71,3.23,5.77,3.13,11.82v.08a1.85,1.85,0,0,1,0,.23v.84c0,.78,0,1.56.08,2.34.07,1.14.17,2.27.29,3.38,0,.45.1.89.16,1.33s.1.83.16,1.23C133.47,171.43,134.33,176.07,133.39,178.89Z" style="fill:#0076fa"/><path d="M132.1,156.79a1.85,1.85,0,0,1,0,.23v.84l-3.65,2.3a.51.51,0,0,1-.36.07.56.56,0,0,1-.35-.23.53.53,0,0,1,.17-.71l3.87-2.43A.55.55,0,0,1,132.1,156.79Z" style="fill:#004ecb"/><path d="M108,176.36a.52.52,0,0,1-.38-.17.51.51,0,0,1,0-.72l3.4-3.06a.51.51,0,0,1,.68.76l-3.4,3.06A.48.48,0,0,1,108,176.36Z" style="fill:#004ecb"/><path d="M132.78,166.14l-2.33,2.1a.51.51,0,0,1-.69-.76l2.86-2.57C132.67,165.33,132.72,165.74,132.78,166.14Z" style="fill:#004ecb"/><path d="M101.11,164.06a.51.51,0,0,1,.53-.79l4.45,1a.51.51,0,1,1-.23,1l-4.45-1.05A.49.49,0,0,1,101.11,164.06Z" style="fill:#004ecb"/><path d="M85.22,172.79a.52.52,0,0,1-.38-.17.51.51,0,0,1,0-.72l3.4-3.06a.51.51,0,0,1,.68.76l-3.4,3.06A.5.5,0,0,1,85.22,172.79Z" style="fill:#004ecb"/><path d="M124.8,172.06a.49.49,0,0,1,.28-.3.5.5,0,0,1,.67.26l1.83,4.19a.53.53,0,0,1-.27.68.51.51,0,0,1-.67-.27l-1.83-4.19A.52.52,0,0,1,124.8,172.06Z" style="fill:#004ecb"/><path d="M133.39,178.89a4.89,4.89,0,0,1-.29.7c0,.08-.08.16-.13.24l-2.48-.78a.46.46,0,0,1-.28-.23.46.46,0,0,1-.05-.41.5.5,0,0,1,.64-.33Z" style="fill:#004ecb"/><path d="M119.35,179.26a.52.52,0,0,1,.39.13.51.51,0,0,1,0,.72l-3.08,3.39a.51.51,0,1,1-.75-.69l3.07-3.38A.51.51,0,0,1,119.35,179.26Z" style="fill:#004ecb"/><path d="M117.54,171.45a.49.49,0,0,1-.35-.23.53.53,0,0,1,.16-.71l3.88-2.43a.5.5,0,0,1,.7.16.52.52,0,0,1-.16.71l-3.87,2.43A.51.51,0,0,1,117.54,171.45Z" style="fill:#004ecb"/><path d="M120,156.72a.49.49,0,0,1,.12.39.51.51,0,0,1-.56.45l-4.55-.49a.51.51,0,0,1-.45-.56.51.51,0,0,1,.56-.46l4.55.5A.51.51,0,0,1,120,156.72Z" style="fill:#004ecb"/><path d="M113.4,146.85a.54.54,0,0,1,.25-.33.51.51,0,0,1,.69.21l2.16,4a.51.51,0,1,1-.89.48l-2.17-4A.5.5,0,0,1,113.4,146.85Z" style="fill:#004ecb"/><path d="M128.86,184.77c-.29.25-.57.49-.83.69l-.6-1.52a.5.5,0,0,1,0-.36.48.48,0,0,1,.29-.3.51.51,0,0,1,.66.29Z" style="fill:#004ecb"/><path d="M87,177a.51.51,0,0,1,.62-.72l4.3,1.55a.5.5,0,0,1,.31.65.52.52,0,0,1-.65.31l-4.31-1.55A.53.53,0,0,1,87,177Z" style="fill:#004ecb"/><path d="M89.15,182.84a.48.48,0,0,1,.37.17.51.51,0,0,1,0,.72l-3.43,3a.51.51,0,0,1-.72,0,.52.52,0,0,1,0-.72l3.42-3A.53.53,0,0,1,89.15,182.84Z" style="fill:#004ecb"/><path d="M95.36,187.65a.55.55,0,0,1,.1.4.51.51,0,0,1-.59.42l-4.51-.77a.52.52,0,0,1-.42-.59.51.51,0,0,1,.59-.41l4.51.76A.61.61,0,0,1,95.36,187.65Z" style="fill:#004ecb"/><path d="M99.13,144.82a.5.5,0,0,1,.06-.41.51.51,0,0,1,.71-.15l3.84,2.48a.51.51,0,0,1-.55.86l-3.85-2.48A.49.49,0,0,1,99.13,144.82Z" style="fill:#004ecb"/><path d="M125.36,147.74a.53.53,0,0,1,.41,0,.52.52,0,0,1,.31.65l-1.53,4.31a.51.51,0,0,1-1-.34l1.53-4.31A.51.51,0,0,1,125.36,147.74Z" style="fill:#004ecb"/><path d="M123.3,142.12l-2.36,3a.5.5,0,0,1-.72.09.51.51,0,0,1-.09-.71l2.17-2.77Z" style="fill:#004ecb"/><path d="M100.2,184a.4.4,0,0,0,.31.27.3.3,0,0,0,.21,0A24.09,24.09,0,0,1,116,185a26.1,26.1,0,0,0,10.31,2.21c0-.17,0-.33,0-.47v-.06s.16-.1.43-.3a25,25,0,0,1-10.47-2.15,24.49,24.49,0,0,0-15.85-.83A.42.42,0,0,0,100.2,184Z" style="fill:#004ecb"/><path d="M118,140.39c-1,1.51-3,3.22-7.06,2.92-5.61-.41-9.31-5.76-10.6-8h.27Z" style="fill:#004ecb"/><path d="M112,150.33l.5.07a4.37,4.37,0,0,0,3.74-1.34c2.7-2.95,1.59-9.68,1.54-10a.41.41,0,0,0-.48-.34.42.42,0,0,0-.34.48c0,.06,1.09,6.61-1.33,9.26a3.54,3.54,0,0,1-3.06,1.07c-5.44-.44-11.54-14.26-11.6-14.4a.42.42,0,0,0-.55-.22.41.41,0,0,0-.21.55C100.48,136.07,106.26,149.16,112,150.33Z" style="fill:#fff"/><path d="M129,144.89a30.41,30.41,0,0,0,3.2,15.31c-.06-1-.09-2-.08-3.08V157c0-.11,0-.21,0-.31C132.2,150.66,132.79,147.6,129,144.89Z" style="fill:#ff9b79"/><path d="M97,151.91c-2,7.7-9.29,13.88-14.28,12l-.18-1.3c0-.28-.08-.56-.13-.84-.32-2.09-.69-4.19-1.12-6.22-1.85-8.88-.55-18.19,8.45-19.29.65-.08,1.3-.16,1.92-.22C96.15,137.91,99.28,143.05,97,151.91Z" style="fill:#ff9b79"/><path d="M98,146l11.69,42.75L105.53,184a21.56,21.56,0,0,0,5.31,1.9,39.22,39.22,0,0,0,6.39.82c2.25.11,4.6.09,7,0s4.86-.28,7.35-.49h0a6.68,6.68,0,0,1,1.62,13.25c-2.57.41-5.19.8-7.87,1.11s-5.43.54-8.28.61a53.65,53.65,0,0,1-8.84-.49A36.6,36.6,0,0,1,99,198.12a7.3,7.3,0,0,1-4-4.36l-.15-.45-14-42a9,9,0,0,1,17.12-5.71C97.92,145.72,98,145.89,98,146Z" style="fill:#ff9b79"/><path d="M103.24,187.42a.33.33,0,0,1-.3-.18.35.35,0,0,1,.13-.47,14.77,14.77,0,0,1,5.34-1.71.35.35,0,0,1,.37.32.34.34,0,0,1-.32.37,14.27,14.27,0,0,0-5,1.62A.34.34,0,0,1,103.24,187.42Z" style="fill:#f56c63"/><path d="M107.49,185.88a.41.41,0,0,1-.18,0,9.07,9.07,0,0,0-3.58-1.13.35.35,0,0,1-.32-.37.34.34,0,0,1,.37-.32,9.61,9.61,0,0,1,3.89,1.22.37.37,0,0,1,.12.48A.35.35,0,0,1,107.49,185.88Z" style="fill:#f56c63"/><path d="M117.91,163.35c5.18,1,7.44-4.31,7.46-4.36a.41.41,0,0,0-.22-.54.42.42,0,0,0-.55.22c-.08.21-2,4.77-6.52,3.86-4.71-1-13.51-10.23-13.59-10.32a.42.42,0,1,0-.61.57C104.25,153.17,113,162.34,117.91,163.35Z" style="fill:#004ecb"/><path d="M109.78,129.68s-8.3-1.56-10.64-9.94c-2.23-8-.52-12.12,1.8-16.43,1.75-3.24,7.29-7.63,15-6s13.7,5.61,14.57,12C132.18,121.38,122.45,136.09,109.78,129.68Z" style="fill:#363638"/><path d="M99.53,121a.42.42,0,0,1-.37-.22A18.77,18.77,0,0,1,98.41,106a13.54,13.54,0,0,1,8.06-8.5,14.6,14.6,0,0,1,5.43-1,.44.44,0,0,1,.41.46.43.43,0,0,1-.45.41h0a13.9,13.9,0,0,0-5.11,1,12.54,12.54,0,0,0-7.52,8,18.19,18.19,0,0,0,.68,14.09.44.44,0,0,1-.16.59A.43.43,0,0,1,99.53,121Z" style="fill:#ffb028"/><path d="M125.88,121.17s2.7-2.14,3.41.69-1.29,7.84-4.43,6.32Z" style="fill:#f56c63"/><path d="M123.25,126.36a4.27,4.27,0,0,0-2.83,3.11,4.07,4.07,0,1,0,6.28-2.55,4,4,0,0,0-1.49-.63h0a.67.67,0,0,0,.11.67,3.37,3.37,0,0,1,1.2.59,3.44,3.44,0,1,1-5.45,2,3.36,3.36,0,0,1,2.54-2.61Z" style="fill:#ffb028"/><path d="M117.7,133.27l-1.13,7.07s-5.3,5.41-15-4.29c2.6-1.93,3.59-6.41,3.28-9.31a13.86,13.86,0,0,1,1.94,1.52,7.66,7.66,0,0,0,.81.57C110.19,130.57,114.11,132.83,117.7,133.27Z" style="fill:#ff9b79"/><path d="M117.7,133.27l-.54,3.35c-2.9-1.29-8-4.05-10.34-8.36l.81.57C110.19,130.57,114.11,132.83,117.7,133.27Z" style="fill:#363638"/><path d="M128.5,119.46c-.15.75-.29,1.46-.44,2.14s-.29,1.43-.44,2.08c-1.07,4.89-2,7.51-3.38,8.5-7.22,5-19-5.09-19.35-5.42h0c0-.57,0-1.14,0-1.7a44.15,44.15,0,0,1,2.19-13,10,10,0,0,1,8.31-8.44c4.47-.67,7.84,1.92,9.94,3.07C128.5,108.41,129.74,113.22,128.5,119.46Z" style="fill:#ff9b79"/><path d="M107.32,107.61s5.05-9.72,15.13-7,10.62,7.4,10.8,9.74-5.22-1.81-5.22-1.81-.19,4.68-2,3.24a29.47,29.47,0,0,1-4.67-5.59s-6,5.9-11.71,4.31C106.42,109.59,107.32,107.61,107.32,107.61Z" style="fill:#363638"/><path d="M119.7,129a3.35,3.35,0,0,1-2.25-1,.36.36,0,1,1,.51-.5,2.49,2.49,0,0,0,2.46.61.37.37,0,0,1,.46.22.36.36,0,0,1-.22.46A2.84,2.84,0,0,1,119.7,129Z" style="fill:#f56c63"/><path d="M116.68,123.11a36.93,36.93,0,0,0,7.39,1.44s-1.26,3.6-4.87,2.34A3.71,3.71,0,0,1,116.68,123.11Z" style="fill:#fff"/><path d="M125.71,113s-1.27-.13-1.06,1.09,2.94.48,4.3,2.93C129,117,130.25,114.44,125.71,113Z" style="fill:#363638"/><path d="M120.1,111.85s1.21.38.54,1.42-2.89-.71-5.09,1C115.55,114.3,115.34,111.42,120.1,111.85Z" style="fill:#363638"/><path d="M117.9,120.62c-.11.58-1.4.81-2.87.51s-2.56-1-2.44-1.58,1.4-.81,2.87-.51S118,120.05,117.9,120.62Z" style="fill:#f56c63"/><path d="M132.25,121l-3.92-.67c0,.16-.07.33-.1.49l0,.08,4,.67a.29.29,0,0,0,.34-.24A.27.27,0,0,0,132.25,121Z" style="fill:#fff"/><path d="M121.77,117.65q0-.3,0-.6a5,5,0,0,0-3.86-4.24h0a5,5,0,0,0-5.5,2.78,3.66,3.66,0,0,0-.21.55,4.84,4.84,0,0,0-.14.51,4.92,4.92,0,0,0,.64,3.6,5.19,5.19,0,0,0,.78,1,4.94,4.94,0,0,0,8.27-2.56v0A4.66,4.66,0,0,0,121.77,117.65Zm-5.83,4.26h-.07a4.38,4.38,0,0,1-3.32-5.14,4.32,4.32,0,0,1,.19-.64l0,0a4.37,4.37,0,0,1,3.8-2.79,4.49,4.49,0,0,1,1.15.08,4.27,4.27,0,0,1,2.12,1.12,4.36,4.36,0,0,1-3.89,7.42Z" style="fill:#fff"/><path d="M130.57,115.63l-.42-.19a4.4,4.4,0,0,0-.51-.18l-.37-.1-.7-.09a4.47,4.47,0,0,0-.82,0,5,5,0,0,0-3.79,2.48,4.41,4.41,0,0,0-.28.58s0,0,0,0a4.68,4.68,0,0,0-.25.83,5,5,0,0,0,1.82,4.91,4.83,4.83,0,0,0,1.61.83l.27.07.14,0a4.9,4.9,0,0,0,1.42.09l.22,0a3.75,3.75,0,0,0,.6-.11,5.42,5.42,0,0,0,1.06-.41,4.95,4.95,0,0,0,0-8.76Zm2,5.26c0,.09,0,.19-.07.28s-.08.26-.13.38a4.38,4.38,0,0,1-2.72,2.6,4.61,4.61,0,0,1-.64.16l-.19,0a4.48,4.48,0,0,1-1.41-.06l-.13,0-.08,0a4.35,4.35,0,0,1-1.83-1,2.08,2.08,0,0,1-.21-.21,4.33,4.33,0,0,1-1.14-3.9,4.71,4.71,0,0,1,.31-.94,4.39,4.39,0,0,1,2.12-2.13,4.31,4.31,0,0,1,1.85-.41h.31a3.72,3.72,0,0,1,.57.08l.4.1a4.65,4.65,0,0,1,.52.2,3.55,3.55,0,0,1,.39.2A4.39,4.39,0,0,1,132.54,120.89Z" style="fill:#fff"/><path d="M106.07,116.47a.18.18,0,0,1-.09,0,.28.28,0,0,1-.09-.4c2-3.07,6.69-.31,6.74-.29a.31.31,0,0,1,.1.4.29.29,0,0,1-.4.11s-4.29-2.5-6,.1A.29.29,0,0,1,106.07,116.47Z" style="fill:#fff"/><path d="M123.9,118.32a.28.28,0,0,1-.19-.12c-.63-1-2-.54-2-.54a.29.29,0,1,1-.18-.55,2.31,2.31,0,0,1,2.66.77.29.29,0,0,1-.08.4A.25.25,0,0,1,123.9,118.32Z" style="fill:#fff"/><g style="opacity:0.8"><path d="M128.06,121.6c-.15.73-.29,1.43-.44,2.08-1.33-.32-2.29-1-2.18-1.53S126.7,121.37,128.06,121.6Z" style="fill:#f56c63"/></g><path d="M118.94,117.72c-.16.8-.66,1.37-1.1,1.28s-.67-.81-.51-1.6.65-1.37,1.09-1.28S119.1,116.93,118.94,117.72Z" style="fill:#363638"/><path d="M126.79,119.31c-.16.8-.65,1.37-1.1,1.28s-.67-.81-.51-1.6.65-1.37,1.09-1.28S127,118.52,126.79,119.31Z" style="fill:#363638"/><path d="M122.73,121.44a3,3,0,0,0,.68.07.37.37,0,0,0,.24-.12.35.35,0,0,0,.07-.26l-.51-3.71a.33.33,0,0,0-.37-.28.34.34,0,0,0-.29.37l.45,3.3a2.56,2.56,0,0,1-1.27-.55.33.33,0,0,0-.43.51A3.2,3.2,0,0,0,122.73,121.44Z" style="fill:#363638"/><path d="M108.13,124.07c-.06.08-1.59,2.29-3.24,2.69h0q0-.85,0-1.71A6.12,6.12,0,0,0,108.13,124.07Z" style="fill:#363638"/><path d="M107.79,118.26s-2.31-4.9-5.31-2c-2.48,2.37-.31,10.29,4,8.6Z" style="fill:#ff9b79"/><path d="M102.11,122.49a4.27,4.27,0,0,0-2.83,3.11,4.07,4.07,0,1,0,6.28-2.55,4,4,0,0,0-1.49-.63h0a.68.68,0,0,0,.11.67,3.52,3.52,0,0,1,1.2.58,3.44,3.44,0,1,1-5.45,2.06,3.35,3.35,0,0,1,2.54-2.61Z" style="fill:#ffb028"/><path d="M106.28,123.47h0a.33.33,0,0,0,.36-.3,6.23,6.23,0,0,0-2.58-5.66.33.33,0,0,0-.36.56h0a5.55,5.55,0,0,1,2.28,5A.34.34,0,0,0,106.28,123.47Z" style="fill:#363638"/><path d="M103.64,120.87a.42.42,0,0,0,.22,0,2.61,2.61,0,0,1,1.84-.31.33.33,0,0,0,.44-.15.34.34,0,0,0-.15-.45,3.2,3.2,0,0,0-2.44.32.33.33,0,0,0-.14.45A.33.33,0,0,0,103.64,120.87Z" style="fill:#363638"/><path d="M110.77,109.94s-3.11,8.44-3.28,10.14c-.23,2.32-3.29-5.62-.21-12.41Z" style="fill:#363638"/><path d="M162.71,288.88h-12.8s-3-14.21-4-22.17-1.51-26.85-1.51-26.85-10.2,3.31-31.55,2.06c-47.31-2.76-29.37-37.52-29.37-37.52,1.6,2.21,13.59,5.25,20.28,6.31,20.54,2,36.15,5.45,46.84,10.07a52.21,52.21,0,0,1,6.87,3.52c2.58,1.59,4.19,6.41,5.16,12.75C165.59,256.1,162.71,288.88,162.71,288.88Z" style="fill:#363638"/><path d="M151.49,282a.45.45,0,0,1-.44-.37c-1.85-9.14-2.47-20.52-3-29.66-.41-7.57-.8-14.73-1.78-15.59-.78-.7-4.06-.16-8.2.53-8.25,1.37-20.71,3.44-34.45.24-7.48-1.74-13-5.37-16.35-10.8-5.81-9.37-3.16-21-3.14-21.09a.46.46,0,0,1,.55-.34.47.47,0,0,1,.35.55c0,.11-2.59,11.37,3,20.4,3.23,5.21,8.54,8.71,15.78,10.39,13.56,3.16,25.91,1.11,34.09-.25,4.89-.81,7.85-1.3,9-.32S148.45,242,149,252c.49,9.11,1.11,20.45,2.94,29.53a.46.46,0,0,1-.35.54Z" style="fill:#575759"/><path d="M163,282.28h0L148.71,282a.45.45,0,0,1-.45-.47.44.44,0,0,1,.47-.44l14.23.3a.47.47,0,0,1,.45.47A.46.46,0,0,1,163,282.28Z" style="fill:#575759"/><polygon points="162.35 305.28 153.32 305.28 151.58 294.68 150.63 288.88 161.85 288.88 162.03 294.68 162.35 305.28" style="fill:#ff9b79"/><polygon points="162.35 305.28 153.32 305.28 152.02 297.39 151.58 294.68 162.03 294.68 162.12 297.49 162.35 305.28" style="fill:#ffb028"/><polygon points="162.12 297.49 152.02 297.39 151.58 294.68 162.03 294.68 162.12 297.49" style="fill:#dc7f21"/><path d="M184.65,319.55H150.48a4.58,4.58,0,0,1-.45-1.9c-.22-2.89.7-7.5,1.16-10.41.05-.34.1-.66.14-.94a10.87,10.87,0,0,0,.1-1.19,1.74,1.74,0,0,1,2.1-2c3.46,3.39,7.37-1.69,9.66,0l.3.24.89.72c.58.49,1.4,1.2,2.5,2.19,2.72,2.44,7.33,4.05,11.26,5.69.5.21,1,.42,1.39.63s.64.32.93.48c3.21,1.73,4.23,3.39,4.47,4.59A2.68,2.68,0,0,1,184.65,319.55Z" style="fill:#0076fa"/><path d="M180.46,313.06c-.88.7-2.84,2.1-4.41,2.1h-.2c-1.11-.09-5.18-2.09-8.49-3.92-1.9-1-3.64-2.07-4.88-2.89-2-1.35-2.4-1.86-2.48-2.22-.3-1.35,1.93-2.29,3.49-2.77l.89.72c-1.94.53-3.54,1.36-3.47,1.83s2.22,1.94,7.05,4.59c3.69,2,7.19,3.65,8,3.72,1,.08,2.6-.87,3.6-1.63Q180,312.82,180.46,313.06Z" style="fill:#004ecb"/><path d="M184.65,319.55H150.48a4.58,4.58,0,0,1-.45-1.9h34.9A2.7,2.7,0,0,1,184.65,319.55Z" style="fill:#004ecb"/><path d="M154,319.55h-1a7.5,7.5,0,0,0,1.83-5.47,9.63,9.63,0,0,0-3.59-6.84c.05-.34.1-.66.14-.95A10.5,10.5,0,0,1,155.6,314,8.27,8.27,0,0,1,154,319.55Z" style="fill:#004ecb"/><path d="M166.3,308.28a.56.56,0,0,1-.54-.43.56.56,0,0,1,.41-.68l2.13-.53a.56.56,0,1,1,.28,1.09l-2.14.53Z" style="fill:#fff"/><path d="M164.18,306.5a.56.56,0,0,1-.13-1.11l2.13-.53a.57.57,0,0,1,.69.41.56.56,0,0,1-.42.68l-2.13.53Z" style="fill:#fff"/><path d="M168.44,309.52a.57.57,0,0,1-.55-.43.56.56,0,0,1,.41-.68l2.14-.53a.56.56,0,0,1,.27,1.09l-2.13.53Z" style="fill:#fff"/><path d="M170.57,310.71a.56.56,0,0,1-.13-1.11l2.13-.53a.57.57,0,0,1,.69.41.56.56,0,0,1-.42.68l-2.13.53Z" style="fill:#fff"/><path d="M172.9,311.81a.56.56,0,0,1-.13-1.11l2.13-.53a.57.57,0,0,1,.27,1.1l-2.13.53Z" style="fill:#fff"/><path d="M175.42,312.75a.56.56,0,0,1-.54-.42.57.57,0,0,1,.41-.69l2.13-.53a.57.57,0,0,1,.28,1.1l-2.14.53Z" style="fill:#fff"/><path d="M209.85,203.89v2.84c0,1.63-1,3-2.2,3H54.32c-1.22,0-2.2-1.32-2.2-3v-2.84c0-1.63,1-2.95,2.2-2.95H207.65C208.87,200.94,209.85,202.26,209.85,203.89Z" style="fill:#00b570"/><rect x="52.12" y="204.79" width="157.74" height="1.3" style="fill:#007d55"/><path d="M205.25,217H61.12A1.17,1.17,0,0,1,60,215.81v-6.16H206.41v6.16A1.17,1.17,0,0,1,205.25,217Z" style="fill:#007d55"/><rect x="69.88" y="253.15" width="128.89" height="5.02" style="fill:#007d55"/><polygon points="60.59 320.44 85.54 216.98 76.78 216.98 51.82 320.44 60.59 320.44" style="fill:#00b570"/><polygon points="207.9 320.44 182.94 216.98 191.7 216.98 216.66 320.44 207.9 320.44" style="fill:#00b570"/><rect x="64.96" y="177.24" width="2.74" height="20.64" transform="translate(-27.64 12.21) rotate(-8.71)" style="fill:#ffb028"/><polygon points="66.12 177.15 63.41 177.56 64.01 175.5 64.32 174.43 64.93 175.35 66.12 177.15" style="fill:#ff9b79"/><rect x="66.41" y="196.26" width="2.74" height="1.5" transform="translate(-29.05 12.54) rotate(-8.71)" style="fill:#363638"/><path d="M69.25,198.76l-2.35.36a.2.2,0,0,1-.21-.16l-.15-1,2.71-.41.15,1A.19.19,0,0,1,69.25,198.76Z" style="fill:#fd615b"/><polygon points="64.93 175.35 64.01 175.5 64.32 174.43 64.93 175.35" style="fill:#363638"/><rect x="66.22" y="195.2" width="2.74" height="1.08" transform="translate(-28.86 12.49) rotate(-8.71)" style="fill:#dc7f21"/><path d="M64.24,178.46l2.32,15.11a.2.2,0,0,0,.23.18h0a.21.21,0,0,0,.18-.24L64.65,178.4a.2.2,0,0,0-.23-.17h0A.2.2,0,0,0,64.24,178.46Z" style="fill:#dc7f21"/><path d="M65.3,178.3l2.31,15.11a.21.21,0,0,0,.24.17h0a.2.2,0,0,0,.18-.23l-2.32-15.11a.21.21,0,0,0-.24-.18h0A.21.21,0,0,0,65.3,178.3Z" style="fill:#dc7f21"/><rect x="68.31" y="177.25" width="2.74" height="20.64" transform="translate(-0.62 0.23) rotate(-0.19)" style="fill:#00b570"/><polygon points="71.01 177.24 68.28 177.25 69.17 175.3 69.63 174.28 70.11 175.29 71.01 177.24" style="fill:#ff9b79"/><rect x="68.34" y="196.38" width="2.74" height="1.5" transform="translate(-0.65 0.23) rotate(-0.19)" style="fill:#363638"/><path d="M70.9,199.08H68.53a.18.18,0,0,1-.18-.18v-1h2.74v1A.19.19,0,0,1,70.9,199.08Z" style="fill:#fd615b"/><polygon points="70.11 175.29 69.17 175.3 69.63 174.28 70.11 175.29" style="fill:#363638"/><rect x="68.34" y="195.31" width="2.74" height="1.08" transform="translate(-0.64 0.23) rotate(-0.19)" style="fill:#007d55"/><path d="M69,178.27,69,193.55a.21.21,0,0,0,.21.21h0a.22.22,0,0,0,.21-.21l-.05-15.29a.21.21,0,0,0-.21-.2h0A.21.21,0,0,0,69,178.27Z" style="fill:#007d55"/><path d="M70,178.26l0,15.28a.21.21,0,0,0,.21.21h0a.21.21,0,0,0,.21-.21l0-15.28a.21.21,0,0,0-.21-.21h0A.21.21,0,0,0,70,178.26Z" style="fill:#007d55"/><rect x="62.61" y="186.19" width="20.64" height="2.74" transform="translate(-123.02 233.38) rotate(-81.91)" style="fill:#0076fa"/><polygon points="75.74 177.53 73.03 177.15 74.19 175.34 74.8 174.41 75.12 175.47 75.74 177.53" style="fill:#ff9b79"/><rect x="70.21" y="196.28" width="2.74" height="1.5" transform="translate(28.42 -8.11) rotate(8.09)" style="fill:#363638"/><path d="M72.48,199.12l-2.34-.33a.2.2,0,0,1-.16-.21l.14-1,2.71.39-.14,1A.18.18,0,0,1,72.48,199.12Z" style="fill:#fd615b"/><polygon points="75.12 175.47 74.19 175.34 74.8 174.41 75.12 175.47" style="fill:#363638"/><rect x="71.23" y="194.39" width="1.08" height="2.74" transform="translate(-132.14 239.26) rotate(-81.91)" style="fill:#004ecb"/><path d="M73.56,178.25l-2.15,15.13a.21.21,0,0,0,.17.24h0a.22.22,0,0,0,.24-.18L74,178.31a.21.21,0,0,0-.18-.24h0A.21.21,0,0,0,73.56,178.25Z" style="fill:#004ecb"/><path d="M74.62,178.4l-2.15,15.13a.21.21,0,0,0,.17.24h0a.22.22,0,0,0,.24-.18L75,178.46a.21.21,0,0,0-.18-.24h0A.21.21,0,0,0,74.62,178.4Z" style="fill:#004ecb"/><polygon points="76.62 185.41 76.48 186.51 76.35 187.52 76.15 189.04 76.03 190.04 75.83 191.58 75.7 192.56 75.5 194.11 75.38 195.08 75.17 196.64 75.05 197.6 74.85 199.18 74.72 200.12 74.62 200.94 63.86 200.94 63.76 200.12 63.63 199.18 63.43 197.6 63.31 196.64 63.11 195.08 62.98 194.11 62.78 192.56 62.65 191.58 62.45 190.04 62.33 189.04 62.13 187.52 62 186.51 61.86 185.41 76.62 185.41" style="fill:#fd615b"/><polygon points="76.48 186.51 76.35 187.52 62.13 187.52 62 186.51 76.48 186.51" style="fill:#ce101d"/><polygon points="76.15 189.04 76.03 190.04 62.45 190.04 62.33 189.04 76.15 189.04" style="fill:#ce101d"/><polygon points="75.83 191.58 75.7 192.56 62.78 192.56 62.65 191.58 75.83 191.58" style="fill:#ce101d"/><polygon points="75.5 194.11 75.38 195.08 63.11 195.08 62.98 194.11 75.5 194.11" style="fill:#ce101d"/><polygon points="75.17 196.64 75.05 197.6 63.43 197.6 63.31 196.64 75.17 196.64" style="fill:#ce101d"/><polygon points="74.85 199.18 74.72 200.12 63.76 200.12 63.63 199.18 74.85 199.18" style="fill:#ce101d"/><path d="M209,146.07l-9.17,38.79-.25,1-.61,2.62a2.51,2.51,0,0,1-2.44,1.93h-61.8a2.51,2.51,0,0,1-2.44-3.09l10-42.43a2.51,2.51,0,0,1,2.44-1.93h61.8A2.51,2.51,0,0,1,209,146.07Z" style="fill:#363638"/><polygon points="199.79 184.86 199.54 185.88 135.38 185.88 135.38 184.86 199.79 184.86" style="fill:#575759"/><path d="M159.59,152.59a6.26,6.26,0,0,1-5.9,5,4,4,0,0,1-4.05-5,6.27,6.27,0,0,1,5.9-5A4,4,0,0,1,159.59,152.59Z" style="fill:#ffb028"/><path d="M154,151.63c-.1.55-.38,1-.62,1s-.35-.45-.25-1,.38-1,.62-1S154.07,151.08,154,151.63Z" style="fill:#363638"/><path d="M156.57,151.63c-.1.55-.38,1-.62,1s-.35-.45-.25-1,.38-1,.62-1S156.67,151.08,156.57,151.63Z" style="fill:#363638"/><path d="M154.21,155a2.21,2.21,0,0,1-2.24-2.16.29.29,0,0,1,.22-.26.17.17,0,0,1,.22.17,1.85,1.85,0,0,0,1.88,1.82,2.94,2.94,0,0,0,2.55-1.82.27.27,0,0,1,.29-.17.19.19,0,0,1,.12.26A3.56,3.56,0,0,1,154.21,155Z" style="fill:#363638"/><path d="M188.16,175.83c.06,2.58,4.42,5.8,4.42,5.8s5.07-3.22,5.68-5.8c.67-2.79-2.52-3.65-4.88-1.54C191.48,172.18,188.1,173,188.16,175.83Z" style="fill:#fd615b"/><path d="M178.93,168.36a5.54,5.54,0,0,1-5.37,4.84,4.25,4.25,0,0,1-4.3-4.84,5.53,5.53,0,0,1,5.37-4.83A4.24,4.24,0,0,1,178.93,168.36Z" style="fill:#575759"/><path d="M147.17,143l-10.68,47.45h-1.8a2.51,2.51,0,0,1-2.44-3.09l10-42.43a2.51,2.51,0,0,1,2.44-1.93Z" style="fill:#575759"/><polygon points="165.07 190.43 163.19 200.97 169.39 200.97 171.26 190.43 165.07 190.43" style="fill:#fff"/><path d="M153.93,199.15l1.27-1.78a2.41,2.41,0,0,1,2-1h17a2.42,2.42,0,0,1,2.14,1.29l.85,1.64a1.15,1.15,0,0,1-1,1.68H154.86A1.15,1.15,0,0,1,153.93,199.15Z" style="fill:#fff"/><path d="M118.56,201h51l.56-1.92a1.9,1.9,0,0,0-1.82-2.42H121.23a1.9,1.9,0,0,0-1.82,1.37Z" style="fill:#fff"/><rect x="161.29" y="113.28" width="25.72" height="17.03" rx="2.29" style="fill:#fd615b"/><polygon points="184.08 127.76 182.02 135.53 178.43 128.23 184.08 127.76" style="fill:#fd615b"/><path d="M179.85,120.54c-.46,2.91-5.89,6.55-5.89,6.55s-5.23-3.65-5.53-6.56c-.32-3.15,3.42-4.12,5.76-1.74C176.67,116.41,180.35,117.38,179.85,120.54Z" style="fill:#fff"/><ellipse cx="466.92" cy="321.18" rx="38.41" ry="3.8" style="fill:#ccd3e6"/><rect x="440.27" y="289.64" width="51.83" height="4.1" rx="2.05" style="fill:#363638"/><rect x="441.12" y="244.15" width="50.23" height="8.67" rx="1.43" style="fill:#575759"/><path d="M453.74,207.25s-20-3.95-25.55-17.88S443,165,453.74,172.46C465.23,180.47,453.74,207.25,453.74,207.25Z" style="fill:#00b570"/><path d="M465.62,243.87a.37.37,0,0,1-.36-.31c-1.92-12.95-9.63-31.57-15.76-44.92-6.65-14.47-12.93-26-13-26.13a.35.35,0,0,1,.14-.49.36.36,0,0,1,.49.14c.06.12,6.35,11.69,13,26.18,6.16,13.39,13.9,32.08,15.82,45.11a.35.35,0,0,1-.3.41Z" style="fill:#363638"/><path d="M453,205.9a.36.36,0,0,1-.32-.19c-8.69-16.18-22.8-27.92-22.94-28a.36.36,0,0,1-.05-.51.37.37,0,0,1,.51,0c.14.12,14.36,11.95,23.12,28.26a.37.37,0,0,1-.15.49A.35.35,0,0,1,453,205.9Z" style="fill:#363638"/><path d="M453.38,207.06a.34.34,0,0,1-.27-.13A69.67,69.67,0,0,0,436,192.26a42.7,42.7,0,0,0-8-3.84.37.37,0,0,1-.23-.46.35.35,0,0,1,.45-.23,42.5,42.5,0,0,1,8.09,3.9,69.9,69.9,0,0,1,17.36,14.84.36.36,0,0,1,0,.51A.43.43,0,0,1,453.38,207.06Z" style="fill:#363638"/><path d="M451.62,202.82a.36.36,0,0,1-.34-.25c-4.87-14.29-3.08-31.66-3.06-31.84a.37.37,0,0,1,.4-.32.36.36,0,0,1,.32.4c0,.17-1.79,17.39,3,31.53a.37.37,0,0,1-.23.46Z" style="fill:#363638"/><path d="M452.85,205.65a.37.37,0,0,1-.36-.3,50.39,50.39,0,0,1,.88-21,33.51,33.51,0,0,1,3.06-7.93.37.37,0,0,1,.5-.12.36.36,0,0,1,.12.49,33.36,33.36,0,0,0-3,7.77,49.61,49.61,0,0,0-.85,20.7.35.35,0,0,1-.3.41Z" style="fill:#363638"/><path d="M474.81,210.89s20.17-2.76,26.56-16.34-13.33-25.22-24.5-18.39C464.92,183.47,474.81,210.89,474.81,210.89Z" style="fill:#00b570"/><path d="M467.16,242.68h0a.34.34,0,0,1-.35-.36,74.69,74.69,0,0,1,4.32-22.58,148,148,0,0,1,9.15-21.13,193.09,193.09,0,0,1,13.2-21.78.36.36,0,0,1,.58.42A195,195,0,0,0,480.9,199c-6,11.54-13.2,28.43-13.38,43.36A.36.36,0,0,1,467.16,242.68Z" style="fill:#363638"/><path d="M475.66,209.59a.41.41,0,0,1-.19-.05.37.37,0,0,1-.12-.5c9.71-15.77,24.6-26.73,24.75-26.84a.37.37,0,0,1,.51.08.38.38,0,0,1-.08.51c-.15.1-14.93,11-24.56,26.63A.37.37,0,0,1,475.66,209.59Z" style="fill:#363638"/><path d="M475.2,210.72a.35.35,0,0,1-.25-.1.35.35,0,0,1,0-.51,70.1,70.1,0,0,1,18.2-13.78,42.83,42.83,0,0,1,8.3-3.41.35.35,0,0,1,.44.26.36.36,0,0,1-.26.44,42.18,42.18,0,0,0-8.17,3.36,69.58,69.58,0,0,0-18,13.63A.34.34,0,0,1,475.2,210.72Z" style="fill:#363638"/><path d="M477.2,206.59a.3.3,0,0,1-.13,0,.36.36,0,0,1-.2-.47c5.64-13.83,4.89-31.13,4.88-31.3a.37.37,0,0,1,.35-.38.37.37,0,0,1,.38.35c0,.17.77,17.62-4.94,31.6A.36.36,0,0,1,477.2,206.59Z" style="fill:#363638"/><path d="M475.81,209.35h-.08a.38.38,0,0,1-.27-.44,49.64,49.64,0,0,0,.37-20.71,34,34,0,0,0-2.52-7.93.36.36,0,0,1,.64-.33,33.7,33.7,0,0,1,2.58,8.09,50.18,50.18,0,0,1-.37,21A.35.35,0,0,1,475.81,209.35Z" style="fill:#363638"/><path d="M467,184.61S450,173.55,449.93,158.53s22.79-17.17,30-6.24C487.64,164,467,184.61,467,184.61Z" style="fill:#00b570"/><path d="M464.65,223.05h-.08a.36.36,0,0,1-.27-.44c3-12.73,2.75-32.89,2-47.56-.82-15.9-2.37-28.95-2.39-29.08a.36.36,0,1,1,.72-.09c0,.13,1.57,13.21,2.39,29.14.76,14.71,1,34.94-2,47.76A.36.36,0,0,1,464.65,223.05Z" style="fill:#363638"/><path d="M467,183.11a.37.37,0,0,1-.36-.33c-2.08-18.25-10.84-34.38-10.93-34.54a.37.37,0,0,1,.15-.49.37.37,0,0,1,.49.14c.09.17,8.91,16.42,11,34.81a.36.36,0,0,1-.32.4Z" style="fill:#363638"/><path d="M466.92,184.33a.37.37,0,0,1-.35-.25,69.3,69.3,0,0,0-10.5-20,42.65,42.65,0,0,0-6-6.52.36.36,0,1,1,.46-.56,42.82,42.82,0,0,1,6.07,6.62,70.18,70.18,0,0,1,10.63,20.21.37.37,0,0,1-.23.46Z" style="fill:#363638"/><path d="M466.85,179.74h0a.37.37,0,0,1-.35-.38c.77-15.09,8.87-30.56,8.95-30.71a.36.36,0,0,1,.64.33c-.08.16-8.1,15.49-8.87,30.41A.35.35,0,0,1,466.85,179.74Z" style="fill:#363638"/><path d="M466.94,182.82h-.07a.36.36,0,0,1-.28-.43,51,51,0,0,1,8.63-19.3,34.21,34.21,0,0,1,5.79-6.32.36.36,0,0,1,.51.06.37.37,0,0,1-.06.51,34.28,34.28,0,0,0-5.68,6.2,50.26,50.26,0,0,0-8.48,19A.37.37,0,0,1,466.94,182.82Z" style="fill:#363638"/><path d="M487.93,221.1l-.6,1.58-.38,1-1.08,2.87-.37,1-1.12,2.94-.37,1-4.76,12.64h-26l-4.76-12.64-.38-1L447,227.56l-.38-1-1.08-2.87-.37-1-.6-1.58a1.66,1.66,0,0,1,1.55-2.24h40.28A1.66,1.66,0,0,1,487.93,221.1Z" style="fill:#0076fa"/><polygon points="487.33 222.68 486.95 223.69 445.52 223.69 445.15 222.68 487.33 222.68" style="fill:#004ecb"/><polygon points="485.87 226.56 485.5 227.56 446.98 227.56 446.61 226.56 485.87 226.56" style="fill:#004ecb"/><polygon points="484.38 230.5 484.01 231.5 448.47 231.5 448.09 230.5 484.38 230.5" style="fill:#004ecb"/><polygon points="459.27 252.82 457.83 257.47 437.74 322.21 433.82 322.21 446.56 258.8 447.75 252.82 459.27 252.82" style="fill:#363638"/><polygon points="498.78 322.21 494.85 322.21 474.17 255.56 473.32 252.82 484.84 252.82 485.13 254.27 485.13 254.27 498.78 322.21" style="fill:#363638"/><rect x="440.27" y="280.71" width="51.83" height="4.1" rx="2.05" style="fill:#575759"/><ellipse cx="174.24" cy="67.93" rx="18.77" ry="18.54" style="fill:#ccd3e6"/><ellipse cx="174.24" cy="65.52" rx="18.77" ry="18.54" style="fill:#0076fa"/><ellipse cx="174.24" cy="65.52" rx="15.26" ry="15.07" style="fill:#fff"/><path d="M189.5,65.52c0,.4,0,.8-.05,1.19a15.28,15.28,0,0,0-30.43,0c0-.39,0-.79,0-1.19a15.26,15.26,0,0,1,30.52,0Z" style="fill:#ccd3e6"/><path d="M174.24,67.08a.39.39,0,0,1-.31-.15l-7.48-10a.38.38,0,0,1,.07-.53.39.39,0,0,1,.54.08l7.3,9.71,8.31-3.6a.39.39,0,0,1,.5.2.37.37,0,0,1-.2.49l-8.58,3.72A.4.4,0,0,1,174.24,67.08Z" style="fill:#363638"/></svg>