<svg xmlns="http://www.w3.org/2000/svg" xmlns:xlink="http://www.w3.org/1999/xlink" viewBox="0 0 544 362"><defs><clipPath id="a"><rect width="362" height="362" style="fill:none"/></clipPath></defs><title>Parents Satisfaction</title><g style="isolation:isolate"><rect width="544" height="362" style="fill:#f7f7f7"/><g style="clip-path:url(#a)"><path d="M234.94,220.31c-.29-4-1.38-7.66-5.6-7.33-1.13-7.49-5.12-16.61-8.91-15.08s-15.88,8-15.88,8-4.34-14.61-7.5-17.89-9.32-6.67-9.32-6.67l-7.47,6,5.06,11.49s3.71,8.74.85,17.81,3.93,17.32,3.69,18.16a12.62,12.62,0,0,0,1.45,10.82l.92,9.54c-1.06-.84-1.64-1.37-1.64-1.37s-1.29,34.42-2.23,60.85c-8.93-20.45-19.79-43.18-31-61.64-13.94-22.92-25.18-41.66-32.88-54.57l-.63-1.06-.1-.16q-1.32-2.24-2.51-4.22l-.07-.12-.47-.8-.15-.25-1.93-3.25h0c-.58-1-1.13-1.89-1.62-2.73,9.26-3.73,15.23-10.61,16.72-14-7.24-8-15.93-21.24-15.93-21.24l0,0c.06-.37.11-.75.17-1.14,1.63,1,3.43,1.67,4.69.94,2.89-1.69,5.55-8.93,2.65-11.82-1.72-1.73-4.22-.63-6,.54,2.14-16.71,4.57-38.62,4.57-38.62s11-2.35,11-15.74c0-10.48-12.31-25.34-28-17.14S75.05,99.43,75.05,99.43l-.81,27.07a5.29,5.29,0,0,0-3.29-2c-4.82-.73-9.17,5.31-8,10.62.95,4.17,6.67,6.26,10.84,5-.69,2.42-1.31,4.52-1.77,6.1l-.63.28c-.58,1.67-1.6,4-2.68,6.41l-.39.36-.11.1c-1,.93-2.37,2.12-4,3.53h0c-5,4.29-12.8,10.59-23.16,17.87l-.2.14-2,1.38-.16.11c-2.12,1.46-4.34,3-6.65,4.48-6.09,4-12.84,8.2-20.24,12.43C-13.79,208-53.72,238.54-81.57,266.9V362H235.09c-1.76-21.19-7.39-82.54-14.53-97l-.43,0-1.57-9,.12-.06c2.84.35,11,.38,12.22-2.19s.49-10.36.49-10.36a4.64,4.64,0,0,0,2-2.93c.67-2.26-1.37-10-1.37-10l2.37-1.06A47.92,47.92,0,0,0,234.94,220.31Z" style="fill:#33437c;opacity:0.30000000000000004;mix-blend-mode:multiply"/><path d="M152.82,93.21s11.05-2.35,11.05-15.74c0-10.48-12.31-25.34-28-17.14S104,92.19,104,92.19l-1,32.1,4.58,3.62Z" style="fill:#192956"/><path d="M152.82,93.21s-4.34,39.1-6.51,52.68c-3.8,4.34-46.16-4-46.16-4s8.33-27.87,9.42-35.83c3.62-.91,4.88-7.79,6.69-12.13C120.24,95.39,149,95.57,152.82,93.21Z" style="fill:#f0bf88"/><path d="M106,125.73s-1.21-7.72-6-8.44-9.17,5.31-8,10.62,10.13,7.24,13.75,3.13S106,125.73,106,125.73Z" style="fill:#f0bf88"/><path d="M146.25,133.46s5.07-5.07,8-2.17.24,10.13-2.65,11.82-8.69-4.1-8.69-4.1Z" style="fill:#f0bf88"/><path d="M99.79,143.71s-21,20.64-59,42.36S-66.73,264.62-81.57,297.2V362H239.16s-25.34-70.95-52.85-116.2-44.53-74.21-44.53-74.21Z" style="fill:#192956"/><path d="M141.78,171.59l-42-27.88S86.17,157.09,61,173.64c6.47,24.18,20.3,73.86,29.72,93.52,21-12.14,49-52.33,62.72-75.89C145.94,178.66,141.78,171.59,141.78,171.59Z" style="fill:#fff"/><path d="M146.73,143.35s8.69,13.28,15.93,21.24c-2.41,5.55-16.65,20.27-37.65,15.69S93.4,154.69,93.4,154.69s5.31-10.61,7-15.44c3.87-1.69,23.41-11.58,32.58-7.24A35.93,35.93,0,0,1,146.73,143.35Z" style="fill:#192956"/><polygon points="220.13 236.92 221.52 251.38 249.91 262.46 246.98 245.7 220.13 236.92" style="fill:#fff"/><path d="M216.37,337.27c-.19-1.07,3.18-90.68,3.18-90.68s13.26,12.33,30,11.16C258.19,275.31,264.63,362,264.63,362H216.89Z" style="fill:#192956"/><path d="M218.82,227.6c.24-.84-6.55-9.09-3.69-18.16s-.85-17.81-.85-17.81l-5.06-11.49,7.47-6s6.16,3.38,9.32,6.67,7.5,17.89,7.5,17.89,12.09-6.45,15.88-8,7.78,7.59,8.91,15.08c4.22-.33,5.31,3.32,5.6,7.33a47.92,47.92,0,0,1-.51,9.08L261,223.21s2,7.76,1.37,10a4.64,4.64,0,0,1-2,2.93s.76,7.78-.49,10.36-9.38,2.54-12.22,2.19C243,251.27,213.69,245.41,218.82,227.6Z" style="fill:#f0bf88"/><path d="M134.91,113.49s-1.45,12.31-1.27,17.55.18,8.15-1.81,8.33-3.26-7.06-2.17-12.49S134.91,113.49,134.91,113.49Z" style="fill:#fc8a63"/><path d="M133.1,99.55s-7.24-1.63-12.31,3.44" style="fill:none;stroke:#33437c;stroke-miterlimit:10;stroke-width:3px"/><path d="M140.48,102.58s7.3,1.33,10,8" style="fill:none;stroke:#33437c;stroke-miterlimit:10;stroke-width:3px"/><ellipse cx="140.15" cy="119.28" rx="1.27" ry="2.53" style="fill:#112144"/><ellipse cx="126.88" cy="114.93" rx="1.27" ry="2.53" style="fill:#112144"/><path d="M233.51,198.65a4.88,4.88,0,0,0-1.11.74l-1,.86c-.67.59-1.33,1.19-2,1.81l.12-.23c-.11,1.89-.21,3.8-.22,5.67,0,.47,0,.93.07,1.37a2.84,2.84,0,0,0,.36,1.11,5,5,0,0,0,1.71,1.77l-.41-.1c2.28-.21,4.6-.56,6.89-.94s4.58-.83,6.85-1.34,4.55-1.06,6.8-1.67,4.5-1.28,6.75-2a65.28,65.28,0,0,1-6.49,2.78c-2.21.83-4.47,1.52-6.74,2.13s-4.59,1.11-6.92,1.52a65.91,65.91,0,0,1-7.05.89l-.25,0-.17-.12a6.52,6.52,0,0,1-2.14-2.38,4.24,4.24,0,0,1-.44-1.61c0-.52,0-1,0-1.5.12-1.94.38-3.83.68-5.72l0-.16.09-.07c.73-.54,1.46-1.07,2.21-1.57.38-.25.75-.51,1.14-.74A5.13,5.13,0,0,1,233.51,198.65Z" style="fill:#d69350"/><path d="M231.05,212.35a11.5,11.5,0,0,0-2,5.16,23.88,23.88,0,0,0-.19,5.54,1.34,1.34,0,0,0,.43.83,3.4,3.4,0,0,0,1,.55,10.33,10.33,0,0,0,2.6.5,39.48,39.48,0,0,0,5.55.06c3.74-.15,7.49-.53,11.25-.86s7.52-.7,11.31-.92c-3.71.8-7.42,1.52-11.17,2.08a109.37,109.37,0,0,1-11.32,1.2,38.63,38.63,0,0,1-5.78-.15,11.67,11.67,0,0,1-2.92-.69,4.32,4.32,0,0,1-1.41-.87,2.54,2.54,0,0,1-.72-1.68,21,21,0,0,1,.64-5.74A10.73,10.73,0,0,1,231.05,212.35Z" style="fill:#d69350"/><path d="M231.7,225.49a4.07,4.07,0,0,0-2.14,4,5.27,5.27,0,0,0,1.69,4.12,9.07,9.07,0,0,0,4.24,1.81,30.8,30.8,0,0,0,4.86.46c3.3.13,6.64.1,10,.13s6.68,0,10,.13c-3.31.5-6.65.84-10,1s-6.7.3-10.07.2a29.74,29.74,0,0,1-5.1-.58,9.66,9.66,0,0,1-4.74-2.35,5.42,5.42,0,0,1-1.41-2.35,7.2,7.2,0,0,1-.21-2.64,5,5,0,0,1,.83-2.48A4.06,4.06,0,0,1,231.7,225.49Z" style="fill:#d69350"/><path d="M232.91,235.75a7.35,7.35,0,0,0-1.83,2.61,6.28,6.28,0,0,0-.17,3,4.11,4.11,0,0,0,1.4,2.42,6.61,6.61,0,0,0,2.64,1.3c2.09.61,4.22,1.14,6.34,1.73s4.25,1.18,6.35,1.89A54,54,0,0,1,241,248a60.81,60.81,0,0,1-6.5-1.43,7.84,7.84,0,0,1-3.19-1.69,5.18,5.18,0,0,1-1.6-3.31,6.39,6.39,0,0,1,.67-3.47A6.13,6.13,0,0,1,232.91,235.75Z" style="fill:#d69350"/><path d="M127.12,148.06a21.37,21.37,0,0,1-1.56,6.77,8.26,8.26,0,0,1-2.09,3.15,2.79,2.79,0,0,1-2.36.66,2.74,2.74,0,0,1-1.21-.59,4.58,4.58,0,0,1-.73-.9,10.13,10.13,0,0,1-1-3.64,25.83,25.83,0,0,1-.08-3.51,29.75,29.75,0,0,1,1.08-6.83l.48,6.8c.12,1.11.2,2.22.4,3.28a8.64,8.64,0,0,0,.86,2.88,2.09,2.09,0,0,0,.31.44.74.74,0,0,0,.3.16c.21.07.45,0,.8-.24a8,8,0,0,0,1.86-2.35C125.26,152.24,126.16,150.15,127.12,148.06Z" style="fill:#030d19"/><path d="M96.9,122.36a4.63,4.63,0,0,1,4.85,1,6.7,6.7,0,0,1,1.51,2.15c.15.4.29.81.43,1.21s.19.83.28,1.25l.12.54h-.56a2.41,2.41,0,0,0-1,.13.79.79,0,0,0-.49.6,1.86,1.86,0,0,0,.23,1,5.6,5.6,0,0,0,.61,1,4.43,4.43,0,0,1-.9-.78,2.1,2.1,0,0,1-.52-1.19,1.37,1.37,0,0,1,.71-1.26,2.77,2.77,0,0,1,1.31-.35l-.43.54c-.11-.39-.24-.76-.33-1.15s-.27-.73-.42-1.09a7.91,7.91,0,0,0-1.23-1.91,5.09,5.09,0,0,0-1.87-1.25A5.56,5.56,0,0,0,96.9,122.36Z" style="fill:#cc8246"/><path d="M100,123.1a6.79,6.79,0,0,0-1.1.62,7.54,7.54,0,0,0-1,.85,6.88,6.88,0,0,0-1.48,2.25,6.91,6.91,0,0,1,1.1-2.56,7.47,7.47,0,0,1,.91-1.11,7.22,7.22,0,0,1,1.15-.94Z" style="fill:#cc8246"/><path d="M147.7,133.94a20.49,20.49,0,0,1,0,4.76,19.48,19.48,0,0,1-1,4.65,19.87,19.87,0,0,1,0-4.75A19.46,19.46,0,0,1,147.7,133.94Z" style="fill:#cc8246"/><path d="M153.37,135.51a4.33,4.33,0,0,0-3.24.61,12.66,12.66,0,0,0-1.43.95c-.48.36-.94.74-1.49,1.09a5.67,5.67,0,0,1,.95-1.65,8.82,8.82,0,0,1,.67-.7,6.82,6.82,0,0,1,.81-.56,3.71,3.71,0,0,1,1.94-.52A2.4,2.4,0,0,1,153.37,135.51Z" style="fill:#cc8246"/><path d="M151.8,135.28a10.89,10.89,0,0,1,0,2.49,6.38,6.38,0,0,1-.7,2.32,6.14,6.14,0,0,0,.2-2.33,11.26,11.26,0,0,0-.44-2.27Z" style="fill:#cc8246"/><path d="M87.85,154.21c.44,2.8,1,5.58,1.43,8.37L90.73,171l2.85,16.74-.59-.33,20.49-8.51.45-.18.19.44,9.09,21.28-.62-.16,12.46-9.48,12.53-9.39-12.22,9.8-12.28,9.7-.4.32-.21-.47-9.26-21.2.65.26-20.54,8.38-.51.21-.08-.53L90.19,171,89,162.63C88.58,159.83,88.16,157,87.85,154.21Z" style="fill:#a5a5a5"/><polygon points="115 191.29 102.8 186.07 105.54 200.25 87.12 240.82 92.35 258.24 104.79 246.3 106.78 200.75 115 191.29" style="fill:#f75226"/><path d="M169.3,309.51c1.33,4.27,2.38,8.59,3.32,12.93.5,2.17.89,4.35,1.33,6.52l1.17,6.55q1.09,6.56,1.85,13.18c.5,4.41.91,8.83,1,13.31-1.34-4.27-2.38-8.59-3.32-12.93s-1.78-8.69-2.5-13.07l-1-6.57c-.29-2.21-.62-4.4-.84-6.61C169.81,318.41,169.41,314,169.3,309.51Z" style="fill:#0e1d3d"/><path d="M48,182.81c-.2,2.53-.49,5-.74,7.56s-.56,5-.87,7.54c-.61,5-1.29,10-2,15.05l-.49-.81q7.6,2.72,15.16,5.57,3.77,1.44,7.52,2.93c2.5,1,5,2,7.48,3.07-2.59-.74-5.15-1.58-7.73-2.36s-5.12-1.66-7.68-2.51c-5.1-1.7-10.18-3.48-15.25-5.29l-.58-.21.09-.6c.74-5,1.5-10,2.35-15,.41-2.5.85-5,1.3-7.48S47.5,185.29,48,182.81Z" style="fill:#0e1d3d"/><path d="M59.61,219c-1.34,3.72-2.73,7.43-4.1,11.14s-2.76,7.41-4.17,11.11l-.09-.48c4.6,4.76,9.24,9.47,13.81,14.25l13.72,14.34c4.59,4.76,9.1,9.61,13.64,14.41s9.1,9.61,13.58,14.47l-.94.65-7.23-15.84c-2.36-5.3-4.77-10.58-7.09-15.9,2.63,5.17,5.17,10.39,7.76,15.58l7.61,15.66,1.56,3.22-2.51-2.57c-4.62-4.73-9.16-9.54-13.75-14.31s-9.17-9.54-13.69-14.37l-13.6-14.44c-4.55-4.81-9-9.69-13.52-14.53l-.2-.21.11-.26q2.22-5.51,4.51-11C56.54,226.3,58.06,222.65,59.61,219Z" style="fill:#0e1d3d"/><path d="M159.16,201.63c0,2.37-.18,4.73-.26,7.1s-.26,4.72-.42,7.07c-.3,4.72-.69,9.43-1.11,14.14l-.06.69h-.69c-4.53-.08-9.05-.17-13.58-.35-2.26-.08-4.52-.19-6.78-.31s-4.52-.26-6.78-.45c2.26-.14,4.52-.18,6.79-.27s4.52-.11,6.79-.13c4.52-.06,9.05,0,13.58,0l-.76.68c.43-4.7.88-9.41,1.42-14.1.27-2.35.56-4.7.85-7S158.78,204,159.16,201.63Z" style="fill:#0e1d3d"/><path d="M140.7,229.87c.27,1.71.52,3.42.75,5.14l.72,5.14,1.31,10.29.06.41-.39.2c-4,2.14-8,4.27-12,6.35s-8,4.16-12,6.21-8.09,4.05-12.15,6-8.14,3.94-12.25,5.83c3.92-2.26,7.85-4.5,11.83-6.65s7.93-4.35,11.92-6.46,8-4.22,12-6.28,8-4.11,12.09-6.13l-.33.61-.86-10.34-.36-5.18C140.9,233.33,140.79,231.6,140.7,229.87Z" style="fill:#0e1d3d"/><path d="M105.58,298.65c-.51,2.68-1.12,5.34-1.68,8l-1.83,8c-1.23,5.31-2.57,10.6-3.91,15.88s-2.75,10.55-4.24,15.8l-2.23,7.86c-.8,2.61-1.55,5.23-2.4,7.83.52-2.68,1.13-5.34,1.68-8l1.84-8c1.22-5.31,2.56-10.6,3.9-15.88s2.75-10.55,4.24-15.8l2.24-7.86C104,303.87,104.74,301.25,105.58,298.65Z" style="fill:#0e1d3d"/><path d="M5.31,268.6l-8.89,23.24c-3,7.74-6,15.46-8.85,23.22-1.48,3.87-2.9,7.76-4.33,11.64l-2.13,5.84L-21,338.39c-2.72,7.82-5.42,15.65-7.76,23.61a225.09,225.09,0,0,1,6.28-24.1c2.44-7.94,5.25-15.76,8.14-23.54s6-15.47,9.28-23.1S1.65,276.06,5.31,268.6Z" style="fill:#0e1d3d"/><circle cx="91.83" cy="309.87" r="3.98" style="fill:#0e1d3d"/><path d="M155.9,65.88c4.07,2.25,6,8.37,4.83,12.73-.61-1.47-.85-4.21-2.38-4.73,0,1,0,2.07-.08,3.09a15,15,0,0,0-2.09-2.56,8.18,8.18,0,0,1-.33,3,7.71,7.71,0,0,0-3.77-2.34,2.89,2.89,0,0,1-1,2.09c-1-2-2.29-1-3.89-.72a5.43,5.43,0,0,0,.49-3.09c.28.4,1.09,1,1.41,1.46,1-1,1-2.43,1-3.86,1,.44,1.78,1.72,2.57,2.64.12-1.59,0-3.23.08-4.82.93.55,1.42,1.63,2.09,2.39.38-1.62-.48-2.79-1.15-4.09,1,.53,1.57,1.59,2.41,2.32.22-1.64-1-2.69-.93-4.23C156.23,65.67,157.38,66.94,155.9,65.88Z" style="fill:#33437c"/><path d="M135.87,60.33C120.18,68.54,104,92.19,104,92.19l-.81,27.07a5.29,5.29,0,0,0-3.29-2c-4.82-.73-9.17,5.31-8,10.62,1,4.17,6.67,6.26,10.84,5-.69,2.42-1.31,4.52-1.77,6.1l-.63.28c-.58,1.67-1.6,4-2.68,6.41l-.39.36-.11.1c-1,.93-2.37,2.12-4,3.53h0c-5,4.29-12.8,10.59-23.16,17.87l-.2.14-2,1.38-.16.11c-2.12,1.46-4.34,3-6.65,4.48-6.09,4-12.84,8.2-20.24,12.43C2.78,207.79-66.73,264.62-81.57,297.2V362H-3.11c1.68-4.9,3.41-9.77,5.36-14.56,12.77-31.34,28-61.77,43.18-92,15-29.89,30.38-59.57,45.15-89.57a7.65,7.65,0,0,1,2.25-2.69A8.49,8.49,0,0,1,96,160.53c3.38-6.53,7-12.93,10.48-19.48,6.16-11.53,10.27-23.56,14-36.05,2.78-9.29,5.55-18.64,10.12-27.23,3.57-6.7,8.08-14,14.59-18.18a17.33,17.33,0,0,1,2.57-1.38A18.42,18.42,0,0,0,135.87,60.33Z" style="fill:#33437c;opacity:0.30000000000000004;mix-blend-mode:multiply"/><circle cx="81.33" cy="347.04" r="3.98" style="fill:#0e1d3d"/></g><polygon points="277.26 97.58 241.76 97.58 254.67 84.77 241.76 69.82 277.26 69.82 277.26 97.58" style="fill:#192956"/><polygon points="480.63 69.82 516.13 69.82 503.22 82.64 516.13 97.58 480.63 97.58 480.63 69.82" style="fill:#192956"/><rect x="262.81" y="52.88" width="232.65" height="33.88" style="fill:#33437c"/><polygon points="294.1 77.09 286.99 80.83 288.35 72.91 282.6 67.3 290.55 66.14 294.1 58.94 297.66 66.14 305.61 67.3 299.86 72.91 301.22 80.83 294.1 77.09" style="fill:#f5d625"/><polygon points="336.49 77.09 329.38 80.83 330.73 72.91 324.98 67.3 332.93 66.14 336.49 58.94 340.05 66.14 348 67.3 342.24 72.91 343.6 80.83 336.49 77.09" style="fill:#f5d625"/><polygon points="378.87 77.09 371.76 80.83 373.12 72.91 367.36 67.3 375.32 66.14 378.87 58.94 382.43 66.14 390.38 67.3 384.63 72.91 385.99 80.83 378.87 77.09" style="fill:#f5d625"/><polygon points="421.26 77.09 414.14 80.83 415.5 72.91 409.75 67.3 417.7 66.14 421.26 58.94 424.81 66.14 432.76 67.3 427.01 72.91 428.37 80.83 421.26 77.09" style="fill:#f5d625"/><polygon points="463.64 77.09 456.53 80.83 457.89 72.91 452.13 67.3 460.08 66.14 463.64 58.94 467.2 66.14 475.15 67.3 469.39 72.91 470.75 80.83 463.64 77.09" style="fill:#f5d625"/><text transform="translate(269.15 141.97)" style="font-size:40.049991607666016px;fill:#192956;font-family:AauxProBlackSC, Aaux ProBlack SC">s<tspan x="19.86" y="0" style="letter-spacing:-0.059983626801563786em">a</tspan><tspan x="38.93" y="0" style="letter-spacing:-0.000024383588130716986em">tis</tspan><tspan x="88.63" y="0" style="letter-spacing:-0.03998908453437586em">f</tspan><tspan x="106.05" y="0" style="letter-spacing:-0.01999454226718793em">a</tspan><tspan x="126.72" y="0">ction</tspan></text><text transform="translate(285.49 181.97)" style="font-size:40.049991607666016px;fill:#192956;font-family:AauxProBlackSC, Aaux ProBlack SC">guranteed</text></g></svg>