<svg xmlns="http://www.w3.org/2000/svg" viewBox="0 0 544 362"><title>batch-booking</title><path d="M86.7,61.69C158,35.23,230.47,58.63,279.61,109.6s152.3-35.18,207,15.7c37.33,34.73,20.23,124-31,162.69-69.57,52.56-281.17,25.89-326.94,16.94C76,294.63,37.43,263.36,21.76,225.41-16,134,55.19,73.39,86.7,61.69Z" style="fill:#e7f3fe"/><path d="M330.41,98.47a59.45,59.45,0,0,0,.36-6.57c0-1.18,0-2.34-.1-3.5l-10.86-3.51a47.5,47.5,0,0,0-3.85-13l7.2-8.86a58.29,58.29,0,0,0-5.7-8.29L306.6,58.27A48.38,48.38,0,0,0,295.85,50l.62-11.41A57.94,57.94,0,0,0,287,35.24l-6.71,9.25a48.24,48.24,0,0,0-13.56-.35l-6.21-9.6a58.84,58.84,0,0,0-9.64,2.85V48.82a48.21,48.21,0,0,0-11.17,7.68l-10.66-4.11a59.31,59.31,0,0,0-6.13,8l6.72,9.23a47.82,47.82,0,0,0-4.53,12.79l-11,2.93a59.49,59.49,0,0,0-.37,6.58c0,1.17,0,2.33.11,3.49l10.86,3.51a47.84,47.84,0,0,0,3.84,13l-7.2,8.86a59.39,59.39,0,0,0,5.7,8.29l10.87-3.54a48.16,48.16,0,0,0,10.75,8.26L248,145.19a57.94,57.94,0,0,0,9.48,3.36l6.71-9.25a48.17,48.17,0,0,0,13.55.35l6.21,9.6a58,58,0,0,0,9.65-2.85l0-11.43a48.18,48.18,0,0,0,11.18-7.68l10.65,4.11a58.76,58.76,0,0,0,6.14-8l-6.73-9.23a47.49,47.49,0,0,0,4.54-12.79Zm-58.17,16.38a23,23,0,1,1,23-22.95A22.95,22.95,0,0,1,272.24,114.85Z" style="fill:#9ec8ff"/><path d="M303.55,118.08a.86.86,0,0,1-.54-.2.85.85,0,0,1-.11-1.21,38.88,38.88,0,0,0,6.84-37.41.86.86,0,0,1,1.62-.56,40.54,40.54,0,0,1-7.15,39.07A.86.86,0,0,1,303.55,118.08Z" style="fill:#fff"/><path d="M300.23,63.89a.85.85,0,0,1-.59-.23,38.38,38.38,0,0,0-13.35-8.22.87.87,0,0,1-.51-1.1.86.86,0,0,1,1.1-.52,40.35,40.35,0,0,1,13.94,8.59.86.86,0,0,1-.59,1.48Z" style="fill:#fff"/><path d="M263.34,54.33a.86.86,0,0,1-.21-1.69,40.4,40.4,0,0,1,9.94-1.23.86.86,0,1,1,0,1.71,39,39,0,0,0-9.52,1.18A.76.76,0,0,1,263.34,54.33Z" style="fill:#fff"/><path d="M145.89,243.83a40.28,40.28,0,0,0,.26-4.55c0-.82,0-1.62-.08-2.42l-7.52-2.43a33,33,0,0,0-2.66-9l5-6.13a40.4,40.4,0,0,0-4-5.75L129.4,216a33.78,33.78,0,0,0-7.44-5.73l.42-7.9a40.85,40.85,0,0,0-6.56-2.33l-4.65,6.41a34,34,0,0,0-5.57-.46,32.25,32.25,0,0,0-3.82.22l-4.3-6.65a40.48,40.48,0,0,0-6.68,2v7.92a33.38,33.38,0,0,0-7.74,5.32l-7.38-2.84a40.71,40.71,0,0,0-4.25,5.52l4.66,6.39A33.24,33.24,0,0,0,73,232.69l-7.64,2a40.15,40.15,0,0,0-.26,4.55c0,.81,0,1.62.08,2.42l7.52,2.43a32.93,32.93,0,0,0,2.66,9l-5,6.14a41.42,41.42,0,0,0,4,5.74l7.53-2.45a33.44,33.44,0,0,0,7.44,5.72l-.42,7.9a39.91,39.91,0,0,0,6.56,2.33l4.65-6.41a32.94,32.94,0,0,0,5.56.47,34.56,34.56,0,0,0,3.83-.22l4.3,6.64a39.53,39.53,0,0,0,6.68-2v-7.92a33.07,33.07,0,0,0,7.74-5.32l7.38,2.85a40.8,40.8,0,0,0,4.25-5.53l-4.66-6.39a33.12,33.12,0,0,0,3.14-8.86ZM105.6,255.18a15.9,15.9,0,1,1,15.91-15.9A15.9,15.9,0,0,1,105.6,255.18Z" style="fill:#9ec8ff"/><path d="M127.29,257.68a.89.89,0,0,1-.55-.2.87.87,0,0,1-.11-1.21,26.65,26.65,0,0,0,4.7-25.66.85.85,0,0,1,.53-1.09.87.87,0,0,1,1.09.53,28.33,28.33,0,0,1-5,27.32A.86.86,0,0,1,127.29,257.68Z" style="fill:#fff"/><path d="M125,220.15a.86.86,0,0,1-.59-.24,26.54,26.54,0,0,0-9.15-5.64.86.86,0,1,1,.58-1.61,28.2,28.2,0,0,1,9.75,6,.86.86,0,0,1-.59,1.49Z" style="fill:#fff"/><path d="M99.44,213.52a.86.86,0,0,1-.21-1.69,28.39,28.39,0,0,1,7-.86.86.86,0,0,1,0,1.71,27,27,0,0,0-6.53.81Z" style="fill:#fff"/><path d="M365.46,142.19c0-.45,0-.89,0-1.32l5.64-4.53a30.68,30.68,0,0,0-2.05-6.47l-7.28-.55a24.19,24.19,0,0,0-6.3-6.69l0-7.25a30.66,30.66,0,0,0-6.45-2.49l-5,5.36a22.34,22.34,0,0,0-2.61-.14A24,24,0,0,0,335,119l-5.7-4.52a30.12,30.12,0,0,0-6,3.5l1.08,7.19a23.92,23.92,0,0,0-5.08,7.41l-7.1,1.65a30.22,30.22,0,0,0-1,6.83l6.25,3.62a23.9,23.9,0,0,0,2.68,8.83L317,160a30.65,30.65,0,0,0,4.59,5l6.7-2.62a24.14,24.14,0,0,0,8.84,3.5l3.16,6.5c.37,0,.75,0,1.13,0a30.69,30.69,0,0,0,5.54-.51l2.13-6.89a24.08,24.08,0,0,0,8.31-4.82l7.05,1.58a30.82,30.82,0,0,0,3.75-5.54l-4.08-6A24.13,24.13,0,0,0,365.46,142.19ZM341.11,152.8a10.15,10.15,0,1,1,10.14-10.14A10.14,10.14,0,0,1,341.11,152.8Z" style="fill:#9ec8ff"/><g style="opacity:0.8"><path d="M459.22,83.75h-8.71a6.11,6.11,0,0,1-6.11-6.1V68.93a6.12,6.12,0,0,1,6.11-6.11h8.71a6.12,6.12,0,0,1,6.11,6.11v8.72A6.11,6.11,0,0,1,459.22,83.75Zm-8.71-18.52a3.71,3.71,0,0,0-3.71,3.7v8.72a3.71,3.71,0,0,0,3.71,3.7h8.71a3.71,3.71,0,0,0,3.71-3.7V68.93a3.71,3.71,0,0,0-3.71-3.7Z" style="fill:#9ec8ff"/></g><g style="opacity:0.8"><path d="M418.2,83.75h-8.72a6.11,6.11,0,0,1-6.1-6.1V68.93a6.11,6.11,0,0,1,6.1-6.11h8.72a6.12,6.12,0,0,1,6.11,6.11v8.72A6.11,6.11,0,0,1,418.2,83.75Zm-8.72-18.52a3.7,3.7,0,0,0-3.7,3.7v8.72a3.7,3.7,0,0,0,3.7,3.7h8.72a3.7,3.7,0,0,0,3.7-3.7V68.93a3.7,3.7,0,0,0-3.7-3.7Z" style="fill:#9ec8ff"/></g><path d="M414.39,78.68h-.05a1,1,0,0,1-.77-.4L407.3,70.1a1,1,0,0,1,1.64-1.25l5.52,7.2L428.89,60.6A1,1,0,0,1,430.4,62L415.14,78.35A1,1,0,0,1,414.39,78.68Z" style="fill:#f37168"/><path d="M488,308.89c-35.69-1.74-157.1,1.22-194,2.37s-79.79-1.52-102-5.45-151,.33-145.12,10.9,57.34,4.73,115.74,9,189.75-.53,219.38,0,56.8-1.06,95-3.18S508.73,309.91,488,308.89Z" style="fill:#cce2ff"/><rect x="48.63" y="87.92" width="74.61" height="122.29" style="fill:#99bbeb"/><rect x="52.54" y="90.41" width="68.25" height="115.13" style="fill:#fff"/><path d="M73,136.58c2.57-5.53,6.92-7.3,14.06-7.3,8.5,0,12.91,3.08,14.16,7.56C86,137.05,73,136.58,73,136.58Z" style="fill:#9bd6e8"/><path d="M84,102.41c-3.6,1-3.44,3-4.64,4.9s-3.81,3.13-4.12,4.38.8,3.86-.52,5.32-1.77,2.19-1.25,3.65,1.67,3.75,1.77,4.07,1.56,2.5,3.34,2.81a37.18,37.18,0,0,1,6.77,1.57c1.67.73,7-.94,10-.83s5-2.09,4.8-3.55,2.2-4.38,2.19-6.89c0-2.68-3.13-4.69-4-6.46s.1-4.9-3-6.75c-2-1.17-3.33-1.07-4.9-1.59S86.33,101.76,84,102.41Z" style="fill:#3a384d"/><path d="M88.42,133.69c-.82,1.2-1.41,1.25-2.3,0-.7-1-2.08-3.25-2.08-4.4V117.84a2.09,2.09,0,0,1,2.08-2.08h2.3a2.09,2.09,0,0,1,2.08,2.08v11.45C90.5,130.44,89.15,132.62,88.42,133.69Z" style="fill:#f09959"/><path d="M88.42,115.76h-2.3A2.09,2.09,0,0,0,84,117.84v10.22c2.57.82,4.92-.81,6.46-2.65v-7.57A2.09,2.09,0,0,0,88.42,115.76Z" style="fill:#e38540"/><ellipse cx="87.27" cy="115.88" rx="6.93" ry="9.45" style="fill:#f09959"/><path d="M90.5,108.36c-4.38,7.4-10.84,6.67-10.84,6.67s.16-9.8,5.29-10.32,8.16,1.54,9.2,4.94a8.33,8.33,0,0,1,0,5.64,8.93,8.93,0,0,1-2.5-3.39A25.13,25.13,0,0,1,90.5,108.36Z" style="fill:#3a384d"/><ellipse cx="79.4" cy="116.51" rx="1.82" ry="2.74" transform="translate(-42.31 45.33) rotate(-25.41)" style="fill:#f09959"/><path d="M93.18,115.73c-.65,1.37-.43,2.82.48,3.25s2.17-.32,2.82-1.68.43-2.83-.48-3.26S93.83,114.36,93.18,115.73Z" style="fill:#f09959"/><path d="M89.88,121a4,4,0,0,1-2.61,1.51A4,4,0,0,1,84.66,121Z" style="fill:#fff"/><path d="M95.52,151.57H78a2,2,0,0,1,0-4.08H95.52a2,2,0,1,1,0,4.08Z" style="fill:#99bbeb"/><path d="M98.73,157.82H74.81a2,2,0,1,1,0-4.07H98.73a2,2,0,1,1,0,4.07Z" style="fill:#99bbeb"/><path d="M115.86,180.32H57.68a1.18,1.18,0,1,1,0-2.36h58.18a1.18,1.18,0,1,1,0,2.36Z" style="fill:#99bbeb"/><path d="M115.86,185.81H57.68a1.18,1.18,0,1,1,0-2.36h58.18a1.18,1.18,0,1,1,0,2.36Z" style="fill:#99bbeb"/><path d="M115.86,191.3H57.68a1.18,1.18,0,1,1,0-2.36h58.18a1.18,1.18,0,1,1,0,2.36Z" style="fill:#99bbeb"/><path d="M107.73,137.94H65.81a2.12,2.12,0,0,1-2.11-2.11V97.2a2.12,2.12,0,0,1,2.11-2.11h41.92a2.12,2.12,0,0,1,2.11,2.11v38.63A2.12,2.12,0,0,1,107.73,137.94ZM65.81,96.81a.4.4,0,0,0-.39.39v38.63a.4.4,0,0,0,.39.39h41.92a.4.4,0,0,0,.39-.39V97.2a.4.4,0,0,0-.39-.39Z" style="fill:#99bbeb"/><polygon points="71.86 163.13 73.08 165.59 75.79 165.99 73.83 167.9 74.29 170.6 71.86 169.32 69.44 170.6 69.9 167.9 67.94 165.99 70.65 165.59 71.86 163.13" style="fill:#99bbeb"/><polygon points="81.8 163.13 83.01 165.59 85.73 165.99 83.76 167.9 84.23 170.6 81.8 169.32 79.37 170.6 79.84 167.9 77.87 165.99 80.59 165.59 81.8 163.13" style="fill:#99bbeb"/><polygon points="91.74 163.13 92.95 165.59 95.67 165.99 93.7 167.9 94.17 170.6 91.74 169.32 89.31 170.6 89.78 167.9 87.81 165.99 90.53 165.59 91.74 163.13" style="fill:#99bbeb"/><polygon points="101.68 163.13 102.89 165.59 105.61 165.99 103.64 167.9 104.11 170.6 101.68 169.32 99.25 170.6 99.71 167.9 97.75 165.99 100.46 165.59 101.68 163.13" style="fill:#99bbeb"/><rect x="214.96" y="87.92" width="74.61" height="122.29" style="fill:#99bbeb"/><rect x="218.87" y="90.41" width="68.25" height="115.13" style="fill:#fff"/><path d="M242.52,115.25c0,5.48,3.3,14.32,11.08,14s9.5-8.7,9.8-11.08S242.52,115.25,242.52,115.25Z" style="fill:#7a4e34"/><path d="M239.28,136.58c2.57-5.53,6.92-7.3,14.06-7.3,8.5,0,12.91,3.08,14.16,7.56C252.28,137.05,239.28,136.58,239.28,136.58Z" style="fill:#d54a41"/><path d="M254.75,133.69c-.82,1.2-1.41,1.25-2.3,0-.7-1-2.08-3.25-2.08-4.4V117.84a2.09,2.09,0,0,1,2.08-2.08h2.3a2.09,2.09,0,0,1,2.08,2.08v11.45C256.83,130.44,255.48,132.62,254.75,133.69Z" style="fill:#f09959"/><path d="M254.75,115.76h-2.3a2.09,2.09,0,0,0-2.08,2.08v10.22c2.57.82,4.92-.81,6.46-2.65v-7.57A2.09,2.09,0,0,0,254.75,115.76Z" style="fill:#e38540"/><ellipse cx="253.6" cy="115.88" rx="6.93" ry="9.45" style="fill:#f09959"/><path d="M257.41,108.69c-.82,2.91-2.63,2.88-5.15,3.83s-3.72,1.91-4.54,3.77c-1.05,2.37.48,9.28.48,9.28s-6.38-4.77-5.64-12.27,5.16-10.41,9.32-10.41,5.75,2.54,5.75,2.54a6.22,6.22,0,0,1,4.31,2.49c2.82,3.34,1.95,11.45,0,14.36s-3.25,3.81-3.21,3.68,1.82-6.8.87-10.92A26.24,26.24,0,0,0,257.41,108.69Z" style="fill:#7a4e34"/><path d="M256.21,121a3,3,0,0,1-5.22,0Z" style="fill:#fff"/><path d="M261.85,151.57H244.34a2,2,0,0,1,0-4.08h17.51a2,2,0,0,1,0,4.08Z" style="fill:#99bbeb"/><path d="M265.06,157.82H241.14a2,2,0,1,1,0-4.07h23.92a2,2,0,0,1,0,4.07Z" style="fill:#99bbeb"/><path d="M282.19,180.32H224a1.18,1.18,0,0,1,0-2.36h58.19a1.18,1.18,0,1,1,0,2.36Z" style="fill:#99bbeb"/><path d="M282.19,185.81H224a1.18,1.18,0,0,1,0-2.36h58.19a1.18,1.18,0,0,1,0,2.36Z" style="fill:#99bbeb"/><path d="M282.19,191.3H224a1.18,1.18,0,0,1,0-2.36h58.19a1.18,1.18,0,0,1,0,2.36Z" style="fill:#99bbeb"/><path d="M274.05,137.94H232.14a2.12,2.12,0,0,1-2.11-2.11V97.2a2.12,2.12,0,0,1,2.11-2.11h41.91a2.11,2.11,0,0,1,2.11,2.11v38.63A2.11,2.11,0,0,1,274.05,137.94ZM232.14,96.81a.4.4,0,0,0-.39.39v38.63a.4.4,0,0,0,.39.39h41.91a.4.4,0,0,0,.4-.39V97.2a.4.4,0,0,0-.4-.39Z" style="fill:#99bbeb"/><polygon points="238.19 163.13 239.4 165.59 242.12 165.99 240.15 167.9 240.62 170.6 238.19 169.32 235.76 170.6 236.23 167.9 234.26 165.99 236.98 165.59 238.19 163.13" style="fill:#99bbeb"/><polygon points="248.13 163.13 249.34 165.59 252.06 165.99 250.09 167.9 250.56 170.6 248.13 169.32 245.7 170.6 246.16 167.9 244.2 165.99 246.91 165.59 248.13 163.13" style="fill:#99bbeb"/><polygon points="258.07 163.13 259.28 165.59 261.99 165.99 260.03 167.9 260.49 170.6 258.07 169.32 255.64 170.6 256.1 167.9 254.14 165.99 256.85 165.59 258.07 163.13" style="fill:#99bbeb"/><polygon points="268.01 163.13 269.22 165.59 271.93 165.99 269.97 167.9 270.43 170.6 268.01 169.32 265.58 170.6 266.04 167.9 264.08 165.99 266.79 165.59 268.01 163.13" style="fill:#99bbeb"/><polygon points="223.35 208.98 105.61 208.98 113.93 88.37 227.59 88.37 223.35 208.98" style="fill:#99bbeb;opacity:0.2"/><rect x="117.97" y="65.55" width="101.9" height="167.02" style="fill:#99bbeb"/><rect x="123.31" y="68.95" width="93.22" height="157.25" style="fill:#fff"/><path d="M161.23,102c-.07-.19-1.7-9.56-1.89-13.2s5.85-4.17,5.85-4.17,4.95-2.66,8.52-1.3a14.42,14.42,0,0,1,7.64,6.53c1.63,2.86-1.43,11.78-1.43,11.78Z" style="fill:#2e2d3d"/><path d="M150,132.08c0-.16.42-3.84.44-4,.82-7.76,10.39-10,19.94-10,11.22,0,18.83,2.06,20,10.12,0,.24.68,3.93.65,4.18C170.29,132.73,150,132.08,150,132.08Z" style="fill:#d5e1e8"/><path d="M172.31,124.17c-1.11,1.64-1.92,1.71-3.13,0-1-1.36-4.16-4.46-4.16-6l1.31-15.62a2.87,2.87,0,0,1,2.85-2.85h3.13a2.86,2.86,0,0,1,2.85,2.85l.61,15.62C175.77,119.71,173.31,122.7,172.31,124.17Z" style="fill:#f09959"/><path d="M172.31,99.67h-3.13a2.87,2.87,0,0,0-2.85,2.85l-1.14,13.86c3.52,1.12,8.27-1.16,10.37-3.66l-.4-10.2A2.86,2.86,0,0,0,172.31,99.67Z" style="fill:#e38540"/><path d="M160,119.28l5,9.29s2.69-2.22,2.95-1.78-.48,5.9-.48,5.9,6,.09,6.25-.17-1.22-6-.61-6,2.43,1.65,2.43,1.65l5.61-8.94-1.23-.3-9.19,5-9.83-4.84Z" style="fill:#bdccd4"/><polygon points="165.74 123.56 169.47 126.06 168.31 132.71 173.34 132.43 172.09 126.38 175.18 123.56 173.73 122.19 167.19 122.19 165.74 123.56" style="fill:#d54a41"/><path d="M165.28,114.73l-4.61,4.39s4.7,8.36,5,8.36,4-4.61,4-4.61l2.39,0,3.77,4,4.39-7.75-4.47-4.74s-3.82,7.37-4.51,7.54-.7.26-1.26-.17S165.28,114.73,165.28,114.73Z" style="fill:#d5e1e8"/><ellipse cx="170.75" cy="99.83" rx="9.47" ry="12.9" style="fill:#f09959"/><path d="M162.25,99.63c.88,1.87.59,3.86-.65,4.45s-3-.44-3.86-2.31-.59-3.85.65-4.44S161.36,97.77,162.25,99.63Z" style="fill:#f09959"/><path d="M178.82,99.63c-.88,1.87-.59,3.86.65,4.45s3-.44,3.85-2.31.6-3.85-.64-4.44S179.71,97.77,178.82,99.63Z" style="fill:#f09959"/><path d="M175,105.13s-1.88,3-4.2,3-4.2-3-4.2-3Z" style="fill:#fff"/><path d="M165.19,91.05c3.91-2.73,5.66-2.27,8.59,2.22s6.44,4.56,6.44,4.56l.45-4.65s-4.36-8.44-10.21-7.33-9.18,6.37-9.18,6.37-.29,9.88.53,10.22.91-3.19,1.5-3.91-.59-4.09.19-5.65S165.19,91.05,165.19,91.05Z" style="fill:#2e2d3d"/><path d="M177.75,96.13c1.36,1.49.84,7.41,1.56,7.35s1-5.66.78-6.25S177.75,96.13,177.75,96.13Z" style="fill:#2e2d3d"/><path d="M191.81,152.48h-43.5a2.78,2.78,0,0,1,0-5.56h43.5a2.78,2.78,0,0,1,0,5.56Z" style="fill:#99bbeb"/><path d="M186.4,161H153.73a2.79,2.79,0,0,1,0-5.57H186.4a2.79,2.79,0,0,1,0,5.57Z" style="fill:#99bbeb"/><path d="M209.8,191.75H130.32a1.61,1.61,0,1,1,0-3.22H209.8a1.61,1.61,0,1,1,0,3.22Z" style="fill:#99bbeb"/><path d="M209.8,199.25H130.32a1.61,1.61,0,1,1,0-3.22H209.8a1.61,1.61,0,1,1,0,3.22Z" style="fill:#99bbeb"/><path d="M209.8,206.75H130.32a1.61,1.61,0,1,1,0-3.22H209.8a1.61,1.61,0,1,1,0,3.22Z" style="fill:#99bbeb"/><path d="M198.69,133.55H141.44a2.57,2.57,0,0,1-2.57-2.56V78.23a2.58,2.58,0,0,1,2.57-2.57h57.25a2.57,2.57,0,0,1,2.56,2.57V131A2.56,2.56,0,0,1,198.69,133.55ZM141.44,77.37a.86.86,0,0,0-.85.86V131a.86.86,0,0,0,.85.85h57.25a.86.86,0,0,0,.85-.85V78.23a.86.86,0,0,0-.85-.86Z" style="fill:#99bbeb"/><polygon points="142.81 168.28 144.46 171.64 148.17 172.18 145.49 174.79 146.12 178.48 142.81 176.74 139.49 178.48 140.12 174.79 137.44 172.18 141.15 171.64 142.81 168.28" style="fill:#99bbeb"/><polygon points="156.38 168.28 158.04 171.64 161.74 172.18 159.06 174.79 159.7 178.48 156.38 176.74 153.07 178.48 153.7 174.79 151.02 172.18 154.72 171.64 156.38 168.28" style="fill:#99bbeb"/><polygon points="169.96 168.28 171.61 171.64 175.32 172.18 172.64 174.79 173.27 178.48 169.96 176.74 166.64 178.48 167.27 174.79 164.59 172.18 168.3 171.64 169.96 168.28" style="fill:#99bbeb"/><polygon points="183.53 168.28 185.19 171.64 188.89 172.18 186.21 174.79 186.84 178.48 183.53 176.74 180.22 178.48 180.85 174.79 178.17 172.18 181.87 171.64 183.53 168.28" style="fill:#99bbeb"/><polygon points="197.32 168.28 198.98 171.64 202.68 172.18 200 174.79 200.64 178.48 197.32 176.74 194.01 178.48 194.64 174.79 191.96 172.18 195.66 171.64 197.32 168.28" style="fill:#99bbeb"/><rect x="251.35" y="222.22" width="133.61" height="4.98" rx="2.49" style="fill:#2e5b9a"/><path d="M417.2,155.5c1.77,6.25-2.55,12.68-7.32,14s-8.17-2.9-9.94-9.14.66-12.41,5.42-13.76S415.43,149.25,417.2,155.5Z" style="fill:#f09959"/><path d="M390.48,276.54s12.21,19,13.86,19.8,5.78,1,4.23,4.12-2.17,15.26-3.61,15.88-13.82,2.07-12,0,3-1,3.93-4.74,2.26-10.73.5-12.17S385,285,385,285Z" style="fill:#f09959"/><path d="M329,284.69s-14.85,24.47-17.6,26.67-11.83,5.5-4.4,6.05,11-2.47,15.67-3.85,10.45-2.2,8.25-5.77-1.28-11.38,3.46-16.33S329,284.69,329,284.69Z" style="fill:#f09959"/><path d="M404.77,227.93s-36.76-1-51.34,11c-8.52,12.93-29.15,51.06-30.75,55.27,1.1,1.1,7.29,3.08,10,2.81,8.11-9.68,18.84-18,23.1-25.63,5.26-9.35,6.88-14,15.4-14.85S399,253,404.77,253,404.77,227.93,404.77,227.93Z" style="fill:#6791c9"/><polygon points="436.83 317.48 434.9 317.48 421.08 259.82 425.32 259.82 436.83 317.48" style="fill:#2e5b9a"/><polygon points="379.11 317.48 381.03 317.48 396.89 257.79 392.65 257.79 379.11 317.48" style="fill:#2e5b9a"/><path d="M425.72,225.41l-21.38,3.69s-28.4.26-41.38,2.68c-11.82,2.2-13.56,15.62,0,34.1,7.7,10.5,14.2,18.87,27.52,28.32,3.38-2.49,4.68-3.43,5.61-9.41-1-1.32-3.45-9.59-4.23-11.21-7.36-15.39-17.19-21-17.32-22.5,1.65-2.68,43.7,14,52.06,4.18C434.59,245.9,425.72,225.41,425.72,225.41Z" style="fill:#75a1de"/><path d="M426.6,177a22.32,22.32,0,0,0-16.72,4.17c-4.69,4.77-10,12.65-9.66,25.64.41,16.5-2.56,17.56.54,22.1,12.9,5.32,35,28.22,29.77,3.67-3.76-17.77,8.26-31-1.44-50.73C428.3,180.27,427.32,178.71,426.6,177Z" style="fill:#f37168"/><path d="M400.21,213c-.25,8.6-1.46,11.13-.53,13.83,5.26.54,14.88,2.64,17.28,6,2.75,3.85,5.5,4.4,4.22,1.56s-4.67-6.88.55-20.72,7.7-23.19,2.57-32.82Z" style="fill:#d54a41"/><path d="M426.6,177a67.18,67.18,0,0,1-4.31-17.42l-9.08,2.68s5.16,11.55.21,15.67a45.68,45.68,0,0,0-3.54,3.24A22.32,22.32,0,0,1,426.6,177Z" style="fill:#f09959"/><path d="M422.56,161.78l-1.92-1.7-7.4,2.19,0,0a30.19,30.19,0,0,1,2.32,9,26.2,26.2,0,0,0,7.38-7.33C422.77,163.17,422.65,162.42,422.56,161.78Z" style="fill:#e38540"/><path d="M420.22,179.6c-9.34,3.27-8.31,13.12-16.91,27.64-4.45,7.52-8.59,7.41-8.59,7.41a198.81,198.81,0,0,1-23.06-1.47c-7.91-1-8.41,1.39-2.91,3.36,11.09,4,22.6,8.23,31.88,7.2s25.16-24.71,26-30.87C427.74,184.34,424.93,178,420.22,179.6Z" style="fill:#f09959"/><path d="M415.41,262.23l-1.79,0a89.7,89.7,0,0,1-17-2.09c-4.86-1-7.54-1.54-10.66-.05a2.4,2.4,0,0,1-2.07-4.33c4.57-2.19,8.4-1.41,13.69-.33a84.88,84.88,0,0,0,16.13,2c8.05.2,13-1,15.45-3.75,2.22-2.46,2.87-6.59,2-13-.28-2.2-.56-4-.81-5.63-.7-4.54-1.17-7.54-.59-12.18.53-4.31,2-10.05,5.26-21.17A2.4,2.4,0,0,1,439.7,203c-6.16,20.74-5.85,22.76-4.53,31.25.25,1.64.54,3.5.83,5.76,1,7.9,0,13.25-3.24,16.83S424.05,262.23,415.41,262.23Z" style="fill:#2e5b9a"/><path d="M330,305.32c-9.86,4.81-15.16,7.58-18.32,7.31-.75-.06-1.36-.14-1.88-.22-3.52,2.08-9.12,4.54-2.81,5,7.42.55,11-2.47,15.67-3.85s10.45-2.2,8.25-5.77A7.46,7.46,0,0,1,330,305.32Z" style="fill:#d54a41"/><path d="M405.42,296.74c-.24,7.8-1.32,15.53-6.09,17a7.92,7.92,0,0,1-3.44.31c-.75.93-1.66.94-2.89,2.3-1.86,2.07,10.52.62,12,0s2.06-12.78,3.61-15.88C409.84,297.92,407.28,297.33,405.42,296.74Z" style="fill:#d54a41"/><path d="M367.46,222.91h-31.3a2.41,2.41,0,0,1-2.18-1.39l-12.65-27.23a2.4,2.4,0,1,1,4.36-2l12,25.83h29.77a2.41,2.41,0,0,1,0,4.81Z" style="fill:#75a1de"/><path d="M374,213.46c-6.32-.09-12.6-3.86-15.72-3.31s-13.29,7.6-12,7.88,9.35-3.91,9.62-4,2,2.89,6.33,4,0-3.23,13.38.81C384.31,221.47,374,213.46,374,213.46Z" style="fill:#f09959"/><path d="M425.67,169.54l.93,7.48s-8.18.49-12.25,2.78-10.09,8.92-10.09,8.92l4.91-8.46.71-5.41Z" style="fill:#f2e5de"/><path d="M422.19,178.7c-6.08-1.14-8.89,4.31-12.83,13.2s-10.68,19.69-12,21.09-22.55,0-22.55,0-.65,6.14,0,6.87,4.3.64,4.3.64,1.47,1.18,2.85,2.1,13,2.67,18.42,2.4,10.36-.74,11.09-1.56,15.5-23.56,16.41-31.72S425.29,179.28,422.19,178.7Z" style="fill:#f2e5de"/><path d="M404.26,141.3c-11.5.55-9.69,17.85-9.69,17.85s3,.92,9.24-.11a34.73,34.73,0,0,1-.28-6.6,43.76,43.76,0,0,0,1.65,6.19c1.33.6,2.82.07,5.37-.55a11.29,11.29,0,0,0,7.52,8.61c2.8.88,5.75,1.93,9.05.28s1.49-18.52-.27-21.91c-2.63-5.09-7-9.65-14.56-7.24A55.76,55.76,0,0,0,404.26,141.3Z" style="fill:#303c60"/><path d="M424.26,161.84l4.7,6.87s-5.21,13,9.94,18.91c11.87,4.62,10.47,12.76,5.11,20.95s3.21,15.33,3.21,15.33,1.3-9.07,12.83-10.78c15.72-2.33,20.18-23.44,8.43-34-9.71-8.74-12.67-1.51-19.25-9.34s-19-2.55-19-2.55l-4.55-6.63Z" style="fill:#303c60"/><path d="M473.89,200.39a.46.46,0,0,1-.2,0,.43.43,0,0,1-.17-.57c4-7.23.73-16-.89-18.35-.17-.25-.34-.5-.51-.77-1.59-2.49-3.58-5.59-14.16-7.49-2.55-.46-4.62-2-6.8-3.58-4.51-3.32-9.63-7.07-20.75-2a.41.41,0,0,1-.55-.2.42.42,0,0,1,.2-.56c11.57-5.32,16.89-1.41,21.59,2,2.11,1.55,4.1,3,6.46,3.43,10.94,2,13,5.24,14.72,7.86l.49.76c1.7,2.48,5.08,11.65.94,19.22A.42.42,0,0,1,473.89,200.39Z" style="fill:#303c60"/><path d="M421.75,168.88a16.81,16.81,0,0,1-2.45-.2c-4-.6-9.42-2.89-9.84-15.72a.42.42,0,1,1,.84,0c.17,5.29,1.22,9.21,3.12,11.64a8.8,8.8,0,0,0,6,3.29c3.72.55,6.19-.13,7.33-2.05a.43.43,0,0,1,.58-.14.42.42,0,0,1,.14.57C426.43,168,424.51,168.88,421.75,168.88Z" style="fill:#303c60"/><polygon points="265.36 317.48 268.45 317.48 280.47 225.62 273.68 225.62 265.36 317.48" style="fill:#2e5b9a"/><polygon points="370.19 317.48 367.1 317.48 355.09 225.62 361.88 225.62 370.19 317.48" style="fill:#2e5b9a"/><path d="M491.34,239.94c5.35,4.88,3,9.76-.93,18.82s-4.64,42.53-4.64,42.53l3.25-.47s-.47-34.39,4-43.69,6.27-13.94,10.22-10.92S491.34,239.94,491.34,239.94Z" style="fill:#74b570"/><path d="M488.41,233.62c.65-2.89,4.5-6,9.66-8.68-.77,4.27-3.23,11.24-.69,12.67,3.43,1.93.34-7.81,1.66-13.16a63.7,63.7,0,0,1,16-5.25s0,0,0,.05c-3,7.67-7,10.69-5.35,11.86,1.22.87,5.21-8,10.47-12.53,4-.21,7.3.33,9.28,1.89,3,2.42,5.1,4.57,2,11.94a13.82,13.82,0,0,1-6.67,2.41c-7,.7-10.23.93-5.35,3.26,2.39,1.14,6.4-.07,9.64-.8-1.05,1.94-2.34,4.14-3.92,6.64a25,25,0,0,1-3.26,4.16,10.39,10.39,0,0,1-5.25,0c-3.25-1.39-11.62-5.81-13.71-3.95s15.5,3,14.28,7.6c-8.5,4.89-18.23,2.56-19.95-1.93C495,243.74,486.45,242.32,488.41,233.62Z" style="fill:#9cd499"/><path d="M506,266.66c-9.29-7-18.82-.46-23.7,7s-1.39,24.17-1.39,24.17,1.85,0,1.85-.7-5.11-19.75,7-28.35c7.56-5.38,13-2.79,13.71-.23s-3,7.2-3,7.2Z" style="fill:#74b570"/><path d="M484.6,252.33c9.3,0,12.32,14.41,9.76,22.77s-6,23.94-6,23.94L486,296.72s8.83-21.85,6.74-31.61-7.21-11.39-8.14-11.39S484.6,252.33,484.6,252.33Z" style="fill:#9cd499"/><path d="M492.4,275.17a6.7,6.7,0,0,1,2.45-2.06,17,17,0,0,1-.49,2c-1.16,3.82-2.52,9.12-3.65,13.77-.1-.59-.26-1.51-.51-2.93a10.66,10.66,0,0,1-.13-1.08A89.38,89.38,0,0,0,492.4,275.17Z" style="fill:#74b570"/><path d="M494.94,275.24c17.66-7.44,8.36-17.64,23.93-10.9a11.57,11.57,0,0,1,3.77,3.32,11.64,11.64,0,0,1-4.93.4c-4.65-.7-3,3,4.64,3.95a17.11,17.11,0,0,1,3.6.75c3.65,7,5.3,16.25-2.43,19.46a17.22,17.22,0,0,1-5.51,1.13c-2.38-1.89.58-12.87-3.09-11.35s1.1,9.4.47,11.41a50.86,50.86,0,0,1-11-1.55,5.47,5.47,0,0,1-2.92-3.36c-1.16-4.88,6.51-7.9,6.74-12.08.21-3.84-2.81,8.46-10.83,10.27C490.11,283.31,486.69,278.71,494.94,275.24Z" style="fill:#9cd499"/><path d="M482.36,262.09c1.86-3.95-3-4.88-2.79-1.86.2,2.68.23,9.19-2.52,11A43.22,43.22,0,0,1,461,265.86a2,2,0,0,1,.21-1.21c2.09-4.19,15.57-7.67,11.39-9.07-3.33-1.11-9.17,5.45-13.88,8.75-2.82-2.14-4.71-4.7-4.71-7.55,0-3.86,4.69-8.23,10.75-10.32,2.73.27,5.27,1.77,9.23,4,5.85,3.32,4.5-2-1-5.23A16.67,16.67,0,0,1,486,252.41s-.33,2.08,1.87,5.3c6,8.8-.93,13.93-9.23,13.6C479.12,269,481.07,264.82,482.36,262.09Z" style="fill:#9cd499"/><path d="M505.42,266.27c4.55,3.51,9.6,7.61,15.79,10.4s5,11.88,5,11.88.93-7.85-4.23-10.53-8.58-5.89-12.5-6.51a56.83,56.83,0,0,1-6.1-1.24s1.24-2.48.52-3.41S505.42,266.27,505.42,266.27Z" style="fill:#74b570"/><path d="M527.82,225c-16.63,4.44-28.81,15.08-31.09,17.66s-2.27,3.31-2.27,3.31l1.76,3.3.82-.41s-1.34-2.79,2.17-6.41c6.06-6.23,13.43-11.15,18.49-13.32S527.82,225,527.82,225Z" style="fill:#74b570"/><path d="M485.1,294.3h0a11.36,11.36,0,0,1,11.36,11.36v11.42a0,0,0,0,1,0,0H473.74a0,0,0,0,1,0,0V305.66A11.36,11.36,0,0,1,485.1,294.3Z" transform="translate(970.2 611.37) rotate(180)" style="fill:#75a1de"/><rect x="473.74" y="296.91" width="22.71" height="1.6" style="fill:#fff"/><rect x="473.74" y="299.82" width="22.71" height="0.94" style="fill:#fff"/><rect x="65.52" y="288.6" width="9.56" height="8.61" rx="4.3" transform="translate(140.6 585.8) rotate(-180)" style="fill:#9ec8ff"/><rect x="48.13" y="288.6" width="9.56" height="8.61" rx="4.3" transform="translate(105.82 585.8) rotate(180)" style="fill:#9ec8ff"/><rect x="30.74" y="288.6" width="9.56" height="8.61" rx="4.3" transform="translate(71.04 585.8) rotate(180)" style="fill:#9ec8ff"/><rect x="518.6" y="129.78" width="9.56" height="8.61" rx="4.3" transform="translate(657.47 -389.3) rotate(90)" style="fill:#9ec8ff"/><rect x="518.6" y="147.17" width="9.56" height="8.61" rx="4.3" transform="translate(674.86 -371.91) rotate(90)" style="fill:#9ec8ff"/><rect x="518.6" y="164.56" width="9.56" height="8.61" rx="4.3" transform="translate(692.25 -354.52) rotate(90)" style="fill:#9ec8ff"/></svg>