<svg xmlns="http://www.w3.org/2000/svg" xmlns:xlink="http://www.w3.org/1999/xlink" viewBox="0 0 544 362"><defs><filter id="b" x="320.25" y="-8373" width="151.6" height="32766" filterUnits="userSpaceOnUse" color-interpolation-filters="sRGB"><feFlood flood-color="#fff" result="bg"/><feBlend in="SourceGraphic" in2="bg"/></filter><mask id="a" x="320.25" y="-8373" width="151.6" height="32766" maskUnits="userSpaceOnUse"><g style="filter:url(#b)"/></mask><linearGradient id="c" x1="410.97" y1="348.04" x2="381.87" y2="298.04" gradientUnits="userSpaceOnUse"><stop offset="0"/><stop offset="0.69" stop-color="#fff"/></linearGradient><filter id="e" x="72.15" y="-8373" width="158.49" height="32766" filterUnits="userSpaceOnUse" color-interpolation-filters="sRGB"><feFlood flood-color="#fff" result="bg"/><feBlend in="SourceGraphic" in2="bg"/></filter><mask id="d" x="72.15" y="-8373" width="158.49" height="32766" maskUnits="userSpaceOnUse"><g style="filter:url(#e)"/></mask><linearGradient id="f" x1="166.99" y1="349.19" x2="136.58" y2="296.94" xlink:href="#c"/><filter id="h" x="248.25" y="-8373" width="12.19" height="32766" filterUnits="userSpaceOnUse" color-interpolation-filters="sRGB"><feFlood flood-color="#fff" result="bg"/><feBlend in="SourceGraphic" in2="bg"/></filter><mask id="g" x="248.25" y="-8373" width="12.19" height="32766" maskUnits="userSpaceOnUse"><g style="filter:url(#h)"/></mask><linearGradient id="i" x1="254.34" y1="146.93" x2="254.34" y2="233.84" gradientTransform="translate(29.32 -30.19) rotate(7.21)" gradientUnits="userSpaceOnUse"><stop offset="0.01"/><stop offset="1" stop-color="#fff"/></linearGradient><filter id="k" x="290.03" y="-8373" width="11.39" height="32766" filterUnits="userSpaceOnUse" color-interpolation-filters="sRGB"><feFlood flood-color="#fff" result="bg"/><feBlend in="SourceGraphic" in2="bg"/></filter><mask id="j" x="290.03" y="-8373" width="11.39" height="32766" maskUnits="userSpaceOnUse"><g style="filter:url(#k)"/></mask><linearGradient id="l" x1="295.73" y1="146.93" x2="295.73" y2="233.84" gradientTransform="translate(614.59 399.42) rotate(173.37)" xlink:href="#i"/><filter id="n" x="249.34" y="-8373" width="51.25" height="32766" filterUnits="userSpaceOnUse" color-interpolation-filters="sRGB"><feFlood flood-color="#fff" result="bg"/><feBlend in="SourceGraphic" in2="bg"/></filter><mask id="m" x="249.34" y="-8373" width="51.25" height="32766" maskUnits="userSpaceOnUse"><g style="filter:url(#n)"/></mask><linearGradient id="o" x1="274.96" y1="146.93" x2="274.96" y2="233.84" gradientTransform="matrix(1, 0, 0, 1, 0, 0)" xlink:href="#i"/><filter id="q" x="320.25" y="317.83" width="151.6" height="9.14" filterUnits="userSpaceOnUse" color-interpolation-filters="sRGB"><feFlood flood-color="#fff" result="bg"/><feBlend in="SourceGraphic" in2="bg"/></filter><mask id="p" x="320.25" y="317.83" width="151.6" height="9.14" maskUnits="userSpaceOnUse"><g style="mask:url(#a);filter:url(#q)"><path d="M471.85,322.4c0,2.53-33.94,4.57-75.8,4.57s-75.8-2-75.8-4.57,33.94-4.57,75.8-4.57S471.85,319.88,471.85,322.4Z" style="mix-blend-mode:multiply;fill:url(#c)"/></g></mask><linearGradient id="r" x1="410.97" y1="348.04" x2="381.87" y2="298.04" gradientUnits="userSpaceOnUse"><stop offset="0" stop-color="#97cbec"/><stop offset="0.69" stop-color="#ccc2f5"/></linearGradient><filter id="t" x="72.15" y="317.83" width="158.49" height="9.14" filterUnits="userSpaceOnUse" color-interpolation-filters="sRGB"><feFlood flood-color="#fff" result="bg"/><feBlend in="SourceGraphic" in2="bg"/></filter><mask id="s" x="72.15" y="317.83" width="158.49" height="9.14" maskUnits="userSpaceOnUse"><g style="mask:url(#d);filter:url(#t)"><path d="M230.64,322.4c0,2.53-35.48,4.57-79.24,4.57s-79.25-2-79.25-4.57,35.48-4.57,79.25-4.57S230.64,319.88,230.64,322.4Z" style="mix-blend-mode:multiply;fill:url(#f)"/></g></mask><linearGradient id="u" x1="166.99" y1="349.19" x2="136.58" y2="296.94" xlink:href="#r"/><radialGradient id="v" cx="254.92" cy="103.67" r="137.76" gradientUnits="userSpaceOnUse"><stop offset="0.01" stop-color="#ffdd91"/><stop offset="0.99" stop-color="#ffe655"/></radialGradient><linearGradient id="w" x1="190.33" y1="149.25" x2="356.83" y2="149.25" gradientUnits="userSpaceOnUse"><stop offset="0" stop-color="#e0e0e0"/><stop offset="1" stop-color="#ff556f"/></linearGradient><filter id="y" x="248.25" y="178.35" width="12.19" height="78.74" filterUnits="userSpaceOnUse" color-interpolation-filters="sRGB"><feFlood flood-color="#fff" result="bg"/><feBlend in="SourceGraphic" in2="bg"/></filter><mask id="x" x="248.25" y="178.35" width="12.19" height="78.74" maskUnits="userSpaceOnUse"><g style="mask:url(#g);filter:url(#y)"><rect x="253.2" y="178.18" width="2.28" height="79.08" transform="translate(-25.3 33.63) rotate(-7.21)" style="mix-blend-mode:multiply;fill:url(#i)"/></g></mask><linearGradient id="z" x1="254.34" y1="146.93" x2="254.34" y2="233.84" gradientTransform="translate(29.32 -30.19) rotate(7.21)" gradientUnits="userSpaceOnUse"><stop offset="0.01" stop-color="#ffdd91"/><stop offset="1" stop-color="#fff"/></linearGradient><filter id="ab" x="290.03" y="178.1" width="11.39" height="78.81" filterUnits="userSpaceOnUse" color-interpolation-filters="sRGB"><feFlood flood-color="#fff" result="bg"/><feBlend in="SourceGraphic" in2="bg"/></filter><mask id="aa" x="290.03" y="178.1" width="11.39" height="78.81" maskUnits="userSpaceOnUse"><g style="mask:url(#j);filter:url(#ab)"><rect x="294.59" y="177.97" width="2.27" height="79.08" transform="translate(564.37 467.71) rotate(-173.37)" style="mix-blend-mode:multiply;fill:url(#l)"/></g></mask><linearGradient id="ac" x1="295.73" y1="146.93" x2="295.73" y2="233.84" gradientTransform="translate(614.59 399.42) rotate(173.37)" xlink:href="#z"/><filter id="ae" x="249.34" y="179.77" width="51.25" height="10.7" filterUnits="userSpaceOnUse" color-interpolation-filters="sRGB"><feFlood flood-color="#fff" result="bg"/><feBlend in="SourceGraphic" in2="bg"/></filter><mask id="ad" x="249.34" y="179.77" width="51.25" height="10.7" maskUnits="userSpaceOnUse"><g style="mask:url(#m);filter:url(#ae)"><polygon points="291.61 190.47 283.03 181.98 274.69 190.42 266.39 182.21 258.33 190.36 249.34 181.46 250.44 180.35 258.31 188.15 266.38 180 274.67 188.21 283.02 179.77 291.6 188.26 299.47 180.31 300.58 181.41 291.61 190.47" style="mix-blend-mode:multiply;fill:url(#o)"/></g></mask><linearGradient id="af" x1="274.96" y1="146.93" x2="274.96" y2="233.84" gradientTransform="matrix(1, 0, 0, 1, 0, 0)" xlink:href="#z"/><linearGradient id="ag" x1="230.8" y1="252.65" x2="315.66" y2="252.65" gradientUnits="userSpaceOnUse"><stop offset="0" stop-color="#40d5e6"/><stop offset="1" stop-color="#57f"/></linearGradient><linearGradient id="ah" x1="-11635.66" y1="273.4" x2="-11882.87" y2="273.4" gradientTransform="matrix(-1, 0, 0, 1, -11478.04, 0)" gradientUnits="userSpaceOnUse"><stop offset="0" stop-color="#ff9f55"/><stop offset="1" stop-color="#ffd255"/></linearGradient><linearGradient id="ai" x1="-11726.59" y1="273.4" x2="-11799.07" y2="273.4" xlink:href="#ah"/></defs><title>Adaptive Learning</title><g style="isolation:isolate"><rect y="-16.1" width="544" height="394.2" style="fill:#f7f7f7"/><g style="mask:url(#p)"><path d="M471.85,322.4c0,2.53-33.94,4.57-75.8,4.57s-75.8-2-75.8-4.57,33.94-4.57,75.8-4.57S471.85,319.88,471.85,322.4Z" style="opacity:0.72;fill:url(#r)"/></g><path d="M417,315.11a1.62,1.62,0,1,0,1.62-1.62A1.62,1.62,0,0,0,417,315.11Z" style="fill:#4a3e46"/><polygon points="453.49 313.51 453.08 314.66 435.74 309.29 436.58 306.96 453.49 313.51" style="fill:#4a3e46"/><rect x="435.15" y="287.55" width="1.97" height="20.92" transform="translate(872.27 596.02) rotate(180)" style="fill:#4a3e46"/><polygon points="418.63 313.51 419.04 314.66 436.37 309.29 435.61 306.81 418.63 313.51" style="fill:#4a3e46"/><polygon points="430.84 314.54 430.84 315.88 436.37 309.29 435.61 306.81 430.84 314.54" style="fill:#4a3e46"/><path d="M430.71,315.11a1.62,1.62,0,1,0,1.61-1.62A1.61,1.61,0,0,0,430.71,315.11Z" style="fill:#4a3e46"/><path d="M411.41,309.48a10.51,10.51,0,0,1-.38,2.38c-.26.94-.79,4.57-1.46,5.08s-2.83,1.86-2.51,3.24.58,2.35,2.92,1.53,3.9-1.29,4.35-3.34a12.74,12.74,0,0,1,1.72-3.92l1.69,4.2.89-.35a42.39,42.39,0,0,1-1.23-4.94c.12-.41-.62-4-3.44-4.91S411.41,309.48,411.41,309.48Z" style="fill:#b07042"/><path d="M395.8,310.8a10.09,10.09,0,0,1-1.23,2.07c-.6.77-2.44,3.95-3.25,4.17s-3.32.67-3.54,2.07-.34,2.4,2.14,2.51,4.09.26,5.27-1.48a12.92,12.92,0,0,1,3.07-3v4.53h1a40.61,40.61,0,0,1,.7-5c.26-.34.92-3.95-1.37-5.84S395.8,310.8,395.8,310.8Z" style="fill:#b07042"/><path d="M421,249.3s-.55-2-.61-2.2-.57-.76-1.22-1.29a5,5,0,0,0-1.89-.91.79.79,0,0,0-.53.32,1.42,1.42,0,0,0-.25.66.87.87,0,0,0-.46.69.75.75,0,0,0-.33.76.63.63,0,0,0-.3.62,5.31,5.31,0,0,1,.66.75,11.75,11.75,0,0,0,2.54,2S420.16,251.87,421,249.3Z" style="fill:#eea886"/><path d="M418.55,247.76a4.23,4.23,0,0,0-.18,1.08c.05.27-1.87.3-1.87.3S417.55,247.5,418.55,247.76Z" style="fill:#cf8c6c"/><path d="M440.22,252.65c-.78-1.25-1.82-1.82-5.11.46s-2.52,1.83-3.31,2.55a35.92,35.92,0,0,1-4.24,2.52,29.76,29.76,0,0,1-3-3.43c-1.09-1.6-3.37-5.89-3.37-5.89L418,251.24s6.2,11.24,7.49,12.07,5.2-.56,7.24-1.42,4.18-2,5.1-2.19S442.24,255.93,440.22,252.65Z" style="fill:#d88a51"/><rect x="417.01" y="239.57" width="0.61" height="7.21" transform="translate(-42.67 95.88) rotate(-12.47)" style="fill:#eb4747"/><path d="M417.4,245s1.61,1.37,1.42,1.66a.53.53,0,0,1-.43.28l.4.86s-.05.73-.83.46c0,0,0,.68-.69.33,0,0-.19.45-.56.35a7.54,7.54,0,0,1-1.35-1s-.15-.3.28-.63a.74.74,0,0,1,.34-.76.78.78,0,0,1,.44-.7s0-.9.81-1Z" style="fill:#db9c7c"/><path d="M420.32,247.12a7.13,7.13,0,0,0-1.9-1.25c-.18-.06-.38-.09-.5.06s-.08.53.37,1a5.66,5.66,0,0,1,.82,1.23S419.7,248.45,420.32,247.12Z" style="fill:#eea886"/><path d="M424.87,259.48a7.37,7.37,0,0,1,.12-4.17,5.5,5.5,0,0,0,.53,3.23C426.12,259.5,424.87,259.48,424.87,259.48Z" style="fill:#bd7947"/><path d="M413.11,259.85s-1.73-12.88-4.76-18.49h4.45s5,8.79,4.06,17.67Z" style="fill:#eddad3"/><path d="M412.05,250.21s-.51-1-.63-1.26-.62.23-.55.63S412.05,250.21,412.05,250.21Z" style="fill:#eea886"/><path d="M408.1,252.36a2.18,2.18,0,0,0,.29.64s.31.29.52.52l.15.17a4.1,4.1,0,0,0,.82,1c.44.36,2.14,1.46,2.14,1.46l1.2-1.28,1-1a18.6,18.6,0,0,0-1.19-3.43l-.11-.1a6,6,0,0,0-.93-.5c-.08,0-.85-.47-1.09-.38a.85.85,0,0,0-.58.61,2.11,2.11,0,0,0-.87.71,1.29,1.29,0,0,0-.74.86S408.08,252,408.1,252.36Z" style="fill:#eea886"/><path d="M400.21,285.6s2.94,6.63,5.05,11.35l1,2.19L407,301c1.34,3,4.63,9.57,4.63,9.57s2.48.09,2.62-2c0,0-2.38-4.55-2.38-7.75s-.42-12.63-3.48-14.67C404.69,283.62,402.27,283.15,400.21,285.6Z" style="fill:#eea886"/><path d="M427.43,273a3.36,3.36,0,0,1-1.15.76c-.52.14-9.31.81-13.37,2.15s-9.46,2.2-10.46,3.34-2.67,7.45-2.63,8.65-3.57,21.31-4,22.88c-.23.84,3.27.52,3.27.52s5-11.89,6.05-14.09c2-4,2.06-9,2.77-9.74s8.7-2.49,13.28-2.49,14.86.39,15.95-.23,8-5.16,5.11-11.23S427.43,273,427.43,273Z" style="fill:#eea886"/><path d="M407.62,277.39l7.25,14s2.19-5.2,6-6.09,19.08-.42,19.08-.42,7-8.85,1-13.5-13,.73-13,.73-1.44,1.57-2.14,1.61S419.52,273.58,407.62,277.39Z" style="fill:#1d3b54"/><path d="M391.32,317s2.22.56,3.06,0,3.74-5.43,4.69-5.72c0,0-.92-1.88-3.27-.52C395.8,310.8,392,316.23,391.32,317Z" style="fill:#eea886"/><path d="M409.57,316.94s2.26-.31,2.84-1.14,1.44-6.44,2.22-7.06c0,0-1.56-1.4-3.22.74C411.41,309.48,409.85,316,409.57,316.94Z" style="fill:#eea886"/><path d="M451.87,315.11a1.62,1.62,0,1,0,1.62-1.62A1.61,1.61,0,0,0,451.87,315.11Z" style="fill:#4a3e46"/><path d="M432.68,229.06a5.91,5.91,0,0,0-6.22,5.42,14.62,14.62,0,0,0,.44,2.23c.3,1-.57,3.87-.34,4a5.69,5.69,0,0,0,1.17.33s1,3.16,2.13,3.13a9.18,9.18,0,0,0,7.28-4.82C439.12,235.43,439.73,229.4,432.68,229.06Z" style="fill:#eea886"/><path d="M431.36,242.74s.13.44.29,1.1c.08.34.16.73.23,1.14a7.81,7.81,0,0,1,0,3.4s2.45.85,4.39-2.61c0,0-.84-3.74.24-6S431.36,242.74,431.36,242.74Z" style="fill:#eea886"/><path d="M426.46,234.48s2.68,2.41,5.51,2.22,4.75,3.4,4.75,3.4,4.29-5.38.83-9.73S425.84,229.08,426.46,234.48Z" style="fill:#1d3b54"/><path d="M433.28,236.68a.86.86,0,0,1,1.51-.62c.9.74-.3,3.33-1,3.08S433.26,237.24,433.28,236.68Z" style="fill:#eea886"/><path d="M431.65,243.84c.08.34.16.73.23,1.14a12.11,12.11,0,0,0,3.43-3.2A13.73,13.73,0,0,1,431.65,243.84Z" style="fill:#a77860"/><path d="M425,257.08c.52,2.4,1.88,2.52,1.79,4.29s-.61,1.92.31,4.7a15.9,15.9,0,0,1,.42,1.65l0,.21c.06.32.11.64.16,1,.08.59.14,1.17.18,1.7A3.58,3.58,0,0,1,427,273s8.94,5.35,15.08,4.6c0,0-1.59-6.68-2.46-9s-.61-12.9,0-15.17c.95-3.36-.95-8.39-3.54-9.05l-4,1.86s-4.05,4.84-5,5.57S424.48,254.66,425,257.08Z" style="fill:#d88a51"/><path d="M438.3,247.28c-1.13-.94-2.78-2.56-5.18.64s-4.14,5.27-4.66,6.2-5,7.45-5,7.45-2.39-2.23-3.76-3.27c-1.54-1.18-5.75-5.56-5.75-5.56l-2.78,3.08s9.64,10.71,11.14,11.09,5.67-3.39,7.32-4.84,6.3-6.77,7.1-7.28S441.26,249.75,438.3,247.28Z" style="fill:#d88a51"/><path d="M405.26,297l1,2.19c1.08-3.48,1-9.3,1-9.3A33.72,33.72,0,0,1,405.26,297Z" style="fill:#a77860"/><rect x="420.88" y="284.85" width="30.98" height="3.41" transform="translate(872.75 573.12) rotate(180)" style="fill:#6b5a65"/><path d="M435.74,274s.79,3.16-2.89,3.87-8.2,1.64-8.2,7.31H437.4Z" style="fill:#6b5a65"/><polygon points="416.83 239.59 416.31 238.62 416.24 239.72 416.83 239.59" style="fill:#eea886"/><path d="M451.87,288.26l10.83-45.52s-19.58-3.06-21.92,5.73S434.61,283.39,430,285,451.87,288.26,451.87,288.26Z" style="fill:#6b5a65"/><path d="M426.68,264.55s.2.84.41,1.53l4.77-6.18Z" style="fill:#bd7947"/><path d="M438.62,236.24s-1.88,5-1.37,6.33a4.2,4.2,0,0,1-2.4-4.52C435.39,234.79,438.62,236.24,438.62,236.24Z" style="fill:#1d3b54"/><polygon points="431.83 246.58 431.83 245.6 436.01 243.56 437.46 245.23 431.83 246.58" style="fill:#d88a51"/><g style="mask:url(#s)"><path d="M230.64,322.4c0,2.53-35.48,4.57-79.24,4.57s-79.25-2-79.25-4.57,35.48-4.57,79.25-4.57S230.64,319.88,230.64,322.4Z" style="opacity:0.72;fill:url(#u)"/></g><path d="M154.23,107a5.32,5.32,0,0,1-2.76-1.84,4,4,0,0,1-.81-3.29,24.29,24.29,0,0,0-.14-6.4,10.72,10.72,0,1,1,12.5,3,23.17,23.17,0,0,0-2.62,5.5c-.51,2.3-3.09,3.7-5.77,3.12Zm7.29-27.82A9.84,9.84,0,0,0,151.27,95l.08.1,0,.12a25.31,25.31,0,0,1,.16,6.78v0a3.11,3.11,0,0,0,.65,2.58,4.55,4.55,0,0,0,2.64,1.63c2.22.47,4.34-.63,4.74-2.47v0a24,24,0,0,1,2.79-5.85l.07-.11.13-.06a9.84,9.84,0,0,0-1-18.54Z" style="fill:#ffd255"/><polygon points="153.04 103.06 154.06 91.33 156.03 93.81 157.85 92.48 158.81 94.28 161.43 92.86 157.68 104.03 156.85 103.75 159.89 94.69 158.45 95.48 157.55 93.78 155.87 95.01 154.75 93.6 153.91 103.13 153.04 103.06" style="fill:#ffd255"/><rect x="150.72" y="106.06" width="7.6" height="3.06" transform="translate(26.29 -30.29) rotate(12.23)" style="fill:#ffd255"/><rect x="149.96" y="102.98" width="10.05" height="4.93" transform="translate(25.85 -30.43) rotate(12.23)" style="fill:#ffd255"/><polygon points="386.08 169.95 385.23 169.66 392.41 148.75 408.46 144.3 413.98 121.38 426.34 115.75 428.92 97.95 429.81 98.08 427.17 116.37 414.76 122.02 409.22 145.03 393.11 149.49 386.08 169.95" style="fill:#ffd078"/><path d="M410.69,143.12a2.41,2.41,0,1,1-3.4-.31A2.41,2.41,0,0,1,410.69,143.12Z" style="fill:#fff"/><path d="M410.68,146.87a2.87,2.87,0,1,1,.36-4A2.88,2.88,0,0,1,410.68,146.87Zm-3.1-3.71a2,2,0,1,0,2.52,3,2,2,0,0,0-2.52-3Z" style="fill:#ffd078"/><path d="M416.29,120.29a2.42,2.42,0,1,1-3.4-.31A2.41,2.41,0,0,1,416.29,120.29Z" style="fill:#fff"/><path d="M416.28,124a2.87,2.87,0,1,1,.36-4A2.88,2.88,0,0,1,416.28,124Zm-3.1-3.71a2,2,0,1,0,2.52,3,2,2,0,0,0-2.52-3Z" style="fill:#ffd078"/><path d="M428.46,114.51a2.42,2.42,0,1,1-3.41-.31A2.41,2.41,0,0,1,428.46,114.51Z" style="fill:#fff"/><path d="M428.45,118.26a2.87,2.87,0,1,1-3.69-4.4,2.87,2.87,0,0,1,3.69,4.4Zm-3.11-3.71a2,2,0,0,0-.24,2.77,2,2,0,0,0,3-2.52A2,2,0,0,0,425.34,114.55Z" style="fill:#ffd078"/><path d="M394.71,147.77a2.42,2.42,0,1,1-3.41-.3A2.43,2.43,0,0,1,394.71,147.77Z" style="fill:#fff"/><path d="M394.7,151.52a2.87,2.87,0,1,1,.36-4A2.87,2.87,0,0,1,394.7,151.52Zm-3.1-3.7a2,2,0,1,0,2.76.24A2,2,0,0,0,391.6,147.82Z" style="fill:#ffd078"/><path d="M344.1,121.84c-.16-33.46-32.27-60.43-71.71-60.23s-71.29,27.48-71.12,60.94a52.7,52.7,0,0,0,6.32,24.7s22,42.53,25.31,82.91c.09,18.89,18.22,34.12,40.49,34s40.24-15.51,40.15-34.41C316.42,189.33,338,146.6,338,146.6h0A52.73,52.73,0,0,0,344.1,121.84Z" style="fill:url(#v)"/><polygon points="356.32 40.1 364.32 40.1 361.87 35.03 353.88 35.03 356.32 40.1" style="fill:#ffd179"/><polygon points="352.58 40.1 354.49 40.1 352.04 35.03 350.13 35.03 352.58 40.1" style="fill:#ffd179"/><rect x="187.78" y="44.77" width="20.54" height="1.44" transform="translate(396.1 90.97) rotate(180)" style="fill:#ffd887"/><rect x="187.78" y="47.48" width="20.54" height="6.05" transform="translate(396.1 101.01) rotate(180)" style="fill:#ffd887"/><rect x="178.14" y="55.57" width="12.12" height="0.9" transform="translate(368.39 112.04) rotate(180)" style="fill:#ffd887"/><rect x="178.14" y="56.87" width="12.12" height="2.45" transform="translate(368.39 116.19) rotate(180)" style="fill:#ffd887"/><rect x="211.69" y="37.01" width="0.9" height="16.96" transform="translate(424.29 90.98) rotate(180)" style="fill:#ffd989"/><rect x="155.29" y="140.08" width="16.18" height="2.93" transform="translate(326.75 283.09) rotate(180)" style="fill:#ffd785"/><rect x="155.29" y="138.71" width="16.18" height="0.55" transform="translate(326.75 277.98) rotate(180)" style="fill:#ffd785"/><path d="M364.59,136.72l-2.52-.5c6-30.22.91-54.69-14.74-70.74a58,58,0,0,0-25.84-15.37l.56-2.51a59.48,59.48,0,0,1,27,16C360.47,75.23,372.42,97.36,364.59,136.72Z" style="fill:#ffd078"/><path d="M194.23,174.81c-24.16-45.82-9.06-70.7-8.4-71.74l2.17,1.38c-.15.24-14.91,24.77,8.5,69.17Z" style="fill:#ffd078"/><path d="M304.39,131a19.89,19.89,0,0,0,1.24-5.43l3.67-1.4-.71-4.2-.71-4.21-3.92-.12a20.06,20.06,0,0,0-2.95-4.72l1.6-3.58-3.48-2.47-3.47-2.47-2.86,2.68a19.8,19.8,0,0,0-5.43-1.24l-1.4-3.67-4.2.71-4.2.71-.13,3.92a20.27,20.27,0,0,0-4.72,2.95l-3.58-1.6-2.47,3.48-2.47,3.47,2.68,2.86a20.17,20.17,0,0,0-1.24,5.43L262,123.5l.71,4.2.71,4.2,3.92.13a20,20,0,0,0,3,4.72l-1.6,3.58,3.47,2.47,3.47,2.47,2.86-2.68a20.17,20.17,0,0,0,5.43,1.24l1.4,3.66,4.2-.7,4.21-.71.12-3.92a19.78,19.78,0,0,0,4.72-3l3.58,1.6,2.47-3.47,2.47-3.47Zm-24.81,1.35a10.45,10.45,0,1,1,14.57-2.46A10.46,10.46,0,0,1,279.58,132.35Z" style="fill:#fff"/><path d="M265.89,153.78a12.91,12.91,0,0,0,.78-3.43l2.32-.89-.45-2.66-.45-2.66-2.47-.07a12.6,12.6,0,0,0-1.87-3l1-2.26-2.2-1.57-2.2-1.56-1.8,1.7a12.54,12.54,0,0,0-3.44-.79l-.88-2.32-2.66.45-2.66.45-.08,2.48a12.42,12.42,0,0,0-3,1.87l-2.27-1L242,140.71l-1.56,2.2,1.69,1.81a12.82,12.82,0,0,0-.78,3.43l-2.32.89.45,2.65.44,2.66,2.49.08a12.44,12.44,0,0,0,1.86,3l-1,2.26,2.2,1.56,2.19,1.57,1.81-1.7a12.54,12.54,0,0,0,3.44.79l.88,2.31,2.66-.44,2.66-.45.08-2.48a12.74,12.74,0,0,0,3-1.87l2.27,1,1.56-2.2,1.56-2.19Zm-15.7.85a6.61,6.61,0,1,1,9.22-1.55A6.6,6.6,0,0,1,250.19,154.63Z" style="fill:#fff"/><path d="M196.85,249.64S157,46.08,274.18,48.89s75.44,200.62,75.44,200.62Z" style="opacity:0.08;mix-blend-mode:darken;fill:url(#w)"/><g style="mask:url(#x)"><rect x="253.2" y="178.18" width="2.28" height="79.08" transform="translate(-25.3 33.63) rotate(-7.21)" style="fill:url(#z)"/></g><g style="mask:url(#aa)"><rect x="294.59" y="177.97" width="2.27" height="79.08" transform="translate(564.37 467.71) rotate(-173.37)" style="fill:url(#ac)"/></g><g style="mask:url(#ad)"><polygon points="291.61 190.47 283.03 181.98 274.69 190.42 266.39 182.21 258.33 190.36 249.34 181.46 250.44 180.35 258.31 188.15 266.38 180 274.67 188.21 283.02 179.77 291.6 188.26 299.47 180.31 300.58 181.41 291.61 190.47" style="fill:url(#af)"/></g><path d="M296.29,285.64l-45.72.23a9.19,9.19,0,0,1-9.23-9.15l-.09-18,64.09-.31.09,18A9.2,9.2,0,0,1,296.29,285.64Z" style="fill:#d46946"/><path d="M301.93,274.42l-57.11.28A13.8,13.8,0,0,1,231,261l-.15-30,84.71-.42.15,30A13.8,13.8,0,0,1,301.93,274.42Z" style="fill:url(#ag)"/><rect x="196.85" y="249.51" width="152.77" height="47.79" style="fill:url(#ah)"/><polygon points="349.62 297.3 349.62 249.51 294.02 249.51 264.14 296.76 349.62 297.3" style="fill:url(#ai)"/><rect x="199.84" y="227.63" width="1.86" height="84.47" style="fill:#706865"/><path d="M155.82,192.34h47a7.08,7.08,0,0,1,7.08,7.08v91.67a7.07,7.07,0,0,1-7.07,7.07h-47a7.07,7.07,0,0,1-7.07-7.07V199.42A7.08,7.08,0,0,1,155.82,192.34Z" style="fill:#bdafaa"/><rect x="150.42" y="194.05" width="57.79" height="99.98" rx="6.99" style="fill:#fff"/><rect x="170.21" y="191.54" width="18.22" height="4.11" style="fill:#706865"/><path d="M162.49,215.44a15.63,15.63,0,0,1,15.62-15.61v.7A14.92,14.92,0,1,0,193,215.44a14.44,14.44,0,0,0-.16-2.18l.7-.11a16,16,0,0,1,.16,2.29,15.62,15.62,0,1,1-31.23,0Z" style="fill:#b5deff"/><path d="M142.66,264.66a3.62,3.62,0,0,1,.47,1.25,6.34,6.34,0,0,0,.58,1.47,14.46,14.46,0,0,1,.7,2.46,11,11,0,0,0-.33,1.64c.06.36.26,1.06-.06,1.11s-.68-.53-.68-.53a.47.47,0,0,1-.24.45.81.81,0,0,1-.81,0s-.19.36-.43.41a1,1,0,0,1-.8-.11,1,1,0,0,1-.61.19.78.78,0,0,1-.67-.41s-.6.12-.78-.16a2.72,2.72,0,0,1-.21-.84,9.69,9.69,0,0,1,.76-4.19,3.71,3.71,0,0,0-.2-3.26Z" style="fill:#eea886"/><path d="M143.42,271.84s.06-2-.49-2.49-.6.3-.6.3.08-.73-.52-.83-.61.77-.61.77a.58.58,0,0,0-.72-.45c-.62.12-.47.84-.47.84s-.6-.71-1,0a3.14,3.14,0,0,0-.06,2.52s.21.33.8.17a.83.83,0,0,0,1.29.24s.92.5,1.25-.3C142.31,272.58,143.38,273,143.42,271.84Z" style="fill:#db9c7c"/><path d="M149.64,235s-3.52,11.74-4.71,16.07c-.37,1.35-1.28,14.32-1.44,14.84s-4.62,1.24-4.62,1.24.54-16.22.59-17.11,4.93-19,6.35-19.64c1.06-.48,1.62-.08,3,.91A3.13,3.13,0,0,1,149.64,235Z" style="fill:#ffc655"/><rect x="183.39" y="215.9" width="9.63" height="0.72" transform="translate(-87.66 138.24) rotate(-33.18)" style="fill:#4da8f2"/><path d="M193.29,216.35a2.13,2.13,0,0,1-.21.64s-.26.31-.44.55a1.14,1.14,0,0,0-.12.19,3.88,3.88,0,0,1-.67,1c-.38.39-1.88,1.63-1.88,1.63l-1.28-1.09-1.33-.6a26,26,0,0,1,1.06-3.64l.1-.11a5.19,5.19,0,0,1,.83-.57c.07,0,.75-.55,1-.48a.81.81,0,0,1,.62.51,2,2,0,0,1,.91.59,1.2,1.2,0,0,1,.79.73S193.26,216,193.29,216.35Z" style="fill:#efaa88"/><path d="M146.78,315.16s-.32,2.23-.36,2.56-3.57-.19-3.57-.19l-.28-2.66S146.34,314.85,146.78,315.16Z" style="fill:#424773"/><path d="M146.46,317.44a9.68,9.68,0,0,0,2.2,1.93c1.08.58,2.78.81,3.42,1.42.46.44,1.68,2.32-2.81,2.28s-6.66.27-7.14-.45.7-5.33.7-5.33A9.56,9.56,0,0,0,146.46,317.44Z" style="fill:#292c47"/><path d="M172.08,315.16s-.32,2.23-.36,2.56-3.57-.19-3.57-.19l-.29-2.66S171.64,314.85,172.08,315.16Z" style="fill:#424773"/><path d="M171.76,317.44a9.53,9.53,0,0,0,2.19,1.93c1.09.58,5.07,1.06,5.71,1.67.46.44,1.23,2.2-5.09,2-4.5-.12-6.66.27-7.14-.45s.69-5.33.69-5.33A8.62,8.62,0,0,0,171.76,317.44Z" style="fill:#292c47"/><path d="M149.71,257.91s-3.32,5.27-3.07,10-1.21,10-1.71,14.94c-.55,5.55-2.82,18.68-2.91,21.65s.36,12.45.36,12.45l4.55.1s3.82-23,4.81-25.31,5.9-19,6.06-20.92S149.71,257.91,149.71,257.91Z" style="fill:#292c47"/><path d="M167.17,258.63s2.5,13.06,2.83,16,.55,14.11.71,15.94,1.55,23.79,2,26.55h-5.81s-4.47-16-4.47-23.59S159,277,156.73,272s-7.32-5.11-8.69-14.39C148,257.64,165.32,255.69,167.17,258.63Z" style="fill:#292c47"/><path d="M155.24,213.6s4.45-1.66,6.51,1.73,1.85,10.17-.39,11-5.62.4-6.77-1.73a16.88,16.88,0,0,1-2.13-7.23A4.46,4.46,0,0,1,155.24,213.6Z" style="fill:#eea886"/><path d="M160.88,226.49a3.82,3.82,0,0,0,.12,1.8c.3.59-5.77.6-5.77.6A40.83,40.83,0,0,0,153.8,223C152.86,220.23,160.88,226.49,160.88,226.49Z" style="fill:#eea886"/><path d="M153.8,223s.42.69,2.13.43,3.8-2.55,4.51-2.8.73-.67.73-.67l.44.65.76.05s-.69-2,.35-2.87-1.08-6.59-6.57-4.67c0,0-4.21,1.16-4.06,3.56S152.86,221.76,153.8,223Z" style="fill:#292c47"/><path d="M161.36,228.22s0-1.14-.54-1.24-5.66-.61-6.29-.36v1.32S155.75,228.68,161.36,228.22Z" style="fill:#e2d2ca"/><path d="M161.05,219c-.09-.4-1.12-1.55-1.51-.32s.59,2.88,1.14,2.74S161.3,220.06,161.05,219Z" style="fill:#eea886"/><path d="M169.87,229.93c-3.53-.47-8.51-1.71-8.51-1.71l-6.83-.28a66.62,66.62,0,0,0-8.72,2.49c-.24.11-.24,5.59-.88,7l2,4.32s1.18,8.54,1.43,12.34c.11,1.75-2.44,16.36-2.44,16.36a47.83,47.83,0,0,0,7.39,1.32c4.66.51,16.29-.19,16.37-.74s-2.26-20.48-2.36-21.51c-.16-1.58.55-10,.55-10,1.07-.83,10.51-5.22,13.08-7.5.69-.61,3.6-3.44,4.43-4.42a78.35,78.35,0,0,0,5.62-7.07c.33-.37-3.29-2.33-3.61-2.44s-4.13,5.09-5.65,6.74a42,42,0,0,1-3.5,2.79S172.08,230.06,169.87,229.93Z" style="fill:#ffc655"/><path d="M154,214s-5.67.45-.17,8.95Z" style="fill:#292c47"/><polygon points="192.43 213.92 192.9 213.21 192.04 213.32 192.43 213.92" style="fill:#dfe1e8"/><polygon points="468.38 199.08 441.83 199.08 441.83 218.32 441.83 222.37 445.89 218.32 468.38 218.32 468.38 199.08" style="fill:#518afa"/><rect x="446" y="203" width="21" height="2" rx="1" style="fill:#fcfcfc"/><rect x="446" y="207" width="21" height="2" rx="1" style="fill:#fcfcfc"/><rect x="446" y="211" width="21" height="2" rx="1" style="fill:#fcfcfc"/><path d="M102,317.51a15.75,15.75,0,0,1-1.36,2.14c-.53.61-2.58,1.69-2.6,3.5s3.46,1.41,4.82,1.34,1.46-1.12,2-2.22,1.14-.92,1.25-1.82a10.52,10.52,0,0,0-.55-2.94Z" style="fill:#202338"/><path d="M122.56,265.36s-3.82-8.91-4.28-11.1c-.21-1-.78-3.47-1.15-5.5-.12-.66-.22-1.35-.3-2h0c-.34-2.69-.43-5.15-.43-5.15s-2-7,2.32-7.38a9.88,9.88,0,0,1,1.6.66c.73,1.71,1,6.07,1.05,7,0,.76,1.14,8.5,1.16,8.77,0,.54,1.19,3.33,1.81,5.39,1.35,4.51,2.07,8.07,2.07,8.07Z" style="fill:#323657"/><rect x="113.89" y="249.9" width="19.61" height="17.16" style="fill:#e2e3ed"/><rect x="126.62" y="258.74" width="1.09" height="5.28" style="fill:#aab1e0"/><rect x="128.14" y="260.13" width="1.09" height="3.89" style="fill:#aab1e0"/><rect x="129.65" y="258.08" width="1.09" height="5.93" style="fill:#aab1e0"/><path d="M129,266s-.11,2.31-1.36,2.71a4.22,4.22,0,0,1-3.16-.31c-.58-.35-2-1.37-1.48-2C124.73,264.34,129,266,129,266Z" style="fill:#eea886"/><path d="M128.37,268.13s1.55.12,1.47-.54-1.21-.4-1.21-.4Z" style="fill:#eea886"/><rect x="121.88" y="260" width="1.09" height="4.02" style="fill:#aab1e0"/><rect x="123.43" y="259.59" width="1.09" height="4.42" style="fill:#aab1e0"/><rect x="125.01" y="260.44" width="1.09" height="3.58" style="fill:#aab1e0"/><rect x="120.27" y="260.44" width="1.09" height="3.58" style="fill:#aab1e0"/><path d="M116.42,257.79l0,0,0,0-1.17.79,0,0,1.17-.79Z" style="fill:#aab1e0"/><path d="M120.64,258v.05h0l-3.35-.4h-.06a.11.11,0,0,0,0-.05h0l3.35.4Z" style="fill:#aab1e0"/><path d="M123.93,255.51l0,0-2.48,2.25,0,0,0,0,0,0,2.49-2.25,0,0Z" style="fill:#aab1e0"/><path d="M128,255.22v0h-3.36v-.05H128Z" style="fill:#aab1e0"/><path d="M130.89,252.54l-2.15,2.35,0,0,0,0,0,0,2.15-2.35Z" style="fill:#aab1e0"/><path d="M116.78,257.12a.46.46,0,0,0-.46.46.48.48,0,0,0,.06.24l0,0a.48.48,0,0,0,.37.19.47.47,0,0,0,.46-.39v-.08A.47.47,0,0,0,116.78,257.12Zm.4.54a.4.4,0,0,1-.4.33.42.42,0,0,1-.33-.16l0,0a.46.46,0,0,1,0-.21.41.41,0,0,1,.82,0v0A.11.11,0,0,1,117.18,257.66Z" style="fill:#aab1e0"/><path d="M121.41,257.8l0,0a.47.47,0,0,0-.78.25v.08a.47.47,0,0,0,.93,0A.48.48,0,0,0,121.41,257.8Zm-.36.7a.41.41,0,0,1-.41-.41V258a.42.42,0,0,1,.41-.34.36.36,0,0,1,.28.12l0,0a.39.39,0,0,1,.09.26A.41.41,0,0,1,121.05,258.5Z" style="fill:#aab1e0"/><path d="M124.68,255.19a.46.46,0,0,0-.92,0,.43.43,0,0,0,.1.29l0,0a.49.49,0,0,0,.33.13.45.45,0,0,0,.46-.44v-.05Zm-.46.44a.45.45,0,0,1-.29-.12l0,0a.38.38,0,0,1-.09-.25.41.41,0,0,1,.41-.41.4.4,0,0,1,.41.38v.05A.41.41,0,0,1,124.22,255.63Z" style="fill:#aab1e0"/><path d="M128.74,254.89l0,0a.44.44,0,0,0-.3-.11.47.47,0,0,0-.46.44v.05a.46.46,0,0,0,.46.44.47.47,0,0,0,.47-.46A.49.49,0,0,0,128.74,254.89Zm-.34.74a.42.42,0,0,1-.41-.39v-.05a.41.41,0,0,1,.41-.38.39.39,0,0,1,.26.09l0,0a.44.44,0,0,1,.11.29A.41.41,0,0,1,128.4,255.63Z" style="fill:#aab1e0"/><path d="M91.59,265.69s-.68,1.18-1.48,1.15a4.84,4.84,0,0,0-1.86.55c-.38.18-1.73.34-1.51.77S89,268,89.43,268s-.72,1.52-.7,2,2.84,2,3.51.87.59-2.8.75-3a7.73,7.73,0,0,0,.52-.83Z" style="fill:#eea886"/><path d="M88.82,269.63a29.67,29.67,0,0,0-1.71,4c.1.34.31.41.5.07s1.85-3.5,1.85-3.5-1.37,4.66-1.36,4.95.42.34.53.17,1.75-4.73,1.75-4.73-1.27,4.35-1.18,4.59a.34.34,0,0,0,.61-.05c.12-.31,1.54-4.3,1.54-4.3s-.71,3.22-.51,3.37.47.26.62-.58.75-2.77.75-2.77Z" style="fill:#eea886"/><path d="M122.67,317.33a8.15,8.15,0,0,0,3.37,2.26c1.7.4,2.89.89,2.9,2s-4.89,1.78-6.83.69c-2.9-1.61-3.2-1.12-3.52-1.93s.39-3,.37-3.22S122.67,317.33,122.67,317.33Z" style="fill:#202338"/><path d="M122.48,316.44a8.79,8.79,0,0,1,.19.89s-3.83.48-3.71-.23.22-1.18.22-1.18Z" style="fill:#81807e"/><path d="M105.55,316.92a7.73,7.73,0,0,1,.13.86s-3.85.7-3.83,0a3.41,3.41,0,0,1,.35-1.2Z" style="fill:#81807e"/><path d="M119,264.05s1.38,13.41,2.1,18c.84,5.37,1.12,9.8,1.36,12.58.29,3.49.35,20.67.55,21.69s-4.57.28-4.57.28-2.35-22.44-3.22-26.16c-.82-3.47-3.85-18.38-4.6-17.43s-1.66,17.4-2.22,20.13-2.22,24.12-2.22,24.12-3.81.75-4.82-.1c0,0-.46-18.43-.11-23.55.14-2-2.28-23.4.82-32C103.74,257,119,264.05,119,264.05Z" style="fill:#292c47"/><path d="M92.09,265.94s1,1.2,2,1,5-12.61,5.09-15.1a63.82,63.82,0,0,1,1.13-7.35h0a50.39,50.39,0,0,1,1.65,8.58c.05,2.76-.17,12.24-.17,12.24l3.7,1,11.79.11,2.7-1.1s-.3-3.05-.41-5.19c-.07-1.36-.33-3.8-.26-6.17a21.49,21.49,0,0,1,.2-3.58c0-4.76.32-9.47.32-9.47q.24-3.24.33-6.06c-.52-.27-1.14-.6-1.65-.83-1.55-.74-3.7-1.74-5.09-2.37-.81-.37-1.6-.65-1.6-.65s-5.54-.53-6-.5a14.18,14.18,0,0,0-1.74.6,62.29,62.29,0,0,0-6.35,2.69c-.89.64-2.76,15.67-2.84,16.73C94.78,252.45,92.09,265.94,92.09,265.94Z" style="fill:#dbd8e3"/><path d="M119.65,264.36a98.08,98.08,0,0,1-15.2,0v2.33s10.57,1,15.56-.45Z" style="fill:#1d2033"/><path d="M112.74,231.38a44.52,44.52,0,0,1,2.31,10c.38,2.66,1.08,7.13,1.59,11.7h0c.41,3.6,1.33,7.3,1.62,10s1.22,11.27,1.22,11.27l2.21-1.4c.32-.29.76-.67.63-1.08a119.49,119.49,0,0,1-2.46-14.15h0c0-.27-.07-.54-.1-.81v0c-.13-1.14-.24-2.22-.32-3.22a10.43,10.43,0,0,1,.1-2.24c.31-5.09.46-10.45.46-10.45.17-2.2.26-4.25.32-6.16C120.32,234.86,113.37,231.57,112.74,231.38Z" style="fill:#323657"/><path d="M99.37,252c-.17,2.31-4.4,15.79-5,15.73a40.88,40.88,0,0,1-4.3-1.14s4.08-13.71,4.23-15.15c.1-1,1.77-16.83,2.66-17.46.51-.36,4.29-1.71,6.15-2.44l1.76-.67c.39.44,3.14,3.42,4.1,14.73a71.68,71.68,0,0,1-.69,9.25c-.36,3.51-.76,6.26-1.06,9.2-.58,5.79-1,10.4-1,10.4l-5.76-2.57c-.93-.47-2.23-2.38-1.87-3.36,1.33-3.74,3-10.11,3-13.39,0,0-.64-8-1.15-9.78A49.57,49.57,0,0,0,99.37,252Z" style="fill:#323657"/><path d="M109.29,216.47s5.78-2.14,5.42,5.54-1.72,8.46-5.52,7.39-4.12-5.92-4.62-8.25S107.4,216.8,109.29,216.47Z" style="fill:#eea886"/><path d="M105.38,225s0-2.05.83-2.24,1.3,1,1.3,1l.68,0s-.61-2.08.2-2.56,5.68-.06,6.29-.76-.27-4.86-1.6-5.26-5-1.24-7.26.81c0,0-2,0-2.08,1.67A22,22,0,0,0,105.38,225Z" style="fill:#434343"/><path d="M107.18,221.85c-.26-.68-1.7-.6-1.55.48s1.34,2.72,1.82,2.41S107.53,222.78,107.18,221.85Z" style="fill:#eea886"/><path d="M106.37,231.13s.51-.42-.22-4.27c-.2-1,5.43,1.23,5.43,1.23s0,.85,0,1.69c0,.38,0,.76,0,1.06a3.18,3.18,0,0,0,.21.74C112,232.17,108.45,232.62,106.37,231.13Z" style="fill:#eea987"/><path d="M111.58,230.84a4.8,4.8,0,0,1-4.49-2.69,6.29,6.29,0,0,0,4.45,1.63C111.54,230.16,111.55,230.54,111.58,230.84Z" style="fill:#a77860"/><path d="M110.22,233.12l1,1.38a1.25,1.25,0,0,1-1.67.21Z" style="fill:#5282fc"/><path d="M111,234.55s3.8,14.61,3,26l-1.28,2.25-1.2-2.36s-.32-20.34-1.36-25.91Z" style="fill:#5282fc"/><path d="M111.32,231.84l-1.1,1.28s-1.76-.34-2.27-1.26S111.32,231.84,111.32,231.84Z" style="fill:#eea987"/><path d="M111.57,230.72a5.28,5.28,0,0,1-1.35,2.4l1.33,1.79.72-3.71Z" style="fill:#c4c1cc"/><path d="M106.53,229.72s1.92,2.7,3.69,3.4l-.82,2-3.78-4.57Z" style="fill:#c4c1cc"/><polygon points="385.75 318.03 381.07 286.96 381.98 286.82 386.65 317.89 385.75 318.03" style="fill:#5c5049"/><polygon points="380.04 318.03 375.37 286.96 376.27 286.82 380.94 317.89 380.04 318.03" style="fill:#5c5049"/><polygon points="351.94 318.03 351.04 317.89 355.71 286.82 356.62 286.96 351.94 318.03" style="fill:#5c5049"/><path d="M382.54,287.28l3.66-38.5a72.9,72.9,0,0,0-10.27-.63l-5.81,39.13Z" style="fill:#fab46c"/><rect x="370.12" y="285.32" width="12.42" height="1.96" style="fill:#fab46c"/><path d="M362,285.71,360.05,249s16.2-1.76,26.15-.24Z" style="fill:#fab46c"/><path d="M374.93,237.14s2.5-7.34-2.28-9.61a7.38,7.38,0,0,0-9.59,2.79c-.76,1.78-.56,5,.09,7.27s.56,5.69-.86,6.84a7.94,7.94,0,0,0-3.09,6.94c.06,2.4,9.48-6.17,9.48-6.17Z" style="fill:#fccca2"/><path d="M368.56,316.07s-.15,5.19.59,5.5,3.54-1.49,4.78-3.27-1.55-5.94-2-8.23c-.19-.95-2.37-2.68-3.43-2.18a5.19,5.19,0,0,0-1.84,1.76S369.35,311.5,368.56,316.07Z" style="fill:#d4c3bd"/><path d="M366.65,309.65a28.7,28.7,0,0,1,1.4,3.14c.47,1.37.56,5.17.86,5.43s2.64-.92,2.95-2.34-.64-4.26-1.54-5.75a9.17,9.17,0,0,0-1.83-2.24A2.36,2.36,0,0,0,366.65,309.65Z" style="fill:#de9673"/><polygon points="371.92 310.07 374.44 313.76 373.96 314.08 372.01 311.24 371.92 310.07" style="fill:#d4c3bd"/><path d="M362.84,269.37s1.23,2.08,0,3.59-9.53,5.69-9.47,8.09a20.64,20.64,0,0,0,2.13,7.13c.55,1,2.56,4.92,3.6,7.24s7.1,13.43,8.29,15.93.45-10,.45-10l-6-17.75,14.14-13.77S374.22,266,362.84,269.37Z" style="fill:#de9673"/><path d="M368.22,245.86a27.21,27.21,0,0,0-5.48,1.78c-1.56.91-5,5.1-5,6.9S372.85,258,372.85,258l2.86,10.47s7.65-1.87,8.56-3.41-3-12.56-3.56-14.88-3.41-3.89-6.59-4.34A22.15,22.15,0,0,0,368.22,245.86Z" style="fill:#1b4d8f"/><path d="M377.49,269.71s-.27,1.79.46,2.55,4.08,5.18,2.3,9.52c-1.63,4-4.79,3.92-4.79,3.92h-4.89s1.41,7.18,1,11.91-2.62,15.54-2.67,16.08-2.07,2.25-2.66,1.39c0,0-.05-6.51-.37-9s-1.68-12.29-2.08-13.74-2.83-5.87-2.83-6.33-2.35-7.58,2.79-9.4S370.67,269.75,377.49,269.71Z" style="fill:#eea886"/><path d="M363.77,320.1s-3.38,3.94-3,4.64,3.69,1.07,5.77.46,2.53-5.58,3.61-7.65c.46-.86-.15-3.57-1.29-3.86a5.19,5.19,0,0,0-2.53.22S367.27,317,363.77,320.1Z" style="fill:#e6d3cc"/><path d="M366.33,313.91a29.4,29.4,0,0,1-.89,3.31c-.5,1.37-2.82,4.38-2.76,4.77s2.64.95,3.78,0,2.18-3.71,2.41-5.45a9.11,9.11,0,0,0,0-2.89A2.35,2.35,0,0,0,366.33,313.91Z" style="fill:#eea886"/><polygon points="370.15 317.55 369.8 322 369.22 321.95 369.5 318.51 370.15 317.55" style="fill:#e6d3cc"/><path d="M380.25,281.78c-1.54,4-4.79,3.92-4.79,3.92h-4.89a9.71,9.71,0,0,0-7.05-3.8,15.17,15.17,0,0,0-3.77.09h-.05c-6.64,1-5.36,3.42-5.34,3.49a12,12,0,0,1-1-4.65c.64-5.26,8.24-6.36,9.47-7.88s0-3.59,0-3.59c11.38-3.36,13.09.45,13.09.45.5-.07,1.78-.81,2.32-.81,0,0,.57,1.24,1,2.37S381.92,277.4,380.25,281.78Z" style="fill:#1b4d8f"/><polygon points="375.53 252.84 377.21 268.49 355.06 268.49 353.37 252.84 375.53 252.84" style="fill:#ded1c5"/><rect x="375.28" y="267.08" width="3.7" height="1.41" style="fill:#ded1c5"/><rect x="339.78" y="268.49" width="70.57" height="2.13" style="fill:#bc8551"/><path d="M370.67,228.78s5,1.47,4.26,8.36-4,6.53-4.26,6.58-4.15.31-5.37-8.05S370.67,228.78,370.67,228.78Z" style="fill:#eea886"/><path d="M373,242.46a11.26,11.26,0,0,0,.17,3.7c.44,1.42-5.78,1.45-5.78.29,0-1.33.64-2.43,0-4.71S373,242.46,373,242.46Z" style="fill:#eea886"/><path d="M369.39,231.85s2.69,4.29,5.54,5.29c0,0,1.55-7.2-4.86-8.71s-5.4,7.27-4.92,9.61A19,19,0,0,1,369.39,231.85Z" style="fill:#fccca2"/><path d="M368.21,242.75a3.37,3.37,0,0,0,4.48.21,2,2,0,0,1-2,1.48A2.51,2.51,0,0,1,368.21,242.75Z" style="fill:#a77860"/><path d="M365.77,231.21s1.42-2.75,3.82-2.88a4.75,4.75,0,0,1,3.82,2,4.07,4.07,0,0,0-3.82-2.34C366.71,228,365.77,231.21,365.77,231.21Z" style="fill:#23344a"/><path d="M373.85,245.83s-.09,4.77-3.87,4.91-3-4.57-3-4.57A13.07,13.07,0,0,1,373.85,245.83Z" style="fill:#eea886"/><rect x="408.79" y="270.62" width="1.57" height="53.79" style="fill:#807066"/><rect x="339.78" y="270.62" width="1.57" height="53.79" style="fill:#807066"/><path d="M282.25,280A14.83,14.83,0,0,0,280,282.7c-1.07,1.61-3.93,1.7-4.05,3.9s3.88,2.27,6,1.56,2.42-2.87,3.69-3.41,1.94-1,1.84-2a13,13,0,0,0-.8-2.76,8.17,8.17,0,0,1-1.26.31A10.39,10.39,0,0,1,282.25,280Z" style="fill:#fff"/><path d="M296.68,220.29s-.81,4.79-1.46,8h0a18.06,18.06,0,0,1-.65,2.63,36,36,0,0,1-3.55,3.93c-3.25,3.35-7.55,7.57-7.55,7.57l-1.68-3.19s3.82-4.48,6.4-7.46c1.2-1.38,2.13-2.44,2.31-2.6.54-.48,1.17-5.25,2.05-9.18a15.78,15.78,0,0,1,2.65-6.1Z" style="fill:#e64053"/><path d="M291,234.81c-3.25,3.35-7.55,7.57-7.55,7.57l-1.68-3.19s3.82-4.48,6.4-7.46A5.44,5.44,0,0,1,291,234.81Z" style="fill:#eea886"/><path d="M311.87,278.72s1.11,1.22,1.76,2,3.15,2.06,3.17,4.26c0,2.38-1.85,2.17-3.5,2.09a4.58,4.58,0,0,1-3.7-2.58c-.7-1.35-2.55-1.71-2.68-2.8a7.58,7.58,0,0,1,.86-3Z" style="fill:#fff"/><path d="M308,276.58l-.21,2s3.45,1.5,4.09.11l-.15-1.81Z" style="fill:#5f8cc9"/><path d="M282.44,278.56l-.19,1.47a7.21,7.21,0,0,0,4.39-.07l0-1.3Z" style="fill:#5f8cc9"/><path d="M312.07,241.73c.12.42-22.11,0-22.11,0s6.15-4.48,6.55-5.67-1.57-8.37-1.82-10.71c-.21-1.86-.72-10.22.51-11.5s5.92-2.73,5.92-2.73l6.75.25a11,11,0,0,1,1.92.61c.79.37,5.35,2,6.09,4.27s-4.55,9.6-4.55,9.6,0,.32,0,.86h0c0,.72-.05,1.82-.08,3,0,1.54-.07,3.23-.07,4.46A44,44,0,0,0,312.07,241.73Z" style="fill:#e64053"/><path d="M312.07,241.73s3,4.44,3.06,7.47-1.12,11.44-1.2,13.1-1.65,15.54-1.65,15.54-1.21,1.13-4.84-.28c0,0-.8-13.16-.89-14.57s-.08-7.9-.9-8.84-5.72-3.88-6.36-4.44-11.8,2.11-13,2.41c-3,.79-1.65,6.05-1,8.42,1.12,3.95,2.1,18.21,2.1,18.21a10.31,10.31,0,0,1-5.77.15s-7.09-25.76-7.32-28.33-.34-6.78,17.14-10Z" style="fill:#1b4d8f"/><path d="M303,196.44s-5.86-1.32-4.52,6.06,2.75,8,6.28,6.43,3.23-6.25,3.4-8.57S304.84,196.52,303,196.44Z" style="fill:#eea886"/><path d="M301.42,213s2.6,2.75,6.7.25c0,0-.92-6-.43-8.88s-5.36,4.51-5.36,4.51.13.31.14.71a8.46,8.46,0,0,1-.06,1.18C302.29,211.76,302,212.78,301.42,213Z" style="fill:#eea886"/><path d="M306.12,201.52a.75.75,0,0,1,1.47.09c.1,1-.59,2.69-1.08,2.52S306,202.42,306.12,201.52Z" style="fill:#eea886"/><path d="M307.85,204.15s-.15-2.33-1-2.4-1,.86-1,.86l-.86.16s.27-2-.58-2.39-5.49,1.12-6.17.52-.36-4.73.87-5.29,4.63-1.84,7.12-.15c0,0,1.94-.22,2.23,1.34A21.45,21.45,0,0,1,307.85,204.15Z" style="fill:#3a3f47"/><path d="M302.41,210.79c4.24-1.3,4.55-3.85,4.56-3.89a6.42,6.42,0,0,1-4.5,2.71A8.46,8.46,0,0,1,302.41,210.79Z" style="fill:#a77860"/><path d="M309.86,212s-3.11,6.17-8.11,5.77-.86-6.6-.63-6.66S306.26,209.84,309.86,212Z" style="fill:#eea886"/><path d="M287.42,241.41s15.35,1.9,24.65.32l-17.77-2.22S294.19,240,287.42,241.41Z" style="fill:#e64053"/><path d="M298.9,238.81l-1.15.58a5.31,5.31,0,0,0,.89,2.36l1.28-.32S299.66,239.43,298.9,238.81Z" style="fill:#eea886"/><path d="M316.66,235.09a58.81,58.81,0,0,1-6.66,2.79h0c-4.65,1.79-9.91,3.49-9.91,3.49l-1.19-2.56s5.5-3,9.22-5.09c1.75-1,3.11-1.78,3.3-2,.6-.57.75-1.48.32-3.08s-1.46-8.91-1.57-9.76.29-3.13,2.42-3.24a6.4,6.4,0,0,1,3.22.48s.54.23.93,5.41S317.2,234.46,316.66,235.09Z" style="fill:#e64053"/><path d="M311.31,226.71h0c0,.72-.05,1.82-.08,3a14.92,14.92,0,0,1-.86-9.25C310.14,221.84,311.29,226.64,311.31,226.71Z" style="fill:#a32d3b"/><path d="M295.22,228.25h0a18.06,18.06,0,0,1-.65,2.63,27.18,27.18,0,0,1-.07-7.86A44.88,44.88,0,0,0,295.22,228.25Z" style="fill:#a32d3b"/><path d="M310,237.88h0c-4.65,1.79-10.08,3.55-10.08,3.55l-1-2.62s5.5-3,9.22-5.09C308.12,233.72,309.47,234.38,310,237.88Z" style="fill:#eea886"/><polygon points="298.57 241.58 276.75 241.26 287.76 246.85 298.57 241.58" style="fill:#5e5853"/><polygon points="287.76 246.85 298.57 242.67 298.57 241.58 286.91 245.78 287.76 246.85" style="fill:#91887f"/><path d="M298,239.43s-1.36-.21-2.3-.43a4.72,4.72,0,0,0-3,.53c-.46.46-1.93,3.72-2.2,3.92s.14.66.63.43c0,0,.44,1.43,1.55.89s1.85-1.7,2.43-1.9,3.95-1.24,3.95-1.24S298.87,239.08,298,239.43Z" style="fill:#eea886"/><path d="M293,239.31a9.74,9.74,0,0,0-1.11.62c-.22.18-1.15.88-1.38,1s.34.63,2-.09S293,239.31,293,239.31Z" style="fill:#eea886"/><polygon points="287.76 246.85 281.28 229.13 260.36 229.47 266.54 245.8 287.76 246.85" style="fill:#6e6760"/><path d="M274.58,237c.64,1.28.45,2.67-.43,3.11s-2.1-.25-2.74-1.52-.45-2.67.43-3.11S273.94,235.69,274.58,237Z" style="fill:#807066"/></g></svg>