<svg xmlns="http://www.w3.org/2000/svg" xmlns:xlink="http://www.w3.org/1999/xlink" viewBox="0 0 544 362"><defs><clipPath id="a"><rect x="397.8" y="151.42" width="16.89" height="103.61" transform="translate(140.39 -165.09) rotate(27.6)" style="fill:none"/></clipPath><linearGradient id="b" x1="380.4" y1="86.1" x2="416.21" y2="86.1" gradientUnits="userSpaceOnUse"><stop offset="0.01" stop-color="#fc6b76"/><stop offset="1" stop-color="#ee3569"/></linearGradient></defs><title>batch-booking</title><g style="isolation:isolate"><path d="M111,145.4c3.88-9.37-17.36-15.16-41.23,12.47-20.92,24.22-33.63,78.52,19.4,128.32C145,338.55,391.5,366.14,459,247.16,517.94,143.34,426.23,142.08,392.7,141c-83.59-2.75-64.68-182-190.23-24.44C145.58,188,96.53,180.31,111,145.4Z" style="fill:#cee8f4;fill-rule:evenodd"/><path d="M423.07,258.26s22.56-21.79,29.95-46.95c7.14-24.31,9.81,17.46-20.13,52.11S412.27,271,423.07,258.26Z" style="fill:#fff;fill-rule:evenodd"/><path d="M454.53,137.08s23.91,2.51,33.27,16.65c13.27,20,4.74,53.89-3.88,69.93s9.08,11.18,18.78-26-3.61-63-35.17-69.5S426.1,136.06,454.53,137.08Z" style="fill:#cee8f4;fill-rule:evenodd"/><path d="M474.06,248.18a165.8,165.8,0,0,1-8.19,15.37c-4.34,7-.48,9.86,7.11.8S477.54,241.18,474.06,248.18Z" style="fill:#cee8f4;fill-rule:evenodd"/><path d="M43.35,180.86s12.29-35,41.46-51.4S73.2,118.75,54.92,142.35C33.76,169.66,36.11,200.49,43.35,180.86Z" style="fill:#cee8f4;fill-rule:evenodd"/><path d="M102.29,118s3-6.4,12.9-3.93C123.56,116.17,98.86,124.18,102.29,118Z" style="fill:#cee8f4;fill-rule:evenodd"/><path d="M458.67,197.2s2.21-6.94.23-11.17-3.47,3-3.27,6.15S456.51,202.74,458.67,197.2Z" style="fill:#fff;fill-rule:evenodd"/><rect x="397.8" y="151.42" width="16.89" height="103.61" transform="translate(140.39 -165.09) rotate(27.6)" style="fill:#ccc"/><g style="clip-path:url(#a)"><rect x="431.74" y="165.06" width="6.66" height="1.46" transform="translate(126.32 -182.7) rotate(27.6)" style="fill:#999"/><rect x="425.57" y="176.86" width="6.66" height="1.46" transform="translate(131.09 -178.5) rotate(27.6)" style="fill:#999"/><rect x="431.58" y="170.28" width="6.66" height="1.46" transform="translate(128.72 -182.03) rotate(27.6)" style="fill:#999"/><rect x="429.39" y="174.46" width="6.66" height="1.46" transform="translate(130.41 -180.55) rotate(27.6)" style="fill:#999"/><rect x="419.24" y="188.97" width="6.66" height="1.46" transform="translate(135.98 -174.19) rotate(27.6)" style="fill:#999"/><rect x="425.25" y="182.39" width="6.66" height="1.46" transform="translate(133.61 -177.72) rotate(27.6)" style="fill:#999"/><rect x="423.06" y="186.57" width="6.66" height="1.46" transform="translate(135.3 -176.23) rotate(27.6)" style="fill:#999"/><rect x="412.91" y="201.07" width="6.66" height="1.46" transform="translate(140.87 -169.88) rotate(27.6)" style="fill:#999"/><rect x="418.92" y="194.5" width="6.66" height="1.46" transform="translate(138.5 -173.41) rotate(27.6)" style="fill:#999"/><rect x="416.73" y="198.67" width="6.66" height="1.46" transform="translate(140.19 -171.92) rotate(27.6)" style="fill:#999"/><rect x="406.58" y="213.18" width="6.66" height="1.46" transform="translate(145.75 -165.57) rotate(27.6)" style="fill:#999"/><rect x="412.59" y="206.61" width="6.66" height="1.46" transform="translate(143.39 -169.1) rotate(27.6)" style="fill:#999"/><rect x="410.4" y="210.78" width="6.66" height="1.46" transform="translate(145.08 -167.61) rotate(27.6)" style="fill:#999"/><rect x="400.25" y="225.29" width="6.66" height="1.46" transform="translate(150.64 -161.26) rotate(27.6)" style="fill:#999"/><rect x="406.25" y="218.72" width="6.66" height="1.46" transform="translate(148.28 -164.79) rotate(27.6)" style="fill:#999"/><rect x="404.07" y="222.89" width="6.66" height="1.46" transform="translate(149.97 -163.3) rotate(27.6)" style="fill:#999"/><rect x="393.92" y="237.4" width="6.66" height="1.46" transform="translate(155.53 -156.95) rotate(27.6)" style="fill:#999"/><rect x="399.92" y="230.82" width="6.66" height="1.46" transform="translate(153.17 -160.48) rotate(27.6)" style="fill:#999"/><rect x="397.74" y="235" width="6.66" height="1.46" transform="translate(154.86 -158.99) rotate(27.6)" style="fill:#999"/><rect x="387.59" y="249.51" width="6.66" height="1.46" transform="translate(160.42 -152.64) rotate(27.6)" style="fill:#999"/><rect x="393.59" y="242.93" width="6.66" height="1.46" transform="translate(158.06 -156.17) rotate(27.6)" style="fill:#999"/><rect x="391.41" y="247.11" width="6.66" height="1.46" transform="translate(159.75 -154.68) rotate(27.6)" style="fill:#999"/></g><polygon points="370.93 230.82 371.03 244.9 379.56 233.7 370.93 230.82" style="fill:#b9a2ba"/><rect x="392.44" y="159.61" width="8.93" height="14.78" rx="2.34" transform="translate(73.16 -116.92) rotate(18.43)" style="fill:#7d677f"/><rect x="380.46" y="172.11" width="9.09" height="61.73" transform="translate(83.93 -111.32) rotate(18.43)" style="fill:#7d677f"/><path d="M395.27,197.85c-2.8-4.68,11-20.41,9.92-23.83a4.59,4.59,0,0,0-3.73-3l1.36-4.06-10.63-3.55-4.68,14L398.14,181l.08.08-6.72,21.18S398.07,202.54,395.27,197.85Z" style="fill:#b9a2ba"/><polygon points="386.19 270.26 359.01 258.94 376.88 204.72 412.07 219.37 386.19 270.26" style="fill:#0071bc"/><rect x="372.13" y="211.82" width="42" height="8.01" transform="translate(113.11 -134.49) rotate(22.6)" style="fill:#29abe2"/><path d="M365.87,274c3.07-.57-1.16-4.42-5.39-7.63q1,3.9,2.4,7.62A11,11,0,0,0,365.87,274Z" style="fill:#b0d0ff"/><path d="M377.25,262.62s-1.6,3.39.37,5.2l-26.49.09.06-4.87Z" style="fill:#fff"/><path d="M377.55,245.05s-1.6,3.39.37,5.2l-26.48.09.05-4.87Z" style="fill:#fff"/><polygon points="378.28 243.16 378.3 245.32 351.49 245.47 351.52 250.07 378.32 249.91 378.33 252.07 348.74 252.24 348.74 252.16 348.73 250.08 348.7 245.49 348.69 243.33 378.28 243.16" style="fill:#4f64b1"/><line x1="376.17" y1="246.28" x2="352.41" y2="246.41" style="fill:#cae0ff"/><rect x="352.41" y="246.14" width="23.76" height="0.41" transform="translate(-1.41 2.1) rotate(-0.33)" style="fill:#162659"/><line x1="376.18" y1="247.54" x2="352.42" y2="247.68" style="fill:#cae0ff"/><rect x="352.42" y="247.41" width="23.76" height="0.41" transform="translate(-1.42 2.1) rotate(-0.33)" style="fill:#162659"/><line x1="376.19" y1="248.76" x2="352.42" y2="248.9" style="fill:#cae0ff"/><rect x="352.42" y="248.62" width="23.76" height="0.41" transform="translate(-1.42 2.1) rotate(-0.33)" style="fill:#162659"/><rect x="352.16" y="263.88" width="23.77" height="0.41" transform="translate(-1.51 2.09) rotate(-0.33)" style="fill:#a29b00"/><rect x="352.16" y="265.15" width="23.76" height="0.41" transform="translate(-1.52 2.09) rotate(-0.33)" style="fill:#a29b00"/><rect x="352.17" y="266.36" width="23.77" height="0.41" transform="translate(-1.52 2.09) rotate(-0.33)" style="fill:#a29b00"/><path d="M374.23,254s-1.61,3.39.36,5.2l-26.48.08.05-4.86Z" style="fill:#fff"/><polygon points="374.96 252.09 374.97 254.26 348.17 254.41 348.19 259 375 258.85 375.01 261.01 345.42 261.18 345.42 261.1 345.4 259.02 345.38 254.43 345.37 252.26 374.96 252.09" style="fill:#00f7e5"/><rect x="349.08" y="255.08" width="23.77" height="0.41" transform="translate(-1.46 2.08) rotate(-0.33)" style="fill:#162659"/><rect x="349.09" y="256.35" width="23.77" height="0.41" transform="translate(-1.47 2.08) rotate(-0.33)" style="fill:#162659"/><rect x="349.1" y="257.56" width="23.76" height="0.41" transform="translate(-1.47 2.08) rotate(-0.33)" style="fill:#162659"/><polygon points="377.98 260.72 377.99 262.89 351.19 263.04 351.21 267.63 378.02 267.48 378.03 269.64 348.44 269.81 348.44 269.73 348.43 267.65 348.4 263.06 348.39 260.89 377.98 260.72" style="fill:#859ce8"/><path d="M381.59,237.94s-1.6,3.39.37,5.2l-26.48.09,0-4.87Z" style="fill:#fff"/><path d="M381.9,220.37s-1.6,3.39.37,5.2l-26.49.09.06-4.87Z" style="fill:#fff"/><polygon points="382.63 218.48 382.64 220.64 355.84 220.79 355.86 225.39 382.67 225.23 382.68 227.39 353.09 227.56 353.09 227.48 353.08 225.4 353.05 220.81 353.04 218.65 382.63 218.48" style="fill:#4f64b1"/><line x1="380.52" y1="221.6" x2="356.76" y2="221.73" style="fill:#cae0ff"/><rect x="356.76" y="221.46" width="23.76" height="0.41" transform="translate(-1.27 2.12) rotate(-0.33)" style="fill:#162659"/><line x1="380.53" y1="222.86" x2="356.76" y2="223" style="fill:#cae0ff"/><rect x="356.76" y="222.73" width="23.77" height="0.41" transform="translate(-1.27 2.12) rotate(-0.33)" style="fill:#162659"/><line x1="380.53" y1="224.08" x2="356.77" y2="224.22" style="fill:#cae0ff"/><rect x="356.77" y="223.94" width="23.76" height="0.41" transform="translate(-1.28 2.12) rotate(-0.33)" style="fill:#162659"/><rect x="356.5" y="239.2" width="23.76" height="0.41" transform="translate(-1.37 2.12) rotate(-0.33)" style="fill:#a29b00"/><rect x="356.51" y="240.47" width="23.76" height="0.41" transform="translate(-1.38 2.12) rotate(-0.33)" style="fill:#a29b00"/><rect x="356.52" y="241.68" width="23.77" height="0.41" transform="translate(-1.38 2.12) rotate(-0.33)" style="fill:#a29b00"/><path d="M378.57,229.31s-1.6,3.39.37,5.2l-26.49.08.06-4.86Z" style="fill:#fff"/><polygon points="379.3 227.41 379.32 229.58 352.51 229.73 352.54 234.32 379.34 234.17 379.36 236.33 349.76 236.5 349.76 236.42 349.75 234.34 349.72 229.75 349.71 227.58 379.3 227.41" style="fill:#fb9844"/><rect x="353.43" y="230.4" width="23.77" height="0.41" transform="translate(-1.32 2.1) rotate(-0.33)" style="fill:#162659"/><rect x="353.44" y="231.67" width="23.77" height="0.41" transform="translate(-1.32 2.1) rotate(-0.33)" style="fill:#162659"/><rect x="353.44" y="232.88" width="23.77" height="0.41" transform="translate(-1.33 2.1) rotate(-0.33)" style="fill:#162659"/><polygon points="382.33 236.04 382.34 238.21 355.53 238.36 355.56 242.96 382.37 242.8 382.38 244.96 352.79 245.13 352.79 245.05 352.77 242.97 352.75 238.38 352.73 236.21 382.33 236.04" style="fill:#2f3655"/><path d="M155.45,270.4l-61.85-8c-4.54-.59-2.73-14.49,1.81-13.91l61.85,8Z" style="fill:#662d91"/><path d="M155.64,269l-59-7.67c-4.33-.56-3-11.2,1.38-10.64l59,7.67Z" style="fill:#eff4f4"/><path d="M156,260l-58.28-7.57a.52.52,0,0,1-.44-.57h0a.51.51,0,0,1,.57-.44L156.14,259a.52.52,0,0,1,.44.57h0A.52.52,0,0,1,156,260Z" style="fill:#ccc"/><path d="M155.74,262l-58.28-7.56a.52.52,0,0,1-.44-.58h0a.51.51,0,0,1,.57-.44L155.87,261a.51.51,0,0,1,.44.57h0A.5.5,0,0,1,155.74,262Z" style="fill:#ccc"/><path d="M155.48,264,97.2,256.44a.52.52,0,0,1-.45-.57h0a.52.52,0,0,1,.58-.44L155.61,263a.5.5,0,0,1,.44.57h0A.51.51,0,0,1,155.48,264Z" style="fill:#ccc"/><path d="M155.21,266l-58.28-7.57a.51.51,0,0,1-.44-.57h0a.51.51,0,0,1,.57-.44L155.35,265a.52.52,0,0,1,.44.57h0A.52.52,0,0,1,155.21,266Z" style="fill:#ccc"/><path d="M155,268.06,96.67,260.5a.52.52,0,0,1-.44-.58h0a.52.52,0,0,1,.57-.44l58.28,7.57a.51.51,0,0,1,.44.57h0A.5.5,0,0,1,155,268.06Z" style="fill:#ccc"/><path d="M114.73,238.25l50.5,6.25c3.71.46,2.31,11.82-1.4,11.36l-50.5-6.25Z" style="fill:#fc6b76"/><path d="M114.59,239.41l48.2,6c3.53.44,2.46,9.13-1.08,8.69l-48.19-6Z" style="fill:#eff4f4"/><path d="M114.33,246.77l47.59,5.89a.43.43,0,0,1,.37.46h0a.43.43,0,0,1-.47.37l-47.59-5.89a.42.42,0,0,1-.36-.47h0A.42.42,0,0,1,114.33,246.77Z" style="fill:#ccc"/><path d="M114.54,245.12,162.13,251a.4.4,0,0,1,.36.46h0a.41.41,0,0,1-.46.36l-47.59-5.89a.42.42,0,0,1-.37-.46h0A.42.42,0,0,1,114.54,245.12Z" style="fill:#ccc"/><path d="M114.74,243.46l47.59,5.89a.43.43,0,0,1,.37.47h0a.43.43,0,0,1-.47.36l-47.59-5.89a.42.42,0,0,1-.36-.47h0A.42.42,0,0,1,114.74,243.46Z" style="fill:#ccc"/><path d="M115,241.81l47.59,5.89a.4.4,0,0,1,.36.46h0a.41.41,0,0,1-.46.36l-47.59-5.89a.42.42,0,0,1-.37-.46h0A.42.42,0,0,1,115,241.81Z" style="fill:#ccc"/><path d="M115.15,240.15,162.74,246a.42.42,0,0,1,.36.47h0a.41.41,0,0,1-.46.36L115.05,241a.42.42,0,0,1-.36-.47h0A.42.42,0,0,1,115.15,240.15Z" style="fill:#ccc"/><path d="M108.35,275.42,159,270.59c3.72-.35,4.8,11,1.09,11.39l-50.66,4.83Z" style="fill:#fc6b76"/><path d="M108.46,276.58,156.81,272c3.55-.34,4.38,8.38.83,8.72L109.3,285.3Z" style="fill:#eff4f4"/><path d="M109.81,283.82l47.73-4.55a.42.42,0,0,1,.46.38h0a.42.42,0,0,1-.38.45l-47.73,4.55a.41.41,0,0,1-.46-.37h0A.43.43,0,0,1,109.81,283.82Z" style="fill:#ccc"/><path d="M109.65,282.16l47.74-4.55a.42.42,0,0,1,.45.38h0a.42.42,0,0,1-.38.45L109.73,283a.42.42,0,0,1-.46-.37h0A.43.43,0,0,1,109.65,282.16Z" style="fill:#ccc"/><path d="M109.49,280.5,157.23,276a.42.42,0,0,1,.45.38h0a.41.41,0,0,1-.37.45l-47.74,4.55a.4.4,0,0,1-.45-.37h0A.42.42,0,0,1,109.49,280.5Z" style="fill:#ccc"/><path d="M109.33,278.84l47.74-4.55a.42.42,0,0,1,.45.38h0a.41.41,0,0,1-.37.45l-47.74,4.55a.4.4,0,0,1-.45-.37h0A.43.43,0,0,1,109.33,278.84Z" style="fill:#ccc"/><path d="M109.17,277.18l47.74-4.55a.42.42,0,0,1,.45.38h0a.4.4,0,0,1-.37.45L109.25,278a.41.41,0,0,1-.45-.37h0A.43.43,0,0,1,109.17,277.18Z" style="fill:#ccc"/><path d="M132.57,258.6l.84.08a50.41,50.41,0,0,1,16.33-15.2,3.14,3.14,0,0,0,2.58-.37L151,241.78l-1.63-.15s-6.94,5.51-9.43,8.29-6.43,6.76-6.43,6.76Z" style="fill:#ba9bc9"/><path d="M168.2,223.67l.06.84a50.44,50.44,0,0,0-15.52,16,3.18,3.18,0,0,1-.42,2.58L151,241.78l-.11-1.64s5.64-6.82,8.48-9.26,6.88-6.3,6.88-6.3Z" style="fill:#ba9bc9"/><path d="M129.47,256.91l.94,1,.37-.36.86.87L132,258l.57.57s4.73-7.7,17.46-16.22l-1.49-3.13-6.79,3.6Z" style="fill:#fff"/><path d="M166.35,220.76l.94,1-.37.36.86.87-.37.36.57.58s-7.8,4.58-16.57,17.14l-3.1-1.56,3.73-6.71Z" style="fill:#fff"/><rect x="147.52" y="236.2" width="3.36" height="7.46" rx="1.68" transform="translate(-125.31 173.07) rotate(-44.44)" style="fill:#fff"/><path d="M167.3,220.86a92.93,92.93,0,0,0-18.76,18.39l-27.6-28.15a44.26,44.26,0,0,1,18.76-18.39Z" style="fill:#fff"/><path d="M129.78,257.64a84.28,84.28,0,0,1,18.76-18.39l-27.6-28.15a44.37,44.37,0,0,0-18.76,18.39Z" style="fill:#eff4f4"/><path d="M121.25,215a.18.18,0,0,1-.07.05,44.26,44.26,0,0,0-15.69,15.38.41.41,0,0,1-.72-.38,45.22,45.22,0,0,1,16-15.69.4.4,0,0,1,.48.64Z" style="fill:#ccc"/><path d="M123.87,217.67a.16.16,0,0,1-.08.06,44.38,44.38,0,0,0-15.69,15.38.41.41,0,0,1-.54.17.41.41,0,0,1-.17-.55,45.25,45.25,0,0,1,16-15.69.42.42,0,0,1,.56.14A.41.41,0,0,1,123.87,217.67Z" style="fill:#ccc"/><path d="M126.49,220.34a.24.24,0,0,1-.08.06,44.38,44.38,0,0,0-15.69,15.37.4.4,0,0,1-.71-.37,45,45,0,0,1,16-15.69.4.4,0,0,1,.55.14A.39.39,0,0,1,126.49,220.34Z" style="fill:#ccc"/><path d="M129.1,223l-.07.06a44.28,44.28,0,0,0-15.69,15.37.4.4,0,0,1-.72-.37,45.13,45.13,0,0,1,16-15.69.4.4,0,0,1,.48.63Z" style="fill:#ccc"/><path d="M131.72,225.68l-.08.06A44.4,44.4,0,0,0,116,241.11a.4.4,0,0,1-.71-.37,45.16,45.16,0,0,1,16-15.69.4.4,0,0,1,.49.63Z" style="fill:#ccc"/><path d="M134.34,228.35l-.08.06a44.29,44.29,0,0,0-15.69,15.37.4.4,0,0,1-.54.17.39.39,0,0,1-.17-.54,45,45,0,0,1,16-15.69.4.4,0,0,1,.49.63Z" style="fill:#ccc"/><path d="M137,231l-.07.06a44.19,44.19,0,0,0-15.69,15.37.4.4,0,0,1-.72-.37,45.13,45.13,0,0,1,16-15.69.39.39,0,0,1,.55.14A.41.41,0,0,1,137,231Z" style="fill:#ccc"/><path d="M139.57,233.69l-.08.06a44.4,44.4,0,0,0-15.69,15.37.41.41,0,0,1-.54.17.41.41,0,0,1-.17-.55,45.25,45.25,0,0,1,16-15.69.41.41,0,0,1,.49.64Z" style="fill:#ccc"/><path d="M142.19,236.36l-.08,0a44.26,44.26,0,0,0-15.69,15.38.41.41,0,0,1-.54.17.4.4,0,0,1-.17-.55,45.14,45.14,0,0,1,16-15.69.41.41,0,0,1,.49.64Z" style="fill:#ccc"/><path d="M144.8,239a.19.19,0,0,1-.07.06A44.36,44.36,0,0,0,129,254.46a.39.39,0,0,1-.54.16.41.41,0,0,1-.17-.54,45.22,45.22,0,0,1,16-15.69.4.4,0,0,1,.48.63Z" style="fill:#ccc"/><path d="M124.84,211.49l.06-.07A44.33,44.33,0,0,1,140.58,196a.4.4,0,1,0-.36-.71,45.15,45.15,0,0,0-16,15.68.4.4,0,0,0,.63.49Z" style="fill:#ccc"/><path d="M127.45,214.16a.13.13,0,0,0,.06-.07,44.41,44.41,0,0,1,15.68-15.39.4.4,0,0,0,.18-.54.42.42,0,0,0-.54-.18,45.19,45.19,0,0,0-16,15.68.41.41,0,0,0,.13.56A.39.39,0,0,0,127.45,214.16Z" style="fill:#ccc"/><path d="M130.07,216.83l.06-.07a44.41,44.41,0,0,1,15.68-15.39.4.4,0,1,0-.36-.72,45.19,45.19,0,0,0-16,15.68.41.41,0,0,0,.13.56A.39.39,0,0,0,130.07,216.83Z" style="fill:#ccc"/><path d="M132.69,219.5l.06-.07A44.33,44.33,0,0,1,148.43,204a.42.42,0,0,0,.18-.54.4.4,0,0,0-.54-.18,45.26,45.26,0,0,0-16,15.68.4.4,0,0,0,.13.55A.41.41,0,0,0,132.69,219.5Z" style="fill:#ccc"/><path d="M135.3,222.17l.06-.08A44.33,44.33,0,0,1,151,206.71a.4.4,0,0,0-.36-.72,45.19,45.19,0,0,0-16,15.68.4.4,0,0,0,.62.5Z" style="fill:#ccc"/><path d="M137.92,224.84l.06-.08a44.33,44.33,0,0,1,15.68-15.38.4.4,0,0,0-.36-.72,45.08,45.08,0,0,0-16,15.68.39.39,0,0,0,.13.55A.41.41,0,0,0,137.92,224.84Z" style="fill:#ccc"/><path d="M140.53,227.51a.21.21,0,0,0,.06-.08,44.31,44.31,0,0,1,15.69-15.38.42.42,0,0,0,.18-.54.4.4,0,0,0-.54-.18,45.15,45.15,0,0,0-16,15.68.39.39,0,0,0,.13.55A.4.4,0,0,0,140.53,227.51Z" style="fill:#ccc"/><path d="M143.15,230.18l.06-.08a44.22,44.22,0,0,1,15.68-15.38.4.4,0,0,0-.36-.72,45.08,45.08,0,0,0-16,15.68.4.4,0,0,0,.13.55A.41.41,0,0,0,143.15,230.18Z" style="fill:#ccc"/><path d="M145.77,232.84l.06-.07a44.33,44.33,0,0,1,15.68-15.39.39.39,0,0,0,.18-.53.4.4,0,0,0-.54-.18,45.17,45.17,0,0,0-16,15.67.43.43,0,0,0,.13.56A.41.41,0,0,0,145.77,232.84Z" style="fill:#ccc"/><path d="M148.38,235.51a.13.13,0,0,0,.06-.07,44.5,44.5,0,0,1,15.68-15.39.4.4,0,0,0-.35-.72,45.09,45.09,0,0,0-16,15.68.41.41,0,0,0,.13.56A.39.39,0,0,0,148.38,235.51Z" style="fill:#ccc"/><polygon points="120.16 223.07 124.49 230.51 125.61 221.97 120.16 223.07" style="fill:#fbb03b"/><rect x="111.82" y="176.76" width="5.46" height="9.04" rx="2.13" transform="translate(-33.45 26.1) rotate(-11.36)" style="fill:#fc6b76"/><rect x="116.38" y="185.12" width="5.56" height="37.77" transform="translate(-37.83 27.46) rotate(-11.36)" style="fill:#fcee21"/><rect x="111.79" y="180.08" width="6.85" height="9.04" transform="matrix(0.98, -0.2, 0.2, 0.98, -34.09, 26.3)" style="fill:#fbb03b"/><rect x="298.9" y="208.35" width="38.14" height="39.69" style="fill:#4f64b1"/><polygon points="326.31 299.23 325.54 307.35 329.21 307.93 331.72 300.3 326.31 299.23" style="fill:#fed4d5"/><path d="M359.46,185.8s-9.15,15.72-12.24,16.37S337,197,337,197l1.54-36.34s7,.77,8.25,5.28.39,24.1.39,24.1l10.44-6.18Z" style="fill:#2c5099"/><rect x="297.6" y="261.96" width="47.68" height="5.15" style="fill:#d87a1d"/><rect x="342.96" y="247.78" width="4.9" height="56.19" style="fill:#f7931e"/><rect x="296.57" y="247.78" width="4.9" height="56.19" style="fill:#f7931e"/><path d="M343.2,214.54a7.2,7.2,0,0,0,.54-2.71v-8.76a7.09,7.09,0,0,0-7.09-7.09h-38.4a7.08,7.08,0,0,0-7.09,7.09v8.76a7.2,7.2,0,0,0,.54,2.71Z" style="fill:#f7931e"/><path d="M353,251.14a6,6,0,0,0-5.26-9H297.48a6,6,0,0,0-5.26,9Z" style="fill:#f7931e"/><path d="M301.89,160.79s4-2.37,6.73-2.37,11.11-1.35,11.11-1.35l12.09,1.35s13.34,4.25,13.92,6-1.94,24-3.29,27.25S340.13,210,340.13,210L297,227.81s4.64-22,5.61-27.64S301.89,160.79,301.89,160.79Z" style="fill:#4e6fd8"/><g style="opacity:0.25;mix-blend-mode:overlay"><path d="M327.54,170s10.13,9.29,17.33,7c.7-6,1.15-11.71.87-12.55-.58-1.74-13.92-6-13.92-6l-10.05-.78-.3,0Z" style="fill:#231f20"/><path d="M310.88,209.38c2.32-3.22,16.75-11.85,16.75-11.85l3.48-15.73s-14.05,5.16-16.5-.12,1.55-13-4.76-15.86a24.53,24.53,0,0,1-4.82-2.93c-.37,7.79-1.59,32.57-2.4,37.28-1,5.6-5.61,27.64-5.61,27.64l22-9.08C314.58,215.52,309.52,211.26,310.88,209.38Z" style="fill:#231f20"/></g><path d="M342.26,228.2s6.57,10.24,5.8,19.13-15.86,54.51-15.86,54.51l-6.76-1.54s7.34-49.29,3.09-53.55-19.13-7.54-19.13-7.54S323.51,216.4,342.26,228.2Z" style="fill:#2f3655"/><path d="M319.43,205.13s1.55,3.22-.32,5l25.26-.06-.08-4.64Z" style="fill:#fff"/><path d="M319,188.38s1.55,3.22-.32,5l25.26-.07-.08-4.64Z" style="fill:#fff"/><polygon points="318.34 186.57 318.34 188.63 343.9 188.63 343.9 193.02 318.34 193.02 318.34 195.08 346.56 195.08 346.56 195 346.56 193.02 346.56 188.63 346.56 186.57 318.34 186.57" style="fill:#4f64b1"/><rect x="320.37" y="189.34" width="22.66" height="0.39" style="fill:#162659"/><rect x="320.37" y="190.55" width="22.66" height="0.39" style="fill:#162659"/><rect x="320.37" y="191.71" width="22.66" height="0.39" style="fill:#162659"/><rect x="320.7" y="206.26" width="22.66" height="0.39" style="fill:#a29b00"/><rect x="320.7" y="207.46" width="22.66" height="0.39" style="fill:#a29b00"/><rect x="320.7" y="208.62" width="22.66" height="0.39" style="fill:#a29b00"/><path d="M322.27,196.88s1.54,3.22-.33,5l25.26-.06-.08-4.64Z" style="fill:#fff"/><polygon points="321.56 195.08 321.56 197.14 347.12 197.14 347.12 201.52 321.56 201.52 321.56 203.58 349.78 203.58 349.78 203.5 349.78 201.52 349.78 197.14 349.78 195.08 321.56 195.08" style="fill:#00f7e5"/><rect x="323.59" y="197.85" width="22.66" height="0.39" style="fill:#162659"/><rect x="323.59" y="199.06" width="22.66" height="0.39" style="fill:#162659"/><rect x="323.59" y="200.22" width="22.66" height="0.39" style="fill:#162659"/><polygon points="318.72 203.32 318.72 205.39 344.29 205.39 344.29 209.77 318.72 209.77 318.72 211.83 346.94 211.83 346.94 211.75 346.94 209.77 346.94 205.39 346.94 203.32 318.72 203.32" style="fill:#859ce8"/><path d="M379.37,276.71l6,8.32s3.48-1.55,3.29-2.9-6-8.32-6-8.32Z" style="fill:#fed4d5"/><path d="M383.91,283.87s4.25-.78,4.54-2.71-.19-2.51,1.16-1.93,7.25,1,10.54.48.29,1.45-.39,2-13.91,6.09-13.91,6.09A3,3,0,0,1,383.91,283.87Z" style="fill:#2f3655"/><path d="M361.78,173.36l1.93,1.68s-9.4,12-9.92,12.11S339,185.86,339,185.86l.52-10.43,2.06-3.1S353,177,353,176.59,361.78,173.36,361.78,173.36Z" style="fill:#fff"/><polygon points="354.56 178.65 339.36 174.27 329.31 189.99 344.77 194.37 355.46 189.99 364.36 174.91 354.56 178.65" style="fill:#859ce8"/><path d="M330.36,310.19c-.37,1.39-2.34,2.06-4.41,1.51s-3.43-2.13-3.05-3.52a3.88,3.88,0,0,1,7.46,2Z" style="fill:#2f3655"/><path d="M333.75,181.61s.77-4.25,4.06-4.83,7.35,0,6.38,2.32-5.61,1.54-5.61,1.54-3.48,4.64-4.83,3.68S333.75,181.61,333.75,181.61Z" style="fill:#fed4d5"/><path d="M302.63,160.35s5.41-3.87,8.12,2.7-1.35,28.42-1.35,28.42l25.12-12.89,2.65,4.32S308.82,216.6,297.6,204,296.44,163.05,302.63,160.35Z" style="fill:#4e6fd8"/><path d="M342.06,144.3l.9-2.83s-2.7-1.16-3.6-2.71-2.84-4.76-7.09-4.89-8.76,6.44-7.09,11.59,8,1.29,8,1.29S341.16,148.3,342.06,144.3Z" style="fill:#2f3655"/><path d="M326.41,147.78l-8.32,9.67s3.1,13.72,9.28,12.56,2.71-6.76,2.71-6.76l3.86-5.8Z" style="fill:#fed4d5"/><polygon points="354.56 178.65 354.52 178.64 345.01 194.27 355.46 189.99 364.36 174.91 354.56 178.65" style="fill:#4f64b1"/><path d="M328.85,301.08c1.39-9.43,4.34-28.33,7.16-40.15,2.27-9.56,6.86-18.48,10.26-24.36a46.67,46.67,0,0,0-4-8.37c-18.75-11.8-32.86,11-32.86,11s14.88,3.29,19.13,7.54-3.09,53.55-3.09,53.55Z" style="fill:#231f20;opacity:0.46;mix-blend-mode:overlay"/><path d="M333.94,157.45l-7.53-9.67-2.13,2.47c.07,4.71.53,15.47,3.26,19.72,5.93-1.24,2.54-6.72,2.54-6.72Z" style="fill:#231f20;mix-blend-mode:overlay"/><path d="M362.29,181.8s-1.15-4.51-3.6-2.7,0,5.15,0,5.15l-1.42,2.45S362.42,186.83,362.29,181.8Z" style="fill:#fed4d5"/><path d="M326.21,149.14s-3.09-5-.58-6,3.1,3.48,3.1,3.48,3.47-1.54,3.67-4.83c0,0,6.76,6.57,9.66,2.51,0,0-1.74,16.24-8.5,14.89S326.21,153.78,326.21,149.14Z" style="fill:#fed4d5"/><path d="M334.33,151.07c0,.53-.86,1-1.93,1s-1.93-.44-1.93-1,.86-1,1.93-1S334.33,150.54,334.33,151.07Z" style="fill:#231f20;mix-blend-mode:overlay"/><path d="M340.32,151.21c0,.46-.52.83-1.16.83s-1.16-.37-1.16-.83.52-.82,1.16-.82S340.32,150.76,340.32,151.21Z" style="fill:#231f20;mix-blend-mode:overlay"/><path d="M302.89,203.71c-13.82-2.38-2.36-35.78.62-43.86a6.75,6.75,0,0,0-.88.5c-6.19,2.7-16.24,31.12-5,43.68,3.9,4.37,9.82,3.08,15.89-.45A30.32,30.32,0,0,1,302.89,203.71Z" style="fill:#231f20;opacity:0.46;mix-blend-mode:overlay"/><path d="M385.23,275.88s-39.42-68-48.44-69.33-30.16,3.09-38.67,16.74,2.06,23.46,12.63,22.94,24.74-9.53,24.74-9.53l44.84,42.53Z" style="fill:#2f3655"/><path d="M336.26,229.36S313.45,240,306.11,239c-5.26-.69-7.45-10-8.27-15.25-8,13.41,2.47,23,12.91,22.46s24.74-9.53,24.74-9.53l44.84,42.53,2.69-1.84Z" style="fill:#231f20;opacity:0.46;mix-blend-mode:overlay"/><path d="M160.07,294s2.45,5.13-.53,7.89h40.17l-.11-7.38Z" style="fill:#fff"/><path d="M159.52,267.34s2.44,5.13-.53,7.89h40.17l-.11-7.38Z" style="fill:#fff"/><polygon points="158.4 264.47 158.39 267.75 199.05 267.84 199.03 274.81 158.37 274.72 158.37 278 203.25 278.1 203.25 277.97 203.26 274.82 203.28 267.85 203.29 264.57 158.4 264.47" style="fill:#4f64b1"/><line x1="161.61" y1="269.19" x2="197.66" y2="269.27" style="fill:#cae0ff"/><rect x="179.33" y="251.21" width="0.61" height="36.05" transform="translate(-90.01 448.25) rotate(-89.87)" style="fill:#162659"/><line x1="161.61" y1="271.11" x2="197.66" y2="271.2" style="fill:#cae0ff"/><rect x="179.33" y="253.13" width="0.61" height="36.05" transform="translate(-91.93 450.16) rotate(-89.87)" style="fill:#162659"/><line x1="161.61" y1="272.96" x2="197.66" y2="273.04" style="fill:#cae0ff"/><rect x="179.32" y="254.97" width="0.61" height="36.05" transform="translate(-93.78 452) rotate(-89.87)" style="fill:#162659"/><rect x="179.81" y="278.11" width="0.61" height="36.05" transform="translate(-116.44 475.57) rotate(-89.87)" style="fill:#a29b00"/><rect x="179.8" y="280.03" width="0.61" height="36.05" transform="translate(-118.36 477.48) rotate(-89.87)" style="fill:#a29b00"/><rect x="179.8" y="281.88" width="0.61" height="36.05" transform="translate(-120.21 479.32) rotate(-89.87)" style="fill:#a29b00"/><path d="M164.61,280.88s2.45,5.13-.53,7.89h40.17l-.11-7.38Z" style="fill:#fff"/><polygon points="163.49 278.01 163.48 281.29 204.14 281.38 204.13 288.35 163.47 288.26 163.46 291.54 208.35 291.64 208.35 291.51 208.35 288.36 208.37 281.39 208.38 278.11 163.49 278.01" style="fill:#f15a24"/><rect x="184.42" y="264.75" width="0.61" height="36.05" transform="translate(-98.47 466.85) rotate(-89.87)" style="fill:#162659"/><rect x="184.42" y="266.67" width="0.61" height="36.05" transform="translate(-100.39 468.76) rotate(-89.87)" style="fill:#162659"/><rect x="184.42" y="268.51" width="0.61" height="36.05" transform="translate(-102.24 470.6) rotate(-89.87)" style="fill:#162659"/><polygon points="158.95 291.12 158.94 294.4 199.6 294.49 199.59 301.46 158.93 301.37 158.92 304.64 203.81 304.75 203.81 304.62 203.81 301.47 203.83 294.5 203.84 291.22 158.95 291.12" style="fill:#859ce8"/><path d="M155.93,257.33s2.69,5.64-.59,8.68l44.16,0-.12-8.11Z" style="fill:#fff"/><path d="M155.32,228s2.69,5.64-.58,8.68h44.15l-.12-8.11Z" style="fill:#fff"/><polygon points="154.09 224.89 154.08 228.49 198.77 228.59 198.75 236.25 154.06 236.15 154.05 239.76 203.39 239.87 203.39 239.73 203.4 236.27 203.42 228.61 203.43 225 154.09 224.89" style="fill:#4f64b1"/><line x1="157.62" y1="230.08" x2="197.25" y2="230.17" style="fill:#cae0ff"/><rect x="177.1" y="210.31" width="0.68" height="39.62" transform="matrix(0, -1, 1, 0, -53.1, 407.03)" style="fill:#162659"/><line x1="157.62" y1="232.19" x2="197.24" y2="232.28" style="fill:#cae0ff"/><rect x="177.09" y="212.42" width="0.68" height="39.62" transform="matrix(0, -1, 1, 0, -55.21, 409.13)" style="fill:#162659"/><line x1="157.61" y1="234.22" x2="197.24" y2="234.31" style="fill:#cae0ff"/><rect x="177.09" y="214.45" width="0.68" height="39.62" transform="matrix(0, -1, 1, 0, -57.25, 411.15)" style="fill:#162659"/><rect x="177.62" y="239.88" width="0.68" height="39.62" transform="translate(-82.15 437.05) rotate(-89.87)" style="fill:#a29b00"/><rect x="177.62" y="241.99" width="0.68" height="39.62" transform="translate(-84.26 439.15) rotate(-89.87)" style="fill:#a29b00"/><rect x="177.61" y="244.02" width="0.68" height="39.62" transform="matrix(0, -1, 1, 0, -86.29, 441.17)" style="fill:#a29b00"/><path d="M160.92,242.93s2.69,5.63-.59,8.67h44.16l-.12-8.11Z" style="fill:#fff"/><polygon points="159.69 239.77 159.68 243.37 204.37 243.48 204.35 251.14 159.66 251.03 159.65 254.64 208.99 254.75 208.99 254.61 209 251.15 209.01 243.49 209.02 239.88 159.69 239.77" style="fill:#fb9844"/><rect x="182.7" y="225.19" width="0.68" height="39.62" transform="translate(-62.39 427.47) rotate(-89.87)" style="fill:#162659"/><rect x="182.69" y="227.31" width="0.68" height="39.62" transform="translate(-64.51 429.57) rotate(-89.87)" style="fill:#162659"/><rect x="182.69" y="229.33" width="0.68" height="39.62" transform="translate(-66.54 431.59) rotate(-89.87)" style="fill:#162659"/><polygon points="154.7 254.18 154.69 257.78 199.38 257.88 199.36 265.54 154.67 265.44 154.66 269.05 204 269.16 204 269.02 204.01 265.56 204.03 257.89 204.03 254.29 154.7 254.18" style="fill:#2f3655"/><path d="M177.91,232.91s-5.88.14-6.3,4.06,1.12,13.16,4.2,11.2-.14-8.4,1.12-10.08a15.15,15.15,0,0,1,3.5-3.08Z" style="fill:#fed4d5"/><path d="M178.54,144.57s2.42-3.36,5.25-1.47,5.36,11.56,10.3,12.5,1.26,6.83-2.42,6.41c0,0,2.63.42,2,2.84a3.44,3.44,0,0,1-5,2.31s1.26,2.2-.84,2.94-6-.74-6-.74l-5.68.21s-4.93,3.15-6.4,1.05a3.67,3.67,0,0,1-.42-3.88s-2.1,2.1-3.89.42-.42-3.89.74-4.52c0,0-3.68,1.58-4.83-.95s-.53-4.3,1.89-5.56,7.56-5.36,8.08-8.3S175.49,139,178.54,144.57Z" style="fill:#2f3655"/><path d="M187,153.92c-4.06-5.6-2.94-8-4.83-7.77a3.92,3.92,0,0,0-2.8,2s-1.75-3.57-4.41-2.1-3.36,12.74-9.73,14.07c-1.79.38-3.16.6-4.23.74a5.71,5.71,0,0,0,.31.8c1.15,2.53,4.83.95,4.83.95-1.16.63-2.52,2.84-.74,4.52s3.89-.42,3.89-.42a3.67,3.67,0,0,0,.42,3.88c1.47,2.1,6.4-1.05,6.4-1.05l5.68-.21s3.88,1.47,6,.74.84-2.94.84-2.94a3.44,3.44,0,0,0,5-2.31c.63-2.42-2-2.84-2-2.84,2.6.3,5.19-2.56,4.73-4.6A8.67,8.67,0,0,1,187,153.92Z" style="fill:#231f20;mix-blend-mode:overlay"/><rect x="168.25" y="168.77" width="22.83" height="40.47" rx="7.28" style="fill:#e8863d"/><path d="M183.93,168.63A11.41,11.41,0,0,0,172.52,180v4.53l3.57,4.61s1.47.73,5.57,3.25,1.57,4.21-1,4.94.63,2.31,4.2,3.89c2.94,1.29-5.88,3.59-9.07,4.36a11.41,11.41,0,0,0,19.61-7.93V180A11.41,11.41,0,0,0,183.93,168.63Z" style="fill:#231f20;opacity:0.41000000000000003;mix-blend-mode:overlay"/><path d="M214.46,199.72s-3.78.84-12.39,3.78-13,3.15-13,3.15l-14.39.94s-9.76-8.92-14.17-9.13-8.83,3.57-8.62,6.93,4.2,22.89,18.7,23.31,19.11.84,28.15-5S224.12,205.6,214.46,199.72Z" style="fill:#212638"/><path d="M193.31,239.63s3.79,2,3.93,5.18-3.08,6.86-.14,7.7,7.56-10.92,5.46-12.18a59.86,59.86,0,0,0-7-3.08Z" style="fill:#fed4d5"/><path d="M217.51,199.94c-10.36-6.63-40.86,32.76-40.86,32.76l2.31,4s3.44-1.39,8.33-3.7C193.29,223.49,206.31,204.6,217.51,199.94Z" style="fill:#231f20;opacity:0.58;mix-blend-mode:overlay"/><path d="M172.59,172.13c.3-.32-5,2.24-7.7,9s-8.41,18.07-6.73,24.37,4.21,7.14,9,4.76S166,179.13,172.59,172.13Z" style="fill:#d67432"/><path d="M151.23,200.35a6.79,6.79,0,0,1,8.4-4.63c6.73,1.48,39.08,42.65,39.08,42.65l-2.94,3.36S147.45,219.67,151.23,200.35Z" style="fill:#2f3655"/><path d="M187.06,170.87c-.3-.33,5,2.24,7.7,9s8.41,18.07,6.73,24.37-4.2,7.14-9,4.76S193.64,177.87,187.06,170.87Z" style="fill:#d67432"/><rect x="176.23" y="163.06" width="7.14" height="11.13" style="fill:#f2b3bb"/><path d="M200.09,174.29l-3.69,19.78a2.84,2.84,0,0,1-2.76,2.33c-6.07.08-22.25.26-28.34.21a2.86,2.86,0,0,1-2.78-2.35L159,174.59a2.86,2.86,0,0,1,2.78-3.36l35.53-.31A2.85,2.85,0,0,1,200.09,174.29Z" style="fill:#e6e6e6"/><rect x="162.16" y="196.25" width="34.8" height="2.72" rx="1.08" transform="translate(-0.84 0.77) rotate(-0.24)" style="fill:#b3b3b3"/><path d="M182.33,184.67a2.3,2.3,0,0,0-.72-1.55,2.07,2.07,0,0,1-1.7.94,1.93,1.93,0,0,1-2-1.39,2.48,2.48,0,0,0-1.38,2.21,2.95,2.95,0,0,0,5.83-.21Z" style="fill:#fff"/><path d="M184.21,154.45c-1.15-2.52-.73-6.51-2.94-6.09S179,150,179,150s-.63-1.89-1.78-1.68-3.05.94-3.37,4.83,1.58,5.35-1.57,6.51a5.9,5.9,0,0,0-1.91,1.1c1.16,4.59,4.75,7.93,9,7.93,5.14,0,9.31-4.88,9.39-10.95C187.17,157.17,184.94,156,184.21,154.45Z" style="fill:#fed4d5"/><path d="M158.58,211.62c4.07,4.62,8.13,1,12.33,1.26,3.58.24,21.47,20.68,26.7,26.74l1.1-1.25s-32.35-41.17-39.08-42.65c-4.26-.93-6.49,1.18-7.55,2.85C155.4,200.9,155.17,207.74,158.58,211.62Z" style="fill:#231f20;opacity:0.58;mix-blend-mode:overlay"/><path d="M222.35,151.88l-2.14.23a14.66,14.66,0,0,0-5.82,7s-6.29.25-8.65,2.81l-1.31,1.77,1.95,2.71,9-4.19s8.11-8,8-8.14S222.35,151.88,222.35,151.88Z" style="fill:#fff"/><polygon points="222.66 151.06 215.22 159.08 225.55 175.13 231.76 166.55 222.66 151.06" style="fill:#2f3655"/><polygon points="203.12 163.74 213.46 160.31 223.79 176.36 213.44 178.44 203.12 163.74" style="fill:#2f3655"/><rect x="218.26" y="158.02" width="2.63" height="19.53" transform="translate(-55.87 145.52) rotate(-32.76)" style="fill:#1a2138"/><path d="M133.32,151.88l2.14.23a14.66,14.66,0,0,1,5.82,7s6.3.25,8.66,2.81l1.3,1.77-2,2.71-9-4.19s-8.1-8-8-8.14S133.32,151.88,133.32,151.88Z" style="fill:#fff"/><polygon points="133.01 151.06 140.46 159.08 130.13 175.13 123.91 166.55 133.01 151.06" style="fill:#2f3655"/><polygon points="152.55 163.74 142.21 160.31 131.88 176.36 142.23 178.44 152.55 163.74" style="fill:#2f3655"/><rect x="134.79" y="158.02" width="2.63" height="19.53" transform="translate(159.76 382.53) rotate(-147.24)" style="fill:#1a2138"/><path d="M169.28,183.17s-1.51-2.86-1.07-4a1.21,1.21,0,0,1,1.49-.79s-2.35-4.15.37-4.08,3.11,2,3.09,4-1.67,5.41-1.67,5.41Z" style="fill:#fed4d5"/><polygon points="167.58 185.44 168.22 181.52 172.95 182.13 171.88 186.16 167.58 185.44" style="fill:#2f3655"/><path d="M159,208.74c-2-2.59,2.35-20.89,6.69-23.17s6.87-2.27,8.43.39,1.33,22.34-4.87,25.49C162.82,214.73,158.92,209.3,159,208.74Z" style="fill:#fb9844"/><path d="M188.78,182.25s1.41-2.91.93-4a1.2,1.2,0,0,0-1.51-.74s2.2-4.24-.52-4.06-3,2.09-2.94,4.11,1.86,5.35,1.86,5.35Z" style="fill:#fed4d5"/><path d="M200.8,207.2c2-3.41-3.19-20.67-7.52-22.92s-6.95-2-8.4.69-1.08,24.13,5.77,25.3C197.05,211.37,199,210.06,200.8,207.2Z" style="fill:#fb9844"/><polygon points="190.57 184.46 189.79 180.57 185.08 181.35 186.29 185.33 190.57 184.46" style="fill:#2f3655"/><path d="M200.8,207.2c2-3.41-3.19-20.67-7.52-22.92s-6.95-2-8.4.69-1.08,24.13,5.77,25.3C197.05,211.37,199,210.06,200.8,207.2Z" style="fill:#fb9844"/><path d="M186.89,160c0,.47-.82.84-1.84.84s-1.84-.37-1.84-.84.83-.84,1.84-.84S186.89,159.5,186.89,160Z" style="fill:#231f20;mix-blend-mode:overlay"/><path d="M176.33,160.38c0,.47-.77.84-1.73.84s-1.73-.37-1.73-.84.77-.84,1.73-.84S176.33,159.92,176.33,160.38Z" style="fill:#231f20;mix-blend-mode:overlay"/><path d="M188.41,196.14c-2-7-.41-11,1.29-13.22-2.27-.48-3.82.19-4.82,2.05-1.46,2.72-1.08,24.13,5.77,25.3a15.62,15.62,0,0,0,6,.17C194.4,208.43,190.65,204.1,188.41,196.14Z" style="fill:#231f20;opacity:0.58;mix-blend-mode:overlay"/><path d="M174.13,186c-1.31-2.24-3.32-2.59-6.51-1.28a17.89,17.89,0,0,1,3,9c.09,4.78-1.12,13.51-7.33,18.49a7.92,7.92,0,0,0,5.93-.77C175.46,208.3,175.68,188.62,174.13,186Z" style="fill:#231f20;opacity:0.58;mix-blend-mode:overlay"/><path d="M289.22,285.42a34.55,34.55,0,1,1-34.55-34.55A34.55,34.55,0,0,1,289.22,285.42Z" style="fill:#40c0c6"/><path d="M267.4,265c-.44-.44-.78.89-.31,1S268.1,265.66,267.4,265Z" style="fill:#108c92"/><path d="M243,314c-.23-1.32-1.93-1.08-2.79-.7s-.7,2.25-.44,3.36a34.3,34.3,0,0,0,5.74,2.13,1.11,1.11,0,0,0-.18-.68C244.91,317.32,243.26,315.27,243,314Z" style="fill:#108c92"/><path d="M282.69,279.4c1.56.08,3.81-2.09,3.5-2.95s-2.17-.46-2.72-1.78-1.39-2.41-.85-2.64,1.63,3.41,4.92,2.75v0c-.07-.19-.51-1.4-1.08-2.89a34.83,34.83,0,0,0-3.78-6.68c.21.32,1.1,3.19-.06,3.27s-1.4-2.8-1.4-3.19a28.65,28.65,0,0,0-1.14-3.25,2,2,0,0,0-.14-.16l-.74-.76a35,35,0,0,0-6.51-5.17c-.14.4.11,1.1-.17,1.42a4,4,0,0,1-2.87,1.56c-1.32-.08-1.94-.7-1.16-1.17s1.22-.15,1.55-1.63,0-1.64-.08-1.68a34.86,34.86,0,0,0-4.56-1.86c-.56,1.45-.71,2.84.52,2.92s1.95.39,1.56,1.32-.93,1.08-1.79,1.63-1.78,1.32-1.94.54-1.09-2-1.39-2.87-.39-1.71-1-.93-1.37,1.47-2,2.33.65.93,1.81,1.4,1.4,1.24,1.09,1.78.5.73.77,1.32c.19.41.63,1.24,0,1.63s-2.64-.78-3.26-.39-.15,2.72-.38,3.19,1.58.62,2,1,2-.47,2.35-1.09.31-1.32,1.09-2,1.48-.39,2.1-.62,0-.62.62-.24,3.1,1.95,2.95,2.41-1.24.16-1.33.78.55.89.94.87,1-1,1.4-1.26,1.16.74,2.09,1.26,1.24-1.57,1.71-1.88,3.88-.23,4,.23-3.18-.08-3.57.94,1.24,1.31,2.1,1.94,1.4,2.79,1.47,4.34S281.15,279.32,282.69,279.4Z" style="fill:#108c92"/><path d="M261,267.91c-.58-.18-1.52.23-1.73,1.63s-1.38,1.71-2.15,2.8-1.09,5.52-.7,7.06,2.56,4,4,4.2a19.75,19.75,0,0,0,5.21,0,2.69,2.69,0,0,1,2.79,2.63c0,1.4,1.55,2.88,1.48,4.12s-1.08,3.8,0,6,2.63,4.2,2.71,4.9,3.11-.31,4.58-2.1,1.56-1.63,2-3.49,1.48-2.56,1.63-3.57a13.28,13.28,0,0,0,0-3.58c-.15-1.47,2.72-4.88,2.87-6.2s-1.62-1.33-2.33-2.33-3.1-5.67-3.33-7.15-3-1.78-3.81-2.25-1.86.39-3-.39-3.34-3-4.35-3S262,268.22,261,267.91Z" style="fill:#108c92"/><path d="M230.21,282.81a3.66,3.66,0,0,1-.31,2.61c-.62,1.13-.85,2.06,0,3.92s2.1,2.48,3,4.19.78,4.43.93,8.46,1.56,7.23,3.89,8.15-.86-1.39-.63-2.94.16-2.41,1-3.58,1.38-.69,2.44-2.79.74-2.79,2-3.49,3,.07,3.41-2.33-1.16-1.71.55-3.88-.08-2.56-1.56-3.42-3-.93-3.65-1.79-.62-.62-1.86-1.94-2.17-1.16-3.8-2.25-3-1.94-3.93-1.24S230.1,282.36,230.21,282.81Z" style="fill:#108c92"/><path d="M236,256.32c-.81.52-1.6,1.07-2.37,1.66.28,1.24-1,1.86-1.36,2.4s.08,1.94-.31,2-.78-1.55-.83-2.31A34.63,34.63,0,0,0,222,274.27a19,19,0,0,1,1.19,4.12c.23,1.4,2.4.62,3.1,1.71a9.76,9.76,0,0,0,2.88,2.56c.85.55,0-.54-.55-1.78s-1.24-2.64-1.09-3.54-.77-1.2-1.39-.5-1,.85-1.32-.78,1.47-1.86,2.4-2.25,1.4.31,2,.86.55-.39.7-2.1,2.88-5,3.72-6.56,1.8-2.14,2-3,2.11-.47,3.65.08,1.48-.46.86-1.24-1.16-1-.54-1.56-.16-1-.78-1.78-.62-1.87-.85-2.2-1.16,1.11-1.94,1.19S235.83,256.46,236,256.32Z" style="fill:#108c92"/><path d="M242.48,253.08a10.43,10.43,0,0,1,1.4,1.79c.54.93,1.55,1.63,2.09,0a32.67,32.67,0,0,1,1.29-3.2A33.31,33.31,0,0,0,242.48,253.08Z" style="fill:#108c92"/><path d="M325.68,174.44s2.64-1.78,4.05-2.58,4.67-2.93,5.21-1.52-3.17,2.61-3.17,2.61,10.07-1.32,10.17.8-5.91,4.18-10.68,3.41l-4.76,2.05Z" style="fill:#fed4d5"/><path d="M262,191.73l-1.78-3.88,33.58-1.17L326.25,173l2.67,5.87S300.57,201.6,266,205.54Z" style="fill:#f15a24"/><path d="M270.55,239.47s31.28-6.13,38.63-1.27,10.29,19.05-11,25.8-41.94,3.51-41.94,3.51l-9.52,8.7s-2.66,0-2.46-4.65,5.52-7.58,5.52-7.58l2.65-2.67L272,259l-15.32.29s-.74-17.54-.07-17.76S270.55,239.47,270.55,239.47Z" style="fill:#4d4d4d"/><path d="M256.31,267.52a8.58,8.58,0,0,1-.62-2,12.93,12.93,0,0,1,.55-4.65l7.28-.86a47.71,47.71,0,0,0,0,8.16C259.42,268,256.75,267.59,256.31,267.52Z" style="fill:#edb49f"/><path d="M249.78,264l2.65-2.67L272,259l-15.32.29s-.05-1.34-.12-3.28l1.8.12c5.92.42,20.12-2.3,26-5.73a17.45,17.45,0,0,1,12.27-1.68c-6.95.76-12.7,6.86-19.64,9.7s-22,5.13-23.81,5.28-5.9,4.91-5.89,7.72a9.16,9.16,0,0,0,.78,3.57l-1.34,1.22s-2.66,0-2.46-4.65S249.78,264,249.78,264Z" style="opacity:0.34;mix-blend-mode:overlay"/><path d="M243.76,239.59s-31.33-5.87-38.64-1S195,257.78,216.33,264.35s42,3.15,42,3.15l9.58,8.62s2.67,0,2.43-4.67-5.59-7.53-5.59-7.53l-2.67-2.65-19.55-2.14,15.32.16s.59-17.55-.07-17.77S243.76,239.59,243.76,239.59Z" style="fill:#4d4d4d"/><path d="M275.23,236.59,268,191a3.79,3.79,0,0,0-3.75-3.2l-16.06.07c-1,0-8.84.19-10.5,2.93l-17.4,34.49c-2.85,4.27,6.06,10.22,8.91,6l12.72-19.13-3,24.71a3.77,3.77,0,0,0,2.06,3.84c10.75,5.27,21.52,5.43,32.3-.08A3.77,3.77,0,0,0,275.23,236.59Z" style="fill:#f15a24"/><path d="M264.22,167.79c.33-.07,6.07-8.23.17-12.26,0,0-.52,3.05-2.2,3.72,0,0-1-2.29-2.37-2.81a8,8,0,0,1-5.4,3c-3.36.22-6-1.85-8.67-.31s-2.22,3.61-2.22,3.61-3.75,1.08-3.58,4.22,4.34,8.76,4.34,8.76,3,1.44,5.38.29.46-5.64,1.6-6.77S264.22,167.79,264.22,167.79Z" style="fill:#f7931e"/><path d="M250.3,178.09l-1.39,10.67c-.23,5.54,12.32,6,12.54.5l-1.7-9.1-9-2" style="fill:#fed4d5"/><path d="M264.8,155.83c.5,1.62,1,4.74-1.3,6.62l-1.11-1.39s-1.32,2.95-5.87,4-9.16.09-9.71,2a2.3,2.3,0,0,0,1.07,2.72s-2.89-.71-3.77.79a3.38,3.38,0,0,0-.43,2.72s-3-3.26-2.86-5.82,2.71-4.75,2.71-4.75-3.75,1.08-3.58,4.22,4.34,8.76,4.34,8.76,3,1.44,5.38.29.46-5.64,1.6-6.77,13-1.44,13-1.44C264.54,167.72,270,160,264.8,155.83Z" style="opacity:0.32;mix-blend-mode:overlay"/><path d="M260.82,185.87l-1.07-5.71-9-2-.45-.11-.55,4.22A16.94,16.94,0,0,0,260.82,185.87Z" style="opacity:0.76;mix-blend-mode:overlay"/><path d="M263.35,164.81s4.56,12.67,2.25,15.85-3.17,4-7.39,3.84-8.42-4.78-8.42-4.78-3.37-1-4.68-3-.67-5.07,1-4.39a5.63,5.63,0,0,1,2.55,2s2.26.57,1.92-1.74-1.89-2.68-.91-4.57S262.19,169.23,263.35,164.81Z" style="fill:#fed4d5"/><path d="M263.35,164.81a2.77,2.77,0,0,1-1.73,1.82c1.45,3.91,3.87,11,3.12,13a13.21,13.21,0,0,1-3.49,4.7c1.83-.4,2.73-1.48,4.35-3.69C267.91,177.48,263.35,164.81,263.35,164.81Z" style="opacity:0.76;mix-blend-mode:overlay"/><path d="M253.69,239.87c3.7-1.05,2-8.45,1.88-10.37s-9-2.92-11-4.69-.82-17.76-.82-17.76c-3.09,3.49-5.86,9.5-7.48,13.41l5.57-8.38-3,24.71a3.77,3.77,0,0,0,2.06,3.84,36.16,36.16,0,0,0,17.11,4C255.43,243.24,251,240.63,253.69,239.87Z" style="opacity:0.34;mix-blend-mode:overlay"/><path d="M245.94,228.92l8,1.6s-.62-1.89,1.89-2.08,2.73,3,2.73,3,4.84,0,5.66,3.31-1.06,6.81-3.87,6.22-7.24-1.57-8.35-2.71l-1.12-1.14-6.8-2.19Z" style="fill:#edb49f"/><path d="M224.24,232.21l26.15,6L252.2,229l-26.61-5.81C220,222.33,218.66,231.37,224.24,232.21Z" style="fill:#f15a24"/><path d="M258.24,267.51a8.16,8.16,0,0,0,.6-2,12.63,12.63,0,0,0-.6-4.64l-7.28-.8a47.36,47.36,0,0,1,0,8.16C255.13,268,257.79,267.58,258.24,267.51Z" style="fill:#edb49f"/><path d="M264.73,263.92l-2.67-2.65-19.55-2.14,15.32.16s.05-1.34.1-3.29l-1.8.14c-5.92.47-20.14-2.13-26.07-5.51a17.51,17.51,0,0,0-12.3-1.58c7,.71,12.76,6.76,19.73,9.54s22.08,4.94,23.85,5.08,6,4.86,6,7.67a9.17,9.17,0,0,1-.75,3.57l1.34,1.21s2.67,0,2.43-4.67S264.73,263.92,264.73,263.92Z" style="opacity:0.34;mix-blend-mode:overlay"/><path d="M285.47,228l-5,27a3.88,3.88,0,0,1-3.78,3.18c-8.28.1-30.37.35-38.7.28a3.89,3.89,0,0,1-3.79-3.2l-4.87-26.86a3.89,3.89,0,0,1,3.8-4.59l48.52-.43A3.89,3.89,0,0,1,285.47,228Z" style="fill:#e6e6e6"/><rect x="233.66" y="257.94" width="47.52" height="3.72" rx="1.47" transform="translate(-1.1 1.1) rotate(-0.24)" style="fill:#b3b3b3"/><path d="M261.21,242.13a3.08,3.08,0,0,0-1-2.11,2.83,2.83,0,0,1-2.33,1.27,2.65,2.65,0,0,1-2.77-1.89,3.36,3.36,0,0,0-1.88,3,4,4,0,0,0,8-.29Z" style="fill:#fff"/><path d="M259.06,175.82c0,.32-1.05.58-2.35.58s-2.36-.24-2.36-.56,1.05-.57,2.35-.57S259.06,175.51,259.06,175.82Z" style="opacity:0.76;mix-blend-mode:overlay"/><path d="M290.6,98a18.17,18.17,0,1,0-28.82,14.72v4.15a7.87,7.87,0,0,0,7.87,7.87h6.25a7.87,7.87,0,0,0,7.87-7.87v-4.68A18.14,18.14,0,0,0,290.6,98Z" style="fill:#fff200"/><path d="M282.21,131.68c0,7.18-18.58,7.18-18.58,0V122h18.58Z" style="fill:#bcbec0"/><rect x="263.63" y="123.46" width="18.58" height="2.08" style="fill:#808285"/><path d="M282.21,131.68v-2.31H263.63v2.31a3.54,3.54,0,0,0,.13.93h18.33A4,4,0,0,0,282.21,131.68Z" style="fill:#808285"/><circle cx="272.86" cy="98.9" r="12.18" style="fill:#fff9a9"/><path d="M271.4,75.18a1.52,1.52,0,0,1-1.51-1.51V69.12a1.52,1.52,0,0,1,3,0v4.55A1.52,1.52,0,0,1,271.4,75.18Z" style="fill:#fff200"/><path d="M271.4,60a1.52,1.52,0,0,1-1.51-1.51V47.75a1.52,1.52,0,1,1,3,0V58.44A1.52,1.52,0,0,1,271.4,60Z" style="fill:#fff200"/><path d="M271.4,38.57a1.52,1.52,0,0,1-1.51-1.51V32.51a1.52,1.52,0,0,1,3,0v4.55A1.52,1.52,0,0,1,271.4,38.57Z" style="fill:#fff200"/><path d="M254.41,83.93a1.51,1.51,0,0,1-2.14.09L248.92,81A1.51,1.51,0,0,1,251,78.72l3.34,3.07A1.52,1.52,0,0,1,254.41,83.93Z" style="fill:#fff200"/><path d="M243.19,73.63a1.53,1.53,0,0,1-2.14.09l-7.88-7.23a1.53,1.53,0,0,1-.09-2.14,1.51,1.51,0,0,1,2.14-.09l7.88,7.23A1.53,1.53,0,0,1,243.19,73.63Z" style="fill:#fff200"/><path d="M227.44,59.17a1.53,1.53,0,0,1-2.14.09L222,56.19a1.53,1.53,0,0,1-.09-2.14A1.51,1.51,0,0,1,224,54L227.35,57A1.53,1.53,0,0,1,227.44,59.17Z" style="fill:#fff200"/><path d="M249.35,102.37A1.5,1.5,0,0,1,248,104l-4.52.39a1.52,1.52,0,1,1-.26-3l4.53-.38A1.5,1.5,0,0,1,249.35,102.37Z" style="fill:#fff200"/><path d="M234.18,103.66a1.51,1.51,0,0,1-1.38,1.64l-10.65.91a1.52,1.52,0,0,1-.26-3l10.65-.91A1.52,1.52,0,0,1,234.18,103.66Z" style="fill:#fff200"/><path d="M212.88,105.48a1.51,1.51,0,0,1-1.38,1.64l-4.53.39a1.52,1.52,0,1,1-.26-3l4.53-.39A1.53,1.53,0,0,1,212.88,105.48Z" style="fill:#fff200"/><path d="M291.31,83.93a1.51,1.51,0,0,0,2.14.09L296.8,81a1.53,1.53,0,0,0,.09-2.14,1.51,1.51,0,0,0-2.14-.09l-3.35,3.07A1.53,1.53,0,0,0,291.31,83.93Z" style="fill:#fff200"/><path d="M302.53,73.63a1.53,1.53,0,0,0,2.14.09l7.87-7.23a1.51,1.51,0,0,0-2-2.23l-7.88,7.23A1.52,1.52,0,0,0,302.53,73.63Z" style="fill:#fff200"/><path d="M318.28,59.17a1.53,1.53,0,0,0,2.14.09l3.34-3.07a1.51,1.51,0,0,0-2-2.23L318.37,57A1.51,1.51,0,0,0,318.28,59.17Z" style="fill:#fff200"/><path d="M296.36,102.37a1.51,1.51,0,0,0,1.38,1.63l4.53.39a1.52,1.52,0,0,0,.26-3L298,101A1.51,1.51,0,0,0,296.36,102.37Z" style="fill:#fff200"/><path d="M311.54,103.66a1.51,1.51,0,0,0,1.38,1.64l10.65.91a1.52,1.52,0,1,0,.26-3l-10.65-.91A1.51,1.51,0,0,0,311.54,103.66Z" style="fill:#fff200"/><path d="M332.84,105.48a1.51,1.51,0,0,0,1.38,1.64l4.53.39a1.52,1.52,0,0,0,.25-3l-4.52-.39A1.51,1.51,0,0,0,332.84,105.48Z" style="fill:#fff200"/><path d="M407.64,98.69,379.47,115a3.82,3.82,0,0,1-5.73-3.31V79.12a3.82,3.82,0,0,1,5.73-3.3l28.17,16.26A3.82,3.82,0,0,1,407.64,98.69Z" style="fill:#cee8f4;fill-rule:evenodd"/><path d="M414.3,89.41l-28.17,16.26a3.82,3.82,0,0,1-5.73-3.3V69.83a3.82,3.82,0,0,1,5.73-3.3L414.3,82.8A3.82,3.82,0,0,1,414.3,89.41Z" style="fill:url(#b)"/><path d="M388.6,68l-4.23-2.44a2.65,2.65,0,0,0-4,2.29V104.4a2.65,2.65,0,0,0,4,2.29L415,89a4.93,4.93,0,0,0,0-.55c-1.39-8.22-29.1,2.43-31-7.77A13.25,13.25,0,0,1,388.6,68Z" style="opacity:0.1;mix-blend-mode:overlay"/></g></svg>