<svg xmlns="http://www.w3.org/2000/svg" viewBox="0 0 544 362"><title>begin-journey</title><path d="M229.58,182.66a47,47,0,0,1-4.21,5.62c5.74,16.86,20.62,6.28,18.92-.62-.55-2.25-5.51.73-7.28-1.61-1.35-1.8,3-2.46,4.26-2.94s1.18-3.87-.87-3.37S231.08,184,229.58,182.66Z" style="fill:#eabe8a"/><path d="M210.74,143.72l8,1.32-4.2-.3,4-.48c-.29,1.11-7.12,28.94,12.48,38.46l-4.95,7c-10.66-5.18-15.45-14.73-16.67-28A56.82,56.82,0,0,1,210.74,143.72Z" style="fill:#f4ecec"/><path d="M330.2,194.59a2.59,2.59,0,0,1-2.59-2.59V154.35a2.58,2.58,0,0,1,2.59-2.59h0l47.92.09a2.59,2.59,0,0,1,.68-.09h0l45.65.17a2.6,2.6,0,0,1,0,5.19h0l-91.66-.18V192A2.59,2.59,0,0,1,330.2,194.59Z" style="fill:#fff5f5"/><path d="M136.55,347.79h-78a2.59,2.59,0,1,1,0-5.18h74.82V307.06a2.59,2.59,0,0,1,2.59-2.59h48.61a2.6,2.6,0,0,1,0,5.19h-46v33.89a2.59,2.59,0,0,1-2,4.24Z" style="fill:#fff5f5"/><path d="M184.57,309.49A2.59,2.59,0,0,1,182,306.9V268.76a2.59,2.59,0,0,1,2.59-2.59h48.61a2.59,2.59,0,1,1,0,5.18h-46V306.9A2.59,2.59,0,0,1,184.57,309.49Z" style="fill:#fff5f5"/><path d="M233.18,271a2.59,2.59,0,0,1-2.59-2.59V230.3a2.59,2.59,0,0,1,2.59-2.59h48.61a2.59,2.59,0,0,1,0,5.18h-46v35.55A2.59,2.59,0,0,1,233.18,271Z" style="fill:#fff5f5"/><path d="M281.79,230.78a2.59,2.59,0,0,1-2.59-2.59V192a2.59,2.59,0,0,1,2.59-2.59H330.2a2.59,2.59,0,1,1,0,5.18H284.39v33.6A2.59,2.59,0,0,1,281.79,230.78Z" style="fill:#fff5f5"/><path d="M281.79,232.73a2.59,2.59,0,0,1-2.59-2.6v-1.94a2.6,2.6,0,0,1,5.19,0v1.94A2.59,2.59,0,0,1,281.79,232.73Z" style="fill:#fff5f5"/><path d="M459.64,295l-.15-.15.18-2,.17-.13c4.6-3.63,4.54-3.85,4.37-4.38l-1.34-4.19a.82.82,0,0,0-.39-.45c-.15-.09-.63-.34-5.73-.66h-.2l-1.34-1.59,0-.2c.61-5.82.41-5.93-.07-6.18l-3.94-2.09c-.48-.26-.69-.37-5,3.48l-.16.13-2-.2-.13-.16a29.33,29.33,0,0,0-3.89-4.33.87.87,0,0,0-.59-.07L435.12,273c-.53.17-.76.23-1,6v.21l-1.57,1.28-.2,0c-5.91-.7-6-.52-6.27,0l-2,3.85c-.27.5-.38.7,3.6,5.07l.15.16-.18,2-.17.13c-4.6,3.63-4.54,3.83-4.37,4.37l1.34,4.2a.81.81,0,0,0,.39.45c.15.09.63.34,5.73.66h.21L432,303l0,.2c-.61,5.82-.41,5.93.07,6.18l3.94,2.09c.49.26.7.37,5-3.48l.16-.14,2,.22.13.15a29.33,29.33,0,0,0,3.89,4.33.87.87,0,0,0,.59.07l4.24-1.25c.54-.16.76-.23,1-6v-.22l1.56-1.27.2,0c5.92.7,6,.51,6.28,0l2.05-3.86c.26-.49.37-.69-3.61-5.06Zm-19.33,3.48a7.08,7.08,0,1,1,9.69-2.87,7.16,7.16,0,0,1-9.69,2.87Zm0,0" style="fill:#fff"/><path d="M508.88,94.47l-.16-.12-.11-1.87.14-.14c3.71-4,3.62-4.14,3.4-4.6l-1.81-3.65a.77.77,0,0,0-.41-.36c-.15-.06-.63-.22-5.34.19h-.18L503,82.66v-.19c-.25-5.4-.44-5.47-.92-5.64l-3.88-1.37c-.47-.16-.69-.24-4.13,3.87l-.13.15-1.91.09-.14-.12A27.87,27.87,0,0,0,487.7,76a.74.74,0,0,0-.55,0l-3.7,1.72c-.47.22-.67.31-.12,5.66l0,.2L482.1,85h-.19c-5.5.17-5.57.35-5.74.84l-1.34,3.8c-.17.49-.25.69,4,4.15l.16.12.1,1.86-.12.14c-3.72,4-3.63,4.12-3.41,4.59l1.8,3.66a.83.83,0,0,0,.42.36c.16.06.62.22,5.34-.18l.19,0,1.43,1.27v.19c.24,5.4.44,5.47.92,5.64l3.88,1.37c.49.17.69.24,4.14-3.87l.13-.15,1.9-.09.14.12a27.58,27.58,0,0,0,4.15,3.44.86.86,0,0,0,.55,0l3.71-1.73c.47-.22.67-.31.1-5.66l0-.19,1.26-1.38h.18c5.52-.17,5.58-.35,5.75-.84l1.34-3.8c.18-.49.25-.69-4-4.14Zm-17.21,5.83a6.55,6.55,0,1,1,8.48-4,6.63,6.63,0,0,1-8.48,4Zm0,0" style="fill:#fff"/><path d="M432,72.44l-.1-.11.06-1.39.11-.09c3.06-2.64,3-2.79,2.88-3.15l-1.06-2.84a.52.52,0,0,0-.28-.3c-.11-.06-.44-.21-4-.28h-.14l-1-1.05v-.14c.24-4,.11-4.1-.23-4.26l-2.78-1.32c-.34-.16-.49-.23-3.36,2.55l-.11.1-1.42-.08-.09-.1a19.76,19.76,0,0,0-2.82-2.86.51.51,0,0,0-.4,0l-2.88,1c-.37.13-.52.18-.52,4.19v.15l-1,.93-.14,0c-4.1-.3-4.16-.17-4.32.18l-1.29,2.71c-.17.35-.24.5,2.64,3.39l.1.1-.06,1.38-.11.1c-3.06,2.64-3,2.77-2.88,3.14l1,2.85a.58.58,0,0,0,.28.3c.11,0,.45.21,4,.28h.14l1,1v.14c-.24,4-.1,4.1.24,4.26l2.78,1.32c.34.16.49.23,3.36-2.55l.11-.11,1.42.09.09.1A21,21,0,0,0,424,84.92a.64.64,0,0,0,.41,0l2.88-1c.37-.12.52-.18.52-4.18v-.15l1-.92H429c4.1.3,4.17.17,4.33-.18l1.29-2.72c.17-.34.24-.49-2.64-3.37Zm-13.21,3a4.88,4.88,0,1,1,6.59-2.27,4.94,4.94,0,0,1-6.59,2.27Zm0,0" style="fill:#fff"/><path d="M426.87,240.61,422,238l.44-.8a6.11,6.11,0,0,0,.74-1.77.77.77,0,0,0-.5-.79.84.84,0,0,0-.85,0,2.24,2.24,0,0,0-.78.9,2.5,2.5,0,0,0-.41,1.85,20.46,20.46,0,0,0,1.65,3.2,21.91,21.91,0,0,1,1.59,3.07,5.39,5.39,0,0,1,.22,2.3,7.94,7.94,0,0,1-1,3,6.93,6.93,0,0,1-3.46,3.39,6.52,6.52,0,0,1-4.73-.21l-1,1.82-2.24-1.21,1-1.88a6.69,6.69,0,0,1-2.59-3.34c-.49-1.4-.16-3.18,1-5.34l.51-.94,4.85,2.63-.64,1.19a12.46,12.46,0,0,0-1.17,2.51.77.77,0,0,0,.47.87,1,1,0,0,0,.91.07,2,2,0,0,0,.77-.85,9.54,9.54,0,0,0,1-2.46,3.94,3.94,0,0,0-.73-2.38,39.49,39.49,0,0,1-1.91-3.68,6.31,6.31,0,0,1-.38-2.6,7,7,0,0,1,.88-3,5.28,5.28,0,0,1,3.08-2.74,6.86,6.86,0,0,1,4.52.48l.84-1.55,2.24,1.22-.85,1.54a6.07,6.07,0,0,1,2.55,3.34,5.47,5.47,0,0,1-.72,4C427.31,239.92,427.12,240.21,426.87,240.61Z" style="fill:#fff"/><path d="M147.76,136.51l-5.14,2-.34-.86a6,6,0,0,0-.87-1.71.81.81,0,0,0-.93-.12.86.86,0,0,0-.56.64,2.18,2.18,0,0,0,.19,1.18,2.5,2.5,0,0,0,1.14,1.5,19.9,19.9,0,0,0,3.51.8,21.48,21.48,0,0,1,3.38.77A5.13,5.13,0,0,1,150,142a7.73,7.73,0,0,1,1.61,2.67,7,7,0,0,1,.37,4.83,6.54,6.54,0,0,1-3.21,3.49l.75,1.93-2.36.93-.78-2a6.56,6.56,0,0,1-4.22-.17q-2.08-.78-3.43-4.21l-.39-1,5.14-2,.49,1.26a12.36,12.36,0,0,0,1.17,2.51.76.76,0,0,0,1,.2.93.93,0,0,0,.63-.65,1.88,1.88,0,0,0-.15-1.14,9.24,9.24,0,0,0-1.21-2.37,3.85,3.85,0,0,0-2.28-1,35.74,35.74,0,0,1-4-.92,6.09,6.09,0,0,1-2.23-1.38,6.71,6.71,0,0,1-1.73-2.6,5.27,5.27,0,0,1-.11-4.13,6.87,6.87,0,0,1,3.28-3.14l-.64-1.64,2.36-.93.64,1.64a6.1,6.1,0,0,1,4.19.2,5.53,5.53,0,0,1,2.58,3.11Q147.55,135.83,147.76,136.51Z" style="fill:#fff"/><path d="M282.82,108.77l1.83-.27.4,2.77-1.84.26.19,1.29,1.83-.26.4,2.76-1.83.27.42,2.92a12.06,12.06,0,0,0,.36,1.85,1.47,1.47,0,0,0,1.62,1,1.62,1.62,0,0,0,.85-.41,1.26,1.26,0,0,0,.4-.9,13.72,13.72,0,0,0-.21-2.19l-.36-2.48,6-.86.15,1a15.65,15.65,0,0,1,.09,5.45A5.5,5.5,0,0,1,291,124.1a8.81,8.81,0,0,1-4.26,1.68,9.17,9.17,0,0,1-3.83-.2,6.16,6.16,0,0,1-2.83-1.59,6.53,6.53,0,0,1-1.52-2.5,27.33,27.33,0,0,1-.89-4.32l-.09-.69-1.56.22-.4-2.77,1.56-.22-.19-1.29-1.56.23-.39-2.77,1.56-.22-.07-.47a29.69,29.69,0,0,1-.36-4,5.78,5.78,0,0,1,.81-2.92,6.58,6.58,0,0,1,2.37-2.38,9.62,9.62,0,0,1,3.68-1.27,9.34,9.34,0,0,1,3.9.21,5.76,5.76,0,0,1,3,2.06,11.81,11.81,0,0,1,1.73,5.31l.12.85-6,.86-.3-2.1c-.19-1.1-.33-1.79-.41-2.07a1,1,0,0,0-.44-.6,1.4,1.4,0,0,0-.93-.1,1.82,1.82,0,0,0-1.08.49,1.36,1.36,0,0,0-.37.94,15.4,15.4,0,0,0,.2,2Z" style="fill:#fff"/><path d="M129.13,23l1.47,1.13-1.7,2.22-1.47-1.12-.79,1,1.47,1.12-1.7,2.22-1.47-1.12-1.79,2.35a11.26,11.26,0,0,0-1.07,1.56,1.47,1.47,0,0,0-.13,1,1.4,1.4,0,0,0,.56.87,1.58,1.58,0,0,0,.89.32,1.28,1.28,0,0,0,.92-.34,16.65,16.65,0,0,0,1.42-1.69l1.52-2,4.81,3.68-.62.82a15.72,15.72,0,0,1-3.82,3.87,5.52,5.52,0,0,1-3.71.7,8.69,8.69,0,0,1-4.17-1.86,9.31,9.31,0,0,1-2.55-2.88,6.06,6.06,0,0,1-.84-3.12,6.61,6.61,0,0,1,.72-2.85,26.58,26.58,0,0,1,2.47-3.65l.42-.56-1.25-1,1.7-2.22,1.25,1,.79-1-1.25-1,1.69-2.22,1.26,1,.28-.38a30.89,30.89,0,0,1,2.62-3.07,6,6,0,0,1,2.65-1.47,6.6,6.6,0,0,1,3.36,0,9.48,9.48,0,0,1,3.49,1.75A9.33,9.33,0,0,1,139.13,19a5.62,5.62,0,0,1,.63,3.57,11.8,11.8,0,0,1-2.58,5l-.52.68-4.82-3.68,1.3-1.69c.65-.91,1-1.49,1.18-1.74a1.06,1.06,0,0,0,.13-.74,1.51,1.51,0,0,0-.58-.72,1.77,1.77,0,0,0-1.11-.43,1.31,1.31,0,0,0-.93.39,15.38,15.38,0,0,0-1.26,1.52Z" style="fill:#fff"/><path d="M326.93,31.39l-2.21,3.11a6.58,6.58,0,0,1-1.52,1.67,2.72,2.72,0,0,1-1.74.37,4.8,4.8,0,0,1-2.33-1,5.49,5.49,0,0,1-1.88-2,2.87,2.87,0,0,1-.28-1.76,5.37,5.37,0,0,1,1-1.92l2.31-3.26a6.47,6.47,0,0,1,1.68-1.8,2.65,2.65,0,0,1,1.8-.3,5.19,5.19,0,0,1,2.23,1,5.35,5.35,0,0,1,1.76,1.91,2.83,2.83,0,0,1,.3,1.83A6.33,6.33,0,0,1,326.93,31.39Zm-2.31-2.83a3.74,3.74,0,0,0,.56-.94c0-.15-.07-.29-.28-.45a.51.51,0,0,0-.52-.1,3.12,3.12,0,0,0-.71.81l-3.24,4.58a4.08,4.08,0,0,0-.59,1c0,.14.08.3.31.45a.45.45,0,0,0,.5.09,3.06,3.06,0,0,0,.68-.78Zm10,3.12L314.21,45.5l-1.73-1.22,20.46-13.8Zm-5.5,14.43-2.21,3.12a6.58,6.58,0,0,1-1.53,1.67,2.69,2.69,0,0,1-1.74.37,4.65,4.65,0,0,1-2.32-1,5.39,5.39,0,0,1-1.87-2,2.91,2.91,0,0,1-.29-1.77,5.73,5.73,0,0,1,1-1.91l2.32-3.27a6.47,6.47,0,0,1,1.67-1.78,2.61,2.61,0,0,1,1.81-.31,6,6,0,0,1,4,2.89,2.86,2.86,0,0,1,.29,1.82A6.31,6.31,0,0,1,329.14,46.11Zm-2.31-2.82a3.92,3.92,0,0,0,.55-.94c0-.15-.05-.3-.27-.46a.46.46,0,0,0-.51-.09,3.13,3.13,0,0,0-.72.83l-3.23,4.57a3.45,3.45,0,0,0-.58,1c0,.15.07.29.29.45s.37.17.5.09a3.19,3.19,0,0,0,.68-.79Z" style="fill:#fff"/><path d="M97.34,281.72l.77,3.23a6.84,6.84,0,0,1,.18,2.25,2.73,2.73,0,0,1-.93,1.52,4.74,4.74,0,0,1-2.29,1c-1.14.23-2,.76-2.73.54a2.86,2.86,0,0,1-1.47-1,5.39,5.39,0,0,1-.74-2l-.8-3.91a6.51,6.51,0,0,1-.16-2.46,2.65,2.65,0,0,1,1-1.52,5.15,5.15,0,0,1,2.23-1,5.25,5.25,0,0,1,2.6,0,2.9,2.9,0,0,1,1.54,1A6.16,6.16,0,0,1,97.34,281.72Zm-3.64-.24a3.38,3.38,0,0,0-.3-1.05c-.09-.12-.26-.16-.52-.1s-.38.15-.43.31a3.29,3.29,0,0,0,.11,1.07l1.13,5.49a3.47,3.47,0,0,0,.32,1.11c.09.11.27-.38.54-.43s.37-.15.4-.31a2.93,2.93,0,0,0-.1-1Zm9.13-5.18L99,300.14l-2.07.42,3.91-23.85Zm6.77,13.36.77,3.75a6.52,6.52,0,0,1,.17,2.25,2.62,2.62,0,0,1-.92,1.52,4.65,4.65,0,0,1-2.29,1,5.39,5.39,0,0,1-2.72,0,2.79,2.79,0,0,1-1.48-1,5.41,5.41,0,0,1-.74-2l-.81-3.93a6.57,6.57,0,0,1-.15-2.44,2.67,2.67,0,0,1,1-1.53,6,6,0,0,1,4.84-.94,2.8,2.8,0,0,1,1.53,1A6.23,6.23,0,0,1,109.6,289.66Zm-3.64-.24a3.83,3.83,0,0,0-.3-1.05c-.09-.13-.26-.17-.52-.11s-.38.15-.42.31a3.19,3.19,0,0,0,.12,1.08l1.12,5.49a3.9,3.9,0,0,0,.32,1.1c.09.11.27.14.53.08s.38-.15.41-.3a3.37,3.37,0,0,0-.11-1Z" style="fill:#fff"/><path d="M58.4,86.09v3.82a7,7,0,0,1-.28,2.24,2.68,2.68,0,0,1-1.21,1.31,4.75,4.75,0,0,1-2.45.55,5.38,5.38,0,0,1-2.68-.53,2.75,2.75,0,0,1-1.24-1.27,5.37,5.37,0,0,1-.33-2.12v-4a6.7,6.7,0,0,1,.34-2.44,2.65,2.65,0,0,1,1.3-1.28,5.13,5.13,0,0,1,2.37-.5,5.2,5.2,0,0,1,2.54.55,2.85,2.85,0,0,1,1.31,1.31A6.33,6.33,0,0,1,58.4,86.09Zm-3.52-1A3.76,3.76,0,0,0,54.79,84q-.09-.21-.48-.21a.49.49,0,0,0-.48.22,3,3,0,0,0-.11,1.08v5.6a4,4,0,0,0,.09,1.15c.07.13.24.19.51.19s.39-.07.46-.22a3.05,3.05,0,0,0,.1-1Zm10-3.25L56.17,105H54.06l8.72-23.09Zm3.84,15v3.83a6.74,6.74,0,0,1-.28,2.24,2.68,2.68,0,0,1-1.21,1.31,4.73,4.73,0,0,1-2.45.55,5.39,5.39,0,0,1-2.67-.53A2.79,2.79,0,0,1,60.85,103a5.37,5.37,0,0,1-.32-2.11v-4a6.71,6.71,0,0,1,.33-2.43,2.75,2.75,0,0,1,1.3-1.29,5.14,5.14,0,0,1,2.38-.5,5.24,5.24,0,0,1,2.55.55,2.89,2.89,0,0,1,1.3,1.32A6.52,6.52,0,0,1,68.71,96.83Zm-3.51-1a3.9,3.9,0,0,0-.09-1.1c-.06-.14-.23-.21-.49-.21s-.41.08-.47.22A3.28,3.28,0,0,0,64,95.87v5.6a3.47,3.47,0,0,0,.1,1.14c.06.13.23.19.49.19s.4-.07.47-.21a3.39,3.39,0,0,0,.1-1Z" style="fill:#fff"/><path d="M417.68,169.51a2.6,2.6,0,0,1-1.94-4.31l8.54-9.66-8-12.07a2.59,2.59,0,0,1,4.32-2.86l9.07,13.73a2.59,2.59,0,0,1-.22,3.15l-9.84,11.14A2.61,2.61,0,0,1,417.68,169.51Z" style="fill:#fff5f5"/><path d="M507.89,19.61A1.34,1.34,0,0,0,509,18.13V15.5A1.34,1.34,0,0,0,507.89,14c-.62,0-1.12.66-1.12,1.48v2.63C506.77,19,507.27,19.61,507.89,19.61Z" style="fill:#fff"/><path d="M502.15,21.15a1.33,1.33,0,0,0,.23-1.84L501.07,17a1.35,1.35,0,0,0-1.71-.73,1.33,1.33,0,0,0-.23,1.84l1.32,2.29A1.33,1.33,0,0,0,502.15,21.15Z" style="fill:#fff"/><path d="M497.23,23.64,495,22.32a1.34,1.34,0,0,0-1.84.23,1.35,1.35,0,0,0,.72,1.71l2.29,1.32a1.35,1.35,0,0,0,1.84-.23A1.35,1.35,0,0,0,497.23,23.64Z" style="fill:#fff"/><path d="M522,37.91l-2.29-1.32a1.33,1.33,0,0,0-1.84.23,1.36,1.36,0,0,0,.72,1.71l2.29,1.31A1.16,1.16,0,1,0,522,37.91Z" style="fill:#fff"/><path d="M496.42,31.08c0-.61-.67-1.12-1.48-1.12H492.3c-.81,0-1.48.51-1.48,1.12s.67,1.12,1.48,1.12h2.64C495.75,32.2,496.42,31.7,496.42,31.08Z" style="fill:#fff"/><path d="M523.47,30h-2.63a1.34,1.34,0,0,0-1.48,1.12c0,.62.66,1.12,1.48,1.12h2.63c.82,0,1.48-.5,1.48-1.12A1.34,1.34,0,0,0,523.47,30Z" style="fill:#fff"/><path d="M496.11,36.59l-2.28,1.32A1.16,1.16,0,1,0,495,39.84l2.28-1.31a1.16,1.16,0,1,0-1.12-1.94Z" style="fill:#fff"/><path d="M519.66,25.58,522,24.26a1.35,1.35,0,0,0,.72-1.71,1.34,1.34,0,0,0-1.84-.23l-2.29,1.32a1.35,1.35,0,0,0-.72,1.71A1.35,1.35,0,0,0,519.66,25.58Z" style="fill:#fff"/><path d="M516.42,16.3a1.35,1.35,0,0,0-1.71.73l-1.32,2.28a1.35,1.35,0,0,0,.23,1.84,1.34,1.34,0,0,0,1.71-.72l1.32-2.29A1.34,1.34,0,0,0,516.42,16.3Z" style="fill:#fff"/><path d="M508.29,22.85c-5,0-8.16,3.42-8.16,8.73,0,4.25,3.58,7.15,4.74,8V44.1c0,1.64,1.84,2.52,3.56,2.52h0a4.12,4.12,0,0,0,2.14-.54,2.27,2.27,0,0,0,1.13-2V39.58l.06-.06c1.22-.88,4.68-3.75,4.68-7.94C516.44,26.27,513.24,22.85,508.29,22.85Zm1.48,21.94a2.63,2.63,0,0,1-1.34.32,2.41,2.41,0,0,1-2-.76,9.84,9.84,0,0,0,2.13.26,6.11,6.11,0,0,0,1.53-.19A.92.92,0,0,1,509.77,44.79Zm.41-1.93a6.12,6.12,0,0,1-3.79,0v-.59a9.53,9.53,0,0,0,2.18.27,5.84,5.84,0,0,0,1.61-.21Zm0-2.1a6.13,6.13,0,0,1-3.79,0v-.62a10.06,10.06,0,0,0,2.33.29,6.05,6.05,0,0,0,1.46-.16Zm.36-2.24,0,0c-1.4.74-3.74.18-4.57-.12h-.05c-.78-.54-4.23-3.16-4.23-6.84,0-4.45,2.54-7.21,6.64-7.21s6.64,2.76,6.64,7.21C514.93,35.71,510.58,38.49,510.54,38.52Z" style="fill:#fff"/><path d="M36.11,208.76c.62,0,1.12-.67,1.12-1.48v-2.64c0-.81-.5-1.48-1.12-1.48s-1.12.67-1.12,1.48v2.64C35,208.09,35.5,208.76,36.11,208.76Z" style="fill:#fff"/><path d="M30.38,210.29a1.35,1.35,0,0,0,.23-1.84l-1.32-2.28a1.34,1.34,0,0,0-1.71-.72,1.34,1.34,0,0,0-.23,1.84l1.32,2.28A1.33,1.33,0,0,0,30.38,210.29Z" style="fill:#fff"/><path d="M25.46,212.78l-2.29-1.32a1.16,1.16,0,1,0-1.12,1.94l2.29,1.32a1.34,1.34,0,0,0,1.84-.23A1.36,1.36,0,0,0,25.46,212.78Z" style="fill:#fff"/><path d="M50.17,227.05l-2.28-1.32a1.16,1.16,0,1,0-1.12,1.94L49.05,229a1.16,1.16,0,1,0,1.12-1.94Z" style="fill:#fff"/><path d="M24.64,220.23c0-.62-.66-1.12-1.48-1.12H20.53c-.82,0-1.48.5-1.48,1.12a1.34,1.34,0,0,0,1.48,1.12h2.63A1.34,1.34,0,0,0,24.64,220.23Z" style="fill:#fff"/><path d="M51.7,219.11H49.06c-.81,0-1.48.5-1.48,1.12s.67,1.12,1.48,1.12H51.7c.81,0,1.48-.51,1.48-1.12S52.51,219.11,51.7,219.11Z" style="fill:#fff"/><path d="M24.34,225.73l-2.29,1.32A1.16,1.16,0,1,0,23.17,229l2.29-1.32a1.36,1.36,0,0,0,.72-1.71A1.34,1.34,0,0,0,24.34,225.73Z" style="fill:#fff"/><path d="M47.89,214.72l2.28-1.32a1.16,1.16,0,1,0-1.12-1.94l-2.28,1.32a1.16,1.16,0,1,0,1.12,1.94Z" style="fill:#fff"/><path d="M44.64,205.45a1.34,1.34,0,0,0-1.71.72l-1.31,2.28a1.16,1.16,0,1,0,1.93,1.12l1.32-2.28A1.33,1.33,0,0,0,44.64,205.45Z" style="fill:#fff"/><path d="M36.51,212c-5,0-8.16,3.43-8.16,8.73,0,4.26,3.58,7.16,4.74,8v4.53c0,1.64,1.84,2.53,3.57,2.53h0a4.08,4.08,0,0,0,2.13-.54,2.29,2.29,0,0,0,1.13-2v-4.52l.06-.05c1.22-.88,4.69-3.76,4.69-7.95C44.67,215.42,41.46,212,36.51,212ZM38,233.94a2.62,2.62,0,0,1-1.33.31,2.38,2.38,0,0,1-2-.76,9.32,9.32,0,0,0,2.13.26,5.68,5.68,0,0,0,1.53-.19A.88.88,0,0,1,38,233.94Zm.42-1.93a6.23,6.23,0,0,1-3.8,0v-.59a9.53,9.53,0,0,0,2.18.27,6,6,0,0,0,1.62-.21Zm0-2.1a6.16,6.16,0,0,1-3.8,0v-.62a10,10,0,0,0,2.33.3,6.69,6.69,0,0,0,1.47-.16Zm.35-2.24,0,0c-1.4.73-3.73.17-4.57-.13h0c-.77-.54-4.23-3.15-4.23-6.84,0-4.45,2.54-7.21,6.64-7.21s6.64,2.76,6.64,7.21C43.15,224.85,38.8,227.64,38.76,227.67Z" style="fill:#fff"/><path d="M235.56,24.42c.62,0,1.12-.66,1.12-1.48V20.31c0-.82-.5-1.48-1.12-1.48s-1.12.66-1.12,1.48v2.63C234.44,23.76,234.94,24.42,235.56,24.42Z" style="fill:#fff"/><path d="M229.82,26a1.33,1.33,0,0,0,.23-1.84l-1.31-2.28a1.35,1.35,0,0,0-1.71-.73A1.33,1.33,0,0,0,226.8,23l1.32,2.29A1.33,1.33,0,0,0,229.82,26Z" style="fill:#fff"/><path d="M224.9,28.45l-2.28-1.32a1.34,1.34,0,0,0-1.84.23,1.35,1.35,0,0,0,.72,1.71l2.29,1.32a1.35,1.35,0,0,0,1.84-.23A1.35,1.35,0,0,0,224.9,28.45Z" style="fill:#fff"/><path d="M249.62,42.72l-2.29-1.32a1.33,1.33,0,0,0-1.84.23,1.35,1.35,0,0,0,.73,1.71l2.28,1.31a1.16,1.16,0,1,0,1.12-1.93Z" style="fill:#fff"/><path d="M224.09,35.89c0-.61-.67-1.12-1.48-1.12H220c-.81,0-1.48.51-1.48,1.12S219.16,37,220,37h2.64C223.42,37,224.09,36.51,224.09,35.89Z" style="fill:#fff"/><path d="M251.14,34.77h-2.63c-.81,0-1.48.51-1.48,1.12S247.7,37,248.51,37h2.63c.82,0,1.48-.5,1.48-1.12A1.34,1.34,0,0,0,251.14,34.77Z" style="fill:#fff"/><path d="M223.79,41.4l-2.29,1.32a1.16,1.16,0,1,0,1.12,1.93l2.28-1.31a1.16,1.16,0,1,0-1.11-1.94Z" style="fill:#fff"/><path d="M247.33,30.39l2.29-1.32a1.35,1.35,0,0,0,.72-1.71,1.34,1.34,0,0,0-1.84-.23l-2.28,1.32a1.35,1.35,0,0,0-.73,1.71A1.35,1.35,0,0,0,247.33,30.39Z" style="fill:#fff"/><path d="M244.09,21.11a1.35,1.35,0,0,0-1.71.73l-1.31,2.28A1.16,1.16,0,1,0,243,25.24L244.32,23A1.33,1.33,0,0,0,244.09,21.11Z" style="fill:#fff"/><path d="M236,27.66c-5,0-8.16,3.43-8.16,8.73,0,4.25,3.58,7.15,4.74,8v4.53c0,1.64,1.84,2.52,3.56,2.52h0a4.12,4.12,0,0,0,2.14-.54,2.27,2.27,0,0,0,1.13-2V44.39l.06,0c1.22-.89,4.68-3.76,4.68-8C244.11,31.09,240.91,27.66,236,27.66Zm1.48,21.94a2.63,2.63,0,0,1-1.34.32,2.41,2.41,0,0,1-2-.76,9.92,9.92,0,0,0,2.13.26,6.11,6.11,0,0,0,1.53-.19A.92.92,0,0,1,237.44,49.6Zm.41-1.93a6.12,6.12,0,0,1-3.79,0v-.59a9.53,9.53,0,0,0,2.18.27,5.84,5.84,0,0,0,1.61-.21Zm0-2.09a6.13,6.13,0,0,1-3.79,0V45a10.06,10.06,0,0,0,2.33.29,6.05,6.05,0,0,0,1.46-.16Zm.36-2.25,0,0c-1.4.73-3.74.17-4.57-.13h0c-.78-.54-4.23-3.16-4.23-6.84,0-4.45,2.54-7.21,6.64-7.21s6.64,2.76,6.64,7.21C242.6,40.52,238.25,43.3,238.21,43.33Z" style="fill:#fff"/><path d="M479.36,347.85H61.88a2.59,2.59,0,1,1,0-5.18H479.36a2.59,2.59,0,1,1,0,5.18Z" style="fill:#fff5f5"/><path d="M280.5,348H253.55a2.59,2.59,0,0,1-2.59-2.59V249.33a2.59,2.59,0,0,1,2.59-2.59H280.5a2.59,2.59,0,0,1,2.59,2.59v96.06A2.59,2.59,0,0,1,280.5,348Zm-24.36-5.18h21.77V251.92H256.14Z" style="fill:#fff5f5"/><rect x="253.55" y="282.5" width="26.95" height="62.89" style="fill:#f5b244"/><path d="M283.09,348H251V279.91h32.13Zm-26.95-5.18h21.77V285.09H256.14Z" style="fill:#f5b244"/><path d="M233.34,348h-27a2.59,2.59,0,0,1-2.59-2.59V284.58a2.59,2.59,0,0,1,2.59-2.6h27a2.59,2.59,0,0,1,2.59,2.6v60.81A2.59,2.59,0,0,1,233.34,348ZM209,342.8h21.77V287.17H209Z" style="fill:#fff5f5"/><rect x="206.38" y="305.58" width="26.95" height="39.81" style="fill:#f5b244"/><path d="M235.93,348H203.79V303h32.14Zm-27-5.18h21.77V308.17H209Z" style="fill:#f5b244"/><path d="M330.26,348H303.31a2.59,2.59,0,0,1-2.59-2.59V209.68a2.59,2.59,0,0,1,2.59-2.59h26.95a2.59,2.59,0,0,1,2.59,2.59V345.39A2.59,2.59,0,0,1,330.26,348ZM305.9,342.8h21.77V212.27H305.9Z" style="fill:#fff5f5"/><rect x="303.31" y="256.54" width="26.95" height="88.85" style="fill:#f5b244"/><path d="M332.85,348H300.72V254h32.13Zm-27-5.18h21.77V259.14H305.9Z" style="fill:#f5b244"/><path d="M184.61,348h-27a2.59,2.59,0,0,1-2.59-2.59V322.93a2.59,2.59,0,0,1,2.59-2.59h27a2.6,2.6,0,0,1,2.6,2.59v22.46A2.6,2.6,0,0,1,184.61,348Zm-24.36-5.18H182V325.52H160.25Z" style="fill:#fff5f5"/><rect x="157.66" y="334.51" width="26.95" height="10.88" style="fill:#f5b244"/><path d="M187.21,348H155.07V331.92h32.14Zm-27-5.18H182v-5.7H160.25Z" style="fill:#f5b244"/><path d="M379.5,348H352.55a2.59,2.59,0,0,1-2.59-2.59V168.73a2.59,2.59,0,0,1,2.59-2.59H379.5a2.59,2.59,0,0,1,2.59,2.59V345.39A2.59,2.59,0,0,1,379.5,348Zm-24.36-5.18h21.77V171.32H355.14Z" style="fill:#fff5f5"/><rect x="352.55" y="229.74" width="26.95" height="115.65" style="fill:#f5b244"/><path d="M382.09,348H350V227.15h32.13Zm-26.95-5.18h21.77V232.33H355.14Z" style="fill:#f5b244"/><path d="M506.56,293a17.62,17.62,0,1,0,17.62,17.62A17.64,17.64,0,0,0,506.56,293Zm14.61,17.57H506.31v-.07h0V296h.25A14.63,14.63,0,0,1,521.17,310.59ZM509,325l-2.72-14.42L517.8,320A14.61,14.61,0,0,1,509,325Z" style="fill:#fff"/><path d="M506.56,192a17.37,17.37,0,1,0,17.36,17.36A17.38,17.38,0,0,0,506.56,192Zm11,26.62-11.17-9.46,9.26-10.94a14.37,14.37,0,0,1,1.91,20.4Z" style="fill:#fff"/><path d="M506.56,244.29a17.63,17.63,0,1,0,17.62,17.63A17.65,17.65,0,0,0,506.56,244.29Zm2.47,32-2.72-14.43,11.49,9.35A14.66,14.66,0,0,1,509,276.32Z" style="fill:#fff"/><path d="M206.72,141.35c0-.33.4-7.27.4-7.27L220,135.71l-.59,5.76Z" style="fill:#eabe8a"/><path d="M220.72,196.28l4.93-.25s10.9,1.49,11.68,1.63c1.75.31,1.78,1.15,1.78,1.7,0,.78,0,15.7,0,15.7l11.55-.67s.64-23.67.64-24.45a2.62,2.62,0,0,0-1.82-2.31l-19.84-5.51s-20.59-1.2-26.09-1.2c-3.42,13.87,1.94,18.53,1.94,18.53s2.07,17.86,1.74,20.94-4.82,25.48-4.82,25.48l9.42,11s7-32.51,7.29-35.81S220.72,196.28,220.72,196.28Z" style="fill:#0c5054"/><path d="M203.33,181.63a221.71,221.71,0,0,1,.55-23.35c.45-7.16,1.1-17.72,1.1-17.72s10.19.44,14,.44c7.38,6.18,14.68,11.92,10.6,41.12C222.56,182.12,205,181.63,203.33,181.63Z" style="fill:#fff5f5"/><path d="M213.15,249.28c-3.44-1.88-7.06-4.18-9-5.07a2.12,2.12,0,0,0-2.89.57c-.91,1.43-2.66,4.39-3.59,6.05L217,261.6C218.58,258.52,219.84,253,213.15,249.28Z" style="fill:#414042"/><path d="M216.82,261.92l.17-.32-19.33-10.77c-.09.15-.18.31-.25.45-.58,1.06-.11,2.28,1.23,3,3.51,1.94,11.45,6.23,15.16,8.22A2.11,2.11,0,0,0,216.82,261.92Z" style="fill:#242527"/><path d="M250.16,213.27c-3.92,0-8.19-.26-10.34-.11-1.37.1-2.18.85-2.25,1.89-.11,1.69-.22,5.13-.24,7l22.12.15C259.36,218.76,257.8,213.27,250.16,213.27Z" style="fill:#414042"/><path d="M259.46,222.59c0-.11,0-.23,0-.36l-22.12-.15c0,.18,0,.35,0,.51,0,1.21,1,2.06,2.54,2.06,4,0,13,0,17.24-.07A2.11,2.11,0,0,0,259.46,222.59Z" style="fill:#242527"/><path d="M234.47,122.13c-2.66,17.55-7.46,17.1-23.12,14.73-4.46-.68-19.88-6.6-17.65-21.27S204,92.76,216.82,94.71,236.7,107.46,234.47,122.13Z" style="fill:#ffce94"/><path d="M216.47,117a16.14,16.14,0,0,1,6.33-10s22,4.83,17.33-19c-.53-2.72-2.31-2.58-4.25-2.21-7.69,1.45-8.91,5.1-13.09,1.86-5.13-4-25.09-7.62-26.49,13.67-11,2.34-7.61,16-4.73,23.13,2.7,6.71,13.21,11.95,15.43,11.17,1.83-.65,3-5.74,3.12-7.57s-2.46-3.15-3.55-6.78,3.35-12.36,8.62-3.89C215.5,117.86,216.35,117.56,216.47,117Z" style="fill:#794629"/><path d="M230.58,133.44c-1.6-.25-4.16-1.12-7.82-3.7a1,1,0,1,1,1.14-1.62c5.68,4,8.35,3.38,8.38,3.37a12.93,12.93,0,0,1-.82,2.08C231.3,133.56,230.77,133.47,230.58,133.44Z" style="fill:#ec6245"/><path d="M233,115a3,3,0,1,1-2.44-3.93A3.29,3.29,0,0,1,233,115Z" style="fill:#f4ecec"/><path d="M233.43,115.42a2,2,0,1,1-1.61-2.59A2.18,2.18,0,0,1,233.43,115.42Z" style="fill:#0c5054"/><path d="M231.45,113.58a.95.95,0,1,1-.8-1A.91.91,0,0,1,231.45,113.58Z" style="fill:#f4ecec"/><path d="M237,122.5c-.32,2.12-2,3.62-3.79,3.35s-3-2.21-2.63-4.32,2-3.62,3.79-3.35S237.32,120.38,237,122.5Z" style="fill:#ffce94"/><path d="M246.83,220.66a4.8,4.8,0,0,1-2.29,6.4l-30.72,14.53a4.81,4.81,0,0,1-6.4-2.29l-8.36-17.68a4.8,4.8,0,0,1,2.29-6.4l30.72-14.53a4.8,4.8,0,0,1,6.4,2.29Z" style="fill:#242527"/><path d="M222.93,215.18a1.87,1.87,0,1,1-3.38,1.6,1.87,1.87,0,1,1,3.38-1.6Z" style="fill:#fffaf7"/><rect x="200.9" y="219.79" width="43.38" height="1.32" transform="translate(-72.88 116.31) rotate(-25.31)" style="fill:#fffaf7"/><path d="M212.71,199.11h0l-.08,0-.09,0h0c-2,1.09-6.86,4-5.59,6.72l3.39,7.17,2.39-1.13-3.32-7c.29-.75,2.16-2.26,4.34-3.42,2.28-.94,4.64-1.43,5.39-1.19l3.32,7,2.39-1.13-3.4-7.18C220.18,196.36,214.86,198.23,212.71,199.11Z" style="fill:#242527"/><path d="M209.93,190.82a44.12,44.12,0,0,1-6.32,2c-4.79,17.15,13.46,16.83,16,10.18.82-2.17-4.95-2.51-5.09-5.45-.1-2.24,3.86-.33,5.17,0s3.16-2.52,1.19-3.27S210.42,192.76,209.93,190.82Z" style="fill:#ffce94"/><path d="M211,191.9,203,195.18c-7.81-17.67-4.87-30.53-1.14-37.77,4.13-8,6.51-9.39,8.92-11,3.47-2.5,7.09,5.16,4,6.83C213.23,154.07,198.76,164.29,211,191.9Z" style="fill:#f4ecec"/><path d="M205.17,138.76c-.38-.06-.52,4.18-.35,4.37s19,2.09,19.14,1.67c.22-1-3.1-4.16-3.25-4.2C220.13,140.47,218.87,140.56,205.17,138.76Z" style="fill:#f4ecec"/></svg>