<svg xmlns="http://www.w3.org/2000/svg" viewBox="0 0 250 250"><title>book-batch</title><rect width="250" height="250" style="fill:#515151"/><path d="M105.63,63V74.63H94V86.25H82.38V97.88H74.63v62H63v15.5A11.64,11.64,0,0,0,74.63,187H140.5a11.64,11.64,0,0,0,11.63-11.62V97.88H86.25V90.13h73.63v69.75h3.87V86.25H97.88V78.5H171.5v69.75h3.88V74.63H109.5V66.88h73.63v69.75H187V63Zm-31,120.13a7.76,7.76,0,0,1-7.75-7.75V163.75h62v11.63a11.55,11.55,0,0,0,3,7.75Zm73.62-81.38v73.63a7.75,7.75,0,0,1-15.5,0v-15.5H78.5V101.75Z" style="fill:#fff"/></svg>