<svg xmlns="http://www.w3.org/2000/svg" viewBox="0 0 250 250"><title>choose-your-course</title><rect width="250" height="250" style="fill:#515151"/><path d="M132.66,122.72a10.13,10.13,0,0,0,2.51-6.68V114.1a10.17,10.17,0,0,0-20.34,0V116a10.13,10.13,0,0,0,2.51,6.68,22.33,22.33,0,0,0-14.62,20.93,2.42,2.42,0,0,0,2.42,2.42h9a2.42,2.42,0,0,0,0-4.84h-6.37a17.44,17.44,0,0,1,34.54,0H135.9a2.42,2.42,0,0,0,0,4.84h9a2.42,2.42,0,0,0,2.42-2.42A22.33,22.33,0,0,0,132.66,122.72Zm-13-6.68V114.1a5.33,5.33,0,0,1,10.66,0V116a5.33,5.33,0,0,1-10.66,0Z" style="fill:#fff"/><path d="M122.58,83.05V95.94a2.42,2.42,0,0,0,4.84,0V83.05a10.17,10.17,0,1,0-4.84,0ZM125,67.84a5.33,5.33,0,1,1-5.33,5.33A5.33,5.33,0,0,1,125,67.84Z" style="fill:#fff"/><path d="M127.42,167v-12.4a2.42,2.42,0,1,0-4.84,0V167a10.17,10.17,0,1,0,4.84,0ZM125,182.16a5.33,5.33,0,1,1,5.33-5.33A5.33,5.33,0,0,1,125,182.16Z" style="fill:#fff"/><path d="M176.83,114.83a10.19,10.19,0,0,0-9.88,7.75H154.06a2.42,2.42,0,0,0,0,4.84H167a10.17,10.17,0,1,0,9.88-12.59Zm0,15.5a5.33,5.33,0,1,1,5.33-5.33A5.33,5.33,0,0,1,176.83,130.33Z" style="fill:#fff"/><path d="M83.05,127.42H95.94a2.42,2.42,0,0,0,0-4.84H83.05a10.17,10.17,0,1,0,0,4.84Zm-9.88,2.91A5.33,5.33,0,1,1,78.5,125,5.33,5.33,0,0,1,73.17,130.33Z" style="fill:#fff"/><path d="M161.65,151.48a10.12,10.12,0,0,0-5.28,1.47l-3.55-3.56a2.43,2.43,0,0,0-3.43,3.43l3.56,3.56a10.17,10.17,0,1,0,15.89-1.92,10.06,10.06,0,0,0-7.19-3Zm3.77,13.94a5.33,5.33,0,0,1-7.54-7.54,5.34,5.34,0,0,1,7.54,0A5.35,5.35,0,0,1,165.42,165.42Z" style="fill:#fff"/><path d="M81.16,95.54a10.17,10.17,0,0,0,12.46,1.51l9.12,9.11a2.41,2.41,0,0,0,3.42,0,2.41,2.41,0,0,0,0-3.42l-9.11-9.12a10.17,10.17,0,1,0-15.89,1.92Zm3.42-11a5.33,5.33,0,0,1,7.54,7.54h0a5.33,5.33,0,0,1-7.54-7.54Z" style="fill:#fff"/><path d="M145.55,106.87a2.37,2.37,0,0,0,1.71-.71l9.12-9.11A10.17,10.17,0,1,0,153,93.62l-9.11,9.12a2.41,2.41,0,0,0,0,3.42,2.37,2.37,0,0,0,1.71.71Zm12.33-22.29a5.33,5.33,0,1,1,0,7.54h0A5.34,5.34,0,0,1,157.88,84.58Z" style="fill:#fff"/><path d="M97.18,149.39,93.63,153a10.18,10.18,0,1,0,3.42,3.43l3.56-3.56a2.43,2.43,0,1,0-3.43-3.43Zm-5.06,16a5.33,5.33,0,1,1,0-7.54A5.32,5.32,0,0,1,92.12,165.42Z" style="fill:#fff"/><path d="M125,146.07a2.42,2.42,0,1,0-1.71-.71A2.43,2.43,0,0,0,125,146.07Z" style="fill:#fff"/></svg>