<svg xmlns="http://www.w3.org/2000/svg" viewBox="0 0 544 362"><title>choose-your-course-lg</title><path d="M536.74,305.46l-126.88,0-107.75,0H287.28L36,305.32s-13.25-32.76-9.7-68.19a107.22,107.22,0,0,1,2.17-13.35.08.08,0,0,0,0,0c.64-2.74,1.39-5.47,2.28-8.17a81,81,0,0,1,19.54-32.26c58.3-58.83,133.63-9.66,161.9-11.09s29.86-57.89,114.33-64.63c46.84-3.74,97.14,5,113.38,44.3,6.4,15.48,7.51,35.71,1,61.78-3.76,15.16-.53,24.43,6.64,30.44,14.91,12.48,46.86,10.87,68.65,18.64C532.46,268.54,543.05,279.54,536.74,305.46Z" style="fill:#ebf2f9"/><path d="M447.58,244.11,81.33,291.69a118.57,118.57,0,0,1-4.17-39L439.9,151.89c6.4,15.48,7.51,35.71,1,61.78C437.18,228.83,440.41,238.1,447.58,244.11Z" style="fill:#f8fbff"/><path d="M294.42,170.38,26.29,237.13a107.22,107.22,0,0,1,2.17-13.35.08.08,0,0,0,0,0c.64-2.74,1.39-5.47,2.28-8.17Z" style="fill:#f8fbff"/><path d="M287.28,305.39,36,305.32s-16.78-41.47-7.53-81.54a.08.08,0,0,0,0,0,125.44,125.44,0,0,1,67.9,16.37c42.41,24.12,112,6.47,132.19,20s24.78,27.54,39.76,29.95a24.55,24.55,0,0,1,19,15.33Z" style="fill:#c9e0f2"/><path d="M388.67,142.84a7,7,0,1,1,7,7A7,7,0,0,1,388.67,142.84Z" style="fill:#f8fbff"/><path d="M364,285.38c7-2.18,15.91-5.73,11-8.4-5.22-2.85-11.87,3.21-15.47,7.21l-.56-.08a18.78,18.78,0,0,0-2.81-.2c6.87-11,14.54-25.67,8-27.54-7-2-12.07,15.82-14.56,28.31-6.87,1.49-14.26,4.82-22,7.05-2.72-9.9-9-24.67-22.12-24.34-13.79.34,3.43,16.36,15,26a38.15,38.15,0,0,1-7.85.5c-16.86-.79-27.43,10.64-27.43,10.64h90.56C379.32,299.11,374.17,289.17,364,285.38Z" style="fill:#a8d29f"/><path d="M210.58,63.12s-6.31-6.88-8.26-7.11-10,3.62-10.44,5.14,8.83-1.52,9.35,0,1.09,2.55,3.73,2.66a11.16,11.16,0,0,1,4.93,1.61Z" style="fill:#ffb27d"/><path d="M218.15,304.5c-2-1.22-.86-10.35-.86-10.35s9.34-7.48,10.63-1.75,8.88,8.29,13.2,9c3,.48,3.91,2.14,4.19,3.11Z" style="fill:#233862"/><path d="M216.48,298.7c-2.4-.9-15.73-32.91-15.17-43.3.06-1.24-.18-11.35-.56-13.45-.3-1.63-.69-3.53-1.17-5.64-.73-3.21-1.64-6.91-2.65-10.87-2.83-11.15-6.44-24.4-8.94-34.95,4.47-10,10.2-18.79,15.46-21.79,3.75.46,7.36,1.15,10,1.73a45.88,45.88,0,0,1,4.91,3.24c.42,2.08,1,5.54,1.51,10,.32,2.92.59,6.27.71,9.94.89,26-3.66,54.25,7.93,100.36C228.88,295.27,220.19,300.1,216.48,298.7Z" style="fill:#2b478b"/><path d="M219.91,183.68c-1.93,9.67-6.58,30.32-23,41.76-2.83-11.15-6.44-24.4-8.94-34.95,4.47-10,10.2-18.79,15.46-21.79,3.75.46,7.36,1.15,10,1.73a45.88,45.88,0,0,1,4.91,3.24C218.82,175.75,219.42,179.21,219.91,183.68Z" style="fill:#233862"/><path d="M199.75,92.74v1.62s.44,5.07-5.8,5.81-11-2-10.81-5.89c.56-3,1.18-5.11,1.22-7.62a17.6,17.6,0,0,0-.22-3l12.1-.24,3.56.58Z" style="fill:#ffb27d"/><path d="M199.79,84l0,8.78a10.38,10.38,0,0,1-4.36,1c-5.57,0-9.16-4.08-11-7a17.6,17.6,0,0,0-.22-3l12.1-.24Z" style="fill:#e8945b"/><path d="M200.5,88.23s-15.5,3.13-17.3-6.55-5-15.8,4.81-18.21,12.43.93,13.82,4S204.48,87.16,200.5,88.23Z" style="fill:#ffb27d"/><path d="M189.34,304.5a34,34,0,0,0-2.19-7.31c-1.34-2.68-9.87-1-9.87-1s-1.71,1.47-2.07,8.29Z" style="fill:#233862"/><path d="M206.07,173.82s-8.5,37.85-11.22,54.94c-1,6.39-3.14,26.87-3.48,33.33-.45,8.88-3.38,36-3.38,36s-4.93-3.12-12.25-.21c0,0-1.85-12.17-3-37.66-.34-7.48,1.1-18.7.93-22.35-.86-17.92-6.59-64.27-2-67.25S206.07,173.82,206.07,173.82Z" style="fill:#2b478b"/><path d="M204.84,60.29a32.39,32.39,0,0,1-9.42-2.55c-4.14-1.8-9.36.19-11,1.08a2.5,2.5,0,0,1,.41-1,2.27,2.27,0,0,0-.87,1.29c-.08.06-.11.1-.09.11a3.05,3.05,0,0,0-1.42.09s.39,0,.53.2a.19.19,0,0,0,.06.07c-6.45,3.12-7.05,13.31-5,15.67,2.5,2.84,5.49,9.24,5.49,9.24a5.5,5.5,0,0,0,.64-4c-.45-2.5,1.7-2.5,4.43-3.64s.45-4.31,2.84-6.24,11.13-.8,11-2.27C205.68,67.12,204.84,60.62,204.84,60.29Z" style="fill:#233862"/><path d="M209,59.78a4.33,4.33,0,0,0-2.09,2.37c-1,2.36-.19,3.65-.19,3.65S223.1,80.67,222,83.38c-.56,1.42-13.27,8.87-18.55,11.92-2.17-.19-3.85-.17-3.9-.17h0s-3.59,11-16.45-.85c-2.26,3.29-19.77,11.36-16.73,25.29q1.07,4.91,1.86,9.27c3.62,19.73,3.34,31.38,2.63,37.8-.55,5-2.63,5.51-.77,6.85a55.4,55.4,0,0,0,10.39,3,102.57,102.57,0,0,0,20.12,2c13.23.08,18.24-4.47,18.24-4.47,3.5-3.43-3.43-16.91-2.88-26.64.29-5,0-22.08-.07-29.94h0c.64-.7,20-22,23.8-34.08h0a16.74,16.74,0,0,0,.45-1.75C241.34,75.68,209,59.78,209,59.78Z" style="fill:#ee9849"/><path d="M170.89,166.64c.71-6.42,1-18.07-2.63-37.8.25-.79.5-1.54.74-2.26a3.45,3.45,0,0,1,6.61.23C178.28,137.14,180.69,154.69,170.89,166.64Z" style="fill:#e58638"/><path d="M166.94,155.85S175,151,177.48,151.6s7.9,3,7.57,4.41-6.62,2.42-7.72,2.25a5.41,5.41,0,0,0-3.57.64c-.72.62-6.42.85-7.11-.82S166.94,155.85,166.94,155.85Z" style="fill:#ffb27d"/><path d="M183.13,94.28s-9.86.71-15.22,3.85c-3.47,2-23.56,34.05-23.56,38.76s21.1,21.42,21.1,21.42,3.91,1.3,4.05-4.93c0,0-10.52-15.56-10-17.36.35-1.13,15.86-13.57,15.86-13.57Z" style="fill:#ee9849"/><path d="M239.73,83.39c-3.81,12.09-23.16,33.38-23.8,34.08h0c0-.21-1.65-6.31,2.16-10.66S235.34,91.27,239.73,83.39Z" style="fill:#e58638"/><path d="M179.41,96.1c0-.85,4-2,4-2s4.63,6.42,12.26,6.53c0,0-2.17,4.23-4.74,5.33C190.94,105.93,179.66,101.18,179.41,96.1Z" style="fill:#e58638"/><path d="M195.68,100.45s4-2.4,4.06-5c0,0,2.61-.32,3.75.94,0,0,1,4.46-.31,7C203.18,103.43,197.36,102.55,195.68,100.45Z" style="fill:#e58638"/><path d="M209.74,160.79a8.45,8.45,0,0,1-2.4,5.59L205,168.74a1.42,1.42,0,0,1-2.09-.06l-3.2-3.65a5.05,5.05,0,0,1-1.25-3.56c.13-2.9.36-8.49.5-13.88.11-4.37.16-8.61,0-11.18-.36-8.22-3.36-34.31-3.36-34.31h2a106.14,106.14,0,0,1,8.7,23.6,94.08,94.08,0,0,1,1.92,10.71S210.09,151.3,209.74,160.79Z" style="fill:#c65447"/><path d="M192.94,100.06l5.48-1.31a.83.83,0,0,1,.7,1c0,.89-1.55,3.5-2.22,3.71S191.64,101.87,192.94,100.06Z" style="fill:#ba4c43"/><path d="M179.41,94.85c0-.85,4-2,4-2s4.63,6.42,12.26,6.53c0,0-2.17,4.24-4.74,5.33C190.94,104.68,179.66,99.93,179.41,94.85Z" style="fill:#ee9849"/><path d="M195.68,99.35s4-2.39,4.06-5c0,0,2.61-.33,3.75.94,0,0,1,4.45-.31,7C203.18,102.34,197.36,101.45,195.68,99.35Z" style="fill:#ee9849"/><path d="M209.74,160.79a8.45,8.45,0,0,1-2.4,5.59L205,168.74a1.42,1.42,0,0,1-2.09-.06l-3.2-3.65a5.05,5.05,0,0,1-1.25-3.56c.13-2.9.36-8.49.5-13.88,5.12-6.4,6.88-15,7.37-21.89a94.08,94.08,0,0,1,1.92,10.71S210.09,151.3,209.74,160.79Z" style="fill:#ba4c43"/><rect x="123.56" y="275.32" width="40.19" height="29.18" rx="13.5" style="fill:#233862"/><rect x="120.51" y="275.32" width="40.19" height="29.18" rx="3.33" style="fill:#2b478b"/><path d="M133.27,275.32a9.49,9.49,0,0,1,6.73-3.53,8.92,8.92,0,0,1,6.9,3.53l-1.06.07a7.06,7.06,0,0,0-5.59-2.29,6.68,6.68,0,0,0-5.7,2.22A3.22,3.22,0,0,1,133.27,275.32Z" style="fill:#233862"/><rect x="120.51" y="276.24" width="40.19" height="13.2" rx="3.33" style="fill:#233862"/><rect x="120.51" y="275.32" width="40.19" height="13.2" rx="3.33" style="fill:#2b478b"/><path d="M139,285.94a1,1,0,1,1,1,1A1,1,0,0,1,139,285.94Z" style="fill:#233862"/><path d="M536.74,305.46l-126.88,0-.17,0a42.15,42.15,0,0,1,32.94-15.33c21.77.05,21.49-11.24,50-18.27a111.43,111.43,0,0,0,23.6-9C532.46,268.54,543.05,279.54,536.74,305.46Z" style="fill:#a8d29f"/><path d="M346.31,122.21V301.57a2.85,2.85,0,0,1-2.73,2.93h-2.74a2.6,2.6,0,0,1-1.92-.85,3,3,0,0,1-.81-2.08V122.21a3,3,0,0,1,1.31-2.5,2.51,2.51,0,0,1,1.42-.44h2.74A2.85,2.85,0,0,1,346.31,122.21Z" style="fill:#f1a34f"/><path d="M340.22,121.79V301.15a3,3,0,0,1-1.3,2.5,3,3,0,0,1-.81-2.08V122.21a3,3,0,0,1,1.31-2.5A3.07,3.07,0,0,1,340.22,121.79Z" style="fill:#e58638"/><polygon points="308.89 192.21 293.76 202.41 307.48 214.44 341.46 212.3 341.46 198.58 308.89 192.21" style="fill:#f1a34f"/><path d="M339.19,200.45a1.53,1.53,0,0,0,.11,1.3c.21.3.51.21.67-.21a1.57,1.57,0,0,0-.11-1.3C339.64,199.94,339.34,200,339.19,200.45Z" style="fill:#ce8032"/><path d="M339.19,208.57a1.53,1.53,0,0,0,.11,1.3c.21.3.51.2.67-.22a1.57,1.57,0,0,0-.11-1.3C339.64,208.05,339.34,208.15,339.19,208.57Z" style="fill:#ce8032"/><polygon points="396.4 164.48 420.06 174.66 397.31 186.74 342.88 184.85 342.88 167.86 396.4 164.48" style="fill:#f1a34f"/><polygon points="396.4 164.48 399.84 164.48 423.5 174.66 420.06 174.66 396.4 164.48" style="fill:#e89746"/><polygon points="397.31 186.74 399.14 186.74 423.5 174.66 420.06 174.66 397.31 186.74" style="fill:#ce8032"/><path d="M346.44,170.41a2,2,0,0,1-.14,1.67c-.28.39-.66.26-.86-.27a2,2,0,0,1,.14-1.67C345.86,169.75,346.24,169.88,346.44,170.41Z" style="fill:#ce8032"/><path d="M346.44,180.82a2,2,0,0,1-.14,1.67c-.28.39-.66.26-.86-.27a2,2,0,0,1,.14-1.67C345.86,180.16,346.24,180.29,346.44,180.82Z" style="fill:#ce8032"/><polygon points="289.35 135.02 265.7 145.2 288.44 157.28 342.88 155.39 342.88 138.4 289.35 135.02" style="fill:#f1a34f"/><polygon points="289.35 135.02 285.92 135.02 262.26 145.2 265.7 145.2 289.35 135.02" style="fill:#e89746"/><polygon points="288.44 157.28 286.61 157.28 262.26 145.2 265.7 145.2 288.44 157.28" style="fill:#ce8032"/><path d="M339.32,141a2,2,0,0,0,.14,1.67c.27.38.66.26.86-.28a2,2,0,0,0-.14-1.66C339.9,140.29,339.51,140.41,339.32,141Z" style="fill:#ce8032"/><path d="M339.32,151.36a2,2,0,0,0,.14,1.67c.27.38.66.26.86-.28a2,2,0,0,0-.14-1.66C339.9,150.7,339.51,150.82,339.32,151.36Z" style="fill:#ce8032"/><polygon points="308.89 192.21 306.93 192.21 290.86 202.5 293.76 202.5 308.89 192.21" style="fill:#e89746"/><polygon points="307.48 214.44 304.84 214.44 290.86 202.5 293.76 202.5 307.48 214.44" style="fill:#ce8032"/><path d="M352.41,284.26V304.5H332V284.18a7.29,7.29,0,0,1,6.53-7.25c.25,0,.5,0,.76,0H345A7.37,7.37,0,0,1,352.41,284.26Z" style="fill:#f1a34f"/><path d="M345.15,284.26V304.5H332V284.18a7.29,7.29,0,0,1,6.53-7.25A7.37,7.37,0,0,1,345.15,284.26Z" style="fill:#e58638"/><path d="M343.16,113.58v-.7h-1.8a2.09,2.09,0,0,0-1.28.59,2,2,0,0,0-.62,1.5,2,2,0,0,0,.64,1.47,2,2,0,0,0,1.49.63h1.57v-.71a2.2,2.2,0,0,0,0-2.79Z" style="fill:#e58638"/><path d="M346.62,96.38a7.13,7.13,0,0,0-4.79-1.63,7.61,7.61,0,0,0-3.49.84A6.17,6.17,0,0,0,335.77,98a3.67,3.67,0,0,0-.57,1.9,1.73,1.73,0,0,0,.46,1.22,1.53,1.53,0,0,0,1.17.49h1.57s0-.59,0-1l1.08-1.46a3.08,3.08,0,0,1,2.28-.86,3.13,3.13,0,0,1,2,.66,2.3,2.3,0,0,1,.81,1.88,2.75,2.75,0,0,1-.86,2.16,5.81,5.81,0,0,1-2.13,1,3.7,3.7,0,0,0-1.49.72,1.5,1.5,0,0,0-.37,1.11v3a2.29,2.29,0,0,0,.47,1.47,1.6,1.6,0,0,0,1.33.6h1.57V110a2.75,2.75,0,0,0,.18-.46,14,14,0,0,0,.12-2.43,6.59,6.59,0,0,0,3.83-2.08,6,6,0,0,0,1.4-4.07A5.73,5.73,0,0,0,346.62,96.38Z" style="fill:#e58638"/><path d="M350.2,100.93a6,6,0,0,1-1.41,4.07,6.53,6.53,0,0,1-3.83,2.08,14,14,0,0,1-.12,2.43,1.64,1.64,0,0,1-1.74,1.36,1.59,1.59,0,0,1-1.33-.6,2.24,2.24,0,0,1-.47-1.47v-3a1.5,1.5,0,0,1,.37-1.11,3.7,3.7,0,0,1,1.49-.72,6,6,0,0,0,2.13-1,2.75,2.75,0,0,0,.86-2.16,2.31,2.31,0,0,0-.82-1.88,3.44,3.44,0,0,0-4.3.2l-1.18,1.59a1.77,1.77,0,0,1-1.45.86,1.53,1.53,0,0,1-1.17-.49,1.68,1.68,0,0,1-.46-1.22,3.75,3.75,0,0,1,.56-1.9,6.19,6.19,0,0,1,2.58-2.38,7.58,7.58,0,0,1,3.49-.84,7.15,7.15,0,0,1,4.79,1.63A5.73,5.73,0,0,1,350.2,100.93Zm-5,14a2.06,2.06,0,0,1-.59,1.49,2,2,0,0,1-1.48.61,2,2,0,0,1-1.49-.63A2,2,0,0,1,341,115a2,2,0,0,1,.62-1.5,2.11,2.11,0,0,1,1.51-.6,2,2,0,0,1,1.48.6A2.1,2.1,0,0,1,345.23,115Z" style="fill:#f1a34f"/><path d="M5.93,304.63l95.4.62s-8.83-17.73-30.71-13.94c-13.82,2.4-18.39-1.21-24.08-4.76,10.53-4,26.12-10.56,18.86-12.15-6.93-1.52-16.37,5.23-22.18,10.24a29.21,29.21,0,0,0-4-1.71C51.62,271.31,75,248.14,64.69,247.48c-10.14-.64-23,22.28-29.1,34.51-.7-.14-1.44-.26-2.22-.37A16.3,16.3,0,0,0,24.55,283c-1.35-5.08-3.84-10.88-7.15-9.7s.43,7.08,3.9,11.49C11.69,291.16,5.93,304.63,5.93,304.63Z" style="fill:#82b378"/><rect x="-0.1" y="304.5" width="564.21" height="1.5" rx="0.69" style="fill:#2e3552"/></svg>