<svg xmlns="http://www.w3.org/2000/svg" xmlns:xlink="http://www.w3.org/1999/xlink" viewBox="0 0 544 362"><defs><linearGradient id="a" x1="287.03" y1="210.32" x2="461" y2="210.32" gradientUnits="userSpaceOnUse"><stop offset="0" stop-color="#a6b3c7"/><stop offset="1" stop-color="#a6b3b3"/></linearGradient><linearGradient id="b" x1="332" y1="264.36" x2="428.16" y2="264.36" gradientUnits="userSpaceOnUse"><stop offset="0" stop-color="#186da1"/><stop offset="1" stop-color="#639c38"/></linearGradient><linearGradient id="c" x1="300.16" y1="190.89" x2="440.55" y2="190.89" xlink:href="#b"/><linearGradient id="d" x1="260.36" y1="144.48" x2="293.77" y2="144.48" gradientUnits="userSpaceOnUse"><stop offset="0" stop-color="#d5e4ff"/><stop offset="1" stop-color="#edfffe"/></linearGradient><linearGradient id="e" x1="261.6" y1="50.36" x2="378.43" y2="50.36" xlink:href="#a"/><linearGradient id="f" x1="352.03" y1="131.22" x2="381.99" y2="131.22" xlink:href="#d"/><linearGradient id="g" x1="352.03" y1="122.34" x2="388.32" y2="122.34" xlink:href="#d"/><linearGradient id="h" x1="253.21" y1="4.11" x2="273.45" y2="4.11" gradientTransform="translate(526.66 8.22) rotate(-180)" xlink:href="#d"/><linearGradient id="i" x1="253.21" y1="0.91" x2="273.45" y2="0.91" gradientTransform="translate(526.66 1.83) rotate(-180)" xlink:href="#d"/><linearGradient id="j" x1="96.22" y1="106" x2="179.33" y2="22.9" gradientUnits="userSpaceOnUse"><stop offset="0.08" stop-color="#bcd7e8"/><stop offset="1" stop-color="#e6e7e8"/></linearGradient><linearGradient id="k" x1="92.8" y1="102.58" x2="175.91" y2="19.47" xlink:href="#j"/><linearGradient id="l" x1="84.49" y1="94.27" x2="167.6" y2="11.16" xlink:href="#j"/><linearGradient id="m" x1="84.75" y1="78.75" x2="167.86" y2="-4.36" xlink:href="#j"/><linearGradient id="n" x1="78.57" y1="332.49" x2="161.67" y2="249.39" xlink:href="#j"/><linearGradient id="o" x1="64.6" y1="318.53" x2="147.71" y2="235.42" xlink:href="#j"/><linearGradient id="p" x1="294.58" y1="292.43" x2="245.09" y2="116.62" gradientUnits="userSpaceOnUse"><stop offset="0" stop-color="#eea886"/><stop offset="0.79" stop-color="#cf9174"/></linearGradient><linearGradient id="q" x1="369.13" y1="330.51" x2="263.23" y2="82.19" gradientUnits="userSpaceOnUse"><stop offset="0" stop-color="#eea886"/><stop offset="0.79" stop-color="#cf9174"/><stop offset="0.8" stop-color="#cc8e71"/><stop offset="0.93" stop-color="#b4765a"/><stop offset="1" stop-color="#ab6d52"/></linearGradient><linearGradient id="r" x1="288.77" y1="294.64" x2="271.62" y2="198.52" xlink:href="#q"/><linearGradient id="s" x1="254.82" y1="314.69" x2="185.38" y2="200.22" gradientUnits="userSpaceOnUse"><stop offset="0" stop-color="#eea886"/><stop offset="0.31" stop-color="#e29f7f"/><stop offset="0.79" stop-color="#cf9174"/><stop offset="0.8" stop-color="#cc8e71"/><stop offset="0.93" stop-color="#b4765a"/><stop offset="1" stop-color="#ab6d52"/></linearGradient><linearGradient id="t" x1="292.71" y1="238.65" x2="273.54" y2="185.2" gradientUnits="userSpaceOnUse"><stop offset="0" stop-color="#cf9174"/><stop offset="1" stop-color="#91624c"/></linearGradient><linearGradient id="u" x1="217.54" y1="123.22" x2="217.54" y2="270.08" xlink:href="#j"/><linearGradient id="v" x1="222.73" y1="275.43" x2="212.62" y2="255.49" gradientUnits="userSpaceOnUse"><stop offset="0" stop-color="#a1a1a1"/><stop offset="0.96" stop-color="#bdbdbd"/></linearGradient><linearGradient id="w" x1="432.9" y1="456.48" x2="330.29" y2="315.98" gradientUnits="userSpaceOnUse"><stop offset="0" stop-color="#b3f7ff"/><stop offset="1" stop-color="#adbeff"/></linearGradient><linearGradient id="x" x1="488.36" y1="454.6" x2="372.27" y2="336.35" xlink:href="#w"/><linearGradient id="y" x1="162.08" y1="278.41" x2="146.48" y2="198.12" xlink:href="#q"/><linearGradient id="z" x1="154.43" y1="239.49" x2="163.86" y2="278.81" gradientUnits="userSpaceOnUse"><stop offset="0" stop-color="#de9c7d"/><stop offset="1" stop-color="#ffe0d1"/></linearGradient><linearGradient id="aa" x1="155.46" y1="229.43" x2="142.46" y2="165.42" xlink:href="#p"/><linearGradient id="ab" x1="150.14" y1="203.09" x2="160.87" y2="250.04" xlink:href="#z"/><linearGradient id="ac" x1="152.38" y1="193.41" x2="152.86" y2="98.49" gradientUnits="userSpaceOnUse"><stop offset="0" stop-color="#eea886"/><stop offset="0.25" stop-color="#e4a180"/><stop offset="0.79" stop-color="#cf9174"/><stop offset="0.8" stop-color="#cc8e71"/><stop offset="0.93" stop-color="#b4765a"/><stop offset="1" stop-color="#ab6d52"/></linearGradient><linearGradient id="ad" x1="152.56" y1="176.54" x2="158.58" y2="218.45" xlink:href="#z"/><linearGradient id="ae" x1="145.62" y1="151.94" x2="175.19" y2="107.77" xlink:href="#q"/><linearGradient id="af" x1="158.51" y1="129.99" x2="126.99" y2="151.76" xlink:href="#z"/></defs><title>Safe and secure Learning</title><g style="isolation:isolate"><rect y="-16.1" width="544" height="394.2" style="fill:#f7f7f7"/><g style="opacity:0.18"><rect x="287.03" y="98.97" width="173.97" height="222.7" rx="71.39" style="fill:url(#a)"/></g><rect x="331.73" y="248.02" width="0.62" height="53.81" style="fill:#e0e0e0"/><rect x="359.39" y="248.02" width="0.62" height="53.81" style="fill:#e0e0e0"/><rect x="392" y="248.02" width="0.62" height="53.81" style="fill:#e0e0e0"/><rect x="427.72" y="248.02" width="0.62" height="53.81" style="fill:#e0e0e0"/><path d="M425.81,276.66a12.22,12.22,0,0,0-5.28-7.55c-3.28-1.94-7.65-2.05-13-.32-5.57,1.79-9.92,2.67-13.71,2.67-8.16,0-13.65-4.07-22.82-11.66A22.15,22.15,0,0,0,351.4,255c-7.53,1.79-13.82,7.33-17.26,15.19l-2.14-.94c3.73-8.54,10.61-14.56,18.86-16.52a23.94,23.94,0,0,1,11.07,0A25.53,25.53,0,0,1,372.48,258c13.25,11,17.81,13.89,34.32,8.56,6-1.95,11.07-1.76,14.95.56a14.72,14.72,0,0,1,6.41,9.24Z" style="fill:url(#b)"/><rect x="307.81" y="117.46" width="44.74" height="5.1" style="fill:#ded7d5"/><rect x="307.81" y="128.67" width="32.85" height="5.1" style="fill:#ded7d5"/><rect x="307.81" y="139.88" width="80.77" height="5.1" style="fill:#ded7d5"/><path d="M300.16,230.84l125-79.91,15.34,74.54Zm123.89-77.18L306.27,228.93l132.23-5.06Z" style="fill:url(#c)"/><path d="M308.93,247.84a6.42,6.42,0,0,1-2.61.47,4.62,4.62,0,0,1-4.89-5,4.93,4.93,0,0,1,5.17-5.2,5.43,5.43,0,0,1,2.35.44l-.31,1.05a4.61,4.61,0,0,0-2-.42c-2.32,0-3.86,1.49-3.86,4.09,0,2.42,1.39,4,3.8,4a5.14,5.14,0,0,0,2.09-.42Z" style="fill:#3d8ed1"/><path d="M422.41,143.18l-1,3.11h-1.32l3.36-9.89H425l3.38,9.89H427l-1.06-3.11Zm3.24-1-1-2.85c-.22-.64-.37-1.23-.52-1.8h0c-.14.58-.31,1.19-.5,1.79l-1,2.86Z" style="fill:#3d8ed1"/><path d="M439.45,233.18a12.13,12.13,0,0,1,2.33-.21,4.1,4.1,0,0,1,2.72.72,2.07,2.07,0,0,1,.82,1.75,2.35,2.35,0,0,1-1.67,2.17v0a2.56,2.56,0,0,1,2,2.48,2.68,2.68,0,0,1-.84,2,5,5,0,0,1-3.42.92,14.65,14.65,0,0,1-2-.12Zm1.28,4h1.16c1.35,0,2.14-.7,2.14-1.66,0-1.16-.88-1.61-2.17-1.61a5,5,0,0,0-1.13.09Zm0,4.74a6.09,6.09,0,0,0,1.07.06c1.32,0,2.54-.48,2.54-1.92s-1.16-1.91-2.56-1.91h-1Z" style="fill:#3d8ed1"/><path d="M292.79,138.86a16.7,16.7,0,0,0-16.23-11.07,16.7,16.7,0,0,0-15.22,22.32c.12.35.26.7.41,1a16.68,16.68,0,0,0,20.94,9.06A16.71,16.71,0,0,0,292.79,138.86Zm-11.51,17.41a12.5,12.5,0,0,1-15.7-6.79c-.11-.25-.21-.51-.31-.78a12.53,12.53,0,0,1,7.58-16,12.52,12.52,0,0,1,8.43,23.58Z" style="fill:url(#d)"/><path d="M265.11,140.75l-4-1.24a16.71,16.71,0,0,1,15.44-11.72l.13,4.17a12.55,12.55,0,0,0-11.58,8.79Z" style="fill:#ff4f58"/><path d="M265.58,149.48l-3.83,1.67c-.15-.34-.29-.69-.41-1a16.55,16.55,0,0,1-.22-10.6l4,1.24a12.46,12.46,0,0,0,.16,7.95C265.37,149,265.47,149.23,265.58,149.48Z" style="fill:#ff6f59"/><path d="M264.34,155.31a16.55,16.55,0,0,1-2.59-4.16l3.83-1.67a12.41,12.41,0,0,0,1.94,3.12Z" style="fill:#ffad5b"/><rect x="260.36" y="169.12" width="33.41" height="2.58" style="fill:#bdc1c9"/><rect x="260.36" y="174.6" width="25" height="2.58" style="fill:#bdc1c9"/><path d="M382,143.63h0C381.93,143.66,381.92,143.66,382,143.63Z" style="fill:#323657"/><g style="opacity:0.18"><rect x="261.6" y="8.71" width="116.83" height="83.29" rx="34.8" style="fill:url(#e)"/></g><rect x="345.55" y="51.58" width="21.7" height="5.79" rx="2.89" style="fill:#fff"/><rect x="345.55" y="42.32" width="21.7" height="5.79" rx="2.89" style="fill:#fff"/><rect x="345.55" y="33.06" width="21.7" height="5.79" rx="2.89" style="fill:#fff"/><path d="M335.06,38.67a32.25,32.25,0,1,0-60.73,21.72c.24.68.51,1.35.79,2a32.25,32.25,0,0,0,59.94-23.73ZM312.84,72.29a24.18,24.18,0,0,1-26.57-7.1,23.66,23.66,0,0,1-3.74-6c-.22-.5-.42-1-.6-1.51a24.18,24.18,0,1,1,30.91,14.62Z" style="fill:#fff"/><path d="M281.62,42.32l-7.71-2.4a32.31,32.31,0,0,1,29.82-22.64l.24,8.07a24.21,24.21,0,0,0-22.35,17Z" style="fill:#1a598c"/><path d="M282.53,59.18l-7.41,3.22c-.28-.66-.55-1.33-.79-2a32.15,32.15,0,0,1-.42-20.47l7.71,2.4a24.05,24.05,0,0,0,.31,15.35C282.11,58.18,282.31,58.68,282.53,59.18Z" style="fill:#2273b5"/><path d="M280.12,70.42a32.35,32.35,0,0,1-5-8l7.41-3.22a23.66,23.66,0,0,0,3.74,6Z" style="fill:#3788cc"/><rect x="182.53" y="107.74" width="6.57" height="2.12" style="fill:#b8b8b8"/><rect x="238.88" y="107.74" width="11.61" height="2.12" style="fill:#b8b8b8"/><rect x="207.73" y="107.74" width="11.61" height="2.12" style="fill:#b8b8b8"/><rect x="272.45" y="107.74" width="6.51" height="2.12" style="fill:#b8b8b8"/><rect x="352.03" y="128.84" width="29.96" height="4.76" style="opacity:0.18;fill:url(#f)"/><rect x="352.03" y="119.96" width="36.29" height="4.76" style="opacity:0.18;fill:url(#g)"/><rect x="253.21" y="2.28" width="20.23" height="3.67" transform="translate(526.66 8.22) rotate(180)" style="opacity:0.18;fill:url(#h)"/><rect x="253.21" y="0.57" width="20.23" height="0.69" transform="translate(526.66 1.83) rotate(180)" style="opacity:0.18;fill:url(#i)"/><polygon points="159.37 42.62 167.43 42.62 164.97 37.5 156.9 37.5 159.37 42.62" style="fill:url(#j)"/><polygon points="155.59 42.62 157.52 42.62 155.05 37.5 153.13 37.5 155.59 42.62" style="fill:url(#k)"/><polygon points="127.73 36.52 160.39 36.52 159.3 33.96 126.64 33.96 127.73 36.52" style="fill:url(#l)"/><rect x="112.82" y="42.62" width="14.99" height="1.12" style="fill:url(#m)"/><rect x="105.35" y="296.69" width="14.99" height="3.03" style="fill:url(#n)"/><polygon points="107.85 271.59 107.85 281.72 83 281.72 83 283.5 107.85 283.5 107.85 285.08 83 285.08 83 292.57 107.85 292.57 108.41 292.57 108.97 292.57 108.97 271.59 107.85 271.59" style="fill:url(#o)"/><path d="M396.25,320.06l-63.74,41.37H307.68l-44.24-49.9s-53.15-21.47-64.23-29.33a7.51,7.51,0,0,1-1.82-1.63c-3.9-5.84,77.25-66,77.25-71.4s.74-45.57.49-49-7.43-32.91-3-47.53c0,0,4.71-15.92,14.62-13.32,0,0,1.24.11,1.24,2.4,0,.13,0,.27,0,.41a11.14,11.14,0,0,1-.26,1.74c-1,4.38,2.28,20.47,4.39,24.86s7.63,12.67,8.94,19.82,6.82,28.43,8.93,34,7.8,14.94,8.61,20.14,2,19.17,4.71,24.37,10.81,32.33,18.12,41.11S396.25,320.06,396.25,320.06Z" style="fill:url(#p)"/><path d="M393,317.12l-24,8.41s-37.41-40.16-50.73-49.91-5.2-44.52-7.15-52.32-1.63-24.37-6.5-31.82-5.52-24.39-6.5-32.19-5.2-13.64-10.14-30.87c-4.84-16.86-.2-25.89,0-26.27a11.14,11.14,0,0,1-.26,1.74c-1,4.39,2.28,20.47,4.39,24.86s7.64,12.67,8.94,19.82,6.82,28.43,8.93,34,7.8,14.95,8.61,20.15,2,19.17,4.71,24.37,10.81,32.33,18.12,41.11S393,317.12,393,317.12Z" style="fill:url(#q)"/><path d="M275.13,160.19s4.72,20.68,5,31.29,7.88,21.87,9.58,35.87-6.86,51-14.76,54.77S275.13,160.19,275.13,160.19Z" style="fill:url(#r)"/><path d="M298.58,351.17l-35.15-39.64s-53.14-21.47-64.22-29.33h38.64s-7.8,3.74,2.19,9.83,46.06,12.43,48.25,18.76S269.82,306.08,298.58,351.17Z" style="fill:url(#s)"/><path d="M275.13,160.19s7.07,27.05,4.47,36.15-4.47,22.74-4.47,22.74S275.27,171.48,275.13,160.19Z" style="fill:url(#t)"/><path d="M275.13,85.29V268.44a13.67,13.67,0,0,1-13.68,13.68H173.64A13.67,13.67,0,0,1,160,268.44V85.29a13.67,13.67,0,0,1,13.68-13.68h87.81A13.67,13.67,0,0,1,275.13,85.29Z" style="fill:url(#u)"/><rect x="168.72" y="80.78" width="97.65" height="167.72" style="fill:#eff4ff"/><path d="M229.59,265.2c0,4.88-5.39,8.84-12,8.84s-12.05-4-12.05-8.84,5.39-8.84,12.05-8.84S229.59,260.32,229.59,265.2Z" style="fill:url(#v)"/><polygon points="407.73 328.57 359.28 361.43 295.87 361.43 291.85 356.78 377.54 299.6 407.73 328.57" style="fill:url(#w)"/><path d="M450.32,361.43H337.55l58.39-38.12A20.3,20.3,0,0,1,422.43,327Z" style="fill:url(#x)"/><path d="M225.48,71.61,163.54,277.67a13.61,13.61,0,0,1-3.58-9.23V85.29a13.67,13.67,0,0,1,13.68-13.68Z" style="fill:#fff;mix-blend-mode:soft-light"/><polygon points="180.52 282.12 243.79 71.61 234.22 71.61 170.95 282.12 180.52 282.12" style="fill:#fff;mix-blend-mode:soft-light"/><path d="M150.62,223.16s-7.8,6.78-7.74,12.26.22,9.09,1.7,11.88c1.12,2.13,15.08,20.41,18.17,20.19,2.68-.2,8.24-4.72,6.92-10.94s-6.67-15.91-6.92-16.67V220.46Z" style="fill:url(#y)"/><path d="M160.24,265.16s3.46-5,5-6.22-8.36-17.42-13-13.15S153.64,259.5,160.24,265.16Z" style="fill:url(#z)"/><path d="M145,182s-10.07,8.76-10,15.84.29,11.74,2.2,15.36c1.44,2.74,19.65,27.29,23.47,26.07s10.64-6.09,8.94-14.13-8.61-20.55-8.94-21.53v-25.1Z" style="fill:url(#aa)"/><path d="M157.42,236.27s4.47-6.42,6.5-8-10.8-22.51-16.81-17S148.89,229,157.42,236.27Z" style="fill:url(#ab)"/><path d="M145,150.19S134.92,159,135,166s.29,11.74,2.2,15.36c1.44,2.74,19.65,27.29,23.47,26.07s10.64-6.09,8.94-14.13-8.61-20.55-8.94-21.53V146.7Z" style="fill:url(#ac)"/><path d="M157.42,204.46s4.47-6.42,6.5-8-10.8-22.51-16.81-17S148.89,197.15,157.42,204.46Z" style="fill:url(#ad)"/><path d="M160,116.08l.71,31.92c-17.46,9.26-23.72,3.41-24.45,1.95s15.35-25.59,17.79-29A15.49,15.49,0,0,1,160,116.08Z" style="fill:url(#ae)"/><path d="M136.2,151.25s7.66-5.77,10.42-6.82,7.7-13.33,4.87-14.38C145.81,127.94,134.15,150.07,136.2,151.25Z" style="fill:url(#af)"/><path d="M303.71,160s5.24,2.38,6.45.41a19.88,19.88,0,0,1,4.63-4.62c1.13-.8,3.76-4.58,4.69-3.16s-4.08,6.44-4.93,7.69,5.6.51,6.84,1.34,1.3,12-3.17,12-9.07-3.11-9.87-2.95-5.92-1-5.92-1Z" style="fill:#eea886"/><path d="M320.36,161.36s13.62,1,14.44,1.87.68,1.64-.6,1.6-13.2-.58-13.2-.58,15.79,4,16.62,4.58c.48.32.31,1.82-.38,1.87s-16.61-3-16.61-3,14.74,3.79,15.29,4.47a1.15,1.15,0,0,1-1.13,1.75c-1.11-.2-15-2.91-15-2.91s10.53,3.48,10.65,4.35c.08.54,0,1.84-2.7.85s-9.28-2.6-9.28-2.6Z" style="fill:#eea886"/><path d="M255.49,238.86c0,.59-.05,4.27-.21,9.64H226.93c-.47-2.06-.44-6.55-.76-6.52s-1.3,4.54-2,6.52H191.45c1.46-12.05,3.22-25.16,4.61-35.7.1-.71.18-1.38.27-2,.51-3.83.89-6.64,1.07-8,.09-.57.13-.89.13-.89.69-.32,1.43-.62,2.2-.89,18.26-6.57,53.47.38,53.47.38A222.11,222.11,0,0,1,255.49,238.86Z" style="fill:#292c47"/><path d="M236.78,100.82s29.91,6.35,32.4,14.66,6.93,22,12.36,43.58c.82,3.25,31.69-1.1,31.69-1.1s2.57,13.16,2.64,13.59c.19,1.14-41.7,3.27-44.73,2.5-4.36-1.1-11.71-30.31-11.71-30.31s-4,44.12-4,50.94.45,20.61.45,20.61-11.08,4.25-32.6,3.13c0,0-34.25-1.18-28.4-11.62,4.42-7.89,1.71-61,1-61.33S183.36,160.1,184.52,163s32.06,13.2,32.06,13.2.91,3.33-3.89,10.87c0,0-46.16-13.49-46.32-16.31s19.19-57.71,25.52-60.58C201,106,224.8,99.52,224.8,99.52Z" style="fill:#51578f"/><rect x="190.54" y="149.12" width="36.57" height="55.06" transform="translate(57.53 -51.22) rotate(16.19)" style="fill:#d9c7c1"/><rect x="187.18" y="148.15" width="36.57" height="55.06" transform="translate(57.13 -50.32) rotate(16.19)" style="fill:#6dbd7d"/><rect x="182.76" y="133.21" width="43.69" height="65.79" transform="translate(54.42 -50.46) rotate(16.19)" style="fill:#eddad3"/><rect x="178.75" y="132.05" width="43.69" height="65.79" transform="translate(53.94 -49.38) rotate(16.19)" style="fill:#548ad1"/><rect x="192.27" y="144.91" width="24.66" height="3.84" transform="translate(49.05 -51.22) rotate(16.19)" style="fill:#609ef0"/><rect x="189.77" y="151.86" width="24.66" height="3.84" transform="translate(50.89 -50.25) rotate(16.19)" style="fill:#609ef0"/><path d="M226.17,174.65s3.34-.09,4.36-.24.35,2-.84,2.44S226.17,174.65,226.17,174.65Z" style="fill:#e6a281"/><path d="M228.12,190.59a6.75,6.75,0,0,1-2.17.19s-1.27-.38-2.19-.6A6.74,6.74,0,0,0,223,190a12.33,12.33,0,0,1-3.93-.66c-1.65-.64-7.25-3.51-7.25-3.51l1.6-5.21,1.2-4.12s9.47-2.52,11.08-2.1a3.39,3.39,0,0,1,.45.15,16,16,0,0,1,2.77,1.75c.24.12,2.59,1.53,2.71,2.34a2.7,2.7,0,0,1-.74,2.49,6.47,6.47,0,0,1-.58,3.46,4,4,0,0,1-1.18,3.29S229.23,190,228.12,190.59Z" style="fill:#eea886"/><path d="M216.58,175.86s.08,7-4.22,12.18c0,0-33.57-11.57-37.6-13.15s14.66-51.3,14.66-51.3l13.77,4.69-7.4,14s-3.66,7.83-11.27,20.72C184.52,163,189.21,167.1,216.58,175.86Z" style="fill:#51578f"/><path d="M214.89,102.35s-.33,13.31,13.37,13c14.19-.33,11.18-13.91,11.18-13.91S228.7,96.75,214.89,102.35Z" style="fill:#eed9cf"/><path d="M236.29,90.42s-1.23,6.75.89,11.36c0,0,2.16,10.75-8.84,11.23s-10.89-11.59-10.89-11.59,2.26-1.32.5-10.94S236.29,90.42,236.29,90.42Z" style="fill:#eea886"/><path d="M229.61,51.36s14.08,2.27,11.93,24.83S227,96.9,226.14,96.88s-12.48.41-13.38-27.13C212.76,69.75,212.36,49.38,229.61,51.36Z" style="fill:#eea886"/><path d="M241.76,69.82s1.54-1.69,2.11,0-2,9.06-2.2,9.68c0,0-.28.66-.65.3S241.76,69.82,241.76,69.82Z" style="fill:#eea886"/><path d="M213.1,69.53s-1.51-1.71-2.11,0,1.89,9.43,2,9.72c0,0,.27.67.64.31S213.1,69.53,213.1,69.53Z" style="fill:#eea886"/><path d="M241.75,73.28l-2,2.76s0-6.05-.27-7,.38-4.25.11-4.94-9.63,1.86-25,.3c0,0,1.71,5.45.71,5.84s-.51,7.08-.51,7.08l-1.66-1.91S211.27,64,211.45,62.05c.24-2.54-.62-14.41,21-12.37a13,13,0,0,1,6.82,2.68c2.22,1.73,4.51,4.44,4.3,8.15A124.91,124.91,0,0,1,241.75,73.28Z" style="fill:#434343"/><path d="M219.73,93.89s5.8,6.78,15,0c0,0-2.59,5.15-8,5.27S219.73,93.89,219.73,93.89Z" style="fill:#a77860"/><rect x="152" y="76.81" width="0.65" height="16.14" transform="translate(-1.04 1.9) rotate(-0.71)" style="fill:#292929"/><path d="M152.43,92.44h0c-1.53.1-1.25,8-1.25,8l1.35,0h0l1.35,0S154,92.5,152.43,92.44Z" style="fill:#292929"/><polygon points="188.9 67.9 203.04 57.96 171.27 51.97 138.86 79.55 157.62 81.92 188.9 67.9" style="fill:#272a45"/><path d="M189.54,71.61S175.06,73.74,160,85.44l-3.7-5.92s17.39-11.59,32.56-13.25Z" style="fill:#51578f"/></g></svg>