<svg xmlns="http://www.w3.org/2000/svg" xmlns:xlink="http://www.w3.org/1999/xlink" viewBox="0 0 544 362"><defs><clipPath id="a"><rect x="157.11" y="109.37" width="109.1" height="165.66" style="fill:none"/></clipPath><clipPath id="b"><rect x="281.52" y="103.56" width="109.1" height="171.47" transform="translate(672.13 378.58) rotate(180)" style="fill:none"/></clipPath><clipPath id="c"><path d="M102,264.15a10.13,10.13,0,0,1,0-20.26H221.94v20.26Z" style="fill:none"/></clipPath><clipPath id="d"><path d="M96.61,314.11a19.23,19.23,0,1,1,0-38.46H244.9v38.46Z" style="fill:none"/></clipPath></defs><title>curriculum-coverage</title><g style="isolation:isolate"><rect width="544" height="362" style="fill:#f7f7f7"/><path d="M406.79,62.14a37,37,0,0,1-3.52-1.58c-3.09-2-3.64-6.36-4.9-9.77a8.76,8.76,0,0,0-9.26-5.54c-2.83.29-5,2-6.91,4-1.21,1.31-1.57,5.68-5.3,5.75-.73,0-1.3-.62-1.91-1.06a3.66,3.66,0,0,0-5.38,1.84c-.39,1.08-.36,2.35-1,3.29-1.58,2.42-5.49.51-7.57,2.42a21.54,21.54,0,0,0-1.76,2.57,7.06,7.06,0,0,1-3.77,2c-3.8,1.1-8.73,1.27-8.73,2.52,0,1.76,19.56.7,31.06.7h19c2.95,0,12.39,1.4,12.25-4.09A3.85,3.85,0,0,0,406.79,62.14Z" style="fill:#f0fbff"/><path d="M123.84,90.24a23.85,23.85,0,0,1-1.32-3.79c-1-2.77-3.43-4.52-5.74-4.2a24.25,24.25,0,0,1-3.19.69c-5,0-5.22-8.33-9-10.91-3.3-2.28-7.42-.43-9.49,3.25-1.19,2.11-1.76,4.7-2.65,7S89.93,85,88,85.43A4.92,4.92,0,0,0,84.47,91a4.69,4.69,0,0,0,1.65,2.77c3.13,2.2,8.73,2,12.86,1.85,3.87-.12,35.44.24,35.44-1.06S125.75,93.53,123.84,90.24Z" style="fill:#f0fbff"/><path d="M313.26,43.82l-.12-.15c-1.17-1.55-1.63-3.24-3.57-3.35-2.29-.13-6,.62-7-2.88-.57-2.09,0-4.54-1.22-6.38a4,4,0,0,0-3.6-1.75c-2.28.13-4.14,2.12-6.37,2.51-2.62.45-3.86-2.68-6-4-3.73-2.3-6.93-.26-8.84,1.6A14.43,14.43,0,0,0,272.73,38c-.48,4,2.47,7.92,5.61,9.67a10.1,10.1,0,0,0,5,1.09c2,0,4-.06,6-.12,3.75-.1,34.32.23,34.32-1,0-.76-4.45-1.48-5.08-1.7C316.75,45.28,314.68,45.53,313.26,43.82Z" style="fill:#f0fbff"/><polygon points="164.97 61.78 165.14 65.99 148.62 48.73 164.97 61.78" style="fill:#82bcf4"/><polygon points="172.22 56.77 156.72 67.36 148.62 48.73 172.22 56.77" style="fill:#c0e4ff"/><polygon points="166.29 60.82 148.62 48.73 163.76 62.55 165.14 65.99 166.29 60.82" style="fill:#9ad0fc"/><line x1="468.34" y1="110" x2="468.34" y2="113.32" style="fill:none;stroke:#9dd4f9;stroke-linejoin:round"/><line x1="470" y1="111.66" x2="466.68" y2="111.66" style="fill:none;stroke:#9dd4f9;stroke-linejoin:round"/><line x1="495.67" y1="253.54" x2="495.67" y2="256.86" style="fill:none;stroke:#9dd4f9;stroke-linejoin:round"/><line x1="497.33" y1="255.2" x2="494.01" y2="255.2" style="fill:none;stroke:#9dd4f9;stroke-linejoin:round"/><line x1="462.7" y1="139.41" x2="462.7" y2="142.74" style="fill:none;stroke:#9dd4f9;stroke-linejoin:round"/><line x1="464.36" y1="141.08" x2="461.04" y2="141.08" style="fill:none;stroke:#9dd4f9;stroke-linejoin:round"/><line x1="136.41" y1="80.03" x2="136.41" y2="83.36" style="fill:none;stroke:#9dd4f9;stroke-linejoin:round"/><line x1="138.07" y1="81.7" x2="134.75" y2="81.7" style="fill:none;stroke:#9dd4f9;stroke-linejoin:round"/><line x1="46.92" y1="152.11" x2="46.92" y2="155.43" style="fill:none;stroke:#9dd4f9;stroke-linejoin:round"/><line x1="48.58" y1="153.77" x2="45.26" y2="153.77" style="fill:none;stroke:#9dd4f9;stroke-linejoin:round"/><line x1="56.03" y1="282.64" x2="56.03" y2="285.96" style="fill:none;stroke:#9dd4f9;stroke-linejoin:round"/><line x1="57.7" y1="284.3" x2="54.37" y2="284.3" style="fill:none;stroke:#9dd4f9;stroke-linejoin:round"/><line x1="272.68" y1="60.42" x2="272.68" y2="63.74" style="fill:none;stroke:#9dd4f9;stroke-linejoin:round"/><line x1="274.34" y1="62.08" x2="271.01" y2="62.08" style="fill:none;stroke:#9dd4f9;stroke-linejoin:round"/><path d="M286.88,92.38a1.59,1.59,0,1,1-1.59-1.59A1.59,1.59,0,0,1,286.88,92.38Z" style="fill:none;stroke:#9dd4f9;stroke-linejoin:round"/><path d="M492.46,148a1.59,1.59,0,1,1-1.58-1.59A1.58,1.58,0,0,1,492.46,148Z" style="fill:none;stroke:#9dd4f9;stroke-linejoin:round"/><path d="M354,48.73a1.59,1.59,0,1,1-1.59-1.59A1.59,1.59,0,0,1,354,48.73Z" style="fill:none;stroke:#9dd4f9;stroke-linejoin:round"/><path d="M206.65,80a1.59,1.59,0,1,1-1.59-1.58A1.59,1.59,0,0,1,206.65,80Z" style="fill:none;stroke:#9dd4f9;stroke-linejoin:round"/><circle cx="430.45" cy="92.38" r="1.59" style="fill:none;stroke:#9dd4f9;stroke-linejoin:round"/><circle cx="33.59" cy="190.35" r="1.59" style="fill:none;stroke:#9dd4f9;stroke-linejoin:round"/><circle cx="91.88" cy="128.63" r="1.59" style="fill:none;stroke:#9dd4f9;stroke-linejoin:round"/><path d="M123.41,71.1a1.59,1.59,0,1,1-1.58-1.58A1.59,1.59,0,0,1,123.41,71.1Z" style="fill:none;stroke:#9dd4f9;stroke-linejoin:round"/><line x1="68.91" y1="111.66" x2="86.82" y2="111.66" style="fill:none;stroke:#9dd4f9;stroke-linejoin:round"/><line x1="92.28" y1="111.66" x2="100.27" y2="111.66" style="fill:none;stroke:#9dd4f9;stroke-linejoin:round"/><line x1="381.9" y1="81.62" x2="399.81" y2="81.62" style="fill:none;stroke:#9dd4f9;stroke-linejoin:round"/><line x1="405.27" y1="81.62" x2="413.26" y2="81.62" style="fill:none;stroke:#9dd4f9;stroke-linejoin:round"/><line x1="240.14" y1="53.71" x2="227.97" y2="53.71" style="fill:none;stroke:#9dd4f9;stroke-linejoin:round"/><line x1="223.95" y1="53.71" x2="217.4" y2="53.71" style="fill:none;stroke:#9dd4f9;stroke-linejoin:round"/><line x1="304.26" y1="66.35" x2="317.35" y2="66.35" style="fill:none;stroke:#9dd4f9;stroke-linejoin:round"/><line x1="482.02" y1="205.11" x2="495.12" y2="205.11" style="fill:none;stroke:#9dd4f9;stroke-linejoin:round"/><line x1="491.35" y1="200.36" x2="499.96" y2="200.36" style="fill:none;stroke:#9dd4f9;stroke-linejoin:round"/><path d="M399.63,258c-16.76-1.42-33.23-5.52-50.1-5.7-7.74-.08-17.26.1-24.39,3.54-6.81,3.27-12.29,9.14-19.5,12a34.73,34.73,0,0,1-10.31,2.05c-28.27,1.91-52.19-14.46-78.25-22.22-10.39-3.1-22,.78-32.36,2.84-13.93,2.76-27.66,7.36-42,6.74-31.14-1.34-69-17.3-81.57-48-5.41-13.25-6.72-29.32.95-42,8.8-14.53,27.43-18.82,43.77-23.49,18.3-5.23,35.76-16.31,48.84-30.39,9.49-10.22,13.82-23.73,21.84-34.94,9-12.64,25.8-21.3,41.33-15.86,16.55,5.81,28.43,17.35,46.88,18.63,13.44.93,26.07-2.94,39.31-3.41a63.45,63.45,0,0,1,51.42,24c5.76,7.37,9.88,16.05,16.65,22.5C384.43,135.93,403.05,138,420,136.68s33.9-10.46,50.71-8c19.33,2.88,38.82,18,40.25,39.08,1.81,26.83-11.24,52.31-31.71,69.16C457.23,255.09,427.43,260.34,399.63,258Z" style="fill:none;stroke:#9dd4f9;stroke-linejoin:round;stroke-dasharray:3.49283504486084,3.49283504486084"/><path d="M147.83,215.29c-12.14-13.86-36-43.84-24.63-109.41,38.75,34.88,43,57.65,44.66,101.35" style="fill:#fff;stroke:#b8e6ff;stroke-linejoin:round"/><path d="M123.2,105.88s6.74,53,34.33,103.63" style="fill:none;stroke:#b8e6ff;stroke-linejoin:round"/><path d="M123.2,105.88S119,162.42,153.29,213.75" style="fill:none;stroke:#b8e6ff;stroke-linejoin:round"/><path d="M160.19,207.53c-1.66-12.46-23.31-73.79-37-101.65" style="fill:none;stroke:#b8e6ff;stroke-linejoin:round"/><path d="M164.2,204.66c-5.68-31.55-10.18-62.73-41-98.78" style="fill:none;stroke:#b8e6ff;stroke-linejoin:round"/><path d="M139,226.26c-13.78-7.76-41.65-25.21-51.17-81.53,41.33,17.17,51.28,34.38,65.09,69.28" style="fill:#fff;stroke:#b8e6ff;stroke-linejoin:round"/><path d="M87.81,144.73s20.58,40.94,57.38,74.08" style="fill:none;stroke:#b8e6ff;stroke-linejoin:round"/><path d="M87.81,144.73s12.76,47,55.15,78.72" style="fill:none;stroke:#b8e6ff;stroke-linejoin:round"/><path d="M146.77,216.44c-4.9-9.61-39.93-53.07-59-71.71" style="fill:none;stroke:#b8e6ff;stroke-linejoin:round"/><path d="M149.2,213c-13.6-23.92-26.15-47.88-61.39-68.25" style="fill:none;stroke:#b8e6ff;stroke-linejoin:round"/><path d="M128.77,269.46c-18.38-1.09-56.49-5.16-95.18-59.3,52-3.1,71.24,9.86,103.51,39.38" style="fill:#fff;stroke:#b8e6ff;stroke-linejoin:round"/><path d="M33.59,210.16S76,242.55,131.47,258.49" style="fill:none;stroke:#b8e6ff;stroke-linejoin:round"/><path d="M33.59,210.16s37.32,42.67,97.92,54.33" style="fill:none;stroke:#b8e6ff;stroke-linejoin:round"/><path d="M131.93,255.21c-10-7.57-68.9-35.23-98.34-45.05" style="fill:none;stroke:#b8e6ff;stroke-linejoin:round"/><path d="M132.7,250.35c-26.44-18.12-51.81-36.82-99.11-40.19" style="fill:none;stroke:#b8e6ff;stroke-linejoin:round"/><path d="M124.69,247.5c-8.7-40.9-43.55-62.22-43.55-62.22" style="fill:none;stroke:#86bfef;stroke-miterlimit:10"/><path d="M82.19,186s-6.88-12.66-12-8.87S82.19,186,82.19,186Z" style="fill:#86bfef"/><path d="M88.22,190.41s3.27-14.89-3.49-15.44S88.22,190.41,88.22,190.41Z" style="fill:#86bfef"/><path d="M94,195.27s8.83-12.43,2.82-15.58S94,195.27,94,195.27Z" style="fill:#86bfef"/><path d="M101.47,202.68s8.31-11.7,2.65-14.66S101.47,202.68,101.47,202.68Z" style="fill:#86bfef"/><path d="M101.91,202.57s-13.41-5.11-14.86,1.11S101.91,202.57,101.91,202.57Z" style="fill:#86bfef"/><path d="M107.47,209.79s8.32-11.7,2.66-14.67S107.47,209.79,107.47,209.79Z" style="fill:#86bfef"/><path d="M107.92,209.68s-13.41-5.11-14.86,1.11S107.92,209.68,107.92,209.68Z" style="fill:#86bfef"/><path d="M112.47,218.15S122.23,207.63,117,204,112.47,218.15,112.47,218.15Z" style="fill:#86bfef"/><path d="M112.92,218.1s-12.63-6.8-14.88-.82S112.92,218.1,112.92,218.1Z" style="fill:#86bfef"/><path d="M117.22,225.62s9.76-10.52,4.54-14.19S117.22,225.62,117.22,225.62Z" style="fill:#86bfef"/><path d="M117.68,225.57s-12.64-6.8-14.88-.82S117.68,225.57,117.68,225.57Z" style="fill:#86bfef"/><path d="M121.08,235.76s9.76-10.52,4.53-14.19S121.08,235.76,121.08,235.76Z" style="fill:#86bfef"/><path d="M121.54,235.71s-12.64-6.8-14.88-.82S121.54,235.71,121.54,235.71Z" style="fill:#86bfef"/><path d="M93.74,195.25s-15.22-.83-14.68,5.93S93.74,195.25,93.74,195.25Z" style="fill:#86bfef"/><path d="M88,189.87s-14.36-5.1-15.75,1.54S88,189.87,88,189.87Z" style="fill:#86bfef"/><path d="M103.8,278.6C79.73,253.68,45.88,254,45.88,254" style="fill:none;stroke:#86bfef;stroke-miterlimit:10"/><path d="M46.92,254s-10.39-5.88-12.36-.94S46.92,254,46.92,254Z" style="fill:#86bfef"/><path d="M53.1,254.49s-4.23-11.9-9.23-9.32S53.1,254.49,53.1,254.49Z" style="fill:#86bfef"/><path d="M59.27,255.38s.75-12.6-4.85-12.18S59.27,255.38,59.27,255.38Z" style="fill:#86bfef"/><path d="M67.8,257.3s.71-11.87-4.57-11.47S67.8,257.3,67.8,257.3Z" style="fill:#86bfef"/><path d="M68.06,257s-11.66,2.3-10,7.31S68.06,257,68.06,257Z" style="fill:#86bfef"/><path d="M75.14,259.65s.71-11.86-4.57-11.47S75.14,259.65,75.14,259.65Z" style="fill:#86bfef"/><path d="M75.41,259.38s-11.67,2.3-10,7.31S75.41,259.38,75.41,259.38Z" style="fill:#86bfef"/><path d="M82.32,263.34s2.24-11.68-3-12S82.32,263.34,82.32,263.34Z" style="fill:#86bfef"/><path d="M82.62,263.1s-11.86.77-10.81,6S82.62,263.1,82.62,263.1Z" style="fill:#86bfef"/><path d="M88.94,266.5s2.24-11.67-3-12S88.94,266.5,88.94,266.5Z" style="fill:#86bfef"/><path d="M89.24,266.27s-11.86.76-10.81,6S89.24,266.27,89.24,266.27Z" style="fill:#86bfef"/><path d="M96.11,271.93s2.24-11.67-3-12S96.11,271.93,96.11,271.93Z" style="fill:#86bfef"/><path d="M96.4,271.7s-11.86.76-10.81,5.95S96.4,271.7,96.4,271.7Z" style="fill:#86bfef"/><path d="M59.11,255.47s-11.06,6.1-7.71,10.61S59.11,255.47,59.11,255.47Z" style="fill:#86bfef"/><path d="M52.69,254.22s-12.34,2.73-10.39,8S52.69,254.22,52.69,254.22Z" style="fill:#86bfef"/><path d="M396.84,198.37c14.69-11.11,44.13-35.64,46.27-102.16-45,26.31-53.79,47.75-64.25,90.21" style="fill:#fff;stroke:#b8e6ff;stroke-linejoin:round"/><path d="M443.11,96.21s-17.32,50.51-54.6,94.54" style="fill:none;stroke:#b8e6ff;stroke-linejoin:round"/><path d="M443.11,96.21s-7.36,56.22-51.3,99.54" style="fill:none;stroke:#b8e6ff;stroke-linejoin:round"/><path d="M386.31,188.26c4.15-11.86,37.76-67.53,56.8-92" style="fill:none;stroke:#b8e6ff;stroke-linejoin:round"/><path d="M383,184.65c12-29.75,22.67-59.38,60.15-88.44" style="fill:none;stroke:#b8e6ff;stroke-linejoin:round"/><path d="M414.61,234.77c17.85-4.57,54.49-15.79,82.19-76.3-51.68,6.85-68.07,23.22-94.15,58.32" style="fill:#fff;stroke:#b8e6ff;stroke-linejoin:round"/><path d="M496.8,158.47s-35.51,39.87-86.92,66.05" style="fill:none;stroke:#b8e6ff;stroke-linejoin:round"/><path d="M496.8,158.47s-28.53,49-85.81,71.94" style="fill:none;stroke:#b8e6ff;stroke-linejoin:round"/><path d="M408.81,221.38c8.42-9.34,60.95-47.67,88-62.91" style="fill:none;stroke:#b8e6ff;stroke-linejoin:round"/><path d="M407.12,216.75c22.53-22.81,43.88-46,89.68-58.28" style="fill:none;stroke:#b8e6ff;stroke-linejoin:round"/><path d="M407.21,262.57c18.25,2.46,56.43,5.78,104.79-39.94-50.49-13-71.82-4-109.15,18.8" style="fill:#fff;stroke:#b8e6ff;stroke-linejoin:round"/><path d="M512,222.63s-47.86,23.65-105.34,28.67" style="fill:none;stroke:#b8e6ff;stroke-linejoin:round"/><path d="M512,222.63s-44.81,34.72-106.52,34.54" style="fill:none;stroke:#b8e6ff;stroke-linejoin:round"/><path d="M406.85,248c11.3-5.51,74.37-21.36,105.15-25.36" style="fill:none;stroke:#b8e6ff;stroke-linejoin:round"/><path d="M407,243.06c29.43-12.71,57.9-26.2,105-20.43" style="fill:none;stroke:#b8e6ff;stroke-linejoin:round"/><path d="M391.9,280c12,8.29,37.56,24.26,82.76,7.55-31.59-27.51-48.67-28.37-80.34-24.74" style="fill:#fff;stroke:#b8e6ff;stroke-linejoin:round"/><path d="M474.66,287.57s-39.19.56-80.25-16.09" style="fill:none;stroke:#b8e6ff;stroke-linejoin:round"/><path d="M474.66,287.57s-39.92,9.83-82.57-12.15" style="fill:none;stroke:#b8e6ff;stroke-linejoin:round"/><path d="M395.39,269.1c9.24-.07,56.95,10.53,79.27,18.47" style="fill:none;stroke:#b8e6ff;stroke-linejoin:round"/><path d="M396.78,265.52c23.62,1,46.79,1.12,77.88,22.05" style="fill:none;stroke:#b8e6ff;stroke-linejoin:round"/><path d="M413.68,207.49c8.7-40.9,43.55-62.22,43.55-62.22" style="fill:none;stroke:#86bfef;stroke-miterlimit:10"/><path d="M456.19,146s6.87-12.66,12-8.87S456.19,146,456.19,146Z" style="fill:#86bfef"/><path d="M450.15,150.4s-3.27-14.89,3.49-15.44S450.15,150.4,450.15,150.4Z" style="fill:#86bfef"/><path d="M444.41,155.26s-8.83-12.43-2.82-15.58S444.41,155.26,444.41,155.26Z" style="fill:#86bfef"/><path d="M436.9,162.67S428.59,151,434.25,148,436.9,162.67,436.9,162.67Z" style="fill:#86bfef"/><path d="M436.46,162.56s13.41-5.11,14.86,1.11S436.46,162.56,436.46,162.56Z" style="fill:#86bfef"/><path d="M430.9,169.78s-8.32-11.7-2.66-14.67S430.9,169.78,430.9,169.78Z" style="fill:#86bfef"/><path d="M430.45,169.66s13.41-5.1,14.86,1.12S430.45,169.66,430.45,169.66Z" style="fill:#86bfef"/><path d="M425.9,178.14s-9.76-10.52-4.53-14.19S425.9,178.14,425.9,178.14Z" style="fill:#86bfef"/><path d="M425.45,178.09s12.63-6.8,14.88-.82S425.45,178.09,425.45,178.09Z" style="fill:#86bfef"/><path d="M421.15,185.61s-9.76-10.52-4.53-14.19S421.15,185.61,421.15,185.61Z" style="fill:#86bfef"/><path d="M420.69,185.56s12.64-6.8,14.88-.82S420.69,185.56,420.69,185.56Z" style="fill:#86bfef"/><path d="M417.29,195.75s-9.76-10.52-4.53-14.19S417.29,195.75,417.29,195.75Z" style="fill:#86bfef"/><path d="M416.83,195.7s12.64-6.8,14.88-.82S416.83,195.7,416.83,195.7Z" style="fill:#86bfef"/><path d="M444.63,155.24s15.23-.83,14.68,5.93S444.63,155.24,444.63,155.24Z" style="fill:#86bfef"/><path d="M450.41,149.86s14.36-5.1,15.75,1.54S450.41,149.86,450.41,149.86Z" style="fill:#86bfef"/><path d="M397.58,284.3c25.64-21.53,58.13-17.81,58.13-17.81" style="fill:none;stroke:#86bfef;stroke-miterlimit:10"/><path d="M454.71,266.41s10.57-4.6,12,.34S454.71,266.41,454.71,266.41Z" style="fill:#86bfef"/><path d="M448.72,266.24s5.26-11,9.8-8S448.72,266.24,448.72,266.24Z" style="fill:#86bfef"/><path d="M442.7,266.48s.55-12.19,5.89-11.22S442.7,266.48,442.7,266.48Z" style="fill:#86bfef"/><path d="M434.31,267.45s.52-11.47,5.55-10.56S434.31,267.45,434.31,267.45Z" style="fill:#86bfef"/><path d="M434.09,267.16s11,3.39,8.82,8S434.09,267.16,434.09,267.16Z" style="fill:#86bfef"/><path d="M427,269s.52-11.48,5.55-10.56S427,269,427,269Z" style="fill:#86bfef"/><path d="M426.8,268.69s11,3.38,8.82,8S426.8,268.69,426.8,268.69Z" style="fill:#86bfef"/><path d="M419.75,271.8s-1-11.45,4.13-11.19S419.75,271.8,419.75,271.8Z" style="fill:#86bfef"/><path d="M419.49,271.54s11.32,1.93,9.79,6.81S419.49,271.54,419.49,271.54Z" style="fill:#86bfef"/><path d="M413.07,274.17s-1-11.44,4.13-11.19S413.07,274.17,413.07,274.17Z" style="fill:#86bfef"/><path d="M412.81,273.91s11.32,1.94,9.79,6.82S412.81,273.91,412.81,273.91Z" style="fill:#86bfef"/><path d="M405.64,278.67s-1-11.45,4.13-11.19S405.64,278.67,405.64,278.67Z" style="fill:#86bfef"/><path d="M405.38,278.41s11.32,1.93,9.79,6.81S405.38,278.41,405.38,278.41Z" style="fill:#86bfef"/><path d="M442.85,266.58s10,7,6.34,11S442.85,266.58,442.85,266.58Z" style="fill:#86bfef"/><path d="M449.15,266s11.57,3.86,9.17,8.74S449.15,266,449.15,266Z" style="fill:#86bfef"/><path d="M147,102H400.69a5.32,5.32,0,0,1,5.32,5.32V289.82a5.32,5.32,0,0,1-5.32,5.32H147a5.31,5.31,0,0,1-5.31-5.31V107.28A5.32,5.32,0,0,1,147,102Z" style="fill:#52a5ff;stroke:#418be5;stroke-linejoin:round"/><rect x="146.37" y="106.69" width="127.49" height="183.42" style="fill:#6ebeff"/><rect x="273.86" y="106.69" width="127.49" height="183.42" transform="translate(675.21 396.8) rotate(180)" style="fill:#6ebeff"/><path d="M149.47,105.23v183c82.82-6.68,124.41,1.43,124.41,1.43v-183S243.16,88.77,149.47,105.23Z" style="fill:#85ceff"/><path d="M149.46,105.23v183c93.68-16.46,124.4,1.43,124.4,1.43v-183S243.14,88.77,149.46,105.23Z" style="fill:#fff;stroke:#418be5;stroke-linejoin:round"/><path d="M398.27,105.23v183c-82.82-6.68-124.41,1.43-124.41,1.43v-183S304.58,88.77,398.27,105.23Z" style="fill:#85ceff"/><path d="M398.27,105.23v183c-93.69-16.46-124.41,1.43-124.41,1.43v-183S304.58,88.77,398.27,105.23Z" style="fill:#fff;stroke:#418be5;stroke-linejoin:round"/><g style="clip-path:url(#a)"><path d="M268.8,122.44S240.57,106,154.49,121.13" style="fill:none;stroke:#def2ff;stroke-linejoin:round;stroke-width:5px"/><path d="M268.8,134.85s-28.23-16.44-114.31-1.32" style="fill:none;stroke:#def2ff;stroke-linejoin:round;stroke-width:5px"/><path d="M268.8,147.26s-28.23-16.44-114.31-1.32" style="fill:none;stroke:#def2ff;stroke-linejoin:round;stroke-width:5px"/><path d="M268.8,159.66s-28.23-16.44-114.31-1.31" style="fill:none;stroke:#def2ff;stroke-linejoin:round;stroke-width:5px"/><path d="M268.8,172.07s-28.23-16.44-114.31-1.32" style="fill:none;stroke:#def2ff;stroke-linejoin:round;stroke-width:5px"/><path d="M268.8,184.48S240.57,168,154.49,183.16" style="fill:none;stroke:#def2ff;stroke-linejoin:round;stroke-width:5px"/><path d="M268.8,196.88s-28.23-16.44-114.31-1.31" style="fill:none;stroke:#def2ff;stroke-linejoin:round;stroke-width:5px"/><path d="M268.8,209.29S240.57,192.85,154.49,208" style="fill:none;stroke:#def2ff;stroke-linejoin:round;stroke-width:5px"/><path d="M268.8,221.7s-28.23-16.44-114.31-1.32" style="fill:none;stroke:#def2ff;stroke-linejoin:round;stroke-width:5px"/><path d="M268.8,234.1s-28.23-16.44-114.31-1.31" style="fill:none;stroke:#def2ff;stroke-linejoin:round;stroke-width:5px"/><path d="M268.8,246.51s-28.23-16.44-114.31-1.32" style="fill:none;stroke:#def2ff;stroke-linejoin:round;stroke-width:5px"/><path d="M268.8,258.92s-28.23-16.44-114.31-1.32" style="fill:none;stroke:#def2ff;stroke-linejoin:round;stroke-width:5px"/><path d="M268.8,271.32S240.57,254.88,154.49,270" style="fill:none;stroke:#def2ff;stroke-linejoin:round;stroke-width:5px"/><rect x="211.81" y="109.37" width="57.78" height="52.02" style="fill:#fff"/><path d="M216.71,112.66v41.19c38.13-.42,52.09,7.68,52.09,7.68V120.34S254.84,112.24,216.71,112.66Z" style="fill:#def2ff"/><path d="M223,150s7.06-12.91,12.75-18.75c8.1,6.22,19.53,22.46,19.53,22.46S244.57,149.33,223,150Z" style="fill:#def2ff;opacity:0.55;mix-blend-mode:screen"/><path d="M257.7,154.13a44.42,44.42,0,0,1,7.35,2.6s-12.16-17.58-18.58-23.32L243.88,136A176.61,176.61,0,0,1,257.7,154.13Z" style="fill:#def2ff;opacity:0.55;mix-blend-mode:screen"/><path d="M261,125.2c-.49,1.73-2.66,2.63-4.85,2s-3.57-2.52-3.08-4.25,2.66-2.63,4.85-2S261.51,123.47,261,125.2Z" style="fill:#def2ff;opacity:0.55;mix-blend-mode:screen"/></g><g style="clip-path:url(#b)"><path d="M278.93,234.1s28.22-16.44,114.31-1.31" style="fill:none;stroke:#def2ff;stroke-linejoin:round;stroke-width:5px"/><path d="M278.93,246.51s28.22-16.44,114.31-1.32" style="fill:none;stroke:#def2ff;stroke-linejoin:round;stroke-width:5px"/><path d="M278.93,258.92s28.22-16.44,114.31-1.32" style="fill:none;stroke:#def2ff;stroke-linejoin:round;stroke-width:5px"/><path d="M278.93,271.32s28.22-16.44,114.31-1.31" style="fill:none;stroke:#def2ff;stroke-linejoin:round;stroke-width:5px"/><path d="M313.36,161.9A25.67,25.67,0,1,1,359.78,177h0c-3.67,5.53-13.19,10.08-13.19,17.65v4.27a1.54,1.54,0,0,1-1.54,1.54H333a1.54,1.54,0,0,1-1.54-1.54v-4.27c0-7.57-9.52-12.12-13.19-17.65h0A25.57,25.57,0,0,1,313.36,161.9Z" style="fill:#fff;stroke:#ccedff;stroke-miterlimit:10"/><path d="M342.4,199.29c-.16-3.53-.95-26,2.74-33.28,1.82-3.54,5.22-5.1,7.43-3.78,1.47.88,2.15,3.25,1.82,5.41-.64,4.25-4.54,9.49-15.13,9.49s-14.5-5.24-15.14-9.49c-.33-2.16.35-4.53,1.82-5.41,2.21-1.32,5.61.24,7.43,3.78,3.69,7.23,2.9,29.75,2.74,33.28" style="fill:none;stroke:#ccedff;stroke-miterlimit:10"/><path d="M344.52,140.42a21.41,21.41,0,0,1,16.13,20.74" style="fill:none;stroke:#ccedff;stroke-linecap:round;stroke-miterlimit:10;stroke-width:3px"/><path d="M338.76,139.73a1.48,1.48,0,1,0,1.47-1.47A1.47,1.47,0,0,0,338.76,139.73Z" style="fill:#ccedff"/><path d="M347.42,195.74H331.09v7.79a6.7,6.7,0,0,0,1,3.59h0a7,7,0,0,0,5.93,3.26h2.39a7,7,0,0,0,5.93-3.26h0a6.7,6.7,0,0,0,1-3.59Z" style="fill:#ccedff"/><path d="M347.43,201.49h-.15L331,199.21a1,1,0,1,1,.28-2l16.33,2.27a1,1,0,0,1-.13,2Z" style="fill:#e6f7ff"/><path d="M347.43,205.05h-.15L331,202.78a1,1,0,0,1-.87-1.15,1,1,0,0,1,1.15-.87L347.56,203a1,1,0,0,1-.13,2Z" style="fill:#e6f7ff"/><path d="M346.77,208.56h-.14l-15.48-2.15a1,1,0,1,1,.28-2l15.48,2.15a1,1,0,0,1,.87,1.15A1,1,0,0,1,346.77,208.56Z" style="fill:#e6f7ff"/><path d="M328.26,149.4V108.84s2.63-.08,7.2,0" style="fill:none;stroke:#ccedff;stroke-miterlimit:10"/><path d="M338.66,113.74c10.55.25,22.69,1.1,36.6,2.79" style="fill:none;stroke:#def2ff;stroke-linejoin:round;stroke-width:3px"/><path d="M338.66,118.23c10.55.25,22.69,1.09,36.6,2.78" style="fill:none;stroke:#def2ff;stroke-linejoin:round;stroke-width:3px"/><path d="M338.66,109.26c10.55.25,22.69,1.09,36.6,2.79" style="fill:none;stroke:#def2ff;stroke-linejoin:round;stroke-width:3px"/><path d="M338.66,123.18q6.22.15,13.21.58" style="fill:none;stroke:#def2ff;stroke-linejoin:round;stroke-width:3px"/><path d="M336.63,108.79a1.18,1.18,0,1,1-1.17-1.18A1.17,1.17,0,0,1,336.63,108.79Z" style="fill:#ccedff"/><path d="M286.33,144.59l0,26.35a150.82,150.82,0,0,1,26.06-3.67" style="fill:none;stroke:#ccedff;stroke-miterlimit:10"/><path d="M286.21,129.75A152.8,152.8,0,0,1,313.83,126" style="fill:none;stroke:#def2ff;stroke-linejoin:round;stroke-width:3px"/><path d="M286.21,135.1a153.54,153.54,0,0,1,27.62-3.78" style="fill:none;stroke:#def2ff;stroke-linejoin:round;stroke-width:3px"/><path d="M286.21,140.44a140.8,140.8,0,0,1,21-3.3" style="fill:none;stroke:#def2ff;stroke-linejoin:round;stroke-width:3px"/><path d="M287.5,144.59a1.18,1.18,0,1,1-1.17-1.18A1.17,1.17,0,0,1,287.5,144.59Z" style="fill:#ccedff"/><polyline points="350.56 204.86 350.56 218 361.71 218" style="fill:none;stroke:#ccedff;stroke-miterlimit:10"/><path d="M364.09,203.82s13.16.7,28.54,3.19" style="fill:none;stroke:#def2ff;stroke-linejoin:round;stroke-width:3px"/><path d="M364.09,208.3s13.16.71,28.54,3.2" style="fill:none;stroke:#def2ff;stroke-linejoin:round;stroke-width:3px"/><path d="M364.09,212.79s13.16.7,28.54,3.19" style="fill:none;stroke:#def2ff;stroke-linejoin:round;stroke-width:3px"/><path d="M364.09,217.27s6.7.36,16.12,1.47" style="fill:none;stroke:#def2ff;stroke-linejoin:round;stroke-width:3px"/><path d="M362.89,218a1.18,1.18,0,1,1-1.18-1.17A1.18,1.18,0,0,1,362.89,218Z" style="fill:#ccedff"/></g><path d="M102,268.68a14.66,14.66,0,1,1,0-29.31H221.44v29.31Z" style="fill:#fff"/><path d="M220.94,239.87v28.31H102a14.16,14.16,0,1,1,0-28.31H220.94m1-1H102a15.16,15.16,0,1,0,0,30.31H221.94V238.87Z" style="fill:#ffab37"/><path d="M102,264.65a10.63,10.63,0,0,1,0-21.26H222.44v21.26Z" style="fill:#f3e0cc"/><path d="M221.94,243.89v20.26H102a10.13,10.13,0,0,1,0-20.26H221.94m1-1H102a11.13,11.13,0,0,0,0,22.26H222.94V242.89Z" style="fill:#ffab37"/><g style="clip-path:url(#c)"><line x1="84.93" y1="252.78" x2="221.94" y2="252.78" style="fill:none;stroke:#f4c6a4;stroke-miterlimit:10;stroke-width:1.5px"/><line x1="86.13" y1="259.16" x2="223.14" y2="259.16" style="fill:none;stroke:#f4c6a4;stroke-miterlimit:10;stroke-width:1.5px"/><polygon points="189.94 259.05 186.13 256.27 182.31 259.05 182.31 249 189.94 249 189.94 259.05" style="fill:#af480e"/><line x1="92.58" y1="249" x2="221.94" y2="249" style="fill:none;stroke:#f4c6a4;stroke-miterlimit:10;stroke-width:1.5px"/></g><path d="M96.61,320.07a25.2,25.2,0,1,1,0-50.39H246.84a.57.57,0,0,1,.57.56v4.35a.57.57,0,0,1-.57.56H97c-10.79,0-19.82,8.58-20.13,19.13a19.74,19.74,0,0,0,19.72,20.33H246.84a.57.57,0,0,1,.57.56v4.34a.57.57,0,0,1-.57.56Z" style="fill:#fff"/><path d="M246.84,270.18a.07.07,0,0,1,.07.06v4.35a.07.07,0,0,1-.07.06H97c-11.06,0-20.31,8.8-20.63,19.62a20.26,20.26,0,0,0,20.22,20.84H246.84a.07.07,0,0,1,.07.06v4.34s0,.06-.07.06H96.61a24.7,24.7,0,1,1,0-49.39H246.84m0-1H96.61a25.7,25.7,0,0,0-25.7,25.7h0a25.7,25.7,0,0,0,25.7,25.69H246.84a1.06,1.06,0,0,0,1.07-1.06v-4.34a1.06,1.06,0,0,0-1.07-1.06H96.61A19.25,19.25,0,0,1,77.39,294.3,19.49,19.49,0,0,1,97,275.65H246.84a1.07,1.07,0,0,0,1.07-1.06v-4.35a1.07,1.07,0,0,0-1.07-1.06Z" style="fill:#86bfef"/><path d="M96.61,314.11a19.23,19.23,0,1,1,0-38.46H244.9v38.46Z" style="fill:#c0e4ff"/><g style="clip-path:url(#d)"><line x1="73.72" y1="287.75" x2="254.02" y2="287.75" style="fill:none;stroke:#acd9fc;stroke-miterlimit:10;stroke-width:1.5px"/><line x1="73.72" y1="298.17" x2="254.02" y2="298.17" style="fill:none;stroke:#acd9fc;stroke-miterlimit:10;stroke-width:1.5px"/><line x1="73.72" y1="307.52" x2="254.02" y2="307.52" style="fill:none;stroke:#acd9fc;stroke-miterlimit:10;stroke-width:1.5px"/><line x1="73.72" y1="279.87" x2="254.02" y2="279.87" style="fill:none;stroke:#acd9fc;stroke-miterlimit:10;stroke-width:1.5px"/></g><polygon points="104.44 317.68 98.16 310.86 91.88 317.68 91.88 287.75 104.44 287.75 104.44 317.68" style="fill:#ff5c5c"/><path d="M318.63,309.72l-.41,17.95.14,5.41L306.18,333a.93.93,0,0,1-.93-.94h0a.94.94,0,0,1,.6-.88L306,327l-.42-18.65" style="fill:#f886bc"/><path d="M304.32,332.74c.21-.68,1.7-5.79,1.7-5.79,5.34,2.17,12.26.51,12.26.51l1.23,7.3a.43.43,0,0,1-.44.43l-14.59-.12C304,335.07,304.31,332.76,304.32,332.74Z" style="fill:#22252d"/><line x1="319.38" y1="333.62" x2="304.22" y2="333.49" style="fill:none;stroke:#1a3987;stroke-linejoin:round;stroke-width:0.75px"/><path d="M304.75,331.31a15.28,15.28,0,0,1,7.58-1.78,11.53,11.53,0,0,1,6.6,2.29" style="fill:none;stroke:#1a3987;stroke-linejoin:round;stroke-width:0.75px"/><path d="M301.62,246l2.68,78.59h15.46l-1.28-63.68s1.74-7.31-1-13.84" style="fill:#592921"/><line x1="303.17" y1="246" x2="305.84" y2="324.59" style="fill:none;stroke:#a35945;stroke-miterlimit:10;stroke-width:0.75px"/><path d="M299.75,309.72l-1.19,17.95.15,5.41-21.2-.11a.94.94,0,0,1-.93-.94h0a.94.94,0,0,1,.6-.88l9.15-4.2.35-18.65" style="fill:#f886bc"/><path d="M275.65,332.74a2.88,2.88,0,0,1,1-1.61l9.69-4.18c5.34,2.17,12.26.51,12.26.51l1.23,7.3a.43.43,0,0,1-.44.43l-23.6-.12C275.34,335.07,275.64,332.76,275.65,332.74Z" style="fill:#22252d"/><path d="M284.26,327.37a12.07,12.07,0,0,1,1.37,2.29" style="fill:none;stroke:#1a3987;stroke-linejoin:round;stroke-width:0.75px"/><path d="M283,328.1a9.94,9.94,0,0,1,1.12,1.95" style="fill:none;stroke:#1a3987;stroke-linejoin:round;stroke-width:0.75px"/><path d="M282,328.63a13.31,13.31,0,0,1,1.05,1.79" style="fill:none;stroke:#1a3987;stroke-linejoin:round;stroke-width:0.75px"/><line x1="299.73" y1="333.62" x2="275.55" y2="333.49" style="fill:none;stroke:#1a3987;stroke-linejoin:round;stroke-width:0.75px"/><path d="M299.06,330.05s-5.68.11-6.17,3.54" style="fill:none;stroke:#1a3987;stroke-linejoin:round;stroke-width:0.75px"/><path d="M278.65,330.27a18.6,18.6,0,0,1,1.88,3.25" style="fill:none;stroke:#1a3987;stroke-linejoin:round;stroke-width:0.75px"/><path d="M287.21,244.28c-2.1,22.52-2.55,80.31-2.55,80.31h16.55c-.44-8.15,3.4-64,3.4-64s4.37-5.66,4.15-16.27" style="fill:#592921"/><path d="M289.53,244.28c-2.1,22.52-2.56,80.31-2.56,80.31" style="fill:none;stroke:#a35945;stroke-miterlimit:10;stroke-width:0.75px"/><path d="M295.22,252.17s5.68.55,7.25.51" style="fill:none;stroke:#a35945;stroke-miterlimit:10;stroke-width:0.75px"/><path d="M318.88,252.68s-3.92.29-6.23.27" style="fill:none;stroke:#a35945;stroke-miterlimit:10;stroke-width:0.75px"/><path d="M303,287.33l1.46-24.6a8.76,8.76,0,0,1,1.06-3.74,22.81,22.81,0,0,0,2.89-9.13" style="fill:none;stroke:#a35945;stroke-miterlimit:10;stroke-width:0.75px"/><path d="M297.82,186.3c-1.24,3-3.54,9.75-.79,11.23s5.34.39,7.86-1.81a6,6,0,0,0,1-8.36C304,184.75,299.06,183.29,297.82,186.3Z" style="fill:#f886bc"/><polyline points="299.17 195.66 298.04 202.99 307.2 202.08 306.88 192.81" style="fill:#f886bc"/><path d="M303.14,183c-2.12-1.16-3.78-.15-5.14.92a2.48,2.48,0,0,0-.91,1.16,1.27,1.27,0,0,0,.32,1.34c.27.23.67.38.77.7a.92.92,0,0,1,0,.37,11.7,11.7,0,0,0,0,2.71.49.49,0,0,0,.15.34c.26.19.61-.12.76-.39s.47-.59.75-.42a.46.46,0,0,1,.18.4,32.73,32.73,0,0,0,1,6.76.77.77,0,0,0,.23.41,1.09,1.09,0,0,0,.58.16c.91.07,1.82.1,2.74.08a4.11,4.11,0,0,0,2.75-.76,6.44,6.44,0,0,0,1.28-2.75c.86-2.26,1.74-4.3,1.33-6.76a4.47,4.47,0,0,0-3.21-4,21.48,21.48,0,0,0-3.59-.31" style="fill:#0b0b3a"/><path d="M288.72,212.06c-.23.84-1.6,22.69-2.06,35,8.56,1.47,23.37,1.87,31.61,0a385.41,385.41,0,0,0-2.18-42.47s-5.11-4.2-7.86-4.71c-3.11,1.74-9.06,2.19-9.06,2.19Z" style="fill:#f3e0cc"/><path d="M286,212.85s-5.56,8.43-7.69,8.92c-6.08,1.37-21.29,2.16-21.29,2.16l.11,8s16.75,3.33,27.69-1.62c6.4-2.89,12.2-16.88,12.2-16.88" style="fill:#f886bc"/><path d="M311.85,196.4a105.47,105.47,0,0,0,5.56-12.72,120.07,120.07,0,0,0,3.64-15.26l8.13,1.14s-1,11.1-2.83,18.2A208,208,0,0,1,319.7,208" style="fill:#f886bc"/><path d="M320.24,173.41c.51-3.47,2.5-16.72,3.1-16.89s.44,3,.91,2.75,1-5.06,1.69-5.07c.87,0,0,4.9,0,4.9s.54-1.61,1.3-1.4c.54.15.39,2.14.39,2.14s.23-1.18.79-1,.41,1.41.41,1.41.54-.88.95-.53c.69.59-.57,8.72-1.34,16.31" style="fill:#f886bc"/><path d="M299.17,202.08s-7.68-.18-10.58,4.49-6.83,11.77-6.83,11.77l10.7,5.29,5.13-9.09" style="fill:#f3e0cc"/><path d="M302.47,201.74a12,12,0,0,0,6.23-2.16c1.59-1.15,2.11-2.8,4.08-5.45,4.76,0,10.05,6.31,10.05,6.31s-5,14.07-6.34,19.41" style="fill:#f3e0cc"/><line x1="292.46" y1="223.63" x2="296.72" y2="216.08" style="fill:none;stroke:#e2aa79;stroke-miterlimit:10;stroke-width:0.75px"/><line x1="317.06" y1="217.75" x2="316.55" y2="209.08" style="fill:none;stroke:#e2aa79;stroke-miterlimit:10;stroke-width:0.75px"/><path d="M265.76,223.31c-4.64.32-13.7.09-14,.65s2.86.95,2.55,1.37-5.17.15-5.29.79c-.16.86,4.82.86,4.82.86s-5.38.46-5.31,1.25c.05.56,5.75.55,5.75.55s-4.92.23-4.85.81,5.4.91,5.4.91-4.32,0-4,.5c.46.79,5.7,1,12.65,1.74" style="fill:#f886bc"/><path d="M451,195.1c-7.12-2-8.82-1.81-17-5.35-6-2.62-17.55-11.51-17.55-11.51l5.61-4.82A64.27,64.27,0,0,0,437.14,181c5.93,2.09,11.89,3.5,11.89,3.5" style="fill:#f886bc"/><path d="M428.52,177.7c-3-2-12.14-8.1-12.58-7.84s.83,1.36.43,1.5-3.56-2.26-3.93-1.89,2.85,2.8,2.85,2.8-3.81-2.33-4.12-1.77c-.22.4,2.61,2.32,3.59,3.18-1.19-.8-3.27-1.87-3.49-1.45s1.68,1.76,3.07,2.87c-.93-.61-2.7-1.63-2.92-1.25s2.86,2.86,7,5.9" style="fill:#f886bc"/><path d="M462.49,190.54s.94-1-2.71-2.95c-2.69-1.44-8.19-3-14.09-4.4l-1.22,11.31,9.23,3.38" style="fill:#0070e4"/><path d="M458.63,293.8l1.12,17.82.14,5.37-21-.1a.94.94,0,0,1-.93-.94h0a.93.93,0,0,1,.6-.87l9.08-4.17-2-18.52" style="fill:#f886bc"/><path d="M437,316.66a2.84,2.84,0,0,1,1-1.6l9.62-4.15c5.31,2.15,12.17.51,12.17.51l1.23,7.24a.44.44,0,0,1-.44.44L437.16,319C436.69,319,437,316.68,437,316.66Z" style="fill:#18277a"/><path d="M445.55,311.33a11.38,11.38,0,0,1,1.36,2.27" style="fill:none;stroke:#5288ff;stroke-miterlimit:10;stroke-width:0.75px"/><path d="M444.34,312.05a9.53,9.53,0,0,1,1.11,1.94" style="fill:none;stroke:#5288ff;stroke-miterlimit:10;stroke-width:0.75px"/><path d="M443.31,312.58a13.2,13.2,0,0,1,1.05,1.78" style="fill:none;stroke:#5288ff;stroke-miterlimit:10;stroke-width:0.75px"/><line x1="460.91" y1="317.53" x2="436.9" y2="317.41" style="fill:none;stroke:#5288ff;stroke-miterlimit:10;stroke-width:0.75px"/><path d="M460.24,314s-5.64.11-6.13,3.51" style="fill:none;stroke:#5288ff;stroke-miterlimit:10;stroke-width:0.75px"/><path d="M440,314.21a18,18,0,0,1,1.86,3.22" style="fill:none;stroke:#5288ff;stroke-miterlimit:10;stroke-width:0.75px"/><path d="M448.17,224l-.22,2.38a157.59,157.59,0,0,0-4.83,37.66c0,16.3,2.23,43.24,2.23,43.24l15.84-.35S459,271,459.34,262.29s2.5-24.3,2.5-24.3,6.56-5.87,3.73-15.88" style="fill:#ffab37"/><path d="M458.29,307s-1.44-35.95-1.13-44.67,1.78-24.3,1.78-24.3" style="fill:none;stroke:#e26223;stroke-miterlimit:10;stroke-width:0.75px"/><polygon points="444.63 308.92 461.96 308.92 461.73 304.69 444.4 304.69 444.63 308.92" style="fill:#af480e"/><path d="M484.28,276.6l14.8,10.53,3.84,3.36-11.07,16.94a.92.92,0,0,1-1.29.25h0a.93.93,0,0,1-.39-1l1.57-9.86L475.9,286.62" style="fill:#f886bc"/><path d="M490.64,308.84a2.92,2.92,0,0,1-.78-1.73l1.9-10.3c4.73-3.22,7.18-9.84,7.18-9.84l5.85,3.85a.44.44,0,0,1,.12.61L492.65,310C492.39,310.39,490.65,308.86,490.64,308.84Z" style="fill:#18277a"/><path d="M491,298.77a11.23,11.23,0,0,1,2.65.14" style="fill:none;stroke:#5288ff;stroke-miterlimit:10;stroke-width:0.75px"/><path d="M490.88,300.18a10.34,10.34,0,0,1,2.23.15" style="fill:none;stroke:#5288ff;stroke-miterlimit:10;stroke-width:0.75px"/><path d="M490.75,301.33a14.22,14.22,0,0,1,2.06.11" style="fill:none;stroke:#5288ff;stroke-miterlimit:10;stroke-width:0.75px"/><line x1="503.85" y1="290.2" x2="491.21" y2="309.34" style="fill:none;stroke:#5288ff;stroke-miterlimit:10;stroke-width:0.75px"/><path d="M501.1,288.4s-2.82,4.39-.26,6.68" style="fill:none;stroke:#5288ff;stroke-miterlimit:10;stroke-width:0.75px"/><path d="M490.25,305a18.44,18.44,0,0,1,3.72.25" style="fill:none;stroke:#5288ff;stroke-miterlimit:10;stroke-width:0.75px"/><path d="M454,224.86s-1.63,30,2.53,43.16c4.49,14.22,31.11,27.83,31.11,27.83l8-11.79s-19.56-14.29-21.9-19.57c-1.63-3.69-1.39-20.07-.89-22,1.2-4.66,1.8-11.36-.2-16.2l-.89-2.43" style="fill:#ffab37"/><path d="M493.91,286s-18.71-13-21.41-19.61c-2-4.88-2.34-21-1.83-23,1.19-4.67,1.83-12.37-.12-16.72" style="fill:none;stroke:#e26223;stroke-miterlimit:10;stroke-width:0.75px"/><path d="M453.94,227.05S452.37,253.84,456,266a58,58,0,0,0,3.51,8.27" style="fill:none;stroke:#e26223;stroke-miterlimit:10;stroke-width:0.75px"/><polygon points="488.47 296.9 497.36 284.57 494.06 281.93 484.92 294.61 488.47 296.9" style="fill:#af480e"/><path d="M449.84,227s.87,2.61-2.9,3.26" style="fill:none;stroke:#e26223;stroke-miterlimit:10;stroke-width:0.75px"/><path d="M448,226.41s9.16,3.63,24.73-.16" style="fill:none;stroke:#e26223;stroke-miterlimit:10;stroke-width:0.75px"/><path d="M452.11,227s-.66,5.68.18,6.2a16.08,16.08,0,0,0,1.56.86" style="fill:none;stroke:#e26223;stroke-miterlimit:10;stroke-width:0.75px"/><path d="M465.1,227.89s1.4,3.52,6.49,3.47" style="fill:none;stroke:#e26223;stroke-miterlimit:10;stroke-width:0.75px"/><path d="M452.37,227.29l-1.28-.14a.34.34,0,0,1-.28-.37c0-.51.07-1.46.09-2a.33.33,0,0,1,.32-.33h.9" style="fill:none;stroke:#e26223;stroke-miterlimit:10;stroke-width:0.75px"/><path d="M452.37,225.62a.39.39,0,1,1-.39-.39A.38.38,0,0,1,452.37,225.62Z" style="fill:#e26223"/><line x1="458.03" y1="227.51" x2="458.03" y2="224.12" style="fill:none;stroke:#e26223;stroke-miterlimit:10;stroke-width:0.75px"/><line x1="467.02" y1="227.55" x2="466.5" y2="224.72" style="fill:none;stroke:#e26223;stroke-miterlimit:10;stroke-width:0.75px"/><path d="M452.73,190.33c-3.16,5.29-5.41,7.59-5.79,9.35a10,10,0,0,0,2,7.75l-.73,16.6a52.65,52.65,0,0,0,23.78.16c.54-6,4.33-19.51,4.34-23.38,0-9.77-5.83-11.69-9-12.92l-7.55-.3Z" style="fill:#0070e4"/><path d="M468.78,188.39s-1.29,2.07-5.48,1.53-4.63-2.24-4.63-2.24" style="fill:none;stroke:#113d98;stroke-miterlimit:10;stroke-width:0.75px"/><path d="M473.77,204.86s-7.42,8.39-15.19,13.33c-6.41,4.06-25.91,5.63-25.91,5.63l-2.4-8.16s12.63-2.54,20.46-5.52c6.79-2.57,12.46-11.27,12.46-11.27" style="fill:#f886bc"/><path d="M439.7,213.48c-7.82,2.21-18.33,3.3-18.52,3.86s1.75.56,1.51,1-4.82.71-4.86,1.32c-.06.82,4.6.28,4.6.28s-5.08.85-4.92,1.57c.11.52,4,.05,5.53.06-1.64.2-4.27.84-4.15,1.38s2.8.26,4.85.17c-1.27.18-3.58.63-3.49,1.12s10,.17,17.21-.91" style="fill:#f886bc"/><polyline points="475.27 204.18 469.01 211.8 459.08 203.8 464.8 196.56" style="fill:#0070e4"/><line x1="459.08" y1="203.8" x2="463.97" y2="197.62" style="fill:none;stroke:#113d98;stroke-miterlimit:10;stroke-width:0.75px"/><line x1="469.01" y1="211.8" x2="473.82" y2="206.34" style="fill:none;stroke:#113d98;stroke-miterlimit:10;stroke-width:0.75px"/><path d="M449.73,195.92s1.88-3,1.88-3.66" style="fill:none;stroke:#113d98;stroke-miterlimit:10;stroke-width:0.75px"/><path d="M472,172.78a3.46,3.46,0,0,0,3.45.68c1.22-.5,2.21-1.5,3.42-2.06a5.75,5.75,0,0,1,4.85.17c1.22.65,2.08,1.8,3.21,2.59,1.77,1.23,3.86,1.55,5.59.17s4.16-1.87,5.9-.2l-2.23,7.59a3,3,0,0,0-3.2,0,10.14,10.14,0,0,1-2.57,1.34c-3.06,1-5.88-.94-7.71-3.3a5.27,5.27,0,0,0-2-2c-1.23-.45-2.55-.19-3.83-.36-1.95-.27-3.18-1.69-4.32-3.17" style="fill:#00276f"/><path d="M472.89,173.51l-.15-.9a3.79,3.79,0,0,1-.06-1.21,1.25,1.25,0,0,1,.65-1,.39.39,0,0,1,.35,0,.43.43,0,0,1,.18.39,3.09,3.09,0,0,1-.12.74c-.2.74-.43,1.48-.69,2.21" style="fill:none;stroke:#0070e4;stroke-linecap:round;stroke-miterlimit:10;stroke-width:0.5px"/><path d="M473.17,173.52a3.87,3.87,0,0,1,1.77-1.67,1.17,1.17,0,0,1,.89-.12.38.38,0,0,1,.18.15.34.34,0,0,1,0,.2,1.6,1.6,0,0,1-.77,1,4.19,4.19,0,0,1-1.84.68,3.51,3.51,0,0,1,1.9,3.45" style="fill:none;stroke:#0070e4;stroke-linecap:round;stroke-miterlimit:10;stroke-width:0.5px"/><path d="M461.25,182l-1.47,5.55s.89,1.2,3.92,1.27,3.63-1,3.63-1l1-8.28" style="fill:#f886bc"/><path d="M461.67,173c-2.92,4.5-4.37,8.56-1.24,10.23,3.3,1.76,7.29.67,8.41-3.58C470,175.18,463.6,170.55,461.67,173Z" style="fill:#f886bc"/><path d="M473.82,177.78c.51-2.82-1.19-6.56-4.19-7.22-4.48-2.24-6.73-.85-9,1.17-.26.23-.51.58-.35.87a.76.76,0,0,0,.32.27,4.3,4.3,0,0,0,2.22.49,1.8,1.8,0,0,0,1.22,1.44,4.62,4.62,0,0,0,2,.17,1.16,1.16,0,0,0,.33,1.27,6.54,6.54,0,0,1,1,1,3.66,3.66,0,0,1,.16,2.3,8.94,8.94,0,0,0,.2,3,.74.74,0,0,0,.33.54.63.63,0,0,0,.43,0A6.72,6.72,0,0,0,473.82,177.78Z" style="fill:#00276f"/><path d="M460.83,183.75a6.2,6.2,0,0,0,4.77-.31" style="fill:none;stroke:#c93a8c;stroke-miterlimit:10;stroke-width:0.75px"/><polygon points="468.48 179.15 468.48 179.14 468.48 179.15 468.48 179.15" style="fill:#ff855a"/><path d="M462.49,176.9s-1.63,1.39-1.66,1.9,1.08.9,1.08.9" style="fill:none;stroke:#c93a8c;stroke-miterlimit:10;stroke-width:0.5px"/><path d="M460.49,179.93l3,1.35a2.07,2.07,0,0,1-2.65.57C459.69,181.24,460.49,179.93,460.49,179.93Z" style="fill:#fff"/><path d="M461.3,175.85l-.08.07-.06.09-.07.09-.09.11,0,0a.44.44,0,0,0-.05.15.3.3,0,0,0,0,.16.33.33,0,0,0,.07.13.35.35,0,0,0,.11.1l.1,0a.38.38,0,0,0,.21,0l.09,0a.32.32,0,0,0,.14-.14l0,0,0,0,.05-.11,0-.1a1.34,1.34,0,0,0,.07-.18l0-.09a.28.28,0,0,0,0-.13.22.22,0,0,0-.05-.08.26.26,0,0,0-.09-.09l-.09,0h-.09a.19.19,0,0,0-.13,0,.19.19,0,0,0-.11.07Z" style="fill:#00276f"/><path d="M462.59,175.55a.84.84,0,0,0-1.12-.49" style="fill:none;stroke:#00276f;stroke-linecap:round;stroke-linejoin:round;stroke-width:0.5px"/><path d="M464.6,177.72a.93.93,0,0,0-.13.15l-.06.09-.06.09,0,0s0,0,0,0a.3.3,0,0,0-.05.15.29.29,0,0,0,0,.16.33.33,0,0,0,.07.13.21.21,0,0,0,.11.1l.1,0a.34.34,0,0,0,.2,0l.1,0a.32.32,0,0,0,.14-.14l0,0a.73.73,0,0,0,.05-.12l0,0,0-.1a1,1,0,0,1,0-.1l0-.11V178a.15.15,0,0,0,0-.13.12.12,0,0,0,0-.08.22.22,0,0,0-.1-.09l-.08,0h-.09a.15.15,0,0,0-.13,0,.16.16,0,0,0-.11.07Z" style="fill:#00276f"/><path d="M464.88,176.61s.84,0,1.36,1.09" style="fill:none;stroke:#00276f;stroke-linecap:round;stroke-linejoin:round;stroke-width:0.5px"/><path d="M466.73,179.67a1,1,0,0,1,.86-.46c.88,0,1,1.16.63,1.88a2.29,2.29,0,0,1-1,1c-.61.32-1.22.22-1.3-.49" style="fill:#f886bc"/><path d="M213.66,307,215,326.76l-.16,6,22.66-.12a1,1,0,0,0,1-1h0a1,1,0,0,0-.66-1L228.48,326l-.39-20.57" style="fill:#f886bc"/><path d="M240.25,332.35a4.13,4.13,0,0,0-1.85-1.78l-10-4.6c-5.9,2.38-13.53.56-13.53.56l-1.36,8.05a.48.48,0,0,0,.48.48l25.31-.13C240.84,334.93,240.26,332.38,240.25,332.35Z" style="fill:#bc3f39"/><line x1="230.02" y1="326.43" x2="228.77" y2="328.96" style="fill:none;stroke:#912623;stroke-linejoin:round;stroke-width:0.75px"/><path d="M231.36,327.23a11.31,11.31,0,0,0-1.24,2.15" style="fill:none;stroke:#912623;stroke-linejoin:round;stroke-width:0.75px"/><path d="M232.5,327.82a17,17,0,0,0-1.16,2" style="fill:none;stroke:#912623;stroke-linejoin:round;stroke-width:0.75px"/><line x1="213.69" y1="333.32" x2="240.36" y2="333.19" style="fill:none;stroke:#912623;stroke-linejoin:round;stroke-width:0.75px"/><path d="M236.2,329.63a20.09,20.09,0,0,0-2.06,3.59" style="fill:none;stroke:#912623;stroke-linejoin:round;stroke-width:0.75px"/><path d="M214.43,329.38s6.26.13,6.8,3.91" style="fill:none;stroke:#912623;stroke-linejoin:round;stroke-width:0.75px"/><path d="M206.8,244.28a34.58,34.58,0,0,0,0,14.86l5.77,63.94h18.06s-2.19-55.53-3.48-78.8" style="fill:#22252d"/><path d="M194.86,307.08l-.4,19.81-.16,6,23.39-.12a1,1,0,0,0,1-1h0a1,1,0,0,0-.67-1L208,326.1l1.31-20.58" style="fill:#f886bc"/><path d="M219.74,332.49a3.2,3.2,0,0,0-1.12-1.79l-10.69-4.6c-5.9,2.39-13.53.56-13.53.56l-1.36,8a.47.47,0,0,0,.48.48l26-.13C220.09,335.06,219.75,332.51,219.74,332.49Z" style="fill:#d34f42"/><path d="M210.24,326.56a12.92,12.92,0,0,0-1.51,2.53" style="fill:none;stroke:#7c1f1a;stroke-linejoin:round;stroke-width:0.75px"/><path d="M211.59,327.36a11.06,11.06,0,0,0-1.24,2.16" style="fill:none;stroke:#7c1f1a;stroke-linejoin:round;stroke-width:0.75px"/><path d="M212.73,328a15.07,15.07,0,0,0-1.16,2" style="fill:none;stroke:#7c1f1a;stroke-linejoin:round;stroke-width:0.75px"/><line x1="193.18" y1="333.46" x2="219.85" y2="333.32" style="fill:none;stroke:#7c1f1a;stroke-linejoin:round;stroke-width:0.75px"/><path d="M193.92,329.52s6.27.12,6.8,3.9" style="fill:none;stroke:#7c1f1a;stroke-linejoin:round;stroke-width:0.75px"/><path d="M216.43,329.76a20.35,20.35,0,0,0-2.07,3.59" style="fill:none;stroke:#7c1f1a;stroke-linejoin:round;stroke-width:0.75px"/><path d="M195,244.28a34.59,34.59,0,0,0-.18,14,5.72,5.72,0,0,1,.11,1.65l-1.61,63.11h18s4.46-58.67,4-78.8" style="fill:#22252d"/><path d="M197.22,244.28a34.59,34.59,0,0,0-.18,14,6.09,6.09,0,0,1,.11,1.65l-1.61,63.11" style="fill:none;stroke:#4c5360;stroke-linejoin:round;stroke-width:0.75px"/><path d="M212.15,317c1.65-26.07,3.6-56.48,3.21-72.72" style="fill:none;stroke:#4c5360;stroke-linejoin:round;stroke-width:0.75px"/><path d="M196.46,249.86c4.47,0,8.64-.82,9.11-5.58" style="fill:none;stroke:#4c5360;stroke-linejoin:round;stroke-width:0.75px"/><path d="M215.17,253.78s1.36.18,1.7-.56c.68-1.49.68-5.84.68-8.94" style="fill:none;stroke:#4c5360;stroke-linejoin:round;stroke-width:0.75px"/><path d="M222.38,243.89a4.65,4.65,0,0,0,5,4.23" style="fill:none;stroke:#4c5360;stroke-linejoin:round;stroke-width:0.75px"/><line x1="193.41" y1="319.85" x2="211.59" y2="319.85" style="fill:none;stroke:#4c5360;stroke-linejoin:round;stroke-width:0.75px"/><line x1="212.35" y1="319.85" x2="230.5" y2="319.85" style="fill:none;stroke:#4c5360;stroke-linejoin:round;stroke-width:0.75px"/><path d="M208,199.39c-13.88,10.11-13,31-13,44.89,5,1.67,28.47,1.44,32.69,0-.29-6.76-1.44-28.89-3.35-35.71-1.09-2.56-7.87-8.68-7.87-8.68Z" style="fill:#d34f42"/><rect x="201.18" y="224.68" width="18.65" height="24.68" transform="translate(139.55 -71.94) rotate(28.68)" style="fill:#fff"/><line x1="211.39" y1="225.46" x2="219.61" y2="229.95" style="fill:none;stroke:#f9d9d7;stroke-miterlimit:10;stroke-width:0.75px"/><line x1="207.51" y1="226.69" x2="220.82" y2="233.97" style="fill:none;stroke:#f9d9d7;stroke-miterlimit:10;stroke-width:0.75px"/><line x1="206.16" y1="229.15" x2="219.47" y2="236.42" style="fill:none;stroke:#f9d9d7;stroke-miterlimit:10;stroke-width:0.75px"/><line x1="204.82" y1="231.6" x2="218.13" y2="238.88" style="fill:none;stroke:#f9d9d7;stroke-miterlimit:10;stroke-width:0.75px"/><line x1="203.48" y1="234.06" x2="216.79" y2="241.34" style="fill:none;stroke:#f9d9d7;stroke-miterlimit:10;stroke-width:0.75px"/><line x1="202.14" y1="236.51" x2="215.44" y2="243.79" style="fill:none;stroke:#f9d9d7;stroke-miterlimit:10;stroke-width:0.75px"/><line x1="200.79" y1="238.97" x2="214.1" y2="246.25" style="fill:none;stroke:#f9d9d7;stroke-miterlimit:10;stroke-width:0.75px"/><line x1="199.45" y1="241.42" x2="212.76" y2="248.7" style="fill:none;stroke:#f9d9d7;stroke-miterlimit:10;stroke-width:0.75px"/><path d="M202.48,241.46l-8.83-4.27c1.63.95,16.32,8.14,17.54,8.76a18,18,0,0,0,4.05,1.47,1.47,1.47,0,0,0,.83,0,.53.53,0,0,0,.35-.66.94.94,0,0,0,.94-.45.92.92,0,0,0-.13-1,2.26,2.26,0,0,0,1-.52.81.81,0,0,0,.14-1c0-.06-.11-.12-.1-.19a.22.22,0,0,1,.09-.12c.24-.2.54-.32.78-.51a.77.77,0,0,0,.32-.81,1,1,0,0,0-.33-.38l-2.42-2c-.14-.1-.28-.3-.16-.42a.32.32,0,0,1,.27-.06,9.41,9.41,0,0,0,1.76,0c.17,0,.37-.07.4-.23a.33.33,0,0,0-.05-.23,1.65,1.65,0,0,0-.74-.61c-3.24-1.8-9.8-5.3-9.8-5.3" style="fill:#f886bc"/><path d="M190.13,210.8s-7.75,15.21-5.49,19.58C187.25,235.44,206,243,206,243l4.51-8.81s-13.28-7.26-13.28-9.81c0-2.22,4-9,4-9" style="fill:#f886bc"/><path d="M229.18,206.05s6.64,7.86,8.53,8.27,12.11-6.94,12.11-6.94l4.81,7.13S241,226.57,236.14,226.1s-14.87-10.88-14.87-10.88" style="fill:#f886bc"/><path d="M208,199.39s-8.7-2.07-13.72,4.16a41.81,41.81,0,0,0-7,13.23l11.68,5.41,5.35-10.58" style="fill:#d34f42"/><path d="M216.48,199.89a27.65,27.65,0,0,1,7.7,1.88c3,1.45,12,11.16,12,11.16L227,221.72l-6.75-7.07" style="fill:#d34f42"/><path d="M246.26,209.9c2.86-2,13.77-9.8,14.31-9.49s-1.84,2.39-1.35,2.56,4.37-2.76,4.83-2.3c.61.63-3.52,3.42-3.52,3.42s4.72-2.63,5.1-1.93c.27.49-4.46,3.66-4.46,3.66s4.21-2.55,4.47-2-4,3.78-4,3.78,3.6-2.38,3.63-1.85c.05.91-9.39,7.57-14.76,12" style="fill:#f886bc"/><path d="M258.49,203.47c-.8,1.58-.37,3-1.87,4.49" style="fill:none;stroke:#c93a8c;stroke-miterlimit:10;stroke-width:0.75px"/><line x1="198.93" y1="222.19" x2="203.42" y2="213.31" style="fill:none;stroke:#7c1f1a;stroke-linejoin:round;stroke-width:0.75px"/><line x1="226.13" y1="220.84" x2="224.67" y2="209.85" style="fill:none;stroke:#7c1f1a;stroke-linejoin:round;stroke-width:0.75px"/><path d="M209.16,193.39l-1.19,6c.9,1,5.24,3.28,8.51.5l.09-4.17Z" style="fill:#f886bc"/><path d="M217.83,186.54s2.7,7.49.3,9.92c-1.25,1.27-4.94,1.49-6.51.24-1.17-.93-2.89-6.69-2.23-7.7C211.91,185.15,217.83,186.54,217.83,186.54Z" style="fill:#f886bc"/><path d="M216.23,190.07s1.44,1.77,1.39,2.32-1.32.74-1.32.74" style="fill:none;stroke:#c93a8c;stroke-miterlimit:10;stroke-width:0.5px"/><path d="M217.85,193.63l-3.39.86a2.23,2.23,0,0,0,2.68,1.1C218.45,195.17,217.85,193.63,217.85,193.63Z" style="fill:#fff"/><path d="M217.32,189.49a.5.5,0,0,0,0,.12l0,.11,0,.12a1.54,1.54,0,0,0,.08.19.4.4,0,0,0,.1.12l.14.07h.1a.33.33,0,0,0,.15,0,.19.19,0,0,0,.09,0,.29.29,0,0,0,.1-.12.35.35,0,0,0,0-.3,1.67,1.67,0,0,0-.08-.2l-.05-.1-.06-.1-.06-.1-.09-.1a.27.27,0,0,0-.12-.06h-.09a.28.28,0,0,0-.13,0l-.08,0a.28.28,0,0,0-.09.1l0,.08a.28.28,0,0,0,0,.18Z" style="fill:#00276f"/><path d="M216.92,188.63a.9.9,0,0,1,1.28-.29" style="fill:none;stroke:#00276f;stroke-linecap:round;stroke-linejoin:round;stroke-width:0.5px"/><path d="M213.31,190.75a1.49,1.49,0,0,0,0,.21l0,.11,0,.11a.13.13,0,0,1,0,.06l0,.06a.24.24,0,0,0,.07.13.21.21,0,0,0,.11.1.25.25,0,0,0,.15.05.26.26,0,0,0,.15,0,.4.4,0,0,0,.24-.18.39.39,0,0,0,0-.3,1.69,1.69,0,0,0-.13-.31l0-.1-.06-.1-.06-.07a.19.19,0,0,0-.11-.07.13.13,0,0,0-.08,0,.32.32,0,0,0-.14,0,.38.38,0,0,0-.15.09.19.19,0,0,0-.07.11.15.15,0,0,0,0,.13Z" style="fill:#00276f"/><path d="M213.86,189.32a1.7,1.7,0,0,0-1.64.9" style="fill:none;stroke:#00276f;stroke-linecap:round;stroke-linejoin:round;stroke-width:0.5px"/><path d="M205.91,192a7.92,7.92,0,0,1-.35-6.32,6.53,6.53,0,0,1,2.41-3,10.94,10.94,0,0,1,4.57-1.3,8.81,8.81,0,0,1,4.71.93,4.13,4.13,0,0,1,2.42,3.87,1.48,1.48,0,0,1-.5,1.09,1.42,1.42,0,0,1-.8.24,4,4,0,0,1-2.7-1.07,1.52,1.52,0,0,1-.91,1.12c-.57.15-1.11-.3-1.53-.71a3.25,3.25,0,0,1-1.23,1.54,1.71,1.71,0,0,1-1.68-.1s.05,1.48.05,1.64c0,.61-.42,1.14-.52,1.74a24.4,24.4,0,0,1-1,4.06,8.5,8.5,0,0,0-1.61-1.83A7.45,7.45,0,0,1,205.91,192Z" style="fill:#0b0b3a"/><path d="M216.28,197.59a10.42,10.42,0,0,1-4.94-1.19" style="fill:none;stroke:#c93a8c;stroke-miterlimit:10;stroke-width:0.75px"/><path d="M215.46,190.75a2.06,2.06,0,1,1-2.06-2.06A2.06,2.06,0,0,1,215.46,190.75Z" style="fill:none;stroke:#0b0b3a;stroke-miterlimit:10;stroke-width:0.5px"/><path d="M219.43,188.51a1.59,1.59,0,1,1-2.1-1.37A1.81,1.81,0,0,1,219.43,188.51Z" style="fill:none;stroke:#0b0b3a;stroke-miterlimit:10;stroke-width:0.5px"/><line x1="216.48" y1="189.4" x2="215.24" y2="189.84" style="fill:none;stroke:#0b0b3a;stroke-miterlimit:10;stroke-width:0.5px"/><line x1="211.34" y1="190.97" x2="208.88" y2="192.27" style="fill:none;stroke:#0b0b3a;stroke-miterlimit:10;stroke-width:0.5px"/><path d="M209.91,192.25c-.71-1.16-1.41-1.07-1.85-.53-.58.72.22,2.46.65,2.79.87.66,1.64.69,1.79-.06" style="fill:#f886bc"/><path d="M159.35,157.23l-2.43,4.62a9.86,9.86,0,0,1-3.95-1.13,6.08,6.08,0,0,1-2.94-2.67l4.11-5.44" style="fill:#f886bc"/><path d="M164.52,148.5c2.26,1.33-1.47,9.78-3.52,10.31s-6.09-3.45-7.3-6.83,2.68-5.23,5-5.92S164.52,148.5,164.52,148.5Z" style="fill:#f886bc"/><path d="M162.66,152.49l-.07.09-.06.1-.06.1,0,.05a.94.94,0,0,0-.06.15.26.26,0,0,0,0,.15.25.25,0,0,0,0,.15l.06.08a.23.23,0,0,0,.12.08l.1,0a.29.29,0,0,0,.16,0,.4.4,0,0,0,.24-.18,1.88,1.88,0,0,0,.12-.3l0-.11,0-.12a.33.33,0,0,0,0-.14.19.19,0,0,0,0-.12l-.05-.07a.19.19,0,0,0-.11-.07l-.09,0a.23.23,0,0,0-.14,0l-.08,0a.3.3,0,0,0-.12.13Z" style="fill:#00276f"/><path d="M164.1,151.77a1.7,1.7,0,0,0-1.81-.48" style="fill:none;stroke:#00276f;stroke-linecap:round;stroke-linejoin:round;stroke-width:0.5px"/><path d="M160.85,155.88l1.44,1s-.56,1.09-1.07.66S160.85,155.88,160.85,155.88Z" style="fill:#fff"/><path d="M166.55,150.35a22.38,22.38,0,0,1-2.93-1.35,2.71,2.71,0,0,0-2.15,2.3c0,.25,0,.59-.28.62s-.31-.14-.36-.31a4.42,4.42,0,0,0-.1-.5.72.72,0,0,0-.89-.33,1.23,1.23,0,0,0-.7.73c-.35.82-.65,1.81.13,2.5a1.37,1.37,0,0,1,.34.34c.17.31,0,.69-.23,1a3.9,3.9,0,0,1-3.4,1.9c-1.29,0-3.44-1.71-3.58-2.56,0-.07-1.25-5.29,1-8.61a6.47,6.47,0,0,1,5.66-2.89,6.66,6.66,0,0,1,3.3,1.47C166.18,145.33,167,149.22,166.55,150.35Z" style="fill:#212237"/><path d="M164.38,153.43s.33,2.53-.17,2.81-1.55-.44-1.55-.44" style="fill:#f886bc"/><rect x="96.36" y="230.67" width="15.92" height="0.71" transform="translate(335.18 126.33) rotate(89.91)" style="fill:#4c82fc"/><path d="M110.55,225.31l-.33-1.37a30.91,30.91,0,0,0-3-.73,14.43,14.43,0,0,0-2.5-.15l0,15.93s1.38-.42,3.6-4.23a8.19,8.19,0,0,1,1.87-2.26Z" style="fill:#202263"/><line x1="108.95" y1="233.77" x2="107.96" y2="233.02" style="fill:none;stroke:#4c82fc;stroke-miterlimit:10;stroke-width:0.5px"/><line x1="108.33" y1="234.7" x2="107.34" y2="234.07" style="fill:none;stroke:#4c82fc;stroke-miterlimit:10;stroke-width:0.5px"/><line x1="107.8" y1="235.57" x2="106.77" y2="234.99" style="fill:none;stroke:#4c82fc;stroke-miterlimit:10;stroke-width:0.5px"/><path d="M118.16,224.51l-7.94-.57s-.82.74-.81,3.44a19.49,19.49,0,0,0,.75,5.12l9.19,1.19" style="fill:#f886bc"/><path d="M128.72,192.38c-2.52,6.74,1.6,16.53,1.6,16.53l2.59,16.52-21.26-1.49.46,12.79S134.19,239,139.53,239s7.4-1.2,9-4.33c2.34-4.66-1-30.43-1-30.86l-3.66-16.55" style="fill:#18277a"/><line x1="114.38" y1="224.24" x2="115.04" y2="237.01" style="fill:none;stroke:#1a4fc6;stroke-miterlimit:10;stroke-width:0.5px"/><rect x="161.95" y="238.15" width="15.92" height="0.71" style="fill:#4c82fc"/><path d="M164.21,232.27l-1.38.32s-.52,1.8-.73,3.06a14.4,14.4,0,0,0-.15,2.5h15.92s-.42-1.38-4.22-3.6a8.52,8.52,0,0,1-2.26-1.88Z" style="fill:#202263"/><line x1="172.67" y1="233.88" x2="171.92" y2="234.88" style="fill:none;stroke:#4c82fc;stroke-miterlimit:10;stroke-width:0.5px"/><line x1="173.59" y1="234.51" x2="172.96" y2="235.5" style="fill:none;stroke:#4c82fc;stroke-miterlimit:10;stroke-width:0.5px"/><line x1="174.46" y1="235.04" x2="173.88" y2="236.07" style="fill:none;stroke:#4c82fc;stroke-miterlimit:10;stroke-width:0.5px"/><path d="M164.24,226.55l-1.41,6s.74.82,3.45.82a19.6,19.6,0,0,0,5.11-.74l2.2-8.16" style="fill:#f886bc"/><path d="M135.86,196s-2.33,11.94,9.53,14.51c5.3,1.15,20.39,1.52,20.39,1.52L162.4,230.5h12.93s2.79-13.9,3.63-23.2c.55-6.18-2.84-9.57-7.11-9.57s-17-1.35-17-1.35l-2.14-2.69" style="fill:#18277a"/><path d="M148.05,211s-10,0-12.37-11.16" style="fill:none;stroke:#1a4fc6;stroke-miterlimit:10;stroke-width:0.5px"/><path d="M141,198.75a27.46,27.46,0,0,0,6.22.28" style="fill:none;stroke:#1a4fc6;stroke-miterlimit:10;stroke-width:0.5px"/><path d="M127.91,197.16a19.58,19.58,0,0,0,4.39.75" style="fill:none;stroke:#1a4fc6;stroke-miterlimit:10;stroke-width:0.5px"/><line x1="162.76" y1="228.1" x2="175.83" y2="228.1" style="fill:none;stroke:#1a4fc6;stroke-miterlimit:10;stroke-width:0.5px"/><polygon points="186.08 172.21 186.71 173.28 191.28 169.59 190.5 168.64 186.08 172.21" style="fill:#4348a3"/><path d="M190.78,169.81a4.48,4.48,0,0,1-.21-6.32h0a4.47,4.47,0,0,1,6.52,6.11A4.42,4.42,0,0,1,194,171,4.47,4.47,0,0,1,190.78,169.81Zm.49-5.67h0a3.51,3.51,0,0,0-1,2.52,3.46,3.46,0,0,0,1.11,2.45,3.52,3.52,0,0,0,4.81-5.13,3.54,3.54,0,0,0-5,.16Z" style="fill:#22252d"/><path d="M183.12,175.39h0a.88.88,0,0,0,1.26.11L190,171l-1.11-1.4-5.6,4.53A1,1,0,0,0,183.12,175.39Z" style="fill:#22252d"/><path d="M176.59,174.49l4.94-1.41s2.89-2.25,4-2.3,1.46.35,1.46.35l-.35.28a.84.84,0,0,0-.06,1.24l0,0a.89.89,0,0,0,1.19.06l.76-.61s1.24.06.32,1.15c.54,0,1,.67.09,1.38.36.14.39.76-.23,1.38.42.42-.11,1.1-.6,1.32-.94.42-10.15,3-10.15,3" style="fill:#f886bc"/><path d="M157.07,161.41c6.53,9,3,12-1.67,35a139.07,139.07,0,0,1-27.66-2.71,176.49,176.49,0,0,1,10.65-25.54c3.29-6.41,8.78-9.61,11.88-10.42" style="fill:#103bb2"/><path d="M147.17,171.57s8.48,14.17,13.27,14.87c7.61,1.12,21.48-3.77,21.48-3.77l-1.47-9.44s-15.24,2.08-15.91,1.7c-2.16-1.23-7.47-13.52-7.47-13.52" style="fill:#103bb2"/><path d="M157.91,185.18a44.58,44.58,0,0,1-9.86-12.54" style="fill:none;stroke:#458df4;stroke-miterlimit:10;stroke-width:0.5px"/><line x1="368.87" y1="153.05" x2="385.63" y2="311.19" style="fill:none;stroke:#418be5;stroke-linejoin:round"/><line x1="407.53" y1="153.05" x2="424.29" y2="311.19" style="fill:none;stroke:#418be5;stroke-linejoin:round"/><line x1="369.59" y1="159.8" x2="408.24" y2="159.8" style="fill:none;stroke:#418be5;stroke-linejoin:round"/><line x1="370.95" y1="172.66" x2="409.61" y2="172.66" style="fill:none;stroke:#418be5;stroke-linejoin:round"/><line x1="372.31" y1="185.51" x2="410.97" y2="185.51" style="fill:none;stroke:#418be5;stroke-linejoin:round"/><line x1="373.68" y1="198.37" x2="412.33" y2="198.37" style="fill:none;stroke:#418be5;stroke-linejoin:round"/><line x1="375.04" y1="211.23" x2="413.69" y2="211.23" style="fill:none;stroke:#418be5;stroke-linejoin:round"/><line x1="376.4" y1="224.08" x2="415.06" y2="224.08" style="fill:none;stroke:#418be5;stroke-linejoin:round"/><line x1="377.76" y1="236.94" x2="416.42" y2="236.94" style="fill:none;stroke:#418be5;stroke-linejoin:round"/><line x1="379.13" y1="249.8" x2="417.78" y2="249.8" style="fill:none;stroke:#418be5;stroke-linejoin:round"/><line x1="380.49" y1="262.65" x2="419.14" y2="262.65" style="fill:none;stroke:#418be5;stroke-linejoin:round"/><line x1="381.85" y1="275.51" x2="420.51" y2="275.51" style="fill:none;stroke:#418be5;stroke-linejoin:round"/><line x1="383.21" y1="288.37" x2="421.87" y2="288.37" style="fill:none;stroke:#418be5;stroke-linejoin:round"/><line x1="384.58" y1="301.22" x2="423.23" y2="301.22" style="fill:none;stroke:#418be5;stroke-linejoin:round"/><path d="M414.28,130.07,414,141.39s-5.65,3.63-9.5-1.79l1.29-5.5Z" style="fill:#f886bc"/><path d="M407.24,123.1s-5.69,7-3.84,10.13a3.53,3.53,0,0,0,4.65,1.68c1.45-.66,7.46-5.23,7-6.45C413.48,123.82,407.24,123.1,407.24,123.1Z" style="fill:#f886bc"/><path d="M404.68,127.18s-1.77,1.12-2,2.08c-.09.42,1.34.81,1.34.81" style="fill:#f886bc"/><path d="M403.92,130.89l2.64.2C406.47,132.08,404,134.07,403.92,130.89Z" style="fill:#fff"/><path d="M406.2,127.35a.21.21,0,0,1,0,.06.59.59,0,0,0-.06.14l0-.08a1,1,0,0,1-.13.23l.05-.07-.07.08a.3.3,0,0,0,0,.08s0,0,0,0h0v0l0-.07v0l0,.08a.28.28,0,0,0,0,.13.16.16,0,0,0,0,.08.21.21,0,0,0,.06.1.38.38,0,0,0,.15.09.36.36,0,0,0,.25,0l.06,0,.08,0,.06-.08,0,0,.07-.14a1.8,1.8,0,0,0,.08-.21.77.77,0,0,0,0-.15s0-.1,0-.15l0-.07,0-.06-.06-.05a.2.2,0,0,0-.11,0h-.07l-.08,0a.27.27,0,0,0-.14.12Z" style="fill:#00276f"/><path d="M408,127.29a1.62,1.62,0,0,0-1.05-1,.81.81,0,0,0-.63,0" style="fill:none;stroke:#00276f;stroke-linecap:round;stroke-linejoin:round;stroke-width:0.5px"/><path d="M417.34,125.08a6.3,6.3,0,0,1-.93-.85c-.64-.82-.5-2-1.24-2.79s-1.83-.66-2.74-1.06c-.55-.24-1-.65-1.55-.93a9.64,9.64,0,0,0-2.88-.94,3.31,3.31,0,0,0-2.69.9,1.72,1.72,0,0,0-.39,2.11c.37.54,1.15.78,1.39,1.37s-.05,1.08.1,1.6c.27,1,1.69,1.2,2.29,2s.15,2,.52,3c.26.68.92,1.19,1.13,1.89.13.45.07.94.21,1.39.42,1.42,2.27,2.31,3.68,2.31.7,0,.86-.32,1.23-.88a18.45,18.45,0,0,0,2.15-4c.49-1.36,1.09-3.71-.07-4.94Z" style="fill:#0b0b3a"/><path d="M409,129.93c.58-1.42,1.84-.5,2.12.1.37.81-.78,2.24-1.26,2.44-1,.42-1.69.27-1.66-.47" style="fill:#f886bc"/><path d="M405.63,135.24a10.06,10.06,0,0,0,3.22-.79" style="fill:none;stroke:#c93a8c;stroke-miterlimit:10;stroke-width:0.75px"/><path d="M424.84,243.57l4.65,19.26,1.21,5.84-21.34,3.76a1,1,0,0,1-1.12-.85h0a1,1,0,0,1,.43-1.05l8.38-6.24-5.63-19.86" style="fill:#f46cb4"/><path d="M407.44,272.52a3.24,3.24,0,0,1,.71-1.93l8.93-6.3c5.8,1.37,12.43-1.69,12.43-1.69l2.67,7.68a.47.47,0,0,1-.36.55L408.06,275C407.59,275.11,407.44,272.55,407.44,272.52Z" style="fill:#101d54"/><path d="M415.05,265.12a13.16,13.16,0,0,1,1.83,2.24" style="fill:none;stroke:#773026;stroke-miterlimit:10;stroke-width:0.75px"/><path d="M414,266.14a11.24,11.24,0,0,1,1.51,1.91" style="fill:none;stroke:#773026;stroke-miterlimit:10;stroke-width:0.75px"/><path d="M413,266.91a14.88,14.88,0,0,1,1.41,1.74" style="fill:none;stroke:#773026;stroke-miterlimit:10;stroke-width:0.75px"/><line x1="431.83" y1="269.07" x2="407.49" y2="273.36" style="fill:none;stroke:#773026;stroke-miterlimit:10;stroke-width:0.75px"/><path d="M430.45,265.32s-5.68,1.17-5.51,5" style="fill:none;stroke:#773026;stroke-miterlimit:10;stroke-width:0.75px"/><path d="M410,269.3a20.32,20.32,0,0,1,2.52,3.18" style="fill:none;stroke:#773026;stroke-miterlimit:10;stroke-width:0.75px"/><path d="M404.6,187.17s1.13,22.32,2.62,39a188.91,188.91,0,0,0,6.59,35.17L430,259s-5.33-25.05-5.91-32.81c-.82-11-.21-26.79-.21-26.79a20,20,0,0,0,.28-14.5" style="fill:#101d54"/><path d="M407.36,186.93s0,26.3,2.6,43.39c2.26,15,6.12,30.73,6.12,30.73" style="fill:none;stroke:#1a3a7a;stroke-miterlimit:10;stroke-width:0.75px"/><line x1="413.01" y1="258.59" x2="428.97" y2="255.59" style="fill:none;stroke:#1a3a7a;stroke-miterlimit:10;stroke-width:0.75px"/><path d="M406.76,247.21,407.92,267l.14,6-21.66-.12a1,1,0,0,1-.95-1h0a1,1,0,0,1,.62-1l9.34-4.63-2-20.55" style="fill:#f886bc"/><path d="M384.5,272.58a3.2,3.2,0,0,1,1-1.78l9.9-4.6c5.47,2.39,12.53.56,12.53.56l1.26,8a.45.45,0,0,1-.44.48l-24.12-.13C384.18,275.15,384.49,272.6,384.5,272.58Z" style="fill:#18277a"/><path d="M393.3,266.66a12.46,12.46,0,0,1,1.4,2.53" style="fill:none;stroke:#c44220;stroke-miterlimit:10;stroke-width:0.75px"/><path d="M392.05,267.47a10.76,10.76,0,0,1,1.15,2.14" style="fill:none;stroke:#c44220;stroke-miterlimit:10;stroke-width:0.75px"/><path d="M391,268.05a17.88,17.88,0,0,1,1.08,2" style="fill:none;stroke:#c44220;stroke-miterlimit:10;stroke-width:0.75px"/><line x1="409.11" y1="273.55" x2="384.4" y2="273.41" style="fill:none;stroke:#c44220;stroke-miterlimit:10;stroke-width:0.75px"/><path d="M408.42,269.61s-5.8.13-6.3,3.9" style="fill:none;stroke:#c44220;stroke-miterlimit:10;stroke-width:0.75px"/><path d="M387.57,269.86a20.34,20.34,0,0,1,1.91,3.58" style="fill:none;stroke:#c44220;stroke-miterlimit:10;stroke-width:0.75px"/><path d="M392.88,187.16s-1.59,24.16-1,40.93S393.46,262,393.46,262H410s-.48-27.28-.1-37.6S412,200.22,412,200.22s3.65-4.43,1.52-14.41" style="fill:#18277a"/><path d="M395.65,187.16s-1.66,24.16-1,40.93,1.6,33.94,1.6,33.94" style="fill:none;stroke:#304dc6;stroke-miterlimit:10;stroke-width:0.75px"/><path d="M401.23,192s4.84.17,7.19,0" style="fill:none;stroke:#304dc6;stroke-miterlimit:10;stroke-width:0.75px"/><path d="M416.92,192.17s4.26-.1,6.31-.4" style="fill:none;stroke:#1a3a7a;stroke-miterlimit:10;stroke-width:0.75px"/><line x1="393.3" y1="258.74" x2="409.95" y2="258.74" style="fill:none;stroke:#304dc6;stroke-miterlimit:10;stroke-width:0.75px"/><path d="M431.93,167c-1.56-12.26-4.87-18.29-8.11-22.15a16.8,16.8,0,0,0-9.6-5.8l-.73,15.37s6.33,12.93,6.3,14.65c-.07,4-5.17,18.1-5.17,18.1l10.89-1S432.78,173.73,431.93,167Z" style="fill:#a5a5a5"/><path d="M367.75,132.53c-2.75-2.08-9.7-9.4-10.35-9.12s1.77,2.9,1.2,3-4.56-3.63-5.12-3.17c-.77.62,3.52,4.26,3.52,4.26s-1.09-.45-1.6.29c-.36.51.67,1.57.67,1.57s-1.21-.46-1.57.09.79,1.79.79,1.79-1-.48-1.2.08c-.37.92,2.51,3.83,7.89,8.85" style="fill:#f886bc"/><path d="M414.22,139.06s8.56,3.23,10.6,14.83c.92,5.16.68,34.28.67,34.26-15.88,2.8-32.88-.59-32.88-.59s.67-22.42.52-29.27c-.37-16.35,12.7-18.9,12.7-18.9Z" style="fill:#bdbdbd"/><path d="M425.51,186.19a98.46,98.46,0,0,1-32.88-.7" style="fill:none;stroke:#868a8e;stroke-miterlimit:10;stroke-width:0.75px"/><path d="M413.49,139.09a120.49,120.49,0,0,0-17.66.64c-7.83,1.08-13.51,1.67-16.51.63s-14.4-11.51-14.4-11.51l-8.12,8.05S369.05,153,380,154.32s22.85-1.49,22.85-1.49" style="fill:#bdbdbd"/><line x1="393.32" y1="154.38" x2="401.11" y2="153.17" style="fill:none;stroke:#868a8e;stroke-miterlimit:10;stroke-width:0.75px"/></g></svg>