<svg xmlns="http://www.w3.org/2000/svg" xmlns:xlink="http://www.w3.org/1999/xlink" viewBox="0 0 544 362"><defs><linearGradient id="a" x1="303.12" y1="110.77" x2="303.12" y2="269.36" gradientUnits="userSpaceOnUse"><stop offset="0" stop-color="#fff"/><stop offset="1" stop-color="#fff" stop-opacity="0"/></linearGradient><linearGradient id="b" x1="336.35" y1="110.77" x2="336.35" y2="269.36" xlink:href="#a"/></defs><title>experienced-teachers</title><g style="isolation:isolate"><rect width="544" height="362" style="fill:#f7f7f7"/><path d="M60.32,323.27s-49.24-57.39,6.23-119.85C111.26,153.08,97,133.61,94.92,99.67c-1.74-28.74,30.84-71.23,79.61-73.35,79.92-3.47,99.79,22.21,142.23,20.4S378.39,30,427.68,35.9c91.46,10.86,79.13,97.55,65.8,162.34s26.72,86.91-2.1,125.08" style="fill:#b5d0ff;opacity:0.2"/><polygon points="310.06 313.82 232.81 313.82 241.2 280.84 243.1 273.35 246.79 258.87 296.07 258.87 299.76 273.35 301.67 280.84 310.06 313.82" style="fill:#6f3fba"/><polygon points="301.67 280.84 241.2 280.84 243.1 273.35 299.76 273.35 301.67 280.84" style="fill:#5730a0"/><path d="M339.7,322.94H203.16a5.94,5.94,0,0,1-5.93-5.94h0a5.94,5.94,0,0,1,5.93-5.93H339.7a5.94,5.94,0,0,1,5.93,5.93h0A5.94,5.94,0,0,1,339.7,322.94Z" style="fill:#774cc9"/><rect x="145.41" y="112.46" width="252.06" height="157.72" rx="6.26" style="fill:#854dce"/><rect x="150.02" y="117.06" width="242.37" height="128" style="fill:#b8b8f4"/><g style="opacity:0.30000000000000004"><rect x="361.61" y="117.06" width="6.8" height="108.86" style="fill:#eefaff"/><rect x="378.82" y="117.06" width="6.8" height="108.86" style="fill:#eefaff"/><rect x="155.03" y="117.06" width="6.8" height="108.86" style="fill:#eefaff"/><rect x="172.25" y="117.06" width="6.8" height="108.86" style="fill:#eefaff"/><rect x="189.46" y="117.06" width="6.8" height="108.86" style="fill:#eefaff"/><rect x="206.68" y="117.06" width="6.8" height="108.86" style="fill:#eefaff"/><rect x="223.89" y="117.06" width="6.8" height="108.86" style="fill:#eefaff"/><rect x="241.11" y="117.06" width="6.8" height="108.86" style="fill:#eefaff"/><rect x="258.32" y="117.06" width="6.8" height="108.86" style="fill:#eefaff"/><rect x="275.53" y="117.06" width="6.8" height="108.86" style="fill:#eefaff"/><rect x="292.75" y="117.06" width="6.8" height="108.86" style="fill:#eefaff"/><rect x="309.96" y="117.06" width="6.8" height="108.86" style="fill:#eefaff"/><rect x="327.18" y="117.06" width="6.8" height="108.86" style="fill:#eefaff"/><rect x="344.39" y="117.06" width="6.8" height="108.86" style="fill:#eefaff"/></g><rect x="150.02" y="225.91" width="242.37" height="19.14" style="fill:#7272dd"/><path d="M271.42,263h0a5.82,5.82,0,0,1-5.81-5.81h0a5.83,5.83,0,0,1,5.81-5.81h0a5.83,5.83,0,0,1,5.81,5.81h0A5.83,5.83,0,0,1,271.42,263Z" style="fill:#5730a0"/><polygon points="289.25 270.06 272.22 270.06 317 112.46 334.02 112.46 289.25 270.06" style="opacity:0.2;fill:url(#a)"/><polygon points="332.02 270.06 295.9 270.06 340.68 112.46 376.79 112.46 332.02 270.06" style="opacity:0.2;fill:url(#b)"/><path d="M383.09,237.36H184.24a1.88,1.88,0,1,1,0-3.76H383.09a1.88,1.88,0,1,1,0,3.76Z" style="fill:#9494ed"/><path d="M283.67,233.6v3.76H184.25a1.88,1.88,0,1,1,0-3.76Z" style="fill:#f98094"/><circle cx="283.72" cy="235.48" r="3.38" style="fill:#fff"/><circle cx="166.23" cy="235.48" r="7.55" transform="translate(-101.14 343.17) rotate(-76.72)" style="fill:#fff"/><path d="M165.09,232.1l4.14,3.19a.24.24,0,0,1,0,.39l-4.14,3.19a.25.25,0,0,1-.4-.2V232.3A.25.25,0,0,1,165.09,232.1Z" style="fill:#854dce"/><path d="M64,306.72s-36.39-49.16-25-59.66S67.18,273.54,64,306.72Z" style="fill:#d6d4ff"/><path d="M42.4,252.93a143.29,143.29,0,0,1,12.86,24.88,157,157,0,0,1,7.27,24c.46,2.09.86,4.19,1.27,6.29s.68,4.05,1.13,6a.31.31,0,0,0,.6-.08,78.36,78.36,0,0,0-1.68-11q-1.22-6-2.87-11.83a135.87,135.87,0,0,0-9.63-24.78A112.27,112.27,0,0,0,43,252.57c-.26-.36-.86,0-.61.36Z" style="fill:#7878c4"/><path d="M41.5,259.68c1.53,1.13,3.11,2.19,4.63,3.34.78.59,1.55,1.18,2.31,1.79a9.83,9.83,0,0,0,2.23,1.65c.23.09.4-.2.3-.38a7.89,7.89,0,0,0-1.95-2c-.76-.65-1.54-1.28-2.34-1.88a24.78,24.78,0,0,0-4.88-3.08.3.3,0,0,0-.3.52Z" style="fill:#7878c4"/><path d="M42.63,262.62c1.53,1.14,3.11,2.19,4.63,3.34.78.59,1.55,1.18,2.31,1.8a9.91,9.91,0,0,0,2.23,1.65c.23.09.39-.2.3-.39a7.85,7.85,0,0,0-2-1.95c-.77-.65-1.54-1.29-2.34-1.89a25.88,25.88,0,0,0-4.88-3.08.3.3,0,0,0-.3.52Z" style="fill:#7878c4"/><path d="M71.47,301.09S106.55,251,94.86,240.8,67.46,268,71.47,301.09Z" style="fill:#d6d4ff"/><path d="M91.07,246.4a120.72,120.72,0,0,0-13.29,27,152.89,152.89,0,0,0-6.57,26.07c-.36,2.18-.68,4.37-.93,6.57s-.49,4.25-.52,6.38c0,.33.54.43.6.08.64-3.75,1-7.56,1.61-11.32q1-6.27,2.48-12.44A149.46,149.46,0,0,1,83.58,262a140.78,140.78,0,0,1,8.1-15.19c.24-.39-.36-.73-.61-.36Z" style="fill:#7878c4"/><path d="M72.41,277.1a51.72,51.72,0,0,0,.14,6.7c.07,1,.16,2,.26,3a9.62,9.62,0,0,0,.44,2.78c.09.22.44.29.5,0a10,10,0,0,0,0-2.68c-.07-1-.12-2.07-.19-3.11-.15-2.23-.21-4.48-.5-6.7a.31.31,0,0,0-.61,0Z" style="fill:#0e7c74"/><path d="M68.73,283.33s-35.31-49.94-23.67-60.19S72.58,250.23,68.73,283.33Z" style="fill:#a29ee5"/><path d="M48.27,229.08a141,141,0,0,1,15.3,34.12,167,167,0,0,1,6.05,30.93c.46,4.57.63,9.15,1,13.72a.31.31,0,0,0,.61,0,96.07,96.07,0,0,0-.5-12.23c-.43-4.89-1.06-9.77-1.9-14.61a146.93,146.93,0,0,0-9.67-33.13,118.59,118.59,0,0,0-10.33-19.15c-.25-.37-.85,0-.61.35Z" style="fill:#7878c4"/><path d="M66.61,297.89S88.34,268,81.39,261.75,64.55,277.88,66.61,297.89Z" style="fill:#8c8cdd"/><path d="M78.92,265a73.8,73.8,0,0,0-9.86,20.41,97.94,97.94,0,0,0-3.88,18.8,46.85,46.85,0,0,0-.43,8.45c0,.32.54.44.59.08.36-2.38.46-4.82.72-7.21q.47-4.4,1.29-8.72a95.08,95.08,0,0,1,6.07-19.92,87,87,0,0,1,6.11-11.53c.24-.39-.35-.72-.61-.36Z" style="fill:#7878c4"/><polygon points="81.17 296.45 81 297.6 80.64 300.02 77.17 323.32 56.47 323.32 53 300.02 52.64 297.6 52.47 296.45 81.17 296.45" style="fill:#bfb8f4"/><polygon points="81 297.6 80.64 300.02 53 300.02 52.64 297.6 81 297.6" style="fill:#7878c4"/><path d="M81.58,298.64H52.06a1.72,1.72,0,0,1-1.71-1.71h0a1.71,1.71,0,0,1,1.71-1.71H81.58a1.71,1.71,0,0,1,1.71,1.71h0A1.72,1.72,0,0,1,81.58,298.64Z" style="fill:#a29ee5"/><path d="M94.14,211.9v15.41a1,1,0,0,1-.2.62,1.07,1.07,0,0,1-.88.46H70.43a1.12,1.12,0,0,1-.75-.29V213.8a1,1,0,0,1,.95-1h15.9a1,1,0,0,0,.94-.95,1,1,0,0,1,1-1h4.77A1,1,0,0,1,94.14,211.9Z" style="fill:#383493"/><path d="M93.94,227.93a1.07,1.07,0,0,1-.88.46H70.43a1.12,1.12,0,0,1-.75-.29,1.36,1.36,0,0,1-.23-.32.26.26,0,0,1,0-.08l-5-11.49a.92.92,0,0,1,.83-1.28H87.65a.9.9,0,0,1,.83.54l4.72,10.77Z" style="fill:#5146af"/><line x1="44.41" y1="323.65" x2="498.46" y2="323.65" style="fill:none;stroke:#5730a0;stroke-linecap:round;stroke-linejoin:round;stroke-width:2px"/><path d="M94.23,48.28H195.51a6.65,6.65,0,0,1,6.65,6.65v78.38a1.43,1.43,0,0,1-1.43,1.43H91.18a1.43,1.43,0,0,1-1.43-1.43V52.77A4.48,4.48,0,0,1,94.23,48.28Z" style="fill:#d6d4ff"/><rect x="94.18" y="111.93" width="103.68" height="18.61" rx="2.83" style="fill:#fff"/><rect x="94.18" y="101.3" width="103.68" height="7.55" rx="1.8" style="fill:#fff"/><path d="M154.54,62.88H95.38a1.66,1.66,0,0,1-1.66-1.67h0a1.66,1.66,0,0,1,1.66-1.66h59.16a1.66,1.66,0,0,1,1.67,1.66h0A1.67,1.67,0,0,1,154.54,62.88Z" style="fill:#fff;opacity:0.31"/><path d="M154.54,69.77H95.38a1.66,1.66,0,0,1-1.66-1.67h0a1.66,1.66,0,0,1,1.66-1.67h59.16a1.67,1.67,0,0,1,1.67,1.67h0A1.67,1.67,0,0,1,154.54,69.77Z" style="fill:#fff;opacity:0.31"/><path d="M154.54,76.65H95.38A1.66,1.66,0,0,1,93.72,75h0a1.66,1.66,0,0,1,1.66-1.67h59.16A1.67,1.67,0,0,1,156.21,75h0A1.66,1.66,0,0,1,154.54,76.65Z" style="fill:#fff;opacity:0.31"/><path d="M154.54,83.54H95.38a1.66,1.66,0,0,1-1.66-1.67h0a1.66,1.66,0,0,1,1.66-1.66h59.16a1.66,1.66,0,0,1,1.67,1.66h0A1.67,1.67,0,0,1,154.54,83.54Z" style="fill:#fff;opacity:0.31"/><path d="M154.54,90.43H95.38a1.66,1.66,0,0,1-1.66-1.67h0a1.66,1.66,0,0,1,1.66-1.67h59.16a1.67,1.67,0,0,1,1.67,1.67h0A1.67,1.67,0,0,1,154.54,90.43Z" style="fill:#fff;opacity:0.31"/><path d="M140.64,97.32H95.38a1.66,1.66,0,0,1-1.66-1.67h0A1.66,1.66,0,0,1,95.38,94h45.26a1.67,1.67,0,0,1,1.67,1.67h0A1.67,1.67,0,0,1,140.64,97.32Z" style="fill:#fff;opacity:0.31"/><path d="M201,45.43H90.89a1.14,1.14,0,0,0-1.14,1.14V55H202.16V46.56A1.14,1.14,0,0,0,201,45.43Z" style="fill:#854dce"/><path d="M185.48,50.21a1,1,0,1,1-1-1A1,1,0,0,1,185.48,50.21Z" style="fill:#fff"/><path d="M190.64,50.21a1,1,0,1,1-2.08,0,1,1,0,0,1,2.08,0Z" style="fill:#fff"/><path d="M195.8,50.21a1,1,0,1,1-2.08,0,1,1,0,1,1,2.08,0Z" style="fill:#fff"/><path d="M197.86,60.63v35.6a1.09,1.09,0,0,1-1.09,1.09H161.55a1.09,1.09,0,0,1-1.08-1.09V60.63a1.09,1.09,0,0,1,1.08-1.08h35.22A1.09,1.09,0,0,1,197.86,60.63Z" style="fill:#fff"/><path d="M197.86,89.56v6.67a1.09,1.09,0,0,1-1.09,1.09H179.3l.74-7.76,8.22-9.1Z" style="fill:#6c3db7"/><path d="M193,97.32H161.55a1.09,1.09,0,0,1-1.08-1.09V89.56l12.3-12.91Z" style="fill:#854dce"/><path d="M192.91,69.77a4.34,4.34,0,1,1-4.33-4.34A4.33,4.33,0,0,1,192.91,69.77Z" style="fill:#854dce"/><path d="M250.76,214.56,239,194.39l-18.69,1.48-5.09,4.64c-.66-.76-.51-.58-1-1.16C210.26,194.94,201,187.6,193.72,180a176.74,176.74,0,0,1-14.53-17.16l-1.47.74c0-.79,0-1.29,0-1.29l-6.58-8.8-8-.52-5.92,7.2.31,3.85s.09,5.93,4.73,6.52c1.39.18,4.9.85,6,1.61a23.07,23.07,0,0,1,7.43,8.61c5.22,10.24,12.83,24.84,20,37.36a15.58,15.58,0,0,0,.82,1.34c2.49,4,10.2,15.42,16.5,16C220.66,236.12,250.76,214.56,250.76,214.56Z" style="fill:#f7b59c"/><path d="M277.53,108.22s2.51-3.74,6-4.64-3.79,8-3.79,8a8.58,8.58,0,0,1-2.18.72A25.62,25.62,0,0,1,277.53,108.22Z" style="fill:#01263a"/><path d="M341.84,81.45s24.62,8.83-4.69,34.23l-4.41-1.34Z" style="fill:#003051"/><path d="M279.59,157.9A47.94,47.94,0,0,0,307,174.5C334.3,174,339,159,339,159l-15.23-3.39s-.46-19.88,8-32.15c6.33,1.22,9.29-8.76,7.55-11.44-1.88-2.91-4-2.53-4-2.53-1.8,2-3.43,6.54-4.24,8.8L293,137.9a21.36,21.36,0,0,1,1,2.73,44.54,44.54,0,0,1,1.7,8.22,56.92,56.92,0,0,1,.33,7.46Zm48.72-35.31c.81-1.38,1.68-2.77,2.65-4.16-.34,1-.59,1.84-.77,2.55C329.11,121.89,328.34,122.56,328.31,122.59Z" style="fill:#f7b59c"/><path d="M294.05,140.63a44.54,44.54,0,0,1,1.7,8.22c31.64-6.94,32.54-24.06,32.54-24.06l-16.24,6.59Z" style="fill:#ed9780"/><path d="M289,70.77S282.15,83.58,286.9,92l11-14.22" style="fill:#01263a"/><path d="M277,135.82c7.29,11.51,34,11.25,46.55-5.25s14.58-35.42,8.31-47c-3.48-6.47-11.82-10.2-20-10.81a22.56,22.56,0,0,0-6.52.48,23.78,23.78,0,0,0-12.92,7.87c-.31.36-.6.72-.88,1.1l-1.93,2.54c-.25.33-.48.66-.71,1a21.62,21.62,0,0,0-2.78,5.84,19.9,19.9,0,0,0-.78,3.31,22.1,22.1,0,0,1-4.49,10.52C275.3,112.15,269.68,124.32,277,135.82Z" style="fill:#f7b59c"/><path d="M292.36,81.06a32.45,32.45,0,0,0,8.5,2.21c6.37.76,19.22,2,23.53,6.72a12,12,0,0,1,2.88,5.32c1.06,3.68-2.39-12.52-2.39-12.52l-19.59-9.6A23.84,23.84,0,0,0,292.36,81.06Z" style="fill:#ed9780"/><path d="M329.64,100.44s-.06,16.68-8.89,21.09-14.86-1-18.89-3.9c-2.32-1.66-3.13,2.59-3.13,2.59s4.6,7.64,6.9,7.64,11.58-.12,12.28-.57,6-3,6-3,3.64-6.23,3.9-6.88,4.41-7.76,4.22-8.65-.13-6.78-.13-6.78Z" style="fill:#ed9780"/><path d="M289.29,48.9c-2.08.4-4,4.67-4.81,6.59a16,16,0,0,0,1.75,16.66c6,8.32,19,8.34,28.67,10.83,8.61,2.22,12.9,7.77,12.34,14.09a6.42,6.42,0,0,0,1.6,4.76l.18.21a5.2,5.2,0,0,1,1.18,4.44c-1,5-4.17,15.25-11.94,17.55-6.71,2-9.47-.54-10.58-1.39-3.9-3-6.11-6.26-13.73-10-4-1.93-8.23-1.66-13.79-2.47-1-.16-2.47-.29-2.63-2,0,0-12.13,14.24-3.64,29a15.53,15.53,0,0,0,9.83,7.41,40.17,40.17,0,0,0,26.2-2.8c18-8.16,24-26.76,26.37-32.61s8.63-21.61,4-36.12c-2.87-9-12-16.53-26.81-17.2C303.12,55.47,295.45,47.7,289.29,48.9Z" style="fill:#003051"/><path d="M301.08,121.49a8.52,8.52,0,0,1-.77,1.15c-1.62,2.12-5.89,6.14-13.18,2.59a7.28,7.28,0,0,1-4-4.13,9,9,0,0,1,.55-6.39,55.69,55.69,0,0,0,6.38,3.5,32.29,32.29,0,0,0,10.6,3.25Z" style="fill:#8d1612"/><path d="M300.86,120.81l-.19.65-.36,1.18c-1.62,2.12-5.89,6.14-13.18,2.59a7.28,7.28,0,0,1-4-4.13,9.56,9.56,0,0,1,6-2.89h4.9Z" style="fill:#ff4c2f"/><path d="M284.05,114.71s-2,2.54-2,3.27c0,1.13,13.43,7.43,14.14,7.48s2-2.54,2-2.54l-5.44-3.24" style="fill:#fafff7"/><path d="M284.72,87.49a3.26,3.26,0,0,0-.36,1.06,2,2,0,0,0,1.39,2.33c2.52.9,10.15,3.92,10.15,3.92.8.46.81-.4.56-.91-1-2.1-2-4.71-9.23-7.16C286.21,86.39,285.15,86.51,284.72,87.49Z" style="fill:#003051"/><path d="M320.59,101.94c-.3.72,0,.08-.53,1a1.93,1.93,0,0,1-2.64.6c-2.39-1.21-9.83-4.67-9.83-4.67-.88-.26-.27-.86.28-1,2.21-.71,4.8-1.78,11.55,1.78C320.36,100.09,321,101,320.59,101.94Z" style="fill:#003051"/><path d="M281,115.2s4.24,5.39,10.11,3.74c0,0,.06,4.41,9.94,5.85l.86-3.45s-6.36-3.39-6.77-3.13-6.46-1.61-7.61-1.83-5.09-3.29-5.09-3.29Z" style="fill:#003051"/><path d="M336.19,112.88s-3.59,5.11-3,7.34c0,0,.14-1.3,3.44-1.28,0,0,2.13-3,1.06-5.18A1.34,1.34,0,0,0,336.19,112.88Z" style="fill:#ed9780"/><path d="M307.92,103.57c-1.12,1.83-1.59,3.83.25,5.29a1.75,1.75,0,0,0,2.12-.22,6.83,6.83,0,0,0,1.62-2.37c1.26-2.38-2.55-5-4-2.7Z" style="fill:#452e17"/><path d="M308.23,104.64c-.29.48-.42,1,.06,1.38a.47.47,0,0,0,.56,0c.25-.24.18-.48.33-.76a.55.55,0,0,0-.95-.57Z" style="fill:#fff"/><path d="M288.27,96.93c-.93,1.42-1.34,3,.08,4.18A1.39,1.39,0,0,0,290,101a6,6,0,0,0,1.28-2c1.05-1.85-1.85-3.82-3-2Z" style="fill:#452e17"/><path d="M288.49,97.78c-.24.37-.35.78,0,1.09a.36.36,0,0,0,.44,0c.2-.18.16-.37.28-.59a.44.44,0,0,0-.74-.47Z" style="fill:#fff"/><path d="M179.45,163.3s-9.43-20.25-16-25c0,0-2.31.36-2,3.18s4.26,6.26,4.44,8.9-1.59,2.26-3.77,1.76-18.28-9.46-19.87-8.68,0,2.48,1.18,3.39,9.73,6.31,9.73,6.31-15.49-8.5-16.65-5.55c-.75,1.92,13.65,9.31,13.65,9.31s-12.37-6.93-12.94-4.36c-.48,2.2,10,7.12,10,7.12s-6.47-3.39-7-1.9c-.62,1.88,8.38,6.77,11,8.47s9,4.43,11.48,4.37,4.38-.32,5.76,1.09" style="fill:#f7b59c"/><path d="M352,206.66l5.2,19.25h-94.5c0-5-.27-10.92-.66-16.78l-20.33,12.45c-6.65-13.17-21.13-25.71-21.34-25.71,14.12-13.85,31.42-29.53,40.85-36.08,4.51-3.13,26.18-4.39,29-4.67a7.44,7.44,0,0,0,5.79-3.86s3,7,7.94,9.54c1.33.55,1.45,8.5,3.12,8.46.5,0,4.15-8.32,4.63-8.4,0,0,5.82-1,12.25-10.66l1.15,1.57a7.44,7.44,0,0,0,4.29,2.85,107.18,107.18,0,0,1,14.92,4.66c8.1,3.27,17,18.83,17,18.83l2,28.55-11.91-.55Z" style="fill:#fff"/><polygon points="343.25 201.76 345.5 225.91 357.15 225.91 355.08 210.17 343.25 201.76" style="fill:#f4f4f4"/><polyline points="378.02 197.96 388.54 225.91 357.15 225.91 351.95 214.56" style="fill:#f7b59c"/><path d="M332,155.3s24.06,3.47,31.26,10.64c3.58,3.57,6.52,10.41,11,20.67,7.36,16.8,10.83,25.94,10.83,25.94s-18.21,12.66-36.46,8.9l-8.94-25.75Z" style="fill:#fff"/><ellipse cx="290.07" cy="98.57" rx="7.61" ry="6.85" transform="translate(90.01 330.58) rotate(-68)" style="fill:none;stroke:#fff;stroke-miterlimit:10"/><ellipse cx="308.61" cy="106.09" rx="7.61" ry="6.85" transform="translate(94.63 352.49) rotate(-68)" style="fill:none;stroke:#fff;stroke-miterlimit:10"/><path d="M296.6,100.61s4.11-.44,5.66,2.92" style="fill:none;stroke:#fff;stroke-miterlimit:10"/><line x1="315.22" y1="107.93" x2="336.29" y2="109.26" style="fill:none;stroke:#fff;stroke-linecap:round;stroke-miterlimit:10"/><path d="M267.8,225.91h-5.15c0-5-.27-10.92-.66-16.78l4.18-2.34S267.92,220.6,267.8,225.91Z" style="fill:#f4f4f4"/><path d="M298.73,102.66s-5.49,4.24-6.08,6.47c-.36,1.31,1.84,2.76,1.84,2.76" style="fill:none;stroke:#ed9780;stroke-linecap:round;stroke-miterlimit:10"/><path d="M147.49,250.58s2.26,7.85-6.19,7.85a6.88,6.88,0,0,1-3.07-.73c-3.12-1.51-3.84-6.74-3.84-6.74,2.64-.68,1.71-4.49,1.71-4.49l9.38.21s-.46,2.45.23,3.16C146.9,251.06,147.49,250.58,147.49,250.58Z" style="fill:#f7b59c"/><path d="M134.91,250.36s-.53,7,6,7c5.93,0,6-4.61,5.57-7.16,6.77.61,14.18,3.34,18,6.45,4.48,5.81,7.6,14.69,7.6,14.69a35.93,35.93,0,0,1-4.21,1.62A16.87,16.87,0,0,0,164,274.6l-2.66,35.86H119.88l-.71-35.88s-2.73-.66-4.93-1.38a14.28,14.28,0,0,1-4.44-2.09,75.43,75.43,0,0,1,6.25-13.39C119.86,254.19,127,251.29,134.91,250.36Z" style="fill:#5146af"/><path d="M110.54,271.52s-4,14-3.6,20.68,16.17,16.05,16.17,16.05l2.07-7.05s-6.56-2.79-7.54-7.9,4.54-17.92,4.54-17.92-2.43-.71-5.76-1.62A34.58,34.58,0,0,1,110.54,271.52Z" style="fill:#f7b59c"/><path d="M171.6,271.52s4,14,3.59,20.68S159,308.25,159,308.25L157,301.2s6.57-2.79,7.54-7.9-4.73-18.22-4.73-18.22,2.63-.6,6-1.51A46.68,46.68,0,0,0,171.6,271.52Z" style="fill:#f7b59c"/><path d="M166.44,311H115.16L114,278.91a1.47,1.47,0,0,1,1.47-1.52h50.66a1.47,1.47,0,0,1,1.47,1.52Z" style="fill:#9999ef"/><path d="M162.33,318.39A5,5,0,0,1,166,317c1.65,0,6.31,1,8.53,1s4.54-.52,5.81,1.38c2.17,3.22,1.23,6.12-2.41,6.56-2,.24-3.62-1.07-6.77-.76s-7.82-.72-9.2-2.9" style="fill:#4c4051"/><path d="M158,316.89a24,24,0,0,0,4.09.79c1.63.09,5.3-.32,6.95.72s1.13,4.18,0,4.9c-1.83,1.17-3.31.56-6.67-.49a21,21,0,0,0-7.29-.66" style="fill:#f7b59c"/><path d="M163,324.21s-38-.68-48.15-2a47.64,47.64,0,0,1-11.59-2.84c-4.56-2.71-6.23-9.17-3.13-15.13,1.45-2.77,5.91-2.28,6.53-2.28h.24c12.32.48,23.55,3.63,36.25,8.71A146.36,146.36,0,0,0,164,317.33C164.68,322.18,163,324.21,163,324.21Z" style="fill:#0052a3"/><path d="M172.18,320s-1-.56-1.35,0a9,9,0,0,0-.34,3.56c.31.71,1.79.46,1.79.46l1.21-3.25Z" style="fill:#4c4051"/><path d="M120,318.44a5.19,5.19,0,0,0-3.76-1.42c-1.71,0-6.56,1-8.87,1s-4.58-.55-6.05,1c-2.78,2.92-.19,6.59,3.59,7.06,2.06.25,2.67-.93,5.94-.6s8.12-.71,9.57-3" style="fill:#594a5f"/><path d="M124.48,316.9a25.11,25.11,0,0,1-4.25.81c-1.7.08-5.5-.35-7.22.72s-1.19,4.34,0,5.09c1.9,1.22,3.44.6,6.93-.49a21.86,21.86,0,0,1,7.57-.65" style="fill:#f7b59c"/><path d="M179.27,319.22h0A46.52,46.52,0,0,1,167,322.3c-10.14,1.3-48.17,1.85-48.17,1.85s-1.65-2-1-6.89a146.68,146.68,0,0,0,20.87-6.59c12.43-4.9,23.45-8,35.44-8.55,2.35.23,5.06,1.27,7,5.29C183.73,312.72,181.75,318.29,179.27,319.22Z" style="fill:#0058c4"/><path d="M111.91,318.83s1.29-.71,1.71.06a11.3,11.3,0,0,1,.43,4.55c-.41.91-2.29.58-2.29.58l-1.52-4.15Z" style="fill:#594a5f"/><path d="M151.82,228.21s3.52-.36-.48,8.76c-1.5,3.44-2,3.21-2.06,3.38s-1.35-1.14-1.35-1.72.06-5.09.11-5.32S151.82,228.21,151.82,228.21Z" style="fill:#2c1e56"/><path d="M131.05,230.3s-2.73-.76-1.63,4.68a10.72,10.72,0,0,0,2.71,5.37c0,.17,1.35-1.14,1.35-1.72s-.06-5.09-.12-5.32S131.05,230.3,131.05,230.3Z" style="fill:#2c1e56"/><path d="M131.79,237.1s-1.15-1.11-1.48.38.89,5.35,2.42,3.86" style="fill:#e5a18c"/><path d="M149.65,237.1s1.16-1.11,1.49.38-.89,5.35-2.43,3.86" style="fill:#e5a18c"/><path d="M141.08,249H141c-1.07.07-10.62.16-9.41-17.2h18.19S152,247.92,141.08,249Z" style="fill:#f7b59c"/><path d="M147.29,222a6.51,6.51,0,0,1,4,8.77c-1.7,3.42-7.14,5.42-13.23,4.12-3.59-.76-4.74-2.2-6.89-2.09a3.79,3.79,0,0,1-3.73-2.48c-.79-2.11-1.25-5,.94-6.65C134.27,225.42,142.15,220.51,147.29,222Z" style="fill:#2c1e56"/><path d="M143.73,293.19a3.3,3.3,0,1,1-3.3-3.3A3.3,3.3,0,0,1,143.73,293.19Z" style="fill:#d1deff"/><path d="M136.24,247.54a7.78,7.78,0,0,0,1.36.66,7.87,7.87,0,0,0,3.2.53,8.8,8.8,0,0,0,1.73-.24A10.72,10.72,0,0,0,144,248a9.92,9.92,0,0,0,1.38-.63,6.3,6.3,0,0,1-1.27.87,8.27,8.27,0,0,1-1.48.6,7.62,7.62,0,0,1-1.8.31A6.16,6.16,0,0,1,139,249a6.44,6.44,0,0,1-1.49-.57A5.15,5.15,0,0,1,136.24,247.54Z" style="fill:#eaa18b"/><path d="M136.89,239.09c.07.63.13,1.36-.55,1.44a.7.7,0,0,1-.69-.39,2.27,2.27,0,0,1-.09-.89c0-.78,1.24-.95,1.33-.16Z" style="fill:#452e17"/><path d="M136.58,239.62c0,.16,0,.32-.16.37a.13.13,0,0,1-.15-.07c0-.09,0-.15,0-.24a.16.16,0,0,1,.32-.06Z" style="fill:#fff"/><path d="M145.24,239.09c.07.63.12,1.36-.56,1.44a.71.71,0,0,1-.69-.39,2.27,2.27,0,0,1-.08-.89c0-.78,1.24-.95,1.33-.16Z" style="fill:#452e17"/><path d="M144.92,239.62c0,.16,0,.32-.16.37a.12.12,0,0,1-.14-.07c0-.09,0-.15,0-.24a.16.16,0,0,1,.31-.06Z" style="fill:#fff"/><path d="M146.24,236.81c.06.15,0,0,0,.22s-.18.34-.46.35c-.69,0-2.79.11-2.79.11-.23,0-.2-.13-.11-.21.35-.32.72-.74,2.7-.76C145.9,236.52,146.17,236.61,146.24,236.81Z" style="fill:#003051"/><path d="M134.59,236.81a.55.55,0,0,0-.05.22c0,.21.18.34.46.35.69,0,2.79.11,2.79.11.23,0,.2-.13.11-.21-.35-.32-.72-.74-2.7-.76C134.93,236.52,134.66,236.61,134.59,236.81Z" style="fill:#003051"/><path d="M140.43,240.25s-.8,1.75-.54,2.1,1.19.36,1.19.36" style="fill:none;stroke:#eaa18b;stroke-linecap:round;stroke-miterlimit:10;stroke-width:0.5px"/><path d="M138.3,245.27a4.65,4.65,0,0,0,4.77-.12" style="fill:none;stroke:#c9806f;stroke-linecap:round;stroke-miterlimit:10;stroke-width:0.5px"/><path d="M334.12,321V253.3a.27.27,0,0,0-.27-.27H332.2a.27.27,0,0,0-.27.27V321a1,1,0,0,0-.75.92,1,1,0,0,0,1,1h1.75a1,1,0,0,0,1-1A1,1,0,0,0,334.12,321Z" style="fill:#fff"/><path d="M468.51,321h-.06V253h-2.19v68h-.06a.7.7,0,0,0-.69.7v.55a.7.7,0,0,0,.69.7h2.31a.7.7,0,0,0,.69-.7v-.55A.7.7,0,0,0,468.51,321Z" style="fill:#fff"/><path d="M485.55,253.71H312.8a2,2,0,0,1-2-2h0a2,2,0,0,1,2-2H485.55a2,2,0,0,1,2,2h0A2,2,0,0,1,485.55,253.71Z" style="fill:#9999f1"/><path d="M404.9,247.37H355l-9.87-31a2.42,2.42,0,0,1,2.31-3.15h44.78a2.42,2.42,0,0,1,2.31,1.69Z" style="fill:#5146af"/><path d="M403.9,247.37H356.67l-9.93-31.53a.91.91,0,0,1,.86-1.18h45.25a1,1,0,0,1,1,.72Z" style="fill:#fff"/><path d="M374.14,219.57H352.39a.59.59,0,0,1-.59-.59h0a.59.59,0,0,1,.59-.59h21.75a.6.6,0,0,1,.59.59h0A.6.6,0,0,1,374.14,219.57Z" style="fill:#c2e0f2"/><path d="M377.51,222.28H353.25a.59.59,0,0,1-.59-.59h0a.59.59,0,0,1,.59-.58h24.26a.58.58,0,0,1,.58.58h0A.58.58,0,0,1,377.51,222.28Z" style="fill:#c2e0f2"/><path d="M375.26,225H354.13a.58.58,0,0,1-.58-.59h0a.58.58,0,0,1,.58-.58h21.13a.59.59,0,0,1,.59.58h0A.59.59,0,0,1,375.26,225Z" style="fill:#c2e0f2"/><path d="M371.74,227.7H355a.58.58,0,0,1-.58-.58h0a.58.58,0,0,1,.58-.59h16.75a.59.59,0,0,1,.59.59h0A.59.59,0,0,1,371.74,227.7Z" style="fill:#c2e0f2"/><path d="M380.14,230.42H355.88a.6.6,0,0,1-.59-.59h0a.6.6,0,0,1,.59-.59h24.26a.59.59,0,0,1,.58.59h0A.59.59,0,0,1,380.14,230.42Z" style="fill:#c2e0f2"/><path d="M377.88,233.13H356.75a.59.59,0,0,1-.59-.59h0a.59.59,0,0,1,.59-.58h21.13a.58.58,0,0,1,.58.58h0A.58.58,0,0,1,377.88,233.13Z" style="fill:#c2e0f2"/><path d="M382.74,238.55H358.48a.59.59,0,0,1-.59-.58h0a.59.59,0,0,1,.59-.59h24.26a.58.58,0,0,1,.58.59h0A.58.58,0,0,1,382.74,238.55Z" style="fill:#c2e0f2"/><path d="M383.62,241.27H359.36a.59.59,0,0,1-.58-.59h0a.59.59,0,0,1,.58-.59h24.26a.6.6,0,0,1,.59.59h0A.6.6,0,0,1,383.62,241.27Z" style="fill:#c2e0f2"/><path d="M396.52,241.27h-7.84a1.67,1.67,0,0,1-1.59-1.17l-6.54-20.68a1.67,1.67,0,0,1,1.6-2.17H390a1.67,1.67,0,0,1,1.59,1.16l6.53,20.68A1.67,1.67,0,0,1,396.52,241.27Z" style="fill:#c2e0f2"/><path d="M409.08,249.63H354.85a1.6,1.6,0,0,1-1.6-1.6h0a1.6,1.6,0,0,1,1.6-1.61h54.23a1.61,1.61,0,0,1,1.6,1.61h0A1.6,1.6,0,0,1,409.08,249.63Z" style="fill:#5146af"/><path d="M414.46,208.17a1.2,1.2,0,0,1-1-.6l-1.57-2.76a1.18,1.18,0,0,1-.11-.92,1.16,1.16,0,0,1,.59-.71l4.37-2.31a1.18,1.18,0,0,1,1.59.48l1.5,2.74a1.18,1.18,0,0,1-.48,1.6L415,208A1.19,1.19,0,0,1,414.46,208.17Zm2.8-6.89a.59.59,0,0,0-.29.07l-4.38,2.31a.61.61,0,0,0-.31.39.64.64,0,0,0,.05.49h0l1.58,2.76a.64.64,0,0,0,.85.25l4.3-2.34a.63.63,0,0,0,.26-.86l-1.5-2.74A.63.63,0,0,0,417.26,201.28Z" style="fill:#1a1a47"/><path d="M406.23,232.28c-.36.45-.64.74-.64.74a22.12,22.12,0,0,0-3.36-2.18,10.57,10.57,0,0,0-3.18.44c-1.43.3-.83-.87-.83-.87s-1,.34-1.81.68-2,1.19-2.26,1.26c-.55.14-1.09-.14-.58-.91a26.87,26.87,0,0,1,5-4.67c1.09-.52,2.58-1.28,3.78-.83a41.26,41.26,0,0,1,5.09,3.36A4.91,4.91,0,0,1,406.23,232.28Z" style="fill:#f7b59c"/><path d="M405.19,233s12.9,11.28,22.55,12.43,25.93-17.16,25.93-17.16-1-9.76-7.05-8.61S432.54,235.33,429.05,236s-21.67-7-21.67-7a4.82,4.82,0,0,0-1.13,1.39A12.44,12.44,0,0,0,405.19,233Z" style="fill:#9ca2f2"/><path d="M433.87,189c-3.07-3.52-7.62-3.9-11.13-3.51a11.62,11.62,0,0,0-9.94,8.06,10.26,10.26,0,0,0,.21,6.63c2.86,7.91,5.9,12.27,8.24,14.41,1,1,3.2-.34,5.38-1.1a.62.62,0,0,1,.75.28l1.24,2.3,9-1.83a32.38,32.38,0,0,1-1.9-5.22C436.89,207.49,439.5,195.39,433.87,189Z" style="fill:#f7b59c"/><path d="M417.52,200.24a2.31,2.31,0,0,1,2.35,1.38c.67,1.58,1.69,3.79,2.5,4.51a.82.82,0,0,0,.89,0,.69.69,0,0,0,.41-.69,18.93,18.93,0,0,0-.94-3.15,2.13,2.13,0,0,1,1.6-2.94,3.73,3.73,0,0,1,1.31.08c2.4.73.75,4.48.7,6.44,0,1.38,1.62,4.58,2.35,4.87a7.51,7.51,0,0,0,8-2.3c1.93-2.38,2.35-10.36,1.3-15.14s-4.88-7.46-6.14-7.77a4.7,4.7,0,0,0-1.5-.12,1.4,1.4,0,0,1-1.06-.34c-1.27-1.11-5.07-3.64-11.08-1a14,14,0,0,0-8.63,13.3c.09,2,1.69,1.89,2.8,1.53a1.9,1.9,0,0,1,1.77.38A4.49,4.49,0,0,0,417.52,200.24Z" style="fill:#0b0b3a"/><path d="M427.07,217.25s-.8-.89-.49-1.44,4.45-3.9,9.2-3.73c.74,0,1.65,0,2.53,2a13.93,13.93,0,0,1,1.1,3.21Z" style="fill:#9ca2f2"/><path d="M448.26,274.78l-.92.2a79,79,0,0,1-10.61.84c-12.94-.23-18.69-7.21-20.79-10.81a12.86,12.86,0,0,1-1-2.11,11.89,11.89,0,0,0,4.3-5.94c1-3.21,0-10.87-1.72-13.79-.92-1.6-3.65-4.85-5.36-8.27-1.4-2.82-2.12-5.76-.59-8a28.82,28.82,0,0,1,9.81-8.56s11-4.41,20.4-3.41c5.95.63,11.25,3.43,12.67,10.92C458.07,245.15,448.26,274.78,448.26,274.78Z" style="fill:#b0b2ff"/><path d="M421.18,313a4.27,4.27,0,0,1-2.33,1.31,4.16,4.16,0,0,1-2.71-.5l-.72-2.08,5-1.08Z" style="fill:#f7b59c"/><path d="M395.15,315.57a4.29,4.29,0,0,1-2.51.93,4.12,4.12,0,0,1-2.59-.93l-.38-2.16h5.1Z" style="fill:#f7b59c"/><path d="M421.18,310.65c-.33.15-1.32.56-1.68.68a45,45,0,0,1-4.55,1.18c-4.27-9.23-11.24-32.46-11.24-32.46-1-4.11,2-5.77,4.52-5.92a5.45,5.45,0,0,1,2.37.34c2.45,1,6,8,6,8a42.24,42.24,0,0,1,2.24,7.36C420,294.76,421.18,310.65,421.18,310.65Z" style="fill:#1a1a47"/><path d="M430.82,275.18c0,2.34-.65,6.06-4.15,7.12-5.22,1.56-9.08.67-15.13-.37-5.07-.87-13.08-3.84-15.53-4.77-.32-.12-.26,0-.2.37,1.16,5.66-.71,36.23-.71,36.23a14.05,14.05,0,0,1-1.73.4,7,7,0,0,1-1,.09c-1.31,0-3.73-.25-3.73-.25s-4.64-21.53-5.38-33.58,0-13.91,5.72-15.9c6.36-2.21,25.93-1.62,25.93-1.62h0a18.79,18.79,0,0,0,5.51,7.38A23.2,23.2,0,0,0,430.82,275.18Z" style="fill:#3d3d72"/><path d="M436.74,287.43v30.95a2,2,0,0,1-2,2,1.94,1.94,0,0,1-1.18-.39,2,2,0,0,1-.82-1.6V287.43Z" style="fill:#94c1f7"/><path d="M436.74,288.78v29.51a2.13,2.13,0,0,1-1.72,2.06,2,2,0,0,1-1.28-.24l-.2-.38V289.6a.82.82,0,0,1,.82-.82Z" style="fill:#b5d0ff"/><path d="M439.27,286.4a1.47,1.47,0,0,1-.06.42,1.73,1.73,0,0,1-1.67,1.3H431.6a1.73,1.73,0,0,1-1.22-2.94,1.74,1.74,0,0,1,1.22-.51h5.94A1.72,1.72,0,0,1,439.27,286.4Z" style="fill:#94c1f7"/><path d="M439.21,286.82a1.73,1.73,0,0,1-1.67,1.3h-5.69a1.71,1.71,0,0,1,1.67-1.3Z" style="fill:#b5d0ff"/><path d="M460.45,232.41s0,0,0,.05a3.64,3.64,0,0,1-.1.59c-.48,2-2.19,6-2.44,11.9-.16,3.64,0,13.3-.18,19.14h0c0,.87-.05,1.65-.09,2.32-.31,5.17-2.08,12.83-7.47,16.71-5.48,4.11-16.51,3.4-23.21,3.25s-23.27-3.18-24.6-5.64a2.12,2.12,0,0,1-.31-1.42v0a1.67,1.67,0,0,1,.51-.95,2.58,2.58,0,0,1,2.44-.61c2.71.68,10.75,2.23,14.37-2.36,4.38-5.55,3.83-12,5.71-25.5,1.77-12.8,5.76-16.73,12.37-19.28,7.06-2.72,18.41-1.56,21.25-.7A2.41,2.41,0,0,1,460.45,232.41Z" style="fill:#cfe3ff"/><path d="M457.9,322.19a.74.74,0,0,1-.73.74H412.31a.74.74,0,0,1-.12-1.46l22.55-3.65,5.67.92,16.87,2.73A.74.74,0,0,1,457.9,322.19Z" style="fill:#b5d0ff"/><path d="M390.05,315.57a8.16,8.16,0,0,0,2.57.54,6.17,6.17,0,0,0,2.54-.54s2.61,3.33,1.22,7a.5.5,0,0,1-.47.32H378.39a.4.4,0,0,1-.4-.38,1.48,1.48,0,0,1,1.23-1.45c1.62-.49,3.29-.77,4.54-1.21s3.05-2.28,4.06-2.62A5.43,5.43,0,0,0,390.05,315.57Z" style="fill:#1a1a47"/><path d="M416.14,313.81a8.39,8.39,0,0,0,2.63.12,6.15,6.15,0,0,0,2.42-.93s3.11,2.87,2.32,6.75a.5.5,0,0,1-.41.39s-9.25,2.07-12.37,2.52a43.55,43.55,0,0,1-4.93.28.42.42,0,0,1-.45-.33,1.45,1.45,0,0,1,1-1.62c1.52-.75,3.12-1.28,4.29-1.92s2.65-2.74,3.59-3.23A5.49,5.49,0,0,0,416.14,313.81Z" style="fill:#1a1a47"/><path d="M381,247.94s-1.79-.75-2.73-1.08a8.73,8.73,0,0,0-1-.29,5.1,5.1,0,0,0-1.23-.14H365.77a.53.53,0,0,1-.53-.53,1.19,1.19,0,0,1,.53-1l1.1-.7,3.27-2.12a6.4,6.4,0,0,1,4.73-.94,19.66,19.66,0,0,1,2,.7c1.91.63,2.32.92,3.6,1.37a9,9,0,0,0,1.07.33,1,1,0,0,0,.43,0A6.14,6.14,0,0,1,381,247.94Z" style="fill:#f7b59c"/><path d="M420.94,223.55c-1.34-.82-5.38-3.07-10.6,5.07s-6.82,11.6-8.32,14.13c-1.83,1.1-20.21.63-20.21.63a16.4,16.4,0,0,0-1.33,4.56,67,67,0,0,0,22.72,5.77c10,0,20.37-19.61,20.84-22.06S424.14,225.5,420.94,223.55Z" style="fill:#b0b2ff"/><path d="M412.48,206.3a.27.27,0,0,1-.12-.51l10.16-5.21c1.15-.59,3.51-1.8,5.26.76a.27.27,0,0,1-.08.38.27.27,0,0,1-.38-.07c-1.36-2-3-1.39-4.53-.6l-10.18,5.22A.31.31,0,0,1,412.48,206.3Z" style="fill:#1a1a47"/><path d="M422.5,201.11l1.34,4.28a1.36,1.36,0,0,0,2.05-.14c1-1.16,1.88-5.19,0-5.86A2.42,2.42,0,0,0,422.5,201.11Z" style="fill:#f7b59c"/><path d="M460.05,230.89v0a2.5,2.5,0,0,0-1.34-1c-2.84-.86-14.19-2-21.25.7-6.61,2.55-10.6,6.48-12.37,19.28-1.88,13.53-1.33,19.95-5.71,25.5-3.62,4.59-11.66,3-14.37,2.36a2.58,2.58,0,0,0-2.44.61,1.71,1.71,0,0,0-.52,1,2.12,2.12,0,0,0,.31,1.42c1.33,2.46,17.91,5.48,24.6,5.64s17.73.86,23.21-3.25c5.39-3.88,7.16-11.54,7.47-16.71,0-.67.06-1.45.09-2.32-.11.47-3.82,10.91-16.86,8.51-12.57-2.32-13.72-16.11-13.27-20.74.06-.51.12-1,.18-1.45.11-.86.8-4.5,1.66-7.67a15.48,15.48,0,0,1,4.95-7.69,7.48,7.48,0,0,1,1.19-.71l.41-.23c.19-.11.39-.2.62-.31l.65-.28.49-.19c10.22-4,21.2-1.41,21.92-1.3S460.09,231.08,460.05,230.89Z" style="fill:#94c1f7;opacity:0.5"/><path d="M181.78,330.17l1.12-3s17.77.84,26.2,6.08l-16,.3Z" style="fill:#e1efff"/><path d="M236.42,330.17l-1.12-3s-17.77.84-26.2,6.08l16,.3Z" style="fill:#e1efff"/><path d="M209.1,333.27c-9.63-3.73-28.24-4-28.24-4v6.34h56.48v-6.34S218.73,329.54,209.1,333.27Z" style="fill:#cce1ff"/><rect x="178.68" y="333.85" width="60.84" height="2.15" style="fill:#7878ff"/><path d="M363.11,103.92l5.35-3.52a7.1,7.1,0,0,0,3.86,1.13h25.81a7.17,7.17,0,0,0,7.18-7.17V86.24a7.17,7.17,0,0,0-7.18-7.17H372.32a7.17,7.17,0,0,0-7.17,7.17v8.12a7.1,7.1,0,0,0,1.23,4Zm9.19-7a.65.65,0,0,1,.64-.65h24.83a.65.65,0,0,1,0,1.29H372.94A.64.64,0,0,1,372.3,96.92Zm25.47-2.72H384.65a.64.64,0,1,1,0-1.28h13.12a.64.64,0,1,1,0,1.28Zm-25.47-4a.64.64,0,0,1,.64-.64h24.83a.65.65,0,0,1,0,1.29H372.94A.65.65,0,0,1,372.3,90.2Zm25.47-2.71H379.45a.65.65,0,0,1,0-1.29h18.32a.65.65,0,0,1,0,1.29Zm-25.47-4a.64.64,0,0,1,.64-.64h24.83a.65.65,0,0,1,0,1.29H372.94A.65.65,0,0,1,372.3,83.49Z" style="fill:#b5d0ff"/><line x1="140.43" y1="169" x2="134.43" y2="169" style="fill:none;stroke:#9acee2;stroke-linecap:round;stroke-miterlimit:10"/><path d="M129.61,169H103.18a3,3,0,0,0-3,3V285.9" style="fill:none;stroke:#9acee2;stroke-linecap:round;stroke-miterlimit:10;stroke-dasharray:11.565607070922852,4.819002628326416"/><path d="M100.49,288.25a3,3,0,0,0,2.69,1.64h2.7" style="fill:none;stroke:#9acee2;stroke-linecap:round;stroke-miterlimit:10"/><line x1="402.34" y1="130.54" x2="408.34" y2="130.54" style="fill:none;stroke:#9acee2;stroke-linecap:round;stroke-miterlimit:10"/><path d="M413.41,130.54h60.23a5.32,5.32,0,0,1,5.32,5.32V229a5.32,5.32,0,0,1-4.92,5.3" style="fill:none;stroke:#9acee2;stroke-linecap:round;stroke-miterlimit:10;stroke-dasharray:12.15257740020752,5.063573837280273"/><line x1="471.51" y1="234.29" x2="465.51" y2="234.29" style="fill:none;stroke:#9acee2;stroke-linecap:round;stroke-miterlimit:10"/><path d="M206.68,59.55h42.95a8.69,8.69,0,0,1,8.69,8.69v41" style="fill:none;stroke:#9acee2;stroke-linecap:round;stroke-miterlimit:10;stroke-dasharray:12,5"/><path d="M338,241.7a13.86,13.86,0,0,1-6.07-8.65s4.7,1,7.05,8.65" style="fill:#fff"/><path d="M340,241.7a13.86,13.86,0,0,0,6.06-8.65s-4.69,1-7,8.65" style="fill:#fff"/><path d="M338.46,241.23A13.86,13.86,0,0,1,335.92,231s4,2.61,3.46,10.62" style="fill:#fff"/><path d="M339.62,241.25a13.86,13.86,0,0,0,2.29-10.32s-4,2.7-3.2,10.7" style="fill:#fff"/><rect x="333.43" y="240.54" width="10.87" height="9.09" style="fill:#cfe3ff"/><rect x="333.43" y="240.54" width="3.23" height="9.09" style="fill:#94c1f7;opacity:0.5"/><g style="opacity:0.5"><polyline points="444.43 186.1 439.52 188.72 441.97 182.33" style="fill:#389fe5"/><path d="M459.68,177.93a10.39,10.39,0,1,1-10.39-10.39A10.39,10.39,0,0,1,459.68,177.93Z" style="fill:#389fe5"/></g><polyline points="444.92 176.94 448.07 180.87 453.67 175" style="fill:none;stroke:#fff;stroke-linecap:round;stroke-linejoin:round;stroke-width:1.3800700000000001px"/><g style="opacity:0.5"><polyline points="122.09 220.25 127 222.87 124.55 216.48" style="fill:#389fe5"/><path d="M106.84,212.07a10.39,10.39,0,1,0,10.39-10.38A10.39,10.39,0,0,0,106.84,212.07Z" style="fill:#389fe5"/></g><polyline points="112.85 211.09 116 215.01 121.6 209.14" style="fill:none;stroke:#fff;stroke-linecap:round;stroke-linejoin:round;stroke-width:1.3800700000000001px"/><rect x="411.45" y="79.57" width="43.01" height="43.54" rx="1.77" style="fill:#fff"/><g style="opacity:0.5"><path d="M444.16,99.06a12.41,12.41,0,0,1-2.39,7.33,11.64,11.64,0,0,1-1.11,1.31h0a10.89,10.89,0,0,1-1.07,1,11.78,11.78,0,0,1-1.77,1.21,11.21,11.21,0,0,1-1.53.72,12.17,12.17,0,0,1-3.78.84l-.75,0A12.42,12.42,0,0,1,428.88,87l.11,0a9.25,9.25,0,0,1,1.21-.22,13,13,0,0,1,1.54-.1,12.41,12.41,0,0,1,10.93,6.53c.14.27.27.53.39.81A12.21,12.21,0,0,1,444.16,99.06Z" style="fill:#9999f1"/><g style="opacity:0.5;mix-blend-mode:screen"><path d="M434.86,110.06c.09.63-.67,1-1.28,1.14l-1.09.26-.76,0a12.4,12.4,0,0,1-7.82-2.77,1.84,1.84,0,0,1,0-.33,5.75,5.75,0,0,1,.26-1.4,6,6,0,0,0,.17-1.19.58.58,0,0,0-.09-.41.78.78,0,0,0-.33-.19,1.59,1.59,0,0,1-.93-1.84c.6-1.49,2.72-1,1.32-4.71-.3-.79.34-1,.29-1.21-.12-.5-2-.36-2.46-.44a1.79,1.79,0,0,1-.94-.31,1.52,1.52,0,0,1-.32-.51,6.92,6.92,0,0,1-.49-2.09A12.44,12.44,0,0,1,429,86.94l0,.41q-.19,2.12-.27,4.23a2.33,2.33,0,0,1-.11.74,1.31,1.31,0,0,1-1.36.7.91.91,0,0,0-.59,0c-.29.17-.22.59-.26.92-.08.56-.58,1-.93,1.4s-.48,1.23,0,1.51c.13.06.29.1.36.22s0,.38-.2.49a2,2,0,0,0-.48.32.78.78,0,0,0,.21,1,9,9,0,0,1,.89.72c.3.37.37.91.71,1.25.81.84,2.48,0,3.31.79.43.43.43,1.14.81,1.6a3.64,3.64,0,0,0,.91.69,3,3,0,0,1,1.23,2.22c.05.93-.3,2,.34,2.7C434,109.3,434.78,109.48,434.86,110.06Z" style="fill:#81a8cc"/></g><g style="opacity:0.5;mix-blend-mode:screen"><path d="M442.67,93.17a3.28,3.28,0,0,0-.63,0,.31.31,0,0,0-.21.09.45.45,0,0,0-.06.36,1.38,1.38,0,0,1-.47,1.09.45.45,0,0,1-.21.12c-.23,0-.39-.23-.47-.46-.23-.59-.46-1.19-.68-1.78a1.1,1.1,0,0,0-.3-.5c-.28-.21-.7-.11-1-.3s-.53-.84-.94-.73-.34.55-.23.87.23.74,0,1-.71,0-.92-.3-.38-.66-.72-.79-1,.26-1.24.71-.51,1-1,1.14a5.57,5.57,0,0,0-.73.19c-.46.26-.44.92-.28,1.42a2.12,2.12,0,0,1,.15,1.53.41.41,0,0,1-.2.21c-.21.08-.41-.11-.54-.28A19,19,0,0,1,430,93.7a1.22,1.22,0,0,1-.18-.68,1.66,1.66,0,0,1,.14-.43,9,9,0,0,0,.08-1.56c.11-.88.82-1.7.54-2.54a7.17,7.17,0,0,0-.47-.86.76.76,0,0,1,.05-.9,12.83,12.83,0,0,1,1.53-.09A12.42,12.42,0,0,1,442.67,93.17Z" style="fill:#81a8cc"/></g><g style="opacity:0.5;mix-blend-mode:screen"><path d="M444.16,99.06a12.41,12.41,0,0,1-2.39,7.33h0a.69.69,0,0,1,0-.25,2.18,2.18,0,0,1,.16-.88c.09-.16.22-.31.31-.47a2.44,2.44,0,0,0,.14-1.42,1.16,1.16,0,0,0-.24-.72c-.11-.11-.27-.18-.38-.29a1.31,1.31,0,0,1-.13-1.12c.07-.38,0-.87-.33-1a13,13,0,0,1-1.46,1.68.65.65,0,0,0-.83-.66.93.93,0,0,0-.58,1c-.36,0-.44-.5-.39-.86.08-.6.17-1.21.25-1.82-.39-.17-.68.46-1.1.55s-.68-.27-.72-.63a1.9,1.9,0,0,1,.28-1l.56-1.14a2.55,2.55,0,0,1,1-1.27,2.91,2.91,0,0,1,2,.07,2,2,0,0,0,1.89-.24,2.1,2.1,0,0,0,.45-1.07c.07-.33.16-.71.47-.84h0A12.17,12.17,0,0,1,444.16,99.06Z" style="fill:#81a8cc"/></g><path d="M441.2,107.1a7.7,7.7,0,0,1-.54.6h0a10.89,10.89,0,0,1-1.07,1,11.78,11.78,0,0,1-1.77,1.21,11.21,11.21,0,0,1-1.53.72,12.17,12.17,0,0,1-3.78.84l-.75,0A12.42,12.42,0,0,1,428.88,87l.11,0a9.25,9.25,0,0,1,1.21-.22h.06a12.12,12.12,0,0,0-2.89,4,11.93,11.93,0,0,0,10.92,16.72c.25,0,.49,0,.73,0A10.44,10.44,0,0,0,441.2,107.1Z" style="fill:#9999f1;opacity:0.30000000000000004;mix-blend-mode:multiply"/><path d="M447,99a15.28,15.28,0,0,0-15.28-15.29.8.8,0,1,0,0,1.6,13.69,13.69,0,1,1-10.6,22.36.79.79,0,0,0-1.41.42.83.83,0,0,0,.17.59,15.2,15.2,0,0,0,10.89,5.57v2.67h-4.62a1,1,0,0,0,0,2h11.23a1,1,0,0,0,0-2h-4.62v-2.69A15.29,15.29,0,0,0,447,99Z" style="fill:#7878ff"/></g><path d="M215,291.63a4.19,4.19,0,1,1-4.69-3.61A4.19,4.19,0,0,1,215,291.63Z" style="fill:#9999f1"/><polyline points="209.06 292.6 210.9 293.98 212.7 290.74" style="fill:none;stroke:#fff;stroke-linecap:round;stroke-linejoin:round;stroke-width:1.0564px"/><path d="M226.29,71.35A4.19,4.19,0,1,1,221,68.67,4.19,4.19,0,0,1,226.29,71.35Z" style="fill:#9999f1"/><polyline points="220.62 73.41 222.68 74.42 223.85 70.91" style="fill:none;stroke:#fff;stroke-linecap:round;stroke-linejoin:round;stroke-width:1.0564px"/><path d="M451.49,149a6.4,6.4,0,1,1-5.92-6.86A6.41,6.41,0,0,1,451.49,149Z" style="fill:#9999f1"/><polyline points="442.27 148.57 444.61 151.19 448.3 146.91" style="fill:none;stroke:#fff;stroke-linecap:round;stroke-linejoin:round;stroke-width:1.6155300000000001px"/><path d="M431.84,148.25a1.54,1.54,0,1,1-1.54-1.54A1.54,1.54,0,0,1,431.84,148.25Z" style="fill:#9999f1"/><path d="M380,42.35a1.54,1.54,0,1,1-1.54-1.54A1.54,1.54,0,0,1,380,42.35Z" style="fill:#9999f1;opacity:0.30000000000000004"/><path d="M129.19,182.75a2.46,2.46,0,1,1-2.45-2.46A2.46,2.46,0,0,1,129.19,182.75Z" style="fill:#9999f1"/><path d="M502.7,207.62a3.78,3.78,0,1,1-3.78-3.78A3.78,3.78,0,0,1,502.7,207.62Z" style="fill:#9999f1;opacity:0.30000000000000004"/><path d="M89.47,155.42a3.78,3.78,0,1,1-3.78-3.78A3.78,3.78,0,0,1,89.47,155.42Z" style="fill:#9999f1;opacity:0.30000000000000004"/><path d="M471.66,241.7a2.46,2.46,0,1,1-2.46-2.46A2.46,2.46,0,0,1,471.66,241.7Z" style="fill:#9999f1;opacity:0.30000000000000004"/><path d="M279.89,51.25a2.46,2.46,0,1,1-2.46-2.46A2.46,2.46,0,0,1,279.89,51.25Z" style="fill:#9999f1;opacity:0.30000000000000004"/><path d="M325.63,38.92a2.46,2.46,0,1,1-2.46-2.46A2.46,2.46,0,0,1,325.63,38.92Z" style="fill:#9999f1;opacity:0.2"/><path d="M82.69,122.16a.49.49,0,0,1-.5-.49v-3.46a.5.5,0,0,1,1,0v3.46A.49.49,0,0,1,82.69,122.16Z" style="fill:#9999f1"/><path d="M84.42,120.43H81a.49.49,0,0,1,0-1h3.47a.49.49,0,0,1,0,1Z" style="fill:#9999f1"/><g style="opacity:0.30000000000000004"><path d="M109.87,35.11a.49.49,0,0,1-.49-.5V31.15a.49.49,0,1,1,1,0v3.46A.49.49,0,0,1,109.87,35.11Z" style="fill:#9999f1"/><path d="M111.6,33.37h-3.47a.49.49,0,1,1,0-1h3.47a.49.49,0,0,1,0,1Z" style="fill:#9999f1"/></g><path d="M398.08,76.56a.49.49,0,0,1-.5-.49V72.61a.5.5,0,0,1,1,0v3.46A.49.49,0,0,1,398.08,76.56Z" style="fill:#9999f1"/><path d="M399.81,74.83h-3.47a.49.49,0,0,1,0-1h3.47a.49.49,0,0,1,0,1Z" style="fill:#9999f1"/><path d="M504.92,259.43a.49.49,0,0,1-.49-.49v-3.46a.5.5,0,0,1,1,0v3.46A.49.49,0,0,1,504.92,259.43Z" style="fill:#9999f1"/><path d="M506.66,257.7h-3.47a.49.49,0,0,1,0-1h3.47a.49.49,0,0,1,0,1Z" style="fill:#9999f1"/><path d="M389.35,120.89v26.42a.8.8,0,0,1-.81.8H362.41a.8.8,0,0,1-.8-.8V120.89a.8.8,0,0,1,.8-.8h26.13A.8.8,0,0,1,389.35,120.89Z" style="fill:#fff"/><path d="M389.35,142.35v5a.8.8,0,0,1-.81.8h-13l.55-5.76,6.1-6.74Z" style="fill:#9999f1"/><path d="M385.72,148.11H362.41a.8.8,0,0,1-.8-.8v-5l9.12-9.57Z" style="fill:#8787dd"/><path d="M385.68,127.67a3.22,3.22,0,1,1-3.22-3.22A3.22,3.22,0,0,1,385.68,127.67Z" style="fill:#9999f1"/><rect x="361.61" y="150.2" width="27.74" height="2.45" rx="0.79" style="fill:#fff"/><rect x="361.61" y="154.56" width="27.74" height="2.45" rx="0.79" style="fill:#fff"/></g></svg>