<svg xmlns="http://www.w3.org/2000/svg" xmlns:xlink="http://www.w3.org/1999/xlink" viewBox="0 0 544 362"><defs><linearGradient id="a" x1="262.39" y1="252.3" x2="262.39" y2="284.34" gradientTransform="translate(-8.84 18.57) rotate(-2.27)" gradientUnits="userSpaceOnUse"><stop offset="0.37" stop-color="#86cf94"/><stop offset="0.99" stop-color="#008166"/></linearGradient><linearGradient id="b" x1="266.58" y1="79.94" x2="268.37" y2="79.94" gradientUnits="userSpaceOnUse"><stop offset="0" stop-color="#f7941e"/><stop offset="1" stop-color="#f7941e" stop-opacity="0"/></linearGradient></defs><title>flexible-time-schedule</title><g style="isolation:isolate"><rect width="544" height="362" style="fill:#f7f7f7"/><path d="M89.72,318.87s-28-38,13.37-72.59C119.72,232.37,184.41,222.57,130,145,98,99.35,144.49,32.9,218.64,75.09c63.09,35.91,107-40.56,162.85-45.63C424,25.6,449.54,78,423.9,118.75c-28.76,45.71,26.08,38,38,53.17,21,26.64-47.13,58.27-15.88,92.11,31.83,34.47,10,54.84,10,54.84Z" style="fill:#bde7ff;opacity:0.6000000000000001"/><path d="M406.37,320H79.17A1.17,1.17,0,0,1,78,318.78h0a1.17,1.17,0,0,1,1.17-1.17h327.2a1.17,1.17,0,0,1,1.17,1.17h0A1.17,1.17,0,0,1,406.37,320Z" style="fill:#91d1e2"/><path d="M459.54,320H410.28a1.17,1.17,0,0,1-1.17-1.17h0a1.17,1.17,0,0,1,1.17-1.17h49.26a1.17,1.17,0,0,1,1.17,1.17h0A1.17,1.17,0,0,1,459.54,320Z" style="fill:#91d1e2"/><path d="M273.38,326.18H133.1a1.17,1.17,0,0,1-1.17-1.17h0a1.17,1.17,0,0,1,1.17-1.17H273.38a1.17,1.17,0,0,1,1.17,1.17h0A1.17,1.17,0,0,1,273.38,326.18Z" style="fill:#91d1e2;opacity:0.5"/><path d="M372.8,326.18H279a1.17,1.17,0,0,1-1.17-1.17h0a1.18,1.18,0,0,1,1.17-1.17H372.8A1.17,1.17,0,0,1,374,325h0A1.17,1.17,0,0,1,372.8,326.18Z" style="fill:#91d1e2;opacity:0.5"/><path d="M356.22,332.74H188.09a1.17,1.17,0,0,1-1.17-1.17h0a1.17,1.17,0,0,1,1.17-1.17H356.22a1.18,1.18,0,0,1,1.17,1.17h0A1.17,1.17,0,0,1,356.22,332.74Z" style="fill:#91d1e2;opacity:0.25"/><path d="M400.55,332.74H362.42a1.17,1.17,0,0,1-1.17-1.17h0a1.18,1.18,0,0,1,1.17-1.17h38.13a1.18,1.18,0,0,1,1.17,1.17h0A1.17,1.17,0,0,1,400.55,332.74Z" style="fill:#91d1e2;opacity:0.25"/><path d="M407.81,125.6v-8.89H404a29.76,29.76,0,0,0-5.52-13.33l2.68-2.68-6.28-6.28-2.68,2.68a29.87,29.87,0,0,0-13.33-5.52V87.79H370v3.79a29.76,29.76,0,0,0-13.33,5.52L354,94.42l-6.28,6.28,2.68,2.68a29.76,29.76,0,0,0-5.52,13.33h-3.79v8.89h3.79a29.87,29.87,0,0,0,5.52,13.33l-2.68,2.68,6.28,6.28,2.68-2.68A29.76,29.76,0,0,0,370,150.73v3.79h8.89v-3.79a29.69,29.69,0,0,0,13.32-5.53l2.69,2.69,6.28-6.28-2.69-2.68A29.78,29.78,0,0,0,404,125.6Zm-11-6.67a22.48,22.48,0,1,1-19.46-20.07A22.49,22.49,0,0,1,396.81,118.93Z" style="fill:#025aa2"/><circle cx="374.44" cy="121.15" r="15.57" transform="translate(24 300.26) rotate(-45)" style="fill:#025aa2"/><path d="M427.92,96.48V92.85h-1.55a12.17,12.17,0,0,0-2.25-5.45l1.09-1.09-2.56-2.57-1.1,1.1a12.07,12.07,0,0,0-5.45-2.26V81h-3.63v1.55A12.07,12.07,0,0,0,407,84.84l-1.1-1.1-2.56,2.57,1.09,1.09a12.17,12.17,0,0,0-2.25,5.45h-1.55v3.63h1.55a12.17,12.17,0,0,0,2.25,5.45l-1.09,1.1,2.56,2.57,1.1-1.1a12.18,12.18,0,0,0,5.45,2.26v1.55h3.63v-1.55a12.18,12.18,0,0,0,5.45-2.26l1.1,1.1,2.56-2.57-1.09-1.1a12.17,12.17,0,0,0,2.25-5.45Zm-4.49-2.72a9.19,9.19,0,1,1-8-8.2A9.19,9.19,0,0,1,423.43,93.76Z" style="fill:#fff"/><path d="M420.65,94.67a6.37,6.37,0,1,1-6.37-6.37A6.37,6.37,0,0,1,420.65,94.67Z" style="fill:#fff"/><g style="opacity:0.5"><path d="M157.36,265a17.87,17.87,0,0,0-14.26-7.1,17.87,17.87,0,0,0,0,35.74,17.87,17.87,0,0,0,14.68-7.69l-14.68-10.18Z" style="fill:#fff"/><path d="M161.55,265l-14.24,10.77L162,285.9a17.81,17.81,0,0,0-.44-20.95Z" style="fill:#fff"/></g><g style="opacity:0.7000000000000001"><path d="M151.67,134.77a24.66,24.66,0,1,1,24.66-24.66A24.68,24.68,0,0,1,151.67,134.77Zm0-45.52a20.86,20.86,0,1,0,20.86,20.86A20.88,20.88,0,0,0,151.67,89.25Z" style="fill:#ace2f9"/><path d="M166.75,110.11h0a1.25,1.25,0,0,1,1.24-1.25h2.15a1.25,1.25,0,0,1,1.24,1.25h0a1.25,1.25,0,0,1-1.24,1.25H168A1.25,1.25,0,0,1,166.75,110.11Z" style="fill:#ace2f9"/><path d="M132,110.11h0a1.25,1.25,0,0,1,1.25-1.25h2.14a1.25,1.25,0,0,1,1.25,1.25h0a1.26,1.26,0,0,1-1.25,1.25h-2.14A1.26,1.26,0,0,1,132,110.11Z" style="fill:#ace2f9"/><path d="M151.67,125.18h0a1.25,1.25,0,0,1,1.25,1.25v2.14a1.25,1.25,0,0,1-1.25,1.25h0a1.26,1.26,0,0,1-1.25-1.25v-2.14A1.26,1.26,0,0,1,151.67,125.18Z" style="fill:#ace2f9"/><path d="M151.67,90.4h0a1.25,1.25,0,0,1,1.25,1.24v2.14A1.25,1.25,0,0,1,151.67,95h0a1.26,1.26,0,0,1-1.25-1.25V91.64A1.25,1.25,0,0,1,151.67,90.4Z" style="fill:#ace2f9"/><path d="M141,120.77h0a1.24,1.24,0,0,1,0,1.76l-1.51,1.52a1.27,1.27,0,0,1-1.77,0h0a1.27,1.27,0,0,1,0-1.77l1.52-1.51A1.24,1.24,0,0,1,141,120.77Z" style="fill:#ace2f9"/><path d="M165.61,96.17h0a1.24,1.24,0,0,1,0,1.76l-1.51,1.52a1.27,1.27,0,0,1-1.77,0h0a1.27,1.27,0,0,1,0-1.77l1.51-1.51A1.25,1.25,0,0,1,165.61,96.17Z" style="fill:#ace2f9"/><path d="M141,99.45h0a1.26,1.26,0,0,1-1.76,0l-1.52-1.52a1.26,1.26,0,0,1,0-1.76h0a1.25,1.25,0,0,1,1.77,0L141,97.68A1.25,1.25,0,0,1,141,99.45Z" style="fill:#ace2f9"/><path d="M165.61,124.05h0a1.27,1.27,0,0,1-1.77,0l-1.51-1.52a1.26,1.26,0,0,1,0-1.76h0a1.25,1.25,0,0,1,1.77,0l1.51,1.51A1.25,1.25,0,0,1,165.61,124.05Z" style="fill:#ace2f9"/><path d="M153.71,110.11a2,2,0,1,1-2-2A2,2,0,0,1,153.71,110.11Z" style="fill:#ace2f9"/><path d="M151.67,107.55h0a.39.39,0,0,1-.39-.39V96.73a.39.39,0,0,1,.39-.4h0a.4.4,0,0,1,.4.4v10.43A.4.4,0,0,1,151.67,107.55Z" style="fill:#ace2f9"/><path d="M154.49,110.11h0a.39.39,0,0,1,.39-.4h6.89a.4.4,0,0,1,.4.4h0a.39.39,0,0,1-.4.39h-6.89A.38.38,0,0,1,154.49,110.11Z" style="fill:#ace2f9"/></g><path d="M417.65,180.24h-3v-3a.87.87,0,1,0-1.73,0v3h-3a.87.87,0,0,0,0,1.74h3v3a.87.87,0,1,0,1.73,0v-3h3a.87.87,0,1,0,0-1.74Z" style="fill:#11afd3;opacity:0.5"/><path d="M148.33,245.41h-3v-3a.87.87,0,1,0-1.73,0v3h-3a.87.87,0,1,0,0,1.73h3v3a.87.87,0,1,0,1.73,0v-3h3a.87.87,0,1,0,0-1.73Z" style="fill:#fff"/><path d="M103.15,306h-1.94v-1.95a.57.57,0,0,0-1.14,0V306H98.13a.56.56,0,0,0-.57.57.57.57,0,0,0,.57.57h1.94v1.94a.57.57,0,1,0,1.14,0v-1.94h1.94a.57.57,0,0,0,.57-.57A.56.56,0,0,0,103.15,306Z" style="fill:#fff"/><path d="M171.05,48.7h-3v-3a.87.87,0,0,0-1.74,0v3h-3a.87.87,0,1,0,0,1.73h3v3a.87.87,0,1,0,1.74,0v-3h3a.87.87,0,1,0,0-1.73Z" style="fill:#11afd3;opacity:0.5"/><path d="M216.12,257h-3v-3a.87.87,0,0,0-1.74,0v3h-3a.87.87,0,0,0,0,1.74h3v3a.87.87,0,0,0,1.74,0v-3h3a.87.87,0,0,0,0-1.74Z" style="fill:#fff;opacity:0.8"/><path d="M319.76,47.75h-3v-3a.87.87,0,1,0-1.73,0v3h-3a.87.87,0,1,0,0,1.73h3v3a.87.87,0,1,0,1.73,0v-3h3a.87.87,0,1,0,0-1.73Z" style="fill:#025aa2"/><path d="M234.11,60.55h-1.68V58.86a.5.5,0,0,0-1,0v1.69h-1.68a.49.49,0,0,0,0,1h1.68v1.69a.5.5,0,0,0,1,0V61.53h1.68a.49.49,0,1,0,0-1Z" style="fill:#bde7ff;opacity:0.6000000000000001"/><path d="M232.6,299.86a5.94,5.94,0,0,0-3,.84,9.89,9.89,0,0,0-18.88-2.79,7.15,7.15,0,0,0-1.86-.28,7.08,7.08,0,0,0,0,14.15H232.6a6,6,0,1,0,0-11.92Z" style="fill:#fff;opacity:0.8"/><path d="M314,285.14a5.89,5.89,0,0,0-3,.84,9.89,9.89,0,0,0-18.88-2.79,7.23,7.23,0,0,0-1.87-.28,7.08,7.08,0,0,0,0,14.15H314a6,6,0,0,0,0-11.92Z" style="fill:#fff;opacity:0.8"/><path d="M132.38,187.89a4.35,4.35,0,0,0-2.23.63,7.34,7.34,0,0,0-14-2.07,5.24,5.24,0,1,0-1.38,10.29h17.62a4.43,4.43,0,1,0,0-8.85Z" style="fill:#ace2f9;opacity:0.7000000000000001"/><path d="M377.49,63.44a17.26,17.26,0,0,1-2.32,4.35,17.86,17.86,0,1,1-8.33-27.26L360.71,57.3l17.57-3.17A17.85,17.85,0,0,1,377.49,63.44Z" style="fill:#e6f7ff"/><path d="M380.87,51.74a17.83,17.83,0,0,0-11.42-13.6l-6.14,16.77Z" style="fill:#e6f7ff"/><path d="M377.49,63.44a17.26,17.26,0,0,1-2.32,4.35L360.71,57.3l17.57-3.17A17.85,17.85,0,0,1,377.49,63.44Z" style="fill:#fff"/><path d="M366.84,40.53,360.71,57.3l-17.3,4.43a17.86,17.86,0,0,1,23.43-21.2Z" style="fill:#fff"/><path d="M404,51.09a4.45,4.45,0,0,0-3.3,1.47l-3.56-2.5a3,3,0,1,0-.66.94L400,53.5a4.39,4.39,0,0,0,.48,4.89l-1.83,1.92a2.89,2.89,0,0,0-1.62-.49,3,3,0,1,0,3,3,3,3,0,0,0-.56-1.73l1.83-1.91a4.42,4.42,0,0,0,2.65.89,4.5,4.5,0,0,0,0-9Z" style="fill:#fff"/><path d="M138,216.59a5.71,5.71,0,1,1-5.76-5.66A5.71,5.71,0,0,1,138,216.59Z" style="fill:#025aa2"/><polyline points="129.77 216.93 132.04 219.09 135.01 215.01" style="fill:none;stroke:#fff;stroke-linecap:round;stroke-linejoin:round;stroke-width:1.6842700000000002px"/><path d="M438.48,139.19a6.71,6.71,0,1,1-6.76-6.65A6.7,6.7,0,0,1,438.48,139.19Z" style="fill:#e6505c"/><polyline points="428.83 139.59 431.49 142.12 434.98 137.33" style="fill:none;stroke:#fff;stroke-linecap:round;stroke-linejoin:round;stroke-width:1.9781000000000002px"/><path d="M460.73,254.09a6.84,6.84,0,1,1-6.89-6.78A6.84,6.84,0,0,1,460.73,254.09Z" style="fill:#bde7ff;opacity:0.6000000000000001"/><polyline points="450.89 254.5 453.6 257.08 457.16 252.2" style="fill:none;stroke:#fff;stroke-linecap:round;stroke-linejoin:round;stroke-width:2.01697px"/><g style="opacity:0.25;mix-blend-mode:multiply"><path d="M361.26,96.33V235.38a10.92,10.92,0,0,1-10.92,10.92H180.48a10.92,10.92,0,0,1-10.92-10.92v-139a10.91,10.91,0,0,1,10.92-10.92H350.34A10.91,10.91,0,0,1,361.26,96.33Z" style="fill:#2a507a"/><path d="M361.26,96.33v19.44H169.56V96.33a10.91,10.91,0,0,1,10.92-10.92H350.34A10.91,10.91,0,0,1,361.26,96.33Z" style="fill:#2a507a"/><rect x="177.16" y="124.38" width="21.85" height="21.85" rx="2.32" style="fill:#2a507a"/><rect x="208.29" y="124.38" width="21.85" height="21.85" rx="2.32" style="fill:#2a507a"/><rect x="239.41" y="124.38" width="21.85" height="21.85" rx="2.32" style="fill:#2a507a"/><rect x="270.54" y="124.38" width="21.85" height="21.85" rx="2.32" style="fill:#2a507a"/><rect x="301.66" y="124.38" width="21.85" height="21.85" rx="2.32" style="fill:none;stroke:#2a507a;stroke-miterlimit:10;stroke-width:1.3018800000000001px"/><rect x="332.79" y="124.38" width="21.85" height="21.85" rx="2.32" style="fill:#2a507a"/><rect x="177.16" y="153.69" width="21.85" height="21.85" rx="2.32" style="fill:#2a507a"/><rect x="208.29" y="153.69" width="21.85" height="21.85" rx="2.32" style="fill:#2a507a"/><rect x="239.41" y="153.69" width="21.85" height="21.85" rx="2.32" style="fill:none;stroke:#2a507a;stroke-miterlimit:10;stroke-width:1.3018800000000001px"/><rect x="270.54" y="153.69" width="21.85" height="21.85" rx="2.32" style="fill:#2a507a"/><rect x="301.66" y="153.69" width="21.85" height="21.85" rx="2.32" style="fill:#2a507a"/><rect x="332.79" y="153.69" width="21.85" height="21.85" rx="2.32" style="fill:#2a507a"/><rect x="177.16" y="183.01" width="21.85" height="21.85" rx="2.32" style="fill:#2a507a"/><rect x="208.29" y="183.01" width="21.85" height="21.85" rx="2.32" style="fill:#2a507a"/><rect x="239.41" y="183.01" width="21.85" height="21.85" rx="2.32" style="fill:#2a507a"/><rect x="270.54" y="183.01" width="21.85" height="21.85" rx="2.32" style="fill:#2a507a"/><rect x="301.66" y="183.01" width="21.85" height="21.85" rx="2.32" style="fill:#2a507a"/><rect x="332.79" y="183.01" width="21.85" height="21.85" rx="2.32" style="fill:#2a507a"/><rect x="177.16" y="212.32" width="21.85" height="21.85" rx="2.32" style="fill:none;stroke:#2a507a;stroke-miterlimit:10;stroke-width:1.3018800000000001px"/><rect x="208.29" y="212.32" width="21.85" height="21.85" rx="2.32" style="fill:#2a507a"/><rect x="239.41" y="212.32" width="21.85" height="21.85" rx="2.32" style="fill:#2a507a"/><rect x="270.54" y="212.32" width="21.85" height="21.85" rx="2.32" style="fill:#2a507a"/><rect x="301.66" y="212.32" width="21.85" height="21.85" rx="2.32" style="fill:#2a507a"/><rect x="332.79" y="212.32" width="21.85" height="21.85" rx="2.32" style="fill:#2a507a"/><path d="M185.08,102.35a4,4,0,1,1-4-4A4,4,0,0,1,185.08,102.35Z" style="fill:#2a507a"/><circle cx="214.93" cy="102.35" r="3.97" style="fill:#2a507a"/><circle cx="248.76" cy="102.35" r="3.97" style="fill:#2a507a"/><path d="M286.57,102.35a4,4,0,1,1-4-4A4,4,0,0,1,286.57,102.35Z" style="fill:#2a507a"/><path d="M320.4,102.35a4,4,0,1,1-4-4A4,4,0,0,1,320.4,102.35Z" style="fill:#2a507a"/><path d="M354.23,102.35a4,4,0,1,1-4-4A4,4,0,0,1,354.23,102.35Z" style="fill:#2a507a"/><line x1="181.1" y1="102.35" x2="181.1" y2="83.7" style="fill:none;stroke:#2a507a;stroke-linecap:round;stroke-miterlimit:10;stroke-width:5.41389px"/><line x1="214.93" y1="102.35" x2="214.93" y2="83.7" style="fill:none;stroke:#2a507a;stroke-linecap:round;stroke-miterlimit:10;stroke-width:5.41389px"/><line x1="248.76" y1="102.35" x2="248.76" y2="83.7" style="fill:none;stroke:#2a507a;stroke-linecap:round;stroke-miterlimit:10;stroke-width:5.41389px"/><line x1="316.43" y1="102.35" x2="316.43" y2="83.7" style="fill:none;stroke:#2a507a;stroke-linecap:round;stroke-miterlimit:10;stroke-width:5.41389px"/><line x1="350.26" y1="102.35" x2="350.26" y2="83.7" style="fill:none;stroke:#2a507a;stroke-linecap:round;stroke-miterlimit:10;stroke-width:5.41389px"/><path d="M256.6,188.06a19.49,19.49,0,0,1-1.94.57,18.51,18.51,0,0,1,.74,4.89h3.51A8.53,8.53,0,0,0,256.6,188.06Zm-2.9-2a17,17,0,0,1,.72,1.83c.52-.12,1-.26,1.52-.42A7.92,7.92,0,0,0,253.7,186Zm-1.08-.38a8.29,8.29,0,0,0-1.88-.3v3a17.68,17.68,0,0,0,2.89-.28A19,19,0,0,0,252.62,185.65Zm1.25,3.15a18.34,18.34,0,0,1-3.13.31v4.41h3.85A17.2,17.2,0,0,0,253.87,188.8Zm-3.53-3.45h0Zm-2.28.3a16.75,16.75,0,0,0-1,2.36,17.36,17.36,0,0,0,2.88.29v-3A8.21,8.21,0,0,0,248.06,185.65Zm-3.33,1.77a15.54,15.54,0,0,0,1.52.43A16.85,16.85,0,0,1,247,186,8.39,8.39,0,0,0,244.73,187.42Zm2.08,1.37a17.22,17.22,0,0,0-.73,4.73h3.85v-4.41A18.14,18.14,0,0,1,246.81,188.79Zm-2.73-.74a8.49,8.49,0,0,0-2.32,5.47h3.51a19.08,19.08,0,0,1,.74-4.91A15.82,15.82,0,0,1,244.08,188.05Zm6.66,6.28v4.42a18.24,18.24,0,0,1,3.12.32,17.41,17.41,0,0,0,.73-4.74Zm4.66,0a18.13,18.13,0,0,1-.75,4.9,18.68,18.68,0,0,1,1.94.56,8.49,8.49,0,0,0,2.32-5.46ZM246.27,200c-.52.12-1,.26-1.54.43a8.66,8.66,0,0,0,2.27,1.41C246.73,201.24,246.48,200.63,246.27,200Zm8.14,0a18.12,18.12,0,0,1-.74,1.84,8.19,8.19,0,0,0,2.27-1.42Q255.18,200.18,254.41,200Zm-3.67-.45v3a8.81,8.81,0,0,0,1.85-.29,16.93,16.93,0,0,0,1-2.37A17.36,17.36,0,0,0,250.74,199.55Zm-3.68.3a18.27,18.27,0,0,0,1,2.37,8.42,8.42,0,0,0,1.84.29v-3A17.36,17.36,0,0,0,247.06,199.85Zm-1.79-5.52h-3.51a8.52,8.52,0,0,0,2.32,5.48,18.21,18.21,0,0,1,1.95-.57A18.28,18.28,0,0,1,245.27,194.33Zm.81,0a17.8,17.8,0,0,0,.73,4.74,19.3,19.3,0,0,1,3.12-.32v-4.42Z" style="fill:#2a507a"/><path d="M249.93,202.51h.8" style="fill:#2a507a"/><polyline points="181.68 136.82 186.95 141.22 194.54 130.68" style="fill:none;stroke:#2a507a;stroke-linecap:round;stroke-linejoin:round;stroke-width:3.9056400000000004px"/><polyline points="306.76 136.82 312.03 141.22 319.62 130.68" style="fill:none;stroke:#2a507a;stroke-linecap:round;stroke-linejoin:round;stroke-width:3.9056400000000004px"/><polyline points="212.78 223.45 218.05 227.85 225.64 217.3" style="fill:none;stroke:#2a507a;stroke-linecap:round;stroke-linejoin:round;stroke-width:3.9056400000000004px"/></g><path d="M356.05,91.13V230.18a10.92,10.92,0,0,1-10.92,10.92H175.27a10.92,10.92,0,0,1-10.92-10.92v-139a10.91,10.91,0,0,1,10.92-10.92H345.13A10.91,10.91,0,0,1,356.05,91.13Z" style="fill:#fff"/><path d="M356.05,91.13v19.44H164.35V91.13a10.91,10.91,0,0,1,10.92-10.92H345.13A10.91,10.91,0,0,1,356.05,91.13Z" style="fill:#e6505c"/><rect x="171.96" y="119.17" width="21.85" height="21.85" rx="2.32" style="fill:#ace2f9"/><rect x="203.08" y="119.17" width="21.85" height="21.85" rx="2.32" style="fill:#ace2f9"/><rect x="234.2" y="119.17" width="21.85" height="21.85" rx="2.32" style="fill:#ace2f9"/><rect x="265.33" y="119.17" width="21.85" height="21.85" rx="2.32" style="fill:#ace2f9"/><rect x="296.45" y="119.17" width="21.85" height="21.85" rx="2.32" style="fill:none;stroke:#ace2f9;stroke-miterlimit:10;stroke-width:1.3018800000000001px"/><rect x="327.58" y="119.17" width="21.85" height="21.85" rx="2.32" style="fill:#ace2f9"/><rect x="171.96" y="148.49" width="21.85" height="21.85" rx="2.32" style="fill:#ace2f9"/><rect x="203.08" y="148.49" width="21.85" height="21.85" rx="2.32" style="fill:#ace2f9"/><rect x="234.2" y="148.49" width="21.85" height="21.85" rx="2.32" style="fill:none;stroke:#ace2f9;stroke-miterlimit:10;stroke-width:1.3018800000000001px"/><rect x="265.33" y="148.49" width="21.85" height="21.85" rx="2.32" style="fill:#ace2f9"/><rect x="296.45" y="148.49" width="21.85" height="21.85" rx="2.32" style="fill:#ace2f9"/><rect x="327.58" y="148.49" width="21.85" height="21.85" rx="2.32" style="fill:#ace2f9"/><rect x="171.96" y="177.8" width="21.85" height="21.85" rx="2.32" style="fill:#ace2f9"/><rect x="203.08" y="177.8" width="21.85" height="21.85" rx="2.32" style="fill:#ace2f9"/><rect x="234.2" y="177.8" width="21.85" height="21.85" rx="2.32" style="fill:#ace2f9"/><rect x="265.33" y="177.8" width="21.85" height="21.85" rx="2.32" style="fill:#ace2f9"/><rect x="296.45" y="177.8" width="21.85" height="21.85" rx="2.32" style="fill:#ace2f9"/><rect x="327.58" y="177.8" width="21.85" height="21.85" rx="2.32" style="fill:#ace2f9"/><rect x="171.96" y="207.11" width="21.85" height="21.85" rx="2.32" style="fill:none;stroke:#ace2f9;stroke-miterlimit:10;stroke-width:1.3018800000000001px"/><rect x="203.08" y="207.11" width="21.85" height="21.85" rx="2.32" style="fill:#ace2f9"/><rect x="234.2" y="207.11" width="21.85" height="21.85" rx="2.32" style="fill:#ace2f9"/><rect x="265.33" y="207.11" width="21.85" height="21.85" rx="2.32" style="fill:#ace2f9"/><rect x="296.45" y="207.11" width="21.85" height="21.85" rx="2.32" style="fill:#ace2f9"/><rect x="327.58" y="207.11" width="21.85" height="21.85" rx="2.32" style="fill:#ace2f9"/><path d="M179.87,97.14a4,4,0,1,1-4-4A4,4,0,0,1,179.87,97.14Z" style="fill:#bde7ff"/><circle cx="209.73" cy="97.14" r="3.97" style="fill:#bde7ff"/><circle cx="243.56" cy="97.14" r="3.97" style="fill:#bde7ff"/><path d="M281.36,97.14a4,4,0,1,1-4-4A4,4,0,0,1,281.36,97.14Z" style="fill:#bde7ff"/><path d="M315.19,97.14a4,4,0,1,1-4-4A4,4,0,0,1,315.19,97.14Z" style="fill:#bde7ff"/><path d="M349,97.14a4,4,0,1,1-4-4A4,4,0,0,1,349,97.14Z" style="fill:#bde7ff"/><line x1="175.9" y1="97.14" x2="175.9" y2="78.49" style="fill:none;stroke:#192469;stroke-linecap:round;stroke-miterlimit:10;stroke-width:5.41389px"/><line x1="209.73" y1="97.14" x2="209.73" y2="78.49" style="fill:none;stroke:#192469;stroke-linecap:round;stroke-miterlimit:10;stroke-width:5.41389px"/><line x1="243.56" y1="97.14" x2="243.56" y2="78.49" style="fill:none;stroke:#192469;stroke-linecap:round;stroke-miterlimit:10;stroke-width:5.41389px"/><line x1="311.22" y1="97.14" x2="311.22" y2="78.49" style="fill:none;stroke:#192469;stroke-linecap:round;stroke-miterlimit:10;stroke-width:5.41389px"/><line x1="345.05" y1="97.14" x2="345.05" y2="78.49" style="fill:none;stroke:#192469;stroke-linecap:round;stroke-miterlimit:10;stroke-width:5.41389px"/><path d="M251.39,182.85a15.16,15.16,0,0,1-1.93.57,18.49,18.49,0,0,1,.73,4.89h3.52A8.54,8.54,0,0,0,251.39,182.85Zm-2.9-2c.28.6.51,1.21.73,1.83.51-.12,1-.26,1.51-.42A8.4,8.4,0,0,0,248.49,180.82Zm-1.08-.38a8.29,8.29,0,0,0-1.88-.29v2.94a16.64,16.64,0,0,0,2.89-.28A19,19,0,0,0,247.41,180.44Zm1.25,3.15a18.24,18.24,0,0,1-3.13.31v4.41h3.86A17.66,17.66,0,0,0,248.66,183.59Zm-3.53-3.45h0Zm-2.28.3a16.75,16.75,0,0,0-1,2.36,16.46,16.46,0,0,0,2.89.29v-2.94A8.2,8.2,0,0,0,242.85,180.44Zm-3.33,1.77c.5.17,1,.31,1.52.43a17.71,17.71,0,0,1,.73-1.82A8.81,8.81,0,0,0,239.52,182.21Zm2.08,1.37a17.28,17.28,0,0,0-.73,4.73h3.86V183.9A18.25,18.25,0,0,1,241.6,183.58Zm-2.73-.74a8.54,8.54,0,0,0-2.32,5.47h3.51a19.59,19.59,0,0,1,.74-4.91A15.82,15.82,0,0,1,238.87,182.84Zm6.66,6.28v4.42a18.14,18.14,0,0,1,3.12.32,17.75,17.75,0,0,0,.74-4.74Zm4.66,0a18.06,18.06,0,0,1-.74,4.9,19.31,19.31,0,0,1,1.93.57,8.5,8.5,0,0,0,2.33-5.47Zm-9.13,5.68c-.52.12-1,.26-1.54.43a8.66,8.66,0,0,0,2.27,1.41A19.56,19.56,0,0,1,241.06,194.8Zm8.14,0a17.23,17.23,0,0,1-.74,1.84,8.19,8.19,0,0,0,2.27-1.42C250.23,195.05,249.71,194.91,249.2,194.79Zm-3.67-.44v3a8.71,8.71,0,0,0,1.85-.29,16.93,16.93,0,0,0,1-2.37A16.33,16.33,0,0,0,245.53,194.35Zm-3.68.3a20.33,20.33,0,0,0,1,2.36,8.51,8.51,0,0,0,1.85.29v-3A16.56,16.56,0,0,0,241.85,194.65Zm-1.79-5.53h-3.51a8.5,8.5,0,0,0,2.32,5.48,18.91,18.91,0,0,1,1.95-.57A18.62,18.62,0,0,1,240.06,189.12Zm.81,0a17.36,17.36,0,0,0,.74,4.74,19.08,19.08,0,0,1,3.12-.32v-4.42Z" style="fill:#fff"/><path d="M244.72,197.3h.81" style="fill:#fff"/><polyline points="176.47 131.61 181.74 136.02 189.33 125.47" style="fill:none;stroke:#e6505c;stroke-linecap:round;stroke-linejoin:round;stroke-width:3.9056400000000004px"/><polyline points="301.56 131.61 306.82 136.02 314.41 125.47" style="fill:none;stroke:#e6505c;stroke-linecap:round;stroke-linejoin:round;stroke-width:3.9056400000000004px"/><polyline points="207.57 218.24 212.84 222.64 220.43 212.09" style="fill:none;stroke:#e6505c;stroke-linecap:round;stroke-linejoin:round;stroke-width:3.9056400000000004px"/><g style="opacity:0.25;mix-blend-mode:multiply"><rect x="308.85" y="147.37" width="14.04" height="10.4" transform="translate(-33.03 188.9) rotate(-31.73)" style="fill:#2a507a"/><path d="M307.16,151.83h0a17.62,17.62,0,0,1,11.94-7.38h0Z" style="fill:#2a507a"/><rect x="407.1" y="145.55" width="10.4" height="14.04" transform="translate(65.72 423.02) rotate(-58.27)" style="fill:#2a507a"/><path d="M421,151.83h0a17.6,17.6,0,0,0-11.94-7.38h0Z" style="fill:#2a507a"/><rect x="353.1" y="136.64" width="21.96" height="7.18" style="fill:#2a507a"/><path d="M379,122.09v14.55h-29.9V122.09A41.76,41.76,0,0,1,379,122.09Z" style="fill:#2a507a"/><line x1="350.83" y1="136.64" x2="350.83" y2="122.09" style="fill:none;stroke:#2a507a;stroke-miterlimit:10;stroke-width:1.08278px"/><line x1="353.21" y1="136.64" x2="353.21" y2="122.09" style="fill:none;stroke:#2a507a;stroke-miterlimit:10;stroke-width:1.08278px"/><line x1="355.6" y1="136.64" x2="355.6" y2="122.09" style="fill:none;stroke:#2a507a;stroke-miterlimit:10;stroke-width:1.08278px"/><line x1="357.99" y1="136.64" x2="357.99" y2="122.09" style="fill:none;stroke:#2a507a;stroke-miterlimit:10;stroke-width:1.08278px"/><line x1="360.37" y1="136.64" x2="360.37" y2="122.09" style="fill:none;stroke:#2a507a;stroke-miterlimit:10;stroke-width:1.08278px"/><line x1="362.76" y1="136.64" x2="362.76" y2="122.09" style="fill:none;stroke:#2a507a;stroke-miterlimit:10;stroke-width:1.08278px"/><line x1="365.14" y1="136.64" x2="365.14" y2="122.09" style="fill:none;stroke:#2a507a;stroke-miterlimit:10;stroke-width:1.08278px"/><line x1="367.53" y1="136.64" x2="367.53" y2="122.09" style="fill:none;stroke:#2a507a;stroke-miterlimit:10;stroke-width:1.08278px"/><line x1="369.92" y1="136.64" x2="369.92" y2="122.09" style="fill:none;stroke:#2a507a;stroke-miterlimit:10;stroke-width:1.08278px"/><line x1="372.3" y1="136.64" x2="372.3" y2="122.09" style="fill:none;stroke:#2a507a;stroke-miterlimit:10;stroke-width:1.08278px"/><line x1="374.69" y1="136.64" x2="374.69" y2="122.09" style="fill:none;stroke:#2a507a;stroke-miterlimit:10;stroke-width:1.08278px"/><line x1="377.08" y1="136.64" x2="377.08" y2="122.09" style="fill:none;stroke:#2a507a;stroke-miterlimit:10;stroke-width:1.08278px"/><path d="M379,122.09h-29.9A41.76,41.76,0,0,1,379,122.09Z" style="fill:#2a507a"/><circle cx="364.08" cy="227.78" r="86.55" transform="translate(-54.42 324.16) rotate(-45)" style="fill:#2a507a"/><circle cx="364.08" cy="227.78" r="77.97" transform="translate(-54.42 324.16) rotate(-45)" style="fill:#2a507a;opacity:0.7000000000000001"/><circle cx="364.08" cy="227.78" r="75.25" style="fill:#2a507a"/><line x1="434.65" y1="227.78" x2="427.24" y2="227.78" style="fill:none;stroke:#2a507a;stroke-linecap:round;stroke-miterlimit:10;stroke-width:5.41389px"/><line x1="364.08" y1="298.34" x2="364.08" y2="290.94" style="fill:none;stroke:#2a507a;stroke-linecap:round;stroke-miterlimit:10;stroke-width:5.41389px"/><line x1="293.51" y1="227.78" x2="300.92" y2="227.78" style="fill:none;stroke:#2a507a;stroke-linecap:round;stroke-miterlimit:10;stroke-width:5.41389px"/><line x1="364.08" y1="157.21" x2="364.08" y2="164.62" style="fill:none;stroke:#2a507a;stroke-linecap:round;stroke-miterlimit:10;stroke-width:5.41389px"/><line x1="425.19" y1="263.06" x2="418.78" y2="259.36" style="fill:none;stroke:#2a507a;stroke-linecap:round;stroke-miterlimit:10;stroke-width:3.24833px"/><line x1="328.8" y1="288.89" x2="332.5" y2="282.47" style="fill:none;stroke:#2a507a;stroke-linecap:round;stroke-miterlimit:10;stroke-width:3.24833px"/><line x1="302.97" y1="192.49" x2="309.38" y2="196.19" style="fill:none;stroke:#2a507a;stroke-linecap:round;stroke-miterlimit:10;stroke-width:3.24833px"/><line x1="399.37" y1="166.66" x2="395.66" y2="173.08" style="fill:none;stroke:#2a507a;stroke-linecap:round;stroke-miterlimit:10;stroke-width:3.24833px"/><line x1="399.35" y1="288.9" x2="395.65" y2="282.48" style="fill:none;stroke:#2a507a;stroke-linecap:round;stroke-miterlimit:10;stroke-width:3.24833px"/><line x1="302.96" y1="263.05" x2="309.38" y2="259.35" style="fill:none;stroke:#2a507a;stroke-linecap:round;stroke-miterlimit:10;stroke-width:3.24833px"/><line x1="328.81" y1="166.66" x2="332.51" y2="173.07" style="fill:none;stroke:#2a507a;stroke-linecap:round;stroke-miterlimit:10;stroke-width:3.24833px"/><line x1="425.2" y1="192.5" x2="418.78" y2="196.21" style="fill:none;stroke:#2a507a;stroke-linecap:round;stroke-miterlimit:10;stroke-width:3.24833px"/><path d="M382.44,255.31a2.34,2.34,0,0,1-1.89-1l-19.1-26.2,18.8-50.91a2.33,2.33,0,0,1,3-1.39,2.35,2.35,0,0,1,1.39,3l-17.93,48.56,17.62,24.18a2.34,2.34,0,0,1-1.89,3.72Z" style="fill:#2a507a"/><circle cx="364.08" cy="227.78" r="5.85" style="fill:#2a507a"/></g><rect x="303.64" y="142.16" width="14.04" height="10.4" transform="translate(-31.07 185.39) rotate(-31.73)" style="fill:#c13d4c"/><path d="M302,146.63h0a17.59,17.59,0,0,1,11.93-7.39h0Z" style="fill:#c13d4c"/><rect x="401.89" y="140.34" width="10.4" height="14.04" transform="translate(67.68 416.12) rotate(-58.27)" style="fill:#c13d4c"/><path d="M415.79,146.63h0a17.61,17.61,0,0,0-11.94-7.39h0Z" style="fill:#c13d4c"/><rect x="347.89" y="131.44" width="21.96" height="7.18" style="fill:#c13d4c"/><path d="M373.82,116.88v14.56H343.93V116.88A41.84,41.84,0,0,1,373.82,116.88Z" style="fill:#e6505c"/><line x1="345.62" y1="131.44" x2="345.62" y2="116.88" style="fill:none;stroke:#101747;stroke-miterlimit:10;stroke-width:1.08278px"/><line x1="348" y1="131.44" x2="348" y2="116.88" style="fill:none;stroke:#101747;stroke-miterlimit:10;stroke-width:1.08278px"/><line x1="350.39" y1="131.44" x2="350.39" y2="116.88" style="fill:none;stroke:#101747;stroke-miterlimit:10;stroke-width:1.08278px"/><line x1="352.78" y1="131.44" x2="352.78" y2="116.88" style="fill:none;stroke:#101747;stroke-miterlimit:10;stroke-width:1.08278px"/><line x1="355.16" y1="131.44" x2="355.16" y2="116.88" style="fill:none;stroke:#101747;stroke-miterlimit:10;stroke-width:1.08278px"/><line x1="357.55" y1="131.44" x2="357.55" y2="116.88" style="fill:none;stroke:#101747;stroke-miterlimit:10;stroke-width:1.08278px"/><line x1="359.94" y1="131.44" x2="359.94" y2="116.88" style="fill:none;stroke:#101747;stroke-miterlimit:10;stroke-width:1.08278px"/><line x1="362.32" y1="131.44" x2="362.32" y2="116.88" style="fill:none;stroke:#101747;stroke-miterlimit:10;stroke-width:1.08278px"/><line x1="364.71" y1="131.44" x2="364.71" y2="116.88" style="fill:none;stroke:#101747;stroke-miterlimit:10;stroke-width:1.08278px"/><line x1="367.1" y1="131.44" x2="367.1" y2="116.88" style="fill:none;stroke:#101747;stroke-miterlimit:10;stroke-width:1.08278px"/><line x1="369.48" y1="131.44" x2="369.48" y2="116.88" style="fill:none;stroke:#101747;stroke-miterlimit:10;stroke-width:1.08278px"/><line x1="371.87" y1="131.44" x2="371.87" y2="116.88" style="fill:none;stroke:#101747;stroke-miterlimit:10;stroke-width:1.08278px"/><path d="M373.82,116.88H343.93A41.84,41.84,0,0,1,373.82,116.88Z" style="fill:#c13d4c"/><circle cx="358.87" cy="222.57" r="86.55" transform="translate(-52.27 318.95) rotate(-45)" style="fill:#e6505c"/><circle cx="358.87" cy="222.57" r="77.97" transform="translate(-52.27 318.95) rotate(-45)" style="fill:#ace2f9;opacity:0.7000000000000001"/><circle cx="358.87" cy="222.57" r="75.25" style="fill:#fff"/><line x1="429.44" y1="222.57" x2="422.03" y2="222.57" style="fill:none;stroke:#192469;stroke-linecap:round;stroke-miterlimit:10;stroke-width:5.41389px"/><line x1="358.87" y1="293.14" x2="358.87" y2="285.73" style="fill:none;stroke:#192469;stroke-linecap:round;stroke-miterlimit:10;stroke-width:5.41389px"/><line x1="288.31" y1="222.57" x2="295.71" y2="222.57" style="fill:none;stroke:#192469;stroke-linecap:round;stroke-miterlimit:10;stroke-width:5.41389px"/><line x1="358.87" y1="152" x2="358.87" y2="159.41" style="fill:none;stroke:#192469;stroke-linecap:round;stroke-miterlimit:10;stroke-width:5.41389px"/><g style="opacity:0.30000000000000004"><line x1="419.99" y1="257.85" x2="413.57" y2="254.15" style="fill:none;stroke:#101747;stroke-linecap:round;stroke-miterlimit:10;stroke-width:3.24833px"/><line x1="323.59" y1="283.68" x2="327.29" y2="277.26" style="fill:none;stroke:#101747;stroke-linecap:round;stroke-miterlimit:10;stroke-width:3.24833px"/><line x1="297.76" y1="187.28" x2="304.18" y2="190.99" style="fill:none;stroke:#101747;stroke-linecap:round;stroke-miterlimit:10;stroke-width:3.24833px"/><line x1="394.16" y1="161.46" x2="390.46" y2="167.87" style="fill:none;stroke:#101747;stroke-linecap:round;stroke-miterlimit:10;stroke-width:3.24833px"/><line x1="394.15" y1="283.69" x2="390.44" y2="277.27" style="fill:none;stroke:#101747;stroke-linecap:round;stroke-miterlimit:10;stroke-width:3.24833px"/><line x1="297.75" y1="257.84" x2="304.17" y2="254.14" style="fill:none;stroke:#101747;stroke-linecap:round;stroke-miterlimit:10;stroke-width:3.24833px"/><line x1="323.6" y1="161.45" x2="327.3" y2="167.86" style="fill:none;stroke:#101747;stroke-linecap:round;stroke-miterlimit:10;stroke-width:3.24833px"/><line x1="419.99" y1="187.3" x2="413.58" y2="191" style="fill:none;stroke:#101747;stroke-linecap:round;stroke-miterlimit:10;stroke-width:3.24833px"/></g><path d="M377.24,250.1a2.34,2.34,0,0,1-1.9-1l-19.09-26.21L375,172a2.34,2.34,0,1,1,4.39,1.62L361.5,222.2l17.63,24.18a2.35,2.35,0,0,1-1.89,3.72Z" style="fill:#e6505c"/><circle cx="358.87" cy="222.57" r="5.85" style="fill:#192469"/><polyline points="428.73 310.88 430.84 314.53 433.53 314.01 431.68 309.74" style="fill:#fdaeb3"/><path d="M433.52,313.74a3.16,3.16,0,0,1-1.9.51,3.24,3.24,0,0,0-.9-.14c-.21.05-.58.65-.73.82a6.85,6.85,0,0,1-1.43,1c-.37.17-1.8.67-2.06,1.22a.35.35,0,0,0,.33.49l2.44,0a5.29,5.29,0,0,0,1.53-.22,37.63,37.63,0,0,0,3.59-1.23A3,3,0,0,0,433.52,313.74Z" style="fill:#004ba8"/><path d="M409.77,275.4c-10.32-6.63-9,3.28-9,3.28l29.13,34.47a3.54,3.54,0,0,0,2.83-1.8S421.43,283,409.77,275.4Z" style="fill:#003977"/><path d="M413.18,245.84a12,12,0,0,1,.9,5.78c-.28,2.93-.95,5.41-1.19,8.07s-3.34,18.56-3.34,18.56-8.37,2.54-9,.05c-1.23-5-3-32.29-3-32.29S405.68,247.7,413.18,245.84Z" style="fill:#003977"/><path d="M416.34,245.06s2.48,6.68-5.81,14.36c-2.15,2-4.12,2.75-6.76,5.2-2,1.82-14,13.76-14,13.76s-7.46-5.92-6.52-8.3c1.89-4.83,15.27-29,15.27-29S409.13,242.28,416.34,245.06Z" style="fill:#004ba8"/><polyline points="373.2 310.92 372.18 315.05 374.91 315.18 377.13 311.27" style="fill:#fdaeb3"/><path d="M392,272.89c-.72-13.87-8.73-2.81-8.73-2.81l-10.56,42.31a5,5,0,0,0,3.31,1.33S392.68,286.77,392,272.89Z" style="fill:#004ba8"/><path d="M419.15,199.2c-3.44,1.69-9.2.23-9.2.23l1.93-6.16.83-2.62s.59-.51,1.46-1.21c2.68-2.15,8-6.1,6.63-2.25C419,192.28,419.15,199.2,419.15,199.2Z" style="fill:#fdaeb3"/><path d="M416,190.26a9.76,9.76,0,0,1-4.08,3l.83-2.62s.59-.51,1.46-1.21l.29-.05Z" style="fill:#e58099"/><path d="M408.6,178.78s-2.24,11.18-.47,13.05,10-1.57,10-1.57,6.47-6,6-11.5c-.39-4.6-10.06-8.45-14.21-3.69A8.25,8.25,0,0,0,408.6,178.78Z" style="fill:#fdaeb3"/><path d="M407.71,171.27s-1.82,5.75,2.49,7.83c2.86,1.38,6.13,1.69,6.12,3.1s.6.39,1.23.13c1.34-.56,2,1.3,1.18,3-.63,1.32-.55,3.4,1.45,3.9a54.75,54.75,0,0,0,3.4-5c.9-1.61,3.23-7.26-.54-8.49a4.82,4.82,0,0,0-2.73-3.12c-3.61-1.66-7-1.17-9.58-1.06C409.53,171.66,408.24,169.18,407.71,171.27Z" style="fill:#1d2468"/><path d="M400.58,209.1c-1.35-.54-3.3-1.43-5.35-2.4-1.6-.77-3.27-1.59-4.74-2.32-2.75-1.35-4.88-2.45-4.88-2.45s1.78-5.47,2.93-5.71c.68-.14,5.79.8,9.81,1.58.86.16,1.68.32,2.37.47l2.6.51Z" style="fill:#fdaeb3"/><path d="M385.62,201.93c-2.57-1.29-3.64-3-6.43-8.3-1-1.91-3.23-6.38-4.1-8.23l.94-2.57c.53.33,7.84,7.39,8.79,8.5,1.53,1.79,3.72,4.89,3.72,4.89C389.64,198.14,388.18,203.23,385.62,201.93Z" style="fill:#fdaeb3"/><path d="M410,200c-4.2-1.39-13.65-3.09-13.65-3.09s-2.59,5.81-2.69,10.05c3.05,1.92,10.71,4.26,10.71,4.26" style="fill:#fcae24"/><path d="M421.17,225.65c-.11.24-.24.5-.36.74-.61,1.21-1.2,2.43-1.72,3.66-4.24,9.79-2.75,15-2.75,15-7,.91-18.59-2.57-18.59-2.57s0-1,0-1.78a188.76,188.76,0,0,1,.71-22.09c.09-.72.17-1.43.27-2.11a29.23,29.23,0,0,1,2.1-8.38c4-8,9.11-8.7,9.11-8.7a34.82,34.82,0,0,0,9.19-.23C427.45,204,425.28,217,421.17,225.65Z" style="fill:#fecb22"/><path d="M385.28,215s-.36-5.74.63-6.38c.58-.38,5.67-1.39,9.7-2.13l2.39-.43,2.6-.48,1.23,10.61C397.14,216.2,385.28,215,385.28,215Z" style="fill:#fdaeb3"/><path d="M385.91,208.64a33.53,33.53,0,0,0-4.76-3.41c-1.3-.68-6.26-2.62-9.74-4.18a28.73,28.73,0,0,1-3.57-1.9l-1.07,1.66s5,4.9,9.49,8.84,6.15,5.11,9,5.38S387.63,210,385.91,208.64Z" style="fill:#fdaeb3"/><path d="M413.64,216.23c-5.23,3-13.37,2.53-15.17,2.39.09-.72.17-1.43.27-2.11Z" style="fill:#fcae24"/><path d="M415,215.74c-6.51,2.68-16.85,1.25-16.85,1.25A38.39,38.39,0,0,1,397,206.1c2.7-.9,10.86-2.21,10.86-2.21s8.29-1,9.51,4.57C418.64,214.25,415,215.74,415,215.74Z" style="fill:#fecb22"/><path d="M367.33,201.36a2.38,2.38,0,0,0-1.53-.71,2.29,2.29,0,0,1-1.89-1.07,6.84,6.84,0,0,1,1.35-2.48c.22-.14,1.31.69,1.66.82s.3.83,1.47,1.56" style="fill:#fdaeb3"/><path d="M367.44,198.75a2.84,2.84,0,0,0-.35-1.32c-.1-.21-.36-1-.49-1s-.3.16-.36.36a5.07,5.07,0,0,0,0,.92" style="fill:#fdaeb3"/><path d="M410,199.43,411,198a21.28,21.28,0,0,0,8.12.09v1.09l-3.41.71A11.38,11.38,0,0,1,410,199.43Z" style="fill:#fcae24"/><path d="M411,198l.27,3.24s5.44-.21,8.47-1.68l-.62-1.85A24.83,24.83,0,0,1,411,198Z" style="fill:#ffd664"/><path d="M375.13,314.8a5.3,5.3,0,0,1-2.28.23s-.28-.6-.73-.61-1,.63-1.31.77-6.11,1.92-4.16,2.31c.07.08,6.89.11,8.39.11a.37.37,0,0,0,.37-.3A3,3,0,0,0,375.13,314.8Z" style="fill:#004ba8"/><path d="M408.56,203.4a6.28,6.28,0,0,1,4.89.16c3,1.37,4.95,4,3.93,8.15" style="fill:none;stroke:#fff;stroke-linecap:round;stroke-miterlimit:10;stroke-width:0.246863px"/><path d="M416.58,200.91a4,4,0,0,1-1.39,3.7" style="fill:none;stroke:#fff;stroke-linecap:round;stroke-miterlimit:10;stroke-width:0.246863px"/><path d="M371.59,181.36s-.07-2.63.56-3.34,1.81-.78,2,.16-2.25,2.42-2.25,2.42Z" style="fill:#fdaeb3"/><path d="M190.57,274.89c-1,7.22-4.88,35.09-4.88,35.09h-2.95s-2.51-22.92-1.67-28.38,1.43-7.18,1.17-9.59c0-.27-1.29-5.8-2.32-10.35-.15-.65-.3-1.27-.43-1.85-.54-2.36-1-4.11-1-4.11h12.05S190.83,273,190.57,274.89Z" style="fill:#fdaeb3"/><path d="M189.7,259.38c-3.41,1.47-9.5,2.24-9.78,2.28-.15-.65-.3-1.27-.43-1.85l0-.13,2.92-1.22S193.2,257.87,189.7,259.38Z" style="fill:#e58099"/><path d="M185.69,310a2.42,2.42,0,0,0,.22,1.26,13.17,13.17,0,0,0,3.15,4.55l.24.64-1.73.14a24.36,24.36,0,0,1-2.65-1.77c-.17-.29-.81-1.53-1-1.92s-1-1.09-1-1.42a10.42,10.42,0,0,0-.33-1.48,11.23,11.23,0,0,1,1.16-.87c.17,0,.9-.11.9-.11Z" style="fill:#fdaeb3"/><path d="M182.67,309.31a6,6,0,0,0-1.09,3.52,46.06,46.06,0,0,1,.58,4.78h.4l.66-3.55s2.93,3.23,3.59,3.39a29.48,29.48,0,0,0,3.48.16c.15,0,2.23-.47-1.23-1.82,0,0,0,.69-1.35,0a11.67,11.67,0,0,1-3.52-3.29A8.15,8.15,0,0,1,182.67,309.31Z" style="fill:#423d73"/><path d="M180.62,254.78s0,1.19-.11,3.12c0,.56-.07,1.18-.12,1.84a74.83,74.83,0,0,1-2.77,15.59c-2.14,7-11.49,34.09-11.49,34.09l-2.92-.41s2.15-22.52,3.73-27.82,4.13-7.37,4.21-9.79c0-1.37-.58-6.28-1.12-10.24-.18-1.34-.35-2.56-.49-3.51l-.28-1.95Z" style="fill:#fdaeb3"/><path d="M166.13,309.41a2.41,2.41,0,0,0,.05,1.29,13.14,13.14,0,0,0,2.49,4.94l.15.66-1.73-.09a23.48,23.48,0,0,1-2.39-2.13c-.12-.3-.58-1.62-.72-2s-.83-1.22-.79-1.55a9.82,9.82,0,0,0-.12-1.51,12.22,12.22,0,0,1,1.26-.7c.18,0,.91,0,.91,0Z" style="fill:#fdaeb3"/><path d="M163.23,308.34a6,6,0,0,0-1.56,3.34,47.59,47.59,0,0,1-.09,4.81l.4.06,1.14-3.43s2.46,3.6,3.09,3.85a29.83,29.83,0,0,0,3.43.64c.14,0,2.27-.16-1-2,0,0-.07.68-1.33-.21a11.68,11.68,0,0,1-3.05-3.75A8.32,8.32,0,0,1,163.23,308.34Z" style="fill:#423d73"/><path d="M181.11,259.25a5.35,5.35,0,0,1-.72.49c-3.17,1.86-8.69,1.55-10.36,1.42-.18-1.34-.35-2.56-.49-3.51,3.5-.18,8.77-.31,11,.25C181.55,258.18,181.91,258.6,181.11,259.25Z" style="fill:#e58099"/><path d="M204.18,192.44s.09,3.71-1.09,4.59c-.89.67-8.72.43-12.4.28l-1.89-.09.44-3.62.4-3.38Z" style="fill:#fdaeb3"/><path d="M202.54,192.85a19.6,19.6,0,0,1,5.07-1.85c2.38-.4,13-3.13,13-3.13l.82,2.09s-9.86,6.23-19.51,7.33Z" style="fill:#fdaeb3"/><path d="M220.64,187.87a3.5,3.5,0,0,0,.82-1,2.76,2.76,0,0,1,1.41-1.49c.73-.25,1.29-.62,1.49-.54s.13.56-.27.74-1,.63-1,.77a12.35,12.35,0,0,0,1.91-.88,15.92,15.92,0,0,1,2.36-.78c.25,0,.07.62-.91,1-.74.29-1.16.67-1.1.86a1.53,1.53,0,0,1,.12,1.84,2.78,2.78,0,0,1-2.08,1.61,14.94,14.94,0,0,0-2.24.13" style="fill:#fdaeb3"/><path d="M193.18,190.58s0,5-.65,7a32.84,32.84,0,0,1-4.48-.06c-.92-.06-1.94-.17-3-.34l-1.39-.26V188.7A48.19,48.19,0,0,1,193.18,190.58Z" style="fill:#fecb22"/><path d="M188.05,197.55c-.92-.06-1.94-.17-3-.34l-.24-.35.59-2.53S186.81,196.08,188.05,197.55Z" style="fill:#fcae24"/><path d="M188.1,223.94s-6.54,4.3-19.52.38c0,0,2.11-7.46,1.4-12.34a26.65,26.65,0,0,0-1.91-5.7c-.59-1.39-1.27-2.85-2-4.3-1.19-2.49-2.43-4.88-3.33-6.59a2.79,2.79,0,0,1,1.45-3.9,45,45,0,0,1,19.44-2.79c.56,1.29,1.55,5.63,2.11,6.45,2.78,4.08,2.43,4.52,1.85,7.57C186.79,207,186,217.46,188.1,223.94Z" style="fill:#fecb22"/><path d="M169,199.23s-.35,4.08-1,7.05c-.59-1.39-1.27-2.85-2-4.3Z" style="fill:#fcae24"/><path d="M169.38,223.3s-2.3,1.94-3.09,8.61,3.09,27.3,3.09,27.3,6,2.86,21.51,0c0,0,.32-25.16-3.17-36.63Z" style="fill:#003977"/><path d="M171.33,187.17s-1.42,2.55-2.4,2.8c0,0,4.53,1.8,7.43,1.56a6,6,0,0,0,4.38-2.93,3.19,3.19,0,0,1-2.69-2.95" style="fill:#fdaeb3"/><path d="M178.37,181.78l-.12,1.3c-.06.56-.1,1.11-.11,1.23-.13,1.37-.08,2.46-.28,4.28l-6.52-1.42s1.16-1.24.38-7.51l6.53,2.08Z" style="fill:#fdaeb3"/><path d="M178.37,181.78l-.12,1.3a16.5,16.5,0,0,1-3-.27l3-1.07Z" style="fill:#e58099"/><path d="M173,165.28s2-1.45,3.62-.2,1.84,3.85,1,5.61-4.9-3.68-4.9-3.68" style="fill:#332f62"/><path d="M181.78,180.37a1.26,1.26,0,0,1-.83,1.25,17.37,17.37,0,0,1-8.29,1.06c-4.31-.62-8.48-12.44.2-16.44C174.55,165.46,181.19,170.72,181.78,180.37Z" style="fill:#fdaeb3"/><path d="M162.9,173.79s-1.5.35-1.89,1.25c0,0,1.82-.81,2.62-.15" style="fill:#332f62"/><path d="M164.28,174.16S161,175,159,172.73c-2.74-3.08,2.5-9.51,6.78-3.54" style="fill:#332f62"/><path d="M163.36,175.24a1.26,1.26,0,0,1-.73-.85,7,7,0,0,1,2.17-6.4s.66-.6,1.13-.24" style="fill:#fac12a"/><path d="M172,183.61s-7.12-2-8.82-8.85,8.63-13.6,13-7.08c0,0-3.08.65-3.92,2.94s-.31,5.6-1.21,5a1.37,1.37,0,0,0-2,1.47c.16,1.07,1.82,2.35,2.66,3.79A3.43,3.43,0,0,1,172,183.61Z" style="fill:#332f62"/><path d="M176.13,166.46s3.33,3.39-3.67,6.76c.35-1.33-1.55-4.59-1.55-4.59" style="fill:#332f62"/><rect x="147.18" y="216.45" width="30.94" height="21.37" rx="0.72" transform="translate(373.71 410.14) rotate(166.53)" style="fill:#423d73"/><rect x="148.76" y="217.54" width="27.76" height="19.18" transform="translate(373.71 410.14) rotate(166.53)" style="fill:#fff"/><rect x="175.55" y="220.85" width="1.42" height="7.37" transform="translate(-47.82 47.69) rotate(-13.59)" style="fill:#9e9dba"/><path d="M162.78,217s-3.66-.57-4.32-1.88c-.5-1,1.12-8.66,1.92-12.25.26-1.13.42-1.85.42-1.85l3.5,1.07,3.25,1Z" style="fill:#fdaeb3"/><path d="M162.67,215.3a19.67,19.67,0,0,1,.92,5.31c0,2.42.76,13.38.76,13.38l-2.2.45s-4.38-10.82-3.75-20.51Z" style="fill:#fdaeb3"/><path d="M162.15,234.44a15,15,0,0,0,.58,3.16c1,2.17,3.75.11,4.05-.48,0,0-.8.1-1.36-1.44a3,3,0,0,0-.86-1,2.08,2.08,0,0,1-.21-.66" style="fill:#fdaeb3"/><path d="M162.64,193.11a96.58,96.58,0,0,0-2.49,10.76,19.84,19.84,0,0,0,7,1.47,40,40,0,0,0,2.09-7" style="fill:#fecb22"/><path d="M269.49,290.94s11.48-.62,11.5-3c0-1.81-7-.28-7-.28s7.69-2.23,11.24-4.05a6.34,6.34,0,0,0,2.12-1.52,2.24,2.24,0,0,0,.34-2.45c-.6-1-2-1.11-3.21-1-4.73.57-8.06,3.1-12.32,5.23a38.48,38.48,0,0,0,8.49-5.89c2.39-2.13,5.17-4.13,6.76-7,1-1.78,1.4-4.43-.37-5.9s-4.17-.76-6-.1a24.72,24.72,0,0,0-12.39,9.79,43.14,43.14,0,0,0,1.75-6.44c.16-.88.22-2-.51-2.5-.94-.67-2.2.23-2.94,1.14a22.21,22.21,0,0,0-4,7.4c.58-6,1.15-12.18-.16-18.09a9.41,9.41,0,0,0-1.56-3.81,4.12,4.12,0,0,0-3.57-1.74,5.47,5.47,0,0,0-3.25,2,18,18,0,0,0-.56,23.31,24.48,24.48,0,0,0-4.7-3.85c-.38-.24-.95-.45-1.24-.1a.93.93,0,0,0-.13.68c.27,2.86,2.19,5.27,4,7.48A18.64,18.64,0,0,0,236.44,274a2.23,2.23,0,0,0-1.83.81,1.94,1.94,0,0,0-.17,1.17c.31,2.87,2.84,5,5.34,6.42,2.1,1.23,4.31,2.26,6.51,3.29a18,18,0,0,0-3.81-.14,1.05,1.05,0,0,0-.79.3c-.33.44.14,1,.58,1.35a16.91,16.91,0,0,0,11.12,3.12" style="fill:#025aa2"/><path d="M282.53,269.49c.14-.1.28.13.14.23a64.64,64.64,0,0,0-10,9.33,78.41,78.41,0,0,0-7.78,11.27.13.13,0,0,1-.22-.12c3.91-8.2,10.57-15.42,17.88-20.71Zm-16.53,3a43.58,43.58,0,0,0-2.94,17.93.12.12,0,0,0,.23,0,55.07,55.07,0,0,1,3-17.82c.06-.17-.24-.29-.31-.11Zm-7.27-11.88a83.38,83.38,0,0,0,2.45,30c0,.16.27.08.24-.07a133.72,133.72,0,0,1-2.33-15.14,127.2,127.2,0,0,1-.19-14.74c0-.09-.16-.11-.17,0Zm-8.93,14.75c3,4.21,6.26,12,10.15,15.4.16.14.36-.09.22-.24-3.52-3.87-7-11.12-10.13-15.32-.1-.14-.34,0-.24.16Zm32,6.52c-5.88,2.66-11.95,5.78-16.93,9.92-.15.13,0,.39.17.27,5.49-3.64,10.8-7.22,16.83-10,.15-.06.08-.3-.07-.24Zm-36.57-.72c4.28,2.55,8.86,8,13.53,9.8.15.05.27-.15.12-.22-4.53-2.22-9.15-7.31-13.53-9.82-.14-.08-.26.15-.12.24Z" style="opacity:0.45;mix-blend-mode:multiply;fill:url(#a)"/><polygon points="271.25 317.61 255 317.61 250.6 290.25 275.65 290.25 271.25 317.61" style="fill:#7fd2ef"/><polygon points="271.24 317.61 266.31 317.61 270.73 290.25 275.65 290.25 271.24 317.61" style="fill:#46bfe0"/><path d="M297.91,80.2h-35a3.51,3.51,0,0,1,.34-1.22,40.1,40.1,0,0,1,4.93-6.28c3.63-1.11,5.49-1.35,10.94-2.24l6.16-.39s7.82,1.81,10.46,3.69A9,9,0,0,1,297.91,80.2Z" style="fill:#fecb22"/><path d="M286.31,80.2H262.93a3.82,3.82,0,0,1,.34-1.22,5.35,5.35,0,0,1,2.78,0l1.42.37h15.21C285.65,79.33,286.31,80.2,286.31,80.2Z" style="fill:#f29127"/><path d="M283.71,64.35a9.74,9.74,0,0,0,.11-2.7,6.1,6.1,0,0,0-1.23-2.38,6.08,6.08,0,0,0-1.29.32s0,1.82,0,1.82.44,2.55.57,2.81a11.66,11.66,0,0,0,.72,1.31,4.2,4.2,0,0,0,.6-.2Z" style="fill:#fdaeb3"/><path d="M280.54,73.54a1.93,1.93,0,0,1-2-1.5,8.59,8.59,0,0,0-.49-1.23c-.26-.59-.57-1.22-.77-1.75l2.05-1.5,4.38-3.21s.54,4.1,1.59,5.72C285.3,70.07,285.65,73.25,280.54,73.54Z" style="fill:#fdaeb3"/><path d="M281.54,66.82a17.28,17.28,0,0,1-3.49,4c-.26-.59-.57-1.22-.77-1.75l2.05-1.5Z" style="fill:#e58099"/><path d="M282.92,62.45a12.76,12.76,0,0,1,.05,2.43c0,.08,0,.17,0,.26a2.61,2.61,0,0,1-.06.27c-.69,2.74-9.18,5.89-9.44,5.73-4.74-3-6.38-14.34-5.89-15.08s7.27-1.61,7.41-1.62,6.6.45,6.6.45A71.11,71.11,0,0,1,282.92,62.45Z" style="fill:#fdaeb3"/><path d="M264.44,53.4s.21,4.93,8.31,3c2.22-.54,4.18-1,5.28-.46,1.66,5.21,1.71,7.71,2.3,7.51s-1.25-4.59,1.28-4.12c1.94.36,2.1,5.06,2.1,5.06s.17.38.24-.71c0-.66.49-11.22-1.12-13.44a2.94,2.94,0,0,0-3.89-.87s.14-5.35-7.53-1.41c-4.42,2.28-6.56.73-6.55.87A9.65,9.65,0,0,0,264.44,53.4Z" style="fill:#1d2468"/><path d="M275.38,115.61a8.18,8.18,0,0,1-1,1,2.77,2.77,0,0,1-1.31.53,3.17,3.17,0,0,0-1.4,1.07c-.19.24,0,.34.4.26s.91-.4,1.08-.4.17.2,0,.57a4.29,4.29,0,0,1-.9,1.2c-.28.21-1,.63-1.12.88s0,.38.38.26a12.24,12.24,0,0,0,1.35-.72,2.44,2.44,0,0,0,.51-.4,3.33,3.33,0,0,0,1.12.12,1.24,1.24,0,0,0,.52-.23l.17,0c.36-.15.54-1.39.73-1.73a14.13,14.13,0,0,1,1.79-1.56Z" style="fill:#fdaeb3"/><path d="M265.82,82.61c-.21,0-.49-.24-.85-.62-.11-.11-.27-.31-.44-.51l-.44-.3a1.19,1.19,0,0,0-.66-.21h0v0c-1.66,0-2.4-.75-4.43-.75,0,0,4.75-2.28,7.61-.66a9,9,0,0,0,1.21.12c.83,0,.59.44.33.58-.09,0-.32.06-.56.1l.05,0,.34.4c.37.45.86,1,.95,1.12s0,.24,0,.24C269.12,82.42,267.29,83.34,265.82,82.61Z" style="fill:#fdaeb3"/><path d="M268.12,80.24c-.09,0-.32.06-.56.1a7.67,7.67,0,0,0-1-.8,9,9,0,0,0,1.21.12C268.62,79.68,268.38,80.1,268.12,80.24Z" style="opacity:0.47000000000000003;mix-blend-mode:multiply;fill:url(#b)"/><path d="M292.26,103.67s-5.18-.77-5.57-1.76c-.23-.59-.16-5.33-.06-9.06,0-.79,0-1.55.06-2.21,0-1.43.07-2.41.07-2.41l9.69.91C295.54,93.32,292.26,103.67,292.26,103.67Z" style="fill:#fdaeb3"/><path d="M286.69,101.91a29.48,29.48,0,0,0-3.94,3.6c-.86,1-3.52,5.08-5.56,7.88a25.61,25.61,0,0,1-2.38,2.83l1.28,1.27s5.31-3.5,9.68-6.8,5.71-4.51,6.49-7S288.25,100.63,286.69,101.91Z" style="fill:#fdaeb3"/><path d="M286.31,80.2l.33,8.87s5.23,1.83,9.93.71c0,0,3-7,.62-13.73" style="fill:#fecb22"/><line x1="277.39" y1="97.14" x2="277.39" y2="78.49" style="fill:none;stroke:#192469;stroke-linecap:round;stroke-miterlimit:10;stroke-width:5.41389px"/></g></svg>