<svg xmlns="http://www.w3.org/2000/svg" viewBox="0 0 250 250"><title>register</title><rect width="250" height="250" style="fill:#515151"/><path d="M124.47,185a2.54,2.54,0,0,1-1.77-.73A2.48,2.48,0,0,1,122,182l3.53-17.68a2.44,2.44,0,0,1,.69-1.28l38.89-38.89a7.52,7.52,0,0,1,10.61,0l7.07,7.07a7.52,7.52,0,0,1,0,10.61l-38.9,38.89a2.46,2.46,0,0,1-1.28.68L125,185A2.7,2.7,0,0,1,124.47,185Zm5.84-18.94-2.65,13.25,13.26-2.65,38.36-38.35a2.52,2.52,0,0,0,0-3.54l-7.07-7.07a2.52,2.52,0,0,0-3.54,0ZM142.15,179h0Z" style="fill:#fff"/><path d="M112.5,170h-35A12.51,12.51,0,0,1,65,157.5v-65A12.51,12.51,0,0,1,77.5,80h10a2.5,2.5,0,0,1,0,5h-10A7.51,7.51,0,0,0,70,92.5v65a7.51,7.51,0,0,0,7.5,7.5h35a2.5,2.5,0,0,1,0,5Z" style="fill:#fff"/><path d="M147.5,125a2.5,2.5,0,0,1-2.5-2.5v-30a7.5,7.5,0,0,0-7.5-7.5h-10a2.5,2.5,0,0,1,0-5h10A12.5,12.5,0,0,1,150,92.5v30A2.5,2.5,0,0,1,147.5,125Z" style="fill:#fff"/><path d="M122.5,95h-30A7.52,7.52,0,0,1,85,87.5v-10A2.5,2.5,0,0,1,87.5,75h7.75a12.5,12.5,0,0,1,24.5,0h7.75a2.5,2.5,0,0,1,2.5,2.5v10A7.51,7.51,0,0,1,122.5,95ZM90,80v7.5A2.51,2.51,0,0,0,92.5,90h30a2.51,2.51,0,0,0,2.5-2.5V80h-7.5a2.5,2.5,0,0,1-2.5-2.5,7.5,7.5,0,0,0-15,0A2.5,2.5,0,0,1,97.5,80Z" style="fill:#fff"/><path d="M132.5,110h-50a2.5,2.5,0,0,1,0-5h50a2.5,2.5,0,0,1,0,5Z" style="fill:#fff"/><path d="M132.5,125h-50a2.5,2.5,0,0,1,0-5h50a2.5,2.5,0,0,1,0,5Z" style="fill:#fff"/><path d="M132.5,140h-50a2.5,2.5,0,0,1,0-5h50a2.5,2.5,0,0,1,0,5Z" style="fill:#fff"/></svg>