<svg xmlns="http://www.w3.org/2000/svg" viewBox="0 0 544 362"><title>reset-password-page</title><g style="isolation:isolate"><path d="M167.94,142.07H85.87c-12.38,0-12.54-14.07-1.55-16.9a22.9,22.9,0,0,1,19.32,3.75s3-34.59,31.24-30.53c22.27,3.2,21,25.44,21,25.44s4.58-9.15,16.59-5.69C185,121.75,183.63,142.07,167.94,142.07Z" style="fill:#6ccdea"/><path d="M328.68,68.88h77.45c11.68,0,11.83-13.28,1.46-15.95a21.61,21.61,0,0,0-18.23,3.53s-2.82-32.64-29.48-28.81c-21,3-19.8,24-19.8,24s-4.32-8.64-15.66-5.37C312.59,49.7,313.87,68.88,328.68,68.88Z" style="fill:#6ccdea"/><path d="M428,342.39a1.16,1.16,0,0,1-1.16-1.06L410.94,175.16a1.18,1.18,0,0,1,2.34-.23L429.16,341.1a1.16,1.16,0,0,1-1.05,1.28Z" style="fill:#f2b9a7"/><path d="M364.68,342.39h-.11a1.17,1.17,0,0,1-1.06-1.28l15.88-166.17a1.18,1.18,0,0,1,2.34.23L365.85,341.33A1.17,1.17,0,0,1,364.68,342.39Z" style="fill:#f2b9a7"/><rect x="379.29" y="187.12" width="34.09" height="2.35" style="fill:#f2b9a7"/><rect x="377.39" y="207.06" width="37.9" height="2.35" style="fill:#f2b9a7"/><rect x="375.48" y="227.01" width="41.71" height="2.35" style="fill:#f2b9a7"/><rect x="373.57" y="246.95" width="45.52" height="2.35" style="fill:#f2b9a7"/><rect x="371.74" y="266.9" width="49.27" height="2.35" style="fill:#f2b9a7"/><rect x="369.82" y="286.84" width="53.09" height="2.35" style="fill:#f2b9a7"/><rect x="367.87" y="306.78" width="56.95" height="2.35" style="fill:#f2b9a7"/><rect x="366.59" y="326.73" width="60.14" height="2.35" style="fill:#f2b9a7"/><path d="M378.5,176h35.68a2.06,2.06,0,0,0,2.06-2.06h0a2.06,2.06,0,0,0-2.06-2.06H378.5a2.07,2.07,0,0,0-2.07,2.06h0A2.07,2.07,0,0,0,378.5,176Z" style="fill:#f2b9a7"/><path d="M374.67,87.63S378,88.71,382.76,96s14.68,34,14.68,34l-33,4.63s-13-31.72-13.87-33a10.82,10.82,0,0,1-1.73-4.29L352.39,93Z" style="fill:#ffb41d"/><g style="opacity:0.61;mix-blend-mode:multiply"><path d="M374.46,109l.66-1.39c.82-1.75-.44-6.3,1.34-6.62,1.62-.29,12.54,18.53,12,19.1-.25.23-4.54-4.54-4.86-4.42-1.68.64-3.79-3.05-5.59-3.24a3.53,3.53,0,0,1-2.92-1.55" style="fill:#f9d8cd"/></g><path d="M399.22,135.46s.49,11.09.41,15.2c-.07,2.94-.08,9.27-.44,12.38a3.82,3.82,0,0,0,.39,2.18h0a38,38,0,0,1,3.67,11.41L405,188.05,391,189.89,380.56,156s3.47-13.7,4.57-13.78S399.22,135.46,399.22,135.46Z" style="fill:#ffb41d"/><path d="M421.92,239.39a115.59,115.59,0,0,0,.52-57.52l-21.08,2.35A108.8,108.8,0,0,0,389.07,154l16.75-13.39a115.54,115.54,0,0,0-18.3-23.78,117.61,117.61,0,0,0-8.83-8c-.79-.67-1.6-1.3-2.42-1.93a114.14,114.14,0,0,0-10.75-7.35l-13.37,16.74c-1.06-.65-2.13-1.3-3.21-1.92s-2.44-1.38-3.7-2a108.8,108.8,0,0,0-23-8.94l2.38-21.26a115.9,115.9,0,0,0-57.52-.52l2.37,21.17A108.84,108.84,0,0,0,239.16,115L225.82,98.26a115.47,115.47,0,0,0-41,40.29l16.6,13.27a108.75,108.75,0,0,0-12.9,30l-21.13-2.36a115.86,115.86,0,0,0-.52,57.51l21-2.34A108.88,108.88,0,0,0,200.07,265l-16.61,13.27a115.8,115.8,0,0,0,40.31,41.05L237,302.77a109.12,109.12,0,0,0,30.06,13l-2.34,21a115.71,115.71,0,0,0,57.51.53l-2.32-20.88a109.06,109.06,0,0,0,30.41-12.23l13.17,16.48a115.83,115.83,0,0,0,41-40.29L388,267.14A109.3,109.3,0,0,0,400.87,237ZM362,211.79a67.41,67.41,0,1,1-69.58-69.58A67.66,67.66,0,0,1,362,211.79Z" style="fill:#ef657f"/><path d="M294.6,293.15A83.72,83.72,0,0,1,211,206.7a83.82,83.82,0,0,1,81-80.94,83.72,83.72,0,0,1,86.41,86.42l-.74,0,.74,0a83.83,83.83,0,0,1-80.93,80.93C296.46,293.14,295.53,293.15,294.6,293.15Zm.09-166c-.91,0-1.82,0-2.74,0a82.34,82.34,0,0,0-79.51,79.51,82.24,82.24,0,1,0,82.25-79.56Z" style="fill:#f9d8ca"/><path d="M178.12,300.84a49,49,0,0,0,.22-24.36l-8.93,1a46.35,46.35,0,0,0-5.2-12.81L171.3,259a49.06,49.06,0,0,0-17.07-17.38l-5.66,7.08a46.18,46.18,0,0,0-12.68-5.45l1-9a49,49,0,0,0-24.36-.22l1,9a45.86,45.86,0,0,0-12.82,5.14l-5.66-7.07a49.06,49.06,0,0,0-17.38,17.07l7,5.62a46.1,46.1,0,0,0-5.45,12.71l-9-1a49.16,49.16,0,0,0-.23,24.36l8.91-1a46.17,46.17,0,0,0,5.17,12.84l-7,5.62a49.06,49.06,0,0,0,17.07,17.38l5.6-7a46.15,46.15,0,0,0,12.73,5.49l-1,8.88a49,49,0,0,0,24.36.22l-1-8.84a46,46,0,0,0,12.88-5.18l5.58,7a48.93,48.93,0,0,0,17.38-17.06l-7-5.58a45.86,45.86,0,0,0,5.44-12.75Zm-25.37-11.68a28.55,28.55,0,1,1-29.47-29.47A28.66,28.66,0,0,1,152.75,289.16Z" style="fill:#ef657f"/><path d="M124.2,323.62A35.47,35.47,0,0,1,88.77,287a35.5,35.5,0,0,1,34.28-34.28,35.45,35.45,0,0,1,36.6,36.6h0a35.5,35.5,0,0,1-34.28,34.28Zm0-70.3-1.16,0A34.87,34.87,0,0,0,89.4,287a34.84,34.84,0,0,0,36,36A34.86,34.86,0,0,0,159,289.3a34.84,34.84,0,0,0-34.79-36Z" style="fill:#ef657f"/><path d="M168.6,347.93c0,1.55-14.29,2.81-31.92,2.81s-31.93-1.26-31.93-2.81,14.3-2.81,31.93-2.81S168.6,346.38,168.6,347.93Z" style="fill:#fcf2eb"/><path d="M173.36,213.57c.7-.51,2.18-1.73,2.42-2.55.11-.38.79-1.57,1.37-2.69a21.91,21.91,0,0,1,1.47-2.26c.39-.49.93-1.66,1.34-1.32s-.13,1.62-.48,2.36a2.92,2.92,0,0,0-.32.85.86.86,0,0,0,.19.74c.1.13.75.14,1,.11a10,10,0,0,0,3.49-.73,14.76,14.76,0,0,0,2.29-1.29,2,2,0,0,1,.86-.5c.22,0,.54,0,.54.26a6.43,6.43,0,0,1-1,1.2c-.71.6,0,.09-.67.69a.6.6,0,0,0-.25.34,2.25,2.25,0,0,0,.06.36.84.84,0,0,1-.24.58,8.6,8.6,0,0,1-.75.85c-.37.38,0,.64-.43,1s-1.66.82-2.13,1.17a7.36,7.36,0,0,1-1.16.78,9.63,9.63,0,0,1-1.59.55c-1.47.44-2.14,1.65-3.33,2.66" style="fill:#feaf84"/><path d="M180.19,213.78a13.59,13.59,0,0,0,3.3-1.23c1.44-.83,3.28-1.64,4.18-2.78a.58.58,0,0,0,.1-.43,1.2,1.2,0,0,0-1.06.07c-.43.24-2.56,1.3-2.56,1.3" style="fill:#feaf84"/><path d="M179.77,213.18a22.44,22.44,0,0,0,3.78-1.54c1.43-.82,3.88-1.94,4.72-3.15a.46.46,0,0,0,0-.38,1.2,1.2,0,0,0-1.06.07l-3,1.63" style="fill:#feaf84"/><path d="M180.4,211.74a23,23,0,0,0,3.78-1.53,19.23,19.23,0,0,0,4.24-2.79.39.39,0,0,0,0-.42,1.2,1.2,0,0,0-1.06.07l-2.57,1.3" style="fill:#feaf84"/><path d="M178.44,215.58a7.28,7.28,0,0,0-.53-1.1,6.79,6.79,0,0,0-3-2.94s-7,5.22-9.9,6.87l-.82.43L164,219a65.75,65.75,0,0,0-8.1,4.25c-2-6.57-5.17-20.12-9.69-23.7h0a3.29,3.29,0,0,0-3.67-.55s-6.77,4.6-2.27,16.06a38.35,38.35,0,0,0,5.78,9.91,39.07,39.07,0,0,0,6.13,6.14h0s2.13,2.14,4.17,2a8.43,8.43,0,0,0,4-1.91h0C166,227.35,178.44,215.58,178.44,215.58Z" style="fill:#7e3838"/><path d="M178.44,215.57a7.5,7.5,0,0,0-.53-1.09c-2.27,2.27-11.6,10.63-16.38,14.18-5.22,3.87-6.82,2.85-6.82,2.85a4.92,4.92,0,0,1-.9-.53,6.68,6.68,0,0,1-2.67-5.53,108.39,108.39,0,0,0-.82-13.84s-2.72,8.33-4.27,13.31a39.07,39.07,0,0,0,6.13,6.14h0s2.13,2.14,4.17,2a8.43,8.43,0,0,0,4-1.91h0C166,227.36,178.44,215.57,178.44,215.57Z" style="opacity:0.08"/><path d="M144.67,174.77s2.07,3.48-.25,6.15-4.57-4.17-4.57-4.17Z" style="fill:#301b2c"/><path d="M119.55,205.43a37.47,37.47,0,0,0,.68,5.78,104.07,104.07,0,0,0,5.25,17.41,14.07,14.07,0,0,1,.63,8.14c-1.2,5.39.17,5.75.17,5.75s7.3,4.63,13.38,6.53c3.87,1.2,7.24,1.16,7.85-2.26a4.72,4.72,0,0,0,.08-.56c.72-.14.67-.88.62-1.18,0-.09-.05-.33-.08-.6-.06-.43-.11-.93-.11-1.1-.21-10.8,1.62-10.24,2.17-22.34.58-12.41-.22-18-3.46-21a12.57,12.57,0,0,0-7.48-3.72c-3.26-.56-7.14.32-11.31,1.31C121.58,199.05,119.5,200.73,119.55,205.43Z" style="fill:#7e3838"/><path d="M119.55,205.43a37.47,37.47,0,0,0,.68,5.78,104.07,104.07,0,0,0,5.25,17.41,14.07,14.07,0,0,1,.63,8.14c-1.2,5.39.17,5.75.17,5.75s7.3,4.63,13.38,6.53l5.67-.54,2.18-1.72a4.72,4.72,0,0,0,.08-.56c-5,.24-15-3.33-17-4.1a3.28,3.28,0,0,1-2.07-3.65,47.35,47.35,0,0,0,.79-7.52c0-2.38-1.12-6.41-2-9.31a18.76,18.76,0,0,1-.75-6.87,62.29,62.29,0,0,0,0-7.83l-4.51-2.44Z" style="opacity:0.08"/><path d="M125.39,251.55c-.52.09-1.85-2.24-1.85-2.24l.56-.74a2.42,2.42,0,0,1,1.25-.88l.09,0a1.06,1.06,0,0,1,1.2.41c.39.57,1,1.21,1.66,1.19h.09C129,249.28,125.91,251.47,125.39,251.55Z" style="fill:#f4d5b5"/><path d="M143.49,194.28a15,15,0,0,1-4,.07c0,.13,0,.74.08,1.34,0,.07,0,.15,0,.22,0,.59.09,1.11.09,1.11l-.44,3.31-2.81-1.25-4.17-1.21s-.13-3-.28-4.4a5.23,5.23,0,0,0-.09-.61c-.11-.41-1.67-3.34-2.81-6.2a16.6,16.6,0,0,1-1.16-4,3.49,3.49,0,0,1,0-.44c0-.79,0-1.58,0-2.35.12-2.21.54-4.26,1.92-5.4,1.86-1.56,14.56-6.89,14.92,2.31v0s.09.72.21,1.88c.08.8.17,1.81.24,2.93C145.6,186.62,145.71,193.77,143.49,194.28Z" style="fill:#feaf84"/><path d="M139.6,195.91a15.91,15.91,0,0,1-4.63-2.29,20.46,20.46,0,0,0,4.53.73c0,.13,0,.74.09,1.34A1.62,1.62,0,0,1,139.6,195.91Z" style="fill:#f29d77"/><path d="M139,202.6s1.48,23.08.22,31.27c0,0,1.65,4.42,2.71,4.8s1.84-2.24,2.89-5.07S141,202.4,141,202.4Z" style="fill:#ffb41d"/><path d="M137.81,201.15,139,202.6l2-.2a20.93,20.93,0,0,0,.14-2.52,4.38,4.38,0,0,0-1.91-.69Z" style="fill:#ffb41d"/><path d="M132.14,195.26a5.41,5.41,0,0,0-1.78,1.76,21.59,21.59,0,0,1,2.18,1.14c.93.57,5.4,3.72,5.4,3.72l1.31-2.69S134.66,196,132.14,195.26Z" style="fill:#6b2e2e"/><path d="M139.25,199.19a3.72,3.72,0,0,1,2.05,1.7s.8-1.53-.22-4.26a7.09,7.09,0,0,0-1.5-1.07Z" style="fill:#6b2e2e"/><path d="M126.83,247.74a8.71,8.71,0,0,0,1.08,1.18c.24.14.29-.15.19-.35S126.87,247.47,126.83,247.74Z" style="fill:#e5bb98"/><path d="M122.94,335.62s.34,6,.34,6.8c0,.45,3,.94,4.31,0,.13-2.21.83-6.79.87-8.1" style="fill:#ffbe9d"/><path d="M123.34,269.24s-8.32-14.19,2.94-26.73c0,0,7.74,3.47,13.95,3.88a30.9,30.9,0,0,0,7.36-.17,124.16,124.16,0,0,1,1.67,24.35Z" style="fill:#3e2739"/><polyline points="140.96 333.58 141.69 342.46 143.95 343.44 145.99 342.42 146.32 334.54" style="fill:#ffbe9d"/><path d="M149.34,301.2c-.33,7.66-2.5,22.25-2.49,37.91-2.14,1.28-4.85,1-5.9.2-1.62-13.52-6-27.43-1.34-39-1.84-6.95-4.8-21.7-6-28.52a2.32,2.32,0,0,0-.06-.38l1.07-3.16c-.29-8.63,5.33-15,11.15-12.77,1.28.48,3.19,4.16,3.38,6.81.16,2.1,0,34.43.09,35.2a19.78,19.78,0,0,1,0,2.4C149.34,300.28,149.35,300.72,149.34,301.2Z" style="fill:#3e2739"/><path d="M140,326.87c1.08,11.42,1,12.44,1,12.44-1.54-12.79-5.49-25-2-37.06a8,8,0,0,0,.12-4.15c-1.84-7.5-4.36-20.16-5.42-26.34l1.55-1.25s2.52-10.94,3.11-11.31-.1,3.72-.47,8.78-1.2,8.17.07,14.24S141.48,296.58,142,300C140.15,305.28,138.86,315.43,140,326.87Z" style="fill:#301b2c"/><path d="M133.24,300.35c-1.39,7.6-4.31,29.71-4.81,38.48-.23,1.47-5.07,1.21-5.94.53,0-.09,0-2.58,0-2.7-.21-10.27-3.18-28.93,1.23-38.4C126.37,292.5,134.75,292.18,133.24,300.35Z" style="fill:#3e2739"/><path d="M136.06,269.87c-.3-10.07-5-17.38-10.56-13.42-2.36,1.67-5.14,3-4.67,5.61.81,4.54,2.84,31.57,2.74,36.54-.21,11.22,8.81,7,9.37,3.86C134.37,294.47,136.21,275.35,136.06,269.87Z" style="fill:#3e2739"/><path d="M141,347.69a.35.35,0,0,0,.34.24h13.25c.79,0,1.27-.26,1.32-.62.08-.58-.47-.8-.76-.91l-7.38-3.14-1.74-.84a9.66,9.66,0,0,1-2.24.31,13.08,13.08,0,0,1-2.06-.27A5.43,5.43,0,0,0,141,347.69Z" style="fill:#001118"/><path d="M122.56,347.69a.36.36,0,0,0,.35.24h13.24c.79,0,1.27-.26,1.32-.62.08-.58-.47-.8-.76-.91l-7.38-3.14-1.74-.84a9.66,9.66,0,0,1-2.24.31,13.08,13.08,0,0,1-2.06-.27A5.43,5.43,0,0,0,122.56,347.69Z" style="fill:#001118"/><path d="M144.8,176.79A5,5,0,0,1,143,178h0c-1.67.75-4.38,1.3-8.61,1.43,0,0-.85.28-.63,2,0,.21.07.44.12.67.55,2.36,1.31,4.53.23,4.39-1.28-.16-1.83-5.07-3.76-3.42-.68.59-.53,1.64-.35,2.52a12.49,12.49,0,0,0,.79,2.4,12.45,12.45,0,0,1,1.5,5c0,.32-.15.43-.3.46a.74.74,0,0,1-.4,0c-.3-.09-.63-1.16-1.24-2.26a42.19,42.19,0,0,1-3-6.67c-.2-.55-.38-1.1-.54-1.63s-.24-.87-.34-1.3h0c-.78-3.47-.3-6.74,3.91-9.81,5.38-3.92,12.63-.82,12.63-.82S146.92,174.28,144.8,176.79Z" style="fill:#301b2c"/><polygon points="121.98 267.04 109.41 248.56 133.73 229.61 146.3 248.09 121.98 267.04" style="fill:#c98455"/><polygon points="146.3 248.09 131.24 259.83 130.89 260.09 121.98 267.04 107.86 248.91 117.19 241.65 119.25 240.05 132.19 229.97 146.3 248.09" style="fill:#e59a67"/><path d="M131.24,259.83l-.35.26s-.78-1-1.18-1.73a5.21,5.21,0,0,1-.48-1.66l-.62-.62h-.46s-.94-.61-4.36-4.85a104.09,104.09,0,0,1-6.6-9.58l2.06-1.6,7.58,7.7Z" style="fill:#d38e5f"/><path d="M128.61,254.88a8.76,8.76,0,0,1,1.61,2.74c.2.77,2.47-2.42,2.47-2.42L131,252.66" style="fill:#feaf84"/><path d="M122.29,199.68s-6.52,1.33-10,31.81l7.23,3.45s8-24.17,7.16-28.8S125.74,199.08,122.29,199.68Z" style="fill:#7e3838"/><path d="M112.32,231.45s7.16,15.28,16.29,24l3-2.08s-5.65-15.45-12.45-24.3S112.32,231.45,112.32,231.45Z" style="fill:#7e3838"/><path d="M135.38,256.43l-.43.34a11.14,11.14,0,0,0-2.53-1.55.84.84,0,0,0-.26-.24c.5-.22,1.19-.56.62-.57-.83,0-1.06-.45-1.06-.45l-.78.39.57.59a4.23,4.23,0,0,0-1.53,1.3l-.25-.31a4.86,4.86,0,0,0,.16,1.68,11.71,11.71,0,0,0,1.05,2.22h0c.1.2.67.85,1.06.85a.8.8,0,0,0,.64-.39c.16-.15.3,0,.56-.21s.25-.41.52-.63.5-.07.76-.19.34-.49.5-.61c.32-.25.62-.17.84-.6S135.38,256.43,135.38,256.43Z" style="fill:#feaf84"/><path d="M131.23,254.08a.92.92,0,0,1,.76.06,8.3,8.3,0,0,1,1.77.61,19.09,19.09,0,0,1,2.51,1.79c.15.25-.14.61-.94.59a19.36,19.36,0,0,1-3.83-1.62" style="fill:#feaf84"/><path d="M145.25,181.64a21.84,21.84,0,0,1-10.75-.34l-.73.18c-1.82.45-4.29.91-5.83,1.19l-1.15.21c-.13-.44-.24-.87-.34-1.3h0c.15-.37.3-.73.31-.8a10.83,10.83,0,0,1,1.2-.89c.63-.43,1.31-.88,1.5-1,.35-.28,7.7-2.76,7.83-2.76s3.35,1.12,5.72,1.93h0c.84.29,1.55.54,2,.68C145.09,179.51,145.18,180.52,145.25,181.64Z" style="fill:#feaf84;opacity:0.43;mix-blend-mode:multiply"/><path d="M146.11,176h0c-.47-2.37-2.45-8.9-10-8.26-11.18,1-11.44,8.3-10.05,13.74h0a.79.79,0,0,0-.34.84.66.66,0,0,0,.68.36,19,19,0,0,0,2.81-.53c4.18-.85,12-2.67,16.62-5.1a.49.49,0,0,0,.41-.21C146.78,176.19,146.11,176,146.11,176Z" style="fill:#ffb41d"/><path d="M130.16,169.22s8.46-2.11,11.43,9.61a20,20,0,0,0,3.36-1.31s-1.8-9.08-8.83-9.81C136.12,167.71,132.52,166.52,130.16,169.22Z" style="fill:#ffbf4d"/><path d="M133.71,180.68a22.58,22.58,0,0,0,12.48,0s4.75-1.41.05-3.84Z" style="fill:#ffb41d"/><path d="M247.71,347.93c0,1.55-14.29,2.81-31.92,2.81s-31.93-1.26-31.93-2.81,14.3-2.81,31.93-2.81S247.71,346.38,247.71,347.93Z" style="fill:#fcf2eb"/><path d="M181.72,229.78c-2.74-.33-4.34-1.54-5.94-2.11s-1.67.69-2.76.57-6.59.68-5.14,1.34,4.77-.05,4.92.57.22.62-.21,2.14,1.82,1.76,3.24,2.17,3-1.2,3.83-1.09,3.25.07,3.25.07,17.05,1.95,19.65,1.36,4.12-16.12,4.12-16.12l-7.36-.6s-1.54,10.08-1.88,10.46C194,228.48,181.72,229.78,181.72,229.78Z" style="fill:#ffccb0"/><path d="M204.71,199.56s-3,1.51-4.42,9.9l-1.61,10.38s.84,1.34,7.35,1.41" style="fill:#7e3838"/><g style="opacity:0.8;mix-blend-mode:multiply"><path d="M239.68,339.31l0,0h0Z" style="fill:#65b0c4"/></g><path d="M234.54,205.87a37.34,37.34,0,0,1-.68,5.78,104.2,104.2,0,0,1-5.25,17.42,14,14,0,0,0-.63,8.13c1.2,5.4-.17,5.75-.17,5.75s-7.3,4.64-13.38,6.53c-3.87,1.21-7.24,1.16-7.85-2.26a4.54,4.54,0,0,1-.08-.55c-.72-.15-.67-.89-.62-1.18,0-.1.05-.34.08-.61s.11-.93.11-1.09c.21-10.8-1.62-10.25-2.17-22.34-.58-12.42,1.24-18.46,1.53-22.07a46.79,46.79,0,0,1,9-2.4,21.45,21.45,0,0,1,7.44.08c1.33.26,2.86.61,4.27.94C232.51,199.5,234.59,201.18,234.54,205.87Z" style="fill:#7e3838"/><path d="M228.7,252c.52.08,1.85-2.25,1.85-2.25L230,249a2.48,2.48,0,0,0-1.25-.88l-.09,0a1.08,1.08,0,0,0-1.2.42c-.39.56-1,1.21-1.66,1.18h0a.11.11,0,0,1-.07,0C225.1,249.73,228.18,251.92,228.7,252Z" style="fill:#f4d5b5"/><path d="M227.26,248.19a9.35,9.35,0,0,1-1.08,1.18c-.24.13-.29-.16-.19-.36S227.22,247.91,227.26,248.19Z" style="fill:#e5bb98"/><path d="M235.85,336s-.34,6-.34,6.8c0,.45-2.95.94-4.31,0-.13-2.21-.83-6.79-.87-8.1" style="fill:#ffbe9d"/><path d="M229.72,269.69s8.32-14.2-2.94-26.74c0,0-7.74,3.47-13.94,3.89a30.52,30.52,0,0,1-7.37-.18A124.31,124.31,0,0,0,203.8,271Z" style="fill:#ffb41d"/><polyline points="210.9 333.94 210.16 342.81 207.9 343.79 205.87 342.78 205.53 334.9" style="fill:#ffbe9d"/><path d="M236.12,336.73c-.32-10.27.51-31.26-4.38-40.48v0c0-.19,0-.36-.06-.56-.65-4.93.27-28.62.57-33.23.11-1.61-1.31-3-3-4.22,2.12-1.07,3.44-1.81,3.44-1.81-.87-7.15-2.36-10.15-3.07-16s2.84-17.76,3.28-24.32c-.79,1.49-4.11,3.48-5.63-1.85s.91-15.74.91-15.74a13.51,13.51,0,0,0-2.81-.72c-1.77,4.09-3.24,11.68-3.24,11.68-10.3-1.29-15.48-.27-15.56-.26a67.88,67.88,0,0,1,.22-10.31,6.78,6.78,0,0,0-2.22.67c-.38,1.7-.71,7.22-.88,10.54-.52,5.06.1,19.73.1,26.79,0,4.51-.43,18.14-.67,25.17a5.69,5.69,0,0,0-.08.68c0,.39-.05,1.73-.07,3.64h0c-.05,8.37,0,27.89,0,28.51a20,20,0,0,0,0,2.41,11.66,11.66,0,0,0,0,1.34c.33,7.66,2.15,25.2,2.13,40.87,2.15,1.28,4.86,1,5.91.2,1.62-13.52,6.37-30.39,1.68-42,1.51-5.66,3.75-14.46,5.16-21.22,1,6.64,2.89,16.18,4.54,22.3,0,0,0,0,0,.06,1.78,7.52,7,31.65,7.95,40.38.31,1.46,5.13.95,6,.23C236.24,339.34,236.12,336.85,236.12,336.73Zm-19-72.53c0-.19-.09-.37-.14-.55l.24-.09C217.22,263.77,217.18,264,217.15,264.2Z" style="fill:#ffb41d"/><path d="M212.25,327.31c-1.09,11.42-1.34,12.36-1.34,12.36,1.53-12.79,5.84-28,2.36-40a8,8,0,0,1-.12-4.14c1.84-7.5,4.36-17.12,5.42-23.29L217,271s-2.52-10.95-3.11-11.32.1,3.72.47,8.79,1.2,8.17-.07,14.23-3.59,11.32-4.06,14.73C212.05,302.68,213.35,315.88,212.25,327.31Z" style="fill:#e89c13"/><path d="M210.9,348a.36.36,0,0,1-.35.24H197.31c-.79,0-1.27-.26-1.32-.62-.08-.57.46-.8.75-.9,0,0,7-3,7.38-3.15l1.75-.83a9.66,9.66,0,0,0,2.24.31,13.65,13.65,0,0,0,2-.28A5.43,5.43,0,0,1,210.9,348Z" style="fill:#001118"/><path d="M236.23,348a.36.36,0,0,1-.35.24H222.64c-.79,0-1.27-.26-1.32-.62-.08-.57.47-.8.75-.9,0,0,7-3,7.39-3.15l1.74-.83a9.66,9.66,0,0,0,2.24.31,13.88,13.88,0,0,0,2.06-.28A5.44,5.44,0,0,1,236.23,348Z" style="fill:#001118"/><path d="M217.27,261.71a2.08,2.08,0,0,0-2.08,2.07v3.32h1.26v-3.16a1,1,0,0,1,1-1h14.5a1,1,0,0,1,1,1v3.16h1.26v-3.32a2.08,2.08,0,0,0-2.08-2.07Z" style="fill:#7e3838"/><path d="M226.23,254.33a7.57,7.57,0,0,1-2,3.06c-.45.31-2.71,1.64-2.95,2.17a15.32,15.32,0,0,0-1.19,2.56c0,.49.39,1.9.78,2s-.2,1.11.22,1.49a1.18,1.18,0,0,0,1.47.16c.41-.32.93.22,1.29.06a5.66,5.66,0,0,1,.88-.45c.31-.06.45.35,1.09,0s.53-.46.81-.63.43.08.87-.37a7.88,7.88,0,0,0,1.13-2,6.05,6.05,0,0,0,.41-3.05,9.53,9.53,0,0,1,1.38-4.21Z" style="fill:#ffccb0"/><path d="M221.22,264a5.33,5.33,0,0,0,.31-2c.05-.49.25-.59.28-1.13.39.59,0,.75,0,1.88a2,2,0,0,1-.34,1.45.16.16,0,0,1-.28-.16Z" style="fill:#f2a181"/><path d="M217.26,261.71h4.32a1.5,1.5,0,0,0-.05.26c0,.34,0,.65-.05,1h-4a1,1,0,0,0-1,1v3.15h-1.26v-3.32A2.07,2.07,0,0,1,217.26,261.71Z" style="fill:#7e3838"/><path d="M232.81,236.41a30.15,30.15,0,0,0-2.34,5.56c-.54,2.24-5.14,14.86-5.14,14.86l2.84,2.22s9.52-14.51,10.3-19.41c.22-1.41-2.31-5.23-2.31-5.23Z" style="fill:#ffccb0"/><path d="M230,223.45s1.54,10.25,2.77,13,5.66,3.23,5.66,3.23a75.09,75.09,0,0,0,.21-16.55" style="fill:#ffccb0"/><path d="M239,224.67a42.55,42.55,0,0,1-8.85.22c-2.11-7.19-3.55-16.12-3.09-18.73.8-4.63.71-7.85,3.87-6.61C230.93,199.55,240,202.54,239,224.67Z" style="fill:#7e3838"/><path d="M211,267.1h27.33a1.24,1.24,0,0,1,1.24,1.24v2.37a0,0,0,0,1,0,0H209.77a0,0,0,0,1,0,0v-2.37A1.24,1.24,0,0,1,211,267.1Z" style="fill:#605c5a"/><path d="M210.06,270.71H239.3a0,0,0,0,1,0,0V281.1a.48.48,0,0,1-.48.48H210.53a.48.48,0,0,1-.48-.48V270.71A0,0,0,0,1,210.06,270.71Z" style="fill:#605c5a"/><rect x="210.06" y="270.71" width="29.25" height="0.46" style="fill:#474341"/><rect x="213.44" y="269.34" width="3.01" height="2.75" rx="0.33" style="fill:#ffb41d"/><rect x="232.89" y="269.34" width="3.01" height="2.75" rx="0.33" style="fill:#ffb41d"/><path d="M209.74,182.41c-.14-.8-1.05-1.2-1.67-.27a5.2,5.2,0,0,0-.37,3.07c.12,1.17,1.05,1.26,1.81,1.32" style="fill:#ffccb0"/><path d="M212.27,192.73a30.88,30.88,0,0,1,.51,4c-.3.52-1.52,1-1.52,1a3.41,3.41,0,0,0,3.41,3.27c5.86.29,7.14-3.85,7.14-3.85s-1.3-.46-1.36-.85-.16-7.89-.16-7.89" style="fill:#ffccb0"/><path d="M214.63,174.11c-1,.43-3.8.26-4.39,1.49a25.72,25.72,0,0,0-1,4.85,46.35,46.35,0,0,0-.67,4.83c-.25,2.08-.59,5.89,1.61,7.29a2.63,2.63,0,0,0,1.63.55c.95,0,1.91.1,2.86.13a9.38,9.38,0,0,0,4.49-.55c1.83-.89,2.5-3.67,2.73-5.53l1.36-10.64Z" style="fill:#ffccb0"/><path d="M222.67,185.24c-.71-.28-1.26-.61-1.6.07-.17.36-.24.84-.61,1a.77.77,0,0,1-1-.49,2.28,2.28,0,0,1,0-1.19l.42-2.63a3.82,3.82,0,0,0-.18-2.55,2.7,2.7,0,0,0-.94-.9,8.44,8.44,0,0,0-4.1-1.1c-1.43-.09-2.88,0-4.29-.26a4.62,4.62,0,0,1-1.7-.57c-.82-.52,10.19-5.58,12.55-4.9,1.64.47,3,.74,3.28,3.24a1,1,0,0,0,.36.35c1.54,1.06,3.06,1.8,3.17,4.09a21,21,0,0,1-2.15,9.11,5.37,5.37,0,0,1-1,1.57,3.2,3.2,0,0,1-2.14.82c-.7,0-2,.22-2.16-.48-.08-.5.86-1.54,1.1-2" style="fill:#7c4e50"/><path d="M220.56,188.21a.87.87,0,0,0,1.44.8,3,3,0,0,0,1.56-2.59c.05-1.23-.76-2.34-1.81-1.87a1.63,1.63,0,0,0-.81,1.72" style="fill:#ffccb0"/><path d="M212.33,193.15l3.13.13a3.76,3.76,0,0,1-2.82,1.83" style="fill:#f2a181"/><path d="M220.85,180.15s-3.53,3-12.49.38c-.68-.19-2.75-1.61,0-2.81Z" style="fill:#ffb41d"/><path d="M208.4,176.89h0c.21-2.33,1.44-8.84,8.78-9,10.89-.24,11.9,6.82,11.12,12.21h0a.75.75,0,0,1,.42.77.63.63,0,0,1-.62.42,17.88,17.88,0,0,1-2.76-.22c-4.12-.39-11.88-1.33-16.56-3.2a.48.48,0,0,1-.42-.16C207.78,177.17,208.4,176.89,208.4,176.89Z" style="fill:#ffb41d"/><path d="M223.09,168.73s-8.38-1.16-10,10.45a18.3,18.3,0,0,1-3.37-.92s.79-8.93,7.5-10.36C217.18,167.9,220.54,166.37,223.09,168.73Z" style="fill:#ffbf4d"/><path d="M485.57,347.93c0,1.55-14.29,2.81-31.92,2.81s-31.92-1.26-31.92-2.81,14.29-2.81,31.92-2.81S485.57,346.38,485.57,347.93Z" style="fill:#fcf2eb"/><path d="M398.56,188l18.05,55.51a114.37,114.37,0,0,0,25.41-.94c9.72-1.52,19.09-7,19.09-7l-14.85-51.29a173.61,173.61,0,0,1-20,4.1A113.69,113.69,0,0,1,398.56,188Z" style="fill:#e59a67"/><path d="M438.81,226.38a9.92,9.92,0,0,0,.35-2.62,10.34,10.34,0,0,0-.3-2.45l-1.86.21a9.91,9.91,0,0,0-1.08-2.67l1.47-1.18a10.3,10.3,0,0,0-1.61-2.1,10.73,10.73,0,0,0-1.94-1.52l-1.18,1.48a9.72,9.72,0,0,0-2.64-1.14l.21-1.87a9.8,9.8,0,0,0-2.62-.34,10.46,10.46,0,0,0-2.45.29l.21,1.87a9.57,9.57,0,0,0-2.67,1.07l-1.17-1.47a10,10,0,0,0-2.1,1.61,9.91,9.91,0,0,0-1.52,1.94l1.46,1.17a9.46,9.46,0,0,0-1.13,2.65l-1.87-.21a10.34,10.34,0,0,0-.34,2.62,9.9,9.9,0,0,0,.3,2.45l1.85-.21a9.3,9.3,0,0,0,1.08,2.67l-1.47,1.18a10.33,10.33,0,0,0,1.61,2.09,9.91,9.91,0,0,0,1.94,1.52l1.17-1.45a9.79,9.79,0,0,0,2.65,1.14L425,235a10.36,10.36,0,0,0,2.63.34A9.82,9.82,0,0,0,430,235l-.2-1.84a9.76,9.76,0,0,0,2.68-1.07l1.16,1.45a10,10,0,0,0,2.1-1.61,10.73,10.73,0,0,0,1.52-1.94l-1.45-1.16a10,10,0,0,0,1.13-2.66ZM433.53,224a5.94,5.94,0,1,1-6.13-6.14A6,6,0,0,1,433.53,224Z" style="fill:none;stroke:#c0621c;stroke-miterlimit:10;stroke-width:0.538901px;opacity:0.2"/><path d="M447.67,207.55a7,7,0,0,0,0-3.53l-1.29.14a6.68,6.68,0,0,0-.76-1.85l1-.82a6.82,6.82,0,0,0-1.12-1.47,7.43,7.43,0,0,0-1.35-1.05l-.82,1a6.82,6.82,0,0,0-1.84-.79l.14-1.3a6.83,6.83,0,0,0-1.82-.24,7.41,7.41,0,0,0-1.71.2l.15,1.3a6.6,6.6,0,0,0-1.86.75l-.82-1a7.14,7.14,0,0,0-1.46,1.13,6.78,6.78,0,0,0-1.06,1.35l1,.81a6.75,6.75,0,0,0-.79,1.85l-1.3-.15a7,7,0,0,0-.24,1.83,6.77,6.77,0,0,0,.21,1.7l1.29-.14a6.43,6.43,0,0,0,.75,1.86l-1,.82a7,7,0,0,0,1.12,1.46,7.5,7.5,0,0,0,1.35,1.06l.81-1a6.48,6.48,0,0,0,1.85.8l-.14,1.29a7.26,7.26,0,0,0,1.82.24,7.41,7.41,0,0,0,1.71-.21l-.15-1.28a7,7,0,0,0,1.87-.75l.81,1a6.81,6.81,0,0,0,1.46-1.13,6.5,6.5,0,0,0,1.06-1.35l-1-.8a6.75,6.75,0,0,0,.79-1.85ZM444,205.86a4.14,4.14,0,1,1-4.27-4.28A4.16,4.16,0,0,1,444,205.86Z" style="fill:#c0621c;opacity:0.2"/><path d="M430.64,205.13a8.6,8.6,0,0,0,.28-2.17,8.48,8.48,0,0,0-.24-2l-1.54.17a8.22,8.22,0,0,0-.9-2.21l1.22-1a8.46,8.46,0,0,0-1.33-1.74,8.67,8.67,0,0,0-1.61-1.26l-1,1.22a8.31,8.31,0,0,0-2.18-.94l.17-1.55a8.18,8.18,0,0,0-2.17-.29,8.49,8.49,0,0,0-2,.25l.17,1.55a7.74,7.74,0,0,0-2.21.88l-1-1.22a8.25,8.25,0,0,0-1.74,1.34,7.71,7.71,0,0,0-1.26,1.61l1.21,1a7.63,7.63,0,0,0-.94,2.19l-1.54-.17a8.18,8.18,0,0,0-.29,2.17,8.49,8.49,0,0,0,.25,2l1.53-.18a7.85,7.85,0,0,0,.9,2.22l-1.22,1a8.49,8.49,0,0,0,2.95,3l1-1.21a8,8,0,0,0,2.2,1l-.18,1.53a8.74,8.74,0,0,0,2.18.28,8.48,8.48,0,0,0,2-.24l-.17-1.53a7.94,7.94,0,0,0,2.22-.89l1,1.2a8.46,8.46,0,0,0,1.74-1.33,9.11,9.11,0,0,0,1.26-1.61l-1.21-1a7.82,7.82,0,0,0,.94-2.2Zm-4.38-2a4.92,4.92,0,1,1-5.08-5.09A4.93,4.93,0,0,1,426.26,203.12Z" style="fill:#c0621c;opacity:0.2"/><path d="M446.88,173s-7.69,1.55-3.9,9.7C447.38,192.14,446.88,173,446.88,173Z" style="fill:#7c4e50"/><path d="M444.57,176.42s-2.23,1.38-2.2,8.78c0,.26-.91,2.45-1,2.71-.31,1,.31,1.05,1.16,1.47.34,5.59,1.18,5.49,1.92,6s7.26-.76,11.39-2.81,5.52-8.14,3.78-11.89S449.39,173.2,444.57,176.42Z" style="fill:#ffc8b0"/><path d="M463.14,181.66c.66,3.51-1.06,8.88-7.94,11.2,0,0-.61-2.12-1.05-4.2s-6.28-4.45-8.81-6.72c-.13-.11-.25-.23-.36-.34a5.26,5.26,0,0,1-.06-6.9c1.42-1.75,4.56-4.64,10.17-2.74C460.1,173.66,462.32,177.32,463.14,181.66Z" style="fill:#7c4e50"/><path d="M446.55,189.47c1.08,1.18,1.29,3.55,1.2,5.81,0,.39-.05.78-.08,1.15a35.39,35.39,0,0,1-.62,4.26l7.95-.2a48.38,48.38,0,0,1,.19-7.64S444,186.69,446.55,189.47Z" style="fill:#ffc8b0"/><path d="M447.67,196.43a23.42,23.42,0,0,0,5.27-2.67c-2.22.73-5.19,1.52-5.19,1.52C447.72,195.67,447.7,196.06,447.67,196.43Z" style="fill:#f2a181"/><path d="M442,252.73l12.41-13.39s7.52,7.95,6.13,16.68c-.69,4.3-1.93,6.54-2.34,8.59s-1.36,28.44-.82,30.3,3.44,6.92,5,12.41c1.85,6.61,3.74,16.18,5.25,21.9s-1,13.35-1.51,11.42c-4.59-16.51-16.61-35.51-18.57-43.8S444.07,273.1,442,252.73Z" style="fill:#ffbe9d"/><path d="M462.35,328.65s3.8,10.8,3.5,12.17c-.19.84-1,3.66-1.23,4.06-.08.16-2.8,2.33-1,2.28s6-5.68,6.66-6.11a2.68,2.68,0,0,0,1.25-2.77,11.64,11.64,0,0,0-2.31-4.09,16.69,16.69,0,0,1-1.48-4.46Z" style="fill:#ffbe9d"/><path d="M461.22,347.65a10.7,10.7,0,0,1,2.93-2.34h0c.34-.43.61-.7.47-.43-.23.46,1,.69,1.57.2,2.08-1.66,2.68-4.15,3.7-5.33,1.46-1.68.44-3.9.28-4.27a9.56,9.56,0,0,1,3,1.34,5.83,5.83,0,0,1,1.59,1.77,24.43,24.43,0,0,0,1.42,3.25l-2,1.57-1.91-1.73-.53.56a4.58,4.58,0,0,0-1,2.07,10.61,10.61,0,0,1-.5,1.55,4.78,4.78,0,0,1-1.45,2l-.84.68a3.5,3.5,0,0,1-2.23.8h-3.9a.89.89,0,0,1-.91-1A1.76,1.76,0,0,1,461.22,347.65Z" style="fill:#001118"/><path d="M432.53,346c.27-.36,3.44-1.18,4.89-1.94a8.72,8.72,0,0,0,3.22-3.67c.26-.85-.19-5-.39-6.74-1.38-12-5.62-28.77-6.57-35.77-1.66-12.18-1.21-24.94,1.72-45l16.31-15s5.72,8.68,4.86,17.54c-.49,5.15-4.62,6.3-5.15,8.33s-8.27,34.68-8.27,34.68a59.58,59.58,0,0,1,3.47,14.16c.68,6.39-1.11,13.6-1,21,.07,1.45.13,4.91.65,6,.64,1.3,2.11,2.76,2.19,4.46a2.6,2.6,0,0,1-1.78,2.48c-1.2.5-2-.15-2.39-.13-2.48.12-3,1.88-7.27,2.26a6.77,6.77,0,0,1-4.39-1.38A.9.9,0,0,1,432.53,346Z" style="fill:#ffbe9d"/><path d="M432.3,347.52a3.08,3.08,0,0,0,.88,1,4.53,4.53,0,0,0,2.74.86H438a4.76,4.76,0,0,0,2.41-.65,12.63,12.63,0,0,0,1.35-.87,4.54,4.54,0,0,1,2.11-1,6,6,0,0,1,1.35,0l.14,2.52h2.88a14.41,14.41,0,0,1,.73-3.6,4.91,4.91,0,0,0-.2-2.21,10.31,10.31,0,0,0-1.86-2.91c-.11.39-.72,2.75-2.92,3.12-1.54.26-3.57,1.81-6.24,1.78-.77,0-1.56-.94-1.09-1.15s-.85,0-1.69.33a26.36,26.36,0,0,0-2.71,1.34C432,346.23,432,347,432.3,347.52Z" style="fill:#001118"/><path d="M467.85,220.9s-.84,4.3-1.37,6.07-3.12,13-5.58,12.81S445,228.33,445,228.33l1.91-3.82,11.86,5.66s1.08-12.85,2-15.91Z" style="fill:#ffc8b0"/><path d="M464.42,221.37c-1.25,4.44-3.08,12-4,13.24-.41.57-9-3-9-6.06l8.25-9.34Z" style="fill:#f2a181"/><path d="M456.92,200.73a14.36,14.36,0,0,1,7.21,2.44c5.14,3.82,3.92,18.26,3.92,18.26s.25.76-3.16.57a24.36,24.36,0,0,1-6.16-1.17l1-11.57Z" style="fill:#7e3838"/><path d="M465.48,209.47s.43,8.3-1.08,12.5a13.43,13.43,0,0,1-2.78-.37Z" style="fill:#6d2b2b"/><path d="M457.09,201.5c-.14-.94-.4-2-1.27-2.4a2.59,2.59,0,0,0-.78-.17,24.6,24.6,0,0,0-5.06-.38,7.39,7.39,0,0,0-3.27.57c-1.57.78-2.43,2.47-3.18,4Z" style="fill:#6d2b2b"/><path d="M467.71,327.87c-1-4.62-3.74-16.54-5.65-21.61s-4.56-10.52-4.66-11.35.62-5.81.85-7.46a.19.19,0,0,0,0-.11c0-.58,2.79-21.62,3.71-24.81a26.55,26.55,0,0,0,1.7-10.77c-.33-5.76-4.91-12.63-6.16-13.88l-21.21-.35s-3.66,8.65-4,14c-.74,11.26.39,35,.39,35l0,0a87.78,87.78,0,0,0,.67,9.24c.63,4.67,7.14,42.88,7.14,42.88a11.74,11.74,0,0,0,5.78-.64,4,4,0,0,1,0-.83c-.25-4.6,1.84-19.26,0-28.23s-2.58-10.89-2.58-10.89l2-9.8c0-.16.07-.56.13-.56a76.11,76.11,0,0,0,1.44,9.37c1,3.59,10.24,23.71,13.91,32.38,1.26,3,2.4,6.28,2.4,6.28s4.41-.5,5.67-2.45A30,30,0,0,1,467.71,327.87Z" style="fill:#3e2739"/><path d="M436.63,234.16c.75-1.47,1.4-7.63,1.14-9.2s-1.77-2.6-2.44-6.36a13.87,13.87,0,0,1,2.23-10.21c1.56-2.28,3.72-6.9,4.16-7,6.55-2,7.62-1,12-.85a29.66,29.66,0,0,1,5.71.66c2.37.53,5.22,1.32,5.7,4.53a32.28,32.28,0,0,1-1.39,14.71c-1,3.13-4.31,17.42-4.21,18,.37,2.18-3.16,2.72-6.68,3.12a56.47,56.47,0,0,1-10.14-.06C432.79,240.81,436.32,234.77,436.63,234.16Z" style="fill:#7e3838"/><path d="M439.6,217.15s-9.34,16.11-13.77,16.11c-2.54,0-16.77-17-16.77-17l4.82-1.29,11.63,8,7.05-11.62Z" style="fill:#ffc8b0"/><path d="M403.42,210.35a6.55,6.55,0,0,0,0-.89c-.11-.65-.54-1.19-.69-1.82a9.7,9.7,0,0,1-.1-1.52c0-.58-.39-1.55.08-1.62-.09-.37-.24-.78-.31-1.15s-.05-.81.27-.77c.48.07,1,.7,1.32,1s1,1.44,1.39,1.88a5.3,5.3,0,0,0,1.77,1.4s-.22-.41-.05-.61,1.14.25,2.11.38c.49.07,1.71,1.57,2.11,2s.79,3.06.9,3.61a7.69,7.69,0,0,0,2.1,3.06l-4.14,2c-.1,0-.55-.55-.61-.62a2.87,2.87,0,0,0-.94-.76c-1.27-1.24-3.17-1.85-4.26-3.3a4.27,4.27,0,0,1-.91-2.28Z" style="fill:#ffc8b0"/><path d="M407.11,206.86a5.79,5.79,0,0,0,1.8,1.08c.45.23.47.46,1,.7-.71.14-.7-.3-1.77-.7a2,2,0,0,1-1.24-.88.16.16,0,0,1,.25-.2Z" style="fill:#f2a181"/><path d="M447.82,200.12c-2.1.11-8.83.57-13,6.64-2.31,3.4-4.84,7.41-6,10.57.55,1.88,4.09,5.69,7.34,5.65.17-.12,5.93-4.76,6.85-9.55Z" style="fill:#7e3838"/><path d="M460.22,235.83a12.21,12.21,0,0,0-.1,2.07,14.09,14.09,0,0,0,.11,1.49,13.26,13.26,0,0,0,.38,1.82,14,14,0,0,0,1.94,4.32c-12.39,4.05-29.34-.64-29.34-.64s.56-1.91,1.28-4.43c.17-.65.36-1.33.56-2s.31-1.15.47-1.73l.56-2.09c.48-1.81.89-3.47,1.11-4.6a13.64,13.64,0,0,0-.35-7c12.15-7.76,6.69-22.29,6.69-22.29,3-1,7.64-.58,7.64-.58,10.71-.06,13.54,3.55,13.54,3.55a26.63,26.63,0,0,1-.13,14.92C463.89,220.67,461,230.31,460.22,235.83Z" style="fill:#ff9100"/><path d="M464.21,208.21c-3.77,2.26-8.4,2-11.62,1.38.15-2.57-.07-7.82-.07-7.82a69.27,69.27,0,0,1-1.06,7.58,21.13,21.13,0,0,1-2.76-.82s2.53-12.45,2.53-17.93c0-4.7-5-7.93-5-7.93l8.4-10.85a13.24,13.24,0,0,1,8.48,9.84C464.07,185.64,464.21,208.21,464.21,208.21Z" style="fill:#7c4e50"/><path d="M456.35,256.77a17.42,17.42,0,0,1-3.05,6.5l-7.16,26.9s-.14-1.13-.28-2.45c2.32-9.79,5.22-22.69,5.56-24C451.9,261.9,455.33,260.79,456.35,256.77Z" style="fill:#5275a0;opacity:0.35000000000000003;mix-blend-mode:multiply"/><path d="M460.22,235.83a12.21,12.21,0,0,0-.1,2.07,51.92,51.92,0,0,1-24.6-1.2l.56-2.09S443,237.87,460.22,235.83Z" style="fill:#ff5b00"/><path d="M460.61,241.21l-1.37.37a53,53,0,0,1-24.75-1.12c.17-.65.36-1.33.56-2,1.13.63,8.2,3.32,23.68,1.35.35,0,1.19-.34,1.5-.39A13.26,13.26,0,0,0,460.61,241.21Z" style="fill:#ff5b00"/><path d="M464.37,184.27c0,.5-.79.5-.79.5a62.78,62.78,0,0,1-9.92-.16l-1.28-.06-1.55-.06a.56.56,0,0,0-.13,0c-4.17-.19-11.34-.61-12.13-1.25-1.12-.89,3-2,3-2h0c-.12-3.34.69-11.18,11-11.39a18.63,18.63,0,0,1,2,.06h0c10,.84,9.74,9.83,9.25,13.39A.85.85,0,0,1,464.37,184.27Z" style="fill:#ffb41d"/><path d="M464.37,184.27c0,.5-.79.5-.79.5a62.78,62.78,0,0,1-9.92-.16l-1.28-.06c6,.13,8.74-1.31,8.74-1.31.8-12.12-6.13-13.15-6.54-13.29,10,.84,9.74,9.83,9.25,13.39A.85.85,0,0,1,464.37,184.27Z" style="fill:#ffa515"/><path d="M410.58,347.33H382.09l.26-.88,4.8-16.31.9-3.07.53-1.8.91-3.07,1.75-6a5.32,5.32,0,0,1,10.2,0l1.75,6,.9,3.07.53,1.8.91,3.07,4.79,16.31Z" style="fill:#ffb41d"/><path d="M413.85,349.54h-35a1.11,1.11,0,0,1-1.1-1.11h0a1.1,1.1,0,0,1,1.1-1.1h35a1.1,1.1,0,0,1,1.1,1.1h0A1.11,1.11,0,0,1,413.85,349.54Z" style="fill:#ffb41d"/><polygon points="404.09 325.27 388.58 325.27 389.49 322.2 403.19 322.2 404.09 325.27" style="fill:#ffc969"/><polygon points="405.53 330.14 387.15 330.14 388.05 327.07 404.62 327.07 405.53 330.14" style="fill:#ffc969"/><polygon points="410.58 347.33 382.09 347.33 382.35 346.45 410.32 346.45 410.58 347.33" style="fill:#ff8f1f"/><path d="M91.29,347.33H62.8l.26-.88,4.79-16.31.91-3.07.53-1.8.9-3.07,1.75-6a5.32,5.32,0,0,1,10.2,0l1.75,6,.91,3.07.53,1.8.9,3.07L91,346.45Z" style="fill:#ffb41d"/><path d="M94.56,349.54h-35a1.11,1.11,0,0,1-1.1-1.11h0a1.1,1.1,0,0,1,1.1-1.1h35a1.1,1.1,0,0,1,1.1,1.1h0A1.11,1.11,0,0,1,94.56,349.54Z" style="fill:#ffb41d"/><polygon points="84.8 325.27 69.29 325.27 70.19 322.2 83.89 322.2 84.8 325.27" style="fill:#ffc969"/><polygon points="86.23 330.14 67.85 330.14 68.76 327.07 85.33 327.07 86.23 330.14" style="fill:#ffc969"/><polygon points="91.29 347.33 62.8 347.33 63.06 346.45 91.03 346.45 91.29 347.33" style="fill:#ff8f1f"/><path d="M270.71,60.4l-2.89-12-5,1.21a32.38,32.38,0,0,0-7.63-10.49l2.68-4.4L247.33,28.3l-2.69,4.39a32.29,32.29,0,0,0-12.82-2l-1.21-5-12,2.9,1.21,5a32.19,32.19,0,0,0-10.5,7.64l-4.39-2.69-6.43,10.53,4.39,2.68a32.19,32.19,0,0,0-2,12.83l-5,1.21,2.89,12,5-1.21a32.41,32.41,0,0,0,7.64,10.5l-2.69,4.39,10.53,6.43,2.68-4.4a32.14,32.14,0,0,0,12.82,2l1.22,5,12-2.9-1.22-5A32.31,32.31,0,0,0,257.26,85l4.4,2.69,6.43-10.53-4.4-2.69a32.11,32.11,0,0,0,2-12.82ZM238.8,85.88a23.45,23.45,0,1,1,17.27-28.3A23.45,23.45,0,0,1,238.8,85.88Z" style="fill:#ef657f"/><path d="M236.81,77.66a15,15,0,1,1,11-18.09A15,15,0,0,1,236.81,77.66Z" style="fill:#ef657f"/><path d="M447.71,107.93l-2-8.23-3.45.83A22.28,22.28,0,0,0,437,93.32l1.84-3-7.22-4.42-1.84,3A22.15,22.15,0,0,0,421,87.53l-.83-3.44-8.23,2,.83,3.44a22,22,0,0,0-7.21,5.24l-3-1.84-4.42,7.22,3,1.85a22.07,22.07,0,0,0-1.38,8.8l-3.44.83,2,8.23,3.45-.83a22.17,22.17,0,0,0,5.24,7.21l-1.84,3,7.22,4.41,1.85-3A22.07,22.07,0,0,0,423,132l.83,3.45,8.23-2-.83-3.45a22.28,22.28,0,0,0,7.21-5.24l3,1.84,4.41-7.22-3-1.85a22,22,0,0,0,1.38-8.8ZM425.8,125.42A16.09,16.09,0,1,1,437.66,106,16.09,16.09,0,0,1,425.8,125.42Z" style="fill:#ef657f"/><path d="M424.44,119.78A10.29,10.29,0,1,1,432,107.36,10.29,10.29,0,0,1,424.44,119.78Z" style="fill:#ef657f"/><path d="M307.64,347.93c0,1.55-14.29,2.81-31.92,2.81s-31.92-1.26-31.92-2.81,14.29-2.81,31.92-2.81S307.64,346.38,307.64,347.93Z" style="fill:#fcf2eb"/><path d="M281.56,175.75a11.21,11.21,0,0,1,2.73,3.89,5.11,5.11,0,0,1-.38,4.6,2.11,2.11,0,0,1-2.15,1,2.53,2.53,0,0,1-.62-.3,8.24,8.24,0,0,1-3.73-5.85" style="fill:#7c4e50"/><path d="M256.83,336s-1.43,4.14-1.84,5.17-3.48.09-3.65-.58,1.2-5.61,1.2-5.61" style="fill:#fcb6ac"/><path d="M250.43,340.71c-.37,1.1-1.06,2.66-.92,3.22s4,2.2,4.91,2.73a10.72,10.72,0,0,0,2.82,1.07c2.59.47,4.58,0,4.77-.38.83-1.68-4.3-2.8-6.49-7.54a1.06,1.06,0,0,0-.79.36,1.78,1.78,0,0,1-2.19.44,2.88,2.88,0,0,1-1.08-1.23A2,2,0,0,0,250.43,340.71Z" style="fill:#001118"/><path d="M291.09,337.72s-.1,4.38-.18,5.49-3.29,1.14-3.66.55-.56-5.71-.56-5.71" style="fill:#fcb6ac"/><path d="M286.42,344.13c0,1.17-.21,2.87.1,3.35s4.52.88,5.51,1.12a10.88,10.88,0,0,0,3,.16c2.61-.34,4.36-1.38,4.43-1.82.28-1.85-5-1.35-8.47-5.2a1,1,0,0,0-.65.58,1.81,1.81,0,0,1-2,1.09,2.92,2.92,0,0,1-1.4-.85A2,2,0,0,0,286.42,344.13Z" style="fill:#001118"/><path d="M326.49,167c0-.48-.64-.3-.83.08,0,0-.06.17-.11.33a13.59,13.59,0,0,0,.19-1.56c0-.45-.59-.33-.81,0a6.51,6.51,0,0,0,.06-.65c0-.58-.64-.39-.83.08a6.54,6.54,0,0,0-.2.78,3.31,3.31,0,0,0,0-.43c0-.48-.57-.4-.76,0a6.54,6.54,0,0,0-.23.9c-.11.47-.28,1-.38,1.44s-.77,2.43-1.8,2.56c-1.58.21-.37-2.41-1.41-3.11-.33-.22-.87,1.85-1,3a13,13,0,0,0-.13,2.48,18.22,18.22,0,0,1,.26,2.14,8.91,8.91,0,0,1-1.06,2l3.85,1.21a15.43,15.43,0,0,1,1.62-2.54,9,9,0,0,0,2.72-4,17.63,17.63,0,0,0,.71-3.14S326.5,167.19,326.49,167Z" style="fill:#fcb6ac"/><path d="M286.92,196.76s12.44.92,19.81-6.09c6-7.1,11.91-15,12.36-15.76,1,.5,3.22,1.73,3.22,1.73S313.87,192,310.8,195.37s-9,8.91-20.78,10.92C285,199.49,286.92,196.76,286.92,196.76Z" style="fill:#fcb6ac"/><path d="M295.32,296.5c.72-9.4-2.53-38.86-2.84-41.4s-2.1-2.86-3.47-3.27c-6.79-2.05-14.86,8.5-12.71,18a4.21,4.21,0,0,0,.12.48c1.27,5.49,8.48,23.11,8,28.2-3.95,10.66.53,32.76,1.88,42h.49a27.3,27.3,0,0,0,5.3-.58S294.6,305.9,295.32,296.5Z" style="fill:#ffb41d"/><path d="M286.69,298.35c.25-3.47-3.26-31.06-4.13-30.68a1.47,1.47,0,0,0-.62.68c-.73,1.25-1.42,2.52-2,3.83a32.8,32.8,0,0,0-1.61,4.16c2.54,7.51,6.48,18.32,6.1,22.13-2.34,6.32-1.72,16.66-.54,26C283.4,312.19,286.5,301.12,286.69,298.35Z" style="fill:#e89c13"/><path d="M291.38,245.07a32,32,0,0,1-7.72.5c-6.53-.17-14.82-3.48-14.82-3.48-8.33,9-3.75,19.58-4,23.06-.28,3.31-.25,18.78-.9,28.17a4.09,4.09,0,0,1-.71,2.09c-6.18,8.8-8.93,29.54-11.33,40.75l-.09.39a28.62,28.62,0,0,0,5.61,1.57l.32-.93c2.52-7.61,14.14-29.43,17-38,2.62-7.74,9.4-31.22,9.53-31.2l8.64,1.48A165.87,165.87,0,0,0,291.38,245.07Z" style="fill:#ffb41d"/><path d="M268.2,185.67a12.34,12.34,0,0,0,2,3.62c1.62,2.27,3.65,4.51,3.83,4.86a4.57,4.57,0,0,1-.56,4.7l4.46,4.07,1.37,1.25.91-.91,2.79-2.78.14-3.24a4.74,4.74,0,0,1-1.26-1.91l-.12-.37c-.11-.37-.2-.68-.21-.76.31-.15,1.1-.47,2.5-1.25s1.88-2.64,1.5-4.37c-.31-1.37-2.45-8.23-2.45-8.23-1.95-8.5-13-3.28-14.45-1.65S267.62,183.07,268.2,185.67Z" style="fill:#fcb6ac"/><path d="M285.65,196.62A24.72,24.72,0,0,0,297.71,195c3.21,3.78,4.52,9.86,4.52,9.86s-7.78,4.94-13.46,5.42A79.34,79.34,0,0,0,285.65,196.62Z" style="fill:#7e3838"/><path d="M286.75,197.81a27.33,27.33,0,0,1,4.65,12,35.09,35.09,0,0,0,10.83-4.94c-1.73.56-9.09,3.3-10.1,1A35.11,35.11,0,0,0,286.75,197.81Z" style="fill:#682a2a"/><path d="M292.48,255.1s-10,2.66-24.63.82c-1.55-.18-2.41-.29-4.05-.59,2.2-7.34,1.5-21.15,1.71-27.15,0,0,.23-12.18.31-16.92a46.46,46.46,0,0,1,.57-7.56,3.67,3.67,0,0,1,.73-1.76c1.13-.93,2.32-1.84,3.59-2.69a9.3,9.3,0,0,1,6.48,3.64,10.28,10.28,0,0,1,1.45,5.3,15.58,15.58,0,0,1-.24,3.23l9.66-2.58s.05-.77,0-2c-.08-2.54-.56-7.06-2.72-10.32a5.76,5.76,0,0,1,2.54.24,11,11,0,0,1,1.5,3.59,66.16,66.16,0,0,1,1.47,6.48c.17.93.32,1.87.47,2.82C294.19,229.1,292.48,255.1,292.48,255.1Z" style="fill:#ffb41d"/><path d="M278.4,211.42l9.66-2.58s.46-7.5-2.72-12.29a17.44,17.44,0,0,0-2.67.25c.63,1.29.14,2.4-.89,2.71-2.89.88-7.71-2-7.71-2a19,19,0,0,0-3.36,1.71C271.08,199.33,280.19,200.71,278.4,211.42Z" style="fill:#7e3838"/><path d="M342.64,166.09l3.7-.9-2.13-8.82-3.7.89a23.58,23.58,0,0,0-5.61-7.72l2-3.23-7.74-4.73-2,3.23a23.75,23.75,0,0,0-9.44-1.48l-.89-3.68L308,141.78l.89,3.68a23.76,23.76,0,0,0-7.72,5.62l-3.23-2-4.73,7.74,3.23,2a23.6,23.6,0,0,0-1.47,9.44l-3.7.89,2.13,8.82,3.7-.89a23.73,23.73,0,0,0,5.61,7.72l-2,3.23,7.74,4.74,2-3.24A23.67,23.67,0,0,0,319.9,191l.89,3.7,8.82-2.13-.89-3.7a23.87,23.87,0,0,0,7.72-5.61l3.23,2,4.73-7.75-3.23-2A23.73,23.73,0,0,0,342.64,166.09Z" style="fill:#ef657f;stroke:#f9d8ca;stroke-miterlimit:10"/><path d="M264.78,209s0,12.6,5.93,13c4.24.29,4.85-9.48,4.85-9.48Z" style="fill:#7e3838"/><path d="M283.82,213.81c.17,1.41,0,1.68,0,1.68-11.71,3.36-16.71-1.34-16.71-1.34l9.9-5.74,1.63-.22,9.42-1.33,1.55-.21a10.59,10.59,0,0,1,1.24.2c.17.93.32,1.87.47,2.82A62.34,62.34,0,0,1,283.82,213.81Z" style="fill:#f29b75;opacity:0.49;mix-blend-mode:multiply"/><path d="M277.43,215.09a46.57,46.57,0,0,0,14.22-6.58,10.94,10.94,0,0,0,4.25-6.16c1.23-6.87-1-19.3-2-23.85-3.08.2-3.7.85-3.7.85s-.94,13.4-.82,21.3c0,0-7.55,4.74-15.58,4.26" style="fill:#fcb6ac"/><path d="M290.19,179.74a9.09,9.09,0,0,0-.73-3.6c-.73-1.3-2.68-3.11-2.15-5a6.2,6.2,0,0,1,3.38-3.15c3-1.21,4.17-.87,4.38-.21s-1.53,2-1.43,3.26.75,1.69,1.28,2.82c.8,1.7-1,3.74-1,4.83C293.93,179.45,290.19,179.74,290.19,179.74Z" style="fill:#fcb6ac"/><path d="M275.32,204.45s2.5-.3,5.52-.45a35.31,35.31,0,0,1,2.52,9.82s-5.72,4.11-14.41,1.32a6.14,6.14,0,0,1-4.16-5.77c-.18-6.07,2.87-7.86,2.87-7.86S272.7,199.91,275.32,204.45Z" style="fill:#7e3838"/><path d="M279,177.69c2.46-.76,3.87-.66,2.42-4.23-.84-2.09-11,1-12.1,1.65-4,2.33-4.38,6.25-3.4,10.21,0,0,2.41,8.37,8.75,8.69a17.42,17.42,0,0,0-.65-3.86s-2.72-.81-3.18-2.34A1.41,1.41,0,0,1,272,186.1c.77,0,1.36.94,1.36.94a16.73,16.73,0,0,0-.3-3.18,2.55,2.55,0,0,0-.9-1.4C272.29,182.24,273.55,179.4,279,177.69Z" style="fill:#7c4e50"/><path d="M277.68,194.33a5.53,5.53,0,0,0,4.05.63c-.11-.37-.2-.68-.21-.76A15.33,15.33,0,0,1,277.68,194.33Z" style="fill:#f2a49c"/><path d="M264.77,247.19s18.65,2.73,28.14,1.26v5.33a79.67,79.67,0,0,1-29.11-1.35S263.62,249,264.77,247.19Z" style="fill:#ff9100"/><path d="M289.37,255.43h0a.27.27,0,0,1-.27-.27v-2.67a.27.27,0,0,1,.27-.27h0a.27.27,0,0,1,.26.27v2.67A.27.27,0,0,1,289.37,255.43Z" style="fill:#e2e2e2"/><path d="M290.42,255.33h0a.27.27,0,0,1-.27-.27v-2.67a.27.27,0,0,1,.27-.27h0a.27.27,0,0,1,.26.27v2.67A.27.27,0,0,1,290.42,255.33Z" style="fill:#e2e2e2"/><path d="M291.52,255.33h0a.27.27,0,0,1-.26-.27v-2.67a.27.27,0,0,1,.26-.27h0a.27.27,0,0,1,.27.27v2.67A.27.27,0,0,1,291.52,255.33Z" style="fill:#e2e2e2"/><path d="M292.52,255.24h0a.27.27,0,0,1-.27-.26V252.3a.26.26,0,0,1,.27-.26h0a.26.26,0,0,1,.26.26V255A.26.26,0,0,1,292.52,255.24Z" style="fill:#e2e2e2"/><path d="M288.49,253.47s-.3,2.81.16,3.1a9.88,9.88,0,0,0,4.15-.25c.3-.29.11-3,.11-3Z" style="fill:#ff9100"/><path d="M265.45,240.8l-.09,1.68a.89.89,0,0,0,.83.94l1.66.09-1,17.75a.39.39,0,0,0,.37.41l1.23.07a.38.38,0,0,0,.41-.37l1-17.74,1.78.1a.88.88,0,0,0,.93-.83l.1-1.68a.89.89,0,0,0-.83-.94l-5.45-.31A.89.89,0,0,0,265.45,240.8Z" style="fill:#e2e2e2"/><path d="M267.85,243.51l-1.66-.09a.89.89,0,0,1-.74-.49h.11l2.31.14Z" style="fill:#cecece"/><path d="M272.67,241.21l-.1,1.69a.88.88,0,0,1-.94.83l-1.77-.1-1,17.74a.4.4,0,0,1-.42.37l-1.24-.07a.39.39,0,0,1-.36-.42v0l1,.06a.4.4,0,0,0,.41-.36l1-17.75,1.77.09a.86.86,0,0,0,.93-.82l.1-1.68a.72.72,0,0,0-.09-.44A.88.88,0,0,1,272.67,241.21Z" style="fill:#cecece"/><path d="M276,258.89l.52-14.87a1.88,1.88,0,0,0,1.22-1.69,1.91,1.91,0,0,0-.85-1.65l0,1.85-1,.58-1.14-.44-.21-1.76a1.84,1.84,0,0,0-.57,1.29,1.87,1.87,0,0,0,1.09,1.77l-.52,14.86a1.89,1.89,0,1,0,2.56,1.83A1.88,1.88,0,0,0,276,258.89Zm-.22,2.77-1.21,0-.57-1.07.64-1,1.21,0,.56,1.07Z" style="fill:#cecece"/><path d="M276.31,259.06a.09.09,0,0,0-.05,0,1.71,1.71,0,0,0-.23-.13v-.06l.53-14.8a1.92,1.92,0,0,0,1.21-1.71,1.9,1.9,0,0,0-.85-1.64h0l0,1.83-1,.59-1.14-.43v-.12l-.2-1.65a2.62,2.62,0,0,0-.22.25,2,2,0,0,0-.36,1,2,2,0,0,0,.54,1.39,2.31,2.31,0,0,0,.29.24l.27.15-.52,14.86a1.89,1.89,0,0,0-1.22,1.69A1.85,1.85,0,0,0,274,262a1.88,1.88,0,0,0,3.18-1.3A1.82,1.82,0,0,0,276.31,259.06Zm-.44.51.57,1.07-.64,1-1.21,0-.11-.21-.45-.86.65-1,1,0Z" style="fill:#cecece"/><path d="M276.26,259a1.71,1.71,0,0,0-.23-.13v-.06a1.12,1.12,0,0,0-.28-.16l.52-14.87a1.88,1.88,0,0,0,1.23-1.69,1.83,1.83,0,0,0-.58-1.42l0,1.83-1,.59-1.14-.43v-.12l-.27-.11-.15-1.29a2,2,0,0,0-.36,1,2,2,0,0,0,.54,1.39,2.19,2.19,0,0,0,.29.17v.07l.27.15-.52,14.86a1.89,1.89,0,0,0-1.22,1.69A1.85,1.85,0,0,0,274,262a1.8,1.8,0,0,0,.94.29,1.88,1.88,0,0,0,1.42-3.2A.09.09,0,0,0,276.26,259Zm-.46,2.64-1.21,0-.11-.21-.16,0-.57-1.05.64-1,1.21.05.12.21h.15l.57,1.07Z" style="fill:#e2e2e2"/><path d="M267.4,247.88l2.52.31-.24,4.95a16.7,16.7,0,0,1-2.57-.42Z" style="fill:#ff9100"/><path d="M274.37,248.69a19,19,0,0,0,2.52.17l-.23,5.09a15.6,15.6,0,0,1-2.64-.32Z" style="fill:#ff9100"/><path d="M288.05,254.32a1.87,1.87,0,0,1,0,.2,1.17,1.17,0,0,1-.21.51c-.18.18-4.57.36-4.93,0s-.09-6.5,0-6.73a17.85,17.85,0,0,1,5.11,0,.48.48,0,0,1,.08.28.93.93,0,0,1,0,.26l-4.14,0c0,.52-.12,5.56-.12,5.56C284.64,254.52,288.05,254.32,288.05,254.32Z" style="fill:#e2e2e2"/><path d="M288.05,254.32a1.87,1.87,0,0,1,0,.2c-.48.06-4.17.21-4.34.12a51.14,51.14,0,0,1,0-5.94,34.41,34.41,0,0,1,4.39-.1.93.93,0,0,1,0,.26l-4.14,0c0,.52-.12,5.56-.12,5.56C284.64,254.52,288.05,254.32,288.05,254.32Z" style="fill:#cecece"/><path d="M286.77,252a.76.76,0,0,1-.08.21c-.18.39-3.72.29-4.27-.16v-.53l4.21-.39A.88.88,0,0,1,286.77,252Z" style="fill:#e2e2e2"/><path d="M286.77,252a.76.76,0,0,1-.08.21c-.18.39-3.72.29-4.27-.16V252a9.34,9.34,0,0,0,2,.28A8.62,8.62,0,0,0,286.77,252Z" style="fill:#cecece"/><path d="M268.46,171.14c-8.19,4.44-4.49,12.26-2.87,15h0s-.28,1.2.93.77c0,0,5.28-5.92,17-9.28C284.26,177,279.43,165.18,268.46,171.14Z" style="fill:#ffb41d"/><path d="M269.75,183.14s7.52-.38,12.28-3,.77-4,.77-4l-5.89.61Z" style="fill:#ffb41d"/><path d="M265.74,173.13s6.64-3.85,11.94,5.76a10.89,10.89,0,0,1,2.81-1.36,9.94,9.94,0,0,0-10.23-7.23A5.22,5.22,0,0,0,265.74,173.13Z" style="fill:#ffbf4d"/><path d="M363.7,85h-2V83a.58.58,0,0,0-1.15,0v2h-2a.58.58,0,0,0,0,1.15h2v2a.58.58,0,0,0,1.15,0v-2h2a.58.58,0,0,0,0-1.15Z" style="fill:#f9c9b7"/><path d="M353,25h-2V23a.58.58,0,0,0-1.15,0v2h-2a.58.58,0,0,0,0,1.15h2v2a.58.58,0,0,0,1.15,0v-2h2A.58.58,0,0,0,353,25Z" style="fill:#f9c9b7"/><path d="M181,161.23h-2v-2a.57.57,0,1,0-1.14,0v2h-2a.58.58,0,1,0,0,1.15h2v2a.57.57,0,0,0,1.14,0v-2h2a.58.58,0,1,0,0-1.15Z" style="fill:#f9c9b7"/><path d="M439.11,151.06h-2v-2a.58.58,0,0,0-1.15,0v2h-2a.58.58,0,0,0,0,1.15h2v2a.58.58,0,0,0,1.15,0v-2h2a.58.58,0,0,0,0-1.15Z" style="fill:#f9c9b7"/><path d="M146.84,45.69h-2v-2a.58.58,0,0,0-1.15,0v2h-2a.58.58,0,0,0,0,1.15h2v2a.58.58,0,0,0,1.15,0v-2h2a.58.58,0,0,0,0-1.15Z" style="fill:#f9c9b7"/><circle cx="199.4" cy="94.61" r="2.03" style="fill:#f9c9b7"/><path d="M337.9,225a2,2,0,1,1-2-2A2,2,0,0,1,337.9,225Z" style="fill:#f9c9b7"/><path d="M106,174a2,2,0,1,1-2-2A2,2,0,0,1,106,174Z" style="fill:#f9c9b7"/><circle cx="244.89" cy="13.28" r="2.03" style="fill:#f9c9b7"/><path d="M421.21,161.61a2,2,0,1,1-2-2A2,2,0,0,1,421.21,161.61Z" style="fill:#f9c9b7"/><path d="M348.94,114.39A109.84,109.84,0,0,1,336.4,125c-3.3,2.18-9.91,6.17-9.91,6.17l-.23-.37a4.11,4.11,0,0,0-1.66,1.94,11.32,11.32,0,0,1-1.91,2.79l-.69-3.08,1.61-2.34,3.95-3,17.68-14.83C346.5,113,347.73,113.69,348.94,114.39Z" style="fill:#f9d8cd"/><path d="M327.56,129.15a14.75,14.75,0,0,0-3,2.27,5.2,5.2,0,0,0-1,2.52,6,6,0,0,1-2,2.73c-.44.37-.64,0-.49-.77s.75-1.77.74-2.1-.4-.31-1.11,0a8,8,0,0,0-2.27,1.77c-.4.53-1.19,2-1.68,2.17s-.73.05-.49-.72a11.51,11.51,0,0,1,.85-2.32c.25-.5-.24-1.08.53-2.88a14.4,14.4,0,0,1,.89-1.57,1.65,1.65,0,0,1,.07-.32c.27-.69,2.66-1.09,3.31-1.46a31,31,0,0,0,3-3.06Z" style="fill:#fcb6ac"/><path d="M384,98l-14.92.74L350.17,101c-5.43-9.42,6.58-14.65,8.88-14.89l6.62-1a29.85,29.85,0,0,1,10.07,3.08C378.56,89.59,381.75,93.28,384,98Z" style="fill:#7e3838"/><path d="M357.63,84s.59,2.77.73,3.55a2.22,2.22,0,0,0,2.18,1.82c5.82,0,5.63-3.66,5.63-3.66-1.1-1.89-1.53-7.35-1.53-7.35" style="fill:#fcb6ac"/><path d="M378.69,108.85c-1.08,2.64-3.4,7.75-6.48,11.26-4.13,4.75-21.07,16.77-21.07,16.77l-.19-.19a13.06,13.06,0,0,0-1.62,1.57c-.4.63-.89,3-1.59,3.23a1.47,1.47,0,0,1-.33.07,2.2,2.2,0,0,1-1,.38,6.15,6.15,0,0,1-2.15-.34,4,4,0,0,1-1,.72,23.86,23.86,0,0,1-2.67,1.23c-.78.21-.9,0-.7-.51s1.69-1.22,2.24-1.6a8.1,8.1,0,0,0,1.86-2.2c.36-.7.38-1.08.07-1.1s-1.36.53-2.14.65-1.14-.1-.73-.52a5.93,5.93,0,0,1,2.79-1.93,5.27,5.27,0,0,0,2.57-.87,7.62,7.62,0,0,0,1.5-1.64l-.3-.29s9-11.18,15.72-19.84c.15-.19.29-.34.45-.53,3.91-6.93,5.42-6.71,5.42-6.71l7,.47C377.08,107.55,377.89,108.18,378.69,108.85Z" style="fill:#f9d8cd"/><path d="M347.42,133.11A14.58,14.58,0,0,1,345,136a5.27,5.27,0,0,1-2.57.88,6,6,0,0,0-2.8,1.92c-.39.43,0,.65.74.53s1.81-.68,2.13-.66.3.41-.06,1.11a8,8,0,0,1-1.87,2.2c-.54.38-2.05,1.11-2.23,1.58s-.08.73.7.53a11.72,11.72,0,0,0,2.35-.76c.51-.23,1.07.28,2.9-.41a14.25,14.25,0,0,0,1.61-.83,1.77,1.77,0,0,0,.32,0c.7-.25,1.19-2.61,1.59-3.24a31,31,0,0,1,3.19-2.9Z" style="fill:#fcb6ac"/><path d="M379.67,101.43c2.13-3.28-4.65-7.16-4.65-7.16l-2.63,1.1c-1.58-.8-4.28-2-4.28-2l-1.42,3.87a3.26,3.26,0,0,0,.16,1.82c-.09,2.22-4.11,14.41-4.28,14.59a166.82,166.82,0,0,0-15.7,19.83,6,6,0,0,0,1.46,2,9.41,9.41,0,0,0,1.94,1.35s12.42-10.09,18.06-16C373.58,115.27,377.53,104.71,379.67,101.43Z" style="fill:#7e3838"/><path d="M350.49,81.22a8.09,8.09,0,0,0,3.7,3.83,7,7,0,0,0,5.58-.15,8.66,8.66,0,0,0-.2-15.94c-2.88-1.19-7.41-.65-9.6,1.8S349.15,78.62,350.49,81.22Z" style="fill:#fcb6ac"/><path d="M364.93,76.87a8.86,8.86,0,0,1-5.16,8,7.17,7.17,0,0,1-5,.36,12,12,0,0,0,3.22-.6,9,9,0,0,0,5.31-8c0-3.37-3-6.65-6.11-7.94a6.48,6.48,0,0,0-1-.32,8.74,8.74,0,0,1,3.41.6A8.87,8.87,0,0,1,364.93,76.87Z" style="fill:#f2a49c"/><path d="M349.25,74.27a6.89,6.89,0,0,0,5.23-3.72,3.48,3.48,0,0,0,5.31,1.7,4.22,4.22,0,0,0,3.72,4.38,1.78,1.78,0,0,0,1.1,2.63,2.35,2.35,0,0,0,2.6-1.67,3.58,3.58,0,0,0-.72-3.19A5.83,5.83,0,0,0,361.56,64a5.67,5.67,0,0,0-10.67-.19c.07-.19-1.63-.11-1.76-.1a5,5,0,0,0-2,.51C346,64.79,347.08,74.5,349.25,74.27Z" style="fill:#301b2c"/><path d="M364.8,77.15c.19-1.12-.46-2.7-1.44-2.92a1.58,1.58,0,0,0-2.09,1.29c-.19,1.12.43,3,1.42,3.25A1.8,1.8,0,0,0,364.8,77.15Z" style="fill:#fcb6ac"/><path d="M349.87,92.38l-10.61,17.84,5.48,5.67s3.09-2.82,5.14-5.17c.88-1,1.74-2,2.48-2.94a8.21,8.21,0,0,0,1.72-6.79A20,20,0,0,0,353,96.86C351,92.8,349.87,92.38,349.87,92.38Z" style="fill:#7e3838"/><path d="M339.26,110.22s-11,10.86-15.64,16.37l2.69,3.56s15.14-8.82,20.94-17.43C351.42,106.54,339.26,110.22,339.26,110.22Z" style="fill:#7e3838"/><path d="M375.55,98.41s3.42,7.53,7,6.57c3-.79,1.4-7,1.4-7l-4-3.62Z" style="fill:#7e3838"/><path d="M351,92.52a32.23,32.23,0,0,0,2.62,16l1.13-8.06a30.56,30.56,0,0,1,0-12.61,5.53,5.53,0,0,0-1.36.58A4.69,4.69,0,0,0,351,92.52Z" style="fill:#ffb41d"/><path d="M363.62,99.79s.55-12.84,7.78-13.44a4.11,4.11,0,0,1,2.7,1s-6.26,1.85-7.29,12.12Z" style="fill:#ffb41d"/><path d="M361.06,70.61s-2.42,4.59-12.82,5.63c-.79.08-3.54-.52-1.18-2.93Z" style="fill:#ffb41d"/><path d="M346.75,72.44h0c-.76-2.51-2.21-9.79,5.36-13,11.21-4.81,15.21,2.1,16.67,8h0a.88.88,0,0,1,.77.63.73.73,0,0,1-.47.7,19.94,19.94,0,0,1-3,.92c-4.44,1.33-12.9,3.61-18.55,3.63a.54.54,0,0,1-.5,0C346.22,73,346.75,72.44,346.75,72.44Z" style="fill:#ffb41d"/><path d="M358.59,57.8s-9.19,2.31-6,15.07a21.22,21.22,0,0,1-3.9.46s-2.92-9.62,3.46-13.92C352.11,59.41,355,56.42,358.59,57.8Z" style="fill:#ffbf4d"/></g></svg>