<svg xmlns="http://www.w3.org/2000/svg" viewBox="0 0 250 250"><title>start-journey</title><rect width="250" height="250" style="fill:#515151"/><path d="M81.6,158.07a10.34,10.34,0,1,1,10.33-10.34A10.33,10.33,0,0,1,81.6,158.07Zm0-16.54a6.2,6.2,0,1,0,6.2,6.2A6.21,6.21,0,0,0,81.6,141.53Z" style="fill:#fff"/><path d="M88.6,171c5-6.83,11.6-17,11.6-23.3a18.6,18.6,0,0,0-37.2,0C63,154,69.58,164.2,74.6,171c-5.95,1-11.6,3.38-11.6,7.7,0,5.43,9.36,8.27,18.6,8.27s18.6-2.84,18.6-8.27C100.2,174.41,94.55,172,88.6,171Zm-7-37.76a14.48,14.48,0,0,1,14.47,14.46c0,6.17-9.33,19.18-14.47,25.66-5.14-6.48-14.47-19.49-14.47-25.66A14.48,14.48,0,0,1,81.6,133.27Zm0,49.6c-9.4,0-14.47-2.94-14.47-4.14,0-.86,3.13-3.18,10.34-3.89,1.24,1.58,2.18,2.73,2.53,3.15a2.08,2.08,0,0,0,2.92.27,2.23,2.23,0,0,0,.26-.27c.35-.42,1.29-1.57,2.54-3.15,7.21.71,10.33,3,10.33,3.89C96.07,179.93,91,182.87,81.6,182.87Z" style="fill:#fff"/><path d="M168.4,91.93A10.33,10.33,0,1,1,178.73,81.6,10.32,10.32,0,0,1,168.4,91.93Zm0-16.53a6.2,6.2,0,1,0,6.2,6.2A6.21,6.21,0,0,0,168.4,75.4Z" style="fill:#fff"/><path d="M175.4,104.9c5-6.83,11.6-17,11.6-23.3a18.6,18.6,0,0,0-37.2,0c0,6.31,6.58,16.47,11.6,23.3-6,1-11.6,3.38-11.6,7.7,0,5.43,9.36,8.27,18.6,8.27S187,118,187,112.6C187,108.28,181.35,105.88,175.4,104.9Zm-7-37.77A14.48,14.48,0,0,1,182.87,81.6c0,6.16-9.33,19.18-14.47,25.66-5.14-6.48-14.47-19.5-14.47-25.66A14.48,14.48,0,0,1,168.4,67.13Zm0,49.6c-9.4,0-14.47-2.93-14.47-4.13,0-.87,3.13-3.18,10.34-3.9,1.24,1.59,2.18,2.73,2.53,3.16a2.08,2.08,0,0,0,2.92.26,3.19,3.19,0,0,0,.26-.26c.35-.43,1.29-1.57,2.54-3.16,7.21.72,10.33,3,10.33,3.9C182.87,113.8,177.8,116.73,168.4,116.73Z" style="fill:#fff"/><path d="M164.27,174.6H104.33a2.07,2.07,0,0,1,0-4.13h59.94a18.6,18.6,0,0,0,0-37.2H110.53a22.74,22.74,0,0,1,0-45.47h35.14a2.07,2.07,0,0,1,0,4.13H110.53a18.6,18.6,0,0,0,0,37.2h53.74a22.74,22.74,0,0,1,0,45.47Z" style="fill:#fff"/></svg>