<svg xmlns="http://www.w3.org/2000/svg" viewBox="0 0 544 362"><title>student-login-page</title><path d="M497.3,69.22c-26.57-24.89-60.58-39.17-95-48C357.35,9.57,289.76,2,243.8,7.53,198.28,9.8,81,26.49,28.33,86.46c-39.43,44.87-23.53,97.1-4,110.22S68.2,212.87,91.19,210.3s45.15-10.33,67.26-17.5c42.19-13.66,86.34-25.4,130-18.88,35.11,5.25,67.6,22,100.8,35.17s69.45,23.1,103.88,14.1c16.3-4.26,32.42-13.56,40.41-29.25,4-7.8,5.69-16.69,6.24-25.53C542.16,130.86,523.87,94.1,497.3,69.22Z" style="fill:#ccefff"/><path d="M43.22,155.74a15.49,15.49,0,1,0,4.53,10.95A15.51,15.51,0,0,0,43.22,155.74Zm-1.69.58-9.25,9.26L23,156.32a13.87,13.87,0,0,1,18.51,0Zm-19.61,1.11,8.47,8.47h-12A13.75,13.75,0,0,1,21.92,157.43Zm20.19,19.09a13.93,13.93,0,0,1-19.67,0,13.79,13.79,0,0,1-4-9.05H32.28a.75.75,0,0,0,.26-.05l.07,0a.78.78,0,0,0,.18-.11l0,0,9.81-9.81a13.87,13.87,0,0,1-.53,19.09Z" style="fill:#fff"/><path d="M129.27,54a20.32,20.32,0,1,0,20.32,20.31A20.33,20.33,0,0,0,129.27,54ZM148,73.55H130.06V55.6A18.77,18.77,0,0,1,148,73.55ZM129.27,93.08a18.75,18.75,0,0,1-.78-37.48V74.33a.78.78,0,0,0,.78.79H148A18.77,18.77,0,0,1,129.27,93.08Z" style="fill:#fff"/><path d="M44.7,120.68a6.62,6.62,0,1,1,6.62-6.62A6.63,6.63,0,0,1,44.7,120.68Zm0-11.68a5.06,5.06,0,1,0,5.06,5.06A5.06,5.06,0,0,0,44.7,109Z" style="fill:#fff"/><path d="M48.92,133.84H40.49v-5.65a14.89,14.89,0,0,1-2.8-1.16l-4,4-6-6,4-4a14.8,14.8,0,0,1-1.16-2.79H24.92v-8.44h5.65a14.8,14.8,0,0,1,1.16-2.79l-4-4,6-6,4,4a14.89,14.89,0,0,1,2.8-1.16V94.28h8.43v5.65a14.8,14.8,0,0,1,2.79,1.16l4-4,6,6-4,4a14.76,14.76,0,0,1,1.15,2.79h5.65v8.44H58.83a14.76,14.76,0,0,1-1.15,2.79l4,4-6,6-4-4a14.8,14.8,0,0,1-2.79,1.16Zm-6.87-1.57h5.3V127l.59-.15a13,13,0,0,0,3.5-1.45l.53-.31,3.74,3.74,3.74-3.75-3.74-3.73.32-.53a13.41,13.41,0,0,0,1.45-3.5l.15-.59h5.28v-5.3H57.63l-.15-.59a13.41,13.41,0,0,0-1.45-3.5l-.32-.53,3.74-3.74-3.74-3.74L52,103.05l-.53-.31a13,13,0,0,0-3.5-1.45l-.59-.15V95.85h-5.3v5.29l-.59.15a13.08,13.08,0,0,0-3.5,1.45l-.52.31L33.7,99.31,30,103.05l3.74,3.74-.31.53a13.08,13.08,0,0,0-1.45,3.5l-.15.59H26.49v5.3h5.29l.15.59a13.08,13.08,0,0,0,1.45,3.5l.31.53L30,125.06l3.75,3.75,3.74-3.74.52.31a13.08,13.08,0,0,0,3.5,1.45l.59.15Z" style="fill:#fff"/><path d="M227,47.74a13.4,13.4,0,1,0-22.68,9.63l1.45,8v6.48a2.72,2.72,0,0,0,2.72,2.71h.87a4.1,4.1,0,0,0,8,0h1.31a2.72,2.72,0,0,0,2.72-2.71V65.33l1.45-8A13.45,13.45,0,0,0,227,47.74ZM214.65,64.48h-2.13V59.3a1.07,1.07,0,1,1,2.13,0Zm5.2,1.57v2.67H207.32V66.05Zm-6.49,10.22a2.52,2.52,0,0,1-2.4-1.75h4.81A2.53,2.53,0,0,1,213.36,76.27ZM218.7,73H208.47a1.16,1.16,0,0,1-1.15-1.15V70.29h12.53v1.52A1.15,1.15,0,0,1,218.7,73Zm2.72-16.38L220,64.48h-3.76V59.3a2.64,2.64,0,1,0-5.27,0v5.18h-3.76l-1.44-7.9-.19-.18a11.7,11.7,0,0,1-3.8-8.66,11.83,11.83,0,1,1,23.65,0,11.7,11.7,0,0,1-3.8,8.66Z" style="fill:#fff"/><path d="M218.69,42.39a4,4,0,1,0-4,4A4,4,0,0,0,218.69,42.39Zm-4,2.4a2.41,2.41,0,1,1,2.4-2.4A2.41,2.41,0,0,1,214.72,44.79Z" style="fill:#fff"/><path d="M220.64,44.79A3.16,3.16,0,1,0,223.8,48,3.16,3.16,0,0,0,220.64,44.79Zm0,4.75A1.59,1.59,0,1,1,222.23,48,1.6,1.6,0,0,1,220.64,49.54Z" style="fill:#fff"/><path d="M213.59,30.19a.78.78,0,0,0,.78-.78V22.88a.79.79,0,0,0-1.57,0v6.53A.78.78,0,0,0,213.59,30.19Z" style="fill:#fff"/><path d="M237.47,46H231a.78.78,0,1,0,0,1.56h6.52a.78.78,0,1,0,0-1.56Z" style="fill:#fff"/><path d="M197,46.77a.78.78,0,0,0-.78-.78H189.7a.78.78,0,0,0,0,1.56h6.53A.78.78,0,0,0,197,46.77Z" style="fill:#fff"/><path d="M225.86,35.28a.82.82,0,0,0,.56-.23L231,30.43a.77.77,0,0,0,0-1.1.78.78,0,0,0-1.11,0l-4.61,4.61a.79.79,0,0,0,.55,1.34Z" style="fill:#fff"/><path d="M200.76,58.49l-4.62,4.62a.78.78,0,0,0,.56,1.33.74.74,0,0,0,.55-.23l4.61-4.61a.78.78,0,0,0-1.1-1.11Z" style="fill:#fff"/><path d="M226.42,58.49a.8.8,0,0,0-1.11,0,.78.78,0,0,0,0,1.11l4.61,4.61a.78.78,0,0,0,.56.23.74.74,0,0,0,.55-.23.77.77,0,0,0,0-1.1Z" style="fill:#fff"/><path d="M200.76,35.05a.78.78,0,0,0,1.1-1.11l-4.61-4.61a.78.78,0,0,0-1.11,1.1Z" style="fill:#fff"/><path d="M490.23,88.89H482a5.57,5.57,0,0,0-5.56,5.57V108.4h19.31V94.46A5.57,5.57,0,0,0,490.23,88.89Zm4,17.94H492v-9.1a.79.79,0,0,0-1.57,0v9.1h-8.32v-9.1a.79.79,0,0,0-1.57,0v9.1H478V94.46a4,4,0,0,1,4-4h8.19a4,4,0,0,1,4,4Z" style="fill:#fff"/><path d="M485.63,87.26a6.57,6.57,0,1,0-6.57-6.56A6.57,6.57,0,0,0,485.63,87.26Zm0-11.56a5,5,0,1,1-5,5A5,5,0,0,1,485.63,75.7Z" style="fill:#fff"/><path d="M240.39,111.7H251.1V89.11H240.39Zm1.57-21h7.58v19.45H242Z" style="fill:#fff"/><path d="M254.77,111.7h10.71V82H254.77Zm1.56-28.15h7.58v26.58h-7.58Z" style="fill:#fff"/><path d="M269.14,70V111.7h10.71V70Zm9.14,40.18h-7.57V71.52h7.57Z" style="fill:#fff"/><polygon points="274.4 58.38 276.42 60.76 279.06 53.41 271.38 54.8 273.39 57.18 259.39 69.02 252.66 63.65 240.68 73.64 241.68 74.85 252.68 65.67 259.42 71.05 274.4 58.38" style="fill:#fff"/><path d="M282.46,34.59a5.92,5.92,0,1,1,5.92-5.92A5.93,5.93,0,0,1,282.46,34.59Zm0-10.27a4.35,4.35,0,1,0,4.36,4.35A4.35,4.35,0,0,0,282.46,24.32Z" style="fill:#fff"/><path d="M286.27,46.17h-7.61v-5a13.1,13.1,0,0,1-2.35-1l-3.53,3.53-5.38-5.37,3.53-3.54a12.37,12.37,0,0,1-1-2.35h-5v-7.6h5a12.37,12.37,0,0,1,1-2.35L267.4,19l5.38-5.38,3.53,3.53a13.41,13.41,0,0,1,2.35-1v-5h7.61v5a13.41,13.41,0,0,1,2.35,1l3.53-3.53L297.53,19,294,22.52a13.06,13.06,0,0,1,1,2.35h5v7.6h-5a13.06,13.06,0,0,1-1,2.35l3.53,3.54-5.38,5.37-3.53-3.53a13.41,13.41,0,0,1-2.35,1Zm-6-1.57h4.47V40l.59-.15a11.55,11.55,0,0,0,3.06-1.26l.52-.32,3.28,3.28,3.16-3.16L292,35.08l.31-.52a11.49,11.49,0,0,0,1.26-3.06l.15-.59h4.64V26.43h-4.64l-.15-.59a11.3,11.3,0,0,0-1.26-3.05l-.31-.53L295.31,19l-3.16-3.17-3.28,3.28-.52-.31a11.25,11.25,0,0,0-3.06-1.27l-.59-.15V12.74h-4.47v4.63l-.6.15a11.32,11.32,0,0,0-3.05,1.27l-.53.31-3.27-3.28L269.61,19l3.28,3.27-.31.53a11.32,11.32,0,0,0-1.27,3.05l-.15.59h-4.63v4.48h4.63l.15.59a11.52,11.52,0,0,0,1.27,3.06l.31.52-3.28,3.28,3.17,3.16,3.27-3.28.53.32a11.63,11.63,0,0,0,3.05,1.26l.6.15Z" style="fill:#fff"/><path d="M499.86,193.18a7.45,7.45,0,1,1,7.45-7.45A7.45,7.45,0,0,1,499.86,193.18Zm0-13.32a5.88,5.88,0,1,0,5.88,5.87A5.87,5.87,0,0,0,499.86,179.86Z" style="fill:#fff"/><path d="M501.12,200.25h-2.51a2,2,0,0,1-2-2v-.86a12.08,12.08,0,0,1-2.66-1.11l-.61.61a2,2,0,0,1-2.84,0l-1.77-1.77a2,2,0,0,1,0-2.84l.61-.61a12.08,12.08,0,0,1-1.11-2.66h-.86a2,2,0,0,1-2-2v-2.51a2,2,0,0,1,2-2h.86a12.08,12.08,0,0,1,1.11-2.66l-.61-.61a2,2,0,0,1,0-2.84l1.77-1.77a2,2,0,0,1,2.84,0l.61.61a12.08,12.08,0,0,1,2.66-1.11v-.86a2,2,0,0,1,2-2h2.51a2,2,0,0,1,2,2v.86a12.08,12.08,0,0,1,2.66,1.11l.61-.61a2.05,2.05,0,0,1,2.84,0l1.77,1.77a2,2,0,0,1,0,2.84l-.61.61a12.08,12.08,0,0,1,1.11,2.66h.86a2,2,0,0,1,2,2V187a2,2,0,0,1-2,2h-.86a12.08,12.08,0,0,1-1.11,2.66l.61.61a2,2,0,0,1,0,2.84l-1.77,1.77a2.05,2.05,0,0,1-2.84,0l-.61-.61a12.08,12.08,0,0,1-2.66,1.11v.86A2,2,0,0,1,501.12,200.25Zm-7.41-6,.53.34a10.37,10.37,0,0,0,3.32,1.37l.61.14v2.1a.44.44,0,0,0,.44.44h2.51a.44.44,0,0,0,.44-.44v-2.1l.61-.14a10.37,10.37,0,0,0,3.32-1.37l.53-.34,1.48,1.48a.45.45,0,0,0,.63,0L509.9,194a.45.45,0,0,0,0-.64l-1.48-1.48.33-.53a10.17,10.17,0,0,0,1.38-3.32l.14-.61h2.1a.44.44,0,0,0,.44-.44v-2.51a.44.44,0,0,0-.44-.44h-2.1l-.14-.61a10.17,10.17,0,0,0-1.38-3.32l-.33-.53,1.48-1.48a.45.45,0,0,0,0-.64l-1.77-1.76a.45.45,0,0,0-.63,0L506,177.18l-.53-.34a10.37,10.37,0,0,0-3.32-1.37l-.61-.14v-2.1a.44.44,0,0,0-.44-.44h-2.51a.44.44,0,0,0-.44.44v2.1l-.61.14a10.37,10.37,0,0,0-3.32,1.37l-.53.34-1.48-1.48a.45.45,0,0,0-.64,0l-1.76,1.76a.44.44,0,0,0,0,.64l1.48,1.48-.34.53a10.37,10.37,0,0,0-1.37,3.32l-.14.61h-2.1a.44.44,0,0,0-.44.44V187a.44.44,0,0,0,.44.44h2.1l.14.61a10.37,10.37,0,0,0,1.37,3.32l.34.53-1.48,1.48a.45.45,0,0,0,0,.64l1.76,1.76a.45.45,0,0,0,.64,0Z" style="fill:#fff"/><path d="M503.73,121.58a20.32,20.32,0,1,0,20.32,20.32A20.33,20.33,0,0,0,503.73,121.58Zm.79,1.59a18.76,18.76,0,0,1,17.94,17.94H504.52Zm-.79,37.48a18.75,18.75,0,0,1-.78-37.48V141.9a.78.78,0,0,0,.78.78h18.73A18.77,18.77,0,0,1,503.73,160.65Z" style="fill:#fff"/><path d="M217.36,91.32a15.48,15.48,0,1,0,15.48,15.47A15.49,15.49,0,0,0,217.36,91.32ZM231.23,106H218.15V92.92A13.91,13.91,0,0,1,231.23,106Zm-23.12-9.57a13.89,13.89,0,0,1,8.47-3.52v12Zm9.25,24.26A13.88,13.88,0,0,1,207,97.54l9.8,9.81a.85.85,0,0,0,.25.17.8.8,0,0,0,.3.06h13.87A13.91,13.91,0,0,1,217.36,120.7Z" style="fill:#fff"/><path d="M398.6,85.68c-6.31,0-11.67-6.43-13.37-9.57a23.2,23.2,0,0,1-2.46.13c-12.69,0-23-9.94-23-22.17s10.32-22.17,23-22.17,23,10,23,22.17A22,22,0,0,1,396.29,72a13.65,13.65,0,0,0,5.07,11.94l1.32,1-1.56.44A9.22,9.22,0,0,1,398.6,85.68ZM386.15,74.42l.24.52c.77,1.65,6.15,9.7,12.78,9.16a14.93,14.93,0,0,1-4.4-12.64l.05-.35.29-.2a20.42,20.42,0,0,0,9.09-16.84c0-11.36-9.62-20.6-21.43-20.6s-21.44,9.24-21.44,20.6,9.62,20.6,21.44,20.6a22.81,22.81,0,0,0,2.81-.18Z" style="fill:#fff"/><path d="M370.62,57.93A3.94,3.94,0,1,1,374.56,54,3.94,3.94,0,0,1,370.62,57.93Zm0-6.31A2.37,2.37,0,1,0,373,54,2.38,2.38,0,0,0,370.62,51.62Z" style="fill:#fff"/><path d="M382.77,57.93A3.94,3.94,0,1,1,386.7,54,3.94,3.94,0,0,1,382.77,57.93Zm0-6.31A2.37,2.37,0,1,0,385.14,54,2.38,2.38,0,0,0,382.77,51.62Z" style="fill:#fff"/><path d="M394.91,57.93A3.94,3.94,0,1,1,398.85,54,3.95,3.95,0,0,1,394.91,57.93Zm0-6.31A2.37,2.37,0,1,0,397.28,54,2.38,2.38,0,0,0,394.91,51.62Z" style="fill:#fff"/><ellipse cx="267.56" cy="337.82" rx="230.9" ry="18.49" style="fill:#ece9f3"/><path d="M323.69,316.9c-3.05,3.71-8.95,5-13.19,6.8-2,.82-4.29,3.56-2.89,5.18.65.76,3.06,0,4.06,0,8.26-.31,17.55-3.46,25.4-6.06-1.76-6.87-2.44-18.85-2.28-28.28.32-19.41,4-39.43-.92-55.38-1-3.09-.32-8.92-.79-12.12a146.1,146.1,0,0,0-18.11.72c.67,5.4-1.9,9.06,0,14.14,3.24,8.75,4.22,19.26,5.43,30.36C322.12,288.27,325.91,314.2,323.69,316.9Z" style="fill:#f4b7b0"/><path d="M327.85,321.14c2.8.32,6,0,8.4-2.34,1.05-1,1.84,9.25.82,9.78-6.46,3.34-19.74,2.79-27.89,3.29a10.6,10.6,0,0,1-4.24-.38c-1.34-.48-1.41-.38-1.63-1.79-.37-2.48,1.68-4,4.05-4.77a77.12,77.12,0,0,0,14.09-7A11,11,0,0,0,327.85,321.14Z" style="fill:#3c93aa"/><path d="M344.07,318.46c-3.06,3.72-9,5-13.2,6.81-2,.82-4.29,3.56-2.89,5.18.65.76,3.07,0,4.07,0,8.26-.31,17.55-3.46,25.39-6.06-1.76-6.87-2.43-18.85-2.28-28.29.32-19.4,4-39.43-.91-55.37-1-3.09-.33-8.92-.79-12.13a146,146,0,0,0-18.11.73c.66,5.4-1.9,9,0,14.14,3.25,8.75,4.23,19.26,5.43,30.36C342.5,289.83,346.28,315.77,344.07,318.46Z" style="fill:#ffcbc3"/><path d="M348.22,322.71c2.81.32,6,0,8.4-2.34,1.05-1,1.91,10.05.82,10.43-7.89,2.68-19.74,2.14-27.88,2.63a10.48,10.48,0,0,1-4.25-.37c-1.34-.49-1.41-.38-1.62-1.8-.38-2.47,1.68-3.95,4.05-4.77a77.42,77.42,0,0,0,14.09-7A11.07,11.07,0,0,0,348.22,322.71Z" style="fill:#56aece"/><path d="M312.06,245.3c1.77,2,8.79,2.71,17.83,2.54,9.58-.17,17.63.59,27.76-2.54.72-15,2.05-29.37,3.85-44.32,1.29-10.65,2.87-13.47,4-22.76-17.51-.83-42.84,1.74-60.14-1.1-.78,7.45.4,10.78,1.35,23.44C307,204.4,312.06,245.3,312.06,245.3Z" style="fill:#092d41"/><path d="M349.87,56.84c5.88,36.83.55,57.16,2.13,76.4-9.37.79-25.94,2.21-35.21.58-.11-11-7.39-69.22-6.65-80.84.34-5.24,1.58-11.42,6.1-16.15,4-4.15,9.22-4.35,14.39-4.38a16.56,16.56,0,0,1,15.31,9.21C348.58,47.15,349.08,51.85,349.87,56.84Z" style="fill:#af6c3e"/><path d="M310.29,87.44c-6.85,0-12,11.64-12.72,13.83-3.23,9.93-9.51,18.12-15.39,26.75A81.18,81.18,0,0,1,260,135.3c-3.09.54-6.26.92-9.1,2.24-5.24,2.44-11.51,7.35-17.12,8.69-1.92,2.34,1.61,2.34,6.26,1,1.33-.38,2.21-1.74,3.53-2.15,4.12-1.28,9.11,4.36,12.25,1.39a20.86,20.86,0,0,1,1.57-1.8,5.37,5.37,0,0,1,3.13-.66c3.83-.13,7.53-1.34,11.17-2.54l14.57-4.81a22.9,22.9,0,0,0,5.07-2.14,19.08,19.08,0,0,0,3.43-2.91c8.87-9,14.93-15.47,20.77-28.18.52-1.14.21-6.58,0-7.82C314.28,88.58,311.94,87.45,310.29,87.44Z" style="fill:#eaa580"/><path d="M309.13,125.42c4.34,6.5,4.44,14.2,2.2,21.72-1.1,3.7-1.64,4.77-3.77,11-3.3,9.6-2.76,18.75-2.17,19,9.54,4.25,17.1,4.48,27.65,4.51,8.4,0,31.53-1.67,32.49-3.41.49-.89-2.57-17.63-5.94-24.33-1.62-3.24-3.55-6.4-4.33-9.9-1-4.31-.15-8.78.53-13.14,2.31-14.75,12.35-32,1.46-44.89A52.15,52.15,0,0,0,347,84.34c-13-.47-16.13-.73-27.92,1.26a87.58,87.58,0,0,0-8.79,1.84c1.76,7.25,1.44,10.55.65,13.83C309.13,108.79,302.84,116,309.13,125.42Z" style="fill:#f7643b"/><path d="M316.85,89.89c.69,6.17,7.84,8.63,13.12,9.77,6.55,1.42,11.12-1.58,14.85-6.79.22-.31-.28-.69-.53-.41-4,4.5-7.62,7.81-14.1,6.41-4.95-1.07-11.83-3.35-12.74-9.06-.05-.34-.64-.26-.6.08Z" style="fill:#e25333"/><path d="M331.59,113.88c-3.82,9.45,11.35,15,17.71,9.69.23-.2,0-.64-.31-.53-3.41,1.32-6.36,2.27-10,1.22-4.32-1.24-8.19-5.49-6.71-10.2.14-.44-.51-.59-.67-.18Z" style="fill:#e25333"/><path d="M319.27,144.5c8.52,1,17.78-2.05,23.34-8.79.26-.32-.15-.75-.45-.45-6.36,6.16-13.92,9.53-22.89,8.86-.25,0-.24.35,0,.38Z" style="fill:#e25333"/><path d="M315.13,157.91c9.88-3.35,20.43-6.58,29.65-11.54a.17.17,0,0,0-.13-.31c-10,3.45-19.59,8.09-29.6,11.58-.17.06-.1.33.08.27Z" style="fill:#e25333"/><path d="M310.09,123.33c3.52,5.15,12.08,6.51,16.1,1.08.14-.2-.14-.46-.33-.33-2.52,1.67-4.81,3.15-8,2.93a11.26,11.26,0,0,1-7.45-3.94c-.17-.18-.48.06-.34.26Z" style="fill:#e25333"/><path d="M392.14,128.39c.79,3.87-1.87,7.53-4.53,10.44a140.5,140.5,0,0,1-15.71,14c-2.43,1.86-1.3,3.19-2.44,6-1.56,3.91-4.22,4.2-2.86,7,2.08,4.21,2.94,0,3.61,2.32-.4,2-1.69,2.33-3.62,1.73-4.53-1.41-4.37-4.12-5.46-8.73-.39-1.68-.78-3.46-.2-5.08a8.94,8.94,0,0,1,1.56-2.48c5.57-7,17-23.27,16.62-23.65a147.14,147.14,0,0,0-21.21-20.24c-6.08-5-9.3-18.24-4-22.62,4.28-3.54,9.33,2,12,5.16C375.13,103.18,391.7,126.23,392.14,128.39Z" style="fill:#eaa580"/><path d="M319.08,85.6A9.65,9.65,0,0,0,323,93a14.07,14.07,0,0,0,8.06,2.67A15.67,15.67,0,0,0,340.57,93a12.67,12.67,0,0,0,4.88-8.68c-3-.28-3.54-1.07-4.25-1.82-.42-.46-2.48-14.71-2.63-21.06a68.68,68.68,0,0,1-14.19-.33C324.28,61.06,327.93,83.29,319.08,85.6Z" style="fill:#eaa580"/><path d="M316.09,69.37c1.33,4.22,5.82,8.7,9.29,8.7a13,13,0,0,0,10.09-5.5c3.42-5,4.3-10.22,4.53-16.23.12-3,.06-6.19-1.51-8.76a11,11,0,0,0-6.44-4.49,30.44,30.44,0,0,0-8-.86,10.87,10.87,0,0,0-3.94.43c-2.31.86-5.64,3.42-6.16,5.83C312.77,54.08,314.4,64.05,316.09,69.37Z" style="fill:#f9b698"/><path d="M347.21,58.77a3.08,3.08,0,0,1-1.46,1.65,3.41,3.41,0,0,1-1.46.19l-5,0A45.94,45.94,0,0,1,338,51.1h-8.6c-.29-3-.46-6.21-.48-7.58-.43.84-1.92,7-2.35,7.81-2.59.17-4.44.2-5.91.17,0-1.6,0-4.7,0-6.32a54.63,54.63,0,0,0-1.44,6.28,56.71,56.71,0,0,0-6.56-.13c-.85,0-.13-7.81,3.32-12.26a13.88,13.88,0,0,1,8.71-4.75c3.54-.54,8.5-1,12-.21s5.77,3,8.1,5.67c2.17,2.5,2.82,5.95,3.24,9.23S348.62,55.77,347.21,58.77Z" style="fill:#af6c3e"/><path d="M340.88,54.29c-3.49-.38-3.69,6.45-3.38,7.9s0,2.88,1.55,2.88c2.9,0,4.08-2.3,4.45-4.88S343.54,54.58,340.88,54.29Z" style="fill:#f9b698"/><path d="M316.07,55.06c1.85-1.75,3.73-1.18,5.76-.16.16.08.35-.13.2-.26a4.4,4.4,0,0,0-6.22.16.18.18,0,0,0,.26.26Z" style="fill:#af6c3e"/><path d="M328,54.91a4.16,4.16,0,0,1,2.64-1A7.1,7.1,0,0,1,333.48,55c.22.11.49-.18.28-.35a4.41,4.41,0,0,0-6,0c-.1.09,0,.28.15.2Z" style="fill:#af6c3e"/><path d="M323.49,59.05a8.72,8.72,0,0,1-.2,3.38c-.3.87-1.12,1.52-1.3,2.43a1.58,1.58,0,0,0,1.45,2,.28.28,0,0,0,.14-.51c-1.74-1,0-2.53.38-3.68a8.76,8.76,0,0,0,.06-3.57c0-.33-.55-.34-.53,0Z" style="fill:#e2906f"/><path d="M321.06,69.53c1.6,1.8,4.89,2.22,6.4,0,.17-.26-.16-.51-.4-.4-.91.44-1.59,1.12-2.67,1.2a4.38,4.38,0,0,1-3-1.11c-.23-.17-.52.1-.32.32Z" style="fill:#f27e5a"/><path d="M324.08,72.5a4.42,4.42,0,0,0,1.36-.06.2.2,0,0,0,0-.38,4.43,4.43,0,0,0-1.36-.06.25.25,0,0,0,0,.5Z" style="fill:#eaa580"/><path d="M339.15,58.39a3.44,3.44,0,0,1,1.2-1.9c1.06-.81,1.36.44,1.52,1.23a10.25,10.25,0,0,1-.26,4.37c0,.15.18.26.25.11a5.75,5.75,0,0,0,.54-3.51,5.39,5.39,0,0,0-.7-2.47c-1.07-1.37-2.77,1.18-2.85,2.17,0,.2.28.19.3,0Z" style="fill:#e2906f"/><path d="M339.31,60.76c.05-.22.39-.46.6-.24s.1.51.1.68a1.44,1.44,0,0,1-.07.5c-.17.42-.76.47-.88.9a.2.2,0,0,0,.2.25,1.35,1.35,0,0,0,.92-.56,1.83,1.83,0,0,0,.28-1.41c0-.48-.1-.89-.66-1a.87.87,0,0,0-1,.71c-.07.33.44.48.52.14Z" style="fill:#e2906f"/><ellipse cx="318.93" cy="59.78" rx="0.88" ry="1.4" style="fill:#af6c3e"/><ellipse cx="330.53" cy="59.78" rx="0.88" ry="1.4" style="fill:#af6c3e"/><path d="M334.15,65.28c0,.72-.88,1.3-2,1.3s-2-.58-2-1.3.88-1.29,2-1.29S334.15,64.57,334.15,65.28Z" style="fill:#f9a787"/><path d="M320,65.51c0,.71-.88,1.29-2,1.29s-2-.58-2-1.29.88-1.3,2-1.3S320,64.79,320,65.51Z" style="fill:#f9a787"/><path d="M312.55,50.84c.16-4.42,1.89-9.94,5.47-12.8.15-.12,0-.37-.18-.32-1.75.55-2.88,3-3.59,4.46a20.72,20.72,0,0,0-2.17,8.66.24.24,0,0,0,.47,0Z" style="fill:#c17846"/><path d="M316.41,49.57c.16-4.12,1.54-7.39,3.5-10.93a.31.31,0,0,0-.54-.32,19.35,19.35,0,0,0-3.51,11.25c0,.35.53.35.55,0Z" style="fill:#c17846"/><path d="M322.51,49.57A45.11,45.11,0,0,1,324.24,38a.22.22,0,0,0-.42-.12,33.83,33.83,0,0,0-1.72,11.73c0,.26.41.26.41,0Z" style="fill:#c17846"/><path d="M325.19,49.86a69.93,69.93,0,0,1,2.27-11.49c.09-.33-.38-.43-.5-.13-1.47,3.59-1.83,7.78-2.11,11.62,0,.22.32.22.34,0Z" style="fill:#c17846"/><path d="M332,49.37c.41-3.76.32-8.09-1.29-11.59-.13-.27-.52-.07-.46.19.81,3.87,1.64,7.4,1.33,11.4,0,.27.39.27.42,0Z" style="fill:#c17846"/><path d="M336.2,48.59a17.47,17.47,0,0,0-2.4-10.43.28.28,0,0,0-.51.22c1,3.58,2.87,6.29,2.62,10.21,0,.19.28.19.29,0Z" style="fill:#c17846"/><path d="M335.43,37.12c4.26,4.4,4.77,10.18,5.69,15.92,0,.13.25.1.24,0-.19-5.87-1.19-12-5.67-16.14a.18.18,0,0,0-.26.26Z" style="fill:#c17846"/><path d="M338.88,36.62c4.48,5.19,6.55,11,7.28,17.74a.27.27,0,0,0,.53,0,27,27,0,0,0-7.38-18.17c-.27-.28-.68.14-.43.43Z" style="fill:#c17846"/><path d="M346.85,60.16c1,7.85,1.25,15.6,1.47,23.49a.25.25,0,0,0,.5,0,124.55,124.55,0,0,0-1.68-23.53c0-.16-.31-.13-.29,0Z" style="fill:#c17846"/><path d="M343.7,64.66c.53,5.89,1.52,11.67,2.27,17.53a.22.22,0,1,0,.43-.06c-1-5.78-1.55-11.65-2.32-17.47,0-.24-.4-.25-.38,0Z" style="fill:#c17846"/><path d="M342.7,79.1a80.21,80.21,0,0,0-1.45-9.79.17.17,0,0,0-.33,0,79.92,79.92,0,0,0,1.51,9.81c0,.18.29.1.27-.07Z" style="fill:#c17846"/><path d="M315.18,84c-.7-8.84-1.62-17.76-2.73-26.55,0-.27-.43-.29-.43,0,0,8.85,2,17.76,2.94,26.55,0,.14.23.14.22,0Z" style="fill:#c17846"/><path d="M317.65,82.77a31.71,31.71,0,0,0-.64-5.61.13.13,0,0,0-.25,0,32.28,32.28,0,0,0,.72,5.6c0,.09.18.07.17,0Z" style="fill:#c17846"/><path d="M320.5,82.67a11.36,11.36,0,0,0-.13-3.68c-.06-.31-.53-.18-.47.13a10.86,10.86,0,0,1,.13,3.55c0,.3.43.3.47,0Z" style="fill:#c17846"/><path d="M113.22,330c1-1,1.61-5.3-2-6.45-7.58-2.45-15.09-5.23-16.14-6.08-1.82-1.48-.45-6.51-1.26-8.6-1.31-3.4-.76-1.14-4.83-1.37-5-.29-6,.25-5.36,4.81.24,1.82-2,15.26-1.59,17.05C82.37,330.55,112.48,330.74,113.22,330Z" style="fill:#2b2a4a"/><path d="M144.42,327.34c1-1,1.34-5.25-5.14-7.18-6.31-1.88-10.68-3.07-11.73-3.92-1.82-1.47-2.32-2.83-3.13-4.92-1.31-3.4.42-5-3.65-5.25-5-.29-6.41,2.91-5.81,7.47.23,1.81-2.14,13.25-1.17,13.8C118.79,330.11,143.67,328.07,144.42,327.34Z" style="fill:#2b2a4a"/><path d="M83,315.63c2.53,1.86,10.87,2.31,12,.29.76-1.32,9.5-73.63,15.27-117.88,1.87,39.43,3.25,67.41,4.32,115.84,4.39.77,11.65,1.71,11.79,0,2.85-35.53,7.13-70.8,10-106.85,1.25-15.56,2.2-19.77,2.46-33.65-10.29-.93-39.84.56-56.77,2-1.16,12.23,1.06,16.58,1.14,23.71.1,10.12.58,9.6.18,19.72C82.63,239.18,81.92,314.82,83,315.63Z" style="fill:#febf5b"/><path d="M110.77,198.11c4.08-2.07,8.36-5,10.91-8.91a.31.31,0,0,0-.48-.37c-3.35,3.39-6.45,6.5-10.73,8.77-.34.18,0,.68.3.51Z" style="fill:#e8ab52"/><path d="M101.27,194.91l3.58,1.79a9.18,9.18,0,0,0,2.89,1.22c.21,0,.29-.26.16-.39a9.73,9.73,0,0,0-2.9-1.59l-3.38-1.62c-.4-.19-.75.39-.35.59Z" style="fill:#e8ab52"/><path d="M101.59,199.17c2.25.49,5.22,1.3,7.51.79.35-.07.31-.57,0-.67a15.63,15.63,0,0,0-3.2-.38c-1.37-.13-2.72-.34-4.07-.6-.56-.11-.81.74-.24.86Z" style="fill:#e8ab52"/><path d="M111.17,195.5c.82-4.33,1.4-9.1.67-13.47,0-.31-.51-.22-.52.07-.15,4.48,0,8.78-.71,13.25-.06.36.49.53.56.15Z" style="fill:#e8ab52"/><path d="M169.19,42.8c.45-3.17-.21-11-.41-14.21s-.95-8.82,1-8.55c.86.12,1.41,6.44,2.11,10.42,1.59-1,1.71-1,3.58-.84s4.57,2.16,4.78,4c.1.9,1.64,2.77,1.36,3.62-.5,1.54-2.69,4.78-3.27,5.88a71.12,71.12,0,0,0-1.09,7.43c.12,1.36-5.42,5-7.57,1.24C169,50.54,168.89,44.87,169.19,42.8Z" style="fill:#eaa580"/><path d="M73.06,198c2.88,3.79,8.14,4.54,8.36,3.56.66-2.93-4.67-7.91-4-10.37.24-.95,5.84,1.68,5.89-1.27,0-.43-2.21-2.07-3.34-2.84-2.84-2-3.41-5-5-5.49-1.21-.37-2.63-4.93-3.82-4.51-1.39.5-4.54,3-4.52,4.47C66.69,186.82,71.06,195.41,73.06,198Z" style="fill:#eaa580"/><path d="M61.79,98.14c-4,11-8,30.61-8.09,40.1-.2,15.48,5.46,33.92,12.88,47.5a99.86,99.86,0,0,0,9.93-3.62c-3.93-11.53-5.07-25-6-34.37C69.4,135.71,72.2,128.13,76,120c2.82,15,6.78,35.11,6,57.14,9.12,3.69,21.46,3,29.38,2.77a66.37,66.37,0,0,0,27.43-6.51c.84-23.29-2.4-47.47-3.27-69.24,9.29-2.7,35.53-8.29,35.92-13.29.23-2.91,3.67-22.32,7.83-46.56-1.12-1.08-8.71-4.08-10.89-2-3.59,11.87-5,22.74-10.58,37.93-7.25-.3-37.27.56-40.41.56a224,224,0,0,0-27.76,1.93c-5.81.85-10.14,1.2-15,2.47C68.89,86.72,63.83,92.58,61.79,98.14Z" style="fill:#c0272d"/><path d="M76.58,119.21c1.28-3.36,3.49-6.11,4.49-9.6a36.16,36.16,0,0,0,1.37-9.53c0-.3-.48-.38-.54-.07-.6,3.34-.7,6.75-1.7,10s-3,5.89-4.07,9.06c-.09.29.35.4.45.13Z" style="fill:#9e2029"/><path d="M77.87,119.21c3.18-2.4,7.08-6,8.21-10,.07-.21-.24-.43-.39-.23-1.31,1.68-2.2,3.64-3.57,5.32a30.87,30.87,0,0,1-4.56,4.51c-.23.18.08.58.31.41Z" style="fill:#9e2029"/><path d="M130.65,89.81a29.2,29.2,0,0,1,2,6.19c.38,1.89.31,3.86.77,5.73a.31.31,0,0,0,.6,0c.92-4-1-8.84-2.76-12.31-.23-.45-.86-.06-.66.39Z" style="fill:#9e2029"/><path d="M135.8,100.37c1-2.73,2.13-5.73,2.32-8.64,0-.35-.48-.38-.59-.08-1,2.77-1.38,5.77-2.23,8.58a.26.26,0,0,0,.5.14Z" style="fill:#9e2029"/><path d="M87.83,86.86c.66,3.56,4.07,6.38,6.94,8.37,3.91,2.7,8.62,3.1,13.25,2.71,6.7-.56,15.19-4.93,12.86-13a.34.34,0,0,0-.66.18c1.66,8.72-7.87,11.82-14.73,11.88C99,97,90.75,93.43,88.66,86.63a.43.43,0,0,0-.83.23Z" style="fill:#9e2029"/><path d="M93.53,168.51c5.57,1.16,11-1.7,15.83-4.19,4.64-2.39,9.85-5.58,12.47-10.27.11-.19-.16-.42-.32-.24a43.35,43.35,0,0,1-10.87,9.08c-5,2.77-11.13,6.2-16.94,5-.4-.08-.57.53-.17.62Z" style="fill:#9e2029"/><path d="M96.77,152.29c9.13-5.71,18.33-13.17,24.29-22.26.18-.28-.25-.61-.47-.36-7.37,8.46-14.53,16.06-24.11,22.12-.31.2,0,.7.29.5Z" style="fill:#9e2029"/><path d="M102.18,133.22c3.51-2.8,7.25-5.87,10-9.49.23-.31-.26-.65-.52-.4-3.32,3.16-6.3,6.56-9.84,9.5-.27.23.12.61.39.39Z" style="fill:#9e2029"/><path d="M158.8,82.25a14.6,14.6,0,0,1,2.81,2.51c.74.89,1.19,2,1.95,2.86.11.12.3,0,.26-.16a7.84,7.84,0,0,0-1.95-3A14.8,14.8,0,0,0,159,82c-.17-.12-.33.16-.16.27Z" style="fill:#9e2029"/><path d="M160.65,81.84a28.67,28.67,0,0,1,3.12,1.6,18.23,18.23,0,0,0,2.68,1.65c.22.09.32-.21.2-.36a8.76,8.76,0,0,0-2.58-1.81,29.67,29.67,0,0,0-3.15-1.55c-.31-.13-.59.33-.27.47Z" style="fill:#9e2029"/><path d="M89.73,82.71c.73,5.22,6.84,11.74,17,10.85,11.23-1,11.86-6.68,10.71-12.78a9.66,9.66,0,0,1-2.86-.53c-1.26-1-1.7-3.3-1.87-4.9-.35-3.3.17-7.86-.16-10.54-.09-.78-20.45-2.08-20.11,0a33.49,33.49,0,0,1,0,12.75A9,9,0,0,1,89.73,82.71Z" style="fill:#eaa580"/><path d="M97.22,72.64c3.68,3.43,8,6.14,12.69,4.35s6.74-6.32,8.34-11c2-5.83.79-13.54,0-20.79-.67-6.13-4.66-8.86-10.73-9.93C88.72,32,85.86,62.06,97.22,72.64Z" style="fill:#f9b698"/><path d="M104.1,54.81c0,.78-.4,1.41-.88,1.41s-.89-.63-.89-1.41.4-1.4.89-1.4S104.1,54,104.1,54.81Z" style="fill:#613a13"/><ellipse cx="114.82" cy="54.81" rx="0.88" ry="1.4" style="fill:#613a13"/><path d="M94.9,44.07a13.15,13.15,0,0,0,13.17-4.59,10.56,10.56,0,0,0,10.55,4.68,3.09,3.09,0,0,0,1.79-.76c2.93-3.28.18-8.34-2.16-10.33-5.09-4.31-17.7-2.41-19.2-2.09-7.25,1.51-9.32,6-10.35,6.8-5.15,4-3.56,14.37.17,18.14C94.91,62,96.46,44.45,94.9,44.07Z" style="fill:#613a13"/><path d="M89.16,51.61c-1.78.39-2,2.9-2,4.81a11.61,11.61,0,0,0,.66,4,3.74,3.74,0,0,0,2.92,2.45c1.72.12,3.13-1.58,3.39-3.36S93.43,50.68,89.16,51.61Z" style="fill:#f9b698"/><path d="M98.55,50.78A6.83,6.83,0,0,1,102,49.37c1.11-.12,2.14.33,3.21.25a.46.46,0,0,0,.32-.77c-2-1.78-5.84-.31-7.64,1.1-.47.36.16,1.19.65.83Z" style="fill:#613b16"/><path d="M111.1,49.56a3.82,3.82,0,0,1,3.45-.75,3.9,3.9,0,0,1,1.22.3c.28.16.38.33.69.43a.45.45,0,0,0,.54-.3l.06-.18a.61.61,0,0,0-.16-.6c-.78-.78-2.16-.8-3.2-.79A4.3,4.3,0,0,0,110.49,49c-.38.41.21,1,.61.61Z" style="fill:#613b16"/><path d="M108.55,53.72a20.63,20.63,0,0,0-.09,4.58,3.3,3.3,0,0,0,.76,1.94,2.85,2.85,0,0,0,.62.53c.26.13.52.25.79.36a1.58,1.58,0,0,1-.62,1.31.4.4,0,0,0,.28.68c1.82-.07,2.68-2.09,1-3.1a2.68,2.68,0,0,1-1.57-1.84,8.16,8.16,0,0,1-.07-1.4,28.46,28.46,0,0,1-.06-3.06c0-.68-1-.65-1,0Z" style="fill:#e2906f"/><path d="M111.6,65.62c-.72-.25-6.35-.42-7.45-.81a16.86,16.86,0,0,0,1.49,5.7,3.47,3.47,0,0,0,2.93,1.93C111.6,72.47,111.6,65.62,111.6,65.62Z" style="fill:#fff"/><path d="M92.35,55.81a3.1,3.1,0,0,0-1.74-2.25c-1.14-.45-1.6.81-1.88,1.71a5.88,5.88,0,0,0,.38,4.52c.44.79,1.23,1.77,2.22,1.78.41,0,.53-.66.1-.74-1.46-.27-2.19-2.31-2.24-3.59,0-.78.13-3.07,1.18-3.11.64,0,1.44,1.23,1.51,1.74,0,.26.5.2.47-.06Z" style="fill:#e2906f"/><path d="M91.61,57.71A1.23,1.23,0,0,0,91,59.13c.1.52.56,1.2,1.17,1a.43.43,0,0,0,.26-.63c-.11-.22-.35-.32-.41-.56a.65.65,0,0,1,.11-.56.43.43,0,0,0-.51-.67Z" style="fill:#e2906f"/><path d="M88.12,49c-.4-3.26-.53-6.23,1.58-8.94a.24.24,0,0,0-.33-.34c-2.63,2.31-2.16,6.26-1.74,9.35,0,.28.53.21.49-.07Z" style="fill:#7f4a19"/><path d="M91.57,49.4a41.15,41.15,0,0,1,.57-8.07.14.14,0,0,0-.27-.07c-1,2.52-.72,5.51-.47,8.14a.09.09,0,0,0,.17,0Z" style="fill:#7f4a19"/><path d="M93.11,37.35c3.53-5.34,11.4-6.09,17.28-5.45.18,0,.22-.29,0-.32-5.93-1.08-14.15.12-17.53,5.65a.12.12,0,0,0,.21.12Z" style="fill:#7f4a19"/><path d="M94.84,39.21a28.17,28.17,0,0,1,8.53-3.84c.17,0,.15-.36-.05-.34A17.83,17.83,0,0,0,94.66,39c-.14.1,0,.34.18.24Z" style="fill:#7f4a19"/><path d="M111.08,37.93c1.23,1.31,4.36,3.18,6.08,1.74a.14.14,0,0,0-.1-.24,7.31,7.31,0,0,1-2.91,0,7.23,7.23,0,0,1-2.89-1.63c-.12-.12-.29.06-.18.18Z" style="fill:#7f4a19"/><path d="M113.67,36.65a6.45,6.45,0,0,0,1.6.67,2.85,2.85,0,0,0,1.55.14.17.17,0,0,0,0-.33,10.94,10.94,0,0,0-1.43-.25,6.11,6.11,0,0,1-1.5-.6c-.24-.13-.46.23-.22.37Z" style="fill:#7f4a19"/><path d="M96.84,41.63c2.27.5,6,.69,7-2,0-.13-.15-.24-.24-.14A5.26,5.26,0,0,1,101,41.4a9.82,9.82,0,0,1-4.11,0c-.13,0-.2.18,0,.21Z" style="fill:#7f4a19"/><path d="M97.78,39.74a5.13,5.13,0,0,0,3.77-1.26.17.17,0,0,0-.2-.26,7.87,7.87,0,0,1-3.57,1.38.07.07,0,0,0,0,.14Z" style="fill:#7f4a19"/><path d="M404.14,128.58c.34,9,1.84,17.66,0,26.49s-10.48,32.36-14.24,37.8c-.74,1.07-2.49,4.23-6.15,4.09-1.69-.07-8.22,3.92-5.41,5.7,6.07.29,10.13-2.8,14.79-2.8,2.45,3.78,5.58,2.56,5.72,1.74.34-.6-1.5-.91-2.29-2.11-.5-.76.18-3.65.1-4.56,6.56-12.54,19.92-24.35,21.45-39a180.13,180.13,0,0,0-1.78-46.08c-1.15-6.68,2-9.74-6.32-9.22C401,101.24,403.85,121.06,404.14,128.58Z" style="fill:#f4b7b0"/><path d="M410,100.67s-10-.29-7.57,19.25c0,0,13.52,2.87,16.42,0C418.86,119.92,418.88,100.49,410,100.67Z" style="fill:#f99528"/><path d="M470.76,301.92a1.4,1.4,0,0,1,1,1.35c0,10,5.94,29.88,5.61,30.45-.21.37-2.87,3.73-11.47-5.9-3.24-3.64-4.78-7.1-7.32-11.11-.38-.6,3.51-4.95,3.71-6.41.41-3-2.63-9.27-.78-10.55C462.34,299.19,468.3,301.23,470.76,301.92Z" style="fill:#ef8e25"/><path d="M453.51,309c3.46,3.94,4.69,5.1,7.28,9.67s6.07,9,11,10.75c-2.16-9.77-1.34-13.67-4.8-23.06-.63-1.72-5.69-5.16-6.85-6.58-1.7-2.07-15.05-23-20.18-29.65-2.67-2.42-19.25,3.36-14.95,12.86C425.19,283.29,451.81,307,453.51,309Z" style="fill:#f4b7b0"/><path d="M457.17,323.48c-5.66,4-10.69,6.53-14.72,11.27,4.36,1.76,9.34.43,13.68-1.38s8.64-4.14,13.34-4.38c-.45-16.91.44-27.51-.64-44.37-.05-.83-8-7-8.78-7.34a3.53,3.53,0,0,0-2.27,0c-5,1.22-9.24,4.55-7.8,10.13C454.52,305.05,458.72,316.8,457.17,323.48Z" style="fill:#ffcbc3"/><path d="M406.68,256.66c.57,1.62,6.6,17.09,18.36,26.3,4.37-2.4,11.95-8.27,14.95-12.86-4.62-8.55-12-15.1-12.25-15.92-.44-1.28,7.91-38,13-49,1,9.34.12,47.49.79,53.39,1.13,10.1,3.72,15.21,8.42,28.8,8,.88,11-1.4,18.85-2.8-2-13.92-4.79-16.41-6.3-25.24-.85-4.93,2-19.29,4.3-28.77,3.75-15.4,7.05-24.49,4.7-44.29-14.67-1.35-42.7-.07-57.4,1C408.37,215.62,403.59,247.87,406.68,256.66Z" style="fill:#746152"/><path d="M427.81,195.54c3.39,3.5,8,7.21,12.82,8.33a.24.24,0,0,0,.18-.44c-2.11-1.15-4.35-2-6.41-3.27a34.63,34.63,0,0,1-6.18-5,.29.29,0,0,0-.41.4Z" style="fill:#665346"/><path d="M464.48,326.49a11.89,11.89,0,0,0,6.29-3.23s.72,1.41,1.29,2.69c.82,1.82,4.56,11,1.71,12-10.67,3.72-35.29,3.11-38.89,1.57-.9-1.64-.05-3.77,1.36-5a18.6,18.6,0,0,1,5-2.59c3-1.32,9.29-4.41,11.68-6.61C456,322.48,458.32,327.24,464.48,326.49Z" style="fill:#ffa028"/><path d="M442.57,333.39a10.74,10.74,0,0,1,2.9.73c.76.31,1.44.81,2.23,1.07.28.09.41-.26.26-.45-1.16-1.45-3.65-1.92-5.39-2.06-.46,0-.45.66,0,.71Z" style="fill:#fff"/><path d="M447.53,330.4a6.28,6.28,0,0,1,3.48,1.19,7.6,7.6,0,0,1,1.29,1.05c.32.32.46.6.9.71a.3.3,0,0,0,.39-.29c.05-1-1.53-1.9-2.27-2.33a7.08,7.08,0,0,0-3.79-1,.36.36,0,0,0,0,.71Z" style="fill:#fff"/><path d="M452.23,328.11a4.54,4.54,0,0,1,3,1c.77.55,1.28,1.34,2,1.87.23.16.46-.1.43-.32-.17-1.07-1.45-1.9-2.32-2.38a4.89,4.89,0,0,0-3.25-.68c-.29.05-.23.56.07.52Z" style="fill:#fff"/><path d="M460.26,143.66a53.8,53.8,0,0,1,2.43-10.56c1-2.71,5.46-16.12,6.23-20.23,1.41-7.63-3.27-10.54-6.93-13.32a43,43,0,0,0-12.82-1.31c-9.89,1.15-21.51,2-31.38,1-1.49.14-6.59,1.07-7.78,1.39,3.14,9.73,3.14,9.73,3.14,20.53,0,2.56-6.66,12.83.52,20.53,3.7,4,6.54,9.16,5.91,16.37-.7,8.06-3.49,15.35-5.45,29.21,10.18,3,15.63,3.17,26.64,3.92,7.33.5,23.89-2.29,30.76-4.91C469.47,167.33,458.7,158.61,460.26,143.66Z" style="fill:#ffa028"/><path d="M426.33,155.22c3.17,3.94,7.83,5.42,12.64,6.38,3.48.69,8.93,2.41,11.9-.17.19-.16,0-.49-.25-.42-4,1.35-8.63.26-12.68-.62s-8.25-2.31-11.09-5.69c-.31-.37-.81.16-.52.52Z" style="fill:#ea8c26"/><path d="M430.38,167.1c4.28,3.45,9.95,6.24,15.57,6.09.3,0,.39-.49.07-.54-5.72-1-10.57-2.27-15.24-6-.28-.22-.68.17-.4.4Z" style="fill:#ea8c26"/><path d="M429.21,129.15c-.87,1.78-1.75,4.49-.81,6.39a.41.41,0,0,0,.75-.1,18.86,18.86,0,0,0,.12-2.72,16,16,0,0,1,.6-3.29c.11-.38-.48-.65-.66-.28Z" style="fill:#ea8c26"/><path d="M447.31,115c-3.52,8.56-12.81,24-13.68,23.57-9.87-4.58-15.31-4.1-25.18-8.68-3.58-1.65-7.4-3.55-9.18-7.06-1.92-3.79-1.11-6.06-3.13-6.45-1.82-.34,1,6.37-.79,4.8s-6.76-9.43-7.92-9.28c-2.37.25,4.92,8.14,3.61,8.92-1.83-.39-8.94-7.53-9.85-5.83-.52,2.35,7.83,7.59,7.83,8.51-.65.91-8.59-5.75-9.86-3.72.49,1.7,9,6,8.81,7.24-4.22-1.23-6.54-2.08-6,0,2.35.87,1.6,1,6,2.68,3.24,1.25,7,3.1,8.95,3.1,5.54,0,26.1,20.09,37.54,20.09,5.22,0,20.74-18.17,24.4-22.93,4.05-5.27,7.22-8.31,10.06-17.11,1.76-5.48-1.14-10.77-7.32-11.63C454.51,100.26,449.51,109.7,447.31,115Z" style="fill:#ffcbc3"/><path d="M462.19,127.91l3.21-5.5a30.57,30.57,0,0,0,4.07-10.59c1.18-9-5.5-12.2-9-12.49C452.59,98.7,446,116,446,116,451.81,117.85,458.4,123.61,462.19,127.91Z" style="fill:#f99528"/><path d="M459.29,72.67a11.14,11.14,0,0,0,10.18,8c-2,4.78-8,4.27-10.19,3.73C453.52,83,451.9,79.79,451.6,78c-.34-2-.34-4.19-1.7-5.76a7.12,7.12,0,0,0-5.41-2.67c-4.65.15-7.52-1-6.8-6.61.47-3.67,2.49-4.61,6-4.55C458.43,58.65,458.21,68.56,459.29,72.67Z" style="fill:#a01f28"/><path d="M430.6,124.36c4.83-3.66,7.24-7.07,10.17-10.75a46.39,46.39,0,0,0,8.4-15.37c-2.35-.28-4.81,0-6.54-1.68-3.82-3.59-2-14-2.24-16.77-3.15.19-13.25,4-15.64,5.38-2,1.13-1.11,1.08-.67,3.35,1.25,6.58.86,9.85-6.29,10.76C419.11,102.62,420.81,114.44,430.6,124.36Z" style="fill:#f4b7b0"/><path d="M417.42,86c1.4,4.4,6.42,9.71,9.25,9.71,1.72,0,7-1.46,10.38-6.37,3.57-5.18,4.83-11.18,5.07-17.46.12-3.14.07-6.48-1.58-9.15a11.51,11.51,0,0,0-6.73-4.7,32.22,32.22,0,0,0-8.32-.9,11.4,11.4,0,0,0-4.12.46c-2.42.89-4.84,3.16-5.39,5.67C414.72,69.12,415.66,80.46,417.42,86Z" style="fill:#ffcbc3"/><path d="M420.43,62.09c4,4.49,11.73,6.14,18.07,5.58-.07,1.65.76,8.15,2,9.23.48.43,4.81,0,5.54-1.2,3.26-5.18,4.28-15-.75-20.26-3.48-3.66-8.15-6-15.72-6-7.74,0-8.56,5-9.73,4.9-4.37-.38-6.52,6.19-6.78,6.78-1.56,3.61-.21,11.24,2.46,13.11C416.32,68.68,418,63.86,420.43,62.09Z" style="fill:#c0272d"/><path d="M443,70.62c-3.58-.37-3.77,6.22-3.45,7.61s0,2.79,1.57,2.79c3,0,4.19-2.22,4.57-4.71S445.72,70.9,443,70.62Z" style="fill:#ffcbc3"/><path d="M417.57,69.61c1.53-1.61,3.77-1,5.35.1.14.1.33-.09.23-.22a4,4,0,0,0-5.84-.14c-.16.17.09.43.26.26Z" style="fill:#c0272d"/><path d="M428.84,69.67a5.67,5.67,0,0,1,3.05-.65,19.46,19.46,0,0,1,2.81.77.23.23,0,0,0,.18-.42,6.24,6.24,0,0,0-6.16.09.12.12,0,0,0,.12.21Z" style="fill:#c0272d"/><path d="M424.89,75.57a7.49,7.49,0,0,1-.6,4.39c-.36.6-1.21,1.37-1,2.17.27,1,2.12,1.27,3,1.13a.28.28,0,0,0,.07-.51,11.69,11.69,0,0,0-1.44-.37c-.59-.17-1-.2-.67-1a8.62,8.62,0,0,1,.69-1,7.55,7.55,0,0,0,.51-4.74c0-.33-.55-.34-.52,0Z" style="fill:#e89b92"/><path d="M441.22,74.3c.2-.58.27-1.34.95-1.55,1-.3,1.53.53,1.82,1.34a5,5,0,0,1-.32,4.06.14.14,0,0,0,.24.14,4.58,4.58,0,0,0-.22-5.5,1.4,1.4,0,0,0-1.81-.27c-.66.33-.74,1-.95,1.69a.15.15,0,0,0,.29.09Z" style="fill:#e89b92"/><path d="M440.67,76.63c.16-.18.23-.27.39-.08a1.51,1.51,0,0,1,.2.8,2,2,0,0,1-.24.93c-.17.31-.48.43-.69.69-.08.11-.07.31.09.34,1.09.2,1.35-1.58,1.3-2.3s-.72-1.58-1.43-.76c-.23.26.14.64.38.38Z" style="fill:#e89b92"/><path d="M428.72,85.29c-.19.54-6.16.45-6.27.07.47,1.6,1.18,5.86,3.78,5.86C428.33,91.22,428.75,86.62,428.72,85.29Z" style="fill:#fff"/><path d="M421.16,74.41c0,.77-.39,1.4-.88,1.4s-.88-.63-.88-1.4.39-1.41.88-1.41S421.16,73.63,421.16,74.41Z" style="fill:#c0272d"/><ellipse cx="431.88" cy="74.41" rx="0.88" ry="1.4" style="fill:#c0272d"/><path d="M421.36,79.63c0,.71-.88,1.29-2,1.29s-2-.58-2-1.29.87-1.3,2-1.3S421.36,78.91,421.36,79.63Z" style="fill:#f9b9b2"/><path d="M435.44,79.63c0,.71-.88,1.29-2,1.29s-2-.58-2-1.29.88-1.3,2-1.3S435.44,78.91,435.44,79.63Z" style="fill:#f9b9b2"/><path d="M421.4,57.79c2.78,4.12,9.7,7.48,14.62,7.61.3,0,.32-.4.06-.5-5-1.91-10.68-3-14.18-7.5-.22-.28-.7.09-.5.39Z" style="fill:#d32f3c"/><path d="M425.68,56.17a58.67,58.67,0,0,1,11.63,5.92c.25.15.55-.23.32-.42a32.24,32.24,0,0,0-11.88-5.75c-.16-.05-.22.19-.07.25Z" style="fill:#d32f3c"/><path d="M426.85,52.75c7.14,2.41,13.35,5,16.22,12.44.06.14.32.14.3,0-.64-7.92-9.94-11.17-16.36-13-.38-.11-.54.48-.16.61Z" style="fill:#d32f3c"/><path d="M433.26,51.64a17.11,17.11,0,0,1,8.33,3.92c2.43,2.18,3.6,4.88,4.78,7.86.06.17.39.17.36-.05-.87-6.55-7.13-11.37-13.44-11.93a.1.1,0,0,0,0,.2Z" style="fill:#d32f3c"/><path d="M414.36,68.18a16.57,16.57,0,0,1,.1-4.82,9.29,9.29,0,0,1,2.31-4.09c.13-.16,0-.41-.23-.3-3.09,1.73-3,6.22-2.66,9.21,0,.3.51.31.48,0Z" style="fill:#d32f3c"/><path d="M416.26,65.52a8.22,8.22,0,0,1,.92-2.85c.45-.82,1.14-1.44,1.63-2.22a.27.27,0,0,0-.36-.36c-1.77.92-2.62,3.5-2.85,5.34-.05.37.61.47.66.09Z" style="fill:#d32f3c"/><path d="M449.71,62.42c3.51,1.14,5.4,3.87,6.32,7.29a.2.2,0,0,0,.39,0c-.12-3.63-3.26-6.7-6.61-7.57a.17.17,0,0,0-.1.33Z" style="fill:#c0272d"/><path d="M450.45,66.92a9.65,9.65,0,0,1,4.93,6.4,8.48,8.48,0,0,0,1.43,3.47A15.11,15.11,0,0,0,465,82.14a.21.21,0,0,0,.11-.4c-4.41-1.78-8-4.23-9.22-9a9.48,9.48,0,0,0-5.17-6.22c-.27-.14-.5.25-.24.4Z" style="fill:#c0272d"/><path d="M452.65,73.5c.59,3.76,3.58,8.17,7.66,8.66.19,0,.26-.28.1-.37a16.33,16.33,0,0,1-4.73-3A10.55,10.55,0,0,1,453,73.42c0-.19-.33-.11-.3.08Z" style="fill:#c0272d"/><ellipse cx="182.17" cy="326.8" rx="29.92" ry="7.47" style="fill:#6a6f72"/><path d="M175.74,255.46H188.6a3.56,3.56,0,0,1,3.56,3.56v10.57a5.85,5.85,0,0,1-5.85,5.85H178a5.85,5.85,0,0,1-5.85-5.85V259a3.56,3.56,0,0,1,3.56-3.56Z" style="fill:#54595b"/><path d="M178.27,275.44h7.8a0,0,0,0,1,0,0v46.75a3.58,3.58,0,0,1-3.58,3.58h-.65a3.58,3.58,0,0,1-3.58-3.58V275.44A0,0,0,0,1,178.27,275.44Z" style="fill:#7f8386"/><path d="M255.29,257.7c-1.48,4.86-52.11,10.19-67.06,10.58s-57.93-9-60.64-30.56c0-.34-.08-.68-.12-1s-.09-.71-.14-1.08c0,0,0,0,0,0-.06-.58-.12-1.17-.19-1.79s-.13-1.29-.2-2c-2.1-20.54-4.21-57.89-4.85-69.78l0-.56c0-.32,0-.64,0-.94v-.07c0-.39,0-.77-.07-1.15v-.22l0-.29c0-.18,0-.34,0-.51,0-5.13,3-8.35,5.91-10.25a18.65,18.65,0,0,1,5-2.32l.06,0c.65-.21,1.33-.41,2-.6h0c17-4.68,45.46-2.95,53.38-2.61,2,.08,11.39.35,12,20,1,29.38,6.12,57.74,12,62.09s32,11.57,39.13,14.71c3,1.31,4.41,3.92,4.95,6.87C257.08,250.2,256.14,254.89,255.29,257.7Z" style="fill:#7f8386"/><path d="M255.29,257.7c-1.48,4.86-52.11,10.19-67.06,10.58s-57.93-9-60.64-30.56c0-.34-.08-.68-.12-1s-.09-.71-.14-1.08c0,0,0,0,0,0-.06-.58-.12-1.17-.19-1.79s-.13-1.29-.2-2c-1.77-17.8-3.77-50.74-4.85-69.78l0-.56c0-.32,0-.64,0-.94v-.07c0-.39,0-.77-.07-1.15v-.22l0-.29c0-.18,0-.34,0-.51,0-5.13,3-8.35,5.91-10.25a18.65,18.65,0,0,1,5-2.32c-9.94,5.09-2.76,39.07.69,87.54.87,12.27,32.24,24.38,52.2,24s57.5-4.25,69.26-10.52a6.91,6.91,0,0,1,1.42-.57C257.08,250.2,256.14,254.89,255.29,257.7Z" style="fill:#6a6f72"/><path d="M240.14,342.15c6.75,1,17.2,1.34,19.76-.06,2.17-1.19,2.15-5.11-3.4-7.61-9.81-4.42-17.72-8.54-18.11-9.26a74.76,74.76,0,0,1-1.39-7.85,1.66,1.66,0,0,0-.6-1.27c-.24-.14-7.91-1.46-9.16,2.37-.7,2.14-.1,16.18-.17,18.31C226.94,341.08,235.69,341.47,240.14,342.15Z" style="fill:#c0272d"/><path d="M237.39,332.41a9.2,9.2,0,0,1,2.17-1.91c.79-.49,1.75-.63,2.52-1.11A.23.23,0,0,0,242,329a5,5,0,0,0-2.84,1.07,8.22,8.22,0,0,0-2.12,2.08c-.17.23.2.52.39.3Z" style="fill:#fff"/><path d="M242.19,334a5.27,5.27,0,0,1,2.28-2c.61-.27,1.48-.23,2-.58a.2.2,0,0,0,0-.35c-.62-.38-1.73.13-2.31.41a5.66,5.66,0,0,0-2.44,2.28.27.27,0,0,0,.46.27Z" style="fill:#fff"/><path d="M247.19,336a4.36,4.36,0,0,1,1.92-1.42,5.17,5.17,0,0,0,1.68-.73.3.3,0,0,0-.21-.5,4.77,4.77,0,0,0-2.13.65,4.93,4.93,0,0,0-1.82,1.57c-.24.32.31.74.56.43Z" style="fill:#fff"/><path d="M268.87,337.85c8.91,1,19,.51,21.55-.82,2.17-1.12,2.15-4.82-3.4-7.18-9.81-4.18-17.72-8.07-18.1-8.75a66.48,66.48,0,0,1-1.4-7.41,1.56,1.56,0,0,0-.59-1.2c-.25-.13-7.91-1.38-9.17,2.24-.7,2-1.1,15.8-1.16,17.81C256.46,336.6,265.17,337.45,268.87,337.85Z" style="fill:#c0272d"/><path d="M268.83,327.64a5.5,5.5,0,0,1,1.73-2.24,6.41,6.41,0,0,1,1.13-.73,3.75,3.75,0,0,0,1-.51.26.26,0,0,0-.12-.43c-.81-.23-1.92.71-2.49,1.21a6.18,6.18,0,0,0-1.82,2.55c-.12.35.42.48.55.15Z" style="fill:#fff"/><path d="M278.56,331a4.45,4.45,0,0,1,1.14-1.19c.5-.33,1.05-.53,1.56-.84a.36.36,0,0,0-.28-.66,4.9,4.9,0,0,0-3,2.34c-.23.39.36.73.62.35Z" style="fill:#fff"/><path d="M273.2,329.51a6.88,6.88,0,0,1,1.77-2,13.67,13.67,0,0,1,2.09-1.06c.27-.13.12-.5-.14-.52a3.84,3.84,0,0,0-2.35,1.07,7.36,7.36,0,0,0-1.88,2.2c-.18.33.32.63.51.3Z" style="fill:#fff"/><path d="M255.79,238.23c.67.51,5.1,4.66,5.7,5.46,6.5,8.66,7.38,55.83,8.56,77.23-2.26,3.58-8.48,2.87-13.74,1.56-3.71-15.5-12.16-46.2-15.36-64.06-17.55-6.12-32-14.9-47.13-25.65-2-1.44-4.14-3.05-5.06-5.37-1.62-4.13,1.09-8.82.25-13.18-.3-1.52,10-2.81,11.58-2.62,4.79.59,9.59,3.47,11.65,3.54C214.54,215.22,242.71,228.33,255.79,238.23Z" style="fill:#1f1f38"/><path d="M171.4,246.84a235.12,235.12,0,0,0,35.38,15.3,8.78,8.78,0,0,1,3.51,1.81,8.67,8.67,0,0,1,1.85,3.93c4.77,17.31,10.59,36.19,13.33,58.91,3.1,2,11.76,1.41,14.67-1.14-1.15-28.07-2.09-49.63-4.68-71.83a15,15,0,0,0-5.28-8.57c-9.6-7.59-29.58-20.05-31-22.09-2.18-3.24-3.76-5.86-5.78-9.2q-12.37.16-24.74-.4c-4.56-.21-12.22-2.83-12.66,3.29-.32,4.44-3.79,10.48-1.87,14.6C158.87,241.58,165.46,243.68,171.4,246.84Z" style="fill:#2b2a4a"/><path d="M214.9,170.46c.7,2.14-1.48,11.6.65,12.35,6.23,2.19,11.69,3.59,15.17,5.69s3.41,6.46,2.72,8.87c-.61,2.13-4.95,3.86-6.66,2.45a6,6,0,0,1-2.42-4.65,11.73,11.73,0,0,1-5.67,3.9c-.38-2.2-.48-2.8.88-4.55-6.35-.62-13.79,1.45-16.4-5.84-1.42-3.94-1.33-17-1.6-21.16-.23-3.82-1.35-5.92,0-10.77.81-2.95,1.53-5.39,4-7.21C213.47,143.7,213.39,165.87,214.9,170.46Z" style="fill:#f4b7b0"/><path d="M216.46,170.33c-4.7,1.48-14.48,5.6-17,.7-2.14-4.2-3.84-36.32.75-36C214.08,136,216.88,170.2,216.46,170.33Z" style="fill:#56aece"/><path d="M146.76,138.82c-2.11.52-.41,10.47.16,12.56a104.63,104.63,0,0,1,4,32.66c-.62,12.35-2.73,41.93,3.3,47.41,2.87-2.47,8.75-8.42,17.36-8.83,17.71-.83,31.64-5.14,40.71-7.48-5.33-6.28-7.27-22.48-7.26-28.82,0-6.52.23-9.2-.4-18.34-.73-10.5,1.18-21.94-4.35-33-7.74-.32-7,.71-14.59-1-5.07-1.15-12.23-.25-20.76,1.17C155.9,136.69,152.3,137.45,146.76,138.82Z" style="fill:#56aece"/><path d="M147.61,203c3.26.22,15.84.15,36.33-5.92,5.3-1.57,3.37,2,8.22-.66,2.11-1.14,3.1-2.06,5.48-2.22,3.22-.21,2.21,1.27,4.2,3.81,2.22,0,1.67-7-2.09-9.95-1-.79-2.5-2.27-3.79-2.35-2.13-.12-5.89,1.92-7.73,3-4.31,2.54-26.94,2.61-31.84.26-.16-7.07,3.53-24.57,1.19-31.24a4.24,4.24,0,0,0-1.22-2.05,4.13,4.13,0,0,0-2.43-.64,28.92,28.92,0,0,0-10,1.44C137.31,158.72,139.08,202.4,147.61,203Z" style="fill:#ffcbc3"/><path d="M139.08,152c-1,6-1,20.88-.16,23.86,1,3.65,21.78,3.27,22.34,0,.14-.83.06-23.91-1.57-28.21-2.53-6.65-5.84-9.67-9.87-9.4C142.12,138.73,140.15,145.38,139.08,152Z" style="fill:#56aece"/><path d="M158.49,169.68c1.73-7.23.06-16.25-2.86-23-.17-.39-.69-.08-.64.27.57,3.59,1.85,7,2.47,10.63a41.47,41.47,0,0,1,.22,12c-.06.47.71.56.81.11Z" style="fill:#4b9cb2"/><path d="M159.9,166.81c1.28-2.78,2.4-6.25,1.86-9.34,0-.31-.47-.19-.5.07-.4,3.17-.51,6-1.78,9-.12.29.29.54.42.25Z" style="fill:#4b9cb2"/><path d="M202.2,147.72c1.83,7.72,2.12,15.41,2.16,23.31a.41.41,0,0,0,.82,0A89,89,0,0,0,203,147.5a.41.41,0,0,0-.79.22Z" style="fill:#4b9cb2"/><path d="M205.12,160.48c.57-3.31,1.43-7.18,1-10.52,0-.29-.46-.39-.54-.07-.87,3.28-.75,7.14-1,10.52,0,.28.44.35.49.07Z" style="fill:#4b9cb2"/><path d="M161.25,138c2.84,13.33,31.08,15.24,31.77-.34,0-.18-.26-.18-.28,0-1.07,14.45-27.58,12.48-30.93.19a.29.29,0,0,0-.56.15Z" style="fill:#4b9cb2"/><path d="M170.22,182c7.36-2.63,14.8-6.82,19.91-12.85a.21.21,0,0,0-.29-.3c-6.09,5.37-12.05,9.91-19.69,12.87-.18.07-.11.35.07.28Z" style="fill:#4b9cb2"/><path d="M176.13,186.62c6.2-.56,11.41-4.43,15.79-8.61.23-.22-.1-.54-.34-.34-4.74,3.82-9.11,7.92-15.45,8.58-.23,0-.24.39,0,.37Z" style="fill:#4b9cb2"/><path d="M155.32,226c8.78-3.72,16.77-6.78,26.31-7.85.34,0,.36-.56,0-.55-9.53.11-18.07,4.14-26.63,7.86-.37.16-.05.7.32.54Z" style="fill:#4b9cb2"/><path d="M154.31,219.83c3.35-1.19,7.08-2.11,10.23-3.77.28-.15.08-.56-.22-.5-3.44.75-6.87,2.44-10.18,3.67-.37.14-.21.74.17.6Z" style="fill:#4b9cb2"/><path d="M164.88,135.2c-.88.72-1.42,1-1.43,2.14,0,4.39,8.38,9,17.16,8.36,4.31-.33,10.65-4.2,10.65-8.67,0-2.39-2.71-2-4.27-4-1.22-1.57-.19-9.59-.77-11.5-3.52.32-14.49-3.62-16.45-1.65C167.09,122.53,168.14,132.5,164.88,135.2Z" style="fill:#f4b7b0"/><path d="M170.1,129.9c3.68,3.43,9.71,5.37,14.38,3.51,3.38-1.34,5.05-5.48,6.64-10.17,2-5.83.79-18.14,0-25.39-.67-6.12-4.67-4.26-10.73-5.33C161.6,89.23,158.74,119.33,170.1,129.9Z" style="fill:#ffcbc3"/><ellipse cx="175.49" cy="112.65" rx="0.88" ry="1.4" style="fill:#2a2b4a"/><path d="M188,112.65c0,.77-.39,1.4-.88,1.4s-.88-.63-.88-1.4.39-1.41.88-1.41S188,111.87,188,112.65Z" style="fill:#2a2b4a"/><path d="M167.09,100.2c4.78,1.16,19.76.07,23.77-.65.65-.12,5,.52,5-5.52-.05-3.07-.79-7.16-9.27-7.15-1.12,0-9.82,1.46-11.35,1.57-4.91.33-12.84-.26-12.84,7.57,0,0-8.33,7.58-.63,17.17C167.13,119.89,168.65,100.58,167.09,100.2Z" style="fill:#2a2b4a"/><path d="M162,108.87c-1.77.39-2,2.91-1.94,4.81a11.61,11.61,0,0,0,.66,4,3.72,3.72,0,0,0,2.92,2.45c1.72.13,3.12-1.58,3.38-3.36S166.31,107.94,162,108.87Z" style="fill:#ffcbc3"/><path d="M171.42,108a7,7,0,0,1,3.46-1.41c1.11-.12,2.15.33,3.22.25.36,0,.63-.49.32-.76-2-1.78-5.85-.32-7.64,1.09-.47.37.16,1.2.64.83Z" style="fill:#2a2b4a"/><path d="M184,106.83a3.81,3.81,0,0,1,3.45-.76,4.13,4.13,0,0,1,1.21.3c.29.16.39.34.7.44a.45.45,0,0,0,.54-.31l.06-.18a.59.59,0,0,0-.16-.59c-.79-.79-2.16-.81-3.2-.79a4.29,4.29,0,0,0-3.22,1.27.44.44,0,0,0,.62.62Z" style="fill:#2a2b4a"/><path d="M180.82,111.74a8.38,8.38,0,0,0,1.13,5.82c.51.71,1.26,1.19,1.52,2.08s.09.89-.66,1.16-1.4.12-1.82.78a.4.4,0,0,0,.24.59c1.54.49,3.82-.22,3.65-2s-1.43-2.45-2.22-3.78a8.27,8.27,0,0,1-.81-4.6c0-.67-1-.65-1,0Z" style="fill:#e89b92"/><path d="M165.2,113c-.46-.77-1.24-2-2.15-2.3s-1.41.85-1.66,1.63c-.64,2.09-.09,6.47,2.81,6.56.5,0,.47-.7,0-.76-2-.27-2.5-3.29-2.26-4.87.16-1.1.58-2.5,1.75-1.38a7.15,7.15,0,0,1,1.09,1.36.24.24,0,0,0,.42-.24Z" style="fill:#e89b92"/><path d="M164.49,115a1.21,1.21,0,0,0-.62,1.42c.1.52.56,1.2,1.17,1a.44.44,0,0,0,.26-.63c-.12-.22-.35-.32-.42-.56a.66.66,0,0,1,.12-.56.42.42,0,0,0-.51-.66Z" style="fill:#e89b92"/><path d="M177.55,125.38c2,.41,6.23,1.37,7.69-.57.15-.2-.1-.43-.3-.39a17.28,17.28,0,0,1-3.44.57,20.43,20.43,0,0,1-3.75-.33c-.47-.09-.67.62-.2.72Z" style="fill:#e89b92"/><path d="M180.79,127.59a15.88,15.88,0,0,0,2.84-.27.37.37,0,0,0-.1-.73,17,17,0,0,0-2.83.37c-.36.05-.27.66.09.63Z" style="fill:#f4b7b0"/><polygon points="296.42 183.02 211.43 183.02 219.26 127.12 304.25 127.12 296.42 183.02" style="fill:#a0a6aa"/><polygon points="297.99 183.02 213 183.02 220.83 127.12 305.82 127.12 297.99 183.02" style="fill:#bbbfc2"/><path d="M244.84,127s-15.7,21.18-2.63,31.61c9.94,7.94,49.64,2.68,59.35-1l4.26-30.42Z" style="fill:#c8ccce"/><polygon points="268.87 201.6 255.29 201.6 251.37 171.03 264.95 171.03 268.87 201.6" style="fill:#626568"/><polygon points="271.22 201.6 257.64 201.6 253.72 171.03 267.3 171.03 271.22 201.6" style="fill:#808386"/><rect x="179.63" y="198.04" width="65.21" height="3.56" style="fill:#bbbfc2"/><rect x="240.14" y="198.04" width="42.86" height="3.56" style="fill:#808386"/><rect x="91.22" y="201.6" width="333.82" height="7.25" style="fill:#ba6d43"/><polygon points="97.55 338.81 93.08 338.81 106.8 208.86 117.38 208.86 97.55 338.81" style="fill:#a3603e"/><polygon points="113 332.54 108.75 332.54 121.81 208.86 131.88 208.86 113 332.54" style="fill:#894e34"/><polygon points="408.73 338.81 413.19 338.81 399.47 208.86 388.9 208.86 408.73 338.81" style="fill:#a3603e"/><polygon points="393.27 332.54 397.52 332.54 384.46 208.86 374.4 208.86 393.27 332.54" style="fill:#894e34"/></svg>