<svg xmlns="http://www.w3.org/2000/svg" viewBox="0 0 544 362"><title>student-friendly-environment</title><rect width="544" height="362" style="fill:#f7f7f7"/><polygon points="223.28 88.72 220.09 89.7 217.96 84.75 213.12 85.6 210.91 82.16 209.17 83.27 212.12 87.88 216.7 87.07 218.93 92.22 223.72 90.75 223.28 88.72" style="fill:#50bfa5"/><polygon points="427.57 266.83 424.38 267.8 422.24 262.85 417.41 263.71 415.2 260.26 413.46 261.38 416.41 265.99 420.99 265.18 423.21 270.33 428.01 268.86 427.57 266.83" style="fill:#50bfa5"/><path d="M203.65,325.45s-17-57.61-18.36-70.32,8.14-8.77,8.14-8.77-8-24.22-2.21-30,11,5,11,5S204,192,210.13,192c11.48,0,11.26,32.06,11.26,32.06s2.93-12.56,9.08-9.12c9.27,5.2-4,30.37-4,30.37s11.82,0,16,6C249.85,261.91,203.65,325.45,203.65,325.45Z" style="fill:#50bfa5"/><path d="M209.21,317.83s-49-8.2-59.66-16.88-.11-12.6-.11-12.6-24.62-12.62-24.34-21.2,12.52-4.22,12.52-4.22-20.74-23.65-15.83-28.14c9.14-8.37,33.12,16.22,33.12,16.22s-7.12-11.69.38-13.55c11.31-2.79,19.66,26,19.66,26s-2.12-11.39,5.67-9.87C194.62,256.36,209.21,317.83,209.21,317.83Z" style="fill:#50bfa5"/><path d="M180.62,253.64c-7.81-1.42-5.67,9.87-5.67,9.87s-8.35-28.84-19.66-26c-7.5,1.86-.38,13.55-.38,13.55s-24-24.59-33.12-16.22l87.25,83C207.49,309.91,193.73,256,180.62,253.64Z" style="fill:#3c8f7c"/><path d="M223.15,324.59s-25.81-26.25-38.8-29-10.66,6.51-10.66,6.51S147.9,279.57,141.93,285s.49,10.73.49,10.73S120.94,292,117.87,299c-4.73,10.83,30.59,16.72,30.59,16.72s-14.8,1-11.37,7.82C142.27,333.8,223.15,324.59,223.15,324.59Z" style="fill:#355389"/><path d="M117.87,299c3.07-7,24.55-3.25,24.55-3.25S136,290.5,141.93,285s31,14,31,14S167,287.8,180,290.53s43.16,34.06,43.16,34.06Z" style="fill:#466eb6"/><path d="M264.24,53.91c-8.69,1.43-11.27,12.83-4.05,17.93a6.64,6.64,0,0,1,2.58,3.84l1.31,5.3a2.91,2.91,0,0,0,3.28,2.16l3.29-.55a2.9,2.9,0,0,0,2.41-3.09c-.46-5.47-1-7.46.75-9.9C279,62.46,272.93,52.48,264.24,53.91Z" style="fill:#f7cc7f"/><path d="M265.12,77.09c-.56-4.69-1.36-9.64-1.63-11-5,.28-3.08-5-.79-2.84a4.32,4.32,0,0,1,1.17,2.34,12.94,12.94,0,0,0,4.75-1.38,6,6,0,0,1,.13-2.78,1.36,1.36,0,0,1,2.48-.33,1.81,1.81,0,0,1,.1,1.37,4.47,4.47,0,0,1-2.22,2c.26,3.73.63,7.49,1.08,11.19l-.47.06c-.45-3.64-.81-7.34-1.07-11A13.39,13.39,0,0,1,264,66c.34,1.79,1.09,6.62,1.62,11Zm-4-12.15a2.8,2.8,0,0,0,2.26.63,3.81,3.81,0,0,0-1-2C261.15,62.4,260.39,64.14,261.13,64.94Zm8.05-3.37a5.35,5.35,0,0,0-.11,2.34,3.75,3.75,0,0,0,1.81-1.65,1.07,1.07,0,0,0-.55-1.39C270.27,60.85,269.37,61.14,269.18,61.57Z" style="fill:#fae0b2"/><path d="M262.73,75.55s0,.08,0,.13l1.31,5.3a2.91,2.91,0,0,0,3.28,2.16l3.29-.55a2.9,2.9,0,0,0,2.41-3.09c-.21-2.43-.43-4.18-.46-5.58Z" style="fill:#96d9c9"/><path d="M257.8,50l-2.6-4.74a1,1,0,0,1,.38-1.29.94.94,0,0,1,1.28.38l2.6,4.74a1,1,0,0,1-.38,1.29A.94.94,0,0,1,257.8,50Z" style="fill:#fae0b2"/><path d="M252.12,61.42l-5.66-.49a1,1,0,0,1-.86-1,.94.94,0,0,1,1-.86l5.66.49a.95.95,0,1,1-.16,1.89Z" style="fill:#fae0b2"/><path d="M246.51,78.78a1,1,0,0,1,0-1.34,32.34,32.34,0,0,1,4.55-3.71,1,1,0,0,1,1.06,1.58,29.19,29.19,0,0,0-4.28,3.48A.94.94,0,0,1,246.51,78.78Z" style="fill:#fae0b2"/><path d="M271.79,49.7a.94.94,0,0,1-.67-1.16,35.94,35.94,0,0,0,1.16-7.36,1,1,0,1,1,1.9.1A38.39,38.39,0,0,1,273,49,1,1,0,0,1,271.79,49.7Z" style="fill:#fae0b2"/><path d="M277.62,57a1,1,0,0,1,.63-1.18L284.14,54a.95.95,0,0,1,.55,1.81l-5.89,1.78A.94.94,0,0,1,277.62,57Z" style="fill:#fae0b2"/><path d="M287.29,72.64a.78.78,0,0,1-.26,0,29.7,29.7,0,0,1-5.89-2.36.95.95,0,1,1,.89-1.67,28,28,0,0,0,5.51,2.21A.94.94,0,0,1,288.2,72,1,1,0,0,1,287.29,72.64Z" style="fill:#fae0b2"/><path d="M373.51,114.52l-3-7L363.07,106a1.05,1.05,0,0,1-.48-1.82l5.77-5-.85-7.58a1,1,0,0,1,1.58-1l6.53,3.93,6.94-3.14A1.05,1.05,0,0,1,384,92.54L382.29,100l5.14,5.64a1,1,0,0,1-.68,1.75l-7.6.65-3.77,6.63A1,1,0,0,1,373.51,114.52Z" style="fill:#f7cc7f"/><polygon points="420.78 90.42 419.56 95.34 411.44 94.25 408.76 101.22 402.55 101.4 402.64 104.54 410.95 104.3 413.48 97.7 421.94 98.83 423.78 91.44 420.78 90.42" style="fill:#f48c7f"/><path d="M348.37,326.1H205.51a10.07,10.07,0,0,1-9.88-10.25v-6.09a10.07,10.07,0,0,1,9.88-10.25H348.37a20.25,20.25,0,0,0-.26,26.28Z" style="fill:#b75742"/><path d="M346.17,302.55H266.93a10.07,10.07,0,0,0-9.88,10.25h0a10.07,10.07,0,0,0,9.88,10.25h79.24A20.34,20.34,0,0,1,346.17,302.55Z" style="fill:#fae0b2"/><path d="M298.18,281a.59.59,0,0,0-.59-.84H222c-5.93,0-10.73,4.32-10.73,9.66h0c0,5.33,4.8,9.65,10.73,9.65h75.61a.59.59,0,0,0,.59-.84h0A18.53,18.53,0,0,1,298.18,281Z" style="fill:#86b1f2"/><path d="M297.71,282H260.24c-7,0-12.59,3.62-12.59,8.09s5.64,8.09,12.59,8.09H298A18.43,18.43,0,0,1,297.71,282Z" style="fill:#f7cc7f"/><path d="M288,285.83h-4.88c-1,0-1.9.36-1.9.79v.07H288Z" style="fill:#b75742"/><path d="M292.19,287.81c0-1.09-1.27-2-2.84-2h-6.27c1.2,0,2.16.67,2.16,1.5l0,21.15,3.46-2.72,3.53,2.72Z" style="fill:#f47458"/><path d="M284.28,279.5h-44c-3.9,0-7.06-3.75-7.06-8.38h0c0-4.63,3.16-8.38,7.06-8.38h44A14.75,14.75,0,0,0,284,279Z" style="fill:#fae0b2"/><path d="M233.24,271.12h0c0-4.63,3.24-8.38,7.23-8.38h44.65a.42.42,0,0,0,.38-.44h0a.41.41,0,0,0-.38-.43H214.29c-4.41,0-8,4.14-8,9.25h0c0,5.11,3.57,9.25,8,9.25h70.83a.41.41,0,0,0,.38-.43h0a.42.42,0,0,0-.38-.44H240.47C236.48,279.5,233.24,275.75,233.24,271.12Z" style="fill:#466eb6"/><path d="M276.6,266.86h-4.88c-1.05,0-1.9.34-1.9.77v.07h6.78Z" style="fill:#184655"/><path d="M280.77,268.79c0-1.07-1.28-1.93-2.85-1.93h-6.26c1.19,0,2.16.66,2.16,1.47l0,20.74,3.46-2.67,3.52,2.67Z" style="fill:#3c8f7c"/><path d="M354.37,138.71l6.49-1.71-4.4,58.7-7.79.26,3.93-55.12A2.38,2.38,0,0,1,354.37,138.71Z" style="fill:#184655"/><path d="M357,197.38a2.17,2.17,0,0,1-.44,0,2.6,2.6,0,0,1-2.14-2.86l4.33-55.2a2.35,2.35,0,0,1,2.53-2.31,2.6,2.6,0,0,1,2.14,2.86l-4.33,55.2A2.42,2.42,0,0,1,357,197.38Z" style="fill:#f7cc7f"/><path d="M297.28,200.32a.49.49,0,0,0,0,.12h0a3.84,3.84,0,0,0,3.88,3.75L356,199.28a3.83,3.83,0,0,0,3.15-4.38l0-.28Z" style="fill:#f7cc7f"/><path d="M335.46,259.61c-3.59,2-14.56-1.5-14.56-1.82-.16,3-12.29,32.36-12.29,32.36v9s25,1.2,24.64-1-1.71-.78-6.69-4.95c-.45-.37-7.45-2-5.55-6.14C324.83,278.73,332.94,264.82,335.46,259.61Z" style="fill:#f7a491"/><path d="M307.79,299.51h27.37c1-.1,1.22-.9.87-1.39-.72-1-6-3.38-9.49-4.95-6.14.72-16.93-1.64-17.92-3C306,293.61,307.24,299.39,307.79,299.51Z" style="fill:#3c8f7c"/><path d="M301.79,238.53c-.37-1.12,23.56-11.27,24.63-10.11,1.9,2.05-12.94,40.58-12.94,40.58l17,5.21s17.73-44.51,17-52.65-9.62-17.4-28.87-11.48S301.79,238.53,301.79,238.53Z" style="fill:#355389"/><path d="M351.34,264.67a90.88,90.88,0,0,0-13.47-1c.5,3.73,2.9,22.87,2.46,24.05a14.38,14.38,0,0,1-5.72,7s18.58,16.77,19.71,14.83-.83-1.67-2.05-8.06c-.1-.57-2.79-9.49-3-14.3C349,278,351.2,269.76,351.34,264.67Z" style="fill:#f7a491"/><path d="M345.38,202.06c-2.59-1.38-9.32-1.43-16.72-.95a169.48,169.48,0,0,0-42.4,8.32l-9.18,3,0-9.42s-29.22-4.88-30.23,2.36c-1.54,10.9.36,33,10.1,38,30.24,15.35,72.61-24.45,72.76-19.24.21,7,6.1,33,7.61,44.41,4.19.07,11.39.07,14.52-.65C352.47,245.59,352.76,206,345.38,202.06Z" style="fill:#466eb6"/><path d="M334.05,295.08l20.89,16.69c.82.55,1.51.08,1.55-.52.08-1.24-2.47-6.4-4.2-9.85-5.21-3.33-12.07-12-12-13.75C338.14,289.51,333.69,294.65,334.05,295.08Z" style="fill:#3c8f7c"/><path d="M286.76,111c-.7-6.41-1.44-12.85-6.76-17.55-4.3-3.81-9.77-4.45-15.18-2.41-15.33,5.76-7.43,19.38-27,33.1-6.07,4.27-12.76,7.19-17.34,12.93-6.4,8-4,17.71,1.85,24.16,27.91,30.89,59.07-10.82,61.31-20.84C285.32,133,287.21,115.17,286.76,111Z" style="fill:#13375b"/><path d="M281.09,147.12a85.32,85.32,0,0,0-4.62-7.54c-2.37-4.21-8.48-6.33-8.48-6.33s-2,0-4.39.15a1.78,1.78,0,0,1-.44.78c-.88.66-5.94-.19-9.2,2-10.94,9.38-7.92,54.84-7.06,69.2l33.33.31s-4.21-30.89,2.57-38.83C287.51,161.36,284.48,153.35,281.09,147.12Z" style="fill:#50bfa5"/><path d="M266.07,117.87S264.24,131,263,134.13s7,10,14,12-2.11-7-1.82-10.42,1.54-19.49,1.54-19.49Z" style="fill:#f7a491"/><path d="M276.28,120.87c.2-2.66.35-4.61.35-4.61l-10.56,1.61s-.26,1.53-.56,3.71C269.79,124.06,273.64,123.28,276.28,120.87Z" style="fill:#f47458"/><path d="M269.38,94a12,12,0,0,0-6.73,4.86c-2.57,3.92-4.33,15.47,4.13,20.85s15.05-2.23,15.16-9.66S280.45,92.66,269.38,94Z" style="fill:#f7a491"/><path d="M283.87,107.69c-.72,1.79-2.15,2.91-3.2,2.49s-1.3-2.22-.58-4,2.15-2.91,3.2-2.49S284.6,105.9,283.87,107.69Z" style="fill:#f7a491"/><path d="M270.63,93.73s-5.3,11.9-10,13-4.6,7-4.6,7,.11-13.83,4.48-17S270.63,93.73,270.63,93.73Z" style="fill:#13375b"/><path d="M262.52,109.16c.61,1.94.05,3.84-1.26,4.25s-2.86-.81-3.47-2.74-.05-3.84,1.25-4.25S261.9,107.23,262.52,109.16Z" style="fill:#f7a491"/><path d="M322.12,195.07c-2-.72-5-.81-4.92-1.07.2-1.07,9,2.35,7.84.8-.67-.87-7.28-4-8.88-3.44s-11.8,3.37-11.8,3.37l-28-6.56s-7.06-16-7.75-29.84a38.5,38.5,0,0,0-14.88,5c2.44,13.19,8.39,34.56,15,38.57,2.77,1.69,35.79-2,35.79-2s7.27-.51,8.46-1c.91-.35,3.23-1.66,4.49-2,2.87-.82,8,1.22,8,.66S324.17,195.81,322.12,195.07Z" style="fill:#f7a491"/><path d="M268.8,143.6c-.27-4.24-1.87-8.33-6.39-9.65a9.12,9.12,0,0,0-8.17,1.79c-2.66,2.17-3.4,5.65-3.39,8.95a128,128,0,0,0,1.91,22.63,48.28,48.28,0,0,1,16.83-5.3S269.16,149.21,268.8,143.6Z" style="fill:#96d9c9"/><rect x="147" y="107.74" width="32.89" height="47.33" rx="1.6" transform="translate(4.34 268.03) rotate(-79.45)" style="fill:#f7cc7f"/><rect x="151.72" y="104.91" width="7.73" height="16.64" rx="1.6" transform="translate(15.79 245.45) rotate(-79.45)" style="fill:#f7cc7f"/><path d="M184.09,150.49a1.59,1.59,0,0,1-1.83,1.14l-43.66-8.12a1.62,1.62,0,0,1-1.31-1.72l2.29-26.16a1.61,1.61,0,0,1,1.89-1.44l48.5,9a1.6,1.6,0,0,1,1.25,2Z" style="fill:#fae0b2"/><polygon points="383.04 54.92 375.61 56.95 374.01 47.95 376.44 47.52 377.57 53.86 382.39 52.54 383.04 54.92" style="fill:#50bfa5"/><path d="M146.41,178.53a11.46,11.46,0,0,1,6,1.54,8.64,8.64,0,0,1,3.2,3.3l-.34.24a7.86,7.86,0,0,0-4-2.46,9.8,9.8,0,0,0-4.46,0Z" style="fill:#355389"/><path d="M155.43,183.49s-11.34,1.89-10.28,10.75,13,15.74,23.68,10.26c14.36-7.36,8.69-26.09-1.53-27.54S155.43,183.49,155.43,183.49Z" style="fill:#f47458"/><path d="M160.24,179.59s2.95-3,9.43-.27,7,15.64,1.17,14.89S155.62,181.45,160.24,179.59Z" style="fill:#f48c7f"/><rect x="181.99" y="39.82" width="55.26" height="31.38" rx="2.89" transform="translate(-6.46 73.66) rotate(-19.63)" style="fill:#86b1f2"/><path d="M207.3,55.78a9.24,9.24,0,1,1-11.8-5.6A9.23,9.23,0,0,1,207.3,55.78Z" style="fill:#fff"/><path d="M199.93,54.48a2.72,2.72,0,1,1-3.48-1.65A2.73,2.73,0,0,1,199.93,54.48Z" style="fill:#86b1f2"/><path d="M199.41,59.46h.3a4.2,4.2,0,0,1,4.2,4.2v0a0,0,0,0,1,0,0h-8.7a0,0,0,0,1,0,0v0a4.2,4.2,0,0,1,4.2-4.2Z" transform="translate(-9.08 70.63) rotate(-19.63)" style="fill:#86b1f2"/><path d="M208.45,50.74a1.19,1.19,0,0,1-1.11-.79,1.18,1.18,0,0,1,.72-1.5l20.37-7.27a1.09,1.09,0,0,1,.4-.07,1.18,1.18,0,0,1,.39,2.29l-20.37,7.27A1.34,1.34,0,0,1,208.45,50.74Z" style="fill:#fff"/><path d="M214,55.81a1.17,1.17,0,0,1-.39-2.28l15.91-5.68a1.09,1.09,0,0,1,.4-.07,1.2,1.2,0,0,1,1.11.78,1.17,1.17,0,0,1,0,.9,1.15,1.15,0,0,1-.67.61l-15.91,5.68A1.34,1.34,0,0,1,214,55.81Z" style="fill:#fff"/><path d="M310.62,243.89H198.07a6.33,6.33,0,0,0-6.32,6.33v5.32a6.32,6.32,0,0,0,6.32,6.33H310.62l-.06-.06A12.89,12.89,0,0,1,310.62,243.89Z" style="fill:#f47458"/><path d="M308.63,246.56H248.46a6.33,6.33,0,0,0-6.33,6.32h0a6.33,6.33,0,0,0,6.33,6.33h60.17A12.9,12.9,0,0,1,308.63,246.56Z" style="fill:#fae0b2"/><rect x="397.15" y="213.19" width="37.25" height="27.24" rx="2.1" transform="translate(-54.43 170.06) rotate(-21.73)" style="fill:#fae0b2"/><path d="M431.69,232,424,212.8a.61.61,0,0,1,.33-.78h0a.62.62,0,0,1,.79.34l7.66,19.23a.59.59,0,0,1-.33.78h0A.62.62,0,0,1,431.69,232Z" style="fill:#466eb6"/><path d="M428,229.5l-6.29-15.79a.6.6,0,0,1,.33-.78h0a.61.61,0,0,1,.79.33l6.29,15.8a.61.61,0,0,1-.34.78h0A.61.61,0,0,1,428,229.5Z" style="fill:#466eb6"/><path d="M427.13,233.85l-7.66-19.23a.59.59,0,0,1,.33-.78h0a.6.6,0,0,1,.79.33l7.66,19.24a.6.6,0,0,1-.33.78h0A.62.62,0,0,1,427.13,233.85Z" style="fill:#466eb6"/><path d="M423.1,230.37l-5.91-14.84a.59.59,0,0,1,.33-.78h0a.6.6,0,0,1,.79.33l5.91,14.85a.59.59,0,0,1-.33.78h0A.62.62,0,0,1,423.1,230.37Z" style="fill:#466eb6"/><path d="M431.49,210.75l-.16-.39a.27.27,0,0,0-.34-.16l-2.92,1.16a.29.29,0,0,0-.14.36l.16.39a.27.27,0,0,0,.34.16l2.92-1.16A.28.28,0,0,0,431.49,210.75Z" style="fill:#355389"/><path d="M432.15,212.41,432,212a.26.26,0,0,0-.34-.16L428.73,213a.26.26,0,0,0-.13.35l.15.39a.26.26,0,0,0,.34.16l2.92-1.16A.26.26,0,0,0,432.15,212.41Z" style="fill:#355389"/><path d="M432.81,214.06l-.16-.38a.26.26,0,0,0-.34-.17l-2.91,1.17a.26.26,0,0,0-.14.35l.15.39a.28.28,0,0,0,.35.16l2.91-1.16A.27.27,0,0,0,432.81,214.06Z" style="fill:#355389"/><rect x="429.86" y="215.72" width="3.66" height="0.97" rx="0.28" transform="translate(-49.36 175.07) rotate(-21.72)" style="fill:#355389"/><rect x="430.52" y="217.37" width="3.66" height="0.97" rx="0.26" transform="translate(-49.93 175.44) rotate(-21.72)" style="fill:#355389"/><path d="M434.79,219l-.15-.38a.28.28,0,0,0-.35-.17l-2.91,1.17a.26.26,0,0,0-.14.35l.15.39a.28.28,0,0,0,.35.16l2.91-1.16A.28.28,0,0,0,434.79,219Z" style="fill:#355389"/><path d="M435.45,220.69l-.15-.39a.28.28,0,0,0-.35-.16L432,221.3a.27.27,0,0,0-.14.36l.15.38a.28.28,0,0,0,.35.17l2.91-1.17A.26.26,0,0,0,435.45,220.69Z" style="fill:#355389"/><rect x="432.5" y="222.34" width="3.66" height="0.97" rx="0.26" transform="translate(-51.62 176.52) rotate(-21.72)" style="fill:#355389"/><path d="M436.77,224l-.15-.38a.28.28,0,0,0-.35-.17l-2.91,1.17a.26.26,0,0,0-.14.35l.15.39a.28.28,0,0,0,.35.16l2.91-1.16A.28.28,0,0,0,436.77,224Z" style="fill:#355389"/><path d="M437.43,225.66l-.15-.39a.28.28,0,0,0-.35-.16L434,226.27a.27.27,0,0,0-.14.36l.15.38a.28.28,0,0,0,.35.17l2.91-1.17A.26.26,0,0,0,437.43,225.66Z" style="fill:#355389"/><path d="M438.09,227.32l-.15-.39a.27.27,0,0,0-.35-.16l-2.91,1.16a.26.26,0,0,0-.14.35l.15.39a.27.27,0,0,0,.35.16l2.91-1.16A.26.26,0,0,0,438.09,227.32Z" style="fill:#355389"/><path d="M438.75,229l-.15-.38a.28.28,0,0,0-.35-.17l-2.91,1.17a.26.26,0,0,0-.14.35l.15.39a.28.28,0,0,0,.35.16l2.91-1.16A.27.27,0,0,0,438.75,229Z" style="fill:#355389"/><path d="M446.8,227.27l-12.18,17.35a.75.75,0,0,0-.07.12l-1.24,3.82a.48.48,0,0,0,.74.53l3.26-2.46a.57.57,0,0,0,.11-.11l12.21-17.39a.48.48,0,0,0-.13-.68l-2.05-1.31A.48.48,0,0,0,446.8,227.27Z" style="fill:#b75742"/><path d="M437.4,246.54l0,0L434.23,249l-.86-.57,1.18-3.61A14.48,14.48,0,0,1,437.4,246.54Z" style="fill:#f7cc7f"/><path d="M323.37,39.45c1.75,1.4,4.8,5.9,8.69,9.06,2.28,1.85,4,1.38,6.94,1.73,13.79,1.67,10.05,4.49,11.71,4.76-.47,1.09-4.77,10.22-5.57,12.06a3.36,3.36,0,0,1-3.88,2.21c-2.85-.39-5.73-.68-8.53-1.29-7.2-1.56-11.21-5.16-16.36-9.54a3.36,3.36,0,0,1-1-4.24A116,116,0,0,1,323.37,39.45Z" style="fill:#466eb6"/><path d="M352.2,66c-.06,3,.17,3.61-1.12,3.15a16.93,16.93,0,0,1-2.26-1c-.52-.26-.54-.62-.12-1,.61-.61,1.24-1.21,1.85-1.81a2.65,2.65,0,0,1,1.17-3.19c.23-.14.06.14,2-4.28l-18.58-2.26a10.37,10.37,0,0,1-5.51-2.4L313,39.25a1.53,1.53,0,0,1-.25-2.26,1.74,1.74,0,0,1,1.71-.48l20.86,2.58a11.37,11.37,0,0,1,6.14,2.64L357.8,55.36c.75.63.95,1.2.69,1.89a1.46,1.46,0,0,1-1.87.92c-.69-.15-1,.06-1.23.7-1.07,2.87-1.81,3.51-1.55,4.56A2.89,2.89,0,0,1,352.2,66Z" style="fill:#86b1f2"/><path d="M381,270.15l3.16,3a84,84,0,0,1,18,24.91l.49,1s8.27.73,9.43-6.75h0a125.14,125.14,0,0,1-18.17-26.68l-1.49-3.5Z" style="fill:#466eb6"/><path d="M392.35,262.16c.4.58-1.81,2.83-5,5s-6,3.53-6.44,2.95,1.83-2.86,5-5.06S391.94,261.58,392.35,262.16Z" style="fill:#86b1f2"/><path d="M392.36,262.18h0s-6.3,5.33-8.89,5.87l.8,1.1a33.49,33.49,0,0,0,3.13-2C390.5,265,392.7,262.79,392.36,262.18Z" style="fill:#355389"/><path d="M400.78,277.66c0,.92-.34,4.88-6.94,6.54.43.59.86,1.19,1.28,1.79,4.17-1.24,6.05-3.38,6.9-5,.13-.26.29-.61.4-.88C401.86,279.3,401.31,278.48,400.78,277.66Z" style="fill:#b75742"/><polygon points="394.43 283.03 384.72 282.68 387.02 284.63 385.64 287.13 394.83 284.79 394.43 283.03" style="fill:#b75742"/><polygon points="395.31 285.29 391.86 291.3 394.29 290.37 395.22 292.28 396.85 285.96 395.31 285.29" style="fill:#b75742"/><path d="M396.63,286.92a3.19,3.19,0,1,1,2.86-3.4A3.15,3.15,0,0,1,396.63,286.92Z" style="fill:#f47458"/><path d="M417.25,150.52l-20.46-18.25c-1.33-1.19-.77-3.63,1.06-4.66l16.33-9.25a2.57,2.57,0,0,1,3,.14l20.45,18.25c1.33,1.19.77,3.63-1.06,4.67l-16.32,9.24A2.55,2.55,0,0,1,417.25,150.52Z" style="fill:#9bc1f9"/><path d="M416.28,136l-1.71-14a1.26,1.26,0,0,1,.88-1.28.81.81,0,0,1,1.11.66l1.57,12.91L433.64,138a.86.86,0,0,1,.52,1.21,1.22,1.22,0,0,1-1.32.78Z" style="fill:#fff"/><path d="M71,325.93a2.16,2.16,0,0,0-2,2.29c0,1.27.89,2.3,2.22.76H474.06c.52,0,.94-.68.94-1.52h0c0-.84-.42-1.53-.94-1.53Z" style="fill:#184655"/><polygon points="149.19 71.77 151.3 75.95 156.08 75.8 158.12 80.66 163.15 78.92 165.7 84.31 170.54 83.29 173.83 88.07 172.02 89.32 169.56 85.74 164.46 86.82 162.01 81.64 156.89 83.41 154.64 78.05 149.97 78.2 148.01 74.32 144.97 75.06 144.45 72.92 149.19 71.77" style="fill:#f7cc7f"/><polygon points="404.98 178.76 409.32 180.53 412.82 177.27 417.55 179.59 420.21 174.98 425.67 177.37 428.64 173.42 434.27 174.86 433.73 176.99 429.52 175.91 426.38 180.08 421.13 177.78 418.43 182.47 413.21 179.91 409.79 183.09 405.77 181.46 403.96 184.01 402.17 182.74 404.98 178.76" style="fill:#50bfa5"/></svg>