<svg xmlns="http://www.w3.org/2000/svg" xmlns:xlink="http://www.w3.org/1999/xlink" viewBox="0 0 500 500"><defs><radialGradient id="a" cx="250" cy="250" r="250" gradientUnits="userSpaceOnUse"><stop offset="0.01" stop-color="#fffde3"/><stop offset="1" stop-color="#f6e0d1"/></radialGradient><clipPath id="b"><rect width="500" height="500" style="fill:none"/></clipPath></defs><title>student-signup-icon</title><g style="isolation:isolate"><rect width="500" height="500" style="fill:url(#a)"/><g style="clip-path:url(#b)"><g style="mix-blend-mode:soft-light"><polygon points="262.31 -146.88 244.65 -146.88 220.27 -146.88 232.46 39.91 241.47 178.02 250.4 38.81 262.31 -146.88" style="fill:#f1f2f2;fill-rule:evenodd"/><polygon points="244.65 226.7 256.84 39.91 269.04 -146.88 264.31 -146.88 252.49 37.54 242.49 193.53 244.65 226.7" style="fill:#f1f2f2;fill-rule:evenodd"/><polygon points="165.01 -138.72 147.96 -134.15 124.41 -127.83 184.53 49.43 228.98 180.5 201.57 43.73 165.01 -138.72" style="fill:#f1f2f2;fill-rule:evenodd"/><polygon points="244.65 226.7 208.08 43.12 171.52 -140.46 166.95 -139.23 203.26 41.95 233.97 195.22 244.65 226.7" style="fill:#f1f2f2;fill-rule:evenodd"/><polygon points="73.15 -105.65 57.86 -96.83 36.74 -84.63 140.7 71.03 217.56 186.13 155.68 61.11 73.15 -105.65" style="fill:#f1f2f2;fill-rule:evenodd"/><polygon points="244.65 226.7 161.82 58.84 78.98 -109.02 74.89 -106.66 156.85 58.96 226.19 199.06 244.65 226.7" style="fill:#f1f2f2;fill-rule:evenodd"/><polygon points="-7.03 -49.94 -19.51 -37.46 -36.75 -20.21 103.95 103.24 207.98 194.52 115.86 89.78 -7.03 -49.94" style="fill:#f1f2f2;fill-rule:evenodd"/><polygon points="244.65 226.7 121.19 86 -2.27 -54.7 -5.61 -51.36 116.43 87.4 219.66 204.78 244.65 226.7" style="fill:#f1f2f2;fill-rule:evenodd"/><polygon points="-70.05 24.63 -78.88 39.91 -91.07 61.03 76.79 143.87 200.9 205.11 84.81 127.78 -70.05 24.63" style="fill:#f1f2f2;fill-rule:evenodd"/><polygon points="244.65 226.7 88.98 122.75 -66.68 18.8 -69.05 22.89 84.75 125.33 214.84 211.99 244.65 226.7" style="fill:#f1f2f2;fill-rule:evenodd"/><polygon points="-111.63 112.96 -116.2 130.01 -122.51 153.57 61.07 190.13 196.8 217.17 64.65 172.52 -111.63 112.96" style="fill:#f1f2f2;fill-rule:evenodd"/><polygon points="244.65 226.7 67.38 166.58 -109.89 106.46 -111.11 111.02 63.96 170.17 212.05 220.21 244.65 226.7" style="fill:#f1f2f2;fill-rule:evenodd"/><polygon points="-128.93 209.05 -128.93 226.7 -128.93 251.09 57.86 238.9 195.97 229.88 56.76 220.96 -128.93 209.05" style="fill:#f1f2f2;fill-rule:evenodd"/><polygon points="244.65 226.7 57.86 214.51 -128.93 202.32 -128.93 207.04 55.48 218.87 211.48 228.87 244.65 226.7" style="fill:#f1f2f2;fill-rule:evenodd"/><polygon points="-120.77 306.34 -116.2 323.39 -109.89 346.94 67.38 286.82 198.45 242.37 61.68 269.78 -120.77 306.34" style="fill:#f1f2f2;fill-rule:evenodd"/><polygon points="244.65 226.7 61.07 263.27 -122.51 299.84 -121.28 304.4 59.9 268.09 213.17 237.38 244.65 226.7" style="fill:#f1f2f2;fill-rule:evenodd"/><polygon points="-87.7 398.2 -78.88 413.49 -66.68 434.61 88.98 330.66 204.08 253.8 79.06 315.67 -87.7 398.2" style="fill:#f1f2f2;fill-rule:evenodd"/><polygon points="244.65 226.7 76.79 309.54 -91.07 392.37 -88.71 396.46 76.91 314.5 217.01 245.16 244.65 226.7" style="fill:#f1f2f2;fill-rule:evenodd"/><polygon points="-31.99 478.38 -19.51 490.86 -2.27 508.11 121.19 367.4 212.47 263.38 107.73 355.5 -31.99 478.38" style="fill:#f1f2f2;fill-rule:evenodd"/><polygon points="244.65 226.7 103.95 350.16 -36.75 473.62 -33.41 476.96 105.35 354.92 222.73 251.69 244.65 226.7" style="fill:#f1f2f2;fill-rule:evenodd"/><polygon points="42.58 541.4 57.86 550.23 78.98 562.42 161.82 394.56 223.06 270.45 145.73 386.55 42.58 541.4" style="fill:#f1f2f2;fill-rule:evenodd"/><polygon points="244.65 226.7 140.7 382.37 36.74 538.04 40.84 540.4 143.28 386.61 229.94 256.51 244.65 226.7" style="fill:#f1f2f2;fill-rule:evenodd"/><polygon points="130.91 582.98 147.96 587.55 171.52 593.86 208.08 410.28 235.12 274.55 190.47 406.7 130.91 582.98" style="fill:#f1f2f2;fill-rule:evenodd"/><polygon points="244.65 226.7 184.53 403.97 124.41 581.24 128.97 582.46 188.12 407.39 238.16 259.3 244.65 226.7" style="fill:#f1f2f2;fill-rule:evenodd"/><polygon points="227 600.28 244.65 600.28 269.04 600.28 256.84 413.49 247.83 275.39 238.9 414.59 227 600.28" style="fill:#f1f2f2;fill-rule:evenodd"/><polygon points="244.65 226.7 232.46 413.49 220.27 600.28 224.99 600.28 236.81 415.87 246.82 259.87 244.65 226.7" style="fill:#f1f2f2;fill-rule:evenodd"/><polygon points="324.29 592.12 341.34 587.55 364.89 581.24 304.77 403.97 260.32 272.91 287.73 409.68 324.29 592.12" style="fill:#f1f2f2;fill-rule:evenodd"/><polygon points="244.65 226.7 281.22 410.28 317.79 593.86 322.35 592.64 286.04 411.45 255.33 258.18 244.65 226.7" style="fill:#f1f2f2;fill-rule:evenodd"/><polygon points="416.15 559.06 431.44 550.23 452.56 538.04 348.61 382.37 271.75 267.28 333.62 392.3 416.15 559.06" style="fill:#f1f2f2;fill-rule:evenodd"/><polygon points="244.65 226.7 327.49 394.56 410.32 562.42 414.41 560.06 332.45 394.44 263.11 254.35 244.65 226.7" style="fill:#f1f2f2;fill-rule:evenodd"/><polygon points="496.33 503.34 508.81 490.86 526.05 473.62 385.35 350.16 281.32 258.88 373.45 363.63 496.33 503.34" style="fill:#f1f2f2;fill-rule:evenodd"/><polygon points="244.65 226.7 368.11 367.4 491.57 508.11 494.91 504.76 372.87 366 269.64 248.63 244.65 226.7" style="fill:#f1f2f2;fill-rule:evenodd"/><polygon points="559.35 428.78 568.18 413.49 580.37 392.37 412.51 309.54 288.4 248.29 404.5 325.63 559.35 428.78" style="fill:#f1f2f2;fill-rule:evenodd"/><polygon points="244.65 226.7 400.32 330.66 555.99 434.61 558.35 430.52 404.56 328.07 274.46 241.41 244.65 226.7" style="fill:#f1f2f2;fill-rule:evenodd"/><polygon points="600.93 340.44 605.5 323.39 611.81 299.84 428.23 263.27 292.5 236.23 424.65 280.88 600.93 340.44" style="fill:#f1f2f2;fill-rule:evenodd"/><polygon points="244.65 226.7 421.92 286.82 599.19 346.94 600.41 342.38 425.34 283.23 277.25 233.2 244.65 226.7" style="fill:#f1f2f2;fill-rule:evenodd"/><polygon points="618.23 244.36 618.23 226.7 618.23 202.32 431.44 214.51 293.34 223.53 432.54 232.45 618.23 244.36" style="fill:#f1f2f2;fill-rule:evenodd"/><polygon points="244.65 226.7 431.44 238.9 618.23 251.09 618.23 246.36 433.82 234.54 277.82 224.54 244.65 226.7" style="fill:#f1f2f2;fill-rule:evenodd"/><polygon points="610.07 147.06 605.5 130.01 599.19 106.46 421.92 166.58 290.86 211.03 427.63 183.63 610.07 147.06" style="fill:#f1f2f2;fill-rule:evenodd"/><polygon points="244.65 226.7 428.23 190.13 611.81 153.57 610.59 149 429.4 185.31 276.13 216.03 244.65 226.7" style="fill:#f1f2f2;fill-rule:evenodd"/><polygon points="577.01 55.2 568.18 39.91 555.99 18.8 400.32 122.75 285.23 199.61 410.24 137.74 577.01 55.2" style="fill:#f1f2f2;fill-rule:evenodd"/><polygon points="244.65 226.7 412.51 143.87 580.37 61.03 578.01 56.94 412.39 138.91 272.3 208.24 244.65 226.7" style="fill:#f1f2f2;fill-rule:evenodd"/><polygon points="521.29 -24.97 508.81 -37.46 491.57 -54.7 368.11 86 276.83 190.03 381.57 97.91 521.29 -24.97" style="fill:#f1f2f2;fill-rule:evenodd"/><polygon points="244.65 226.7 385.35 103.24 526.05 -20.21 522.71 -23.55 383.95 98.48 266.58 201.72 244.65 226.7" style="fill:#f1f2f2;fill-rule:evenodd"/><polygon points="446.73 -88 431.44 -96.83 410.32 -109.02 327.49 58.84 266.24 182.95 343.57 66.86 446.73 -88" style="fill:#f1f2f2;fill-rule:evenodd"/><polygon points="244.65 226.7 348.6 71.03 452.56 -84.63 448.47 -87 346.02 66.8 259.36 196.89 244.65 226.7" style="fill:#f1f2f2;fill-rule:evenodd"/><polygon points="358.39 -129.58 341.34 -134.15 317.79 -140.46 281.22 43.12 254.18 178.85 298.83 46.7 358.39 -129.58" style="fill:#f1f2f2;fill-rule:evenodd"/><polygon points="244.65 226.7 304.77 49.43 364.89 -127.83 360.33 -129.06 301.18 46.01 251.15 194.1 244.65 226.7" style="fill:#f1f2f2;fill-rule:evenodd"/></g></g><path d="M190.19,403.13c-.69,5.28-22,62.59-22,62.59l-10,49.71s54.95,8.89,58,1.88,20.55-65.71,20.55-65.71,28.7,61.95,33.41,61.44,53.67-4.91,52-9.07S271.29,397.32,274.5,396.11,190.19,403.13,190.19,403.13Z" style="fill:#404041;fill-rule:evenodd"/><path d="M161.85,297.66c-.8.51-13,9.3-13,12.66s6.69,10.54,10,13.29,4.53,3.18,4.53,3.18a12.85,12.85,0,0,0,3.7-11C166.25,308.6,161.85,297.66,161.85,297.66Z" style="fill:#3a1110;fill-rule:evenodd"/><path d="M129.84,240.16a60.22,60.22,0,0,0,2.75-13.39c.51-6.86-1.85-8.79-3.84-12.11h0c-.16-1.45-.71-8.78-1.71-16.38-.41-3.14-1.18-20.34-6.88-18.64-4.1,1.23-3.64,9.91-3.19,18a91.49,91.49,0,0,0,1.12,10.23c-5,.79-11.43,5.35-16.69,10.15-3.8,3.46-3.79,5-2.86,8.94,1.48,6.24,6.35,15.31,12.79,18.14,3.4,1.5,3.42,73.14,17.18,78.07,18,6.46,37.72-4.2,38.39-3.64,12.32-5.86,9.62-13.68,6.47-31-2.9-2.51-33.09,11.45-33,9.72C140.5,291.47,127.61,248.29,129.84,240.16Z" style="fill:#fbd2c0;fill-rule:evenodd"/><path d="M119,211.77a45.5,45.5,0,0,1,4.23,5.28c.63,1.23,3.88,1.23,3.7,3.38s-2.29,6.36-4.8,8.44-1.52,6.15-4.56,8.13-8.44,1.55-10.15-1.32-4.33-7.49-1-12S119,211.77,119,211.77Z" style="fill:#f4cab7;fill-rule:evenodd"/><path d="M98.31,221.92c-.5,1.41-.26,2.83.24,5,1.48,6.24,6.35,15.31,12.79,18.14,3.4,1.5,3.42,73.14,17.18,78.07,18,6.46,37.72-4.2,38.39-3.64a21.68,21.68,0,0,0,4.94-3.1c.4-2,.66-3.34.71-3.39s-28.43,9.56-35.3,8.55-6.85-2.24-10.6-9.91-11.27-60.43-11-63.78,6.66-4.78,7-4.78a48.73,48.73,0,0,1-7.61.53c-3.13-.1-5.05-1.33-7.65-4.2S98.32,222,98.31,221.92Z" style="fill:#f4cbbb;fill-rule:evenodd"/><path d="M279.41,336.61c.56,1.78,10,30.21,15.54,35.9s17.19,10,19.4,1.82-14.27-50.11-14.44-47.95S279.41,336.61,279.41,336.61Z" style="fill:#fbd2c0;fill-rule:evenodd"/><path d="M156.72,292.41c5.86,8.9,6.49,22.43,6.67,34.38,6.3-1.76,24-7.33,24-7.33,1.17,15.67,4.54,85.33-5.4,98.11-3.91,5,17,2.08,38.83,1.3,34.63-1.25,60.19,2.25,65.91-9.55a129.47,129.47,0,0,1-5.7-15.09c-6.4-20.73-8.95-64.93-8.95-64.93s8,21.75,9.81,17.08,26.08-12.71,22-17.5S280.58,288.65,275.06,285s-32.6-8.76-32.6-8.76c-5.16,9.73-19.57,8.25-26.07-.26a172.22,172.22,0,0,1-21.49,3.89C184.92,280.87,156.72,292.41,156.72,292.41Z" style="fill:#9f1e1f;fill-rule:evenodd"/><path d="M161.56,305v0Zm.22,1.13a123.68,123.68,0,0,1,1.61,20.71c6.3-1.76,24-7.33,24-7.33,1.17,15.67,4.54,85.33-5.4,98.11-3.91,5,17,2.08,38.83,1.3,34.63-1.25,60.19,2.25,65.91-9.55a129.47,129.47,0,0,1-5.7-15.09c-6.4-20.73-8.95-64.93-8.95-64.93s8,21.75,9.81,17.08,26.08-12.71,22-17.5a39.74,39.74,0,0,1-2.45-3.54c-1.78-.66-3.29-1.18-3.29-1.18s-1,6.08-1.22,8.9-11.53,7.65-15.06,7.32S268.1,313,268.1,313s-.12,16.78.3,32.51,13.86,63.83,12.31,65.26-6.5,4.08-13.75,4.3-32.79-3.07-47.31-1.21a259.62,259.62,0,0,1-31,1.65s-1-.64.35-4.85,3.39-40.92,3-51.35-.39-56.52,1.24-58.61-7,16.47-7,16.47-10.49,3.88-16.76.9C164.26,315.62,162.38,308.86,161.78,306.08Z" style="fill:#8b1e1a;fill-rule:evenodd"/><path d="M212.86,255.82c-.05,2.94,3.45,12.86,1.9,17.1s-7.08,9-7.08,9c-2,8.78,30.72,28.34,41.11,5.45,6.19-13.63-4.21-5.12-9.3-14.59-3.28-6.09-3.53-16.4-3.53-16.4Z" style="fill:#e3b4a2;fill-rule:evenodd"/><path d="M226.42,297.33c8.51,2,17.7.34,22.37-10,.27-.58.5-1.13.71-1.64.42-2.27.24-4.1-.78-4.59-2.1-1-7.64-2.35-9.7-5.65s-3.6-10.84-3.6-10.84l-4.52,1c-2.5,1.19-9.47,1.15-12,1.19s-2.39.49-2.39.49.67,6.81-2.39,10.29-4.61,5.66-4.45,6.45,4.91,6.81,11.38,10.54A50,50,0,0,0,226.42,297.33Z" style="fill:#edbfad;fill-rule:evenodd"/><path d="M275.66,195c4-11.28,19.67-2.61,15.35,14-2.21,8.5-12.61,13.61-14.49,12S275.66,195,275.66,195Z" style="fill:#fbd2c0;fill-rule:evenodd"/><path d="M276.43,198c1.18-1.32,3.63-6.16,7.65-1.28s2.63,11.41-.19,14.91-5,7.88-7.42,3.49S276.43,198,276.43,198Z" style="fill:#d09a83;fill-rule:evenodd"/><path d="M169,207.29c-3.57-11.41-19.56-3.32-15.84,13.4,1.9,8.58,12.11,14.06,14,12.48S169,207.29,169,207.29Z" style="fill:#fbd2c0;fill-rule:evenodd"/><path d="M167.25,209c-1.13-1.36-3.41-6.29-7.59-1.56s-3,11.31-.35,14.91,4.74,8.06,7.29,3.75S167.25,209,167.25,209Z" style="fill:#d09a83;fill-rule:evenodd"/><path d="M175.67,173.5c-3,2-12.22-4.34-15.81,10.14s6.86,43.83,6.74,42.5S175.67,173.5,175.67,173.5Z" style="fill:#805d50;fill-rule:evenodd"/><path d="M272.53,182c2,20.45-1.76,20,2.23,26.9,3.68,8.31,5.3,21.86-.76,31.76s-25.07,20.61-45.93,23.25c-36.68,4.64-67.37-7.52-62.12-40.57,3.44-10.45-4.26-25.1-2-38.3C170.81,145.94,268.81,143.38,272.53,182Z" style="fill:#fbd2c0;fill-rule:evenodd"/><path d="M277.25,217h0c0,.17.51,3.17.6,4.1h0v.09c.62,6.55-.28,13.66-3.86,19.5-6.07,9.9-25.07,20.61-45.93,23.25-32.7,4.14-60.64-5.08-62.6-30.56.1.3,3.81,12.46,14.69,18.41C214.14,270.37,270.06,263.7,277.25,217Z" style="fill:#efc6b6;fill-rule:evenodd"/><path d="M191.57,165.17c-2.93-1.23-93.18-24-90.78-26.66S213,88.32,213,88.32,335.69,123,335.63,126s-81.61,36.5-83.09,36.77S191.57,165.17,191.57,165.17Z" style="fill:#404041;fill-rule:evenodd"/><path d="M103.62,140.25c-2.06-.82-3.12-1.43-2.83-1.74C103.19,135.91,213,88.32,213,88.32S335.69,123,335.63,126c0,.22-.48.63-1.37,1.18l-121.08-37S118.71,132.42,103.62,140.25Z" style="fill:#2f303a;fill-rule:evenodd"/><path d="M257.83,164.44c-10.12,22.26-61,28.14-58.35,27.81,2.07-.26,5.35-10.79,5.35-10.79-12.19,7.47-23.24,11.13-32.17,8.61l8.91-8.45a54.8,54.8,0,0,1-28.14,8.06c.88,0,12.54-12.44,12.54-12.44-5.3,1.91-10.59,4.16-19.5-.22,25.95-17.56,82.32-57.92,118.53-19.64,0,0,6.87,2.24,11.4,11.74s1.74,24.29,1,34.26c-.2,2.94-.32,6.37-.32,6.37-2.07-.18-7.08-9.79-7.45-11C265.69,186.32,270.52,171.54,257.83,164.44Z" style="fill:#805d50;fill-rule:evenodd"/><path d="M254.46,150.48a51.58,51.58,0,0,1-13.79,15.74c-9.5,7.24-24.6,12.09-24.15,11.92a108.41,108.41,0,0,0,11.88-12.68c4.25-5.48,4.74-7.77,4.74-7.77s-12.43,8.08-20.18,11.73-21.25,8-20.72,7.93,16.25-14.28,18.86-17a20,20,0,0,0,3.43-4.35s-17,8.26-23.44,11.58-11.9,4.12-11.19,3.86,13.86-13,13.28-12.81-8.69,3-14.64,4.93c-25.46,8.23,19.4-20.21,56-17.89C251.06,146.75,254.46,150.48,254.46,150.48Z" style="fill:#7c574a;fill-rule:evenodd"/><path d="M257.83,164.44c-10.12,22.26-61,28.14-58.35,27.81,2.07-.26,5.35-10.79,5.35-10.79-12.19,7.47-23.24,11.13-32.17,8.61l8.91-8.45a54.8,54.8,0,0,1-28.14,8.06c.88,0,12.54-12.44,12.54-12.44-5.3,1.91-10.59,4.16-19.5-.22l14.92-2.17c6.66-1,17.26-7,17.26-7s-9.4,12.3-14.39,15.91-6.47,4.35-5.76,4.39,11.64-3.85,17.34-6.22,13.94-9.11,13.94-9.11-5,8-8.16,11.42a40.23,40.23,0,0,1-4.67,4.51s12.49-2.33,18.37-5,17-11.53,17-11.53-5.7,12.44-7.16,14.71a15.32,15.32,0,0,0-1.45,2.44s24-7.07,37.37-15.66,19-15.9,19-15.9,8.59,13.31,9.88,20.13,2.19,20.62,4.9,27.12a50.32,50.32,0,0,0,2.25,4.76c-4.28,1.38-7.53-8.64-8.64-12.12C264.51,185.16,270.52,171.54,257.83,164.44Z" style="fill:#7c5648;fill-rule:evenodd"/><path d="M265,157.38c-.24-2.66-2.43-28-2.43-28s-6-8.06-33.08-10.31-57,10.15-58.21,12.19,1.2,28.94,1.2,28.94,11.36-7.52,39.66-9.66S265,157.38,265,157.38Z" style="fill:#464649;fill-rule:evenodd"/><path d="M265,157.38c-.24-2.66-2.43-28-2.43-28s-6-8.06-33.08-10.31c-18.39-1.54-38.13,3.71-49.26,7.87-.46,2.64,53.41.26,67.64,4.58s15.59,16.88-8.82,14.58c-9.17-.87-67.66-2.4-66.57,14.1,0,0,11.36-7.52,39.66-9.66S265,157.38,265,157.38Z" style="fill:#48484d;fill-rule:evenodd"/><polygon points="374.88 267.07 367.98 248.4 397.32 232.15 403.13 234.64 385.1 265.84 374.88 267.07" style="fill:#bbbdbf;fill-rule:evenodd"/><path d="M372.14,262.6c0-.88.38-8.56.38-8.56L368,248.4,304.4,238.24,276.59,320.4l5.31,5.66,39.49-1.85Z" style="fill:#d0d2d3;fill-rule:evenodd"/><path d="M283.79,325.38c-.29.15-3.32,1.54-3.32,1.54l-.8-.86,28.73-82.23,63.07,8.9,30.64-18.53,1,.44s-43.55,53.12-42.43,53.5S283.79,325.38,283.79,325.38Z" style="fill:#545e67;fill-rule:evenodd"/><polygon points="362.01 262.15 372.46 253.81 403.13 234.64 375.79 313.92 346.33 331.64 362.01 262.15" style="fill:#3a4954;fill-rule:evenodd"/><path d="M309,245.3l-28.56,81.62s64.37,5.58,65.86,4.72,27.6-77.8,26.13-77.83S309,245.3,309,245.3Z" style="fill:#43525a;fill-rule:evenodd"/><path d="M328.24,331.24c-9.9,8.62-32.69,23.74-31.95,29.22,1,7.18.66,15.56,11.77,18s31.07-39.77,31.07-39.77,10.4-4.8,14.16-9.76c.82-1.09,4.61-7.26,5.62-9.32,3.6-7.32,8.69-18.06,6.59-18.09-2.65,0-10.69,16.24-11.87,15.71S362,300.91,359.2,300s-11,17.21-11.52,16.89,7.06-14.65,4.1-15.23-8,14.62-8.45,14.71,5.12-12.59,2.15-13-7.24,13.06-8.23,13.72C329.22,322.36,332.23,327.76,328.24,331.24Z" style="fill:#fbd2c0;fill-rule:evenodd"/><path d="M366,302.09c0-.37-.19-.57-.48-.57-2.65,0-10.69,16.24-11.87,15.71-.23-.11,0-.84.41-2h0s-1.32,3-1.06,3.23,3.49-2.81,5.95-6.65,7-9.72,7.05-9.77Zm-6.28-1.31c-.93,0-11.06,16.1-11.87,16.58-.2.11.28-.86,1.08-2.41,2.5-4.58,8.1-15.68,10.29-15a.81.81,0,0,1,.5.79Zm-7.35,1.36a.75.75,0,0,0-.57-.49c-3-.59-8,14.62-8.45,14.71,0,0,.55,0,1.23-.94s6.79-13.17,7.57-13.26l.22,0Zm-6.19,1.73s-1.33-.08-2.82,2.85-5.64,9.71-5.78,9.93c1.37-2.35,5.19-13.72,7.92-13.32A.87.87,0,0,1,346.16,303.87Z" style="fill:#f4c5b1;fill-rule:evenodd"/><path d="M167.79,198.65l41.47-5.09a3.87,3.87,0,0,1,4.3,3.36l2.15,17.49a8.42,8.42,0,0,1-7.31,9.35l-28.64,3.51a8.42,8.42,0,0,1-9.35-7.31Z" style="fill:#404041;fill-rule:evenodd"/><path d="M170,200.4l2.37,19.32a6.38,6.38,0,0,0,7.1,5.55l28.65-3.51a6.41,6.41,0,0,0,5.55-7.11l-2.15-17.48a1.85,1.85,0,0,0-2.06-1.61Z" style="fill:#e4e8ea;fill-rule:evenodd"/><path d="M173.32,222.3a6.4,6.4,0,0,0,6.19,3l6.24-.76c5.27-8.84,12.11-20.32,16.72-28.09l-15.71,1.93Z" style="fill:#c8d2da;fill-rule:evenodd"/><path d="M269.28,187.05l-40.91,4.61a3.81,3.81,0,0,0-3.36,4.2L227,213.12a8.3,8.3,0,0,0,9.14,7.29l28.27-3.18a8.3,8.3,0,0,0,7.29-9.14Z" style="fill:#404041;fill-rule:evenodd"/><path d="M267.53,189.25l2.15,19.06a6.32,6.32,0,0,1-5.55,6.95l-28.26,3.18a6.32,6.32,0,0,1-7-5.55L227,195.64a1.83,1.83,0,0,1,1.61-2Z" style="fill:#e4e8ea;fill-rule:evenodd"/><path d="M246.42,217.25l-10.55,1.19a6.33,6.33,0,0,1-3.46-.61l14.76-26.29,15.6-1.76C258.2,197.48,251.58,208.6,246.42,217.25Z" style="fill:#c8d2da;fill-rule:evenodd"/><path d="M268.25,188.11l1,7.23s10-1.14,10.14-1.8.21-6.42.21-6.42l-10.42-.07Z" style="fill:#404041;fill-rule:evenodd"/><path d="M169.41,199.65l.45,7.31s-9.15-.59-9.45-1.2-1.1-5.13-1.1-5.13l8.86-1.79Z" style="fill:#404041;fill-rule:evenodd"/><path d="M226.45,199.87a12.54,12.54,0,0,0-6.46-1c-3.87.37-6.79,3.23-6.78,3s-1.1-6.83-1.1-6.83l14.09-1.73Z" style="fill:#404041;fill-rule:evenodd"/><path d="M245.11,235.63c-13.21,1.59-27.21,3.65-40.45,5.55,4.79,7.88,11.29,11.23,23.37,9.28C238.89,248.7,242.5,246,245.11,235.63Z" style="fill:#542f0f;fill-rule:evenodd"/><path d="M212.6,249c3.9,2,8.83,2.49,15.43,1.42,6.86-1.11,10.72-2.51,13.05-5.61-.13-.6.15-1.52-.83-1.8s-26.49,4-27.26,4.27C212.46,247.51,212.45,248.22,212.6,249Z" style="fill:#e6e7e8;fill-rule:evenodd"/><path d="M242.62,235.93c-11.53,1.43-23.58,3.18-35.15,4.84.95,1.86,2.57,3.91,3.07,3.86,1.41-.15,29.55-3.9,31.09-4.51C242.67,239.71,242.74,237.57,242.62,235.93Z" style="fill:#e6e7e8;fill-rule:evenodd"/><path d="M127.31,216.55c-2.62,3.72-5.2,7.58-5,9.63.26,3,2.73,3.55,5.27,3s4.08-2.34,7.56-7.73,3.4-9.52.05-10.15C130.59,210.47,129.68,213.21,127.31,216.55Z" style="fill:#fbd2c0;fill-rule:evenodd"/><path d="M129,228.2c-2.54.5-5-.08-5.27-3-.15-1.63,1.45-4.41,3.44-7.35.3-.45.62-.91.93-1.36l.65-.92c.47-.67.89-1.31,1.28-1.91a13.74,13.74,0,0,1,1.59-2.06,6.09,6.09,0,0,0-2.43,2.19c-.42.58-.83,1.23-1.29,1.91l-.17.26-.25.36a2.83,2.83,0,0,1-.2.28c-.2.3-.41.59-.62.89-2.39,3.43-4.56,6.86-4.39,8.74.26,3,2.73,3.55,5.27,3a5.72,5.72,0,0,0,2.89-1.51A5.75,5.75,0,0,1,129,228.2Z" style="fill:#e9b69f;fill-rule:evenodd"/><path d="M217.23,227.23c.64,1,5.1,3,7.68,2.57s6.27-4.73,5.46-4.74C228.62,225,216.73,226.42,217.23,227.23Z" style="fill:#d7ad9a;fill-rule:evenodd"/><path d="M112.08,214.18c2.47,4.13,5.12,8.27,7.18,9,3,1,4.6-1.13,5.19-3.8s-.52-4.95-4.26-10.62-7.75-7.35-9.79-4.39C107.59,208.42,109.86,210.47,112.08,214.18Z" style="fill:#fbd2c0;fill-rule:evenodd"/><path d="M124.08,217.49c-.59,2.68-2.22,4.82-5.19,3.81-1.64-.56-3.65-3.3-5.65-6.47-.31-.49-.61-1-.92-1.49l-.61-1c-.45-.75-.89-1.42-1.3-2.07a14.17,14.17,0,0,1-1.32-2.41,6.47,6.47,0,0,0,1.09,3.29c.38.65.83,1.33,1.29,2.06l.18.28.24.4c.07.1.13.2.19.3.2.33.39.66.59,1,2.3,3.78,4.69,7.35,6.59,8,3,1,4.6-1.13,5.19-3.8a6.06,6.06,0,0,0-.22-3.45A6.09,6.09,0,0,1,124.08,217.49Z" style="fill:#e9b69f;fill-rule:evenodd"/><path d="M105,220.29c2.47,4.13,5.12,8.27,7.18,9,3,1,4.6-1.13,5.19-3.81s-.52-4.94-4.26-10.61-7.75-7.36-9.79-4.39C100.5,214.52,102.77,216.58,105,220.29Z" style="fill:#fbd2c0;fill-rule:evenodd"/><path d="M117,223.6c-.59,2.67-2.22,4.82-5.19,3.81-1.64-.56-3.65-3.3-5.65-6.47-.31-.49-.61-1-.92-1.49l-.61-1c-.45-.75-.9-1.43-1.3-2.07A14.56,14.56,0,0,1,102,214a6.5,6.5,0,0,0,1.09,3.29c.38.65.83,1.32,1.29,2.06l.18.28.24.39c.07.1.13.21.19.31l.59,1c2.3,3.78,4.69,7.34,6.59,8,3,1,4.6-1.13,5.19-3.81a6,6,0,0,0-.22-3.44A6.17,6.17,0,0,1,117,223.6Z" style="fill:#e9b69f;fill-rule:evenodd"/><path d="M100,229c2.5,3.84,5.17,7.69,7.16,8.29,2.87.86,4.34-1.25,4.81-3.82s-.68-4.68-4.44-9.95-7.65-6.73-9.49-3.83C95.46,223.65,97.7,225.53,100,229Z" style="fill:#fbd2c0;fill-rule:evenodd"/><path d="M111.5,231.7c-.47,2.57-1.94,4.67-4.81,3.82-1.59-.48-3.6-3-5.61-6l-.93-1.39-.62-.94c-.45-.69-.9-1.32-1.32-1.92a14,14,0,0,1-1.34-2.25A6.14,6.14,0,0,0,98,226.15c.38.61.83,1.24,1.31,1.92l.17.26c.09.12.17.24.25.37l.19.28.6.91c2.32,3.52,4.73,6.83,6.56,7.38,2.87.86,4.34-1.25,4.81-3.82a5.78,5.78,0,0,0-.34-3.27A6,6,0,0,1,111.5,231.7Z" style="fill:#e9b69f;fill-rule:evenodd"/><path d="M317.5,119.18s3-1.86,4.77-.86c1.49.86,2.79,61.27,3.15,79.23a14.37,14.37,0,0,1,2,4.24,11.74,11.74,0,0,1,.4,5.56l7.87,30.13-2.69-2.7a19.39,19.39,0,0,0-1.37,2.45c-.18.62-3.22-2.44-3.22-2.44a24.26,24.26,0,0,0-2.35,3c-.09.44-3.48-3-3.48-3s-1.37,2.71-1.65,3.24-2.07-2.51-2.07-2.51l-3.12,1.89s4.35-25.76,5.26-32.3a10.3,10.3,0,0,1,.16-1.34,24.92,24.92,0,0,1,1.64-6c-.44-17.72-2-77.52-2.3-77.63Z" style="fill:#404041;fill-rule:evenodd"/><path d="M302.83,351.65a27.33,27.33,0,0,0-1.24,4.65c-.69,4.14.32,6.72.42,6s4.43-10.17,6.22-11.81l.89-.79c4-3.52,18.2-15.79,18.2-15.79l3.61-3,1.07-.88,1.52-6.33,3.73-6.7c-7.7,5.09-5.25,10.27-8.56,13.75a6.25,6.25,0,0,1-.45.44c-5,4.32-13.16,10.27-20,15.83-1.87-5.45-3.82-10.64-5.36-14.47a31.88,31.88,0,0,1-5.64,3.88c3.2,5.07,7.23,11.57,7.07,11.84A22.2,22.2,0,0,0,302.83,351.65Z" style="fill:#efc3b1;fill-rule:evenodd"/></g></svg>