<svg xmlns="http://www.w3.org/2000/svg" xmlns:xlink="http://www.w3.org/1999/xlink" viewBox="0 0 544 362"><defs><linearGradient id="a" x1="81.38" y1="93.36" x2="104.9" y2="65.83" gradientUnits="userSpaceOnUse"><stop offset="0.13" stop-color="#fff" stop-opacity="0"/><stop offset="0.27" stop-color="#fff" stop-opacity="0.24"/><stop offset="0.42" stop-color="#fff" stop-opacity="0.47"/><stop offset="0.56" stop-color="#fff" stop-opacity="0.66"/><stop offset="0.69" stop-color="#fff" stop-opacity="0.81"/><stop offset="0.81" stop-color="#fff" stop-opacity="0.91"/><stop offset="0.92" stop-color="#fff" stop-opacity="0.98"/><stop offset="1" stop-color="#fff"/></linearGradient><linearGradient id="b" x1="288.78" y1="271.6" x2="288.78" y2="218.07" gradientUnits="userSpaceOnUse"><stop offset="0" stop-color="#294278"/><stop offset="1" stop-color="#1b2c50"/></linearGradient><linearGradient id="c" x1="158.84" y1="144.76" x2="419.83" y2="144.76" gradientTransform="translate(-0.58 1.16) rotate(-0.23)" xlink:href="#b"/><linearGradient id="d" x1="207.68" y1="179.89" x2="483.12" y2="61.38" gradientTransform="translate(-0.58 1.16) rotate(-0.23)" gradientUnits="userSpaceOnUse"><stop offset="0" stop-color="#fff"/><stop offset="0.08" stop-color="#f7fbfa"/><stop offset="0.27" stop-color="#eaf3f2"/><stop offset="0.51" stop-color="#e2efed"/><stop offset="1" stop-color="#e0eeec"/></linearGradient><linearGradient id="e" x1="201" y1="89.05" x2="243.56" y2="89.05" gradientUnits="userSpaceOnUse"><stop offset="0" stop-color="#f3deb6"/><stop offset="0.91" stop-color="#f3a615"/></linearGradient><linearGradient id="f" x1="225.92" y1="232.47" x2="287.45" y2="232.47" gradientTransform="matrix(0.85, 0.52, -0.52, 0.85, 90.43, -137.29)" gradientUnits="userSpaceOnUse"><stop offset="0" stop-color="#238684"/><stop offset="0.95" stop-color="#289997"/></linearGradient><linearGradient id="g" x1="241.96" y1="212.6" x2="287.39" y2="212.6" gradientTransform="matrix(0.85, 0.52, -0.52, 0.85, 90.43, -137.29)" xlink:href="#e"/><linearGradient id="h" x1="285.42" y1="226.86" x2="314.9" y2="226.86" gradientTransform="matrix(0.85, 0.52, -0.52, 0.85, 90.43, -137.29)" xlink:href="#b"/><linearGradient id="i" x1="115.2" y1="275.14" x2="229.17" y2="275.14" xlink:href="#e"/><clipPath id="j"><path d="M198.4,290.47c-10.8,0-19.58-6.88-19.58-15.33s8.78-15.33,19.58-15.33h40.48c2.88,0,5.23,1.84,5.23,4.09v22.47c0,2.26-2.35,4.1-5.23,4.1Z" style="fill:none"/></clipPath><clipPath id="k"><path d="M168.21,173h29.06a0,0,0,0,1,0,0V294.37a6.21,6.21,0,0,1-6.21,6.21H174.42a6.21,6.21,0,0,1-6.21-6.21V173A0,0,0,0,1,168.21,173Z" transform="translate(419.51 54.03) rotate(90)" style="fill:none"/></clipPath><linearGradient id="l" x1="138.22" y1="152.04" x2="158.13" y2="152.04" gradientUnits="userSpaceOnUse"><stop offset="0" stop-color="#0a3458"/><stop offset="0.89" stop-color="#0e5f9f"/></linearGradient><linearGradient id="m" x1="93.39" y1="232.16" x2="156.72" y2="232.16" gradientUnits="userSpaceOnUse"><stop offset="0" stop-color="#455380"/><stop offset="0.91" stop-color="#343c5d"/></linearGradient><linearGradient id="n" x1="107.61" y1="236.09" x2="170.94" y2="236.09" xlink:href="#m"/><linearGradient id="o" x1="142.06" y1="179.2" x2="174.83" y2="179.2" gradientUnits="userSpaceOnUse"><stop offset="0" stop-color="#b7fffa"/><stop offset="0.9" stop-color="#5ccbc5"/></linearGradient><linearGradient id="p" x1="146.07" y1="155.21" x2="182.79" y2="155.21" xlink:href="#l"/><linearGradient id="q" x1="353.11" y1="225.21" x2="449.56" y2="225.21" xlink:href="#e"/><linearGradient id="r" x1="329.62" y1="161.77" x2="445.72" y2="161.77" gradientTransform="matrix(1, 0, 0, 1, 0, 0)" xlink:href="#d"/><linearGradient id="s" x1="329.62" y1="239.39" x2="353.11" y2="239.39" xlink:href="#e"/><linearGradient id="t" x1="374.69" y1="201.65" x2="438.86" y2="201.65" gradientTransform="matrix(1, 0, 0, 1, 0, 0)" xlink:href="#d"/><linearGradient id="u" x1="111.33" y1="78.41" x2="111.33" y2="34.5" xlink:href="#b"/><linearGradient id="v" x1="110.9" y1="28.33" x2="110.9" y2="47.88" xlink:href="#b"/><linearGradient id="w" x1="311.56" y1="300.26" x2="308.85" y2="272.59" gradientTransform="matrix(1, 0, 0, 1, 0, 0)" xlink:href="#f"/><linearGradient id="x" x1="258.32" y1="311.42" x2="366.79" y2="311.42" gradientTransform="matrix(1, 0, 0, 1, 0, 0)" xlink:href="#f"/><linearGradient id="y" x1="324.78" y1="276.86" x2="338.23" y2="276.86" xlink:href="#b"/><linearGradient id="z" x1="333.59" y1="271.88" x2="367.78" y2="271.88" xlink:href="#b"/><linearGradient id="aa" x1="323.34" y1="268.77" x2="353.13" y2="268.77" gradientTransform="matrix(1, 0, 0, 1, 0, 0)" xlink:href="#d"/><linearGradient id="ab" x1="351.09" y1="266.73" x2="376.69" y2="266.73" xlink:href="#b"/><linearGradient id="ac" x1="335.8" y1="220.81" x2="362.37" y2="220.81" xlink:href="#l"/><linearGradient id="ad" x1="403.83" y1="226.41" x2="437.8" y2="226.41" gradientTransform="translate(-18.23 149.75) rotate(-17.85)" xlink:href="#b"/><linearGradient id="ae" x1="398.06" y1="239.92" x2="405.11" y2="239.92" gradientTransform="translate(-18.23 149.75) rotate(-17.85)" xlink:href="#b"/><linearGradient id="af" x1="596.69" y1="211.74" x2="603.74" y2="211.74" gradientTransform="matrix(-0.08, 1, -1, -0.08, 704, -326.82)" xlink:href="#b"/><linearGradient id="ag" x1="400.16" y1="231.51" x2="407.21" y2="231.51" gradientTransform="translate(-18.23 149.75) rotate(-17.85)" xlink:href="#b"/><linearGradient id="ah" x1="588.11" y1="212.98" x2="595.17" y2="212.98" gradientTransform="matrix(-0.08, 1, -1, -0.08, 704, -326.82)" xlink:href="#b"/><linearGradient id="ai" x1="417.53" y1="233.57" x2="424.58" y2="233.57" gradientTransform="translate(-16.02 75.51) rotate(-9.59)" xlink:href="#b"/><linearGradient id="aj" x1="582.04" y1="195.9" x2="589.09" y2="195.9" gradientTransform="translate(766.68 -291.07) rotate(102.61)" xlink:href="#b"/><linearGradient id="ak" x1="419.89" y1="225.43" x2="426.94" y2="225.43" gradientTransform="translate(-16.02 75.51) rotate(-9.59)" xlink:href="#b"/><linearGradient id="al" x1="573.62" y1="196.79" x2="580.68" y2="196.79" gradientTransform="translate(766.68 -291.07) rotate(102.61)" xlink:href="#b"/><linearGradient id="am" x1="447.56" y1="228.34" x2="454.62" y2="228.34" gradientTransform="translate(-0.93 -24.73) rotate(1.79)" xlink:href="#b"/><linearGradient id="an" x1="567.18" y1="170.29" x2="574.24" y2="170.29" gradientTransform="translate(839.43 -230.81) rotate(113.99)" xlink:href="#b"/><linearGradient id="ao" x1="451.38" y1="220.28" x2="458.44" y2="220.28" gradientTransform="translate(-0.93 -24.73) rotate(1.79)" xlink:href="#b"/><linearGradient id="ap" x1="558.28" y1="169.8" x2="565.33" y2="169.8" gradientTransform="translate(839.43 -230.81) rotate(113.99)" xlink:href="#b"/><linearGradient id="aq" x1="456.33" y1="213.31" x2="463.39" y2="213.31" gradientTransform="translate(-0.93 -24.73) rotate(1.79)" xlink:href="#b"/><linearGradient id="ar" x1="549.95" y1="167.85" x2="557" y2="167.85" gradientTransform="translate(839.43 -230.81) rotate(113.99)" xlink:href="#b"/><linearGradient id="as" x1="524.9" y1="241.68" x2="531.96" y2="241.68" gradientTransform="matrix(0.15, 0.99, -0.99, 0.15, 621.84, -355.79)" xlink:href="#b"/><linearGradient id="at" x1="451.87" y1="159.18" x2="502.92" y2="159.18" xlink:href="#f"/><linearGradient id="au" x1="562.28" y1="5.04" x2="613.33" y2="5.04" gradientTransform="matrix(-0.48, 0.88, -0.88, -0.48, 734.98, -266.5)" xlink:href="#f"/><linearGradient id="av" x1="465.18" y1="142.69" x2="502.88" y2="142.69" gradientTransform="matrix(0.85, 0.52, -0.52, 0.85, 90.43, -137.29)" xlink:href="#e"/><linearGradient id="aw" x1="481.15" y1="240.7" x2="519.93" y2="240.7" gradientTransform="matrix(-0.98, 0.18, 0.18, 0.98, 860.84, -77.36)" xlink:href="#b"/><linearGradient id="ax" x1="474.56" y1="256.12" x2="482.61" y2="256.12" gradientTransform="matrix(-0.98, 0.18, 0.18, 0.98, 860.84, -77.36)" xlink:href="#b"/><linearGradient id="ay" x1="580.86" y1="132.48" x2="588.91" y2="132.48" gradientTransform="matrix(0.54, 0.84, 0.84, -0.54, -0.08, -152.94)" xlink:href="#b"/><linearGradient id="az" x1="476.96" y1="246.52" x2="485.01" y2="246.52" gradientTransform="matrix(-0.98, 0.18, 0.18, 0.98, 860.84, -77.36)" xlink:href="#b"/><linearGradient id="ba" x1="571.07" y1="133.89" x2="579.12" y2="133.89" gradientTransform="matrix(0.54, 0.84, 0.84, -0.54, -0.08, -152.94)" xlink:href="#b"/><linearGradient id="bb" x1="496.04" y1="234.6" x2="504.09" y2="234.6" gradientTransform="matrix(-0.95, 0.32, 0.32, 0.95, 823.99, -140.49)" xlink:href="#b"/><linearGradient id="bc" x1="553.1" y1="120.51" x2="561.15" y2="120.51" gradientTransform="matrix(0.66, 0.76, 0.76, -0.66, -38.87, -91.92)" xlink:href="#b"/><linearGradient id="bd" x1="498.73" y1="225.32" x2="506.78" y2="225.32" gradientTransform="matrix(-0.95, 0.32, 0.32, 0.95, 823.99, -140.49)" xlink:href="#b"/><linearGradient id="be" x1="543.49" y1="121.52" x2="551.54" y2="121.52" gradientTransform="matrix(0.66, 0.76, 0.76, -0.66, -38.87, -91.92)" xlink:href="#b"/><linearGradient id="bf" x1="525.32" y1="212.05" x2="533.37" y2="212.05" gradientTransform="matrix(-0.86, 0.5, 0.5, 0.86, 762.67, -222.25)" xlink:href="#b"/><linearGradient id="bg" x1="521.35" y1="102.61" x2="529.4" y2="102.61" gradientTransform="matrix(0.79, 0.61, 0.61, -0.79, -74.21, -4.02)" xlink:href="#b"/><linearGradient id="bh" x1="529.68" y1="202.85" x2="537.73" y2="202.85" gradientTransform="matrix(-0.86, 0.5, 0.5, 0.86, 762.67, -222.25)" xlink:href="#b"/><linearGradient id="bi" x1="511.19" y1="102.05" x2="519.24" y2="102.05" gradientTransform="matrix(0.79, 0.61, 0.61, -0.79, -74.21, -4.02)" xlink:href="#b"/><linearGradient id="bj" x1="535.34" y1="194.89" x2="543.39" y2="194.89" gradientTransform="matrix(-0.86, 0.5, 0.5, 0.86, 762.67, -222.25)" xlink:href="#b"/><linearGradient id="bk" x1="501.68" y1="99.82" x2="509.73" y2="99.82" gradientTransform="matrix(0.79, 0.61, 0.61, -0.79, -74.21, -4.02)" xlink:href="#b"/><linearGradient id="bl" x1="519.61" y1="158.5" x2="527.66" y2="158.5" gradientTransform="matrix(0.34, 0.94, 0.94, -0.34, 58.15, -217.09)" xlink:href="#b"/><linearGradient id="bm" x1="430.27" y1="255.43" x2="430.27" y2="309.16" gradientUnits="userSpaceOnUse"><stop offset="0" stop-color="#335499"/><stop offset="1" stop-color="#1b2c50"/></linearGradient></defs><title>student-signup</title><g style="isolation:isolate"><path d="M111.93,148.33S111,224.6,153.85,252.67" style="fill:none;stroke:#1b2c50;stroke-miterlimit:10;stroke-width:0.946568px"/><path d="M146.44,95.15a35.89,35.89,0,1,0-56.08,29.66,11.57,11.57,0,0,1,5,9.58v.72a9.52,9.52,0,0,0,9.52,9.52h11.42a9.51,9.51,0,0,0,9.51-9.52v-.72a11.61,11.61,0,0,1,5-9.6A35.86,35.86,0,0,0,146.44,95.15Z" style="fill:#f3a615;opacity:0.62"/><path d="M98.05,140.82h25.55a0,0,0,0,1,0,0v8.67a5.46,5.46,0,0,1-5.46,5.46H103.51a5.46,5.46,0,0,1-5.46-5.46v-8.67A0,0,0,0,1,98.05,140.82Z" style="fill:#0b3c60"/><rect x="97.51" y="142.45" width="26.64" height="1.99" rx="0.43" style="fill:#0b3c60;mix-blend-mode:multiply"/><rect x="97.51" y="146.44" width="26.64" height="1.99" rx="0.43" style="fill:#0b3c60;mix-blend-mode:multiply"/><path d="M107.19,140.82s-1-52.19-14-49.47,33.44,31.8,30.45,5.43c-2.25-19.81-15.4,16.31-9.61,44" style="fill:none;stroke:#f3a615;stroke-miterlimit:10;stroke-width:1.1294300000000002px"/><path d="M107.82,64.74s-20.5-1.37-28.7,26l10.93,4.1S88.69,79.77,107.82,64.74Z" style="opacity:0.58;fill:url(#a)"/><path d="M315,228.75l23.4,30.66a5.51,5.51,0,0,1-4.4,8.85l-90.48-.36a5.51,5.51,0,0,1-4.37-8.83l23.56-31.16Z" style="fill:url(#b)"/><rect x="159.13" y="58.38" width="260.41" height="172.77" rx="14.16" transform="translate(0.58 -1.15) rotate(0.23)" style="fill:url(#c)"/><rect x="168.52" y="66.66" width="241.63" height="156.2" transform="matrix(1, 0, 0, 1, 0.58, -1.15)" style="fill:url(#d)"/><polygon points="243.56 111.58 224.78 101.92 201 111.58 201 66.51 243.56 66.51 243.56 111.58" style="fill:url(#e)"/><rect x="301.15" y="76.53" width="101.41" height="2.5" rx="0.54" style="fill:#92d4d9"/><rect x="301.15" y="85.29" width="61.35" height="2.5" rx="0.54" style="fill:#92d4d9"/><rect x="301.15" y="109.08" width="101.41" height="2.5" rx="0.54" style="fill:#92d4d9"/><rect x="301.15" y="129.11" width="101.41" height="2.5" rx="0.54" style="fill:#92d4d9"/><rect x="301.15" y="139.13" width="101.41" height="2.5" rx="0.54" style="fill:#92d4d9"/><rect x="301.15" y="149.14" width="101.41" height="2.5" rx="0.54" style="fill:#92d4d9"/><rect x="301.15" y="159.16" width="101.41" height="2.5" rx="0.54" style="fill:#92d4d9"/><rect x="301.15" y="169.17" width="101.41" height="2.5" rx="0.54" style="fill:#92d4d9"/><rect x="301.15" y="179.19" width="101.41" height="2.5" rx="0.54" style="fill:#92d4d9"/><rect x="301.15" y="189.21" width="101.41" height="2.5" rx="0.54" style="fill:#92d4d9"/><rect x="301.15" y="199.22" width="101.41" height="2.5" rx="0.54" style="fill:#92d4d9"/><rect x="301.15" y="209.24" width="101.41" height="2.5" rx="0.54" style="fill:#92d4d9"/><rect x="301.15" y="117.84" width="61.35" height="2.5" rx="0.54" style="fill:#92d4d9"/><rect x="175.96" y="119.1" width="101.41" height="2.23" rx="0.48" style="fill:#92d4d9"/><rect x="175.96" y="136.93" width="101.41" height="2.23" rx="0.48" style="fill:#92d4d9"/><rect x="175.96" y="145.84" width="101.41" height="2.23" rx="0.48" style="fill:#92d4d9"/><rect x="175.96" y="154.76" width="101.41" height="2.23" rx="0.48" style="fill:#92d4d9"/><rect x="175.96" y="163.68" width="101.41" height="2.23" rx="0.48" style="fill:#92d4d9"/><rect x="175.96" y="172.59" width="101.41" height="2.23" rx="0.48" style="fill:#92d4d9"/><rect x="175.96" y="181.51" width="101.41" height="2.23" rx="0.48" style="fill:#92d4d9"/><rect x="175.96" y="190.43" width="101.41" height="2.23" rx="0.48" style="fill:#92d4d9"/><rect x="175.96" y="199.34" width="101.41" height="2.23" rx="0.48" style="fill:#92d4d9"/><rect x="175.96" y="208.26" width="101.41" height="2.23" rx="0.48" style="fill:#92d4d9"/><rect x="175.96" y="126.9" width="61.35" height="2.23" rx="0.48" style="fill:#92d4d9"/><path d="M207.28,223.48s-7.16-54.45-34.56-51.59S184.8,212.24,207.28,223.48Z" style="fill:url(#f)"/><path d="M207.28,223.48S194,197.09,175.51,183.36" style="fill:none;stroke:#fff;stroke-linecap:round;stroke-linejoin:round;stroke-width:0.722619px"/><path d="M206.38,224.33s52.47-75.18,5.34-76.35C172,147,210.6,208.74,206.38,224.33Z" style="fill:url(#g)"/><path d="M206,224.55s14.5-27.82,7.57-62.59" style="fill:none;stroke:#fff;stroke-linecap:round;stroke-linejoin:round;stroke-width:0.722619px"/><path d="M205.59,222.34s28.09-40.2,41-21.32S205.59,222.34,205.59,222.34Z" style="fill:url(#h)"/><path d="M206.21,222.22a75.31,75.31,0,0,1,30.7-14.29" style="fill:none;stroke:#fff;stroke-linecap:round;stroke-linejoin:round;stroke-width:0.722619px"/><rect x="115.2" y="255.88" width="113.97" height="38.51" rx="8.23" style="fill:url(#i)"/><path d="M182.38,255.88h60.49a1.23,1.23,0,0,1,1.23,1.23v36.05a1.23,1.23,0,0,1-1.23,1.23H182.38a8.23,8.23,0,0,1-8.23-8.23V264.11A8.23,8.23,0,0,1,182.38,255.88Z" style="fill:#e09a14"/><path d="M198.4,290.47c-10.8,0-19.58-6.88-19.58-15.33s8.78-15.33,19.58-15.33h40.48c2.88,0,5.23,1.84,5.23,4.09v22.47c0,2.26-2.35,4.1-5.23,4.1Z" style="fill:#fff"/><g style="clip-path:url(#j)"><rect x="181.23" y="263.74" width="66.02" height="1.57" rx="0.34" style="fill:#d1d1d1"/><rect x="178.87" y="270.03" width="66.02" height="1.57" rx="0.34" style="fill:#d1d1d1"/><rect x="178.87" y="277.89" width="66.02" height="1.57" rx="0.34" style="fill:#d1d1d1"/><rect x="178.87" y="284.96" width="66.02" height="1.57" rx="0.34" style="fill:#d1d1d1"/></g><rect x="134.85" y="255.88" width="4.72" height="38.51" style="fill:#fff"/><rect x="144.29" y="255.88" width="3.14" height="38.51" style="fill:#fff"/><rect x="152.14" y="255.88" width="3.14" height="38.51" style="fill:#fff"/><path d="M122.43,217.51H244.89a1.66,1.66,0,0,1,1.66,1.66v35.2a1.66,1.66,0,0,1-1.66,1.66H122.43a8.23,8.23,0,0,1-8.23-8.23V225.74a8.23,8.23,0,0,1,8.23-8.23Z" style="fill:#0b3c60"/><path d="M168.21,173h29.06a0,0,0,0,1,0,0V294.37a6.21,6.21,0,0,1-6.21,6.21H174.42a6.21,6.21,0,0,1-6.21-6.21V173A0,0,0,0,1,168.21,173Z" transform="translate(419.51 54.03) rotate(90)" style="fill:#fff"/><g style="clip-path:url(#k)"><rect x="114.2" y="227.66" width="139.91" height="1.89" style="fill:#d1d1d1"/><rect x="115.62" y="236.17" width="139.91" height="1.89" style="fill:#d1d1d1"/><rect x="116.09" y="244.68" width="139.91" height="1.89" style="fill:#d1d1d1"/></g><path d="M148.79,163.08s-2.29-12.54,6.86-10.44c6.49,1.5,2.91,18,1.61,29.73-.46,4.24-3.14,8.14-7.16,6.72-11.19-4-11.11-3.51-21.06-10.77l.8-3,18.95,6.44Z" style="fill:#da8675"/><path d="M130.2,163.1l7.92,3.13a1,1,0,0,1,.63.93v20a1,1,0,0,1-1.43.91l-7.92-3.73a1,1,0,0,1-.58-.91V164A1,1,0,0,1,130.2,163.1Z" style="fill:#1b2c50"/><path d="M128.34,175.64a.94.94,0,0,1,1.17-.3,2.85,2.85,0,0,1,1.85,2.53,2.47,2.47,0,0,1-1.9,2.21.9.9,0,0,1-1.05-.37A3.48,3.48,0,0,1,128.34,175.64Z" style="fill:#da8675"/><path d="M158.13,121.32c-3.18,1.54-6.82-.31-10.49,2.57-3.83,3-7.72,6.56-9,11.26-1.55,5.81,1.26,9.12,3.7,14.06a15.38,15.38,0,0,1,1.29,9.74c-1,5.11-4.66,9.84-3.8,15,.81,4.86,10.62,14.08,12,5,.87-5.65-.9-11-2.32-16.39-1-3.95,2.64-8,4.71-12,2.61-5-11.67-11.14-7-17.63S154.64,123,158.13,121.32Z" style="fill:url(#l)"/><path d="M155,194.54s9.26,19-15.53,21S108,218.6,108,218.6s11.38,23.25,14.11,48.64l-4.14,2.55-24-55c-1.66-4.62.89-9.79,5.19-10.54Z" style="fill:url(#m)"/><path d="M117.93,269.79l-4.26,8.7a.93.93,0,0,0,1.38,1.17l7.9-5.58a2.86,2.86,0,0,0,.85-3.73l-1.73-3.11Z" style="fill:#2b3244"/><path d="M169.24,198.46s9.26,19-15.53,21-31.53,3.09-31.53,3.09,11.38,23.26,14.11,48.64l-4.14,2.55-24-55c-1.66-4.61.89-9.79,5.19-10.53Z" style="fill:url(#n)"/><path d="M131.88,273.2l-4.26,8.71a.93.93,0,0,0,1.38,1.17l7.9-5.58a2.88,2.88,0,0,0,.85-3.74L136,270.65Z" style="fill:#2b3244"/><path d="M142.67,195.6a1,1,0,0,0-.14,1.79c6.33,4,27.41,16.14,31.21,1.87,3.61-13.57-2.18-45.69-11.19-46.25s-13.23-2.38-13.05,4.61-6.4,18.25,2.45,20C156.19,178.47,151,192.08,142.67,195.6Z" style="fill:url(#o)"/><path d="M161.16,168.29s-2.29-12.54,6.86-10.44c6.49,1.5,2.91,18,1.62,29.73-.47,4.24-3.19,8.26-7.17,6.72-11.39-4.44-13.85-4.92-22.81-9.79l1.07-3.4L161.16,187Z" style="fill:#f0a190"/><path d="M140.24,184.82s-7.16-.78-6.37-3,4.88-.58,4.88-.58v-2c0-.71,2,1.91,2,1.91l2.38.68-1.53,3.75Z" style="fill:#f0a190"/><path d="M164,147v6.82s-2,5.27-8.66,4.77l-1.6-2,.69-8.45Z" style="fill:#da8675"/><path d="M166.17,137.55c0,6.18-5,14.54-11.18,14.54s-11.19-8.36-11.19-14.54a11.19,11.19,0,0,1,22.37,0Z" style="fill:#f0a190"/><path d="M146.26,130.55a7.49,7.49,0,0,0,.28.92,18.51,18.51,0,0,0,5.46,7.3c1.23,1,3.85,1.54,4.77,2.56a9,9,0,0,1,0,11.52c-3.09,4.05-8.05,15.46-2.28,19.41,1.07.73,2.44.9,3.59,1.5,2.09,1.11,3.16,3.49,3.77,5.77,1.36,5.06,2.88,11.19,9.48,9.25a17.76,17.76,0,0,0,10.45-9.38c3.88-9.74-4.33-18.56-8.86-26.42a14.78,14.78,0,0,1-2.38-6.14c-.17-2.59,1-5,1.89-7.5,2.36-6.73-2.49-15-9.06-17.4-4.51-1.67-11.9,0-15.41,3.2a5.87,5.87,0,0,0-1.59,2.21A5.37,5.37,0,0,0,146.26,130.55Z" style="fill:url(#p)"/><path d="M412.47,133.09s-55.65,7.42-82.85,40.8V292.6S392.68,279,426.07,253V136.89a3.8,3.8,0,0,0-3.8-3.8Z" style="fill:#f3b642"/><path d="M436,145.45s-55.64,7.42-82.85,40.81V305s63.06-13.6,96.45-39.57V151.85a6.4,6.4,0,0,0-6.4-6.4Z" style="fill:url(#q)"/><path d="M329.62,173.32s52.66-43.88,96.54-35.11l19.56,7.24s-53.2,1.54-92.7,41Z" style="fill:url(#r)"/><path d="M353.11,186.26a26.65,26.65,0,0,0-14.71-11.48,24.74,24.74,0,0,0-8.78-.89V293.83L353.11,305Z" style="fill:url(#s)"/><path d="M438.86,183.06V205a13.37,13.37,0,0,1-4,9.58c-5.91,5.76-19.14,15.23-44.63,19a13.51,13.51,0,0,1-15.54-13.33V200.62a13.47,13.47,0,0,1,4.46-10c7.4-6.63,23.53-18.71,44.84-21A13.48,13.48,0,0,1,438.86,183.06Z" style="fill:url(#t)"/><circle cx="286.84" cy="152.3" r="27.25" style="fill:#17848d;opacity:0.53"/><path d="M134.3,76.18l-20.52,8.3a7.58,7.58,0,0,1-5.73,0L88.29,76.21a7.53,7.53,0,0,1-4.64-7V51.52A7.54,7.54,0,0,1,91.19,44h40.28A7.54,7.54,0,0,1,139,51.52V69.19A7.53,7.53,0,0,1,134.3,76.18Z" style="fill:url(#u)"/><path d="M109.61,28.08,76.44,40.27a3.74,3.74,0,0,0-.3,6.88l33.17,15.62a3.76,3.76,0,0,0,3.18,0l33.17-15.62a3.73,3.73,0,0,0-.31-6.88L112.19,28.08A3.69,3.69,0,0,0,109.61,28.08Z" style="fill:url(#v)"/><rect x="75.9" y="40.63" width="3.81" height="30.45" style="fill:#1e2d5c"/><polygon points="278.71 140.14 300.44 153.29 278.71 164.47 278.71 140.14" style="fill:#17848d"/><path d="M257.21,309.17l2.22,2.21s22.5-5.11,39-17.3a3.19,3.19,0,0,1,3.94.14l17.94,14.95,46.49-8.85-33.2-6.65L303.19,279a3.22,3.22,0,0,0-3.25.26Z" style="fill:url(#w)"/><path d="M257.21,309.17h-12a.43.43,0,0,0-.18.82l10.5,4.7a2,2,0,0,0,2.58-.87l1.33-2.44Z" style="fill:#121a2b"/><path d="M259.35,319.18l-10.91-5a.43.43,0,0,0-.5.67l7.57,8.66a2,2,0,0,0,2.7.29l2.23-1.65Z" style="fill:#121a2b"/><path d="M258.32,319.13s29.89-10,47.6-13.28,40.95-5.53,40.95-5.53h19.92l-2.21,11.06s0,8.86-18.82,7.75S307,316.92,307,316.92s-30,7.41-46.58,5.2Z" style="fill:url(#x)"/><path d="M325.66,272.17s-4.92-4.16-2.92-6.41,6.65,3.73,6.65,3.73Z" style="fill:#f0a190"/><polygon points="324.78 272.67 335.86 284.23 338.23 278.18 330.42 269.49 324.78 272.67" style="fill:url(#y)"/><path d="M345.76,243.87s-10-1.11-10,6.64l-2.21,43.16s12.17,10,33.2,6.65c0,0,2.22-37.2,0-46.06s-8.85-11.5-8.85-11.5S350.19,252.72,345.76,243.87Z" style="fill:url(#z)"/><path d="M323.45,263.09l3.91,11.68A1.81,1.81,0,0,0,329,276l22.33,1a1.87,1.87,0,0,0,1.77-2.41l-3.13-11.67a1.8,1.8,0,0,0-1.63-1.37l-23.12-.94A1.86,1.86,0,0,0,323.45,263.09Z" style="fill:url(#aa)"/><path d="M353.16,272.36h0s-1-3.71-1.67-3.59c-.42.08-.19,1.44,0,2.42a5.82,5.82,0,0,0-3.6-.66c-3.86.53,4.09,6.44,4.09,6.44l2.05-3.56A6.93,6.93,0,0,0,353.16,272.36Z" style="fill:#f0a190"/><path d="M374.51,272.91c-1.76-6.21-3.86-12.32-5.71-18.5-1.22-4.08-3.34-6.35-5.54-7.6a.38.38,0,0,0-.19,0,7,7,0,0,0-5.37,3.16,7.61,7.61,0,0,0-.61,6.75c.68,1.85,1.44,3.76,2.32,5.73a93,93,0,0,0,8.8,15.51.29.29,0,0,1-.36.43l-14.3-6.13a.29.29,0,0,0-.37.14l-2.05,4.1a.33.33,0,0,0,0,.17c.22,2.12,8,6,9.69,6.79a36.56,36.56,0,0,0,11.32,3.19,5.68,5.68,0,0,0,2.81-.18C378.77,284.86,375.25,275.53,374.51,272.91Z" style="fill:url(#ab)"/><path d="M358,237.36v7a8.41,8.41,0,0,1-6.95,4.9,5,5,0,0,1-3.25-.78h0a5,5,0,0,1-2.28-4.21v-5.43Z" style="fill:#f09582"/><path d="M338,221.73s-1.12,7.71,2,12.71C340,234.44,342.44,225.05,338,221.73Z" style="fill:#42267b"/><path d="M361.5,227.56c0,6.38-5.17,15-11.55,15s-11.55-8.64-11.55-15a11.55,11.55,0,0,1,23.1,0Z" style="fill:#f0a190"/><path d="M362.37,223.94s0-13.28-8.86-13.28-17.71,2.21-17.71,5.53,5.54,1.11,5.54,1.11-9.2,5.54-2.94,6.64a13,13,0,0,0,10.68-3.32s-5.53,4.43,0,4.43,5.54-4.43,5.54-4.43,3.32,3.32,2.21,7.75S362.37,231.69,362.37,223.94Z" style="fill:url(#ac)"/><path d="M359.11,226.92a3.11,3.11,0,0,1,2-3.23c.89-.28,1.83-.14,2.33,1.36.89,2.66.35,6-1.61,6.7a1.67,1.67,0,0,1-2.1-1.13A17.71,17.71,0,0,1,359.11,226.92Z" style="fill:#f0a190"/><path d="M342.94,226.87a3.46,3.46,0,1,0,3.46,3.46A3.46,3.46,0,0,0,342.94,226.87Zm0,6.5a3,3,0,1,1,3-3A3,3,0,0,1,342.94,233.37Z" style="fill:#261647"/><path d="M342.94,227.28a3,3,0,1,0,3,3.05A3,3,0,0,0,342.94,227.28Z" style="fill:#92c1bb;opacity:0.5700000000000001"/><path d="M345.73,229.13a.88.88,0,0,1,0,.17,3,3,0,0,1-5.84,1.2,3,3,0,0,0,6.07-.17A3,3,0,0,0,345.73,229.13Z" style="fill:#92c1bb;opacity:0.5700000000000001"/><path d="M352.21,226.22a3.46,3.46,0,1,0,3.46,3.46A3.46,3.46,0,0,0,352.21,226.22Zm0,6.51a3,3,0,1,1,3-3A3,3,0,0,1,352.21,232.73Z" style="fill:#261647"/><circle cx="352.21" cy="229.68" r="3.04" style="fill:#92c1bb;opacity:0.5700000000000001"/><path d="M355,228.48a1,1,0,0,1,0,.17,3,3,0,0,1-5.84,1.2,3,3,0,1,0,5.82-1.37Z" style="fill:#92c1bb;opacity:0.5700000000000001"/><polygon points="345.98 229.13 348.84 228.9 348.84 230.33 346.27 230.6 345.98 229.13" style="fill:#261647"/><path d="M354.77,227.36l1.52-.39a.35.35,0,0,1,.44.28h0a1.62,1.62,0,0,1-1.22,1.85l-.12,0Z" style="fill:#261647"/><path d="M339.66,229.37l-1.54.27a.36.36,0,0,0-.29.44h0a1.62,1.62,0,0,0,1.88,1.18l.12,0Z" style="fill:#261647"/><path d="M243.34,41.15a4.18,4.18,0,0,0,.56-2c0-3.54-4.74-6.48-11-7.15a4.28,4.28,0,0,0,.07-.72c0-5.47-8.34-9.91-18.62-9.91a33.54,33.54,0,0,0-6.74.68c-3.37-2.53-8.9-4.18-15.17-4.18-9.54,0-17.4,3.83-18.48,8.75h-.14c-10.28,0-18.62,4.43-18.62,9.91a6.51,6.51,0,0,0,2,4.47h0l.2.21c2.4,2.37,17,3.12,22,3.84,7.09,1.75,9.57,0,26.88,0,40.53,0,37.1-3.87,37.1-3.87Z" style="fill:#dddbdb;opacity:0.76"/><path d="M469.45,94.1a4.27,4.27,0,0,0,.55-2c0-3.54-4.74-6.49-11-7.15a5.85,5.85,0,0,0,.07-.72c0-5.47-8.34-9.91-18.62-9.91a32.83,32.83,0,0,0-6.74.68c-3.38-2.53-8.91-4.18-15.17-4.18-9.55,0-17.4,3.82-18.48,8.75h-.14c-10.29,0-18.62,4.43-18.62,9.91a6.46,6.46,0,0,0,2,4.47h0a1.81,1.81,0,0,0,.2.21c2.39,2.37,17,3.13,22,3.85,7.1,1.75,9.58,0,26.89,0,40.53,0,37.09-3.87,37.09-3.87Z" style="fill:#ccc0c0;opacity:0.76"/><path d="M444.61,268.79s-12.84-39.86,14.45-64.85" style="fill:none;stroke-miterlimit:10;stroke-width:0.48518000000000006px;stroke:url(#ad)"/><path d="M442.45,258.7s-6.44-10.89-8.91-7.15S442.45,258.7,442.45,258.7Z" style="fill:url(#ae)"/><path d="M442.09,258.72s12.51-1.85,10-5.55S442.09,258.72,442.09,258.72Z" style="fill:url(#af)"/><path d="M441.88,250.05s-6.45-10.89-8.92-7.15S441.88,250.05,441.88,250.05Z" style="fill:url(#ag)"/><path d="M441.51,250.07s12.52-1.84,10-5.55S441.51,250.07,441.51,250.07Z" style="fill:url(#ah)"/><path d="M442.35,240s-4.81-11.7-7.8-8.36S442.35,240,442.35,240Z" style="fill:url(#ai)"/><path d="M442,240s12.66,0,10.69-4.06S442,240,442,240Z" style="fill:url(#aj)"/><path d="M443.32,231.57s-4.81-11.7-7.79-8.36S443.32,231.57,443.32,231.57Z" style="fill:url(#ak)"/><path d="M443,231.54s12.65,0,10.68-4.06S443,231.54,443,231.54Z" style="fill:url(#al)"/><path d="M446.18,222.65s-2.41-12.42-6-9.73S446.18,222.65,446.18,222.65Z" style="fill:url(#am)"/><path d="M445.82,222.55s12.41,2.47,11.28-1.87S445.82,222.55,445.82,222.55Z" style="fill:url(#an)"/><path d="M450.25,214.72s-2.41-12.43-6-9.73S450.25,214.72,450.25,214.72Z" style="fill:url(#ao)"/><path d="M449.89,214.62s12.41,2.46,11.28-1.88S449.89,214.62,449.89,214.62Z" style="fill:url(#ap)"/><path d="M455.41,207.9s-2.4-12.42-6-9.73S455.41,207.9,455.41,207.9Z" style="fill:url(#aq)"/><path d="M455.06,207.8s12.41,2.47,11.27-1.88S455.06,207.8,455.06,207.8Z" style="fill:url(#ar)"/><path d="M456,206.6s11.8-4.57,8.51-7.63S456,206.6,456,206.6Z" style="fill:url(#as)"/><path d="M430.76,270.81s-5.94-45.18-28.68-42.81S412.11,261.48,430.76,270.81Z" style="fill:url(#at)"/><path d="M430.76,270.81s-11-21.9-26.36-33.29" style="fill:none;stroke:#fff;stroke-linecap:round;stroke-linejoin:round;stroke-width:0.59957px"/><path d="M428,264.79s44.82-8.26,41.28-30.84S436.37,245.68,428,264.79Z" style="fill:url(#au)"/><path d="M428,264.79s21.31-12.11,31.89-28" style="fill:none;stroke:#fff;stroke-linecap:round;stroke-linejoin:round;stroke-width:0.59957px"/><path d="M430,271.51s43.54-62.38,4.43-63.34C401.48,207.36,433.51,258.58,430,271.51Z" style="fill:url(#av)"/><path d="M429.71,271.7A85.83,85.83,0,0,0,436,219.76" style="fill:none;stroke:#fff;stroke-linecap:round;stroke-linejoin:round;stroke-width:0.59957px"/><path d="M437.4,279.38s-8.72-47-49.67-57.3" style="fill:none;stroke-miterlimit:10;stroke-width:0.5537569999999999px;stroke:url(#aw)"/><path d="M434.09,268.07s.57-14.43,5.08-12S434.09,268.07,434.09,268.07Z" style="fill:url(#ax)"/><path d="M434.47,267.89s-13.57,4.94-13-.16S434.47,267.89,434.47,267.89Z" style="fill:url(#ay)"/><path d="M430,259.07s.57-14.43,5.08-12S430,259.07,430,259.07Z" style="fill:url(#az)"/><path d="M430.36,258.9s-13.57,4.93-13-.17S430.36,258.9,430.36,258.9Z" style="fill:url(#ba)"/><path d="M424,249.22s-1.51-14.37,3.31-12.62S424,249.22,424,249.22Z" style="fill:url(#bb)"/><path d="M424.4,249s-12.73,6.83-12.93,1.71S424.4,249,424.4,249Z" style="fill:url(#bc)"/><path d="M418.51,241.3s-1.52-14.37,3.3-12.62S418.51,241.3,418.51,241.3Z" style="fill:url(#bd)"/><path d="M418.86,241.07s-12.72,6.83-12.93,1.71S418.86,241.07,418.86,241.07Z" style="fill:url(#be)"/><path d="M410.81,233.89s-4.32-13.79.74-13S410.81,233.89,410.81,233.89Z" style="fill:url(#bf)"/><path d="M411.11,233.59s-11.13,9.21-12.34,4.23S411.11,233.59,411.11,233.59Z" style="fill:url(#bg)"/><path d="M402.42,228.12s-4.32-13.78.74-13S402.42,228.12,402.42,228.12Z" style="fill:url(#bh)"/><path d="M402.72,227.83s-11.13,9.2-12.34,4.23S402.72,227.83,402.72,227.83Z" style="fill:url(#bi)"/><path d="M393.53,224.08s-4.31-13.79.75-13S393.53,224.08,393.53,224.08Z" style="fill:url(#bj)"/><path d="M393.84,223.78S382.71,233,381.5,228,393.84,223.78,393.84,223.78Z" style="fill:url(#bk)"/><path d="M392.23,223.1s-14.33,1.8-12.69-3S392.23,223.1,392.23,223.1Z" style="fill:url(#bl)"/><path d="M450.45,264.08v-2.29a2.5,2.5,0,0,0-2.5-2.5H412.59a2.51,2.51,0,0,0-2.51,2.5v1.06a17.28,17.28,0,0,1-3.62,10.82,17.76,17.76,0,0,0-4.09,11.14c0,11.81,12.49,21.38,27.9,21.38s27.9-9.57,27.9-21.38a17.8,17.8,0,0,0-4.26-11.35A14.77,14.77,0,0,1,450.45,264.08Z" style="fill:url(#bm)"/></g></svg>