<svg xmlns="http://www.w3.org/2000/svg" xmlns:xlink="http://www.w3.org/1999/xlink" viewBox="0 0 544 362"><defs><clipPath id="a"><path d="M165.5,162c.09.43.18.87.24,1.31a15.71,15.71,0,0,1,.18,2.83c0,.87-.21,1.74-.19,2.61a3.39,3.39,0,0,0,.57,1.41,15.91,15.91,0,0,1,1.1,2.23c.13.39.19.93-.26,1.1s-1.42-.08-1.6.6c-.1.35,0,.74-.09,1.08s-.29.3-.47.46a.85.85,0,0,0-.23.55,5.11,5.11,0,0,1-.15,1.23c-.14.37-.4.53-.61.85a1.46,1.46,0,0,0-.16.85c0,.87,0,1.84-1.06,2.08a5.75,5.75,0,0,1-1.85-.07,9.28,9.28,0,0,0-2.35-.17,1.45,1.45,0,0,0-.91.53,6.52,6.52,0,0,0-1,1.76,25.28,25.28,0,0,0,1.2,4.93c.68,1.43-2.15,2-2.15,2l-7.42-3.37-2.62-4,1.75-4.49a7.86,7.86,0,0,0,.52-2.24l.38-14.78,10-3.53,7.29,4.18Z" style="fill:#d08b73"/></clipPath><clipPath id="b"><path d="M144.56,207.07a29,29,0,0,1-2.29-8.68,22.37,22.37,0,0,1,.8-8.57c.41-1.37,1.15-2.58,1.44-4l2-5.53a42.23,42.23,0,0,0,7.07,5.68,7.62,7.62,0,0,0,3.5,1.19h.45l8.61,9.95a7.76,7.76,0,0,1,2,2.2,8.79,8.79,0,0,1,1,4.88c-.07,1-.27,2-.34,3.09a11.62,11.62,0,0,0,.19,2.7c.35,2,.69,4.07.91,6.13.23,2.23,1.21,15,1.36,16.21s.31,2.07.42,2.68a14.36,14.36,0,0,1-6.46,2.21c-3.41.26-7.27-.84-9.17,0a1.69,1.69,0,0,1-1.28.14c-.28-.15-.27-.68-.3-.93-.08-.51-.14-1-.22-1.54a1.52,1.52,0,0,0-.12-.51c-.09-.14-.16-.16-.32-.1s-1.8,1.75-2.06,2c-.67.54-2.88-.38-9.16-6a7.89,7.89,0,0,0,3.23-2.9,2.33,2.33,0,0,1,.95-1.08,2.7,2.7,0,0,0,.9-.88c.21-.33.22-.74.42-1.06s.49-.32.73-.48a2.26,2.26,0,0,0,.69-.81Z" style="fill:#ee5f43"/></clipPath><clipPath id="c"><path d="M267.92,232.6s-4.22,13.52-4.5,17.18-4.18,27.62-4.66,29.82c-2.37,10.85-4.92,34.73-4.92,34.73l1.69,2.2-1.69,3.28V324a23,23,0,0,1,4-.74c1.26,0,4.75,1.48,4.75,1.48s3.76-10.35,3.76-11.9,1.69-2.25,1.55-3.38-.54-4.08,0-5.35a120.82,120.82,0,0,0,3.23-15.49c.21-3,3.59-12.25,3.59-12.25s4-11.83,4.65-13.52S281,252.32,285,252.32,295.24,265,296.3,269.64s7.81,27.46,8.87,29.15,5.07,7.39,5.07,7.39l-1.56,6.15,1.06,8.41s.7,4.36.8,5.31,3.62,0,3.62,0,6.54-1.39,7.59-1.91,1.16-2.86.95-3.6a15.36,15.36,0,0,1-.84-3c0-.74-4.55-30.75-5-33.08S313,274,312.17,270.66a95.11,95.11,0,0,1-1.51-13.91c0-2.53-.42-5.28-.42-6.33s-5.91-19.65-5.91-19.65Z" style="fill:#4485f4"/></clipPath><clipPath id="d"><path d="M271.87,171.07c-1.23.68-1.46.59-5.46,2a37.64,37.64,0,0,0-4.12,1.58c-2.25,2-.84,5.33-2,10.6-.59,2.74-2.74,5.33-2.54,6.48s3.72,1,6.48,1c3.07,0,3.56-.74,4.37-.28,3.24,1.86-3,14.15-2.54,26.9.05,1.21.26,5.06,0,10.35-.11,2.41-.29,4.39-.42,5.7a107.46,107.46,0,0,0,19.86,3.38c8.3.61,12.07-.1,15.42-1.9a20,20,0,0,0,5.7-4.65,13.43,13.43,0,0,1-1.27-5.28c0-1.75.33-2.41.21-4.65a24.3,24.3,0,0,0-.63-4c-.68-3.18-1.11-4.32-1.48-5.91-.44-1.92-2.06-9,1.48-13.94a11,11,0,0,1,1.05-1.27c.62.37,1.13,1.51,1.84,1.12s1.66-7.71,2.6-9.92a15.62,15.62,0,0,0,1.69-5.78,8.91,8.91,0,0,0-1.27-5.63,9.1,9.1,0,0,0-2.11-2.11c-.55-.43-1.68-1.3-6.34-3.38-1.58-.71-2.38-1.07-3.16-1.34A25.86,25.86,0,0,0,294,169c-7.5-.93-9.23,1.12-14.61,0a7.88,7.88,0,0,0-3.77-.07C274.06,169.29,273.87,170,271.87,171.07Z" style="fill:#034c8a"/></clipPath><clipPath id="e"><path d="M285,158.25l-1.83,11.83h10.56Q292.85,164,292,158Z" style="fill:#bc6c56"/></clipPath><clipPath id="f"><path d="M258.86,191.8c-.43,2.9.59,10.26.76,15.6a5.57,5.57,0,0,0,4.64,6c3.39.91,13.41,1.81,26.9,2.26l9.43-4.51c3-3.17,4.53-6.65,3.43-8.36-1.41-2.2-7-1.21-10.47.9a13.65,13.65,0,0,0-5.21,5.91c-3.16-.65-6.56-1.47-10.14-2.53-3.13-.93-6-1.94-8.73-3a32.91,32.91,0,0,0,.41-6.33,24,24,0,0,0-.62-5.38C265.77,191.47,260.92,191.22,258.86,191.8Z" style="fill:#bc6c56"/></clipPath><clipPath id="g"><path d="M336,314.21c.58-3.82,1.32-7.5,1-11.39-.39-4.37-.73-8.71-.81-13.11,0-2.2-.05-4.4-.05-6.6a43,43,0,0,1,.19-5.79,6.65,6.65,0,0,1,2.45-4.6C341.06,271,344.3,271,347,271c1,0,2,0,3.06,0l0,.28h0a.28.28,0,0,0,.24-.13.29.29,0,0,0,0-.24h.19c11.21-.82,22.41-1.82,33.61-2.84a2.76,2.76,0,0,0,2.4-1.61,63.79,63.79,0,0,1,11.46,9.2c-.06.3-.14.6-.22.89s-.18.49-.28.77a3.18,3.18,0,0,0-.18.6l.22,0c.18,2.16,0,5.3-1.72,6.88-1.91,1.72-5.09,1.76-7.5,1.91-4.34.27-8.72.17-13.07.06-4.55-.1-9.11-.27-13.65-.51-2.1-.11-4.2-.27-6.29-.51a38.35,38.35,0,0,1-5.94-1c-.32-.1-.93-.33-.93-.33a47.64,47.64,0,0,1,.6,11.5,122.7,122.7,0,0,1-2,12.47,28.91,28.91,0,0,0-.65,5.56,18.12,18.12,0,0,0,.21,2.44c0,.15.08.38.13.62a1.73,1.73,0,0,1,0,1c-.13.25-.53.31-.78.37a14.92,14.92,0,0,1-2.58.24,22.52,22.52,0,0,1-5.74-.42,5.62,5.62,0,0,1-1-.27,1.32,1.32,0,0,1-.73-.57C335.44,316.53,335.88,315.06,336,314.21Z" style="fill:#38aae3"/></clipPath><clipPath id="h"><path d="M386.67,224.11a81.66,81.66,0,0,0-8.65,5.36v0a.28.28,0,0,0,0-.22.31.31,0,0,0-.18-.14.32.32,0,0,1,0-.16,2.83,2.83,0,0,1,.08-.52c.27-1.31.62-2.64.94-3.95a5,5,0,0,1,.7-1.73,4.14,4.14,0,0,1,.5-.53c.1-.09.22-.16.34-.26a.69.69,0,0,0,.25-.53v-.09h0a2.58,2.58,0,0,0-.67-1.34,2,2,0,0,0-1.45-.72c-.36,0-.34.19-1,.39a2.06,2.06,0,0,1-1.45.1,1.62,1.62,0,0,1-.66-.6,2.85,2.85,0,0,1-.24-.37,3.43,3.43,0,0,1-.35-1.07,28,28,0,0,0-2.07-5,1.31,1.31,0,0,0-.78-.46,2.35,2.35,0,0,1-.66-.16.4.4,0,0,1-.21-.19.65.65,0,0,1-.07-.31,1.54,1.54,0,0,1,.14-.58c.23-.53.78-1,1.09-1.68a6.12,6.12,0,0,0,.2-1.89c.07-1.13.37-2.31.5-3.5a24.88,24.88,0,0,1,.66-3.89c.13-.49.31-1,.49-1.44l0-.13a6.22,6.22,0,0,1-.05-.68c0-.39,0-.7.21-.86,4.18-2.94,25.38-4.82,16.74,16.64a5.37,5.37,0,0,0-.2,1,1.65,1.65,0,0,1-.28.72l-.06.05a.25.25,0,0,0-.25,0,.26.26,0,0,0-.12.23c0,.41,0,.81.07,1.22,0,.06,0,.2,0,.34a.8.8,0,0,0,.12.45.48.48,0,0,0,.17.18.41.41,0,0,0,.24.07H391a.78.78,0,0,1,.58.23,2.84,2.84,0,0,1,.57,1.21,6,6,0,0,1,.19,1.47,1.69,1.69,0,0,1,0,.23c0,.12,0,.26-.07.45s0,.13,0,.19,0,.07,0,.1a11.31,11.31,0,0,0-2.52,1A28.34,28.34,0,0,0,386.67,224.11Z" style="fill:#d08b73"/></clipPath><clipPath id="i"><path d="M398,275.64a9.3,9.3,0,0,0,.26-1.8v-.17c0-1.26-.61-2.37-.9-3.74-.54-2.6,1.2,3.43-.12-18.66v0c0-4.18,3.8-7.26-.28-19.08a53.06,53.06,0,0,0-2.8-6.69c-.53-1.06-1.11-2.09-1.72-3.1-.09-.14,0-.53-.06-.64s-.19.15-.2.06c-.87.22-2.26-.48-3.07-.06-1,.36-2.36.66-3.31,1.11-3,1.45-5,4.79-7.81,6.62-1.21,3.69-5.47,6.57-3.8,15.15a79.38,79.38,0,0,1,1.51,8.85c.07.8.13,1.62.13,2.44,0,.42,0,.84-.05,1.26a24.87,24.87,0,0,1-.56,2.5c-.13.63-.22,1.26-.3,1.9,0,.23-.31,2.82-.34,3,1.35.24,2.95-1.84,4.27-1.5C386.19,265,392.59,270.34,398,275.64Zm-10.31-38.17,0,0a1.74,1.74,0,0,1,.18.27A1.22,1.22,0,0,1,387.71,237.47Z" style="fill:#faae26"/></clipPath><clipPath id="j"><path d="M392.41,221.74a43,43,0,0,1,4.42,9.15A32.7,32.7,0,0,1,399.2,241a19.25,19.25,0,0,1-.37,4.28c-.31,1.58-.93,3.09-1.19,4.68a19.76,19.76,0,0,0,0,4.14c.08,1.71.29,3.41.44,5.12a50.76,50.76,0,0,1,.16,5.23,14.85,14.85,0,0,1-.47,4c-.53,1.77.75,3.28.77,5.06a11.58,11.58,0,0,1-.65,3.64c-1.21,3.82-4.15-1.94-13.45-1.95-6.59,0-5.09-5-8.33-4.86l9.45-8.46Z" style="fill:#faae26"/></clipPath><clipPath id="k"><path d="M452.42,322.19s.38,4.8.51,6,1.3,2.46,1.3,4.67-12.59,4.28-12.59,4.28h-8.56l2.07-5.32s6.62-2.72,7.66-3.89,1.77-6.75,1.77-6.75Z" style="fill:#d08b73"/></clipPath><clipPath id="l"><path d="M454.88,232s3.51,7.79,3.12,10.78-2.86,7.78-3.12,13.37-2.72,15.05-2.72,16.74.38,10.25.38,10.25,3.7,4.8,4.29,13.95,1.2,26.09,1.2,26.09a33.37,33.37,0,0,1-5.87,1.17c-1.76,0-8.57-1.95-8.57-1.95s.58-16.55,0-19.08-2.34-8.37-2.53-10.12-2.73-3.31-2.73-5.26-1.94-15.77-2.92-16.54-4.06-16.75-3.88-18.3.61,1-.09-3.7,0-7,0-7l.22-2.25s6.48-10,8.94-10.21S454.88,232,454.88,232Z" style="fill:#434e84"/></clipPath><clipPath id="m"><path d="M449.15,178c-.77-.87-1.49-1.72-2.17-2.54a6.23,6.23,0,0,1-1.2-1.9,5.41,5.41,0,0,1-.31-1.58,4.2,4.2,0,0,1-.75-.85,4.31,4.31,0,0,1-.66-1.69c-.16-.73-.75-1.75-2.66-3,0-.3.4-3.23-1.37-4.74a4,4,0,0,0-1.59-.8c-2.86-.73-3.78,2.27-1.72,4.29a5.83,5.83,0,0,1,.71,7.49c-.77,1.22-1.21,2.15-1.56,2.55a6.93,6.93,0,0,1-.68.69,22.43,22.43,0,0,1-3.77,1.66c1.83-.75,4.07,1.14,5,3.14s-.07,3.79.66,4.42S440.84,184.89,449.15,178Z" style="fill:#d08b73"/></clipPath><clipPath id="n"><path d="M455.66,194.67l5.65,18.3s1.75,2.82,1.16,4.19-5.45,7.3-5.45,7.3S445,237.18,444,238s-1,4.81-1.23,5.65-3.25,3.18-4.16,3.5-4.67-4.28-4.73-4.86.51-2.27.32-2.79-2.27.45-2.6-.52a2.31,2.31,0,0,1,1.69-2.47c.78,0,4.93.26,5.58-.26s13.11-20.5,12.72-22.06-2.33-2.53-3.11-4.28-5.07-14-5.07-14Z" style="fill:#d08b73"/></clipPath><clipPath id="o"><path d="M84.19,215.4a16,16,0,0,0-1.65,3.35q-.89,2.15-1.62,4.35a70.53,70.53,0,0,0-2.44,9c-1.28,6.58-1.54,13.29-2,20-.19,3.15-.42,6.29-.64,9.44a14.94,14.94,0,0,0,1,7.1c.32.73,1,1.89,1.92,1.57a3.46,3.46,0,0,0,1.24-1,17.91,17.91,0,0,1,2.59-2.56c2.25-1.62,5.2-2.32,7.84-3,3.06-.83,6.19-1.27,9.27-2a18,18,0,0,0,1.93-.59c.54-5.09,1.06-10.18,1.73-15.25a37.57,37.57,0,0,0-1-15.6,29.28,29.28,0,0,0-3.32-7.37c-1.51-2.38-3.62-4.52-5.36-6.76l-8.34-1.8Z" style="fill:#12a189"/></clipPath><clipPath id="p"><path d="M92.17,250.44A21.77,21.77,0,0,0,94,256.5a7.7,7.7,0,0,0,1.7,2.55,15.76,15.76,0,0,0,4.54,2.69c5.53,2.47,3.56,1.75,7.12,2.94a168.51,168.51,0,0,0,17.77,4.57c2.55,2.69,4.62,3.26,5.42,3.42a17.94,17.94,0,0,0,2.84.35,18.11,18.11,0,0,1,2.44.1c1.22.21,2.29.91,3.49,1.22s2.36,0,2.54-1.32a1.83,1.83,0,0,0-.65-1.52,13.6,13.6,0,0,0-4.45-3c-2.9-1-6.15-2-9.78-3a112,112,0,0,0-15.17-8.8c-1.91-.88-5.79-2.47-8.45-6.47a20.67,20.67,0,0,1-1.42-2.46Z" style="fill:#d08b73"/></clipPath><clipPath id="q"><path d="M96.21,217.05a6.3,6.3,0,0,1,1.64-2.32,8.48,8.48,0,0,1,3.27-1.41c.75-.23,1.46-.46,1.51-1.34,0-.08,1-5.84,1.09-5.92.29-.35,1-.29,1.35-.43,2.18-.77-.69-3.89-1.21-4.71s-.11-1.16-.12-2a4.22,4.22,0,0,0-.44-1.37A5,5,0,0,1,103,196a10.24,10.24,0,0,0-.11-1.1c-.63.33-.42-.08-1.1-.07s-1,.72-1.2,1.36A6.49,6.49,0,0,1,99.07,199a4.39,4.39,0,0,0-1.6,2.33c-.07.35.23,4.08-1.14,3.16-.68-.45-.62-2-.74-2.68a3.56,3.56,0,0,0-1.28-2c-.82-.8-1-2.33-2.5-1.92-2,.54-1,2.94-.71,4.23a5.15,5.15,0,0,0,1.17,2.47,1.5,1.5,0,0,0,1.66.09.91.91,0,0,0-.1.16c-.39.73.06,1.43.08,2.06,0,1-1.13,1.87-1.67,2.26a5,5,0,0,1-3.45.85,4.67,4.67,0,0,1-1.45,1.31,4.52,4.52,0,0,1-2.16.61Z" style="fill:#d08b73"/></clipPath><clipPath id="r"><path d="M191.61,257.57s-8.32,3.88-11.37,8.17-4.15,3.88-5.54,5.69a4.57,4.57,0,0,0-.69,5.4c1,2.22,1.52,40.75,1.52,40.75v5.26a18.37,18.37,0,0,1,4.75-.83c1.52.14,5.65.83,7.17,1.11s1-4.71,1-4.71l1.25-4s1.11-26.19,1.94-28.41,7.76-6.1,7.76-6.1,0-1.11,7.48,0,14.69-2.49,16.36-.55,1.94,11.64,1.94,16.9.55,8.87,0,11.92,1.1,11.09,1.38,12.2a8.89,8.89,0,0,1,.19,2.4,7.89,7.89,0,0,1,4.25-1c2.77,0,7.48-.27,7.48-.27s-1.94-6.38,0-10.54,2.77-19.68,2.77-24.11,1.94-13,0-16.35-20.51-12.89-20.51-12.89Z" style="fill:#434e84"/></clipPath><clipPath id="s"><path d="M199.51,208.72c-8.25,3.33-18.27,5.71-20.71,15.3-.6,2.35-.91,4.77-1.54,7.12-.44,1.61-2.13,4.2-1.34,5.87,1.08,2.25,6.69,2.93,8.83,3.1l14.76,24,19.12-4.57,11.09-21.07,3.46-1s2.08.21,2.08-.9c0-2.7-1.19-5.76-1.8-8.37-.89-3.82-1.26-8.69-3-12.19-2-4-7.16-4.19-11.07-5.14-2.93-.71-5.87-1.41-8.82-2.08Z" style="fill:#4485f4"/></clipPath><clipPath id="t"><path d="M198.12,209.06c-.21.05,0,5.26,0,5.72a4.18,4.18,0,0,0,.27,2.11,5.92,5.92,0,0,0,4.49,3.25,9.81,9.81,0,0,0,10.77-4.84v-10Z" style="fill:#d08b73"/></clipPath><clipPath id="u"><path d="M222.79,239.69s2-3.08,4.52-3.29a50.19,50.19,0,0,1,6.86.22l-2.65,16.58s.83,1.87.21,2.81-3.74,2.08-3.74,2.08L211,268h-1.45l-.83-2-2.29-.42L204.7,268h-2.07v-6l3.22-2,2.39,1.56s11.22-6.95,12.68-8.88l1.45-1.93Z" style="fill:#d08b73"/></clipPath><clipPath id="v"><path d="M189.74,239.38l.41,11.12,12.48,11.43v6h2.07l1.77-2.39,2.29.42.83,2s2.6.63,2.81,1.35-1.46,6-2.29,6.24-6.65-.52-6.65-.52l-5.1-3.43s.21-6.24,0-7.17-14.44-6.76-15.8-8.42c-.56-.7-.84-2-1.55-4.57a107.7,107.7,0,0,1-3.09-14c1.1-.28,3,0,4.44-.05C185.69,237.26,188,238.72,189.74,239.38Z" style="fill:#bc6c56"/></clipPath></defs><title>teacher-login-page</title><g style="isolation:isolate"><path d="M440.56,337.78c11.22-12.39,23.26-30.13,21.41-50.16s-17.79-25.33-22.57-46.69c-7.39-33.06,13.08-47.39,14.67-77.42C456.92,109.6,396.77,46.11,339,39.4c-34.9-4-39.8,16-83.49,13.54-53.81-3-63.36-34.36-101.55-30.46-43.57,4.44-89.06,51.15-89.13,93.64-.07,43.82,48.19,63.44,38.36,97-6.5,22.2-31.44,21-45.13,47.39-13,25,7.76,63.53,18.63,77.24Z" style="fill:#a5def6;opacity:0.47000000000000003"/><circle cx="70.15" cy="44.35" r="16.71" style="fill:#a5def6;opacity:0.47000000000000003"/><circle cx="76.68" cy="202.56" r="16.71" style="fill:#a5def6;opacity:0.47000000000000003"/><circle cx="109.64" cy="71.88" r="9.15" transform="translate(-18.71 98.58) rotate(-45)" style="fill:#a5def6;opacity:0.47000000000000003"/><path d="M448.76,226a9.78,9.78,0,1,1,9.78,9.77A9.77,9.77,0,0,1,448.76,226Z" style="fill:#a5def6;opacity:0.47000000000000003"/><circle cx="455.61" cy="204.12" r="6.85" transform="translate(-10.89 381.95) rotate(-45)" style="fill:#a5def6;opacity:0.47000000000000003"/><circle cx="60.46" cy="81.03" r="7.01" transform="translate(-39.59 66.48) rotate(-45)" style="fill:#a5def6;opacity:0.47000000000000003"/><circle cx="248.99" cy="39.21" r="7.01" transform="translate(45.2 187.55) rotate(-45)" style="fill:#a5def6;opacity:0.47000000000000003"/><circle cx="395.8" cy="46.22" r="7.01" transform="translate(286.77 429.51) rotate(-80.78)" style="fill:#a5def6;opacity:0.47000000000000003"/><g style="opacity:0.30000000000000004"><path d="M222.21,326.05a8.19,8.19,0,0,0,0-3.45,9.6,9.6,0,0,0-1.29-3.06,10.55,10.55,0,0,0-2.15-2.43,10.16,10.16,0,0,0-1.38-1,13.94,13.94,0,0,0-1.37-.73,20.43,20.43,0,0,0-5.21-1.45l-2.14-.33-2.16-.29a125.4,125.4,0,0,0-19.74-.94c-12.2.38-28.39,2.69-28.41,5.4s15.83,5.47,28.39,6a118.14,118.14,0,0,0,19.58-.74c1.42-.17,2.9-.38,4.12-.58a16.35,16.35,0,0,1,3.27-.28,5.85,5.85,0,0,1,1.4.22,4.54,4.54,0,0,1,1.29.63,3.81,3.81,0,0,1,1.66,2.42Z" style="fill:#4385f4"/><path d="M220.09,325.42a6.14,6.14,0,0,0-.58-2.66,7.13,7.13,0,0,0-1.43-2,7.47,7.47,0,0,0-1.9-1.37,8.76,8.76,0,0,0-2.05-.75,16.9,16.9,0,0,0-3.9-.42l-3.62,0-14.45-.09L163.27,318" style="fill:none;stroke:#0254a9;stroke-linecap:round;stroke-linejoin:round;stroke-width:0.773876px"/><line x1="175.96" y1="318.03" x2="172.99" y2="320.74" style="fill:none;stroke:#0254a9;stroke-linecap:round;stroke-linejoin:round;stroke-width:0.773876px"/><line x1="179.37" y1="318.05" x2="177.09" y2="314.44" style="fill:none;stroke:#0254a9;stroke-linecap:round;stroke-linejoin:round;stroke-width:0.773876px"/><line x1="186.8" y1="318.09" x2="184.64" y2="321.29" style="fill:none;stroke:#0254a9;stroke-linecap:round;stroke-linejoin:round;stroke-width:0.773876px"/><line x1="192.16" y1="318.12" x2="188.99" y2="314.33" style="fill:none;stroke:#0254a9;stroke-linecap:round;stroke-linejoin:round;stroke-width:0.773876px"/><line x1="198.14" y1="318.16" x2="194.99" y2="322.09" style="fill:none;stroke:#0254a9;stroke-linecap:round;stroke-linejoin:round;stroke-width:0.773876px"/><line x1="207.83" y1="318.21" x2="205.19" y2="315.57" style="fill:none;stroke:#0254a9;stroke-linecap:round;stroke-linejoin:round;stroke-width:0.773876px"/><path d="M251.16,338.5c-.47-2.13-5-7.64-6.19-9.66a27.28,27.28,0,0,0-4.57-5.57,51.66,51.66,0,0,0-9.64-6.94c-2.76-1.61-5.66-3.28-8.71-4.9s-6.26-3.27-9.64-4.79q-2.53-1.17-5.16-2.33c-1.76-.75-3.56-1.48-5.39-2.22s-3.7-1.45-5.61-2.12-3.85-1.37-5.83-2a207,207,0,0,0-25.38-6.5,213.61,213.61,0,0,0-46.9-3.41c-14,.67-24.09,3.12-24.35,6.39s9,7.25,21.75,11.51,29,9,43.45,12.91c16.55,4.44,31.85,7.81,45.65,10.43,3.45.64,6.78,1.3,10,1.83s6.41,1.12,9.38,1.58a40.81,40.81,0,0,1,7.87,1.8,14.46,14.46,0,0,1,3.32,1.7,10.27,10.27,0,0,1,2.62,2.68Z" style="fill:#4385f4"/><path d="M242.31,336.37a16.28,16.28,0,0,0-1.41-2.6c-.27-.41-.58-.8-.87-1.19s-.66-.77-1-1.14a22.11,22.11,0,0,0-4.37-3.46,47.92,47.92,0,0,0-8.77-4q-8.37-3.09-16.81-5.89-16.89-5.58-34.07-9.92a492.08,492.08,0,0,0-69.29-12.33" style="fill:none;stroke:#0254a9;stroke-linecap:round;stroke-linejoin:round;stroke-width:1.89575px"/><path d="M136.27,300c-2.73,1.81-5.44,3.65-8.12,5.48" style="fill:none;stroke:#0254a9;stroke-linecap:round;stroke-linejoin:round;stroke-width:1.89575px"/><path d="M144.47,301.48q-2-4.82-4-9.65" style="fill:none;stroke:#0254a9;stroke-linecap:round;stroke-linejoin:round;stroke-width:1.89575px"/><path d="M162.25,305.14c-2.28,2.15-4.55,4.38-6.79,6.58" style="fill:none;stroke:#0254a9;stroke-linecap:round;stroke-linejoin:round;stroke-width:1.89575px"/><path d="M175,308.19c-1.78-3.61-3.59-7.26-5.48-10.84" style="fill:none;stroke:#0254a9;stroke-linecap:round;stroke-linejoin:round;stroke-width:1.89575px"/><path d="M189.17,312c-3.34,2.38-6.65,4.82-9.92,7.29" style="fill:none;stroke:#0254a9;stroke-linecap:round;stroke-linejoin:round;stroke-width:1.89575px"/><path d="M211.93,319.06c-1.38-2.74-2.81-5.43-4.25-8.16" style="fill:none;stroke:#0254a9;stroke-linecap:round;stroke-linejoin:round;stroke-width:1.89575px"/><path d="M320.31,335.72c8.39-3.43,18.55-7.6,30.08-12.44s24.47-10.26,38.66-16.54c11.91-5.29,26-11.27,37.41-16.21s19.89-9.08,19.41-12.11-9.91-4.56-22.95-3.93c-1.63.09-3.32.18-5,.32s-3.48.37-5.28.58c-3.6.39-7.29,1.08-11,1.77-1.88.32-3.73.79-5.6,1.21s-3.74.87-5.58,1.38-3.65,1.06-5.45,1.6l-2.68.82-2.6.92q-3,1.05-5.83,2.14c-1.9.78-3.75,1.57-5.58,2.38l-2.71,1.21c-.89.42-1.77.86-2.64,1.29-1.74.88-3.44,1.75-5.11,2.63s-3.27,1.86-4.85,2.79-3.14,1.84-4.62,2.84-2.95,2-4.36,2.95l-2.11,1.46-2,1.52a142.62,142.62,0,0,0-24.53,23.5Z" style="fill:#4385f4"/><path d="M318.14,331.38a291.77,291.77,0,0,1,55.09-31.77,295.65,295.65,0,0,1,61.58-19.47" style="fill:none;stroke:#0254a9;stroke-linecap:round;stroke-linejoin:round;stroke-width:1.72113px"/><path d="M407.14,287.08c1.53-2.57,3.08-5.2,4.71-7.7" style="fill:none;stroke:#0254a9;stroke-linecap:round;stroke-linejoin:round;stroke-width:1.72113px"/><polyline points="399.85 289.38 403.51 292.36 407.13 295.43" style="fill:none;stroke:#0254a9;stroke-linecap:round;stroke-linejoin:round;stroke-width:1.72113px"/><polyline points="384.24 295.01 385.18 290.79 386.19 286.61" style="fill:none;stroke:#0254a9;stroke-linecap:round;stroke-linejoin:round;stroke-width:1.72113px"/><path d="M373.23,299.61c3.3,1.62,6.51,3.21,9.71,5" style="fill:none;stroke:#0254a9;stroke-linecap:round;stroke-linejoin:round;stroke-width:1.72113px"/><path d="M361.21,305.21c.77-3.66,1.63-7.27,2.54-10.94" style="fill:none;stroke:#0254a9;stroke-linecap:round;stroke-linejoin:round;stroke-width:1.72113px"/><path d="M342.39,315.42c2.68.7,5.28,1.35,7.92,2.15" style="fill:none;stroke:#0254a9;stroke-linecap:round;stroke-linejoin:round;stroke-width:1.72113px"/><path d="M253.84,258.09c-7.32-12.88-20.25-35.35-33.05-52a308,308,0,0,0-49.36-51.26c-2.11-1.77-4.39-3.47-6.66-5.22s-4.58-3.5-7-5.19-4.83-3.37-7.28-5l-3.67-2.46-3.76-2.35q-3.76-2.32-7.49-4.53c-2.49-1.47-5-2.8-7.51-4.14s-4.9-2.61-7.34-3.77-4.83-2.23-7.15-3.25l-3.42-1.48-1.67-.69-1.67-.63c-2.21-.81-4.34-1.55-6.35-2.22s-3.94-1.24-5.73-1.74-3.55-.8-5.13-1.07c-6.31-1.09-10.45-.76-11.59,1.34s.7,5.83,4.54,10.56c1,1.2,2.08,2.39,3.24,3.76s2.44,2.76,3.82,4.22,2.86,3,4.42,4.49,3.13,3.25,4.82,4.92,3.44,3.36,5.23,5.11,3.6,3.61,5.48,5.44c3.81,3.59,7.61,7.52,11.61,11.31l1.49,1.43,1.48,1.47,3,2.93c2,2,4,3.84,6,5.8s4,3.89,6,5.79l3,2.81,2.9,2.82q3.33,3.19,6.65,6.23t6.55,6.1l3.27,2.94,3.23,2.94c2.14,1.93,4.29,3.82,6.42,5.66,4.23,3.76,8.45,7.32,12.58,10.77s8.23,6.72,12.2,9.91A503.19,503.19,0,0,0,239,260.51Z" style="fill:#4385f4"/><path d="M248.83,257.14c-23.24-24.71-51.43-51.28-76.33-74.34-12.44-11.53-25.25-22.62-38.53-33a413.5,413.5,0,0,0-41.33-28.54" style="fill:none;stroke:#0254a9;stroke-linecap:round;stroke-linejoin:round;stroke-width:2.72589px"/><path d="M129.07,146.08c-4.69.5-9.27.95-13.92,1.64" style="fill:none;stroke:#0254a9;stroke-linecap:round;stroke-linejoin:round;stroke-width:2.72589px"/><path d="M138.5,153.42l.76-7.51c.24-2.5.42-5,.61-7.49" style="fill:none;stroke:#0254a9;stroke-linecap:round;stroke-linejoin:round;stroke-width:2.72589px"/><polyline points="158.49 170.16 151.96 171.94 145.41 173.82" style="fill:none;stroke:#0254a9;stroke-linecap:round;stroke-linejoin:round;stroke-width:2.72589px"/><path d="M172.5,182.8c.24-5.78.49-11.66.56-17.47" style="fill:none;stroke:#0254a9;stroke-linecap:round;stroke-linejoin:round;stroke-width:2.72589px"/><path d="M187.79,197.31c-5.86.74-11.74,1.58-17.55,2.43" style="fill:none;stroke:#0254a9;stroke-linecap:round;stroke-linejoin:round;stroke-width:2.72589px"/><path d="M211.92,221.55c0-4.38.07-8.79,0-13.19" style="fill:none;stroke:#0254a9;stroke-linecap:round;stroke-linejoin:round;stroke-width:2.72589px"/><path d="M298.05,254.49a389.69,389.69,0,0,0-11.28-63.31,386.74,386.74,0,0,0-12.12-37.81c-2.49-6.55-5.17-13.15-8.2-19.94-1.48-3.38-3.13-6.81-4.77-10.24s-3.45-6.89-5.31-10.36A256.49,256.49,0,0,0,233.64,77.6a173.4,173.4,0,0,0-28.11-29.11c-2.33-2-4.79-3.67-7.1-5.28-1.16-.81-2.29-1.58-3.41-2.32s-2.29-1.36-3.4-2-2.18-1.23-3.22-1.8l-1.55-.83c-.52-.25-1-.48-1.55-.71q-3.08-1.38-5.72-2.34a28.56,28.56,0,0,0-4.93-1.36,21.52,21.52,0,0,0-4-.46c-2.31,0-3.91.52-4.72,1.68s-.84,2.85-.26,5A22.36,22.36,0,0,0,167,41.57c.29.63.62,1.28,1,2s.7,1.44,1.09,2.2c.79,1.5,1.69,3.09,2.71,4.75s2,3.55,3.13,5.42,2.26,3.91,3.5,6c.6,1,1.26,2.07,1.88,3.17l1.87,3.37c5.15,9.07,10.65,19.63,16,30.9s10.55,23.24,15.58,34.66c1.45,3.29,2.9,6.54,4.32,9.75s2.91,6.44,4.34,9.6c2.91,6.34,5.86,12.57,8.8,18.57,5.9,12,11.81,23.27,17.62,33.75,11.62,21,22.78,38.86,32.3,53.32Z" style="fill:#4385f4"/><path d="M289.08,255.92q-19.62-57.18-44.3-112c-8.2-18.26-17.1-36.2-27.44-53a255.4,255.4,0,0,0-16.87-24.09l-2.3-2.83L197,62.5c-.38-.46-.8-.91-1.19-1.36L191,55.72l-5-5.16c-.82-.88-1.72-1.67-2.59-2.49l-2.62-2.43" style="fill:none;stroke:#0254a9;stroke-linecap:round;stroke-linejoin:round;stroke-width:3.21694px"/><path d="M213.46,84.76c-2.65-.67-5.4-1.23-8.06-1.79s-5.31-1.08-8-1.51" style="fill:none;stroke:#0254a9;stroke-linecap:round;stroke-linejoin:round;stroke-width:3.21694px"/><path d="M220.84,96.68c2.66-5.24,5.29-10.61,7.66-16.07" style="fill:none;stroke:#0254a9;stroke-linecap:round;stroke-linejoin:round;stroke-width:3.21694px"/><path d="M235.33,123.73c-5.31-.7-10.64-1.31-15.91-1.86" style="fill:none;stroke:#0254a9;stroke-linecap:round;stroke-linejoin:round;stroke-width:3.21694px"/><path d="M244.78,143.89c3-6.18,5.8-12.42,8.61-18.76" style="fill:none;stroke:#0254a9;stroke-linecap:round;stroke-linejoin:round;stroke-width:3.21694px"/><path d="M254.78,166.67q-10.11-2.78-20.22-5.37" style="fill:none;stroke:#0254a9;stroke-linecap:round;stroke-linejoin:round;stroke-width:3.21694px"/><path d="M270.05,204q3.07-7.14,6-14.36" style="fill:none;stroke:#0254a9;stroke-linecap:round;stroke-linejoin:round;stroke-width:3.21694px"/><path d="M276.66,337.23c-6.62-8.47-23.84-28.48-34.22-39.36a363.2,363.2,0,0,0-37.34-34.15c-24.53-19.43-59.94-42.27-64.55-37s21.61,37.35,45.47,59.48a272.86,272.86,0,0,0,40.18,30.89c12.77,8,24.3,16.55,34.1,20.88Z" style="fill:#4385f4"/><path d="M269.17,335.72C230.35,305.12,187.3,268,149.94,235.36" style="fill:none;stroke:#0254a9;stroke-linecap:round;stroke-linejoin:round;stroke-width:1.9924700000000002px"/><line x1="174.59" y1="256.81" x2="164.24" y2="257.14" style="fill:none;stroke:#0254a9;stroke-linecap:round;stroke-linejoin:round;stroke-width:1.9924700000000002px"/><line x1="181.24" y1="262.56" x2="182.8" y2="251.69" style="fill:none;stroke:#0254a9;stroke-linecap:round;stroke-linejoin:round;stroke-width:1.9924700000000002px"/><line x1="195.75" y1="275.04" x2="186.16" y2="277.73" style="fill:none;stroke:#0254a9;stroke-linecap:round;stroke-linejoin:round;stroke-width:1.9924700000000002px"/><line x1="206.26" y1="283.99" x2="206.3" y2="271.28" style="fill:none;stroke:#0254a9;stroke-linecap:round;stroke-linejoin:round;stroke-width:1.9924700000000002px"/><line x1="218.02" y1="293.91" x2="205.31" y2="296.49" style="fill:none;stroke:#0254a9;stroke-linecap:round;stroke-linejoin:round;stroke-width:1.9924700000000002px"/><line x1="237.21" y1="309.81" x2="236.23" y2="300.27" style="fill:none;stroke:#0254a9;stroke-linecap:round;stroke-linejoin:round;stroke-width:1.9924700000000002px"/><path d="M290.22,339.2c8.15-9.8,17.94-21.8,28.74-35.74s22.74-29.78,35.23-47.73c10.48-15.07,22.79-32.79,32.34-47.31s16.09-26,13.18-29.09-14.94,2.47-29.58,13.06c-1.82,1.32-3.7,2.7-5.6,4.16s-3.78,3-5.7,4.63c-3.89,3.16-7.71,6.68-11.57,10.25-1.94,1.77-3.78,3.67-5.66,5.54s-3.74,3.76-5.53,5.69-3.54,3.89-5.27,5.83l-2.55,2.91-2.43,2.94q-2.74,3.38-5.35,6.72c-1.69,2.26-3.34,4.53-4.93,6.78-.8,1.12-1.58,2.25-2.37,3.36s-1.49,2.27-2.23,3.4q-2.19,3.39-4.24,6.72c-1.36,2.24-2.62,4.5-3.87,6.71s-2.47,4.4-3.57,6.62-2.19,4.38-3.22,6.54c-.52,1.08-1,2.14-1.53,3.21s-.94,2.14-1.4,3.21c-7.41,17-12.83,37.82-15.38,50.47Z" style="fill:#4385f4"/><path d="M282.83,338.08a572.32,572.32,0,0,1,47.26-79.41,533.19,533.19,0,0,1,58.18-68.77" style="fill:none;stroke:#0254a9;stroke-linecap:round;stroke-linejoin:round;stroke-width:2.40279px"/><path d="M361.23,219c-.14-4.16-.27-8.4-.27-12.57" style="fill:none;stroke:#0254a9;stroke-linecap:round;stroke-linejoin:round;stroke-width:2.40279px"/><polyline points="354.33 227.13 360.88 227.93 367.44 228.85" style="fill:none;stroke:#0254a9;stroke-linecap:round;stroke-linejoin:round;stroke-width:2.40279px"/><polyline points="339.94 245.25 338 239.54 336.13 233.83" style="fill:none;stroke:#0254a9;stroke-linecap:round;stroke-linejoin:round;stroke-width:2.40279px"/><path d="M330.09,258.67c5.1-.41,10.12-.81,15.21-1.05" style="fill:none;stroke:#0254a9;stroke-linecap:round;stroke-linejoin:round;stroke-width:2.40279px"/><path d="M319.59,273.94c-1.64-5-3.16-9.91-4.68-15" style="fill:none;stroke:#0254a9;stroke-linecap:round;stroke-linejoin:round;stroke-width:2.40279px"/><path d="M303.82,299.38c3.74-1,7.38-2,11.13-2.83" style="fill:none;stroke:#0254a9;stroke-linecap:round;stroke-linejoin:round;stroke-width:2.40279px"/></g><path d="M426.82,269.08l-.29.14c-3,1.43-4.57,1.19-7.48-.15a30.62,30.62,0,0,1-7.5-4.67,15.65,15.65,0,0,1-5.45-9.57,3.39,3.39,0,0,1,.4-2.43,2.73,2.73,0,0,1,3.16-.65,9.42,9.42,0,0,1,2.78,2,3.25,3.25,0,0,0,1.23.79,1.17,1.17,0,0,0,1.3-.44c.38-.68-.28-1.47-.88-2-1.4-1.16-2.71-1.83-4.17-2.86a13.83,13.83,0,0,1-4.55-4.89,7.21,7.21,0,0,1-.19-6.49,3.94,3.94,0,0,1,1.34-1.52,4.72,4.72,0,0,1,3.53-.36,36.13,36.13,0,0,0,3.53.83c2.86.29,4-1.71,3.92-4.34,0-1.76-.61-3.47-.71-5.22a8,8,0,0,1,4.15-7.72c2.8-1.32,6.72-.05,7.72,2.88,1.09,3.19-1.4,6.76.25,9.81a9.25,9.25,0,0,0,2.69,2.94c1.57,1,3.82-.17,5.64-.08a1.63,1.63,0,0,1,1.13.36,1.6,1.6,0,0,1,.35.81,6.74,6.74,0,0,1-2,6.15c-1.88,1.72-5.15,2.59-5.95,5.28-.5,1.66-.29,5.82,2.37,5.4,1-.16,1.66-1.14,2.62-1.46a2.65,2.65,0,0,1,3.06,1.51,4.65,4.65,0,0,1-.09,3.64,15.13,15.13,0,0,1-3.49,4.72C432.38,264.47,430.53,267.25,426.82,269.08Z" style="fill:#ee5f43"/><line x1="422.87" y1="230.3" x2="422.87" y2="338.73" style="fill:none;stroke:#363a69;stroke-linecap:round;stroke-miterlimit:10;stroke-width:1.2212100000000001px"/><polyline points="430.39 241.53 422.87 249.05 415.35 241.53" style="fill:none;stroke:#363a69;stroke-linecap:round;stroke-miterlimit:10;stroke-width:1.2212100000000001px"/><polyline points="430.39 256.63 422.87 264.15 415.35 256.63" style="fill:none;stroke:#363a69;stroke-linecap:round;stroke-miterlimit:10;stroke-width:1.2212100000000001px"/><path d="M438.56,314.86l-.26.13c-2.68,1.28-4.1,1.06-6.71-.14a27.35,27.35,0,0,1-6.72-4.19,14,14,0,0,1-4.88-8.57,3,3,0,0,1,.35-2.18,2.46,2.46,0,0,1,2.83-.59,8.72,8.72,0,0,1,2.5,1.82,2.78,2.78,0,0,0,1.1.71,1,1,0,0,0,1.16-.39c.35-.61-.24-1.31-.78-1.76-1.26-1.05-2.43-1.65-3.74-2.57a12.31,12.31,0,0,1-4.08-4.38,6.49,6.49,0,0,1-.17-5.82,3.61,3.61,0,0,1,1.2-1.37,4.25,4.25,0,0,1,3.16-.32,32.37,32.37,0,0,0,3.17.75c2.56.26,3.56-1.54,3.51-3.89,0-1.58-.54-3.11-.63-4.68a7.21,7.21,0,0,1,3.72-6.92c2.51-1.18,6-.05,6.92,2.58,1,2.86-1.26,6.06.22,8.79a8.28,8.28,0,0,0,2.42,2.64c1.4.87,3.42-.15,5-.07a1.43,1.43,0,0,1,1,.32,1.47,1.47,0,0,1,.32.73A6.07,6.07,0,0,1,447.4,291c-1.69,1.54-4.62,2.32-5.34,4.73-.45,1.49-.25,5.22,2.13,4.84.89-.14,1.49-1,2.34-1.31a2.37,2.37,0,0,1,2.75,1.36,4.2,4.2,0,0,1-.08,3.26,13.73,13.73,0,0,1-3.13,4.23C443.54,310.72,441.89,313.22,438.56,314.86Z" style="fill:#3ca3a4"/><line x1="435.02" y1="280.1" x2="435.02" y2="338.05" style="fill:none;stroke:#363a69;stroke-linecap:round;stroke-miterlimit:10;stroke-width:1.2212100000000001px"/><polyline points="441.76 290.17 435.02 296.91 428.28 290.17" style="fill:none;stroke:#363a69;stroke-linecap:round;stroke-miterlimit:10;stroke-width:1.2212100000000001px"/><polyline points="441.76 303.7 435.02 310.44 428.28 303.7" style="fill:none;stroke:#363a69;stroke-linecap:round;stroke-miterlimit:10;stroke-width:1.2212100000000001px"/><path d="M51.87,326.66l-.34.17c-3.56,1.7-5.45,1.41-8.92-.19a35.91,35.91,0,0,1-8.94-5.56,18.73,18.73,0,0,1-6.5-11.4,4.07,4.07,0,0,1,.48-2.9,3.25,3.25,0,0,1,3.76-.78,11.38,11.38,0,0,1,3.32,2.42,3.78,3.78,0,0,0,1.47.94,1.37,1.37,0,0,0,1.54-.52c.46-.81-.33-1.75-1.05-2.35-1.66-1.38-3.22-2.18-5-3.41a16.44,16.44,0,0,1-5.42-5.83,8.6,8.6,0,0,1-.22-7.73,4.82,4.82,0,0,1,1.59-1.82,5.71,5.71,0,0,1,4.21-.43,38.92,38.92,0,0,0,4.21,1c3.4.36,4.74-2,4.67-5.16,0-2.1-.72-4.14-.84-6.23-.22-3.69,1.6-7.62,4.94-9.19s8-.07,9.2,3.43c1.3,3.79-1.66,8.06.3,11.69a11.13,11.13,0,0,0,3.21,3.51c1.87,1.15,4.55-.21,6.72-.11a2,2,0,0,1,1.34.44,1.75,1.75,0,0,1,.42,1,8,8,0,0,1-2.43,7.32c-2.24,2-6.14,3.09-7.09,6.29-.6,2-.34,6.94,2.82,6.44,1.19-.19,2-1.36,3.12-1.75a3.18,3.18,0,0,1,3.66,1.81,5.53,5.53,0,0,1-.11,4.33,18,18,0,0,1-4.16,5.63C58.5,321.16,56.3,324.48,51.87,326.66Z" style="fill:#f8ad26"/><line x1="47.16" y1="280.44" x2="47.16" y2="338.86" style="fill:none;stroke:#363a69;stroke-linecap:round;stroke-miterlimit:10;stroke-width:1.54068px"/><polyline points="56.12 293.83 47.16 302.79 38.2 293.83" style="fill:none;stroke:#363a69;stroke-linecap:round;stroke-miterlimit:10;stroke-width:1.54068px"/><polyline points="56.12 311.82 47.16 320.78 38.2 311.82" style="fill:none;stroke:#363a69;stroke-linecap:round;stroke-miterlimit:10;stroke-width:1.54068px"/><path d="M486.7,300.07a34.1,34.1,0,0,0-7.53-3.86,66.48,66.48,0,0,0-10.93-2.9c-7-1.31-17.24-2-17.23-3.53,0-.71,2.46-1.51,6-2.09a45.49,45.49,0,0,1,12.33-.36,28.94,28.94,0,0,1,12.23,4.27,20.88,20.88,0,0,1,6.7,6.86Z" style="fill:#3ca3a4"/><path d="M487.4,299.15c-3.89-4.22-9.49-6.87-15.3-8.19s-12-1.42-18-1.31" style="fill:none;stroke:#148b7a;stroke-linecap:round;stroke-linejoin:round;stroke-width:0.41078000000000003px"/><line x1="462.05" y1="289.7" x2="460.27" y2="288.19" style="fill:none;stroke:#148b7a;stroke-linecap:round;stroke-linejoin:round;stroke-width:0.41078000000000003px"/><path d="M464.19,289.83c-.54.6-1.07,1.2-1.59,1.81" style="fill:none;stroke:#148b7a;stroke-linecap:round;stroke-linejoin:round;stroke-width:0.41078000000000003px"/><path d="M468.81,290.34c-.34-.63-.7-1.26-1.07-1.88" style="fill:none;stroke:#148b7a;stroke-linecap:round;stroke-linejoin:round;stroke-width:0.41078000000000003px"/><path d="M472.1,291c-.81.5-1.59,1-2.35,1.56" style="fill:none;stroke:#148b7a;stroke-linecap:round;stroke-linejoin:round;stroke-width:0.41078000000000003px"/><path d="M475.67,292c-.38-.85-.79-1.72-1.25-2.56" style="fill:none;stroke:#148b7a;stroke-linecap:round;stroke-linejoin:round;stroke-width:0.41078000000000003px"/><path d="M481.13,294.31c-.71.16-1.39.31-2.07.51" style="fill:none;stroke:#148b7a;stroke-linecap:round;stroke-linejoin:round;stroke-width:0.41078000000000003px"/><path d="M490.67,300.82a30.89,30.89,0,0,1-5.17-4.57c-1.65-1.79-3.22-3.78-4.78-5.71a56.26,56.26,0,0,0-5-5.52,62.65,62.65,0,0,0-6.48-5.3,124.44,124.44,0,0,0-13.76-8.27c-4.36-2.32-7.64-4.15-7.34-5.17s4.08-1.09,9.25-.13a51.73,51.73,0,0,1,8.44,2.31,46,46,0,0,1,8.48,4.15,36.8,36.8,0,0,1,7.75,6.51,34,34,0,0,1,5,7.41c1.19,2.39,2.11,4.59,3,6.57a43,43,0,0,0,2.79,5.32Z" style="fill:#3ca3a4"/><path d="M491.62,299.44c-3.25-3.29-5.36-7.16-7.66-10.74-.58-.9-1.18-1.78-1.79-2.64s-1.32-1.66-2-2.5a43.19,43.19,0,0,0-4.59-4.48,54.38,54.38,0,0,0-11-6.94,85,85,0,0,0-12.21-4.7" style="fill:none;stroke:#148b7a;stroke-linecap:round;stroke-linejoin:round;stroke-width:0.590067px"/><path d="M463.2,271.47c-.5-1-1-2-1.6-3" style="fill:none;stroke:#148b7a;stroke-linecap:round;stroke-linejoin:round;stroke-width:0.590067px"/><path d="M466,272.81c-1.05.5-2.07,1-3.09,1.53" style="fill:none;stroke:#148b7a;stroke-linecap:round;stroke-linejoin:round;stroke-width:0.590067px"/><path d="M471.76,276.2c-.06-1-.15-2.07-.27-3.1" style="fill:none;stroke:#148b7a;stroke-linecap:round;stroke-linejoin:round;stroke-width:0.590067px"/><path d="M475.6,279.08c-1.34.09-2.71.31-4,.52" style="fill:none;stroke:#148b7a;stroke-linecap:round;stroke-linejoin:round;stroke-width:0.590067px"/><path d="M479.45,282.75a37.35,37.35,0,0,0,.18-4.11" style="fill:none;stroke:#148b7a;stroke-linecap:round;stroke-linejoin:round;stroke-width:0.590067px"/><path d="M484.54,289.62c-1-.32-2-.64-3-.9" style="fill:none;stroke:#148b7a;stroke-linecap:round;stroke-linejoin:round;stroke-width:0.590067px"/><path d="M488.64,298c-.86-5.24-2-12.74-2.66-21.82-.28-3.82-.58-8.29-.72-11.87s-.07-6.25.66-6.41,2,2.2,3.31,5.66a62.73,62.73,0,0,1,3,12.11A56.68,56.68,0,0,1,491,298Z" style="fill:#3ca3a4"/><path d="M489.83,297.87A147.23,147.23,0,0,0,486.69,261" style="fill:none;stroke:#148b7a;stroke-linecap:round;stroke-linejoin:round;stroke-width:0.42295499999999997px"/><line x1="488.18" y1="269.09" x2="489.35" y2="267" style="fill:none;stroke:#148b7a;stroke-linecap:round;stroke-linejoin:round;stroke-width:0.42295499999999997px"/><path d="M488.5,271.26c-.71-.41-1.43-.82-2.16-1.21" style="fill:none;stroke:#148b7a;stroke-linecap:round;stroke-linejoin:round;stroke-width:0.42295499999999997px"/><line x1="489.1" y1="276" x2="490.69" y2="274.47" style="fill:none;stroke:#148b7a;stroke-linecap:round;stroke-linejoin:round;stroke-width:0.42295499999999997px"/><path d="M489.43,279.43c-.75-.64-1.49-1.27-2.25-1.88" style="fill:none;stroke:#148b7a;stroke-linecap:round;stroke-linejoin:round;stroke-width:0.42295499999999997px"/><line x1="489.7" y1="283.25" x2="491.73" y2="281.14" style="fill:none;stroke:#148b7a;stroke-linecap:round;stroke-linejoin:round;stroke-width:0.42295499999999997px"/><line x1="489.93" y1="289.44" x2="488.46" y2="287.75" style="fill:none;stroke:#148b7a;stroke-linecap:round;stroke-linejoin:round;stroke-width:0.42295499999999997px"/><path d="M491.34,299.59a89.34,89.34,0,0,1,4.18-22.69c2.47-7.68,6.91-17.45,8.36-17s-.23,10.91-2.23,18.91a99.38,99.38,0,0,1-8,21.2Z" style="fill:#3ca3a4"/><path d="M492.57,299.69q4.81-18.44,10.41-36.62" style="fill:none;stroke:#148b7a;stroke-linecap:round;stroke-linejoin:round;stroke-width:0.4344px"/><line x1="500.56" y1="271.07" x2="502.58" y2="269.68" style="fill:none;stroke:#148b7a;stroke-linecap:round;stroke-linejoin:round;stroke-width:0.4344px"/><line x1="499.93" y1="273.22" x2="498.44" y2="271.15" style="fill:none;stroke:#148b7a;stroke-linecap:round;stroke-linejoin:round;stroke-width:0.4344px"/><line x1="498.55" y1="277.92" x2="500.67" y2="277.1" style="fill:none;stroke:#148b7a;stroke-linecap:round;stroke-linejoin:round;stroke-width:0.4344px"/><line x1="497.58" y1="281.31" x2="496.14" y2="278.66" style="fill:none;stroke:#148b7a;stroke-linecap:round;stroke-linejoin:round;stroke-width:0.4344px"/><line x1="496.51" y1="285.11" x2="499.19" y2="283.77" style="fill:none;stroke:#148b7a;stroke-linecap:round;stroke-linejoin:round;stroke-width:0.4344px"/><line x1="494.82" y1="291.26" x2="493.86" y2="289.15" style="fill:none;stroke:#148b7a;stroke-linecap:round;stroke-linejoin:round;stroke-width:0.4344px"/><path d="M486.43,303.49a25.33,25.33,0,0,1,7.54-8.26,42.6,42.6,0,0,1,12.41-6.29,46.71,46.71,0,0,1,6.53-1.5,51,51,0,0,1,6.26-.5,41,41,0,0,0,4.57-.35c1.18-.16,2-.3,2.21,0s-.22,1.13-1.31,2a15.73,15.73,0,0,1-4.7,2.45c-1.91.65-3.84,1.28-5.74,1.93s-4,1.43-5.83,2.16c-4.27,1.67-8.13,3.32-11.57,4.86a37.9,37.9,0,0,0-8.39,4.82Z" style="fill:#3ca3a4"/><path d="M487.54,304.08a28.07,28.07,0,0,1,7.71-6.36,64.32,64.32,0,0,1,8.7-4.37,65.48,65.48,0,0,1,9.17-3c1.56-.39,3.12-.7,4.7-1a34.23,34.23,0,0,0,4.87-1.09" style="fill:none;stroke:#148b7a;stroke-linecap:round;stroke-linejoin:round;stroke-width:0.442704px"/><path d="M514.26,290.08c.75.37,1.47.74,2.19,1.14" style="fill:none;stroke:#148b7a;stroke-linecap:round;stroke-linejoin:round;stroke-width:0.442704px"/><path d="M512.05,290.62c.34-.8.69-1.59,1.06-2.38" style="fill:none;stroke:#148b7a;stroke-linecap:round;stroke-linejoin:round;stroke-width:0.442704px"/><path d="M507.31,292.07c.64.43,1.27.87,1.89,1.31" style="fill:none;stroke:#148b7a;stroke-linecap:round;stroke-linejoin:round;stroke-width:0.442704px"/><path d="M504,293.35c.4-1,.83-1.88,1.29-2.83" style="fill:none;stroke:#148b7a;stroke-linecap:round;stroke-linejoin:round;stroke-width:0.442704px"/><path d="M500.28,295c.94.37,1.88.78,2.79,1.18" style="fill:none;stroke:#148b7a;stroke-linecap:round;stroke-linejoin:round;stroke-width:0.442704px"/><path d="M494.54,298.16c.26-.75.53-1.51.82-2.25" style="fill:none;stroke:#148b7a;stroke-linecap:round;stroke-linejoin:round;stroke-width:0.442704px"/><path d="M478.4,296h20.26a7.21,7.21,0,0,1,7.21,7.21v17.21a18.5,18.5,0,0,1-18.5,18.5h0a15.78,15.78,0,0,1-15.78-15.78V302.79A6.82,6.82,0,0,1,478.4,296Z" style="fill:#ee5e43"/><path d="M477.16,327.6V300.85A4.87,4.87,0,0,1,482,296h-5.57a4.88,4.88,0,0,0-4.88,4.88V327.6a11.3,11.3,0,0,0,11.29,11.29h5.57A11.29,11.29,0,0,1,477.16,327.6Z" style="fill:#c4422b"/><rect x="467.45" y="294.37" width="41.83" height="7.83" rx="3" style="fill:#ee5e43"/><rect x="287.16" y="122.68" width="123.2" height="88.61" rx="8.27" style="fill:#bec6c4"/><rect x="289.98" y="124.62" width="117.56" height="84.73" rx="8.27" style="fill:#fefefe"/><line x1="341.19" y1="187.23" x2="364.47" y2="187.23" style="fill:none;stroke:#baccc6;stroke-linecap:round;stroke-linejoin:round;stroke-width:1.42774px"/><line x1="341.19" y1="190.61" x2="364.47" y2="190.61" style="fill:none;stroke:#baccc6;stroke-linecap:round;stroke-linejoin:round;stroke-width:1.42774px"/><line x1="341.19" y1="193.99" x2="364.47" y2="193.99" style="fill:none;stroke:#baccc6;stroke-linecap:round;stroke-linejoin:round;stroke-width:1.42774px"/><line x1="341.19" y1="197.37" x2="364.47" y2="197.37" style="fill:none;stroke:#baccc6;stroke-linecap:round;stroke-linejoin:round;stroke-width:1.42774px"/><line x1="341.19" y1="200.75" x2="350.22" y2="200.75" style="fill:none;stroke:#baccc6;stroke-linecap:round;stroke-linejoin:round;stroke-width:1.42774px"/><line x1="321.73" y1="140.94" x2="354.97" y2="140.94" style="fill:none;stroke:#baccc6;stroke-linecap:round;stroke-linejoin:round;stroke-width:2.0383px"/><line x1="321.73" y1="145.76" x2="354.97" y2="145.76" style="fill:none;stroke:#baccc6;stroke-linecap:round;stroke-linejoin:round;stroke-width:2.0383px"/><line x1="321.73" y1="150.59" x2="354.97" y2="150.59" style="fill:none;stroke:#baccc6;stroke-linecap:round;stroke-linejoin:round;stroke-width:2.0383px"/><line x1="321.73" y1="155.42" x2="354.97" y2="155.42" style="fill:none;stroke:#baccc6;stroke-linecap:round;stroke-linejoin:round;stroke-width:2.0383px"/><line x1="321.73" y1="160.24" x2="334.62" y2="160.24" style="fill:none;stroke:#baccc6;stroke-linecap:round;stroke-linejoin:round;stroke-width:2.0383px"/><path d="M370.35,151.87h3.11a4.45,4.45,0,0,0,.1-.91V144h-8.13v11.2h3.87a4.57,4.57,0,0,0,1.05-.13Z" style="fill:#38aae3"/><path d="M370.35,155.09a4.28,4.28,0,0,0,3.11-3.22h-3.11Z" style="fill:#0254a9"/><path d="M384.54,183.78h6.68a9.65,9.65,0,0,0,.21-2V166.91H374V191h8.3a9.25,9.25,0,0,0,2.25-.29Z" style="fill:#fabb49"/><path d="M384.54,190.68a9.15,9.15,0,0,0,6.68-6.9h-6.68Z" style="fill:#d38309"/><path d="M389.71,148.86h6.68a9.72,9.72,0,0,0,.21-2V132H379.16v24h8.3a8.78,8.78,0,0,0,2.25-.29Z" style="fill:#fabb49"/><path d="M389.71,155.75a9.14,9.14,0,0,0,6.68-6.89h-6.68Z" style="fill:#d38309"/><path d="M490.11,126.23H442.65l-12.74,8.28V99.37c0-7.06,6.57-12.79,14.67-12.79h45.53c8.1,0,14.67,5.73,14.67,12.79v14.08C504.78,120.51,498.21,126.23,490.11,126.23Z" style="fill:#13b5a0"/><rect x="443.53" y="96.24" width="46.58" height="4.38" rx="1.45" style="fill:#148a77"/><rect x="443.53" y="104.15" width="46.58" height="4.38" rx="1.45" style="fill:#148a77"/><rect x="443.53" y="112.06" width="28.03" height="4.38" rx="1.45" style="fill:#148a77"/><path d="M104.35,140.13h26.3L145,149.45V109.87c0-8-7.4-14.4-16.52-14.4H104.35c-9.13,0-16.52,6.45-16.52,14.4v15.86C87.83,133.69,95.22,140.13,104.35,140.13Z" style="fill:#13b5a0"/><path d="M116.34,131.45a3.66,3.66,0,1,1,.08,0ZM114.1,122l-.9-18.44h6.43L118.74,122Z" style="fill:#fefefe"/><path d="M329.13,110.94h-26.3l-14.35,9.32V80.68c0-8,7.4-14.4,16.52-14.4h24.13c9.12,0,16.52,6.45,16.52,14.4V96.54C345.65,104.49,338.25,110.94,329.13,110.94Z" style="fill:#4385f4"/><path d="M304.1,101.87c0-.1,0-.14,0-.17.79-1.56-.51-2.31-1.28-3.27a.48.48,0,0,0-.48-.13c-.25,0-.49.07-.74.09-.95.07-1,.07-1.36-.79a12,12,0,0,1-.72-2.09c-.08-.34-.05-.62.28-.75,1.18-.45,1.34-1.37,1.37-2.49a1.49,1.49,0,0,0-.74-1.55c-.18-.11-.32-.27-.49-.39a.48.48,0,0,1-.18-.6A11.6,11.6,0,0,1,301,87.06a.43.43,0,0,1,.57-.23,2.35,2.35,0,0,0,2.87-.86,1.46,1.46,0,0,0,.52-1.39c-.18-1.21-.14-1.22,1-1.72a12.14,12.14,0,0,1,1.85-.61c.32-.08.57,0,.71.27a2.18,2.18,0,0,0,2.28,1.37,2,2,0,0,0,1.89-.82c.5-.76.56-.72,1.42-.4a15.76,15.76,0,0,1,1.94.94c.39.22.56.48.4.89a2.08,2.08,0,0,0,.6,2.4,1.94,1.94,0,0,0,2.18.74c.52-.14.77.08,1,.53a12.52,12.52,0,0,1,.85,2.43c.07.3.05.55-.24.66-1.22.47-1.42,1.4-1.41,2.58a1.41,1.41,0,0,0,.7,1.46c.18.11.32.27.49.39a.5.5,0,0,1,.21.64A11.81,11.81,0,0,1,319.63,99a.5.5,0,0,1-.66.26,2.37,2.37,0,0,0-2.71.74,1.87,1.87,0,0,0-.55,2,.75.75,0,0,1-.52.94,12.75,12.75,0,0,1-2.43.86c-.32.07-.57,0-.7-.26-.48-1.16-1.37-1.34-2.54-1.41-.9,0-1.21.4-1.63.91s-.53.65-1.31.37a11.17,11.17,0,0,1-2.17-1.06C304.21,102.23,304,102.1,304.1,101.87Zm6.21-14.27A5.43,5.43,0,1,0,315.75,93,5.33,5.33,0,0,0,310.31,87.6Z" style="fill:#fefefe"/><path d="M321.84,88.85a1.05,1.05,0,0,1,0-.12c.6-1.17-.37-1.74-1-2.46-.09-.12-.23-.11-.37-.1l-.55.07c-.72.06-.72.06-1-.59a9.7,9.7,0,0,1-.54-1.57c-.07-.26,0-.47.21-.56.88-.34,1-1,1-1.88a1.13,1.13,0,0,0-.56-1.16c-.13-.08-.24-.2-.37-.29a.36.36,0,0,1-.13-.45,9.18,9.18,0,0,1,.93-2,.34.34,0,0,1,.44-.17,1.76,1.76,0,0,0,2.15-.64,1.09,1.09,0,0,0,.39-1c-.14-.91-.1-.92.76-1.29a8.7,8.7,0,0,1,1.39-.46c.24-.06.42,0,.53.2a1.64,1.64,0,0,0,1.71,1,1.42,1.42,0,0,0,1.42-.62c.38-.56.42-.54,1.07-.29a12.19,12.19,0,0,1,1.46.7c.29.17.42.37.3.67a1.58,1.58,0,0,0,.45,1.81,1.45,1.45,0,0,0,1.63.55c.4-.1.58.06.73.4a9.87,9.87,0,0,1,.65,1.82c.05.23,0,.41-.19.5-.91.35-1.06,1-1.06,1.94a1.11,1.11,0,0,0,.53,1.1,4.68,4.68,0,0,1,.37.29.36.36,0,0,1,.16.47,9.36,9.36,0,0,1-.91,2,.39.39,0,0,1-.5.2,1.76,1.76,0,0,0-2,.55,1.42,1.42,0,0,0-.42,1.54.56.56,0,0,1-.39.7,9.61,9.61,0,0,1-1.82.65c-.24,0-.43,0-.53-.2-.36-.87-1-1-1.91-1.06-.67,0-.91.3-1.22.69s-.4.48-1,.27a8.26,8.26,0,0,1-1.64-.79C321.92,89.12,321.77,89,321.84,88.85Zm4.67-10.71a4.08,4.08,0,1,0,4.08,4.08A4,4,0,0,0,326.51,78.14Z" style="fill:#fefefe"/><path d="M242.29,155.2H216l-14.34,9.32V125c0-8,7.39-14.4,16.51-14.4h24.14c9.12,0,16.52,6.44,16.52,14.4V140.8C258.81,148.76,251.41,155.2,242.29,155.2Z" style="fill:#4385f4"/><polygon points="230.22 118.1 234.64 127.06 244.53 128.5 237.38 135.47 239.06 145.32 230.22 140.67 221.38 145.32 223.07 135.47 215.91 128.5 225.8 127.06 230.22 118.1" style="fill:#faae26"/><path d="M160.78,197.34a4.37,4.37,0,0,0,.58-5,4.51,4.51,0,0,0-1.86-1.76,4.4,4.4,0,0,0-2.53-.43,7.44,7.44,0,0,0-3.58,1.43,4.51,4.51,0,0,0-1.5,2.14,8,8,0,0,0-.29,4,8.09,8.09,0,0,0,.71,1.82c.4.85.8,1.69,1.23,2.51.85,1.64,1.82,3.2,2.76,4.79a17.82,17.82,0,0,1,1.16,2.15,12.08,12.08,0,0,0,.85,1.91,2.6,2.6,0,0,0,1,.91c.7.37,1.43.67,2.12,1.1,1.51.94,3,1.94,4.57,2.78a25.63,25.63,0,0,0,4.62,1.83,36.35,36.35,0,0,0,5,1.2c1.06.17,2.05.38,3.42.5a32.23,32.23,0,0,0,4.13.1l6.8-3.25.36-3.11-2.19-3-1.63-.37-5.06,2.51c-.48.65-1,1.3-1.43,2l-2.39.14a34.87,34.87,0,0,1-4.54-2.91,44.58,44.58,0,0,0-4.16-3.1c-1.32-.81-2.06-1.22-2.06-1.22a15.48,15.48,0,0,1-2.09-1.2,5.52,5.52,0,0,1-1.66-2.63c-.36-.89-.72-1.78-1.06-2.69s-.68-1.62-1-2.43c-.51-1.24-1.27-2.86-2.23-4.8Z" style="fill:#bc6c56"/><path d="M174.11,334.3a10.54,10.54,0,0,0-3.36-.34,11.5,11.5,0,0,1-4.36-1.28,25.86,25.86,0,0,1-4-2.58,18.92,18.92,0,0,1-1.84-1.51,1.49,1.49,0,0,0-.69-.5l-.32,0c.42-.25.19-.76.06-1.15-.26-.85-.57-1.69-.81-2.56-.16-.63-.18-1.26-.3-1.9-.18-.94-.89-1.82-.79-2.81a2,2,0,0,0,0-.72c-.07-.26-.31-.45-.38-.72a5.74,5.74,0,0,1,0-1.31c0-1-.09-2-.13-2.95-.08-1.76-.11-3.52-.06-5.28s.16-3.33.35-5c.23-2,.45-3.94.54-5.92a18.68,18.68,0,0,1,.24-2.36,15.51,15.51,0,0,0,.15-2.26,5.55,5.55,0,0,1,.32-1.66c.27-.77.44-1.55.69-2.32a12.67,12.67,0,0,1,.8-1.66,9.57,9.57,0,0,0,.67-2.15,28,28,0,0,0,.36-5.26,26,26,0,0,1,.84-4.95c.45-1.95,1-3.88,1.51-5.81.42-1.6.85-3.2,1.22-4.81a47.49,47.49,0,0,0,.91-5c.23-1.93.5-3.87.66-5.82.08-.89.09-1.78.16-2.67s.22-1.49.3-2.24-.06-1.39-.06-2.1a7.48,7.48,0,0,1,.53-2.46,9.88,9.88,0,0,1,.55-1.25,5.32,5.32,0,0,0,.6-1.22,22.64,22.64,0,0,0,.49-2.56,18.07,18.07,0,0,0,.16-2.44l-20.62-6.18c-.58.66-1.12,1.36-1.63,2.07a21.85,21.85,0,0,0-2.8,4.78,13,13,0,0,0-.87,5.3,24.37,24.37,0,0,0,1.2,5.78c.3,1,.61,1.93.93,2.89a10.65,10.65,0,0,0,.83,2.18c.18.3.47.51.65.81a1.32,1.32,0,0,1,.09.71c0,1.28.7,2.36.82,3.6a4.27,4.27,0,0,1-.14,1.23,4.17,4.17,0,0,0,.13,1.36,16.32,16.32,0,0,1,.09,2.42c0,1.08,0,2.16,0,3.24,0,2,0,4,.1,5.95,0,1.22.12,2.45.15,3.67a11,11,0,0,1-.12,2.36,7.15,7.15,0,0,0-.24,1.89,4.79,4.79,0,0,1-.13,1.55,7.83,7.83,0,0,0-.35,1.92,9.35,9.35,0,0,0,.22,1.39,10.37,10.37,0,0,1-.06,1.67c0,.95,0,1.89-.07,2.83-.15,2-.49,3.93-.69,5.9a58.27,58.27,0,0,0-.35,6.05,42,42,0,0,0,.5,5.93c.29,2,.68,3.94.89,5.93.24,2.21.34,4.43.49,6.64.12,1.87.44,3.72.57,5.59.07,1,.09,2,.13,3a4,4,0,0,0,.25,1.54c-.39.08-.54.51-.65.85a19.67,19.67,0,0,0-.73,4.77,12.74,12.74,0,0,0,0,2.14,1.13,1.13,0,0,0,.16.54c.34.48,1.22.56,1.73.63a29.88,29.88,0,0,0,4,.16h7a87.15,87.15,0,0,0,9.83-.25,12.93,12.93,0,0,0,4.32-1.11c.47-.24.91-.52,1-1.09A2.86,2.86,0,0,0,174.11,334.3Z" style="fill:#034c8a"/><path d="M165.5,162c.09.43.18.87.24,1.31a15.71,15.71,0,0,1,.18,2.83c0,.87-.21,1.74-.19,2.61a3.39,3.39,0,0,0,.57,1.41,15.91,15.91,0,0,1,1.1,2.23c.13.39.19.93-.26,1.1s-1.42-.08-1.6.6c-.1.35,0,.74-.09,1.08s-.29.3-.47.46a.85.85,0,0,0-.23.55,5.11,5.11,0,0,1-.15,1.23c-.14.37-.4.53-.61.85a1.46,1.46,0,0,0-.16.85c0,.87,0,1.84-1.06,2.08a5.75,5.75,0,0,1-1.85-.07,9.28,9.28,0,0,0-2.35-.17,1.45,1.45,0,0,0-.91.53,6.52,6.52,0,0,0-1,1.76,25.28,25.28,0,0,0,1.2,4.93c.68,1.43-2.15,2-2.15,2l-7.42-3.37-2.62-4,1.75-4.49a7.86,7.86,0,0,0,.52-2.24l.38-14.78,10-3.53,7.29,4.18Z" style="fill:#d08b73"/><g style="clip-path:url(#a)"><path d="M159.26,181s-4.3-1.91-5.54-5.85c.07,3.11,3.76,8.23,3.76,8.23Z" style="fill:#bc6c56"/></g><path d="M164.14,236.7a19.85,19.85,0,0,1-.15,2.44,25.1,25.1,0,0,1-.49,2.56,5.8,5.8,0,0,1-.61,1.22,9.88,9.88,0,0,0-.55,1.25,7.74,7.74,0,0,0-.53,2.46,18.41,18.41,0,0,1,.06,2.1c-.07.75-.24,1.49-.3,2.24s-.08,1.78-.15,2.67c-.17,2-.44,3.89-.67,5.82a47.46,47.46,0,0,1-.9,5c-.37,1.61-.8,3.21-1.23,4.81-.51,1.93-1.06,3.86-1.51,5.81a25.22,25.22,0,0,0-.83,4.95,29.82,29.82,0,0,1-.36,5.26,10.14,10.14,0,0,1-.68,2.15,14.09,14.09,0,0,0-.8,1.66c-.25.77-.42,1.55-.68,2.32a5.27,5.27,0,0,0-.33,1.66,15.51,15.51,0,0,1-.15,2.26,18.68,18.68,0,0,0-.24,2.36c-.09,2-.31,3.94-.54,5.92-.19,1.65-.3,3.31-.35,5s0,3.52.06,5.28c0,1,.09,2,.13,2.95a6.37,6.37,0,0,0,0,1.31c.07.27.32.46.39.72a2.18,2.18,0,0,1,0,.72c-.1,1,.6,1.87.78,2.81.12.64.14,1.27.31,1.9.23.87.54,1.71.81,2.56.12.4.37.93-.1,1.17l-2.37,3.83c-1.58.76-8-1.14-8-1.14a4.23,4.23,0,0,1-.26-1.54c0-1-.05-2-.13-3-.13-1.87-.44-3.72-.57-5.59-.14-2.21-.25-4.43-.48-6.64-.22-2-.6-3.95-.9-5.93a42,42,0,0,1-.49-5.93,58.27,58.27,0,0,1,.35-6.05c.2-2,.54-3.92.69-5.9.07-.94,0-1.88.06-2.83a9.33,9.33,0,0,0,.06-1.67,9.35,9.35,0,0,1-.22-1.39,8.33,8.33,0,0,1,.35-1.92,4.79,4.79,0,0,0,.13-1.55,7.15,7.15,0,0,1,.24-1.89,11.65,11.65,0,0,0,.13-2.36c0-1.22-.1-2.45-.16-3.67-.08-2-.09-4-.09-5.95,0-1.08,0-2.16,0-3.24a15.07,15.07,0,0,0-.08-2.42,4.18,4.18,0,0,1-.14-1.36,4.66,4.66,0,0,0,.15-1.23c-.13-1.24-.86-2.32-.82-3.6a1.43,1.43,0,0,0-.1-.71c-.17-.3-.47-.51-.65-.81a12,12,0,0,1-.83-2.18c-.31-1-.63-1.93-.92-2.89a24.38,24.38,0,0,1-1.21-5.78,12.81,12.81,0,0,1,.88-5.3,22.22,22.22,0,0,1,2.79-4.78c.52-.71,1.06-1.41,1.63-2.07Z" style="fill:#38aae3"/><path d="M144.56,207.07a29,29,0,0,1-2.29-8.68,22.37,22.37,0,0,1,.8-8.57c.41-1.37,1.15-2.58,1.44-4l2-5.53a42.23,42.23,0,0,0,7.07,5.68,7.62,7.62,0,0,0,3.5,1.19h.45l8.61,9.95a7.76,7.76,0,0,1,2,2.2,8.79,8.79,0,0,1,1,4.88c-.07,1-.27,2-.34,3.09a11.62,11.62,0,0,0,.19,2.7c.35,2,.69,4.07.91,6.13.23,2.23,1.21,15,1.36,16.21s.31,2.07.42,2.68a14.36,14.36,0,0,1-6.46,2.21c-3.41.26-7.27-.84-9.17,0a1.69,1.69,0,0,1-1.28.14c-.28-.15-.27-.68-.3-.93-.08-.51-.14-1-.22-1.54a1.52,1.52,0,0,0-.12-.51c-.09-.14-.16-.16-.32-.1s-1.8,1.75-2.06,2c-.67.54-2.88-.38-9.16-6a7.89,7.89,0,0,0,3.23-2.9,2.33,2.33,0,0,1,.95-1.08,2.7,2.7,0,0,0,.9-.88c.21-.33.22-.74.42-1.06s.49-.32.73-.48a2.26,2.26,0,0,0,.69-.81Z" style="fill:#ee5f43"/><g style="clip-path:url(#b)"><path d="M156.55,196.87s-2.93,11.61-2.65,12.4,3.3,17.12,3.3,17.12l-9.32-19.27,5.38-10.46Z" style="fill:#c4422b"/></g><path d="M144.09,330.75c-.4.08-.54.51-.65.85a19.19,19.19,0,0,0-.73,4.77,12.73,12.73,0,0,0,0,2.14,1.14,1.14,0,0,0,.17.54c.34.48,1.21.56,1.72.63a30,30,0,0,0,4,.16h7a87.09,87.09,0,0,0,9.83-.25,12.93,12.93,0,0,0,4.32-1.11c.47-.24.91-.52,1-1.09a2.84,2.84,0,0,0-1.53-3.09,10.6,10.6,0,0,0-3.37-.34,11.55,11.55,0,0,1-4.36-1.28,26.34,26.34,0,0,1-4-2.58,18.8,18.8,0,0,1-1.83-1.51,1.54,1.54,0,0,0-.69-.5c-1.73-.4-2.35,1.57-3.36,2.46a4.25,4.25,0,0,1-2.31.93,6.94,6.94,0,0,1-2.18-.09c-.75-.14-1.47-.42-2.21-.59A1.56,1.56,0,0,0,144.09,330.75Z" style="fill:#282e5b"/><path d="M153.16,201a4.68,4.68,0,0,0,2.58-2.26,5.42,5.42,0,0,0,.68-2.77,6.07,6.07,0,0,0-1-3,5.34,5.34,0,0,0-2.4-2,8.2,8.2,0,0,0-4.47-.57,5,5,0,0,0-2.7,1.43,9.54,9.54,0,0,0-2.45,4.16,11.36,11.36,0,0,0-.24,2.4c0,1.15-.06,2.31-.06,3.46,0,2.28.18,4.55.3,6.83a23.26,23.26,0,0,1,0,3,15.94,15.94,0,0,0-.13,2.58,3.44,3.44,0,0,0,.52,1.57c.53.83,1.13,1.58,1.61,2.45,1.06,1.93,2,3.88,3.25,5.73a37,37,0,0,0,3.81,4.73c1.53,1.68,3,3.43,4.68,5a63.53,63.53,0,0,0,5,4.18,11.73,11.73,0,0,0,4.16,1.73,13.74,13.74,0,0,0,7-.24,8.16,8.16,0,0,0,2-4.82,8.58,8.58,0,0,0-.57-3.67A13.92,13.92,0,0,1,170,229.4l-.59-.35a8.51,8.51,0,0,1,2.42-1.12c.83-.23,1.44-.26,1.65-.74a1.49,1.49,0,0,0-.29-1.36,2.4,2.4,0,0,0-2.7-.64L162.66,230q-.18-.15-.48-.45c-1.67-1.68-2.1-3.37-3.32-5.71-1.05-2-2-4.11-3.05-6.14-.46-.88-.94-1.73-1.47-2.55a18.11,18.11,0,0,1-1.53-2.53,7.27,7.27,0,0,1-.32-3.84c.11-1.19.22-2.37.35-3.55s.16-2.16.24-3.25a61.77,61.77,0,0,0,.26-6.53Z" style="fill:#d08b73"/><path d="M165.15,163.91c-2.66,2.35-4.35,2.58-5.45,2.25s-2.37-1.66-3.2-1.23a1.24,1.24,0,0,0-.55.82,4,4,0,0,1,.48,2.05c0,.9-.4,2.15-.89,2.18-.82.05-1.35-3.13-2-3.07s-.51,2.41-1.27,5.32c-.61,2.32-1.54,5.9-4.44,7.64-.4.24-3.23,1.87-5.81.53a5.25,5.25,0,0,1-2.79-4.15,5.38,5.38,0,0,1,1.24-3.83,6.25,6.25,0,0,1-3.15-3.26c-.08-.21-1.13-2.92.21-4.91,1-1.44,2.27-1.17,2.65-2.38s-1-1.88-1-3.82c-.08-2.54,2.19-4.33,2.32-4.43a5.89,5.89,0,0,1,2.93-1.15,7.23,7.23,0,0,1,4.9,1.22,5.87,5.87,0,0,1,2.12-2.93,6.08,6.08,0,0,1,4.56-.88,5.34,5.34,0,0,1,3.41,1.56,4.66,4.66,0,0,1,1,1.84,6.54,6.54,0,0,1,3.34-2,5.63,5.63,0,0,1,4,.41,6,6,0,0,1,2.79,4.49c.22,2-.83,2.29-.75,4.43.11,2.86,2,3.94,1.37,5.18-.54,1-2.36,1.35-3.75.82A3.83,3.83,0,0,1,165.15,163.91Z" style="fill:#034c8a"/><path d="M154.72,168.47c0-.09-.08-.22-.15-.38a3.61,3.61,0,0,0-.28-.61,2.8,2.8,0,0,0-1.66-1.34,1.65,1.65,0,0,0-1.7.75c-.55,1-.07,2.42.38,3.31s1.2,2,2.2,2.23c.1,0,1,.12,1.31-.41a1.06,1.06,0,0,0,.12-.85C154.87,170.27,154.79,169.37,154.72,168.47Z" style="fill:#d08b73"/><path d="M153.16,169.6c-.06-.69-.86-.29-1-.89s.68-.48.64-1-1.51-.42-1.25,1.31S153.22,170.19,153.16,169.6Z" style="fill:#bc6c56"/><path d="M312.28,328.36c0,1.27,2.4,8.87,2.4,8.87h11.68s1-2.53.71-3.52-4.05-3.8-4.28-4.36-3.09-7.89-3.09-7.89S312.28,327.09,312.28,328.36Z" style="fill:#282e5b"/><path d="M255.32,321.39a59.11,59.11,0,0,1-2.64,7.08c-.84,1.37-5.7,4.85-5.91,5.28s-.85,4.33-.85,4.33h16.16s.74-5.92.74-7.18-.53-4.76-.53-4.76l-.42-4.12Z" style="fill:#282e5b"/><path d="M267.92,232.6s-4.22,13.52-4.5,17.18-4.18,27.62-4.66,29.82c-2.37,10.85-4.92,34.73-4.92,34.73l1.69,2.2-1.69,3.28V324a23,23,0,0,1,4-.74c1.26,0,4.75,1.48,4.75,1.48s3.76-10.35,3.76-11.9,1.69-2.25,1.55-3.38-.54-4.08,0-5.35a120.82,120.82,0,0,0,3.23-15.49c.21-3,3.59-12.25,3.59-12.25s4-11.83,4.65-13.52S281,252.32,285,252.32,295.24,265,296.3,269.64s7.81,27.46,8.87,29.15,5.07,7.39,5.07,7.39l-1.56,6.15,1.06,8.41s.7,4.36.8,5.31,3.62,0,3.62,0,6.54-1.39,7.59-1.91,1.16-2.86.95-3.6a15.36,15.36,0,0,1-.84-3c0-.74-4.55-30.75-5-33.08S313,274,312.17,270.66a95.11,95.11,0,0,1-1.51-13.91c0-2.53-.42-5.28-.42-6.33s-5.91-19.65-5.91-19.65Z" style="fill:#4485f4"/><g style="clip-path:url(#c)"><path d="M277.92,250.1c2.28,1.46,5.23,2,8.22,2.54C281.94,259,280.6,253.27,277.92,250.1Z" style="fill:#282e5b"/><polygon points="269.47 311.04 263.84 312.17 267.36 315.69 269.47 311.04" style="fill:#282e5b"/><polygon points="306.12 302.91 312.67 307.45 307.18 306.18 306.12 302.91" style="fill:#282e5b"/></g><path d="M271.87,171.07c-1.23.68-1.46.59-5.46,2a37.64,37.64,0,0,0-4.12,1.58c-2.25,2-.84,5.33-2,10.6-.59,2.74-2.74,5.33-2.54,6.48s3.72,1,6.48,1c3.07,0,3.56-.74,4.37-.28,3.24,1.86-3,14.15-2.54,26.9.05,1.21.26,5.06,0,10.35-.11,2.41-.29,4.39-.42,5.7a107.46,107.46,0,0,0,19.86,3.38c8.3.61,12.07-.1,15.42-1.9a20,20,0,0,0,5.7-4.65,13.43,13.43,0,0,1-1.27-5.28c0-1.75.33-2.41.21-4.65a24.3,24.3,0,0,0-.63-4c-.68-3.18-1.11-4.32-1.48-5.91-.44-1.92-2.06-9,1.48-13.94a11,11,0,0,1,1.05-1.27c.62.37,1.13,1.51,1.84,1.12s1.66-7.71,2.6-9.92a15.62,15.62,0,0,0,1.69-5.78,8.91,8.91,0,0,0-1.27-5.63,9.1,9.1,0,0,0-2.11-2.11c-.55-.43-1.68-1.3-6.34-3.38-1.58-.71-2.38-1.07-3.16-1.34A25.86,25.86,0,0,0,294,169c-7.5-.93-9.23,1.12-14.61,0a7.88,7.88,0,0,0-3.77-.07C274.06,169.29,273.87,170,271.87,171.07Z" style="fill:#034c8a"/><g style="clip-path:url(#d)"><path d="M269.9,182.19s.52,5.75.52,9.66c0,1.55-1.45.09-1.58.77-.46,2.4-1,3.89-2,4.92C270.15,199.58,275,191.77,269.9,182.19Z" style="fill:#282e5b"/><path d="M298.18,191.2s3.54-8.16,4-9.43-6.9,8.31-6.9,8.31Z" style="fill:#282e5b"/></g><path d="M285,158.25l-1.83,11.83h10.56Q292.85,164,292,158Z" style="fill:#bc6c56"/><g style="clip-path:url(#e)"><path d="M281.41,162.19l14.68,1.1s-1.73,5.38-7.34,5.38-7.34-5.91-7.34-5.91" style="fill:#bc6c56;opacity:0.5;mix-blend-mode:multiply"/></g><path d="M275.6,168.88a12.23,12.23,0,0,0,23.66,1.27,35.65,35.65,0,0,0-23.66-1.27Z" style="fill:#bc6c56"/><path d="M281.3,154.94c-.17-3.1-.35-6.19-.53-9.29a9.52,9.52,0,0,1,17.32.32l-.63,9.61Z" style="fill:#282e5b"/><polygon points="279.79 167.92 279.65 171.97 283.13 174.77 284.45 178.28 287.43 188.14 284.97 173.6 281.56 170.89 280.17 166.15 279.79 167.92" style="fill:#bc6c56;opacity:0.5;mix-blend-mode:multiply"/><path d="M258.86,191.8c-.43,2.9.59,10.26.76,15.6a5.57,5.57,0,0,0,4.64,6c3.39.91,13.41,1.81,26.9,2.26l9.43-4.51c3-3.17,4.53-6.65,3.43-8.36-1.41-2.2-7-1.21-10.47.9a13.65,13.65,0,0,0-5.21,5.91c-3.16-.65-6.56-1.47-10.14-2.53-3.13-.93-6-1.94-8.73-3a32.91,32.91,0,0,0,.41-6.33,24,24,0,0,0-.62-5.38C265.77,191.47,260.92,191.22,258.86,191.8Z" style="fill:#bc6c56"/><g style="clip-path:url(#f)"><rect x="257.33" y="189.16" width="13.84" height="4.86" style="fill:#bc6c56;opacity:0.5;mix-blend-mode:multiply"/><path d="M289.76,205.05s3.4,3.62,7.16,3.19,9.13-6.16,9.13-6.16L300.32,201Z" style="fill:#bc6c56;opacity:0.5;mix-blend-mode:multiply"/></g><path d="M296.19,147.44c.1,2,.19,4,.28,6a1.68,1.68,0,0,1,1.34.17c.74.52.61,1.69.53,2.36a2.1,2.1,0,0,1-.6,1.51,1.79,1.79,0,0,1-1.16.39,11.86,11.86,0,0,1-2.29,5.56c-1,1.25-2.84,3.72-5.38,3.59-2.32-.11-3.85-2.31-5-3.91a13.34,13.34,0,0,1-2.22-5.59,1.23,1.23,0,0,1-1-.21c-.18-.17-.29-.42-.21-1.8.1-1.77.32-2,.45-2.18a1.77,1.77,0,0,1,1.14-.46l1.05-6.44a9.39,9.39,0,0,1,5.63-2.18A9.83,9.83,0,0,1,296.19,147.44Z" style="fill:#bc6c56"/><path d="M285.67,174.08c.34,2.41.72,2.88,1.05,5,1.82-.9,3.95-.39,6-1.55-1.23-2.79-1.46-3.2-1.81-4.26.21-1.84.46-3.32.66-4.35s.33-1.57.49-2.6a33.7,33.7,0,0,0,.37-3.49l-1.27.27-1.42,2.16c-.68-.81-1.45-1.66-2.33-2.53s-1.67-1.59-2.46-2.26L283.48,162c.17,1.52,2.63,3.49,2.81,5C287.84,168.51,284.12,172.56,285.67,174.08Z" style="fill:#bc6c56;opacity:0.5;mix-blend-mode:multiply"/><path d="M299.89,192.19c1.39.9,2.46,1.09,4.51,2.39a22,22,0,0,1,2.46,1.83c-.87,4.92-3.95,8.82-8,10a10.16,10.16,0,0,1-5.68-.11,6.17,6.17,0,0,1-1.51-.83,7.75,7.75,0,0,1-2.59-4.52c-.71-2.93-2.41-12.31-4.23-25.14l-4.65-4.57c-.17-1.52-.35-3-.52-4.54l4.47-4.48c.79.67,1.62,1.41,2.46,2.26s1.65,1.72,2.33,2.53l1.42-2.16,1.27-.27a33.7,33.7,0,0,1-.37,3.49c-.16,1-.3,1.58-.49,2.6s-.45,2.51-.66,4.35c.64,1.94,2.93,8.6,6.29,13.4A12.54,12.54,0,0,0,299.89,192.19Z" style="fill:#bc6c56"/><path d="M357.18,290.12l.43.06-.46.18,0-.23Z" style="fill:#363a68"/><path d="M350.75,338.06a.66.66,0,0,1,.16-.2,4.09,4.09,0,0,1,.53-.4,33.9,33.9,0,0,0,3.08-2.89c.11-.11.33-.2.51-.38a1.14,1.14,0,0,0,.3-.56c.05-.21.09-.41.12-.58a11.9,11.9,0,0,0-.08-3.27c-.21-1.85-.83-6.88-.89-7.55,0-.13,0-.34,0-.55a2.89,2.89,0,0,0-.05-.66l0-.12a5.51,5.51,0,0,0,.89,0,18.81,18.81,0,0,0,4.76-.79,12.36,12.36,0,0,0,2-.72c.19-.09.51-.22.56-.46a1.49,1.49,0,0,0-.23-.88,3.26,3.26,0,0,0,.4.24c.33.17.68.31.92.44a5,5,0,0,1,1,.67,3.87,3.87,0,0,1,.93,1.37,6.67,6.67,0,0,1,.37,1.09c.46,1.87.12,3.81.33,5.87.17,1.65.44,3.28.74,4.9.07.42.25,1.3.25,1.3,0,.16.16.52.23.82,0,.08,0,.15.05.21h0l-.06,0-.39.11-.23.05h0v0c0-.1-.05-.24-.07-.36s0-.21,0-.28c-.46-1.87-1.41-5.61-1.41-5.61s-.08-.55-.17-.93a3.1,3.1,0,0,0-.15-.46.82.82,0,0,0-.31-.36.47.47,0,0,0-.35,0,2.25,2.25,0,0,0-1,.65,8.1,8.1,0,0,0-.69.84,5.21,5.21,0,0,0-.75,1.58,32.08,32.08,0,0,0-.68,4.49,2.87,2.87,0,0,1-.51,1.52,4.24,4.24,0,0,1-1.92.91c-.51.14-1,.28-1.53.4-1.15.28-2.32.52-3.49.79h0c-.24,0-.6.17-1,.27a5.47,5.47,0,0,1-1,.16,1.49,1.49,0,0,1-.81-.14.62.62,0,0,1-.27-.32v0A.25.25,0,0,1,350.75,338.06Z" style="fill:#363a68"/><path d="M353.13,317.89c-.31-3.33-.47-6.57-1.54-9.76-1.21-3.6-2.38-7.18-3.34-10.85q-.72-2.76-1.39-5.54a37.09,37.09,0,0,1-1-4.9,5.8,5.8,0,0,1,1-4.35c1.52-1.9,4.17-2.54,6.38-3.11l2.49-.61,0,.25h0a.23.23,0,0,0,.14-.36l.15,0c9-2.91,17.86-6,26.76-9a2.31,2.31,0,0,0,1.62-1.83,53.8,53.8,0,0,1,11.21,5.45c0,.27,0,.53,0,.8s0,.44-.07.7a2.44,2.44,0,0,0,0,.54l.17-.07c.59,1.78,1.1,4.44,0,6.11-1.21,1.83-3.78,2.5-5.71,3.1-3.48,1.09-7.06,1.87-10.62,2.64-3.72.81-7.46,1.58-11.21,2.28-1.73.32-3.47.6-5.22.81a30.31,30.31,0,0,1-5,.34c-2.29-.11.22-1.3,2,9.45.6,3.59.65,7.26.89,10.88a25.84,25.84,0,0,0,.61,4.8,17.54,17.54,0,0,0,.67,2c0,.12.14.3.24.49a1.49,1.49,0,0,1,.23.88c-.05.24-.37.37-.56.46a12.36,12.36,0,0,1-2,.72,18.81,18.81,0,0,1-4.76.79,5.51,5.51,0,0,1-.89,0,1.14,1.14,0,0,1-.72-.34C353.14,320,353.2,318.62,353.13,317.89Z" style="fill:#363a68"/><rect x="358.1" y="284.11" width="37.66" height="7.19" rx="2.03" transform="translate(753.86 575.41) rotate(180)" style="fill:#346ec1"/><path d="M404.79,261.32c0-6.12-.16-12.16.07-18.26A65.15,65.15,0,0,0,404.4,231c-.26-1.76-1.44-9.79-4.93-8.28-.67.29-1,1.25-1.09,1.7q.24,18.47.47,36.93a2.69,2.69,0,0,0,2.4,2.91h1.13A2.69,2.69,0,0,0,404.79,261.32Z" style="fill:#346ec1"/><path d="M404.94,240.6v38.64A11.74,11.74,0,0,1,393.2,291H364.29" style="fill:none;stroke:#034c8a;stroke-linecap:round;stroke-linejoin:round;stroke-width:3.4431000000000003px"/><rect x="377.84" y="291.3" width="2.93" height="41.97" transform="translate(758.6 624.57) rotate(180)" style="fill:#034c8a;stroke:#034c8a;stroke-linecap:round;stroke-linejoin:round;stroke-width:0.9734729999999999px"/><rect x="375.49" y="310.48" width="7.62" height="14.35" transform="translate(758.6 635.31) rotate(180)" style="fill:#034c8a;stroke:#034c8a;stroke-linecap:round;stroke-linejoin:round;stroke-width:0.9734729999999999px"/><path d="M353.66,334.68a46.22,46.22,0,0,1,51.28,0V332.3a47.72,47.72,0,0,0-51.28,0Z" style="fill:#034c8a;stroke:#034c8a;stroke-linecap:round;stroke-linejoin:round;stroke-width:0.9734729999999999px"/><path d="M401.66,334.68a3.28,3.28,0,1,1,3.28,3.28A3.28,3.28,0,0,1,401.66,334.68Z" style="fill:#034c8a;stroke:#034c8a;stroke-linecap:round;stroke-linejoin:round;stroke-width:0.9734729999999999px"/><path d="M350.38,334.68a3.28,3.28,0,1,1,3.28,3.28A3.28,3.28,0,0,1,350.38,334.68Z" style="fill:#034c8a;stroke:#034c8a;stroke-linecap:round;stroke-linejoin:round;stroke-width:0.9734729999999999px"/><path d="M376.2,334.68a3.1,3.1,0,1,1,3.1,3.1A3.1,3.1,0,0,1,376.2,334.68Z" style="fill:#034c8a;stroke:#034c8a;stroke-linecap:round;stroke-linejoin:round;stroke-width:0.9734729999999999px"/><path d="M327.55,336.24a.83.83,0,0,1,.24-.19,5.92,5.92,0,0,1,.73-.31,40.81,40.81,0,0,0,4.38-2.39c.17-.1.45-.14.71-.29a1.32,1.32,0,0,0,.5-.55,6,6,0,0,0,.31-.62,13.46,13.46,0,0,0,.83-3.7c.28-2.13,1-8,1.1-8.72,0-.15.09-.39.15-.63a3.26,3.26,0,0,0,.12-.75v-.15a5.62,5.62,0,0,0,1,.27,22.52,22.52,0,0,0,5.74.42,14.92,14.92,0,0,0,2.58-.24c.25-.06.65-.12.78-.37a1.73,1.73,0,0,0,0-1c.13.13.26.26.4.38.34.28.7.54.94.74a5.59,5.59,0,0,1,1,1,4.43,4.43,0,0,1,.69,1.79,7.73,7.73,0,0,1,.12,1.33c0,2.23-.94,4.32-1.27,6.69-.27,1.9-.43,3.81-.54,5.71,0,.49-.07,1.52-.07,1.52,0,.2,0,.64,0,1a1.85,1.85,0,0,1,0,.25h-.86v-.05c0-.12,0-.27,0-.41s0-.25,0-.33c0-2.23-.05-6.7-.05-6.7,0-.15.07-.64.07-1.09a2.5,2.5,0,0,0-.05-.55.89.89,0,0,0-.25-.49.61.61,0,0,0-.39-.15,2.76,2.76,0,0,0-1.29.48,9.23,9.23,0,0,0-1,.75,6,6,0,0,0-1.32,1.57,34.44,34.44,0,0,0-2.05,4.86,3.25,3.25,0,0,1-1,1.57,5.08,5.08,0,0,1-2.48.49c-.63,0-1.25,0-1.89,0-1.41,0-2.84-.05-4.27-.07h0c-.29,0-.74,0-1.23,0a6.5,6.5,0,0,1-1.26-.1,1.79,1.79,0,0,1-.9-.38.74.74,0,0,1-.22-.43v0A.26.26,0,0,1,327.55,336.24Z" style="fill:#d08b73"/><path d="M336,314.21c.58-3.82,1.32-7.5,1-11.39-.39-4.37-.73-8.71-.81-13.11,0-2.2-.05-4.4-.05-6.6a43,43,0,0,1,.19-5.79,6.65,6.65,0,0,1,2.45-4.6C341.06,271,344.3,271,347,271c1,0,2,0,3.06,0l0,.28h0a.28.28,0,0,0,.24-.13.29.29,0,0,0,0-.24h.19c11.21-.82,22.41-1.82,33.61-2.84a2.76,2.76,0,0,0,2.4-1.61,63.79,63.79,0,0,1,11.46,9.2c-.06.3-.14.6-.22.89s-.18.49-.28.77a3.18,3.18,0,0,0-.18.6l.22,0c.18,2.16,0,5.3-1.72,6.88-1.91,1.72-5.09,1.76-7.5,1.91-4.34.27-8.72.17-13.07.06-4.55-.1-9.11-.27-13.65-.51-2.1-.11-4.2-.27-6.29-.51a38.35,38.35,0,0,1-5.94-1c-.32-.1-.93-.33-.93-.33a47.64,47.64,0,0,1,.6,11.5,122.7,122.7,0,0,1-2,12.47,28.91,28.91,0,0,0-.65,5.56,18.12,18.12,0,0,0,.21,2.44c0,.15.08.38.13.62a1.73,1.73,0,0,1,0,1c-.13.25-.53.31-.78.37a14.92,14.92,0,0,1-2.58.24,22.52,22.52,0,0,1-5.74-.42,5.62,5.62,0,0,1-1-.27,1.32,1.32,0,0,1-.73-.57C335.44,316.53,335.88,315.06,336,314.21Z" style="fill:#38aae3"/><g style="clip-path:url(#g)"><path d="M343.91,281l6.95,5.06v3.78S344.44,284.83,343.91,281Z" style="fill:#034c8a"/></g><path d="M386.67,224.11a81.66,81.66,0,0,0-8.65,5.36v0a.28.28,0,0,0,0-.22.31.31,0,0,0-.18-.14.32.32,0,0,1,0-.16,2.83,2.83,0,0,1,.08-.52c.27-1.31.62-2.64.94-3.95a5,5,0,0,1,.7-1.73,4.14,4.14,0,0,1,.5-.53c.1-.09.22-.16.34-.26a.69.69,0,0,0,.25-.53v-.09h0a2.58,2.58,0,0,0-.67-1.34,2,2,0,0,0-1.45-.72c-.36,0-.34.19-1,.39a2.06,2.06,0,0,1-1.45.1,1.62,1.62,0,0,1-.66-.6,2.85,2.85,0,0,1-.24-.37,3.43,3.43,0,0,1-.35-1.07,28,28,0,0,0-2.07-5,1.31,1.31,0,0,0-.78-.46,2.35,2.35,0,0,1-.66-.16.4.4,0,0,1-.21-.19.65.65,0,0,1-.07-.31,1.54,1.54,0,0,1,.14-.58c.23-.53.78-1,1.09-1.68a6.12,6.12,0,0,0,.2-1.89c.07-1.13.37-2.31.5-3.5a24.88,24.88,0,0,1,.66-3.89c.13-.49.31-1,.49-1.44l0-.13a6.22,6.22,0,0,1-.05-.68c0-.39,0-.7.21-.86,4.18-2.94,25.38-4.82,16.74,16.64a5.37,5.37,0,0,0-.2,1,1.65,1.65,0,0,1-.28.72l-.06.05a.25.25,0,0,0-.25,0,.26.26,0,0,0-.12.23c0,.41,0,.81.07,1.22,0,.06,0,.2,0,.34a.8.8,0,0,0,.12.45.48.48,0,0,0,.17.18.41.41,0,0,0,.24.07H391a.78.78,0,0,1,.58.23,2.84,2.84,0,0,1,.57,1.21,6,6,0,0,1,.19,1.47,1.69,1.69,0,0,1,0,.23c0,.12,0,.26-.07.45s0,.13,0,.19,0,.07,0,.1a11.31,11.31,0,0,0-2.52,1A28.34,28.34,0,0,0,386.67,224.11Z" style="fill:#d08b73"/><g style="clip-path:url(#h)"><path d="M378.2,219.42s3.69-2.1,5-4.22l1.31-2.11L380,221Z" style="fill:#bc6c56"/></g><path d="M387.74,237.43a1.74,1.74,0,0,1,.18.27,1.22,1.22,0,0,1-.21-.23Z" style="fill:#d08b73"/><path d="M398,275.64a9.3,9.3,0,0,0,.26-1.8v-.17c0-1.26-.61-2.37-.9-3.74-.54-2.6,1.2,3.43-.12-18.66v0c0-4.18,3.8-7.26-.28-19.08a53.06,53.06,0,0,0-2.8-6.69c-.53-1.06-1.11-2.09-1.72-3.1-.09-.14,0-.53-.06-.64s-.19.15-.2.06c-.87.22-2.26-.48-3.07-.06-1,.36-2.36.66-3.31,1.11-3,1.45-5,4.79-7.81,6.62-1.21,3.69-5.47,6.57-3.8,15.15a79.38,79.38,0,0,1,1.51,8.85c.07.8.13,1.62.13,2.44,0,.42,0,.84-.05,1.26a24.87,24.87,0,0,1-.56,2.5c-.13.63-.22,1.26-.3,1.9,0,.23-.31,2.82-.34,3,1.35.24,2.95-1.84,4.27-1.5C386.19,265,392.59,270.34,398,275.64Zm-10.31-38.17,0,0a1.74,1.74,0,0,1,.18.27A1.22,1.22,0,0,1,387.71,237.47Z" style="fill:#faae26"/><g style="clip-path:url(#i)"><path d="M384.51,237.57s-4.23,11.7-4.86,17.63-.36,7.29-.36,7.29l6.66-3.06Z" style="fill:#d38309"/></g><path d="M392.41,221.74a43,43,0,0,1,4.42,9.15A32.7,32.7,0,0,1,399.2,241a19.25,19.25,0,0,1-.37,4.28c-.31,1.58-.93,3.09-1.19,4.68a19.76,19.76,0,0,0,0,4.14c.08,1.71.29,3.41.44,5.12a50.76,50.76,0,0,1,.16,5.23,14.85,14.85,0,0,1-.47,4c-.53,1.77.75,3.28.77,5.06a11.58,11.58,0,0,1-.65,3.64c-1.21,3.82-4.15-1.94-13.45-1.95-6.59,0-5.09-5-8.33-4.86l9.45-8.46Z" style="fill:#faae26"/><g style="clip-path:url(#j)"><path d="M394.68,239.55s-.54,24.38-1.08,26.18-17.1,4.7-17.1,4.7l14.22-10.19Z" style="fill:#d38309"/></g><path d="M346.07,318.36a15.09,15.09,0,0,1-.66,2.07,37.26,37.26,0,0,1-3.22,5.3c-1.21,1.84-2.33,3.75-3.56,5.59a3.55,3.55,0,0,1-2.49,1.82,5.43,5.43,0,0,1-1.61,0c-.32-.06-.66-.27-1-.3a1.55,1.55,0,0,0-.77.27c-.87.48-1.68,1.08-2.54,1.56s-1.58.69-2.36,1.06c-.25.12-.59.26-.68.55s.32.86.65,1c1,.54,2.47.32,3.55.33a52,52,0,0,0,6.95-.05,3,3,0,0,0,2-.87c.93-1.13,1.24-2.83,1.78-4.15a9,9,0,0,1,1.84-3.14,6.25,6.25,0,0,1,2.25-1.39c.29-.1.43-.19.56.11a5.27,5.27,0,0,1,0,1.86c0,1.07,0,6.48,0,6.86,0,.16-.08.55,0,.69s0,.07.26.13a2.93,2.93,0,0,0,1,0c.19-.14.09-1.23.1-1.53,0-1.07.1-2.14.19-3.21a35.37,35.37,0,0,1,.83-6.16,14.56,14.56,0,0,0,.86-4.76,6.25,6.25,0,0,0-.63-2.69,12.41,12.41,0,0,0-2.91-2.92Z" style="fill:#282e5b"/><path d="M389.48,217.88a34.66,34.66,0,0,0-6.41,2.2,9.92,9.92,0,0,0-3.68,2.35c-.92,1.11-1,2.77-1.34,4.11-.08.36-1.06,2.68-.23,2.84s1.8-1.11,2.21-1.5a24.86,24.86,0,0,1,5.43-4.14,12.06,12.06,0,0,1,4.83-1.54c.67,0,1.88.2,2.19-.62a4.7,4.7,0,0,0-.36-2.9,1.31,1.31,0,0,0-1.54-1A10.19,10.19,0,0,0,389.48,217.88Z" style="fill:#d38309"/><path d="M386.26,210.13a24.59,24.59,0,0,1,.77,3.81c.62,5-.78,6.47.36,8.51,1.53,2.71,4.8,1.55,6.3,4.41,1.1,2.09-.35,3.27.72,5.67s3.85,4.42,6.32,4c3.3-.59,5.5-5.58,4.57-9-1-3.78-5.33-3.82-6.3-8.1-.56-2.47.79-2.87.09-5.67-.8-3.25-2.81-3.53-3.5-6.73-.5-2.34.5-2.5.26-5.51-.11-1.42-.44-5.7-3.67-7.91a8.08,8.08,0,0,0-5.37-1.27,9.26,9.26,0,0,0-7.74-.81,8.93,8.93,0,0,0-5,5.1c-.44,1-1.08,3.11-.48,3.51.15.1.27,0,.53.05,1,.13,1.37,1.51,2,2.51a7,7,0,0,0,2.68,2.16c2.23,1.07,4.71.24,5.73-.17Z" style="fill:#282e5b"/><path d="M383.2,210.15a1.36,1.36,0,0,0,1.67,1.09c.92-.21,1.51-1.22,1.9-2a6.05,6.05,0,0,0,.75-3.33,1.75,1.75,0,0,0-2.94-1.26Z" style="fill:#d08b73"/><path d="M385,205.92c-.2.74.78.63.65,1.28s-.87.25-1,.8,1.4,1,1.77-.89S385.15,205.3,385,205.92Z" style="fill:#bc6c56"/><path d="M383.92,237.3c-.22.88-.5,2.11-.76,3.6a58.52,58.52,0,0,0-.72,8.28c-.07,2.55-.07,5.84.18,9.71-2.56,1.54-4.8,2.69-6.51,3.52a59.39,59.39,0,0,1-6.3,2.68,44,44,0,0,1-6.36,1.63c-.73.14-.76.59-.62,1.25.31,1.53,1.13,2.92,1.23,4.5.05.69,0,1.41.83,1.48,1.48.12,3.15-.69,4.52-1.13,2.37-.77,4.74-1.56,7.09-2.39s4.42-1.62,6.61-2.48,4.43-1.64,6.54-2.67c2.32-1.13,2.9-3.46,3.34-5.85.34-1.89.51-3.8.69-5.71l.93-10c.17-1.89.39-3.79.41-5.69a30.68,30.68,0,0,0-.84-7Z" style="fill:#faae26"/><path d="M362.76,267.25c-6.77-.36-2.63-3.79-10.67,1-.32.19-3.89,3.17-.77,2.6,5.26-1,6.31.59,9.54,1.18A9,9,0,0,0,364,272Z" style="fill:#d08b73"/><path d="M452.42,322.19s.38,4.8.51,6,1.3,2.46,1.3,4.67-12.59,4.28-12.59,4.28h-8.56l2.07-5.32s6.62-2.72,7.66-3.89,1.77-6.75,1.77-6.75Z" style="fill:#d08b73"/><g style="clip-path:url(#k)"><path d="M442,324.33s6.13,1.46,7.61,1.39,6.62,0,6.62,0l-2-5.51-17.36-.69Z" style="fill:#bc6c56"/></g><path d="M454.44,329.78a1.69,1.69,0,0,0-2.67-.94,34.86,34.86,0,0,1-3.68,2.56c-1.36.68-7.06.26-9.3.26s-3.64.13-3.64.13-6.65,2.47-8.11,2.56a1.57,1.57,0,0,0-1,2.76c1.07.94,27.74.85,27.74.85s2.24-1.56,1.75-3.61C455.31,333.27,454.83,331.35,454.44,329.78Z" style="fill:#282e5b"/><path d="M454.88,232s3.51,7.79,3.12,10.78-2.86,7.78-3.12,13.37-2.72,15.05-2.72,16.74.38,10.25.38,10.25,3.7,4.8,4.29,13.95,1.2,26.09,1.2,26.09a33.37,33.37,0,0,1-5.87,1.17c-1.76,0-8.57-1.95-8.57-1.95s.58-16.55,0-19.08-2.34-8.37-2.53-10.12-2.73-3.31-2.73-5.26-1.94-15.77-2.92-16.54-4.06-16.75-3.88-18.3.61,1-.09-3.7,0-7,0-7l.22-2.25s6.48-10,8.94-10.21S454.88,232,454.88,232Z" style="fill:#434e84"/><g style="clip-path:url(#l)"><path d="M433.43,242s4.73,7.89,11.65,8.54" style="fill:none;stroke:#282e5b;stroke-linecap:round;stroke-linejoin:round;stroke-width:0.9297019999999999px"/><path d="M445.67,239.5s-1.46,25-1.09,30.4,5.63,24.39,5.89,26.11,3.76,29.71,3.76,29.71" style="fill:none;stroke:#282e5b;stroke-linecap:round;stroke-linejoin:round;stroke-width:0.9297019999999999px"/><polyline points="459.23 236.61 454.56 237.99 442.57 239.5 426.04 244.05" style="fill:none;stroke:#282e5b;stroke-linecap:round;stroke-linejoin:round;stroke-width:0.9297019999999999px"/></g><path d="M447.88,176.56s-12.6,7.53-14.28,11.17-2.73,10.9-1.82,13S432,216,432,216l-.39,24.79s9.34-3.37,14.92-4.41,10.65-2.08,10.65-2.08-3.51-9.34-3.77-16.87,1.82-21.29.52-27S447.88,176.56,447.88,176.56Z" style="fill:#13b5a0"/><path d="M444.32,173.88c8.9-9.75-.22-19.71-4.08-24.2-2.77-3.22-15.95,3.49-16.48,4.1-.84,1-1.15,2.92,0,3.53s2.39.81,3.53,1.41c1.46,1.19,3,2.34,4.49,3.48-.31,1.09,1.61,2.43,2.35,4.34s4,1,4-2.08C438.18,163.55,443.35,174.29,444.32,173.88Z" style="fill:#282e5b"/><path d="M425.36,157.88a23.8,23.8,0,0,0-.85,4.14c-.08,1.31.46,1.31.85,2.56s-1.22,3.08-1.11,4.29a.86.86,0,0,0,.15.39c.51.79,2,.61,2.35.56,1,2.13,1.95,4.25,2.9,6.39a2.4,2.4,0,0,0,1,1.17c1.47.79,3.5-.67,4.16-1.15a9.06,9.06,0,0,0,3.29-4.87,9.88,9.88,0,0,0-.33-6.17l-2.7,1.14a25.1,25.1,0,0,0-1.81-4,1.79,1.79,0,0,0-.7-.76c-.71-.38-1.45.07-2-.82-.69-1.2-1.24-3.34-2.53-3.29S426.49,157.83,425.36,157.88Z" style="fill:#d08b73"/><path d="M449.15,178c-.77-.87-1.49-1.72-2.17-2.54a6.23,6.23,0,0,1-1.2-1.9,5.41,5.41,0,0,1-.31-1.58,4.2,4.2,0,0,1-.75-.85,4.31,4.31,0,0,1-.66-1.69c-.16-.73-.75-1.75-2.66-3,0-.3.4-3.23-1.37-4.74a4,4,0,0,0-1.59-.8c-2.86-.73-3.78,2.27-1.72,4.29a5.83,5.83,0,0,1,.71,7.49c-.77,1.22-1.21,2.15-1.56,2.55a6.93,6.93,0,0,1-.68.69,22.43,22.43,0,0,1-3.77,1.66c1.83-.75,4.07,1.14,5,3.14s-.07,3.79.66,4.42S440.84,184.89,449.15,178Z" style="fill:#d08b73"/><g style="clip-path:url(#m)"><polygon points="431.84 176.92 438.46 169.5 435.15 180.18 430.31 177.32 431.84 176.92" style="fill:#bc6c56"/></g><path d="M441.12,191l9.35,20.47c-2.06.29-10.25-11.63-9.35-14C441.91,195.49,441.12,191,441.12,191Z" style="fill:#148a77"/><path d="M455.66,194.67l5.65,18.3s1.75,2.82,1.16,4.19-5.45,7.3-5.45,7.3S445,237.18,444,238s-1,4.81-1.23,5.65-3.25,3.18-4.16,3.5-4.67-4.28-4.73-4.86.51-2.27.32-2.79-2.27.45-2.6-.52a2.31,2.31,0,0,1,1.69-2.47c.78,0,4.93.26,5.58-.26s13.11-20.5,12.72-22.06-2.33-2.53-3.11-4.28-5.07-14-5.07-14Z" style="fill:#d08b73"/><g style="clip-path:url(#n)"><path d="M445.69,202.36s4.32-3.46,5.61-3.85,5.92,1.21,5.92,1.21l-1.38-4.28s-4.64-1-6.32,0a49.36,49.36,0,0,0-5.19,4.2Z" style="fill:#bc6c56"/></g><path d="M447.87,176.18s6.75,5.71,8.05,10.12,1.3,11.94,1.3,11.94-2.92-2.21-4.29-1.82a29,29,0,0,0-6.23,3.21,5.79,5.79,0,0,1-1.55,1.08l-6-7.89s-4.22-5.48-3.57-6.65S438.53,180.33,447.87,176.18Z" style="fill:#13b5a0"/><g style="opacity:0.5;mix-blend-mode:multiply"><path d="M439.54,164.43c-.05-.09.24-.25.25-.54a1.27,1.27,0,0,0-.73-1,1.24,1.24,0,0,0-1.26.09c-.29.27-.6.45-.64.35s.06-.26.31-.66a1.53,1.53,0,0,1,1.87-.35,1.5,1.5,0,0,1,.89,1.69.71.71,0,0,1-.46.44C439.63,164.48,439.55,164.47,439.54,164.43Z" style="fill:#ee5f43"/></g><path d="M126.05,333.85c-.09-1.16-1-2-1.61-2.92a17.16,17.16,0,0,1-2.66-5.41,22.58,22.58,0,0,1-.73-4.79c0-1,.11-1.93.07-2.9A2.24,2.24,0,0,0,121,317c-.13-.22-.52-.2-.61-.32s0,0,0,0c.77-.86,1.5-1.77,2.25-2.65.34.15.62.31,1,.45a6.14,6.14,0,0,0,2.52.64c1.63-.08,2.8-1.9,3.67-2.9a73.89,73.89,0,0,0,11.7-17.49,51.23,51.23,0,0,0,3.08-10.19c.4-1.62.86-3.09,1.32-4.67a10.62,10.62,0,0,0,.45-2.47,8.58,8.58,0,0,0-.65-3.08c-11.72-8.53-23.44-14.5-37.73-18-5.92.32-15.92,2.13-20.15,5.06S84,266.71,83.27,270s0,4.84.72,7.49a10.13,10.13,0,0,0,3.22,5,7.05,7.05,0,0,0,4.44,1.23,40.69,40.69,0,0,0,8.86-1,180.81,180.81,0,0,1,18.86-2.87c1.5-.12,2.9.05,4.31,0s2.61-.31,4-.43a5.41,5.41,0,0,1,2.94.21,1.38,1.38,0,0,1,.72.75,1.33,1.33,0,0,1,0,.61,6.8,6.8,0,0,1-.67,1.83c-.57,1.34-1,2.56-1.64,3.9a39.15,39.15,0,0,1-4.65,7.35,53.38,53.38,0,0,1-6,6.68,41.63,41.63,0,0,0-6.06,6c-.41.57,0,1.21-.28,1.8h0L110.3,310c0-.07-.07-.16-.13-.23a1.23,1.23,0,0,0-1.4-.59,13.58,13.58,0,0,0-4.08,1.71,11.88,11.88,0,0,0-3.94,2.86,1.55,1.55,0,0,0-.24,1.66A10,10,0,0,0,102.7,318c2,2,4,3.94,6,6,3,3.11,6,6.3,9.32,9.15a18.87,18.87,0,0,0,4.18,2.83,3.21,3.21,0,0,0,2.18.4A2.4,2.4,0,0,0,126.05,333.85Z" style="fill:#282e5b"/><path d="M88.89,236a21.39,21.39,0,0,0,2.34,5.86,7.71,7.71,0,0,0,1.93,2.39,15.76,15.76,0,0,0,4.76,2.25c2.43.83,4.91,1.53,7.37,2.27,4,1.19,6,1.63,6.55,1.74a33.93,33.93,0,0,0,10.84.26,10.26,10.26,0,0,0,6.43,3.81,12.74,12.74,0,0,0,2.87.09,16.48,16.48,0,0,1,2.43-.12c1.24.1,2.37.69,3.59.89s2.35-.27,2.41-1.55c0-.24,0-.47-.79-1.45-.58-.77-1.09-1.38-1.47-1.81-1.62-.36-2.9-.7-3.71-.93-4.44-1.24-7-2-11.41-3h0c-.28-.05-.72-.13-1.24-.25-5.23-1.16-7-3-13.39-6.34-4.32-2.23-6.24-2.79-8.43-5.35a15.91,15.91,0,0,1-1.64-2.32Z" style="fill:#bc6c56"/><path d="M89.5,214.15c-.68-.05-.5-.2-2.58-.84a10.34,10.34,0,0,1-3.15-1.22,3.19,3.19,0,0,1-.92-1.72,4.21,4.21,0,0,1-3.69-6.82,7.74,7.74,0,0,1,3.46-10.45,6,6,0,0,1,1.88-5.18,5.72,5.72,0,0,1,6.13-.78,5.46,5.46,0,0,1,5.49-2.67,5.66,5.66,0,0,1,3.93,3,6.91,6.91,0,0,1,3.87,3.16c1.41,2.74.55,6.54-2.34,9.16a40.74,40.74,0,0,1-2.28,4.67,33.73,33.73,0,0,1-3.71,5.32C93.4,212.29,91.62,214.34,89.5,214.15Z" style="fill:#282e5b"/><path d="M145.85,324.08c-.24-1.11-.45-2.23-.64-3.35l-8.17-1.5-3.49,4.38.8,6.22,13.08-.18Z" style="fill:#d08b73"/><path d="M76.65,270.79A13.61,13.61,0,0,0,80.45,283a9.76,9.76,0,0,0,4.63,1.65,54.16,54.16,0,0,0,9.18.55c6.7-.05,13.33-.54,20-.15a35.88,35.88,0,0,0,4.75.1c1.5-.12,3-.42,4.46-.58a12.85,12.85,0,0,1,3.45,0,1.23,1.23,0,0,1,1,.56,1.88,1.88,0,0,1,.12.66c.08.8.13,1.6.2,2.4.15,1.75.33,3.49.51,5.24.35,3.38.83,6.73,1.3,10.09s1,6.54,1.21,9.83c.23,2.86.13,6,.94,8.77.23.76.58,1.55,1.47,1.55a13.68,13.68,0,0,0,3.13-.73c1.72-.4,3.44-.79,5.15-1.23a36.46,36.46,0,0,0,4.21-1.28,6.32,6.32,0,0,0,2.15-1.16c1-1,.43-3.07.27-4.3-.88-6.73-1.75-13.45-2.87-20.14-.6-3.55-1.26-7.09-1.72-10.66-.21-1.62-.29-3.24-.4-4.87a8.39,8.39,0,0,0-.48-2.48,12.57,12.57,0,0,0-1.73-2.91l-39.57-14.21s-16.32,0-20.47,3.05A12.87,12.87,0,0,0,76.65,270.79Z" style="fill:#0254a9"/><path d="M133.58,325.9a1.06,1.06,0,0,0-1.37.56,11.83,11.83,0,0,0-1.19,4.21,16.93,16.93,0,0,0-.27,5,1.67,1.67,0,0,0,1,1.46,9.58,9.58,0,0,0,3.46.32l8.5,0c4.31,0,8.69.25,13-.13a17.21,17.21,0,0,0,4.88-1,3.67,3.67,0,0,0,1.82-1.32,2.8,2.8,0,0,0-.52-3.28c-.81-.78-2.09-.81-3.13-1a24.15,24.15,0,0,1-5.87-1.79,18,18,0,0,1-4.3-2.62c-.76-.64-1.43-1.38-2.2-2a2.42,2.42,0,0,0-.8-.51c-.83-.23-1.15,1-1.46,1.54a3.85,3.85,0,0,1-1.52,1.45c-2.37,1.29-4.8.84-7.22,0C135.43,326.52,134.52,326.15,133.58,325.9Z" style="fill:#282e5b"/><path d="M84.19,215.4a16,16,0,0,0-1.65,3.35q-.89,2.15-1.62,4.35a70.53,70.53,0,0,0-2.44,9c-1.28,6.58-1.54,13.29-2,20-.19,3.15-.42,6.29-.64,9.44a14.94,14.94,0,0,0,1,7.1c.32.73,1,1.89,1.92,1.57a3.46,3.46,0,0,0,1.24-1,17.91,17.91,0,0,1,2.59-2.56c2.25-1.62,5.2-2.32,7.84-3,3.06-.83,6.19-1.27,9.27-2a18,18,0,0,0,1.93-.59c.54-5.09,1.06-10.18,1.73-15.25a37.57,37.57,0,0,0-1-15.6,29.28,29.28,0,0,0-3.32-7.37c-1.51-2.38-3.62-4.52-5.36-6.76l-8.34-1.8Z" style="fill:#12a189"/><g style="clip-path:url(#o)"><path d="M83.47,229.83c0,3.09.09,3.09.24,6.18.15,3.32.06,6.73,1,10,.86,3,2.86,6.48,6.36,6.5.86,0,4.17-.33,4.35-1.23,0-.27-.46-1.05-.57-1.31l-6.09-14.17a4.66,4.66,0,0,0-.26-.61Z" style="fill:#148a77"/></g><path d="M92.17,250.44A21.77,21.77,0,0,0,94,256.5a7.7,7.7,0,0,0,1.7,2.55,15.76,15.76,0,0,0,4.54,2.69c5.53,2.47,3.56,1.75,7.12,2.94a168.51,168.51,0,0,0,17.77,4.57c2.55,2.69,4.62,3.26,5.42,3.42a17.94,17.94,0,0,0,2.84.35,18.11,18.11,0,0,1,2.44.1c1.22.21,2.29.91,3.49,1.22s2.36,0,2.54-1.32a1.83,1.83,0,0,0-.65-1.52,13.6,13.6,0,0,0-4.45-3c-2.9-1-6.15-2-9.78-3a112,112,0,0,0-15.17-8.8c-1.91-.88-5.79-2.47-8.45-6.47a20.67,20.67,0,0,1-1.42-2.46Z" style="fill:#d08b73"/><g style="clip-path:url(#p)"><path d="M90.93,253.1s4.84-2.35,6.5-2.44,7.79-.65,7.79-.65L102,245.68l-10.83,3.71Z" style="fill:#bc6c56"/></g><path d="M96.21,217.05a6.3,6.3,0,0,1,1.64-2.32,8.48,8.48,0,0,1,3.27-1.41c.75-.23,1.46-.46,1.51-1.34,0-.08,1-5.84,1.09-5.92.29-.35,1-.29,1.35-.43,2.18-.77-.69-3.89-1.21-4.71s-.11-1.16-.12-2a4.22,4.22,0,0,0-.44-1.37A5,5,0,0,1,103,196a10.24,10.24,0,0,0-.11-1.1c-.63.33-.42-.08-1.1-.07s-1,.72-1.2,1.36A6.49,6.49,0,0,1,99.07,199a4.39,4.39,0,0,0-1.6,2.33c-.07.35.23,4.08-1.14,3.16-.68-.45-.62-2-.74-2.68a3.56,3.56,0,0,0-1.28-2c-.82-.8-1-2.33-2.5-1.92-2,.54-1,2.94-.71,4.23a5.15,5.15,0,0,0,1.17,2.47,1.5,1.5,0,0,0,1.66.09.91.91,0,0,0-.1.16c-.39.73.06,1.43.08,2.06,0,1-1.13,1.87-1.67,2.26a5,5,0,0,1-3.45.85,4.67,4.67,0,0,1-1.45,1.31,4.52,4.52,0,0,1-2.16.61Z" style="fill:#d08b73"/><g style="clip-path:url(#q)"><path d="M101.9,213.12c.32.45-5.24.36-7.76-3,.88,2.49,5.53,6.59,5.53,6.59Z" style="fill:#bc6c56"/></g><path d="M82.43,216c-.8-.23.7-2.33.89-2.6a3.42,3.42,0,0,1,2.46-1.55,7.55,7.55,0,0,1,3.88.79,33.46,33.46,0,0,1,6,4,16.14,16.14,0,0,1,4,3.95,4.26,4.26,0,0,1,.53,1.22,7.58,7.58,0,0,1,.17.93,4.29,4.29,0,0,1,.12,1.33c-.11.41-.31.12-.54-.13-.8-.87-1.44-1.88-2.17-2.81a16.69,16.69,0,0,0-4.9-4.18,10.83,10.83,0,0,0-4.6-1.57c-1.85-.13-3.56.54-5.38.65A1.76,1.76,0,0,1,82.43,216Z" style="fill:#148a77"/><path d="M83.44,229c1.42,5.08,2.61,10.23,4.08,15.29a14.6,14.6,0,0,0,2.13,5,4.52,4.52,0,0,0,1.9,1.29,3.74,3.74,0,0,0,.9.35c1,.2,1.68-.33,2.77-.83,1.92-.88,2-.27,4.15-1.21a8.54,8.54,0,0,1,2.26-1c.49-.08.92-.08,1.12-.39s-.09-1.11-.18-1.29a45.6,45.6,0,0,0-1.09-6.58c-1-5-1.7-10.18-3.49-15-.22-.62-.47-1.22-.73-1.83Z" style="fill:#12a189"/><path d="M93.51,202.05c-.17-.89-.9-.36-1.09-1.12s.58-.64.45-1.3-1.54-.5-1,1.71S93.66,202.8,93.51,202.05Z" style="fill:#bc6c56"/><rect x="79.07" y="284.11" width="37.66" height="7.19" rx="2.03" style="fill:#346ec1"/><path d="M70.05,261.32c0-6.12.15-12.16-.08-18.26A66.92,66.92,0,0,1,70.43,231c.26-1.76,1.44-9.79,4.93-8.28.67.29,1,1.25,1.09,1.7q-.24,18.47-.46,36.93a2.69,2.69,0,0,1-2.41,2.91H72.45A2.69,2.69,0,0,1,70.05,261.32Z" style="fill:#346ec1"/><path d="M69.89,240.6v38.64A11.74,11.74,0,0,0,81.63,291h28.91" style="fill:none;stroke:#034c8a;stroke-linecap:round;stroke-linejoin:round;stroke-width:3.4431000000000003px"/><rect x="94.07" y="291.3" width="2.93" height="41.97" style="fill:#034c8a;stroke:#034c8a;stroke-linecap:round;stroke-linejoin:round;stroke-width:0.9734729999999999px"/><rect x="91.72" y="310.48" width="7.62" height="14.35" style="fill:#034c8a;stroke:#034c8a;stroke-linecap:round;stroke-linejoin:round;stroke-width:0.9734729999999999px"/><path d="M121.17,334.68a46.22,46.22,0,0,0-51.28,0V332.3a47.72,47.72,0,0,1,51.28,0Z" style="fill:#034c8a;stroke:#034c8a;stroke-linecap:round;stroke-linejoin:round;stroke-width:0.9734729999999999px"/><path d="M73.17,334.68A3.28,3.28,0,1,0,69.89,338,3.28,3.28,0,0,0,73.17,334.68Z" style="fill:#034c8a;stroke:#034c8a;stroke-linecap:round;stroke-linejoin:round;stroke-width:0.9734729999999999px"/><path d="M124.45,334.68a3.28,3.28,0,1,0-3.28,3.28A3.28,3.28,0,0,0,124.45,334.68Z" style="fill:#034c8a;stroke:#034c8a;stroke-linecap:round;stroke-linejoin:round;stroke-width:0.9734729999999999px"/><path d="M98.63,334.68a3.1,3.1,0,1,0-3.1,3.1A3.1,3.1,0,0,0,98.63,334.68Z" style="fill:#034c8a;stroke:#034c8a;stroke-linecap:round;stroke-linejoin:round;stroke-width:0.9734729999999999px"/><rect x="187.79" y="278.81" width="37.66" height="7.19" rx="2.03" transform="translate(413.24 564.8) rotate(180)" style="fill:#346ec1"/><path d="M225.45,285.48H187.79" style="fill:none;stroke:#034c8a;stroke-linecap:round;stroke-linejoin:round;stroke-width:3.05337px"/><rect x="205.15" y="286" width="2.93" height="47.27" transform="translate(413.24 619.27) rotate(180)" style="fill:#034c8a;stroke:#034c8a;stroke-linecap:round;stroke-linejoin:round;stroke-width:1.03312px"/><rect x="202.81" y="310.48" width="7.62" height="14.35" transform="translate(413.24 635.31) rotate(180)" style="fill:#034c8a;stroke:#034c8a;stroke-linecap:round;stroke-linejoin:round;stroke-width:0.9734729999999999px"/><path d="M181,334.68a46.22,46.22,0,0,1,51.28,0V332.3a47.72,47.72,0,0,0-51.28,0Z" style="fill:#034c8a;stroke:#034c8a;stroke-linecap:round;stroke-linejoin:round;stroke-width:0.9734729999999999px"/><path d="M229,334.68a3.28,3.28,0,1,1,3.28,3.28A3.28,3.28,0,0,1,229,334.68Z" style="fill:#034c8a;stroke:#034c8a;stroke-linecap:round;stroke-linejoin:round;stroke-width:0.9734729999999999px"/><path d="M177.7,334.68A3.28,3.28,0,1,1,181,338,3.28,3.28,0,0,1,177.7,334.68Z" style="fill:#034c8a;stroke:#034c8a;stroke-linecap:round;stroke-linejoin:round;stroke-width:0.9734729999999999px"/><path d="M203.52,334.68a3.1,3.1,0,1,1,3.1,3.1A3.1,3.1,0,0,1,203.52,334.68Z" style="fill:#034c8a;stroke:#034c8a;stroke-linecap:round;stroke-linejoin:round;stroke-width:0.9734729999999999px"/><path d="M227.64,319.93s-3,8.87-3.46,12.75.55,5.82,1.73,5.82,12.68-.93,12.68-.93a21.8,21.8,0,0,0,1.94-3.64c0-.56-2.36-6.24-2.36-8s-1.66-6-1.66-6Z" style="fill:#282e5b"/><path d="M177.06,319.93V327s-6.24,5.82-6.24,7.76,2.56,3.48,4.36,3.2,10.93.25,11.76-.58S188,326.44,188,326.44l-1.38-6.51Z" style="fill:#282e5b"/><path d="M191.61,257.57s-8.32,3.88-11.37,8.17-4.15,3.88-5.54,5.69a4.57,4.57,0,0,0-.69,5.4c1,2.22,1.52,40.75,1.52,40.75v5.26a18.37,18.37,0,0,1,4.75-.83c1.52.14,5.65.83,7.17,1.11s1-4.71,1-4.71l1.25-4s1.11-26.19,1.94-28.41,7.76-6.1,7.76-6.1,0-1.11,7.48,0,14.69-2.49,16.36-.55,1.94,11.64,1.94,16.9.55,8.87,0,11.92,1.1,11.09,1.38,12.2a8.89,8.89,0,0,1,.19,2.4,7.89,7.89,0,0,1,4.25-1c2.77,0,7.48-.27,7.48-.27s-1.94-6.38,0-10.54,2.77-19.68,2.77-24.11,1.94-13,0-16.35-20.51-12.89-20.51-12.89Z" style="fill:#434e84"/><g style="clip-path:url(#r)"><path d="M199.37,279.88s-9.43,5.75-12.34,5.75,3.33.62,3.88,6.33C191.21,295.17,199.37,279.88,199.37,279.88Z" style="fill:#282e5b"/><path d="M197.78,315.46s-9.42,2.18-12.33,2.18,3.32.24,3.87,2.4C189.63,321.26,197.78,315.46,197.78,315.46Z" style="fill:#282e5b"/><path d="M222,278.81s5.5,3.29,8.41,3.29-5.54,1.95-5.54,5.17S222,278.81,222,278.81Z" style="fill:#282e5b"/><path d="M222,310.91s5.5,3.28,8.41,3.28-5.54,2-5.54,5.18S222,310.91,222,310.91Z" style="fill:#282e5b"/></g><path d="M199.51,208.72c-8.25,3.33-18.27,5.71-20.71,15.3-.6,2.35-.91,4.77-1.54,7.12-.44,1.61-2.13,4.2-1.34,5.87,1.08,2.25,6.69,2.93,8.83,3.1l14.76,24,19.12-4.57,11.09-21.07,3.46-1s2.08.21,2.08-.9c0-2.7-1.19-5.76-1.8-8.37-.89-3.82-1.26-8.69-3-12.19-2-4-7.16-4.19-11.07-5.14-2.93-.71-5.87-1.41-8.82-2.08Z" style="fill:#4485f4"/><g style="clip-path:url(#s)"><path d="M189.74,239.38s.88.33,1.19-.83a61.4,61.4,0,0,0,1.51-11.61c-.14-2.36,1,10.12,0,13.86a14.08,14.08,0,0,1-3.19,6Z" style="fill:#034c8a"/><path d="M222.16,239.53a1,1,0,0,1-.73-.78c-.39-2.29-1.7-10.16-1.58-12.17.13-2.36-1,10.12,0,13.86a14.21,14.21,0,0,0,3.19,6l-.24-6.71Z" style="fill:#034c8a"/><ellipse cx="205.34" cy="213.08" rx="10.25" ry="9.15" style="fill:none;stroke:#034c8a;stroke-miterlimit:10;stroke-width:0.903384px"/></g><path d="M198.12,209.06c-.21.05,0,5.26,0,5.72a4.18,4.18,0,0,0,.27,2.11,5.92,5.92,0,0,0,4.49,3.25,9.81,9.81,0,0,0,10.77-4.84v-10Z" style="fill:#d08b73"/><g style="clip-path:url(#t)"><path d="M196.8,213.91c3.12,2.08,5.7,2.91,9,2.6s9.82-6.61,9.82-6.61l-1.29-4.58-17.57,2.46Z" style="fill:#bc6c56"/></g><path d="M194.24,189s-.28,12.61,0,16.35,4.44,8,7.07,8.45,5.68,1.81,7.21,0,5.4-4.15,6.09-7.2-.27-11.64,0-12.61-.69-8-2.21-9.43-6-1.8-7.91-1.8S195.49,183.7,194.24,189Z" style="fill:#363a68"/><path d="M197.15,193s-1.38,6.09-1.25,8,.14,5.69,1.81,5.55,3.46-4.16,6.65-4.16,4.57,3.33,6.65,3.19,2.49-2.5,2.63-6.38-3-10.25-5-10.25-1.25,1.94-3.88,1.94S202,189,200.2,189,197.15,193,197.15,193Z" style="fill:#d08b73"/><path d="M222.79,239.69s2-3.08,4.52-3.29a50.19,50.19,0,0,1,6.86.22l-2.65,16.58s.83,1.87.21,2.81-3.74,2.08-3.74,2.08L211,268h-1.45l-.83-2-2.29-.42L204.7,268h-2.07v-6l3.22-2,2.39,1.56s11.22-6.95,12.68-8.88l1.45-1.93Z" style="fill:#d08b73"/><g style="clip-path:url(#u)"><path d="M220.16,243.71s3.6-4,7.2-4.3,9.29-.14,9.29-.14l.55-4.29-11.5-1.39-7.3,6.79Z" style="fill:#bc6c56"/></g><path d="M189.74,239.38l.41,11.12,12.48,11.43v6h2.07l1.77-2.39,2.29.42.83,2s2.6.63,2.81,1.35-1.46,6-2.29,6.24-6.65-.52-6.65-.52l-5.1-3.43s.21-6.24,0-7.17-14.44-6.76-15.8-8.42c-.56-.7-.84-2-1.55-4.57a107.7,107.7,0,0,1-3.09-14c1.1-.28,3,0,4.44-.05C185.69,237.26,188,238.72,189.74,239.38Z" style="fill:#bc6c56"/><g style="clip-path:url(#v)"><path d="M177.61,236.85v3.05a60.89,60.89,0,0,1,6.51-.56c1.18.14,6.38,1.94,6.38,1.94l1.25-2.77S179.05,236.38,177.61,236.85Z" style="fill:#bc6c56;opacity:0.5;mix-blend-mode:multiply"/></g><rect x="125.25" y="254.79" width="232.38" height="8.13" rx="3.06" style="fill:#c4422b"/><path d="M354.57,261.15H128.31a3.06,3.06,0,0,1-3.06-3.06v1.77a3.06,3.06,0,0,0,3.06,3.06H354.57a3.06,3.06,0,0,0,3.06-3.06v-1.77A3.06,3.06,0,0,1,354.57,261.15Z" style="fill:#c4422b;opacity:0.5;mix-blend-mode:multiply"/><path d="M318.37,262.92l.95,1.63a5.45,5.45,0,0,0,4.72,2.72h10.68l-.44-4.35Z" style="fill:#434e84"/><polygon points="334.72 267.27 341.84 338.08 345 338.08 345 262.92 334.28 262.92 334.72 267.27" style="fill:#282e5b"/><path d="M148.16,267.27h10.68a5.45,5.45,0,0,0,4.72-2.72l.95-1.63H148.6Z" style="fill:#434e84"/><polygon points="137.88 262.92 137.88 338.08 141.03 338.08 148.6 262.92 137.88 262.92" style="fill:#282e5b"/><polygon points="186.95 252.51 161.99 252.51 171.23 222.42 196.2 222.42 186.95 252.51" style="fill:#434e84"/><polygon points="189.03 252.51 164.06 252.51 173.31 222.42 198.28 222.42 189.03 252.51" style="fill:#282e5b"/><rect x="137.88" y="251.61" width="45.83" height="3.18" style="fill:#434e84"/><rect x="160.8" y="251.61" width="26.36" height="3.18" style="fill:#282e5b"/><path d="M184,238c.36-1.66-.12-3.27-1.09-3.59s-2,.78-2.4,2.44.12,3.27,1.08,3.58S183.62,239.7,184,238Z" style="fill:#bec6c4"/><rect x="218.27" y="222.42" width="38.04" height="30.08" style="fill:#434e84"/><rect x="219.49" y="222.42" width="39.99" height="30.08" style="fill:#282e5b"/><rect x="219.64" y="252.51" width="38.6" height="2.28" style="fill:#282e5b"/><path d="M242,237.46a3,3,0,1,0-3,3A3,3,0,0,0,242,237.46Z" style="fill:#bec6c4"/><polygon points="303.96 252.51 328.93 252.51 319.69 222.42 294.72 222.42 303.96 252.51" style="fill:#434e84"/><polygon points="301.88 252.51 326.85 252.51 317.61 222.42 292.64 222.42 301.88 252.51" style="fill:#282e5b"/><rect x="307.2" y="251.61" width="45.83" height="3.18" transform="translate(660.24 506.4) rotate(180)" style="fill:#434e84"/><rect x="303.76" y="251.61" width="26.36" height="3.18" transform="translate(633.88 506.4) rotate(180)" style="fill:#282e5b"/><path d="M306.93,238c-.36-1.66.12-3.27,1.09-3.59s2,.78,2.4,2.44-.12,3.27-1.09,3.58S307.3,239.7,306.93,238Z" style="fill:#bec6c4"/><line x1="18" y1="338.86" x2="507.64" y2="338.86" style="fill:none;stroke:#434e84;stroke-linecap:round;stroke-linejoin:round;stroke-width:4.2869600000000005px"/></g></svg>