<svg xmlns="http://www.w3.org/2000/svg" viewBox="0 0 544 362"><title>teacher-signup</title><path d="M491.45,34a13.2,13.2,0,0,0-2.74-7.8h0a14,14,0,0,0-1-1.17l-.06-.06a13.77,13.77,0,0,0-1.11-1h0a14.39,14.39,0,0,0-2.63-1.73l-.12-.06a12.54,12.54,0,0,0-1.24-.54l-.39-.14c-.34-.12-.69-.22-1.05-.32l-.48-.12c-.35-.08-.71-.14-1.07-.19l-.47-.07a13.34,13.34,0,0,0-1.56-.09h-411a13.3,13.3,0,0,0-1.55.09l-.46.07c-.36.05-.72.11-1.07.19l-.48.12c-.35.09-.7.19-1,.31l-.39.14c-.4.15-.79.32-1.18.51l-.16.07a14.07,14.07,0,0,0-4.78,3.94h0A13.27,13.27,0,0,0,52.55,34L47.27,307.25a13.75,13.75,0,0,0,2.58,8.31h0a13.83,13.83,0,0,0,4.75,4.14l.17.08c.39.2.79.38,1.19.54l.4.14a9.82,9.82,0,0,0,1,.33l.49.13c.35.08.72.14,1.09.2l.47.07a13.85,13.85,0,0,0,1.59.1H483a14.35,14.35,0,0,0,1.61-.1l.47-.07c.37-.06.74-.12,1.1-.21l.48-.13c.37-.09.72-.21,1.07-.33l.4-.15c.42-.17.84-.36,1.24-.57l.12-.05a13.74,13.74,0,0,0,2.63-1.83h0a14.27,14.27,0,0,0,1.1-1.1l.06-.07a12.89,12.89,0,0,0,1-1.23h0a13.7,13.7,0,0,0,2.5-8.19Z" style="fill:#dbd3b9"/><rect x="52.81" y="11.03" width="438.39" height="300.62" rx="13.69" style="fill:#de8c6f"/><path d="M477.51,11h-411a13.65,13.65,0,0,0-11,5.58L262.25,161.34h.24L488.6,16.72A13.65,13.65,0,0,0,477.51,11Z" style="fill:#cb7450"/><path d="M66.49,311.65h411A13.63,13.63,0,0,0,488.6,306L262.49,161.34h-.24L55.48,306.06A13.66,13.66,0,0,0,66.49,311.65Z" style="fill:#cb7450"/><path d="M357.81,222.3c-1.45.84-2.95,1.82-4.32,2.76,1.22-.93,2.54-2,3.82-3.08l-5.51-3.53c-3.6,2.82-6.77,5.61-7.51,6.26.74-.66,3.88-3.49,6.92-6.63l-5.42-3.47c-4.06,3.69-7.54,7.59-7.54,7.59,3.87-10.07-.8-12.91-2.55-12.35s-1.65,7.2-6.58,12.51a10.78,10.78,0,0,0-2.5,9.79l-3.23,2c-.7-1.14-1.15-1.83-1.15-1.83l-3.11,2.12a4.4,4.4,0,0,0-5-1.1c-18.75,8-42.41,20.79-42.41,20.79-21.44-30.06-43-47.8-49.81-53a7.24,7.24,0,0,0-3.78-2.87l-5.62-2.14L90.11,281.82c-.88,4.88-1.55,9.5-2,13.69h0c-.31,3-.49,5.83-.55,8.35,0,.1,0,.22,0,.32,0,.38,0,.74,0,1.1,0,.16,0,.32,0,.48,0,.33,0,.64,0,1s0,.36,0,.53,0,.57,0,.85,0,.38,0,.56l.06.75c0,.19,0,.38,0,.57s0,.44.07.66,0,.38.07.56l.06.44H217.12l3.82-65.74,0,0c4,5.33,17.12,22.23,30.35,32h0c1.45,1.07,2.9,2.06,4.34,2.94l.06,0,1,.58.22.12c.27.15.54.31.82.45l.29.16.74.38.34.16.68.33.37.16.65.28.39.16.62.23.4.15.6.2.41.13.58.16.41.11.58.13.39.08.6.1.36.05.64.07.31,0,.93,0c.56,0,1.14,0,1.72-.06l.6,0,1.17-.11.72-.09c.37,0,.73-.1,1.1-.16l.77-.12c.54-.09,1.09-.2,1.64-.31l1.15-.26.66-.16,1.24-.32.52-.14c18.82-5.22,41-20.62,47.35-26.61a4.33,4.33,0,0,0,1.14-4.59c-.05-.16-.12-.34-.18-.51l3.47-2.48c-.29-.75-.6-1.52-.94-2.29l5.86-3.57a25.14,25.14,0,0,0,6.87-.53c8.66-1.62,23.31-13.7,21.82-15.66s-16.35,6.92-16.35,6.92,8.67-5.19,13.37-9.31ZM128.32,308.05c-6-1.66-9.62-2.48-9.62-2.48A299.83,299.83,0,0,0,133,272.51q.35,3.44.7,6.88l0,.45c.18,1.76.37,3.52.55,5.28Z" style="fill:#aa6042"/><rect x="72.36" y="29.27" width="399.28" height="264.12" rx="12.22" style="fill:#007c68"/><path d="M459.43,29.27H84.57A12.22,12.22,0,0,0,72.36,41.49V281.18A12.22,12.22,0,0,0,84.57,293.4H459.43a12.22,12.22,0,0,0,12.21-12.22V41.49A12.22,12.22,0,0,0,459.43,29.27Zm4.82,244.86a12,12,0,0,1-12.06,11.39H91.81a12,12,0,0,1-12.06-11.39l-7-232.52A11.85,11.85,0,0,1,84.59,29.28H459.41a11.85,11.85,0,0,1,11.85,12.33Z" style="fill:#006354"/><path d="M452.88,32.79H91.12A11.79,11.79,0,0,0,79.33,44.58V86.17c42.87,28.69,113.19,47.4,192.67,47.4s149.8-18.71,192.67-47.4V44.58A11.79,11.79,0,0,0,452.88,32.79Z" style="fill:#fff;opacity:0.1"/><path d="M121.15,147l-2.88,1.61,2.31,1.07a4.06,4.06,0,0,1,2.57,4.62,15.81,15.81,0,0,1-4.93,9.14,3.88,3.88,0,0,1-.68.42l-.3-.21c.37-.64.71-1.31,1.11-1.94.61-.93,1.26-1.84,1.9-2.75a11.67,11.67,0,0,0,2.06-5.39,2.56,2.56,0,0,0-1.89-3.18c-.61-.22-1.23-.4-1.86-.56-1.39-.36-1.62-.95-.79-2.09a3.74,3.74,0,0,0,.23-.44c-.08-.1-.11-.19-.16-.21-2.7-1.1-3-2.07-1.49-4.58.74-1.23,1.54-2.44,2.17-3.72a10,10,0,0,0,1-2.95c.34-2.3-.42-3.25-2.72-3.36a22.71,22.71,0,0,0-3.26.35,3.36,3.36,0,0,1-.81-.14l-.06-.42a5.88,5.88,0,0,1,1.7-.57,15.2,15.2,0,0,1,3.43.29,3.65,3.65,0,0,1,2.7,5,22.86,22.86,0,0,1-1.86,3.74c-.62,1.14-1.39,2.2-1.92,3.37-.59,1.33-.13,2,1.32,2.08.49,0,1-.08,1.5,0a15.72,15.72,0,0,1,1.75.49Z" style="fill:#fff"/><path d="M92.29,148.46c2,1.64,2.06,2.07.77,4.24-.3.49-.6,1-.86,1.5-1.62,3.22-.78,5.85,2.39,7.58a7.47,7.47,0,0,1,.85.63l-.09.29a8.26,8.26,0,0,1-1.57-.52,6.4,6.4,0,0,1-2.41-8.77c.41-.73.84-1.43,1.2-2.18.64-1.32.39-1.72-1.1-1.85-.43,0-.86,0-1.29,0a8.65,8.65,0,0,1-.86-.16l0-.31,1-.61a24.66,24.66,0,0,0,2.58-1.53,1,1,0,0,0-.07-1.71l-.08-.07c-2.71-2.4-2.82-4.91-.12-7.33a19.56,19.56,0,0,1,3.77-2.27c.28-.15.72,0,1.09,0l.09.27a8.64,8.64,0,0,1-1.12.6A6.82,6.82,0,0,0,92,140.13a3.35,3.35,0,0,0,.77,3.94l.46.46c1.74,1.58,1.65,2.41-.37,3.59Z" style="fill:#fff"/><path d="M104.78,155.54c-1.55-1.31-3-.08-4.42-.34l-.22.34c1,1,1.9,2,2.89,3,1.19-.81,1.73-2.48,3.28-2.53l.19.29a15.34,15.34,0,0,0-1.37,1.3,3.76,3.76,0,0,0-1,3.54,9.51,9.51,0,0,1-.18,3.59c-.14.8-.81,1.59-1.67,1.3a2.05,2.05,0,0,1-1-1.67,14.78,14.78,0,0,1,1-4c.34-.87.39-1.41-.36-2-.94-.78-1.8-1.65-2.68-2.51-.48-.47-.42-1,.27-1.11,1.55-.31,3.11-.57,4.67-.75a1.35,1.35,0,0,1,1,.6C105.27,154.71,104.93,155.17,104.78,155.54ZM102,164.81l.41.1a3.12,3.12,0,0,0,.43-4.12Z" style="fill:#fff"/><path d="M100.25,141.19c1.68.54,1.66.54,1.78-.94a18.31,18.31,0,0,1,.37-2.66c.07-.29.48-.51.73-.77.17.31.49.63.48.93-.12,3-.29,6-.49,9,0,.31-.36.59-.55.89a3.32,3.32,0,0,1-.43-1c-.1-1.18-.1-2.36-.18-3.54s-1.23-.92-1.91-1c-1.19-.11-1.32-.15-.81-1.25a16.66,16.66,0,0,1,1.1-2.09c.14-.22.58-.24.88-.36a2.72,2.72,0,0,1,0,.86C100.93,139.94,100.59,140.52,100.25,141.19Z" style="fill:#fff"/><path d="M109.66,163.72a1.86,1.86,0,0,1-.85-2.25c.4-1.45.91-2.87,1.43-4.28.37-1,.83-1.95,1.39-3.22a17.59,17.59,0,0,0-2.52.2c-.27.06-.43.55-.66.83a7,7,0,0,1-.54.55c-.17-.24-.5-.52-.46-.73a1.49,1.49,0,0,1,.55-1,3.8,3.8,0,0,1,3.69-.36,1.05,1.05,0,0,1,.67,1.4,8.85,8.85,0,0,1-.54,1.52A15.31,15.31,0,0,0,109.66,163.72Z" style="fill:#fff"/><path d="M99.44,151.27c2.07-2,8.61-2.51,10-1.17Z" style="fill:#fff"/><path d="M106.23,138c0-1,.79-2.18,1.53-2.23s2.15.92,2.18,1.58a3,3,0,0,1-2.22,2.34A1.71,1.71,0,0,1,106.23,138Zm2.82-.84c-1.68-.28-2.06.2-1.57,1.85Z" style="fill:#fff"/><path d="M359.47,142.31c-1.12,1.09-2.56,1.35-4.13,1.76,0,.53-.1,1.18-.19,2.14l3.2-.68.17.27a22.56,22.56,0,0,1-2.44,1.47c-.6.27-.67.5-.42,1a1.92,1.92,0,0,0,2.81,1.14c1.49-.75,3.14-1.45,3.14-3.63a25.87,25.87,0,0,1,.51-3.8c0-.19.26-.34.4-.51.14.14.4.29.39.42-.06.67-.18,1.34-.29,2l-.36,2,.32.07a6.5,6.5,0,0,1,.24-1.08c.46-1.19.92-2.38,1.47-3.54.11-.23.57-.31.87-.46.09.33.34.72.24,1-.44,1.2-1,2.35-1.48,3.54-.25.61-.43,1.24-.73,2.11,1.31-.17,2.22-.33,3.14-.39s1.76,0,2.64,0l.07.28a5.64,5.64,0,0,1-.78.29c-1.29.32-2.6.56-3.87,1-.39.11-.67.57-1,.9s-.56.65-.84,1a7.79,7.79,0,0,1-.88-.84c-.32-.41-.56-.87-.79-1.22a28.21,28.21,0,0,1-2.78,1.91c-1.68.9-2.95.37-3.53-1.43a8.83,8.83,0,0,1,.07-5.31c.13-.44.31-1,1-.55.09.06.43-.18.62-.32A3.78,3.78,0,0,1,359.47,142.31Zm4,2.12a3.47,3.47,0,0,0,1.29-2.29l-.43-.14C364.08,142.81,363.79,143.62,363.5,144.43Z" style="fill:#fff"/><path d="M354.1,142a7.69,7.69,0,0,1-1.35.85,1.73,1.73,0,0,0-1.29,1.76,7,7,0,0,0,.88,4.16,3.18,3.18,0,0,1,.12,1.14c-.37-.2-.89-.3-1.07-.6a7.66,7.66,0,0,1-.78-4.71c0-.27.06-.54.09-.79-1-.51-2.19,1.23-3.07-.34-.58.26-1.17.53-1.77.78-1.51.65-1.55.73-1.31,2.72L348,146c-.81,1.34-2.18,1.6-3.38,2.09.26,2,1.07,2.47,2.76,1.7a16.6,16.6,0,0,1,2.44-1.07,16.21,16.21,0,0,1-1.41,1.22c-1,.73-2.15,1.6-3.45.91s-1.23-2.1-1.27-3.36c0-.57.12-1.15.1-1.72a19,19,0,0,0-.34-1.92,5.41,5.41,0,0,1,1.07-.54,20.2,20.2,0,0,1,3-.72C349.62,142.36,351.7,142.21,354.1,142Z" style="fill:#fff"/><path d="M340.5,144.9c-.21.87-.38,1.75-.65,2.6a5.82,5.82,0,0,1-.64,1.13,8.3,8.3,0,0,1-.74-1c-.39-.75-.72-1.53-1.08-2.29l-.36,0c-.08,1.9-.17,3.8-.25,5.82-1.47-1.09-2-6.71-.91-7.46l.12,2.52.34,0c.26-1.27.51-2.53.77-3.8l.34,0c.54,1.44,1.09,2.87,1.74,4.59.86-1.73.66-3.5,1.75-4.73l.37,0c.18,1.38.27,2.78.57,4.14s.82,2.61,1.09,4a3.35,3.35,0,0,1-1.66-2.61c-.22-1-.37-2-.55-3Z" style="fill:#fff"/><path d="M320.13,153.11a6.35,6.35,0,0,0,.49-1.86c-.1-1.75-.32-3.5-.55-5.24a1.15,1.15,0,0,0-.62-.82c-.72-.22-.63-.56-.3-1a3.35,3.35,0,0,1,3.36-1.51,2.81,2.81,0,0,1,2.29,2.43,6.87,6.87,0,0,1-3.91,7.84A3.66,3.66,0,0,1,320.13,153.11Zm1.32-1.26a5.44,5.44,0,0,0,2.41-7,2.22,2.22,0,0,0-2.22-1.21c-.71,0-1.08.3-.9,1.08a15.64,15.64,0,0,1,.3,1.92C321.19,148.33,321.31,150,321.45,151.85Z" style="fill:#fff"/><path d="M332.16,143.3l1.83,7.14-.46.21-1-1.45a8,8,0,0,0-1.7.64c-.23.16-.17.74-.29,1.11a10.47,10.47,0,0,1-.38,1,8.77,8.77,0,0,1-.39-1c-.15-.52-.27-1.05-.39-1.58,0-.17-.09-.43,0-.51,1.24-1.12.91-2.8,1.51-4.15.23-.52.53-1,.8-1.53Zm-1.6,5.33c.87-.17,1.81.22,1.75-.87a15.91,15.91,0,0,0-.59-2.77l-.29,0C331.16,146.11,330.89,147.26,330.56,148.63Z" style="fill:#fff"/><path d="M327.37,144.43c.42,2.38.81,4.66,1.21,6.95l-.47.13a3.86,3.86,0,0,1-.43-.83c-.37-1.46-.72-2.92-1-4.39C326.48,145.56,326.47,144.85,327.37,144.43Z" style="fill:#fff"/><path d="M437.05,154c-4.33.73-8.54,1.4-12.73,2.15-2.12.38-4.22.88-6.31,1.4a1.21,1.21,0,0,0-.69.84c-.41,2.63-.73,5.26-1.14,7.89a10.33,10.33,0,0,1-.69,1.8c-.4-.65-.64-1-.84-1.35-.67-1.23-1.35-2.46-2-3.69a1.13,1.13,0,0,1,0-1.52c.19.13.46.21.57.39.47.81.89,1.65,1.33,2.47.2.36.4.72.75,1.32a30.34,30.34,0,0,0,1.11-8.26c0-.31.31-.86.54-.9q8.28-1.54,16.56-3a11.59,11.59,0,0,1,2.69.08A3.74,3.74,0,0,1,437.05,154Z" style="fill:#fff"/><path d="M405.11,166.75l5.68.5c-.31,1-1,.91-1.55.89-1.25,0-2.51-.13-3.77-.13-.53,0-1.05.24-1.58.28a3.37,3.37,0,0,1-.95-.23,4.33,4.33,0,0,1,.36-.82c.91-1.33,1.89-2.61,2.73-4a4.51,4.51,0,0,0,.54-1.95,1.45,1.45,0,0,0-.46-1.18c-.29-.14-.87.15-1.22.4a10.78,10.78,0,0,0-1.22,1.22c-.58-1-.08-1.5.36-2a1.84,1.84,0,0,1,2.19-.73c.56.28,1.24,1,1.25,1.52a7.71,7.71,0,0,1-.62,3A32,32,0,0,1,405.11,166.75Z" style="fill:#fff"/><path d="M428.94,159.79a1.84,1.84,0,0,1,0,.66,6.26,6.26,0,0,0,0,4.77.75.75,0,0,1,0,.53c-.33.51-.71,1-1.07,1.47-.39-.33-1-.6-1.11-1a5.16,5.16,0,0,1,0-2.28,1.61,1.61,0,0,0-.43-1.83,3.44,3.44,0,0,1-.35-.41c-.53-.61-1-1.23-.6-2.12a2.92,2.92,0,0,1,2.56-1.51C429.05,158.15,429.07,158.88,428.94,159.79Zm-.83-.65-.47-.32c-.46.42-1.19.78-1.31,1.28s.48,1,.76,1.56l.42-.07Z" style="fill:#fff"/><path d="M422.5,167.72c-.26-.73-.54-1.45-.75-2.19a4.53,4.53,0,0,1-.18-1.27c0-.91-.3-1.18-1.19-.78-.2.09-.87-.26-.85-.32a21.29,21.29,0,0,1,1.07-4c.88,1-.25,2,.34,3.15.19-.3.5-.58.55-.91.14-.88.14-1.79.27-2.68,0-.26.31-.48.48-.72a2.81,2.81,0,0,1,.41.86c.14,2.75.25,5.51.36,8.27,0,.15-.11.31-.17.47Z" style="fill:#fff"/><path d="M435.16,156.39c-.33.43-.63.89-1,1.28-2.79,3-2.56,6.88.57,9.31.28.23.54.5.81.74l-.15.27a3.89,3.89,0,0,1-.84-.25,6.21,6.21,0,0,1-2.62-8.42,16.36,16.36,0,0,1,1.7-2.6c.27-.34.81-.47,1.23-.7Z" style="fill:#fff"/><path d="M441,154.52a3.63,3.63,0,0,1,1.08.38c1.82,1.46,3.18,3.18,3.25,5.67,0,.83.44,1.66.43,2.49a3.92,3.92,0,0,1-2.33,3.9q3.68-7.19-2.6-12.12Z" style="fill:#fff"/><path d="M438.53,165.24a5.51,5.51,0,0,1-.7-1.63,31.08,31.08,0,0,1,0-4c0-.27.35-.53.53-.8.14.29.4.57.41.85,0,1.8,0,3.59,0,5.39Z" style="fill:#fff"/><path d="M256.21,135.91c-.54,0-1.08.1-1.62.1l-7.49,0c-.27,0-.55-.07-.82-.1l-.08-.33a7.24,7.24,0,0,1,1.51-.88c2.07-.58,3-2.18,3.73-4,.4-1-.15-1.65-1.24-1.42a12.24,12.24,0,0,0-2.16.91c-.35.15-.71.27-1.25.48.64-1.5,3.41-2.91,4.61-2.49a1.42,1.42,0,0,1,.8,2,21.62,21.62,0,0,1-1.53,3,8.31,8.31,0,0,1-.78,1l6.31,1.08Z" style="fill:#fff"/><path d="M204.84,141.64c.11,0,.16-.07.18,0,2.27,1.13,2.71.87,3-1.72a11.61,11.61,0,0,0-.83-5.26c-.39.66-.63,1.16-.93,1.61-.81,1.18-1.9,1.14-2.65-.09a3.59,3.59,0,0,1-.18-3.58,8,8,0,0,1,.29,1.19c0,1.27.68,2.29,1.42,2.2s1.46-1.41,1.29-2.56c0-.33-.06-.66-.09-1l.41-.15a24,24,0,0,1,1.37,3,11.14,11.14,0,0,1,0,6.9c-.26.75-.7,1.36-1.63,1.3a1.78,1.78,0,0,1-1.68-1.29A1.23,1.23,0,0,1,204.84,141.64Z" style="fill:#fff"/><path d="M237.55,136.31c1-.69,1.9-1.35,2.84-1.85s2.23-3.47,1.68-4.45a.85.85,0,0,0-.81-.08c-.43.31-.73.79-1.15,1.13-.19.16-.53.14-.8.2,0-.29-.06-.66.09-.85a10.56,10.56,0,0,1,1.64-1.7c1-.78,2-.32,2,1a16.06,16.06,0,0,1-.59,3,6.49,6.49,0,0,1-.42,1c1.08.47,2.48.16,3.14,1.68a9.62,9.62,0,0,0-1.18-.19c-1.52-.06-3-.12-4.29,1C238.84,136.9,238.59,136.85,237.55,136.31Z" style="fill:#fff"/><path d="M214.49,133c.22-.82.4-1.5.59-2.18l.38,0a5.25,5.25,0,0,1,.14.87c0,1.4,0,1.39,1.42,1.34.33,0,.65.06,1.29.12-1.14,1.06-3.37.64-2.66,3-.34-.16-.54-.2-.55-.26a2.18,2.18,0,0,0-1.8-2.16c-.2,0-.31-.48-.45-.73a4.73,4.73,0,0,1,.91-.18A3,3,0,0,1,214.49,133Z" style="fill:#fff"/><path d="M236,137.32l-1.36-1.22-1.81,3.26-.38-.16c.5-1.19,1-2.38,1.56-3.65-.53-.29-1.05-.52-1.52-.84a3,3,0,0,1-.53-.67l.94-.17s.07,0,.1,0c1,.64,2.11,1.3,2.84-.51.35.75.35.75-.42,2l.87,1.75Z" style="fill:#fff"/><path d="M228.27,138.35c-.92-.78-1.62-7-.78-8C227.74,133,228,135.56,228.27,138.35Z" style="fill:#fff"/><path d="M224.05,138.54c-.82-1.3-.84-6.7,0-7.54C224.32,133.51,224,136,224.05,138.54Z" style="fill:#fff"/><path d="M194.42,135.9a3.08,3.08,0,0,1,4.39-1.09A9.18,9.18,0,0,1,194.42,135.9Z" style="fill:#fff"/><path d="M310,174.06c1-.06,1.93-.14,2.9-.17a2.24,2.24,0,0,1,1.17.31,5.13,5.13,0,0,1-4.07.94Z" style="fill:#fff"/><path d="M328.3,178.82l4.87.22c-1.47,1.22-2.8,1.8-4.59,1.31,3,.68,3.58,2.47,2.49,4.93-.31.71-1.07.69-1.95.19a6.29,6.29,0,0,1,.93-.64,1.58,1.58,0,0,0,.79-2.19c-.3-.95-1-1.08-1.9-.92-1.38.25-1.55,0-1.13-1.3C328,179.82,328.18,179.21,328.3,178.82Z" style="fill:#fff"/><path d="M324.16,178.87c-.07.86-.14,1.73-.22,2.64.84.12,1.38,0,1.26-1.07a13.94,13.94,0,0,1,.11-2.23l.31-.07c.11.24.32.49.3.72-.09,1.15-.49,2.4,1.58,2.91-1.4.35-1.39,1-1.24,1.81a20.39,20.39,0,0,1,.16,2.48l-.33,0c-.14-.88-.31-1.77-.42-2.66-.08-.69-.33-.87-1.06-.71-1.57.36-1.76.11-1.41-1.5.17-.79.32-1.59.47-2.38Z" style="fill:#fff"/><path d="M318.22,176.24a3.19,3.19,0,0,1-.28-3,21.11,21.11,0,0,1,1.29-3.51c.42-1,.21-1.45-.88-1.38a24.94,24.94,0,0,0-2.92.54c.28-.5.38-.91.64-1.12a3.48,3.48,0,0,1,3.37,0,1.62,1.62,0,0,1,.56,2.4A11.91,11.91,0,0,0,318.22,176.24Z" style="fill:#fff"/><path d="M318.25,182.29a3.71,3.71,0,0,1,0-1.24,22,22,0,0,1,1.45-3.79c.94-1.71,2.1-3.29,3.17-4.93l.33,0a3.63,3.63,0,0,1-.22,1.17c-1,1.64-2.05,3.2-3,4.86C319.31,179.59,318.86,180.9,318.25,182.29Z" style="fill:#fff"/><path d="M321.25,178.75c.6,1.11,0,2.17.17,3.16s.29,2.11.44,3.15C320.77,184.47,320.32,180.55,321.25,178.75Z" style="fill:#fff"/><path d="M328.68,73.11c.11-.61.21-1.23.34-1.84.47-2.14,1.08-4.26,1.42-6.42,1-6.23-1.23-11.22-6.18-15-.76-.59-1.63-1-2.42-1.61a2.87,2.87,0,0,1-.51-.7c.31,0,.73-.23.93-.09a34.83,34.83,0,0,1,3.95,3A16.53,16.53,0,0,1,331.27,59a19.48,19.48,0,0,1-.46,9.38c-.45,1.65-1.06,3.25-1.6,4.87Z" style="fill:#fff"/><path d="M257.36,58.06c.58-1.14,1.13-2.29,1.76-3.4.32-.56.65-1.33,1.53-1a2,2,0,0,1,.85,2.32c-.59,1.39-1.34,2.62-3,3a1.12,1.12,0,0,0-.63.72c-.41,1.75-.74,3.51-1.11,5.26a5.84,5.84,0,0,1-.75,2c-.83-3.69.26-7.28.35-10.91l-3.07,1.28-.17-.3c.07-.11.11-.25.2-.32.92-.61,1.84-1.22,2.78-1.79.27-.17.76-.36.92-.24a1.31,1.31,0,0,1,.38,1c-.05.81-.21,1.61-.32,2.41Zm.87.13c1.55.1,1.79-1,2.24-1.85a1.72,1.72,0,0,0,0-2.23C259.21,55.2,258.82,56.67,258.23,58.19Z" style="fill:#fff"/><path d="M230.25,54.15l1.46-.63a11,11,0,0,0-.9,2.88,11,11,0,0,0,.73,2.91c-.78-.14-.83-.12-1.18-1.25-.28-.91-.55-1.49-1.74-1.36s-1.49-.87-1.7-1.77c-.26-1.08-.44-2.18-.61-3.28,0-.18.19-.39.29-.59.19.18.5.31.56.52.21.76.34,1.55.51,2.32a2.45,2.45,0,0,0,.31,1,3.49,3.49,0,0,0,1,.6c.11-.34.36-.71.3-1-.46-2-1-4-1.48-6a2.77,2.77,0,0,1,.07-.85c.26.18.69.3.77.54.43,1.3.78,2.62,1.14,3.94C229.94,52.77,230.07,53.4,230.25,54.15Z" style="fill:#fff"/><path d="M270.37,59.75a7.39,7.39,0,0,0,1,.11,2.54,2.54,0,0,1,2.69,1.9c.5,1.42.88,2.88-.27,4.17a2.76,2.76,0,0,1-4.28-.6,1.68,1.68,0,0,1-.12-.62,10.55,10.55,0,0,0,2.76.8,1.55,1.55,0,0,0,1.74-1.65,2.59,2.59,0,0,0-1.8-2.72c-.5-.07-1,.06-1.5,0a1.32,1.32,0,0,1-.91-.5,2.88,2.88,0,0,1,2.52-3.92c.77,0,1.56,0,2.34,0l.06.47a11.59,11.59,0,0,1-2.93,1.09C270.6,58.38,270.52,58.91,270.37,59.75Z" style="fill:#fff"/><path d="M242.07,53.63a7.71,7.71,0,0,1-.73.92,38.42,38.42,0,0,0-8,10.07,3.94,3.94,0,0,1-.87,1.08c-.17.14-.67.2-.73.1s-.28-.66-.16-.83c1.59-2.25,3.17-4.5,4.86-6.66,1.18-1.5,2.53-2.85,3.82-4.25a2.72,2.72,0,0,1,.93-.69C241.35,53.29,241.66,53.5,242.07,53.63Z" style="fill:#fff"/><path d="M292.26,73.45a2.06,2.06,0,0,1-2-1.38,24.89,24.89,0,0,1-1.8-5.16,13.49,13.49,0,0,1,3.69-12.41,6.54,6.54,0,0,1,1.48-1.06c.17-.09.49.09.74.15-.11.22-.15.56-.32.65a9.6,9.6,0,0,0-4.84,7.29,15.27,15.27,0,0,0,1.25,9.36A19.34,19.34,0,0,0,292.26,73.45Z" style="fill:#fff"/><path d="M247.51,69.6V64.05a4,4,0,0,0-.7.12c-1.39.57-2,.35-2.16-1.13a6.69,6.69,0,0,1,.54-2.85c.14-.39.86-.9,1.2-.82a2.1,2.1,0,0,1,1.45,1.05,13,13,0,0,1,.62,3.66,32.67,32.67,0,0,1-.32,4.18,13.55,13.55,0,0,1-.29,1.38Zm-.1-8.22-.54-1a14.08,14.08,0,0,0-1.13.87.84.84,0,0,0-.2.6c0,.5.1,1,.15,1.49a16.18,16.18,0,0,0,1.53-1C247.37,62.18,247.32,61.83,247.41,61.38Z" style="fill:#fff"/><path d="M233.65,47.89c1.37,0,2,.81,1.58,2.1a4.72,4.72,0,0,1-1,1.63c-.5.54-.46.84,0,1.44a6.77,6.77,0,0,1,1.11,2.57c.14.74-.61,1.08-1.11.5a18.27,18.27,0,0,1-1.69-2.67,6.76,6.76,0,0,0-.67-1.25c-.61-.65-1.25-1.26-.86-2.25A3.57,3.57,0,0,1,233.65,47.89Zm.81,1.91a.94.94,0,0,0-1.14-1.06,3.35,3.35,0,0,0-1.71,1.47c-.12.19.67,1.08,1.18,1.44S234.39,50.54,234.46,49.8Z" style="fill:#fff"/><path d="M305.9,72.09a9.51,9.51,0,0,1,1.24-1.93c1.69-1.59,1.43-3.57,1.22-5.53-.08-.68-.61-.69-1-.21a19.79,19.79,0,0,0-1.11,1.83c-.19.3-.39.6-.69,1.09-.13-1.4,1.22-3.69,2.21-4a1,1,0,0,1,1.44.87,18.16,18.16,0,0,1,0,3.83c-.1.79.07,1,.79,1.27a29.68,29.68,0,0,1,3.34,1.77l-.12.39a2.29,2.29,0,0,1-.8-.09,16.83,16.83,0,0,1-1.46-.9,1.92,1.92,0,0,0-3,.55,14.25,14.25,0,0,1-1.49,1.52C306.27,72.38,306.08,72.24,305.9,72.09Z" style="fill:#fff"/><path d="M243.12,70.15c-1.4-1.54-1-3.44-1.1-5-.74-.21-1.66-.22-1.82-.57a6.47,6.47,0,0,1-.36-2.54,2.58,2.58,0,0,1,.49-1.17c.39-.68.85-1.29,1.79-1a2.08,2.08,0,0,1,1.29,2.14c-.17,1.92-.34,3.85-.44,5.77A18.35,18.35,0,0,0,243.12,70.15Zm-.93-9.27a2.48,2.48,0,0,0-1.38,3.17C242.34,63.31,242.8,62.3,242.19,60.88Z" style="fill:#fff"/><path d="M325.35,62.57c-1.66.39-3.08.69-4.48,1.07a1.89,1.89,0,0,0-1.06.74c-.68,1.16-.48,1.48.85,1.59a4.3,4.3,0,0,1,3.78,2.09,1.78,1.78,0,0,1-.19,2.2,1.53,1.53,0,0,1-1.88.58,7.74,7.74,0,0,0,1-1.77,1.68,1.68,0,0,0-1.64-2.17c-.71-.09-1.43-.09-2.15-.17-.92-.12-1.24-.64-.93-1.51.25-.71.53-1.4.83-2.08a.61.61,0,0,1,.39-.33c1.6-.2,3.19-.38,4.8-.55C324.8,62.25,325,62.39,325.35,62.57Z" style="fill:#fff"/><path d="M280,56.4c.29.79,0,1.12-.63,1.29a14.25,14.25,0,0,0-1.94.65c-.24.11-.38.45-.57.68a3.08,3.08,0,0,0,.68.45,3.78,3.78,0,0,1,2.34,5.43,1.61,1.61,0,0,1-1.22.78c-.4,0-.79-.55-1.19-.85l.2-.33a2.51,2.51,0,0,0,.79.13,1.42,1.42,0,0,0,.91-.39,2.56,2.56,0,0,0-1.67-3.6c-.24,0-.5,0-.75,0-.72-.05-1-.49-1-1.16A2.75,2.75,0,0,1,277.76,57C278.48,56.77,279.21,56.61,280,56.4Z" style="fill:#fff"/><path d="M314.65,72.75c-.77,0-.81-.7-.68-1.27.44-1.85,1-3.68,1.46-5.51.21-.78.46-1.54.68-2.31l-.26-.26-2.38.76a5.36,5.36,0,0,1-1,.26c-.14,0-.35-.21-.43-.37s.13-.36.25-.4a26,26,0,0,1,3.38-1.07c1.12-.23,1.7.52,1.36,1.62-.4,1.35-.94,2.65-1.31,4S315,71.18,314.65,72.75Z" style="fill:#fff"/><path d="M299.57,54.65c-.42.53-.66.86-.93,1.16a5,5,0,0,0-1.39,4.86,2.65,2.65,0,0,0,.86,1.31c.31.24.86.19,1.3.27a2.69,2.69,0,0,1,.19-1,6.17,6.17,0,0,1,1.11-1.43.89.89,0,0,1,.82.17,3.67,3.67,0,0,1,.16,1.4c-.1,1.44-1.22,1.58-2.3,1.71a2.92,2.92,0,0,1-2.62-1.41c-1-2,.17-5.95,2.13-7C299,54.65,299.1,54.68,299.57,54.65Z" style="fill:#fff"/><path d="M302.43,69.71a10.51,10.51,0,0,1,0-2.1,28,28,0,0,1,3.7-9.14c.67-1.1,1.18-2.29,1.81-3.42.13-.22.44-.34.67-.5,0,.25.2.56.11.76a16.57,16.57,0,0,1-1.3,2.47A27.25,27.25,0,0,0,303,69.34a1.31,1.31,0,0,1-.17.36Z" style="fill:#fff"/><path d="M226.14,61.38c-1.39-.92-3-8.87-2-10.67a16.29,16.29,0,0,1,.58,1.78c.51,2.67,1,5.34,1.48,8a3.28,3.28,0,0,1,.08.52C226.32,61.12,226.23,61.21,226.14,61.38Z" style="fill:#fff"/><path d="M237.71,69.55a16.28,16.28,0,0,1-1.11-7.71C237.23,62.41,238.08,68.45,237.71,69.55Z" style="fill:#fff"/><path d="M267.22,63.25c-1,.92-3.23,1.64-4.1,1.33C263.42,63.27,266,62.39,267.22,63.25Z" style="fill:#fff"/><path d="M262.73,62.8l-.66-.4c.15-.25.26-.64.48-.71a7.29,7.29,0,0,1,1.85-.41c.19,0,.41.32.61.49-.15.17-.26.43-.45.5C264,62.48,263.4,62.61,262.73,62.8Z" style="fill:#fff"/><path d="M213.77,87.45a1.68,1.68,0,0,1-2,.12,11.47,11.47,0,0,0-2.55-.75c-.29,0-.83.36-1,.69-.28.7-.81.82-1.28.54-1.89-1.09-3.43-.53-4.88.84-.09.09-.25.09-.74.25.36-.57.56-.88.75-1.2,1.05-1.7,2.12-3.4,3.14-5.12a4.71,4.71,0,0,0,.29-1.39,3.77,3.77,0,0,0-2.44,1.49,3.25,3.25,0,0,1-.91.53c.11-.37.11-.84.35-1.06a10.65,10.65,0,0,1,2-1.58c.38-.21,1.12-.32,1.35-.11a1.55,1.55,0,0,1,.17,1.38c-.4,1.14-.95,2.24-1.46,3.35-.15.31-.36.61-.56,1,1,.18,2,.36,2.94.49a.72.72,0,0,0,.55-.29c.94-1.38,1.92-2.75,2.73-4.21.23-.41-.08-1.12-.15-1.69l-1.59.25c-.19,0-.37.11-.6.18a2,2,0,0,1,1.91-1.53,1.35,1.35,0,0,1,1.19,1.56A16.31,16.31,0,0,1,210,84.26a7,7,0,0,1-.84,1.2Z" style="fill:#fff"/><path d="M178.16,81.85c-1.33-.23-1.83,0-2.58,1.24a4,4,0,0,0,.12,3.3,1.77,1.77,0,0,0,.86.31c.55.13,1.12.22,1.68.34.12,0,.23.14.36.53a10.81,10.81,0,0,1-1.49.12c-.86-.06-1.18.23-1.05,1.12a5.45,5.45,0,0,1,0,1.71,3.38,3.38,0,0,1-.51.92l-.35-.09c0-.88,0-1.76,0-2.64.07-1.46-1.51-.78-2-1.55.09-.14.16-.35.24-.35,1.49,0,1.14-1,1.08-2A4,4,0,0,1,176.79,81C177.66,80.5,178.18,80.86,178.16,81.85Z" style="fill:#fff"/><path d="M193.59,86.23l2.07-2.94.34.17a10.42,10.42,0,0,1-.85,1.78c-1.53,2.1-1.44,2.55.9,3.88l.3.15c-1,.82-1.14.77-3.22-1.09l-.86,1.13-.23-.09c.12-.37.21-.76.35-1.12a2.27,2.27,0,0,0-1.1-3,3.14,3.14,0,0,1-.64-.71c.38-.1.83-.37,1.14-.26a2.8,2.8,0,0,1,1,.9A13.07,13.07,0,0,1,193.59,86.23Z" style="fill:#fff"/><path d="M189.16,92.06a11.78,11.78,0,0,1-1.71-1.5,8.29,8.29,0,0,1-1.76-7.39,7.09,7.09,0,0,1,1-2.25c.88-1.32,1.9-2.56,2.86-3.83l.3.08a4.65,4.65,0,0,1-.4,1.21c-.4.59-.92,1.1-1.38,1.65a6.89,6.89,0,0,0-.93,8.37c.63,1.19,1.46,2.29,2.19,3.43Z" style="fill:#fff"/><path d="M214.29,90.14a11.09,11.09,0,0,0,1.87-6,7.88,7.88,0,0,0-3.59-7.5,2.4,2.4,0,0,1-.58-.46.64.64,0,0,1-.05-.58.61.61,0,0,1,.55-.11,3.36,3.36,0,0,1,.89.59,9.27,9.27,0,0,1,3.29,7.56,27.83,27.83,0,0,1-1.12,5.13,6.16,6.16,0,0,1-1,1.57Z" style="fill:#fff"/><path d="M181.65,80.94c.72,1.24-.69,3.34,1.77,4a4.28,4.28,0,0,0-.59.5c-.23.3-.57.63-.59,1-.08,1,0,2.12,0,3.45-.3-.32-.52-.45-.57-.62a4.4,4.4,0,0,1-.09-1c0-.72.19-1.59-.14-2.1s-1.19-.41-2.1-.66c.42-.29.74-.69,1.08-.71,1-.05,1-.56.92-1.3s0-1.7,0-2.55Z" style="fill:#fff"/><path d="M220.94,87.72l.94.52a3.7,3.7,0,0,1-.9.71,5.63,5.63,0,0,1-1.77.35c-.28,0-.58-.3-.86-.46.22-.24.39-.6.66-.69A14.41,14.41,0,0,1,220.94,87.72Z" style="fill:#fff"/><path d="M196.34,85.94c1.5-1,3-.89,4.61-1.13A4.57,4.57,0,0,1,196.34,85.94Z" style="fill:#fff"/><path d="M220.38,85.13c.33,0,.64,0,.81.08a2.73,2.73,0,0,1,.46.74,8.57,8.57,0,0,1-1.68.41c-.32,0-.65-.29-1-.45.14-.22.23-.54.42-.63A3.42,3.42,0,0,1,220.38,85.13Z" style="fill:#fff"/><path d="M180.61,64.6c1.06-.57,2-1,2.3-2.27a4.23,4.23,0,0,1,.62-1.19s.57.17.58.29a5.2,5.2,0,0,1,0,1.42c0,.24-.29.44-.31.67-.08.63-.1,1.27-.14,1.91l1.63,0c.48,0,1,0,1.46,0l.06.39c-.78.28-1.55.58-2.34.83A2,2,0,0,0,183,68.08,19.13,19.13,0,0,1,181.62,71a1.51,1.51,0,0,1-.76.72,2.88,2.88,0,0,1-1.73.09c-.3-.12-.48-.91-.44-1.38.15-2,1.57-3,3.13-3.81.65-.35,1.06-.72.74-1.62-.45.2-.88.43-1.33.58-1.26.45-2-.08-1.63-1.38a9.32,9.32,0,0,1,1.65-3.06C182.21,62.47,180.37,63.16,180.61,64.6Zm-1.18,6.06a3,3,0,0,0,2.65-3A5.36,5.36,0,0,0,179.43,70.66Z" style="fill:#fff"/><path d="M162.5,61.68a8.53,8.53,0,0,1-1.23.57,2.48,2.48,0,0,1-.85-.06c.07-.29.07-.65.25-.85a2.57,2.57,0,0,1,1-.64,22.17,22.17,0,0,1,3.18-1c.46-.09,1,.25,1.52.39a4.52,4.52,0,0,1-.72,1.26c-.83.68-1.78,1.21-2.63,1.87-.64.5-1.2,1.1-1.79,1.65l.06.41,6.22.73a4.82,4.82,0,0,1-4.15.62c-1.21-.34-2.29-.53-3.35.34-.19.16-.59.07-.9.09,0-.3-.14-.7,0-.89.82-1.12,1.69-2.21,2.57-3.29a10,10,0,0,1,1-.94Z" style="fill:#fff"/><path d="M200.69,63.74c.14-.86.25-1.51.39-2.4-.54.18-1.12.2-1.4.49a13.91,13.91,0,0,0-2.25,2.79c-.58,1-.12,1.73,1.1,1.63a26.06,26.06,0,0,0,3.52-.84c.54-.12,1.1-.16,1.65-.24a5.35,5.35,0,0,1-1.24,1.11,17.7,17.7,0,0,1-3.37,1.1c-1.64.33-2.62-.6-2.6-2.29a5.88,5.88,0,0,1,4.13-5c.25,0,.68,0,.78.17a3.5,3.5,0,0,1,.64,1.61A1.72,1.72,0,0,1,200.69,63.74Z" style="fill:#fff"/><path d="M173,65V62.63a14.23,14.23,0,0,1-1.74,0c-.22,0-.41-.28-.61-.43a3.06,3.06,0,0,1,.57-.51,1.85,1.85,0,0,1,.63-.1,2.76,2.76,0,0,0,2.38-1.13l2.62,1.43a7.38,7.38,0,0,0-2.55.89,6.34,6.34,0,0,0-1,2.26Z" style="fill:#fff"/><path d="M192.8,63.76c-1.12.05-2.25.12-3.37.14-.17,0-.35-.25-.53-.38.17-.2.34-.57.5-.56,1.14,0,2.28.16,3.42.25Z" style="fill:#fff"/><path d="M192.31,61.59l-3.84.46A2.74,2.74,0,0,1,192.31,61.59Z" style="fill:#fff"/><path d="M165.64,173.65c1.64-.64,1-1.76.86-2.78s-.29-2.14-.43-3.21c-.06-.5.14-1.12-.65-1.28a1.11,1.11,0,0,1-.07-.7,6.67,6.67,0,0,1,2.39-1,2,2,0,0,1,1.59,1.12,7.2,7.2,0,0,1-.22,2.6,13.27,13.27,0,0,1,1.36,1.44,1.59,1.59,0,0,1-.28,2.31c-.5.46-1.05.87-1.56,1.32-.34.3-.66.62-1.1,1l-1.69-.57Zm1.88-.76a18.49,18.49,0,0,0,1.69-1.47,5.66,5.66,0,0,0,.69-1.23,8.08,8.08,0,0,0-1.45-.57c-.58-.09-1.34-.18-1.3.77C167.18,171.12,167.36,171.85,167.52,172.89Zm-.37-4.61c.53-.65.94-1.12,1.31-1.63.12-.18.22-.57.13-.67a1.1,1.1,0,0,0-.75-.25C166.88,165.77,166.65,166.46,167.15,168.28Z" style="fill:#fff"/><path d="M194.42,158.16a3.36,3.36,0,0,1-.07-1,3.43,3.43,0,0,1,2.54-2.09,2.44,2.44,0,0,1,2.2,1.66,7.67,7.67,0,0,1,.19,5.09,1.26,1.26,0,0,0,.87,1.73c.61.26,1.17.62,1.75.93l-.11.46a3.91,3.91,0,0,1-1.15-.12c-1.09-.46-2.09-1-3,.35a1.37,1.37,0,0,1-1.33.23,1.79,1.79,0,0,1-.39-1.44c.06-.4.54-1,.83-1,1.61,0,1.79-1.12,1.88-2.24a11.56,11.56,0,0,0,0-3.22c-.29-1.5-1.25-1.77-2.41-.78a14.82,14.82,0,0,0-1.41,1.55Z" style="fill:#fff"/><path d="M225.52,168a11.32,11.32,0,0,1-1.54-2A17.38,17.38,0,0,1,222.49,155a47.41,47.41,0,0,1,1.7-5.22,1.16,1.16,0,0,1,.3-.56,11.56,11.56,0,0,1,1.18-.55,3,3,0,0,1-.07,1.14c-1.42,2.74-2.67,5.54-2.44,8.72a16.75,16.75,0,0,0,2.69,8.86c.05.07,0,.2,0,.3Z" style="fill:#fff"/><path d="M232.32,148a29.72,29.72,0,0,1,3.53,2.24c2.82,2.39,3.65,5.7,3.85,9.19a13.77,13.77,0,0,1-.75,6.48,4.51,4.51,0,0,1-.85,1.29,18.85,18.85,0,0,0,.69-7.56,33.78,33.78,0,0,0-1.3-5.54,7.84,7.84,0,0,0-4.33-4.58,7.56,7.56,0,0,1-1.24-1C232.05,148.33,232.19,148.15,232.32,148Z" style="fill:#fff"/><path d="M192.67,164a2,2,0,0,1-1.38,2.19,2,2,0,0,1-2.42-.6c-1.56-1.76-1.67-3.86-1.24-6a11.26,11.26,0,0,1,1.11-2.67c.11-.23.53-.29.81-.44,0,.34.2.77.06,1a7.92,7.92,0,0,0-1.17,5.68c.14.85.34,1.75,1.38,2a1.52,1.52,0,0,0,1-.2c.09-.05,0-.51-.07-.77a18.14,18.14,0,0,1-.41-1.77c-.07-.65.19-1,.89-.61A2.47,2.47,0,0,1,192.67,164Z" style="fill:#fff"/><path d="M178.21,161.78c3.23.71,5.15,2.83,6.5,5.56l-.24.25a5.52,5.52,0,0,1-.77-.84,7.9,7.9,0,0,0-5.64-3.93c-.9-.16-1.2-.68-.83-1.45a13.45,13.45,0,0,1,1.42-2.39c1.09-1.46,2.25-2.88,3.43-4.28a3.09,3.09,0,0,1,1-.5c0,.38.08.85-.11,1.11-.78,1.07-1.67,2.06-2.5,3.09l-2.39,3Z" style="fill:#fff"/><path d="M215.57,164.54a5.87,5.87,0,0,1,.92-4.37c.74-1.34,1.64-2.59,2.59-4.06-.86-.36-1.67-.69-2.48-1-1.64-.71-3.31-1.37-4.91-2.16-.43-.21-.66-.81-1-1.22.43.18.87.35,1.3.55,1.65.78,3.3,1.58,5,2.34,1,.45,2,.82,3,1.31.21.11.42.75.32.86C218.16,159,217,161.81,215.57,164.54Z" style="fill:#fff"/><path d="M207,161.77c1.85.81,1.23,2.15.93,3.41a5.88,5.88,0,0,0-1.17.07,3.11,3.11,0,0,1-3.87-1.67,8.44,8.44,0,0,1,1-9.1,2.79,2.79,0,0,1,.95-.45c-.06.36,0,.83-.2,1.07a8,8,0,0,0-1.6,7.09,2.43,2.43,0,0,0,1.61,1.87c1.42.57,2.23,0,2.24-1.45A6.11,6.11,0,0,1,207,161.77Z" style="fill:#fff"/><path d="M204.23,167.82,191,171.47a1.7,1.7,0,0,1-.73.1,2.73,2.73,0,0,1-.72-.33c.18-.22.32-.6.55-.65q6.45-1.65,12.94-3.19a3.64,3.64,0,0,1,1.37.24Z" style="fill:#fff"/><path d="M199.07,181.7a4.81,4.81,0,0,1-.42-1.71c.2-1.82.54-3.62.84-5.43.1-.58.21-1.17.37-2-1,.19-1.73.33-2.48.49a4.83,4.83,0,0,1-1,.22c-.18,0-.42-.25-.52-.44s.18-.43.32-.46a28.85,28.85,0,0,1,3.9-.65c.93-.05,1.2.56,1,1.6-.43,2.15-.88,4.3-1.29,6.45a16.64,16.64,0,0,0-.16,1.87Z" style="fill:#fff"/><path d="M234.47,159.15a7.37,7.37,0,0,1-1.93,3.69,1.55,1.55,0,0,1-2.24-.24c-1.94-1.95-2.52-6.67-1.11-9a1.87,1.87,0,0,1,2.16-1,2.22,2.22,0,0,1,1.36,2.36c-.38-.39-.67-.72-1-1-.71-.7-1.39-.71-1.82.19a6.3,6.3,0,0,0-.87,3,14.71,14.71,0,0,0,1.31,4.18c.48,1.11,1.18,1.13,2,.19.44-.52.78-1.12,1.19-1.67.22-.29.47-.57.7-.85Z" style="fill:#fff"/><path d="M169.89,152.15c-1.43.43-2.81.79-4.15,1.27-.36.13-.6.62-.89.94a3.7,3.7,0,0,0,.91.74,5.91,5.91,0,0,1,3.61,3.34,1.35,1.35,0,0,1-.57,1.86,1.55,1.55,0,0,1-2.19-.4c.41-.14.76-.24,1.1-.37,1-.38,1.28-1.05.54-1.79a6.93,6.93,0,0,0-2.55-1.67c-1.8-.63-1.86-1.44-1.39-3a1.34,1.34,0,0,1,.16-.39C165.24,151.65,168.86,151.28,169.89,152.15Z" style="fill:#fff"/><path d="M173,161.46c-4,1.06-7.93,2.13-11.89,3.17a2.83,2.83,0,0,1-.82,0l-.14-.28a4.33,4.33,0,0,1,.78-.59,32.53,32.53,0,0,1,10.55-2.54,10.91,10.91,0,0,1,1.6.1Z" style="fill:#fff"/><path d="M175.07,152.6c-.1.41-.09.81-.28,1a14.11,14.11,0,0,1-1.46,1.2,5.37,5.37,0,0,1-.71-1.52,4.53,4.53,0,0,1,.22-1.89c.3-.9,1.07-1,1.59-.19A8.23,8.23,0,0,1,175.07,152.6Z" style="fill:#fff"/><path d="M229.71,228.76s10.21-6.1,9.1-7.67c-.66-1-3.8.92-6.21,2.57,3.05-2.33,7.23-6,5.87-7.3s-10.06,6.23-11,7.11c1-.88,9.5-8.57,7-9.29-2.68-.76-10.38,7.87-10.38,7.87,2.18-5.67-.45-7.27-1.43-7s-.93,4.05-3.7,7.05a6,6,0,0,0-1.42,5.51l-1.81,1.14-.65-1L213.26,229a2.48,2.48,0,0,0-2.8-.62c-10.57,4.49-23.88,11.71-23.88,11.71a144.05,144.05,0,0,0-28.05-29.85,4.07,4.07,0,0,0-2.13-1.61l-12-4.58,0,0a7.17,7.17,0,0,0-3.12-2.79l-.09-.8a36.1,36.1,0,0,0,5.11-.62c13-2.51,16.72-12.32,12.19-21.84s-6.15-18.43-6.15-21.72a11.72,11.72,0,0,0,4.07-1.09l.54-.29a8.24,8.24,0,0,0,2.72-2.51c.13-.2.25-.4.37-.6l.11-.19c.07-.14.15-.28.21-.42a2.26,2.26,0,0,0,.11-.22c.06-.14.12-.27.17-.4a2.44,2.44,0,0,0,.1-.24c.05-.13.1-.27.14-.41a1.42,1.42,0,0,0,.07-.22c.05-.16.1-.32.14-.49s0-.09,0-.14c0-.21.09-.43.13-.64,0,0,0-.07,0-.11s.06-.36.08-.54,0-.13,0-.19l0-.46c0-.07,0-.14,0-.21s0-.3,0-.45a1.21,1.21,0,0,0,0-.19c0-.17,0-.33,0-.49v-.14c0-.44-.09-.86-.16-1.28,0,0,0-.05,0-.07,0-.18-.07-.36-.11-.55l0-.12q-.06-.25-.12-.48c0-.05,0-.09,0-.14l-.15-.48,0-.1c-.82-2.42-2.26-4.35-3.68-5.06,0,0-.46,5.46-6.83,3.64s-17.88-4.67-26-2.39-5.36,10.36-5.36,10.36a6.43,6.43,0,0,0-3.85,4.31c-.49,2.3-.18,6.64.45,10.79a5.21,5.21,0,0,0-3.55-.24c-5.41,1.35-1.25,16.83,6.52,13.3l.15,1.11c1.21,8.34,4,14.11,8.12,17.69,0,.23-.08.47-.11.7v0a38.07,38.07,0,0,0-.33,3.8.89.89,0,0,1,0-.22,7.81,7.81,0,0,0-4.55,4.35l-12,3.67c-13.16,2.17-22.88,31.26-25.82,50.49h21.39c1-2.48,2.17-5.29,3.26-8.29l.39,3.87,0,.26.3,3-.31,1.19h47.76L158,235.4l0,0c2.24,3,9.64,12.52,17.09,18h0c.82.6,1.63,1.16,2.44,1.65l0,0,.55.32.12.07.46.26.17.08.41.22.19.09.39.18.21.1.36.15.22.09.35.13.23.09.33.11.23.07.33.09.23.06.33.08.22,0,.33.06.21,0,.36,0H184l.53,0,1,0,.33,0,.66-.06.41-.05.62-.09.43-.07.92-.17.65-.15.37-.09c.23-.05.47-.11.7-.18l.3-.08c10.59-2.94,23.09-11.61,26.65-15a2.46,2.46,0,0,0,.65-2.58c0-.1-.07-.19-.1-.29l1.95-1.4c-.16-.42-.34-.85-.53-1.29l3.3-2a14.59,14.59,0,0,0,3.87-.3c4.87-.91,13.12-7.72,12.28-8.82S229.71,228.76,229.71,228.76Zm-88.45-27.48c0,.06,0,.15,0,.26Z" style="fill:#006354"/><path d="M148.77,283s3.11,37.94,3.39,66.28H133.28s-3.6-40.8-4.47-43.44-7.74,43.44-7.74,43.44H101L109,283Z" style="fill:#ad6e56"/><path d="M152.16,349.23c-.28-28.34-3.39-66.28-3.39-66.28H133.7l-4.89,22.84c.87,2.64,4.47,43.44,4.47,43.44Z" style="fill:#945e4a"/><path d="M141.53,288.8c.48-2,1.5-3,1.75-4.6.06-.4.14-.82.22-1.25H109l-2,16.62,24,6.24a1.37,1.37,0,0,0,1.67-1l3.58-13.8C139.35,291,141.15,290.33,141.53,288.8Z" style="fill:#845240"/><path d="M148.77,283H109l-.32,2.63a3.67,3.67,0,0,0,1.19.78c3.6,1.43,12.18,4.18,25.2,4.18h0s3.86.31,12.37-2.76a3.67,3.67,0,0,0,1.67-1.25C148.87,284.25,148.77,283,148.77,283Z" style="fill:#845240"/><polygon points="197.86 229.51 212.93 220.02 217.75 226.65 204.69 234.61 197.86 229.51" style="fill:#efb293"/><path d="M206.3,222.94l3.56-2.43a59.48,59.48,0,0,1,5,9.52l-4.91,3.52Z" style="fill:#fff"/><path d="M152.16,202s14.7,10.33,29.27,30.76c0,0,13.32-7.22,23.88-11.71a2.48,2.48,0,0,1,2.85.67c1,1.15,3.5,6.1,4.84,10a2.46,2.46,0,0,1-.64,2.59c-4.31,4.08-21.74,15.95-33,16-10.65,0-27.18-23-27.18-23Z" style="fill:#3daeb9"/><path d="M163.51,240.57h0c-7.67-11.07-9.59-31.21-9.59-31.21l-1.76.61v17.27A121.07,121.07,0,0,0,163.51,240.57Z" style="fill:#06909d"/><path d="M130.05,194a5.82,5.82,0,0,0-2.75.09l-5.66,1.58-17.16,5.22a6.1,6.1,0,0,0-4.29,6.21c1,14.52,4.26,50.73,7.42,73.08a3.58,3.58,0,0,0,2.21,2.82c3.6,1.44,12.18,4.18,25.2,4.18h0s3.86.31,12.37-2.76a3.59,3.59,0,0,0,2.36-3.16l4.33-74.53c.13-2.63-.35-4.51-2.81-5.43l-16.21-6.18a4.78,4.78,0,0,0-.84-.25Z" style="fill:#55bfca"/><path d="M104,250.3a128.64,128.64,0,0,0,5.6-17.43c3.69-15.78-5.16-32-5.16-32-2.34.39-2.18,4.46-4.28,6.33C100.79,216.22,102.26,233.29,104,250.3Z" style="fill:#06909d"/><path d="M143.23,252.67l-33.08-8.59a1.37,1.37,0,0,0-1.67,1l-3.54,13.63c.86,7.75,1.77,15.19,2.67,21.52a3.58,3.58,0,0,0,2.21,2.82c3.6,1.44,12.18,4.18,25.2,4.18h0a21.12,21.12,0,0,0,5.57-.72c0-.07,0-.14.07-.22.48-2,1.5-3,1.74-4.6s.9-3.52.15-5.24c-.39-.9-2.09-1.41-3.63-1.69l5.3-20.4A1.37,1.37,0,0,0,143.23,252.67Z" style="fill:#3daeb9"/><rect x="99.29" y="244.69" width="36.91" height="52.3" rx="2.43" transform="matrix(0.97, 0.25, -0.25, 0.97, 71.84, -20.9)" style="fill:#de5059"/><rect x="101.61" y="246.76" width="32.28" height="48.17" rx="2.18" transform="translate(71.84 -20.9) rotate(14.55)" style="fill:#ff6a76"/><path d="M129.23,246.81a40.28,40.28,0,0,1,2.85,4.79q1.28,2.46,2.34,5c.72,1.7,1.35,3.43,1.93,5.18a38.8,38.8,0,0,1,1.42,5.39,38.33,38.33,0,0,1-2.86-4.79c-.84-1.64-1.63-3.31-2.33-5s-1.36-3.42-1.93-5.18A38.44,38.44,0,0,1,129.23,246.81Z" style="fill:#fff"/><path d="M132.8,286.31a45.83,45.83,0,0,1-5.23,3.14c-1.79.94-3.6,1.82-5.45,2.63s-3.72,1.55-5.62,2.22a44.35,44.35,0,0,1-5.86,1.71,47.32,47.32,0,0,1,5.23-3.14c1.79-.94,3.6-1.82,5.45-2.62S125,288.7,127,288A45.8,45.8,0,0,1,132.8,286.31Z" style="fill:#fff"/><path d="M116.57,205c.62,6.62,9.36,14,20.14,17.82,0,0,13-14.58,2.5-26.11l-4.16-1.55a4.78,4.78,0,0,0-.84-.25l-2.3-.48-10.27,1.28A9.44,9.44,0,0,0,116.57,205Z" style="fill:#d8dfeb"/><path d="M129.36,203c-4.59,0-8.57-2-10.63-5l-.36.44c1.51,3.94,6.13,6.81,11.6,6.81,5.06,0,8-3.22,9.8-6.7a14.75,14.75,0,0,0-1-1.53C136.72,200.13,134.06,203,129.36,203Z" style="fill:#de5059"/><path d="M138.93,219.82l-4-15.49-1.68-.57-1.67,1.39,1,16c1.32.61,2.69,1.17,4.1,1.67A27.34,27.34,0,0,0,138.93,219.82Z" style="fill:#ff6a76"/><path d="M135.79,207.53l-.82-3.2-1.68-.57-1.67,1.39.16,2.54a3,3,0,0,0,1.91.67A3.09,3.09,0,0,0,135.79,207.53Z" style="fill:#de5059"/><path d="M136.39,203.76a3.1,3.1,0,1,1-3.1-3.09A3.09,3.09,0,0,1,136.39,203.76Z" style="fill:#ff6a76"/><path d="M139.21,196.7l-4.16-1.55a4.78,4.78,0,0,0-.84-.25l-2.3-.48-.17,0,2,.43a4.66,4.66,0,0,1,.75.23l3.68,1.42c9.31,10.6-2.21,24-2.21,24-9.56-3.5-17.31-10.28-17.86-16.36a8.69,8.69,0,0,1,4.49-8.53L127,195l-5.33.66a9.44,9.44,0,0,0-5.07,9.29c.62,6.62,9.36,14,20.14,17.82C136.71,222.81,149.7,208.23,139.21,196.7Z" style="fill:#449ba4"/><path d="M136.29,184.68a32.25,32.25,0,0,0,.18,11.56,4,4,0,0,1-2.78,4.61,15.25,15.25,0,0,1-10.14-.36,3.94,3.94,0,0,1-2.43-3.47c-.17-3.74,0-11.2,3.16-16.65a4,4,0,0,1,4.76-1.73l4.65,1.65A4,4,0,0,1,136.29,184.68Z" style="fill:#ffcdb1"/><path d="M133.69,180.29,129,178.64a4,4,0,0,0-4.76,1.73,24.66,24.66,0,0,0-2.84,8.95c3.73,4.43,8.85,6.45,15,6.63a32.08,32.08,0,0,1-.13-11.27A4,4,0,0,0,133.69,180.29Z" style="fill:#efb293"/><path d="M114.26,162.32s-1.6-7.3-7.49-5.84-.45,19.68,8.65,11.91Z" style="fill:#ffcdb1"/><path d="M146.91,145.41a10,10,0,0,1,.25,3.08c-.16,2.87,1.4,12.19,6.15,22.17,4.52,9.52.78,19.32-12.19,21.83-14.37,2.78-25-3.13-27.68-21.6S112.85,139.42,127,137C139.39,134.91,145.52,140,146.91,145.41Z" style="fill:#ffcdb1"/><path d="M126.67,165.69a3.86,3.86,0,1,1-4.19-3.69A3.95,3.95,0,0,1,126.67,165.69Z" style="fill:#ff9d8d;opacity:0.4"/><path d="M133.87,152.46c0,.52-2-.94-4.41-.94s-4.41,1.46-4.41.94,2-2.41,4.41-2.41S133.87,151.94,133.87,152.46Z" style="fill:#cc8166"/><path d="M146.05,152.7c0,.39-1.26-.71-2.81-.71s-2.8,1.1-2.8.71a3.08,3.08,0,0,1,5.61,0Z" style="fill:#cc8166"/><path d="M138.15,158.86s1.33,6.68,7.83,7.85,2.17,5.16-2.66,3.83S137.82,164,138.15,158.86Z" style="fill:#ff9d8d"/><path d="M128.31,170.83c7.88,7,22.87,4.12,22.87,4.12s-.83,8.77-11.77,9.46S127.15,172.77,128.31,170.83Z" style="fill:#fff"/><path d="M128.13,174.73a14.62,14.62,0,0,0,7,3.29,10.84,10.84,0,0,1-6.2-.44A14.23,14.23,0,0,1,128.13,174.73Z" style="fill:#d9d9d9"/><path d="M150.19,178.07a12,12,0,0,1-4.09.1,22.63,22.63,0,0,0,4.65-1.45A10.84,10.84,0,0,1,150.19,178.07Z" style="fill:#d9d9d9"/><path d="M132.87,158.78a14.33,14.33,0,0,0-2-2.33,2.18,2.18,0,0,0-1.49-.46,2.45,2.45,0,0,0-1.53.48,6.3,6.3,0,0,0-1.76,2.28l-.19.05a4.33,4.33,0,0,1,.63-3.21,3.39,3.39,0,0,1,2.85-1.6,3.67,3.67,0,0,1,1.65.42,3.31,3.31,0,0,1,1.19,1.19,6.26,6.26,0,0,1,.83,3.17Z" style="fill:#874c34"/><path d="M146.38,158.29a11.65,11.65,0,0,0-1.81-1.7c-.54-.28-.54-.09-.94-.16a1.84,1.84,0,0,0-1,.18,5.1,5.1,0,0,0-1.63,1.66l-.19,0a3.47,3.47,0,0,1,.49-2.58,2.76,2.76,0,0,1,2.31-1.3,3.12,3.12,0,0,1,1.33.34,2.7,2.7,0,0,1,1,1,5,5,0,0,1,.66,2.55Z" style="fill:#874c34"/><path d="M110.8,159.24a3.39,3.39,0,0,0-3.55-1.12c-2.25.61-1.94,4.72-1.41,4.36s-.44-3,1.78-3.52S111.3,160.56,110.8,159.24Z" style="fill:#efb293"/><path d="M111.18,161.75a2,2,0,0,0-.66,2.36c.45,1.69,1.63,1.38,1.66,1.8s-.87.28-1.47-.22a3.11,3.11,0,0,1-1.09-2.62C109.56,161.32,111.25,161.07,111.18,161.75Z" style="fill:#efb293"/><path d="M112.92,166.82s3.76-2.28,3.53-10.95a17.62,17.62,0,0,1,5.24-13.33s4.9,0,12.18,3.53,16.74,4.67,20.61-1,.57-13.43-2.62-15c0,0-.45,5.47-6.83,3.65s-17.87-4.67-26-2.39-5.35,10.36-5.35,10.36a6.38,6.38,0,0,0-3.85,4.31C108.84,150.76,111.32,164.56,112.92,166.82Z" style="fill:#de8c6f"/><path d="M155.34,134.52A10.66,10.66,0,0,1,153.7,142c-3.87,5.69-13.32,4.55-20.61,1s-12.18-3.53-12.18-3.53-5.09,3.64-6.36,12.21c-.44,2.91.61,5.93.31,8.51a43.34,43.34,0,0,1-1.07,5.78c1.1-1.26,2.82-4.2,2.66-10.15a17.62,17.62,0,0,1,5.24-13.33s4.9,0,12.18,3.53,16.74,4.67,20.61-1A11.34,11.34,0,0,0,155.34,134.52Z" style="fill:#cc8166"/><path d="M121.07,192.9s.34,4.86,12.62,7.95c0,0-4.45.37-6,5.8,0,0-9.38-1.38-11.12-9.39A7.85,7.85,0,0,1,121.07,192.9Z" style="fill:#fff"/><path d="M133.69,200.85s1.94.09,4.71,3.48c0,0,4.64-6.87-2.3-10.42C136.1,193.91,137,198.52,133.69,200.85Z" style="fill:#fff"/><path d="M213.74,224c-1.25-2.16-2.77-6.15,0-9.14s2.72-6.73,3.71-7,3.61,1.29,1.43,7c0,0,7.7-8.63,10.38-7.87s-7.07,9.37-7.07,9.37,9.66-8.66,11.13-7.2c2.08,2.06-8.75,9.41-8.75,9.41s8-6.25,9.1-4.68-9.1,7.68-9.1,7.68,8.38-5,9.21-3.9-7.41,7.91-12.29,8.82S215.09,226.36,213.74,224Z" style="fill:#ffcdb1"/><path d="M169.94,246.2c3.27,2.43,6.55,4.08,9.4,4.07a25.49,25.49,0,0,0,7.13-1.21,11.52,11.52,0,0,0-16.53-2.86Z" style="fill:#06909d"/><polygon points="113.06 270.83 131.07 274 130.17 282.36 114.75 279.41 113.06 270.83" style="fill:#ffcdb1"/><path d="M115.5,281.94l5.7,1.14s2-3.77,1.87-11.07l-5.24-2.23Z" style="fill:#fff"/><path d="M104.48,200.92A47.83,47.83,0,0,1,107.27,230c-3.69,15.78-12,31.71-12,31.71a207.44,207.44,0,0,1,24.54,7.63c1.37.52,2.12,1.42,1.75,2.83-.7,2.62-1.88,6.27-3.15,9.73a2.85,2.85,0,0,1-3.26,1.81c-7.69-1.62-30.31-6.81-36.45-16.15C74.18,260.72,85.9,204,104.48,200.92Z" style="fill:#3daeb9"/><path d="M124.38,277.12c.28-2.4,1.42-5.79,4.52-7.49,2.92-1.59,4.92,1.94,4.92,1.94s5.59.29,6.34,2,.1,3.62-.14,5.24-1.27,2.62-1.75,4.6-3.36,2.51-8.43,2.1S124.11,279.42,124.38,277.12Z" style="fill:#ffcdb1"/><path d="M86.48,267.18a11.56,11.56,0,0,0-8.43-11.11c-.58,5.66-.4,9.93.64,11.52a20.05,20.05,0,0,0,6.11,5.57A11.5,11.5,0,0,0,86.48,267.18Z" style="fill:#06909d"/><path d="M414.9,286.68l-30.72-3.43s-4.14,20.61.43,67.72H406.2s2.62-20.2,4.41-32.68a14.65,14.65,0,0,0,8.3,0c1.79,12.48,4.42,32.68,4.42,32.68h21.59c4.56-47.11.43-67.72.43-67.72l-30.72,3.43" style="fill:#855739"/><path d="M446,287.78a227.17,227.17,0,0,1,1,30.08c-6.31-2.7-10.68-8.52-10.68-15.27C436.3,296.21,440.22,290.65,446,287.78Z" style="fill:#6a432b"/><path d="M414.76,286.66l13.3-1.48h.19l17.82,3.33c.35,3.31.73,8.21.9,14.82a145.54,145.54,0,0,1-64.51,7.23,205.7,205.7,0,0,1,1.07-22.71l27.22-1.62Z" style="fill:#6a432b"/><path d="M359.16,200.47c.2-1.88.65-5.79,1.13-8.11a1.47,1.47,0,0,0-1.11-1.75c-2.58-.57-8-3.77-11.27-.85,1.73.49-1-.76-.77,14.7,0,.84,2.57.08,3.39-.18L358,201.9A1.7,1.7,0,0,0,359.16,200.47Z" style="fill:#ffbaa5"/><path d="M360.28,200.19l1.14-4.83c1.26.84-8.33-4.1-16.41-.18l2.28,5.44Z" style="fill:#fff"/><path d="M360.17,213.25s2.68-9.9,1-14.27a2.61,2.61,0,0,0-1.71-1.5c-2.4-.74-8.29-2.15-12.71.14a2.78,2.78,0,0,0-1.41,1.75c-.69,2.62-1.66,8.38,1.82,15.9Z" style="fill:#d2e4ed"/><path d="M356,206.28l2.72-6.29a32.06,32.06,0,0,1,4,1.21s-2.91,14.13-.21,20c0,0,24.45-5.58,35.23-8.73,8.32-2.43,16.53,2.05,16.53,2.05-.5,2.32-7.37,19.7-29.34,24.45-17.51,3.8-34.17,4.78-39.61-3.62S343.4,199,343.4,199a50.77,50.77,0,0,1,11.25.25Z" style="fill:#01303e"/><path d="M352.31,200.85a1.3,1.3,0,1,0,1,1.54A1.31,1.31,0,0,0,352.31,200.85Z" style="fill:#fff"/><path d="M346.37,181.29c0-.49,0-.91,0-1.29h0s-.78-12.93.84-13,3.44,9.79,3.53,10.27h0c0-.49-.4-13.85,1.13-14,2.3-.24,2.51,13.41,2.51,13.41s.21-14,2.35-14.15c3.38-.16,2.43,14,2.43,14,.85-9.94,3.2-13.76,4.49-10.45.9,2.32-.22,9.78-1,14a18.2,18.2,0,0,1-.58,3.06s3.87-3.95,6.21-4a2.66,2.66,0,0,1,2,.66,1.09,1.09,0,0,1-.19,1.7,9.93,9.93,0,0,0-4.22,6c-1.2,4.91-5.46,4.63-5.46,4.63s-12,.08-13-1.56S346.52,184.92,346.37,181.29Z" style="fill:#ffbaa5"/><path d="M414.91,210.57l-10.08-.63s-12.61,2.66-17.47,10.38c-7.43,11.78-9.13,64.88-9.66,79.48,0,0,8.06,5.58,37.07,5.58h0c29,0,37.08-5.58,37.08-5.58-.53-14.6-1.95-67.88-9.66-79.48-5.14-7.72-17.74-10.74-17.74-10.74l-9.81,1" style="fill:#024457"/><path d="M429.15,211.12s6,12.54,5.26,24.48l-5,2.84,2.38,6.78s-6.95,10-16.91,13.17v-7.2Z" style="fill:#01303e"/><path d="M400.65,211.12s-6,12.54-5.27,24.48l5,2.84L398,245.22s6.94,10,16.91,13.17v-7.2Z" style="fill:#01303e"/><path d="M400.65,211.12a49.65,49.65,0,0,0,14.25,40.07,49.65,49.65,0,0,0,14.25-40.07Z" style="fill:#d2e4ed"/><path d="M401.74,211l.63-4.07s8.8-1.66,12.26-1.66,12.25,1.66,12.25,1.66l.63,4.07-12.88,7.47Z" style="fill:#d2e4ed"/><polygon points="414.76 218.44 414.69 218.5 414.63 218.44 414.76 218.44" style="fill:#fff;stroke:#000;stroke-miterlimit:10;stroke-width:0.964321px"/><path d="M419.86,245.42a50.92,50.92,0,0,1-5,5.77,50.91,50.91,0,0,1-5.36-6.31,179.45,179.45,0,0,1,2.72-24.23l2.43-2.15,2.44,2.15A177.53,177.53,0,0,1,419.86,245.42Z" style="fill:#c7083f"/><path d="M427,210.34c-.22,5.28-5.68,9.5-12.38,9.5s-12-4.07-12.37-9.2l1-.31c1.93,3.44,6.27,5.84,11.33,5.84s9.63-2.53,11.47-6.12Z" style="fill:#c7083f"/><path d="M414.63,213.62h0c6,0,10.34.18,9.75-4.9l-1.24-10.6c-.41-3.47-4.22-6.07-8.51-6.07h0c-4.29,0-8.11,2.6-8.51,6.07l-1.25,10.6C404.28,213.8,408.64,213.62,414.63,213.62Z" style="fill:#ffbaa5"/><path d="M406.12,198.12c.4-3.47,4.22-6.07,8.51-6.07h0c4.29,0,8.1,2.6,8.51,6.07l1.14,9.71a26.92,26.92,0,0,1-12.29,3h0a26.9,26.9,0,0,1-7.16-1,7,7,0,0,1,0-1.1Z" style="fill:#e6a490"/><path d="M426.88,206.9s-.06,6.77-12,6.77c0,0,3.85,1.43,6,7,0,0,6.59-2.94,8.26-9.53A9.24,9.24,0,0,0,426.88,206.9Z" style="fill:#fff"/><path d="M402.25,206.9s.06,6.77,12,6.77c0,0-3.86,1.43-6,7,0,0-6.59-2.94-8.26-9.53A9.24,9.24,0,0,1,402.25,206.9Z" style="fill:#fff"/><circle cx="414.63" cy="218.44" r="3.34" style="fill:#ef0d4d"/><path d="M379.11,279.28l15.95,4.26a1.34,1.34,0,0,0,1.68-.93l.71-2.69a1.47,1.47,0,0,0-1.06-1.79l-17-4.54a1.14,1.14,0,0,0-1.49,1.12l-.09,2.85A1.8,1.8,0,0,0,379.11,279.28Z" style="fill:#01303e"/><path d="M450.55,279.28l-15.95,4.26a1.34,1.34,0,0,1-1.68-.93l-.71-2.69a1.47,1.47,0,0,1,1.06-1.79l17-4.54a1.14,1.14,0,0,1,1.49,1.12l.09,2.85A1.8,1.8,0,0,1,450.55,279.28Z" style="fill:#01303e"/><circle cx="441.8" cy="177.58" r="8.54" transform="translate(-28.01 100.15) rotate(-12.54)" style="fill:#ffbaa5"/><circle cx="441.8" cy="176.73" r="6.45" transform="translate(-30.87 121.93) rotate(-15.19)" style="fill:#e6a490"/><path d="M439.27,176.86a2.54,2.54,0,1,0,2.53-2.53A2.54,2.54,0,0,0,439.27,176.86Z" style="fill:#ffbaa5"/><circle cx="387.45" cy="177.58" r="8.54" transform="translate(-12.09 325.98) rotate(-45)" style="fill:#ffbaa5"/><circle cx="387.45" cy="176.73" r="6.45" transform="translate(-11.49 325.73) rotate(-45)" style="fill:#e6a490"/><path d="M384.92,176.86a2.53,2.53,0,1,0,2.53-2.53A2.54,2.54,0,0,0,384.92,176.86Z" style="fill:#ffbaa5"/><rect x="387.45" y="142.07" width="54.36" height="66.43" rx="24.03" transform="translate(829.25 350.56) rotate(180)" style="fill:#ffbaa5"/><path d="M414.63,137.08c-11.79,0-21.64,7.43-24.09,12.41s-4.47,7.85-4.47,17.72a86.69,86.69,0,0,0,1,13.4.81.81,0,0,0,1.53.22A31.84,31.84,0,0,0,391.39,169c.5-8.92,1.69-15.16,6.92-17.19s4.53,8.11,16.32,8.11,11.08-10.13,16.32-8.11,6.41,8.27,6.92,17.19a31.64,31.64,0,0,0,2.83,11.79.8.8,0,0,0,1.52-.22,85.42,85.42,0,0,0,1-13.4c0-9.87-2-12.74-4.47-17.72S426.41,137.08,414.63,137.08Z" style="fill:#754c31"/><path d="M434.72,144.67c-5.16,2.94-12.29,4.75-20.17,4.75s-14.92-1.79-20.07-4.7a30.39,30.39,0,0,1,40.24-.05Z" style="fill:#fff;opacity:0.05"/><path d="M434.88,174.89l8.3-8.23s1.38,1.37,0,2.49c0,0-3.85,5.31-8.3,7.58Z" style="fill:#fff"/><path d="M394.44,174.89l-8.3-8.23s-1.38,1.37,0,2.49c0,0,3.85,5.31,8.3,7.58Z" style="fill:#fff"/><path d="M418.37,172.86v2.95a6.21,6.21,0,0,0,6.19,6.19h5.31a6.21,6.21,0,0,0,6.19-6.19v-2.95a6.21,6.21,0,0,0-6.19-6.2h-5.31A6.22,6.22,0,0,0,418.37,172.86Zm1.18.17a5.39,5.39,0,0,1,5.38-5.38h4.57a5.39,5.39,0,0,1,5.38,5.38v2.6A5.39,5.39,0,0,1,429.5,181h-4.57a5.39,5.39,0,0,1-5.38-5.38Z" style="fill:#fff"/><path d="M430.46,177.52v-3.14a3.25,3.25,0,0,0-3.24-3.24h0a3.25,3.25,0,0,0-3.24,3.24v3.14" style="fill:none;stroke:#754c31;stroke-linecap:round;stroke-linejoin:round;stroke-width:2px"/><path d="M427.22,174.89a13.65,13.65,0,0,1-6.75-1.76,4.82,4.82,0,0,1,4.74-4.84h4a4.81,4.81,0,0,1,4.73,4.84A13.61,13.61,0,0,1,427.22,174.89Z" style="fill:#fff;opacity:0.2"/><path d="M393.19,172.86v2.95a6.21,6.21,0,0,0,6.19,6.19h5.31a6.21,6.21,0,0,0,6.19-6.19v-2.95a6.21,6.21,0,0,0-6.19-6.2h-5.31A6.22,6.22,0,0,0,393.19,172.86Zm1.18.17a5.39,5.39,0,0,1,5.38-5.38h4.57A5.39,5.39,0,0,1,409.7,173v2.6a5.39,5.39,0,0,1-5.38,5.38h-4.57a5.39,5.39,0,0,1-5.38-5.38Z" style="fill:#fff"/><path d="M405.28,177.52v-3.14a3.25,3.25,0,0,0-3.24-3.24h0a3.25,3.25,0,0,0-3.24,3.24v3.14" style="fill:none;stroke:#754c31;stroke-linecap:round;stroke-linejoin:round;stroke-width:2px"/><path d="M402,174.89a13.65,13.65,0,0,1-6.75-1.76,4.82,4.82,0,0,1,4.74-4.84h4a4.82,4.82,0,0,1,4.73,4.84A13.61,13.61,0,0,1,402,174.89Z" style="fill:#fff;opacity:0.2"/><path d="M419.9,179.75a6.89,6.89,0,0,0-10.54,0h-1a6.68,6.68,0,0,1,12.52,0Z" style="fill:#fff"/><path d="M414.63,185.83a7.5,7.5,0,0,0,4.54-1.38c-.24,1.87-2.18,3.34-4.54,3.34s-4.3-1.47-4.54-3.34A7.45,7.45,0,0,0,414.63,185.83Z" style="fill:#e6a490"/><path d="M414.63,192.78A44.44,44.44,0,0,0,427,191.1a.39.39,0,0,1,.5.41,13,13,0,0,1-25.77,0,.39.39,0,0,1,.5-.41A44.51,44.51,0,0,0,414.63,192.78Z" style="fill:#fff"/><path d="M430.82,183.83a4.77,4.77,0,0,0-.06.76,5.51,5.51,0,0,0,5.51,5.51A6.32,6.32,0,0,0,437,190a4.43,4.43,0,0,1-2.41.71,4.51,4.51,0,0,1-4.51-4.51A4.43,4.43,0,0,1,430.82,183.83Z" style="fill:#e6a490"/><path d="M398.44,183.83a6.33,6.33,0,0,1,.05.76A5.51,5.51,0,0,1,393,190.1a6.32,6.32,0,0,1-.76-.06,4.5,4.5,0,0,0,6.22-6.21Z" style="fill:#e6a490"/><path d="M414.63,193.14c-14.45,0-17.1-3.27-17.1-3.27a9.34,9.34,0,0,1,8.94-3c6,1,8.16,2.33,8.16,2.33s2.13-1.37,8.15-2.33a9.35,9.35,0,0,1,9,3S429.08,193.14,414.63,193.14Z" style="fill:#754c31"/><path d="M424.31,195.64l1.43-.53,1-.43a11.41,11.41,0,0,1-.55,1.24l-.2,0c-.51.1-1,.18-1.54.26-1,.14-2.05.25-3.08.31C422.37,196.27,423.35,196,424.31,195.64Z" style="fill:#d2e4ed"/><path d="M403.43,195.11l1.43.53c1,.33,1.95.63,2.94.89-1-.06-2.05-.17-3.08-.31-.51-.08-1-.16-1.54-.26l-.11,0a12,12,0,0,1-.54-1.21Z" style="fill:#d2e4ed"/><rect x="408.38" y="244.84" width="32.11" height="45.63" transform="translate(-18.1 31.13) rotate(-4.11)" style="fill:#76a480"/><rect x="411.18" y="248.02" width="26.5" height="39.28" rx="1.97" transform="translate(-18.1 31.13) rotate(-4.11)" style="fill:none;stroke:#98c2a2;stroke-miterlimit:10"/><rect x="413.38" y="254.28" width="20.81" height="8.74" transform="translate(-17.46 31.06) rotate(-4.11)" style="fill:#608569"/><path d="M433.32,274.69l-16.67,1.2a.88.88,0,0,1-.94-.81h0a.87.87,0,0,1,.81-.93l16.67-1.2a.88.88,0,0,1,.94.81h0A.87.87,0,0,1,433.32,274.69Z" style="fill:#608569"/><path d="M431.15,278.8l-11.77.84a.88.88,0,0,1-.94-.81h0a.87.87,0,0,1,.81-.93l11.78-.85a.87.87,0,0,1,.93.81h0A.88.88,0,0,1,431.15,278.8Z" style="fill:#608569"/><path d="M428.73,282.92l-6.36.45a.87.87,0,0,1-.94-.8h0a.88.88,0,0,1,.81-.94l6.36-.46a.89.89,0,0,1,.94.81h0A.89.89,0,0,1,428.73,282.92Z" style="fill:#608569"/><path d="M429.92,269.13c-1.89-.06-5.8-.22-8.14-.51a1.57,1.57,0,0,0-1.73,1.24c-.55,2.63-3.7,8.28-.73,11.37.47-1.77-.75,1.07,14.72-.35.84-.08,0-2.58-.22-3.38l-2.46-7.3A1.58,1.58,0,0,0,429.92,269.13Z" style="fill:#ffbaa5"/><path d="M429.56,268.19l-4.89-.53a17.27,17.27,0,0,0,.81,16.4l5.3-3Z" style="fill:#fff"/><path d="M442.61,266.65s-10-1.43-14.31.84a2.83,2.83,0,0,0-1.39,1.89c-.6,2.5-1.65,8.55.91,12.68a2.53,2.53,0,0,0,1.83,1.18c2.66.35,8.47.6,15.78-3.82Z" style="fill:#d2e4ed"/><path d="M435.87,271.14l-6.72-1.35a34.31,34.31,0,0,1,.34-4.14s14.43-.12,19.59-4a40.4,40.4,0,0,1-5.94-17.55c-2.79-25.33-11.41-31.91-11.41-31.91,2.38,0,18.8,4.31,28,24.8,7.37,16.33,13.82,31.43,6.74,38.51S431.37,285,431.37,285a50.49,50.49,0,0,1-2.1-11Z" style="fill:#01303e"/><path d="M431.32,275.86a1.3,1.3,0,1,0,1.3-1.3A1.3,1.3,0,0,0,431.32,275.86Z" style="fill:#fff"/><path d="M421.87,269.67s.69-4.21-4.08-5.88a9.92,9.92,0,0,1-5.61-4.79,1.09,1.09,0,0,0-1.67-.35,2.66,2.66,0,0,0-.86,1.94c-.13,2.33,3.42,6.56,3.42,6.56s-7.78-1.56-9.21-1.09a3,3,0,0,0-2,3.18c0,1.62-.46,3.68-.29,4.77a18.32,18.32,0,0,1,.18,5c-.21,2.62,2.21,3.3,5.83,3.51s9.79.69,11.51-.1S421.87,269.67,421.87,269.67Z" style="fill:#ffbaa5"/></svg>