<svg xmlns="http://www.w3.org/2000/svg" xmlns:xlink="http://www.w3.org/1999/xlink" viewBox="0 0 500 500"><defs><radialGradient id="a" cx="250" cy="250" r="250" gradientUnits="userSpaceOnUse"><stop offset="0" stop-color="#fffde3"/><stop offset="1" stop-color="#f6e0d1"/></radialGradient><clipPath id="b"><rect width="500" height="500" style="fill:none"/></clipPath></defs><title>Teacher Signup Icon</title><g style="isolation:isolate"><rect width="500" height="500" style="fill:url(#a)"/><g style="clip-path:url(#b)"><g style="mix-blend-mode:soft-light"><polygon points="262.31 -146.88 244.65 -146.88 220.27 -146.88 232.46 39.91 241.47 178.02 250.4 38.81 262.31 -146.88" style="fill:#f1f2f2;fill-rule:evenodd"/><polygon points="244.65 226.7 256.84 39.91 269.04 -146.88 264.31 -146.88 252.49 37.54 242.49 193.53 244.65 226.7" style="fill:#f1f2f2;fill-rule:evenodd"/><polygon points="165.01 -138.72 147.96 -134.15 124.41 -127.83 184.53 49.43 228.98 180.5 201.57 43.73 165.01 -138.72" style="fill:#f1f2f2;fill-rule:evenodd"/><polygon points="244.65 226.7 208.08 43.12 171.52 -140.46 166.95 -139.23 203.26 41.95 233.97 195.22 244.65 226.7" style="fill:#f1f2f2;fill-rule:evenodd"/><polygon points="73.15 -105.65 57.86 -96.83 36.74 -84.63 140.7 71.03 217.56 186.13 155.68 61.11 73.15 -105.65" style="fill:#f1f2f2;fill-rule:evenodd"/><polygon points="244.65 226.7 161.82 58.84 78.98 -109.02 74.89 -106.66 156.85 58.96 226.19 199.06 244.65 226.7" style="fill:#f1f2f2;fill-rule:evenodd"/><polygon points="-7.03 -49.94 -19.51 -37.46 -36.75 -20.21 103.95 103.24 207.98 194.52 115.86 89.78 -7.03 -49.94" style="fill:#f1f2f2;fill-rule:evenodd"/><polygon points="244.65 226.7 121.19 86 -2.27 -54.7 -5.61 -51.36 116.43 87.4 219.66 204.78 244.65 226.7" style="fill:#f1f2f2;fill-rule:evenodd"/><polygon points="-70.05 24.63 -78.88 39.91 -91.07 61.03 76.79 143.87 200.9 205.11 84.81 127.78 -70.05 24.63" style="fill:#f1f2f2;fill-rule:evenodd"/><polygon points="244.65 226.7 88.98 122.75 -66.68 18.8 -69.05 22.89 84.75 125.33 214.84 211.99 244.65 226.7" style="fill:#f1f2f2;fill-rule:evenodd"/><polygon points="-111.63 112.96 -116.2 130.01 -122.51 153.57 61.07 190.13 196.8 217.17 64.65 172.52 -111.63 112.96" style="fill:#f1f2f2;fill-rule:evenodd"/><polygon points="244.65 226.7 67.38 166.58 -109.89 106.46 -111.11 111.02 63.96 170.17 212.05 220.21 244.65 226.7" style="fill:#f1f2f2;fill-rule:evenodd"/><polygon points="-128.93 209.05 -128.93 226.7 -128.93 251.09 57.86 238.9 195.97 229.88 56.76 220.96 -128.93 209.05" style="fill:#f1f2f2;fill-rule:evenodd"/><polygon points="244.65 226.7 57.86 214.51 -128.93 202.32 -128.93 207.04 55.48 218.87 211.48 228.87 244.65 226.7" style="fill:#f1f2f2;fill-rule:evenodd"/><polygon points="-120.77 306.34 -116.2 323.39 -109.89 346.94 67.38 286.82 198.45 242.37 61.68 269.78 -120.77 306.34" style="fill:#f1f2f2;fill-rule:evenodd"/><polygon points="244.65 226.7 61.07 263.27 -122.51 299.84 -121.28 304.4 59.9 268.09 213.17 237.38 244.65 226.7" style="fill:#f1f2f2;fill-rule:evenodd"/><polygon points="-87.7 398.2 -78.88 413.49 -66.68 434.61 88.98 330.66 204.08 253.8 79.06 315.67 -87.7 398.2" style="fill:#f1f2f2;fill-rule:evenodd"/><polygon points="244.65 226.7 76.79 309.54 -91.07 392.37 -88.71 396.46 76.91 314.5 217.01 245.16 244.65 226.7" style="fill:#f1f2f2;fill-rule:evenodd"/><polygon points="-31.99 478.38 -19.51 490.86 -2.27 508.11 121.19 367.4 212.47 263.38 107.73 355.5 -31.99 478.38" style="fill:#f1f2f2;fill-rule:evenodd"/><polygon points="244.65 226.7 103.95 350.16 -36.75 473.62 -33.41 476.96 105.35 354.92 222.73 251.69 244.65 226.7" style="fill:#f1f2f2;fill-rule:evenodd"/><polygon points="42.58 541.4 57.86 550.23 78.98 562.42 161.82 394.56 223.06 270.45 145.73 386.55 42.58 541.4" style="fill:#f1f2f2;fill-rule:evenodd"/><polygon points="244.65 226.7 140.7 382.37 36.74 538.04 40.84 540.4 143.28 386.61 229.94 256.51 244.65 226.7" style="fill:#f1f2f2;fill-rule:evenodd"/><polygon points="130.91 582.98 147.96 587.55 171.52 593.86 208.08 410.28 235.12 274.55 190.47 406.7 130.91 582.98" style="fill:#f1f2f2;fill-rule:evenodd"/><polygon points="244.65 226.7 184.53 403.97 124.41 581.24 128.97 582.46 188.12 407.39 238.16 259.3 244.65 226.7" style="fill:#f1f2f2;fill-rule:evenodd"/><polygon points="227 600.28 244.65 600.28 269.04 600.28 256.84 413.49 247.83 275.39 238.9 414.59 227 600.28" style="fill:#f1f2f2;fill-rule:evenodd"/><polygon points="244.65 226.7 232.46 413.49 220.27 600.28 224.99 600.28 236.81 415.87 246.82 259.87 244.65 226.7" style="fill:#f1f2f2;fill-rule:evenodd"/><polygon points="324.29 592.12 341.34 587.55 364.89 581.24 304.77 403.97 260.32 272.91 287.73 409.68 324.29 592.12" style="fill:#f1f2f2;fill-rule:evenodd"/><polygon points="244.65 226.7 281.22 410.28 317.79 593.86 322.35 592.64 286.04 411.45 255.33 258.18 244.65 226.7" style="fill:#f1f2f2;fill-rule:evenodd"/><polygon points="416.15 559.06 431.44 550.23 452.56 538.04 348.61 382.37 271.75 267.28 333.62 392.3 416.15 559.06" style="fill:#f1f2f2;fill-rule:evenodd"/><polygon points="244.65 226.7 327.49 394.56 410.32 562.42 414.41 560.06 332.45 394.44 263.11 254.35 244.65 226.7" style="fill:#f1f2f2;fill-rule:evenodd"/><polygon points="496.33 503.34 508.81 490.86 526.05 473.62 385.35 350.16 281.32 258.88 373.45 363.63 496.33 503.34" style="fill:#f1f2f2;fill-rule:evenodd"/><polygon points="244.65 226.7 368.11 367.4 491.57 508.11 494.91 504.76 372.87 366 269.64 248.63 244.65 226.7" style="fill:#f1f2f2;fill-rule:evenodd"/><polygon points="559.35 428.78 568.18 413.49 580.37 392.37 412.51 309.54 288.4 248.29 404.5 325.63 559.35 428.78" style="fill:#f1f2f2;fill-rule:evenodd"/><polygon points="244.65 226.7 400.32 330.66 555.99 434.61 558.35 430.52 404.56 328.07 274.46 241.41 244.65 226.7" style="fill:#f1f2f2;fill-rule:evenodd"/><polygon points="600.93 340.44 605.5 323.39 611.81 299.84 428.23 263.27 292.5 236.23 424.65 280.88 600.93 340.44" style="fill:#f1f2f2;fill-rule:evenodd"/><polygon points="244.65 226.7 421.92 286.82 599.19 346.94 600.41 342.38 425.34 283.23 277.25 233.2 244.65 226.7" style="fill:#f1f2f2;fill-rule:evenodd"/><polygon points="618.23 244.36 618.23 226.7 618.23 202.32 431.44 214.51 293.34 223.53 432.54 232.45 618.23 244.36" style="fill:#f1f2f2;fill-rule:evenodd"/><polygon points="244.65 226.7 431.44 238.9 618.23 251.09 618.23 246.36 433.82 234.54 277.82 224.54 244.65 226.7" style="fill:#f1f2f2;fill-rule:evenodd"/><polygon points="610.07 147.06 605.5 130.01 599.19 106.46 421.92 166.58 290.86 211.03 427.63 183.63 610.07 147.06" style="fill:#f1f2f2;fill-rule:evenodd"/><polygon points="244.65 226.7 428.23 190.13 611.81 153.57 610.59 149 429.4 185.31 276.13 216.03 244.65 226.7" style="fill:#f1f2f2;fill-rule:evenodd"/><polygon points="577.01 55.2 568.18 39.91 555.99 18.8 400.32 122.75 285.23 199.61 410.24 137.74 577.01 55.2" style="fill:#f1f2f2;fill-rule:evenodd"/><polygon points="244.65 226.7 412.51 143.87 580.37 61.03 578.01 56.94 412.39 138.91 272.3 208.24 244.65 226.7" style="fill:#f1f2f2;fill-rule:evenodd"/><polygon points="521.29 -24.97 508.81 -37.46 491.57 -54.7 368.11 86 276.83 190.03 381.57 97.91 521.29 -24.97" style="fill:#f1f2f2;fill-rule:evenodd"/><polygon points="244.65 226.7 385.35 103.24 526.05 -20.21 522.71 -23.55 383.95 98.48 266.58 201.72 244.65 226.7" style="fill:#f1f2f2;fill-rule:evenodd"/><polygon points="446.73 -88 431.44 -96.83 410.32 -109.02 327.49 58.84 266.24 182.95 343.57 66.86 446.73 -88" style="fill:#f1f2f2;fill-rule:evenodd"/><polygon points="244.65 226.7 348.6 71.03 452.56 -84.63 448.47 -87 346.02 66.8 259.36 196.89 244.65 226.7" style="fill:#f1f2f2;fill-rule:evenodd"/><polygon points="358.39 -129.58 341.34 -134.15 317.79 -140.46 281.22 43.12 254.18 178.85 298.83 46.7 358.39 -129.58" style="fill:#f1f2f2;fill-rule:evenodd"/><polygon points="244.65 226.7 304.77 49.43 364.89 -127.83 360.33 -129.06 301.18 46.01 251.15 194.1 244.65 226.7" style="fill:#f1f2f2;fill-rule:evenodd"/></g></g><path d="M308,192.16s-25-9.55-45.2-.19l4,11.8,35.09.43Z" style="fill:#c5b579"/><path d="M255.57,201.32l8.84-1.8,39.14,1.31,9.28,3.8S294.48,218.14,281,217.09C268.67,216.15,256.75,210.34,255.57,201.32Z" style="fill:#e2d492"/><path d="M202.32,244.49l-50-23.22-8.1-8.58L125.93,201l-1.37,2.34a5.19,5.19,0,0,0,.64,6.14l7,7.65-9.79,7.5L102,236.13a7,7,0,0,0-1.93,10.55h0L118,239l17.27,8.9,10.79-8,62,46.13s23.31-30.62,28.61-39.89c12.77-22.39,16.83-23.66,16.82-29.19,0-7.17-7.27-19.88-15.59-13.79C234.12,206,202.32,244.49,202.32,244.49Z" style="fill:#ffb79b"/><path d="M133.47,219.88l4.05,9.3,9.43-.6-11.88,12.86-9.16-9.65s9.17-2.53,8.93-3S133.47,219.88,133.47,219.88Z" style="fill:#ffa98c"/><path d="M100.11,246.68s-1.23-1.55-.48-2.62,22.83-13.27,22.83-13.27l-3,7.37Z" style="fill:#ffa98c"/><path d="M124.56,244.18l-8.75-2.41s-11-8.77-10.93-10.32a2.09,2.09,0,0,1,.5-1,6.79,6.79,0,0,1,9.59-1.14l5,3.92,8,3.44Z" style="fill:#ffb79b"/><path d="M106.76,230.38a6.48,6.48,0,0,1,8.53,2.74l3.67,6.5,1.5,2.82,1.93,1.08,5.61-6.88-8-3.44-5-3.92a6.79,6.79,0,0,0-9.59,1.14,2.09,2.09,0,0,0-.5,1,.83.83,0,0,0,.09.3A6.57,6.57,0,0,1,106.76,230.38Z" style="fill:#ffa98c"/><path d="M124.94,247.72l-5.06-7.6s-.43-14,.78-15a4.25,4.25,0,0,1,2.42-.26,6.26,6.26,0,0,1,5.75,6l.29,6.93,3.54,6.23Z" style="fill:#ffb79b"/><path d="M123.08,224.85a4.25,4.25,0,0,0-2.42.26,1.11,1.11,0,0,0-.28.54,6.27,6.27,0,0,1,4,5.57l-.92,10.37,1.5,6.13,7.72-3.73-4.29-5.47.15-8A5.67,5.67,0,0,0,123.08,224.85Z" style="fill:#ffa98c"/><path d="M127.81,248.13l-4-10.56s11.24-6.4,12.74-6,1.92,5.11,1.92,5.11l-5.81,4.25,2.6,6.95Z" style="fill:#ffb79b"/><path d="M131,240l-1.14-1a40,40,0,0,0,6.32-5.13c1.22-1.42-.65-2.09,0-1.93,1.49.4,1.77,4.55,1.77,4.55l-5.19,4.49,2.6,6.95Z" style="fill:#ffa98c"/><polygon points="146.05 239.92 151.73 235.89 208.09 286.05 146.05 239.92" style="fill:#ffa98c"/><path d="M194.54,244.19l3.1-2.1,4.68,2.4.48-3.44,2.4-1L222,219.22l-1.87-5.69,13.39-8.1s28.34-2.73,30.48,12.8l-19.35,20-35.38,50.43L183.4,269.51Z" style="fill:#f7edb2"/><path d="M229.48,257c.23.59.48,1.18.73,1.78l14.44-20.59,13.87-14.33-1.25-5.35-32-5.84S224.34,243.74,229.48,257Z" style="fill:#e2d492"/><path d="M235.05,202.72l-11.56,6s.43,22.7,16.88,34.36Z" style="fill:#da8a99"/><path d="M170.24,265.39s11.49-22.57,15.23-31.09l16.05,7.11s-5,23.35-14.78,33.6Z" style="fill:#fff8cb"/><polygon points="214.42 247.49 202.32 244.5 203.34 242.23 210.3 244.47 214.42 247.49" style="fill:#e2d492"/><path d="M265,180l-.68,20.86s6.49,13.35,18.84,11.26l20-13.88,3-21.44Z" style="fill:#ffa98c"/><polygon points="261.86 142.73 251.85 113.19 257.36 117.2 263.36 98.93 276.88 104.43 261.86 142.73" style="fill:#29160d"/><path d="M322.87,139.11c-3.16-1.11-6.94,1-9.69,4.88l5.63-38.93S279,95.67,264,111.82c0,0-2.19,12-4.45,26a5.22,5.22,0,0,0-1.25-.06c-4.54.42-7.68,6.68-7,14,.41,4.57,2.22,8.46,4.63,10.63-.74,5.75-1.24,10.73-1.32,14,0,0,9.76,13.33,15.4,15.21s19.15.56,19.15.56,19.52-7.88,24-14.27V163.75a5,5,0,0,0,.87.41c4.3,1.52,9.76-2.86,12.2-9.78S327.17,140.63,322.87,139.11Z" style="fill:#ffb79b"/><path d="M256.48,157.25s-3.63-5.44-2.4-10.7S258.92,140.92,256.48,157.25Z" style="fill:#ffa98c"/><path d="M264.75,111.9a25.81,25.81,0,0,1-7.89-1.58c-4-1.68-7-5.08-9.58-8.55a87.7,87.7,0,0,1-10.12-17.44,42.75,42.75,0,0,0,13.07,10.34c-.31-4.39-.5-9.21,2.13-12.75a17.19,17.19,0,0,1,5.11-4.15,99.32,99.32,0,0,1,20.06-9.17c-2.28,7-3.1,6.35-4.19,13.58,1.14-2.44,4.14-3.28,6.79-3.78,14.35-2.73,32-.43,46.56,0,.63,6.07-1.28,13-3.25,18.77,4.91.69,7.18,4.93,12.09,5.62C322.94,115.2,319.37,139,319.37,139c-4.13,3.75-5.25,11.08-5.25,11.08l-3.6.17s7.66-12.31,2.66-24.2c-.2-.48,9.28-18-4.88-16.15-9.89,1.32-16.74,1.88-26.71,2.31A133.28,133.28,0,0,1,264.75,111.9Z" style="fill:#29160d"/><path d="M277.35,136.74a14.58,14.58,0,0,1-29.15,0c0-8.05,6.15-7.79,14.2-7.79S277.35,128.69,277.35,136.74Z" style="fill:#d3f4f4"/><path d="M262.78,152.44a15.72,15.72,0,0,1-15.7-15.7c0-4.06,1.49-6.63,4.55-7.87,2.61-1.06,6.05-1.05,10.05-1.05h1.45c3.93,0,7.63,0,10.41,1,3.32,1.25,4.94,3.82,4.94,7.88A15.72,15.72,0,0,1,262.78,152.44ZM261,130.07c-3.45,0-6.42.05-8.48.89-1.56.63-3.15,1.8-3.15,5.78a13.45,13.45,0,0,0,26.9,0c0-4-1.86-5.16-3.48-5.77-2.4-.9-5.91-.9-9.62-.9H261Z" style="fill:#812b3a"/><path d="M314.47,137.74a14.58,14.58,0,0,1-29.15,0c0-8.05,5.46-8.79,13.51-8.79S314.47,129.69,314.47,137.74Z" style="fill:#d3f4f4"/><path d="M299.89,153.44a15.72,15.72,0,0,1-15.7-15.7c0-9.17,6.63-9.92,14.64-9.92,6.27,0,16.77,0,16.77,9.92A15.72,15.72,0,0,1,299.89,153.44Zm-1.06-23.37c-8.74,0-12.38,1.07-12.38,7.67a13.45,13.45,0,1,0,26.89,0C313.34,131.33,308,130.07,298.83,130.07Z" style="fill:#812b3a"/><path d="M284.53,137.92c-4.09-2.66-6.27-.5-6.36-.41L276.52,136c1.19-1.28,4.65-2.92,9.23.06Z" style="fill:#812b3a"/><path d="M281.4,138.17l2.62,14a1.88,1.88,0,0,1-1.63,2.21l-10,1.15a2,2,0,0,1-2.17-2.84l8.38-15.43A1.53,1.53,0,0,1,281.4,138.17Z" style="fill:#ff9898"/><path d="M264.11,160.51s16.9-.19,33.67-1.19c0,0-2.12,15.2-16.89,15.2C263.61,174.52,264.11,160.51,264.11,160.51Z" style="fill:#fff"/><path d="M317.56,158.75s9.51-6.19,6.32-13.51C321.55,139.9,316.31,149,317.56,158.75Z" style="fill:#ffa98c"/><path d="M265.12,136a.33.33,0,0,0,.41.5c3.68-2.11,7,.72,8,1.66a.33.33,0,0,0,.5,0l.93-1.34a.33.33,0,0,0,0-.41C270.59,131.66,267,134,265.12,136Zm36.59.82c-2.48-2.09-7.17-4.5-12.86.26a.34.34,0,0,0,0,.48l1.29,1.4a.31.31,0,0,0,.44,0c1.07-.83,5.72-4,10.82-1.62A.33.33,0,0,0,301.71,136.86Z" style="fill:#29160d"/><path d="M332.7,140.17c-.19-1.51-17.52-4.38-17.52-4.38l-.06,3.56s1.24.15,3.38.56c1.34-1.46,5.59-2,7.89,2.63a10.39,10.39,0,0,1,3.12,1.59c.58.53.49,1.81,3.1.38C333.45,144.05,332.89,141.67,332.7,140.17Z" style="fill:#812b3a"/><path d="M296.88,162.72a19.47,19.47,0,0,0,.9-3.4c-16.77,1-33.67,1.19-33.67,1.19a12.65,12.65,0,0,0,.32,2.82C269.24,161.87,280.1,159.72,296.88,162.72Z" style="fill:#e3e2e1"/><path d="M286.8,179.12a24.27,24.27,0,0,1-8.17,1,18.76,18.76,0,0,1-6.94-1.51l-2.58,12.58a7.43,7.43,0,0,0,.89.38c4.94,1.65,16,.83,18.58.61Z" style="fill:#ffc3b0"/><path d="M268.59,178.11a63.06,63.06,0,0,0,21.31.67S275.74,186.06,268.59,178.11Z" style="fill:#ffa98c"/><path d="M273.75,175.4s7.51.25,8.51.63S272,177.15,273.75,175.4Z" style="fill:#fff"/><polygon points="284.12 201.48 280.51 213.56 303.52 200.04 307.98 192.16 284.12 201.48" style="fill:#c5b579"/><polygon points="274.73 200.83 277.57 213.94 257.31 201.29 262.78 191.97 274.73 200.83" style="fill:#c5b579"/><path d="M274.29,211.61l-3,8.8h12.91l-1.66-9.82S273.75,209,274.29,211.61Z" style="fill:#003b74"/><path d="M273.54,203.63c1.92-2.19,9.76-2.35,11.65-.13s-1.9,11.12-1.9,11.12-2.71-2.19-9.4-1.06C273.23,213.67,271.78,205.63,273.54,203.63Z" style="fill:#29160d"/><path d="M238.35,320s-8.23,50.89,2.34,104.46c0,0,12.34,45.06,4.95,76.1,0,0,20.71,6.51,36.95,0,0,0-3.49-52.07-15.15-72.59l.72-68.11h9.35l11.79,67.61,12.48,73.09s38.35,10.78,36.07-4c-.47-3-24.1-74.1-24.1-74.1l-3.07-95.26Z" style="fill:#29160d"/><polygon points="234.04 317.77 232.18 336.26 256.34 347.92 272.34 338.16 273.58 325.29 279.81 347.92 315.19 343.42 319.01 337 313.46 324.61 303.09 320.67 234.04 317.77" style="fill:#f7edb2"/><polygon points="315.19 339.44 279.81 343.95 269.44 310.89 268.78 336.86 256.2 346.29 232.37 334.43 232.18 336.26 256.34 347.92 272.34 338.16 273.58 325.29 279.81 347.92 315.19 343.42 319.01 337 317.99 334.73 315.19 339.44" style="fill:#fff8cb"/><path d="M270.87,332.85a2.08,2.08,0,1,1-2.08-2.08A2.08,2.08,0,0,1,270.87,332.85Z" style="fill:#e2d492"/><path d="M270.5,332.67a1.91,1.91,0,1,1-1.9-1.9A1.91,1.91,0,0,1,270.5,332.67Z" style="fill:#fff8cb"/><path d="M268.51,332.16a.35.35,0,1,1-.7,0,.35.35,0,1,1,.7,0Z" style="fill:#e2d492"/><path d="M269.39,333.2a.35.35,0,0,1-.35.35.35.35,0,0,1-.35-.35.34.34,0,0,1,.35-.35A.35.35,0,0,1,269.39,333.2Z" style="fill:#e2d492"/><path d="M315.86,204.28c-2.21,5.84-14.87,16.74-38.29,14.54-27-2.55-25.5-16.71-23.75-19.3h0c-9.43,1-17.71,2.4-18.78,3.2-9,6.76-11.25,27.7-10.88,37.35.59,15.35,2.78,66.58,5.63,81.69.74,3.94,33,10.52,85.32,5-.43-16.34,20.53-86.15,28.12-104.4C344.55,219.19,336.77,210.39,315.86,204.28Z" style="fill:#883640"/><path d="M239.06,256.83c.95-1.57,1.92-3.14,2.89-4.71,1.73-.82,3.47-1.64,5.22-2.44-1.68-.94-3.38-1.86-5.09-2.78q-1.35-2.42-2.75-4.83c-1,1.57-2,3.15-2.92,4.73q-2.61,1.27-5.19,2.59,2.58,1.29,5.13,2.63C237.26,253.62,238.17,255.22,239.06,256.83Z" style="fill:#812b3a"/><path d="M258.92,238.72a3.81,3.81,0,0,0-7.62-.13,3.81,3.81,0,0,0,7.62.13Z" style="fill:#812b3a"/><path d="M325.84,276.44l1.23-4.34a388.73,388.73,0,0,0-102-11.76c.07,1.47.15,3,.22,4.51A384.47,384.47,0,0,1,325.84,276.44Z" style="fill:#812b3a"/><path d="M317.92,245a3.81,3.81,0,1,0-4.41,3A3.77,3.77,0,0,0,317.92,245Z" style="fill:#812b3a"/><path d="M286.75,240.51a3.81,3.81,0,0,0-7.58-.69,3.81,3.81,0,0,0,7.58.69Z" style="fill:#812b3a"/><path d="M271,253.92c1.78-.69,3.57-1.38,5.38-2q-2.42-1.59-4.87-3.14-1.17-2.52-2.39-5c-1.09,1.49-2.18,3-3.26,4.5q-2.69,1.08-5.36,2.2c1.66,1,3.29,2,4.92,3,.8,1.67,1.58,3.33,2.35,5C268.83,256.91,269.9,255.41,271,253.92Z" style="fill:#812b3a"/><path d="M304.09,258.61c1.84-.54,3.69-1.08,5.54-1.59q-2.28-1.78-4.59-3.54c-.64-1.74-1.29-3.47-2-5.21q-1.83,2.1-3.63,4.22-2.77.84-5.53,1.74c1.57,1.12,3.12,2.26,4.65,3.4.66,1.73,1.3,3.45,1.93,5.18C301.69,261.4,302.88,260,304.09,258.61Z" style="fill:#812b3a"/><path d="M278.36,314.6a3.81,3.81,0,0,0-7.53-1.13,3.81,3.81,0,0,0,7.53,1.13Z" style="fill:#812b3a"/><path d="M250.68,311.2a3.81,3.81,0,1,0-4.08,3.44A3.77,3.77,0,0,0,250.68,311.2Z" style="fill:#812b3a"/><path d="M309.21,320.89a3.81,3.81,0,0,0-7.41-1.76,3.81,3.81,0,0,0,7.41,1.76Z" style="fill:#812b3a"/><path d="M227.84,235.39a3.76,3.76,0,1,0,4,3.56A3.77,3.77,0,0,0,227.84,235.39Z" style="fill:#812b3a"/><path d="M227.24,222.14q1.26-2.46,2.54-4.91,2.5-1.42,5-2.82-2.62-1.22-5.28-2.39l-.56-.83a50.72,50.72,0,0,0-2.9,9.2C226.46,221,226.86,221.55,227.24,222.14Z" style="fill:#812b3a"/><path d="M227.14,296.42c.11,1.54.23,3.05.34,4.52a384.14,384.14,0,0,1,89.25,12.58c.27-1.42.56-2.89.89-4.43A388.64,388.64,0,0,0,227.14,296.42Z" style="fill:#812b3a"/><path d="M262.41,275a3.81,3.81,0,1,0,4.14-3.41A3.81,3.81,0,0,0,262.41,275Z" style="fill:#812b3a"/><path d="M255.82,221.62q1.43-2.37,2.89-4.71c1.22-.59,2.46-1.16,3.69-1.73a17.36,17.36,0,0,1-7.62-6.2c-.54.87-1.08,1.73-1.62,2.61q-2.61,1.28-5.18,2.58,2.58,1.31,5.13,2.63C254,218.41,254.93,220,255.82,221.62Z" style="fill:#812b3a"/><path d="M225.08,225.78c-.24,1.55-.42,3.08-.56,4.56A384,384,0,0,1,337,239.86c.49-1.49,1-2.93,1.44-4.3A388.71,388.71,0,0,0,225.08,225.78Z" style="fill:#812b3a"/><path d="M321.39,284.62a3.77,3.77,0,0,0,1.22,3.73q.84-3.21,1.73-6.49A3.74,3.74,0,0,0,321.39,284.62Z" style="fill:#812b3a"/><path d="M226.36,284.67c0,.55.06,1.09.1,1.63l1.56-.76C227.47,285.25,226.91,285,226.36,284.67Z" style="fill:#812b3a"/><path d="M315.33,222.42c.66,1.72,1.3,3.45,1.93,5.17q1.77-2.1,3.59-4.19c1.84-.55,3.68-1.08,5.54-1.6q-2.28-1.78-4.59-3.54c-.64-1.73-1.3-3.47-2-5.2q-1.83,2.1-3.63,4.21-2.77.85-5.53,1.74C312.25,220.14,313.79,221.27,315.33,222.42Z" style="fill:#812b3a"/><path d="M282.59,219.09c.65,1.37,1.3,2.73,1.93,4.1,1-1.41,2-2.81,3-4.22C286,219.08,284.31,219.12,282.59,219.09Z" style="fill:#812b3a"/><path d="M341.75,226.14c.25-.67.5-1.3.73-1.9l-2.32.54Z" style="fill:#812b3a"/><path d="M309.1,293.09q-2.82.69-5.61,1.42,2.24,1.82,4.44,3.66.84,2.64,1.63,5.28c1.26-1.33,2.54-2.66,3.82-4,1.87-.44,3.74-.86,5.63-1.27-1.45-1.28-2.91-2.54-4.38-3.8-.54-1.77-1.1-3.54-1.66-5.31Q311,291.09,309.1,293.09Z" style="fill:#812b3a"/><path d="M293.66,278.91a3.81,3.81,0,1,0,4.41-3.05A3.75,3.75,0,0,0,293.66,278.91Z" style="fill:#812b3a"/><path d="M238.42,270.09a3.76,3.76,0,1,0,3.74,3.84A3.78,3.78,0,0,0,238.42,270.09Z" style="fill:#812b3a"/><path d="M323.4,260c1.47,1.24,2.94,2.49,4.39,3.75.29,1,.57,1.95.85,2.93,1.07-3.67,2.16-7.3,3.24-10.82-.95.94-1.9,1.88-2.83,2.82C327.16,259.11,325.27,259.55,323.4,260Z" style="fill:#812b3a"/><path d="M275.81,286.88c-1.84.62-3.66,1.25-5.48,1.89,1.59,1.08,3.17,2.18,4.74,3.28.7,1.71,1.38,3.42,2.06,5.13q1.72-2.16,3.47-4.3,2.75-.88,5.5-1.74c-1.55-1.15-3.11-2.28-4.68-3.41q-1-2.58-2.1-5.15Q277.55,284.73,275.81,286.88Z" style="fill:#812b3a"/><path d="M248.57,294q1.56-2.28,3.15-4.54c1.77-.72,3.56-1.44,5.35-2.14q-2.44-1.54-4.92-3.06-1.22-2.49-2.47-5c-1.07,1.51-2.14,3-3.19,4.55-1.79.75-3.56,1.51-5.33,2.28,1.67,1,3.33,1.94,5,2.93C247,290.64,247.77,292.29,248.57,294Z" style="fill:#812b3a"/><path d="M309.83,202.69c-3.3,6.51-15.58,11.24-31.88,10.1-17.36-1.22-21-8.54-19.54-13.62,5.38-.5,2.42-.4-4.59.35-1.75,2.59-3.29,16.75,23.75,19.3,23.42,2.2,36.08-8.7,38.29-14.54Q313,203.46,309.83,202.69Z" style="fill:#da8a99"/><polygon points="312.83 202.95 307.98 192.16 284.12 201.48 289.3 217.09 312.83 202.95" style="fill:#fff8cb"/><polygon points="255.66 201.91 262.78 191.97 274.73 200.83 267.65 215.57 255.66 201.91" style="fill:#fff8cb"/><path d="M327.82,217.06c-2.84,6.81-5.89,17.17-4.42,28.13,2.54,19,11.46,23,11.46,23l7.62-4s2.36-41.67,0-47a12.93,12.93,0,0,0-4.63-5.11C334.93,210,329.91,212.06,327.82,217.06Z" style="fill:#da8a99"/><path d="M333.27,219.62c-3.48,8.26-8.61,23.81-2.08,31.9l20,53.45,29.83,5.29V275.8l-32.29-52.63v-3.93l-3.88-1.59-6.13-2.38S334.68,216.28,333.27,219.62Z" style="fill:#f7edb2"/><path d="M358.7,239.66l-29.82-6.27c-1.35,6.66-1.37,13.57,2.31,18.13l14.54,38.8Z" style="fill:#e2d492"/><polygon points="352.77 270.09 375.79 270.09 370.78 267.69 352.77 270.09" style="fill:#e2d492"/><polygon points="270.02 291.98 306.2 215.27 357.48 237.4 326.39 313.52 270.02 291.98" style="fill:#29160d"/><path d="M317.2,227.3a.62.62,0,0,1,.34.31.8.8,0,0,1,.06.36l-.65,9.38a.36.36,0,0,1,0,.1.3.3,0,0,1-.17.16.3.3,0,0,1-.23,0l-2.37-1c-.17-.08-.28-.16-.31-.26a.62.62,0,0,1-.05-.28l.05-1-2.75-1.18-.67.71a.57.57,0,0,1-.23.15.51.51,0,0,1-.41,0l-2.36-1a.35.35,0,0,1-.17-.17.29.29,0,0,1,0-.24.22.22,0,0,1,.05-.08l6.35-6.94a.64.64,0,0,1,.3-.21.6.6,0,0,1,.45,0Zm-2.93,5,.29-2.69-1.74,2.07Z" style="fill:#fff8cb"/><path d="M325.17,238.21a.35.35,0,0,1,.2.21.34.34,0,0,1,0,.28l-.83,1.94a.34.34,0,0,1-.2.19.37.37,0,0,1-.29,0l-6.45-2.76a.39.39,0,0,1-.2-.2.37.37,0,0,1,0-.29l3.54-8.27a.38.38,0,0,1,.21-.2.37.37,0,0,1,.29,0l2.56,1.1a.33.33,0,0,1,.19.21.34.34,0,0,1,0,.28l-2.56,6Z" style="fill:#fff8cb"/><path d="M330.18,242.15a1,1,0,0,0-1.4.54c-.33.69-.64,1.42-.93,2.17a1.26,1.26,0,0,0-.06,1,1.06,1.06,0,0,0,.63.57,1.5,1.5,0,0,0,.88.13.88.88,0,0,0,.6-.58l-.6-.26a.38.38,0,0,1-.2-.21.34.34,0,0,1,0-.28l.61-1.42a.35.35,0,0,1,.21-.2.34.34,0,0,1,.28,0l3.52,1.51a.33.33,0,0,1,.2.2.37.37,0,0,1,0,.29l-.71,1.66a3.82,3.82,0,0,1-1,1.39,3.49,3.49,0,0,1-1.38.71,4.46,4.46,0,0,1-1.68.07,7.46,7.46,0,0,1-1.87-.53,7.12,7.12,0,0,1-1.66-1,4.19,4.19,0,0,1-1.06-1.23,3.22,3.22,0,0,1-.4-1.46,4.38,4.38,0,0,1,.31-1.71c.14-.36.29-.74.47-1.15s.35-.79.52-1.15a4.06,4.06,0,0,1,1-1.33,3.24,3.24,0,0,1,1.34-.69,4.35,4.35,0,0,1,1.62-.06,8,8,0,0,1,3.54,1.54,5.15,5.15,0,0,1,1.11,1.21,3.3,3.3,0,0,1,.49,1.29,2.33,2.33,0,0,1-.15,1.23.28.28,0,0,1-.16.16.26.26,0,0,1-.24,0l-2.83-1.21a.49.49,0,0,1-.31-.3s0-.1,0-.17a.65.65,0,0,0-.09-.24,1.2,1.2,0,0,0-.21-.26A1.23,1.23,0,0,0,330.18,242.15Z" style="fill:#fff8cb"/><path d="M340.73,251.51a.41.41,0,0,1,.2.21.37.37,0,0,1,0,.29l-.77,1.8a.35.35,0,0,1-.21.2.37.37,0,0,1-.29,0L333,251.15a.33.33,0,0,1-.2-.2.37.37,0,0,1,0-.29l3.54-8.27a.33.33,0,0,1,.21-.19.34.34,0,0,1,.28,0L343.4,245a.38.38,0,0,1,.2.21.34.34,0,0,1,0,.28l-.77,1.81a.39.39,0,0,1-.2.2.36.36,0,0,1-.29,0l-3.84-1.64-.35.81,3.56,1.52a.38.38,0,0,1,.2.21.34.34,0,0,1,0,.28l-.71,1.67a.38.38,0,0,1-.21.2.41.41,0,0,1-.29,0L337.14,249l-.35.81Z" style="fill:#fff8cb"/><path d="M305.29,251.48a.39.39,0,0,1-.2-.2.37.37,0,0,1,0-.29l3.54-8.27a.38.38,0,0,1,.21-.2.37.37,0,0,1,.29,0l4.24,1.82a4.72,4.72,0,0,1,2.41,1.81,2.61,2.61,0,0,1,0,2.39,1.64,1.64,0,0,1-.35.52,1.87,1.87,0,0,1-.45.36,3.26,3.26,0,0,1-.48.2,2,2,0,0,1-.43.08,1.94,1.94,0,0,1,.34.49,2.08,2.08,0,0,1,.21.59,2.35,2.35,0,0,1,0,.65,1.94,1.94,0,0,1-.16.65,2.69,2.69,0,0,1-1.84,1.73,4.85,4.85,0,0,1-3-.46Zm3.8-1,1.19.51a.54.54,0,0,0,.54,0,.76.76,0,0,0,.31-.36.74.74,0,0,0,0-.49.54.54,0,0,0-.36-.39l-1.19-.51Zm3.29-3.28a.74.74,0,0,0,.05-.45.46.46,0,0,0-.32-.36L311,246l-.5,1.16,1.07.46a.5.5,0,0,0,.49,0A.71.71,0,0,0,312.38,247.22Z" style="fill:#fff8cb"/><path d="M322.5,258.35a.26.26,0,0,1,0,.16.27.27,0,0,1-.17.16.26.26,0,0,1-.23,0l-2.63-1.12a.52.52,0,0,1-.32-.29.91.91,0,0,1-.08-.29l-.05-2.92-.53-.22-1,2.44a.35.35,0,0,1-.21.2.37.37,0,0,1-.29,0l-2.5-1.08a.33.33,0,0,1-.2-.2.37.37,0,0,1,0-.29l3.54-8.26a.35.35,0,0,1,.21-.2.34.34,0,0,1,.28,0l3.79,1.62a6.49,6.49,0,0,1,1.56.92,3.79,3.79,0,0,1,1,1.14,3,3,0,0,1,.34,1.31,3.23,3.23,0,0,1-.29,1.42,3,3,0,0,1-1,1.33,3.31,3.31,0,0,1-1.43.58Zm-3-7,.93.4a.58.58,0,0,0,.53,0,.87.87,0,0,0,.34-.39,1.09,1.09,0,0,0,.07-.54.54.54,0,0,0-.36-.42l-.93-.4Z" style="fill:#fff8cb"/><path d="M332.41,252.5a.53.53,0,0,1,.34.31.8.8,0,0,1,.06.36l-.64,9.38a.54.54,0,0,1,0,.1.27.27,0,0,1-.17.16.31.31,0,0,1-.23,0l-2.37-1a.53.53,0,0,1-.31-.27.71.71,0,0,1-.05-.27l.05-1-2.75-1.18-.67.71a.57.57,0,0,1-.23.15.53.53,0,0,1-.4,0l-2.37-1a.28.28,0,0,1-.16-.16.33.33,0,0,1,0-.24.22.22,0,0,1,0-.08l6.35-7a.75.75,0,0,1,.3-.2.62.62,0,0,1,.46,0Zm-2.93,5,.29-2.69L328,256.89Z" style="fill:#fff8cb"/><path d="M279.36,258c.37-3.47,8.2-19.79,8.2-19.79l8.78-2.39-2.42,5.33,12.87,1.95,10.58,19.67,41.49,6.68L354.55,294l-3.33,6.63-65.53-30.49Z" style="fill:#ffb79b"/><polygon points="313.75 270.09 298.48 255.86 285.69 270.09 351.22 300.58 354.55 293.95 357.1 279.49 313.75 270.09" style="fill:#ffa98c"/><path d="M342.5,264.93a94.64,94.64,0,0,1-7,33l21.25,7.37s9.25-26,3.37-40.35Z" style="fill:#fff8cb"/><polygon points="293.18 243 293.93 241.19 304.47 247.79 303.49 251.06 293.18 243" style="fill:#ffa98c"/><rect x="11.26" y="36" width="375.48" height="375.48" style="fill:none"/></g></svg>